<svg xmlns="http://www.w3.org/2000/svg" width="24" height="24" viewBox="0 0 24 24">
    <g fill="none" fill-rule="evenodd">
        <g>
            <g>
                <g>
                    <g>
                        <path d="M0 0H24V24H0z" transform="translate(-209 -236) translate(0 228) translate(180 1) translate(29 7)"/>
                        <g>
                            <path d="M0 0L24 0 24 24 0 24z" transform="translate(-209 -236) translate(0 228) translate(180 1) translate(29 7)"/>
                            <path fill="#1b2d93" d="M12 7L12 3 2 3 2 21 22 21 22 7z" transform="translate(-209 -236) translate(0 228) translate(180 1) translate(29 7)"/>
                            <path fill="#FFF" d="M6 19L4 19 4 17 6 17zM6 15L4 15 4 13 6 13zM6 11L4 11 4 9 6 9zM6 7L4 7 4 5 6 5zM10 19L8 19 8 17 10 17zM10 15L8 15 8 13 10 13zM10 11L8 11 8 9 10 9zM10 7L8 7 8 5 10 5z" transform="translate(-209 -236) translate(0 228) translate(180 1) translate(29 7)"/>
                            <path fill="#1b2d93" stroke="#1b2d93" stroke-width=".5" d="M20 19L12 19 12 17 14 17 14 15 12 15 12 13 14 13 14 11 12 11 12 9 20 9z" transform="translate(-209 -236) translate(0 228) translate(180 1) translate(29 7)"/>
                            <path fill="#FFF" d="M16 16L14 16 14 14 16 14zM20 16L18 16 18 14 20 14zM16 12L14 12 14 10 16 10zM20 12L18 12 18 10 20 10z" transform="translate(-209 -236) translate(0 228) translate(180 1) translate(29 7)"/>
                        </g>
                    </g>
                </g>
            </g>
        </g>
    </g>
</svg>
