<svg xmlns="http://www.w3.org/2000/svg" width="24" height="24" viewBox="0 0 24 24">
    <g fill="none" fill-rule="evenodd">
        <g>
            <g>
                <g>
                    <g>
                        <path d="M0 0H24V24H0z" transform="translate(-291 -236) translate(0 228) translate(262 1) translate(29 7)"/>
                        <path fill="#1b2d93" stroke="#1b2d93" stroke-width=".2" d="M14.73 2.1c.1 0 .192.036.262.096.051.044.091.102.113.169l.015.07.389 2.706c.533.214 1.028.489 1.49.819l.274.204 2.543-1.021c.04-.016.087-.023.133-.023.074 0 .146.019.208.054.04.022.075.052.105.087l.04.059 2 3.458c.048.089.063.188.045.28-.012.068-.042.132-.088.184l-.051.05-2.155 1.684c.043.335.076.668.076 1.024 0 .237-.014.464-.037.689l-.039.335 2.154 1.684c.076.06.123.144.14.234.013.069.008.142-.015.21l-.03.068-2 3.461c-.035.062-.085.111-.143.145-.061.035-.13.054-.2.054l-.073-.006h0l-.07-.017-2.542-1.02c-.45.341-.932.646-1.45.886l-.315.136-.389 2.709c-.012.094-.06.177-.128.236-.053.045-.118.077-.19.09l-.073.006h-4c-.1 0-.192-.036-.262-.096-.052-.044-.091-.102-.113-.169l-.016-.07-.388-2.706c-.533-.214-1.028-.489-1.49-.819l-.275-.204-2.543 1.021c-.039.016-.086.023-.133.023-.073 0-.145-.019-.208-.054-.04-.022-.075-.052-.105-.087l-.04-.059-1.999-3.458c-.048-.089-.063-.188-.046-.28.013-.068.043-.132.089-.184l.05-.05 2.156-1.684c-.043-.334-.077-.679-.077-1.024 0-.23.015-.46.038-.687l.039-.337L3.25 9.292c-.077-.061-.127-.147-.144-.239-.013-.067-.008-.138.017-.206l.032-.067 2-3.461c.036-.062.086-.111.144-.145.06-.035.13-.054.2-.054l.073.006h0l.07.017 2.541 1.02c.451-.341.932-.646 1.45-.886l.316-.136.389-2.709 4.39-.332zm-2 5.8c-1.133 0-2.158.459-2.9 1.2-.742.742-1.2 1.767-1.2 2.9s.458 2.158 1.2 2.9c.742.741 1.767 1.2 2.9 1.2 1.132 0 2.157-.459 2.899-1.2.742-.742 1.2-1.767 1.2-2.9s-.458-2.158-1.2-2.9c-.742-.741-1.767-1.2-2.9-1.2zm0 2.2c.522 0 .997.214 1.341.558.344.345.558.82.558 1.342 0 .523-.214.997-.558 1.342-.344.344-.82.558-1.342.558-.522 0-.997-.214-1.341-.558-.345-.345-.559-.82-.559-1.342 0-.523.214-.997.559-1.342.344-.344.819-.558 1.341-.558z" transform="translate(-291 -236) translate(0 228) translate(262 1) translate(29 7)"/>
                    </g>
                </g>
            </g>
        </g>
    </g>
</svg>
