<svg xmlns="http://www.w3.org/2000/svg" width="24" height="24" viewBox="0 0 24 24">
    <g fill="none" fill-rule="evenodd">
        <g>
            <g>
                <g>
                    <g>
                        <path d="M0 0H24V24H0z" transform="translate(-45 -236) translate(0 228) translate(16 1) translate(29 7)"/>
                        <path fill="#1b2d93" stroke="#1b2d93" stroke-width=".2" d="M14 2.1c.527 0 1.002.211 1.346.554.305.306.505.715.546 1.172L15.9 4v2.1H20c.527 0 1.002.211 1.346.554.305.306.505.715.546 1.172L21.9 8v11c0 .527-.211 1.002-.554 1.346-.306.305-.715.505-1.172.546L20 20.9H4c-.527 0-1.002-.211-1.346-.554-.305-.306-.505-.715-.546-1.172L2.1 19l.01-11c0-.528.21-1.004.551-1.347.303-.304.71-.505 1.166-.545L4 6.1h4.1V4c0-.527.211-1.002.554-1.346.306-.305.715-.505 1.172-.546L10 2.1h4zm.1 1.8H9.9v2.2h4.2V3.9z" transform="translate(-45 -236) translate(0 228) translate(16 1) translate(29 7)"/>
                    </g>
                </g>
            </g>
        </g>
    </g>
</svg>
