<svg xmlns="http://www.w3.org/2000/svg" width="24" height="24" viewBox="0 0 24 24">
    <g fill="none" fill-rule="evenodd">
        <g>
            <g>
                <g>
                    <g>
                        <path d="M0 0H24V24H0z" transform="translate(-45 -107) translate(0 99) translate(16 1) translate(29 7)"/>
                        <path fill="#FBFBFB" stroke="#8490A8" stroke-width="1.2" d="M14 2.6c.389 0 .739.155.992.408.221.221.368.517.4.848L15.4 4v2.6H20c.389 0 .739.155.992.408.221.221.368.517.4.848L21.4 8v11c0 .389-.155.739-.408.992-.221.221-.517.368-.848.4L20 20.4H4c-.389 0-.739-.155-.992-.408-.221-.221-.368-.517-.4-.848l-.008-.143L2.61 8c0-.39.153-.74.405-.994.22-.22.513-.366.842-.399L4 6.6h4.6V4c0-.389.155-.739.408-.992.221-.221.517-.368.848-.4L10 2.6h4zm.6.8H9.4v3.2h5.2V3.4z" transform="translate(-45 -107) translate(0 99) translate(16 1) translate(29 7)"/>
                    </g>
                </g>
            </g>
        </g>
    </g>
</svg>
