<svg xmlns="http://www.w3.org/2000/svg" width="24" height="24" viewBox="0 0 24 24">
    <g fill="none" fill-rule="evenodd">
        <g>
            <g>
                <g>
                    <g>
                        <path d="M0 0H24V24H0z" transform="translate(-291 -107) translate(0 99) translate(262 1) translate(29 7)"/>
                        <path fill="#8490A8" stroke="#FFF" stroke-width=".2" d="M14.73 2.1c.1 0 .192.036.262.096.051.044.091.102.113.169l.015.07.389 2.706c.533.214 1.028.489 1.49.819l.274.204 2.543-1.021c.04-.016.087-.023.133-.023.074 0 .146.019.208.054.04.022.075.052.105.087l.04.059 2 3.458c.048.089.063.188.045.28-.012.068-.042.132-.088.184l-.051.05-2.155 1.684c.043.335.076.668.076 1.024 0 .237-.014.464-.037.689l-.039.335 2.154 1.684c.076.06.123.144.14.234.013.069.008.142-.015.21l-.03.068-2 3.461c-.035.062-.085.111-.143.145-.061.035-.13.054-.2.054l-.073-.006h0l-.07-.017-2.542-1.02c-.45.341-.932.646-1.45.886l-.315.136-.389 2.709c-.012.094-.06.177-.128.236-.053.045-.118.077-.19.09l-.073.006h-4c-.1 0-.192-.036-.262-.096-.052-.044-.091-.102-.113-.169l-.016-.07-.388-2.706c-.533-.214-1.028-.489-1.49-.819l-.275-.204-2.543 1.021c-.039.016-.086.023-.133.023-.073 0-.145-.019-.208-.054-.04-.022-.075-.052-.105-.087l-.04-.059-1.999-3.458c-.048-.089-.063-.188-.046-.28.013-.068.043-.132.089-.184l.05-.05 2.156-1.684c-.043-.334-.077-.679-.077-1.024 0-.23.015-.46.038-.687l.039-.337L3.25 9.292c-.077-.061-.127-.147-.144-.239-.013-.067-.008-.138.017-.206l.032-.067 2-3.461c.036-.062.086-.111.144-.145.06-.035.13-.054.2-.054l.073.006h0l.07.017 2.541 1.02c.451-.341.932-.646 1.45-.886l.316-.136.389-2.709 4.39-.332zm-1.224 1.8h-1.563l-.213 1.435-.152 1.074-1.006.408-.251.113c-.335.161-.672.37-1.021.63h0l-.856.646-.987-.399-1.35-.542-.788 1.36 1.149.894.845.665-.133 1.074-.017.175c-.02.223-.034.405-.034.567 0 .203.02.436.05.75h0l.134 1.076-.845.665-1.149.894.787 1.36 1.35-.542 1.008-.409.864.665.245.175c.327.223.658.402 1.008.548h0l1.007.409.152 1.073.202 1.436h1.574l.212-1.435.152-1.074 1.007-.408.25-.113c.335-.161.672-.37 1.022-.63h0l.855-.646.988.399 1.35.542.788-1.36-1.15-.894-.844-.665.133-1.074.017-.174c.02-.22.033-.398.033-.568 0-.214-.01-.427-.05-.743h0l-.133-1.073.845-.665 1.138-.904-.787-1.36-1.35.542-1.007.409-.865-.665-.245-.175c-.327-.223-.657-.402-1.007-.548h0l-1.008-.409-.152-1.073-.202-1.436zm-.777 4.2c1.078 0 2.053.436 2.758 1.142.706.706 1.142 1.68 1.142 2.758 0 1.077-.436 2.052-1.142 2.758-.705.706-1.68 1.142-2.758 1.142-1.077 0-2.052-.436-2.758-1.142-.705-.706-1.142-1.68-1.142-2.758 0-1.077.437-2.052 1.142-2.758.706-.706 1.681-1.142 2.758-1.142zm0 1.8h0l-.19.009c-.502.045-.955.27-1.293.608-.38.38-.617.905-.617 1.483 0 .578.236 1.103.617 1.483.38.38.906.617 1.483.617.578 0 1.103-.236 1.484-.617.38-.38.616-.905.616-1.483 0-.578-.236-1.103-.616-1.483-.381-.38-.906-.617-1.484-.617h0z" transform="translate(-291 -107) translate(0 99) translate(262 1) translate(29 7)"/>
                    </g>
                </g>
            </g>
        </g>
    </g>
</svg>
