<svg xmlns="http://www.w3.org/2000/svg" xmlns:xlink="http://www.w3.org/1999/xlink" width="57" height="57" viewBox="0 0 57 57">
    <defs>
        <filter id="5l4co6d28a" width="183.8%" height="183.8%" x="-41.9%" y="-39.2%" filterUnits="objectBoundingBox">
            <feOffset dy="1" in="SourceAlpha" result="shadowOffsetOuter1"/>
            <feGaussianBlur in="shadowOffsetOuter1" result="shadowBlurOuter1" stdDeviation="5"/>
            <feColorMatrix in="shadowBlurOuter1" values="0 0 0 0 0 0 0 0 0 0 0 0 0 0 0 0 0 0 0.159336757 0"/>
        </filter>
        <rect id="bkrdmgieyb" width="37" height="37" x="0" y="0" rx="18.5"/>
    </defs>
    <g fill="none" fill-rule="evenodd">
        <g>
            <g>
                <g transform="translate(-1088 -756) translate(1098 765)">
                    <use fill="#000" filter="url(#5l4co6d28a)" xlink:href="#bkrdmgieyb"/>
                    <use fill="#276EF1" xlink:href="#bkrdmgieyb"/>
                </g>
                <path fill="#FFF" fill-rule="nonzero" d="M18.503 7c-4.913.012-9.28 3.068-10.876 7.615-1.597 4.547-.074 9.584 3.794 12.55 1.363 1.277 2.972 2.276 4.735 2.937 2.567.98 5.381 1.163 8.059.524.714-.159 1.207-.92.944-1.484-.206-.44-.245-.912-.392-1.361 0-.02 0-.038.014-.058 4.262-2.728 6.19-7.87 4.743-12.647-1.448-4.778-5.927-8.06-11.02-8.076zm-4.975 13.38c-.573.004-1.092-.332-1.312-.85-.22-.517-.098-1.114.309-1.51.406-.395 1.017-.51 1.545-.29.527.219.867.728.86 1.29-.009.751-.633 1.358-1.402 1.36zm4.96 0c-.777-.006-1.403-.628-1.398-1.389.005-.76.639-1.374 1.417-1.371.778.003 1.406.621 1.405 1.382-.008.764-.643 1.38-1.423 1.38v-.002zm4.99 0c-.57.003-1.087-.331-1.308-.847-.22-.516-.101-1.111.302-1.507.404-.396 1.011-.515 1.54-.301.527.214.871.718.87 1.277.001.76-.626 1.378-1.403 1.38v-.002z" transform="translate(-1088 -756) translate(1098 765)"/>
            </g>
        </g>
    </g>
</svg>
