<svg xmlns="http://www.w3.org/2000/svg" xmlns:xlink="http://www.w3.org/1999/xlink" width="136" height="165" viewBox="0 0 136 165">
    <defs>
        <path id="xcpanhjzja" d="M7.72 37.279L7.986 0s-6.473 3.967-5.27 9.338c.577 2.576 1.527 4.301-.254 6.448C.68 17.932-.153 19.324.024 21.826c.178 2.503 3.05 3.328 2.693 6.188-.357 2.86-2.184 4.983-1.86 6.721.741 3.971 4.1 5.543 4.1 5.543l2.763-3v.001z"/>
        <path id="032tsew0kc" d="M8.46 40.849L8.75 0S1.657 4.348 2.976 10.232c.633 2.823 1.673 4.714-.28 7.065s-2.865 3.877-2.67 6.62c.196 2.742 3.341 3.646 2.95 6.78-.39 3.134-2.393 5.46-2.038 7.365.812 4.352 4.493 6.074 4.493 6.074l3.029-3.287z"/>
        <path id="sznwzb940e" d="M19.853 30.572l2.202-26.208c.094-1.123-.285-2.233-1.045-3.062C20.25.472 19.18 0 18.056 0H4.012C2.89 0 1.818.473 1.058 1.3.298 2.13-.08 3.24.014 4.363l2.201 26.208 17.638.001z"/>
        <path id="6ybbwnu6pf" d="M10.138 48.864V0s-8.217 5.036-6.69 11.855c.732 3.27 1.938 5.461-.324 8.185s-3.32 4.492-3.093 7.67c.227 3.179 3.87 4.224 3.417 7.855-.453 3.632-3.945 6.945-2.36 8.533 1.584 1.589 5.204 7.036 5.204 7.036l3.846-2.27z"/>
    </defs>
    <g fill="none" fill-rule="evenodd">
        <g>
            <g>
                <g>
                    <g opacity=".201">
                        <path fill="#425AC2" fill-rule="nonzero" d="M8.487 37.582L8.753.303S2.28 4.27 3.483 9.641c.577 2.576 1.527 4.301-.254 6.448-1.782 2.146-2.615 3.538-2.438 6.04.178 2.503 3.05 3.328 2.693 6.188-.357 2.86-2.184 4.983-1.86 6.721.741 3.971 4.1 5.543 4.1 5.543l2.763-3v.001z" transform="translate(-615.000000, -296.000000) translate(615.000000, 296.000000) translate(12.834109, 0.000000) translate(91.165891, 108.000000)"/>
                        <g transform="translate(-615.000000, -296.000000) translate(615.000000, 296.000000) translate(12.834109, 0.000000) translate(91.165891, 108.000000) translate(0.767000, 0.303000)">
                            <mask id="mhqzuzxtzb" fill="#fff">
                                <use xlink:href="#xcpanhjzja"/>
                            </mask>
                            <g fill="#8EA8DD" fill-rule="nonzero" mask="url(#mhqzuzxtzb)">
                                <g>
                                    <path d="M1.441.834L10.27.834 10.27 1.834 1.441 1.834zM.018 13.403L8.847 13.403 8.847 14.403.018 14.403zM.587 27.115L9.416 27.115 9.416 28.115.587 28.115z" transform="translate(4.000000, 7.000000)"/>
                                </g>
                            </g>
                        </g>
                    </g>
                    <g opacity=".201">
                        <path fill="#425AC2" fill-rule="nonzero" d="M9.111 41.295L9.401.446S2.308 4.794 3.627 10.678c.633 2.823 1.673 4.714-.28 7.065S.482 21.62.677 24.363c.196 2.742 3.341 3.646 2.95 6.78-.39 3.134-2.393 5.46-2.038 7.365.812 4.352 4.493 6.074 4.493 6.074l3.029-3.287z" transform="translate(-615.000000, -296.000000) translate(615.000000, 296.000000) translate(12.834109, 0.000000) translate(66.165891, 104.000000)"/>
                        <g transform="translate(-615.000000, -296.000000) translate(615.000000, 296.000000) translate(12.834109, 0.000000) translate(66.165891, 104.000000) translate(0.651000, 0.446000)">
                            <mask id="x71j48lyfd" fill="#fff">
                                <use xlink:href="#032tsew0kc"/>
                            </mask>
                            <g fill="#8EA8DD" fill-rule="nonzero" mask="url(#x71j48lyfd)">
                                <g>
                                    <path d="M.962.6L10.637.6 10.637 1.6.962 1.6zM.026 29.398L9.701 29.398 9.701 30.398.026 30.398z" transform="translate(5.000000, 8.000000)"/>
                                </g>
                            </g>
                        </g>
                    </g>
                    <path fill="#425AC2" fill-rule="nonzero" d="M10.805 49.312V.448s-8.217 5.036-6.69 11.855c.732 3.27 1.938 5.461-.324 8.185S.471 24.98.698 28.158c.227 3.179 3.87 4.224 3.417 7.855-.453 3.632-3.945 6.945-2.36 8.533 1.584 1.589 5.204 7.036 5.204 7.036l3.846-2.27z" opacity=".201" transform="translate(-615.000000, -296.000000) translate(615.000000, 296.000000) translate(12.834109, 0.000000) translate(78.165891, 97.000000)"/>
                    <g fill="#E5E7EA" fill-rule="nonzero">
                        <path d="M21.746 7.694c0 4.25-2.576 7.695-5.754 7.695-3.177 0-5.753-3.445-5.753-7.695S12.815 0 15.992 0c3.178 0 5.754 3.445 5.754 7.694" transform="translate(-615.000000, -296.000000) translate(615.000000, 296.000000) translate(12.834109, 0.000000) translate(0.000000, 100.235000)"/>
                        <path stroke="#DCEEFF" stroke-width=".4" d="M16.035 48.107L16.035 8.085" transform="translate(-615.000000, -296.000000) translate(615.000000, 296.000000) translate(12.834109, 0.000000) translate(0.000000, 100.235000)"/>
                        <path d="M9.84 18.997c2.716 2.725 3.267 6.59 1.23 8.635-2.038 2.044-5.893 1.492-8.61-1.234-2.717-2.725-3.267-6.59-1.23-8.635 2.038-2.043 5.892-1.491 8.61 1.234m19.399 5.599c2.19 2.198 1.599 6.354-1.323 9.284-2.92 2.93-7.065 3.524-9.256 1.326" transform="translate(-615.000000, -296.000000) translate(615.000000, 296.000000) translate(12.834109, 0.000000) translate(0.000000, 100.235000)"/>
                        <path stroke="#DCEEFF" stroke-width="1.4" d="M26.287 28.467l-10.081 10.14m7.168-19.838l-7.367 7.303m-7.65 8.727l7.696 7.807M5.703 22.303l10.289 10.442" transform="translate(-615.000000, -296.000000) translate(615.000000, 296.000000) translate(12.834109, 0.000000) translate(0.000000, 100.235000)"/>
                        <path d="M19.12 61.852h-6.168c-4.754-.013-8.605-3.874-8.62-8.643v-8.132h23.405v8.132c-.013 4.768-3.863 8.629-8.616 8.643" transform="translate(-615.000000, -296.000000) translate(615.000000, 296.000000) translate(12.834109, 0.000000) translate(0.000000, 100.235000)"/>
                        <path stroke="#DCEEFF" stroke-width="2.4" d="M27.737 49.597H4.333m23.404 4.534H4.333" transform="translate(-615.000000, -296.000000) translate(615.000000, 296.000000) translate(12.834109, 0.000000) translate(0.000000, 100.235000)"/>
                    </g>
                    <path fill="#0E24A5" fill-rule="nonzero" d="M0.216 0.168L17.915 0.168 14.544 19.61 3.587 19.61z" opacity=".201" transform="translate(-615.000000, -296.000000) translate(615.000000, 296.000000) translate(12.834109, 0.000000) translate(82.165891, 145.000000)"/>
                    <path fill="#7353DD" fill-opacity=".207" fill-rule="nonzero" d="M34.328 48.923c0-8.154 18.612-5.017 24.388-28.224C63.384 1.952 58.092 0 58.092 0H2.912s-5.651 2.046-.624 20.7C8.54 43.907 26.676 40.77 26.676 48.924c0 10.663-17.51 5.018-24.388 28.225-5.49 18.52.625 20.699.625 20.699H58.09s5.29-1.953.624-20.699c-5.15-20.698-24.387-17.562-24.387-28.225v-.001z" transform="translate(-615.000000, -296.000000) translate(615.000000, 296.000000) translate(12.834109, 0.000000) translate(23.194016, 63.238000)"/>
                    <path fill="#361D87" fill-rule="nonzero" d="M65.258 14.095H5.87C2.629 14.095 0 11.86 0 9.103V4.992C0 2.234 2.63 0 5.87 0h59.388c3.242 0 5.87 2.235 5.87 4.992v4.111c0 2.756-2.628 4.992-5.87 4.992z" transform="translate(-615.000000, -296.000000) translate(615.000000, 296.000000) translate(12.834109, 0.000000) translate(17.949891, 59.753000)"/>
                    <path fill="#2D2A39" fill-rule="nonzero" d="M23.636 0H0v5.69c0 3.079 1.928 4.465 4.999 4.465h18.076c3.071 0 6.12-1.386 6.12-4.466v-.112c0-1.48-.585-2.898-1.628-3.944C26.525.588 25.111 0 23.637 0h-.001z" transform="translate(-615.000000, -296.000000) translate(615.000000, 296.000000) translate(12.834109, 0.000000) translate(45.805891, 49.718000)"/>
                    <path fill="#2D2A39" fill-rule="nonzero" d="M8.225 1.636l2.816 32.063H6.76S.762 14.449.077 7.58C-.608.711 3.506 0 3.506 0l4.72 1.636h-.001z" transform="translate(-615.000000, -296.000000) translate(615.000000, 296.000000) translate(12.834109, 0.000000) translate(66.529947, 52.912000)"/>
                    <path fill="#2D2A39" fill-rule="nonzero" d="M8.423 1.241l2.911 32.498h-4.28S.757 12.881.072 6.009C-.613-.863 3.8.039 3.8.039l4.624 1.202z" transform="translate(-615.000000, -296.000000) translate(615.000000, 296.000000) translate(12.834109, 0.000000) translate(52.708651, 52.872002)"/>
                    <path fill="#FE958E" fill-rule="nonzero" d="M4.319.611H.124v3.227h8.509c.561 0 .754-1.265.263-1.538L4.319.611z" transform="translate(-615.000000, -296.000000) translate(615.000000, 296.000000) translate(12.834109, 0.000000) translate(73.165891, 86.000000)"/>
                    <path fill="#FE958E" fill-rule="nonzero" d="M4.877.611H.681v3.227H9.19c.562 0 .755-1.265.264-1.538L4.877.611z" transform="translate(-615.000000, -296.000000) translate(615.000000, 296.000000) translate(12.834109, 0.000000) translate(59.165891, 86.000000)"/>
                    <path fill="#FF7861" fill-rule="nonzero" d="M2.645 30.936h17.638l2.202-26.208c.094-1.123-.285-2.233-1.045-3.062-.76-.83-1.831-1.302-2.954-1.302H4.442c-1.123 0-2.194.473-2.954 1.3-.76.83-1.139 1.94-1.044 3.063l2.201 26.208v.001z" transform="translate(-615.000000, -296.000000) translate(615.000000, 296.000000) translate(12.834109, 0.000000) translate(43.165891, 19.000000)"/>
                    <path fill="#FAD998" fill-rule="nonzero" d="M1.542 6.87h2.74c.85 0 1.54-.779 1.54-1.742V1.742C5.822.78 5.132 0 4.282 0h-2.74C.69 0 0 .78 0 1.742v3.386C0 6.091.69 6.87 1.542 6.87z" transform="translate(-615.000000, -296.000000) translate(615.000000, 296.000000) translate(12.834109, 0.000000) translate(51.975891, 14.126000)"/>
                    <g>
                        <path fill="#FAD998" fill-rule="nonzero" d="M13.006 11.766c-1.1 3.734-4.215 3.163-7.939 2.059-2.419-.706-4.276-2.656-4.87-5.111-.592-2.456.17-5.042 1.998-6.78C4.025.196 6.64-.428 9.053.298c3.723 1.104 5.053 7.732 3.953 11.468z" transform="translate(-615.000000, -296.000000) translate(615.000000, 296.000000) translate(12.834109, 0.000000) translate(48.453645, 2.355422)"/>
                        <g>
                            <path fill="#E4BB31" fill-rule="nonzero" d="M2.903 1.59L3.971 4.188 2.732 4.163z" transform="translate(-615.000000, -296.000000) translate(615.000000, 296.000000) translate(12.834109, 0.000000) translate(48.453645, 2.355422) translate(7.712246, 5.644578)"/>
                            <path fill="#0D0B6D" fill-rule="nonzero" d="M1.766 1.703c-.027.519-.33.924-.68.903-.348-.02-.61-.457-.583-.976.027-.518.331-.923.68-.904.348.02.61.458.583.977m3.275-.082c-.027.518-.331.923-.68.902-.349-.02-.61-.457-.583-.976.026-.519.33-.923.68-.904.348.02.61.458.583.977" transform="translate(-615.000000, -296.000000) translate(615.000000, 296.000000) translate(12.834109, 0.000000) translate(48.453645, 2.355422) translate(7.712246, 5.644578)"/>
                            <path stroke="#1C295E" stroke-width=".5" d="M2.429 5.407s-.809.261-1.618-.641" transform="translate(-615.000000, -296.000000) translate(615.000000, 296.000000) translate(12.834109, 0.000000) translate(48.453645, 2.355422) translate(7.712246, 5.644578)"/>
                        </g>
                    </g>
                    <path fill="#DF6101" fill-rule="nonzero" d="M3.325 0L11.698 14.438 5.185 17.21 0 8.665z" transform="translate(-615.000000, -296.000000) translate(615.000000, 296.000000) translate(12.834109, 0.000000) translate(61.922891, 21.769000)"/>
                    <path fill="#DF6101" fill-rule="nonzero" d="M10.297.727C2.09 7.885.22 17.363.22 17.363c-.51 1.095-.118 2.842 1.027 3.221l15.99 8.005 2.226-3.778-11.194-8.55 8.223-8.892-.427-7.285s-4.54-.428-5.768.643z" transform="translate(-615.000000, -296.000000) translate(615.000000, 296.000000) translate(12.834109, 0.000000) translate(33.391132, 19.305545)"/>
                    <g transform="translate(-615.000000, -296.000000) translate(615.000000, 296.000000) translate(12.834109, 0.000000) translate(43.595516, 19.364000)">
                        <use fill="#DF6101" xlink:href="#sznwzb940e"/>
                    </g>
                    <path fill="#CCC" fill-rule="nonzero" d="M0.913 0.781L28.445 0.781 28.445 3.121 0.913 3.121z" transform="translate(-615.000000, -296.000000) translate(615.000000, 296.000000) translate(12.834109, 0.000000) translate(49.165891, 47.000000)"/>
                    <path fill="#FAD998" fill-rule="nonzero" d="M0 3.092h7.022L7.535 0h-5.3C1.242 0 .395.72.231 1.702L0 3.092z" transform="translate(-615.000000, -296.000000) translate(615.000000, 296.000000) translate(12.834109, 0.000000) translate(50.332891, 44.757000)"/>
                    <path fill="#CCC" fill-rule="nonzero" d="M0.317 13.878L22.424 13.878 25.457 0.149 3.35 0.149z" transform="translate(-615.000000, -296.000000) translate(615.000000, 296.000000) translate(12.834109, 0.000000) translate(55.165891, 34.000000)"/>
                    <path fill="#8EA8DD" fill-rule="nonzero" d="M.865 2.383c0 .806.652 1.46 1.456 1.46.804 0 1.455-.654 1.455-1.46 0-.806-.651-1.46-1.455-1.46S.865 1.577.865 2.383z" transform="translate(-615.000000, -296.000000) translate(615.000000, 296.000000) translate(12.834109, 0.000000) translate(66.165891, 39.000000)"/>
                    <path fill="#7353DD" fill-rule="nonzero" d="M.248 28.14c-.713-2 .07-7.72 2.919-14.033S24.314-.141 25.88.002c1.567.143 20.898 10.356 23.319 14.64 2.42 4.284 2.884 13.497 2.884 13.497H.248z" transform="translate(-615.000000, -296.000000) translate(615.000000, 296.000000) translate(12.834109, 0.000000) translate(27.491259, 123.441095)"/>
                    <path fill="#361D87" fill-rule="nonzero" d="M65.258 14.094H5.87C2.629 14.094 0 11.86 0 9.104V4.991C0 2.234 2.63 0 5.87 0h59.388c3.242 0 5.87 2.235 5.87 4.992v4.111c0 2.757-2.628 4.991-5.87 4.991z" transform="translate(-615.000000, -296.000000) translate(615.000000, 296.000000) translate(12.834109, 0.000000) translate(17.949891, 150.765000)"/>
                    <path fill="#7353DD" fill-rule="nonzero" d="M15.466 12.166c-.96 0-8.33-4.07-12.495-7.068-4.165-3-3.205-4.286-1.603-4.82 1.602-.536 30.012-.32 31.187.857 1.176 1.178-5.447 5.14-8.33 7.175-2.111 1.49-6.943 3.856-8.76 3.856z" transform="translate(-615.000000, -296.000000) translate(615.000000, 296.000000) translate(12.834109, 0.000000) translate(38.260945, 94.207772)"/>
                    <path fill="#03053F" fill-rule="nonzero" d="M3.41 14.623c.402.368 1.976-.147 1.015-1.286-1.175-1.391-2.243-3.801-.32-4.231 1.923-.43 1.388 1.874 2.243 1.874s.107-3.053.427-4.767c.32-1.714 4.7-1.5 6.835-1.82 2.136-.32 2.403-4.928-3.096-4.286C6.809.54 4.106 1.66 1.757 5.197c-1.78 2.674-.91 7.07 1.654 9.426H3.41z" transform="translate(-615.000000, -296.000000) translate(615.000000, 296.000000) translate(12.834109, 0.000000) translate(47.165891, 0.000000)"/>
                    <g transform="translate(-615.000000, -296.000000) translate(615.000000, 296.000000) translate(12.834109, 0.000000) translate(78.832891, 97.448000)">
                        <mask id="0g3disgyjg" fill="#fff">
                            <use xlink:href="#6ybbwnu6pf"/>
                        </mask>
                        <g fill="#8EA8DD" fill-rule="nonzero" mask="url(#0g3disgyjg)">
                            <g>
                                <path d="M2.439.12L11.268.12 11.268 1.12 2.439 1.12zM.16 15.403L8.989 15.403 8.989 16.403.16 16.403zM2.439 30.829L11.268 30.829 11.268 31.829 2.439 31.829z" transform="translate(4.000000, 11.000000)"/>
                            </g>
                        </g>
                    </g>
                </g>
                <g fill-rule="nonzero">
                    <path fill="#C57C00" d="M23.319 10.202c0 .19-.005.378-.016.565-.008.156-.019.308-.038.46-.033.336-.084.67-.152 1-.03.156-.065.308-.103.461-.16.629-.382 1.24-.661 1.825-.07.157-.148.313-.228.462-.193.357-.407.701-.642 1.032-.108.16-.223.314-.347.462-.275.356-.577.69-.904.998-.168.164-.338.317-.513.461-.413.35-.854.663-1.319.938-.28.17-.569.324-.866.461-1.33.628-2.782.952-4.252.95h-2.28V.129h2.28c1.592-.001 3.16.38 4.575 1.11.278.138.547.292.806.46.465.295.904.63 1.31 1 .168.144.328.3.484.46.518.532.977 1.119 1.368 1.75.09.149.183.301.266.458.33.6.595 1.234.794 1.89.046.152.09.305.13.461.126.496.212 1 .257 1.51.02.152.03.304.038.46.008.172.013.344.013.515v-.001z" transform="translate(-615.000000, -296.000000) translate(615.000000, 296.000000) translate(112.000000, 51.000000)"/>
                    <path fill="#9D6500" d="M9.302 9.767c-.007.156-.019.309-.038.461H6.459v-.46h2.843v-.001zm-.19 1.459c-.03.157-.064.31-.102.462H5.563v-.462h3.549zm-.763 2.287c-.07.157-.149.313-.229.462H4.727v-.462h3.622zm-.87 1.495c-.108.16-.224.313-.347.46H3.609v-.46h3.87zm-1.251 1.46c-.168.163-.338.316-.513.46H2.416v-.46h3.813-.001zm-1.832 1.398c-.28.17-.569.324-.866.461H.699v-.46h3.697v-.001zm4.91-9.178H6.269v-.461h2.998c.02.152.031.305.039.46v.001zm-.297-1.97H5.924v-.462h2.957c.045.153.09.305.128.462zm-.923-2.352H4.993v-.457H7.82c.09.148.183.3.266.457zM6.452 2.159H3.009v-.461h2.96c.168.144.327.301.483.461zM4.659.699H1.321V.238h2.531c.277.138.546.292.805.461h.002z" transform="translate(-615.000000, -296.000000) translate(615.000000, 296.000000) translate(112.000000, 51.000000) translate(14.000000, 1.000000)"/>
                    <path fill="#FFC400" d="M21.039 10.202c0 4.074-2.447 7.747-6.2 9.306-3.752 1.56-8.072.698-10.944-2.183C1.023 14.444.163 10.111 1.718 6.347 3.272 2.583 6.934.129 10.996.129c2.664 0 5.218 1.061 7.101 2.95 1.884 1.89 2.942 4.451 2.942 7.123z" transform="translate(-615.000000, -296.000000) translate(615.000000, 296.000000) translate(112.000000, 51.000000)"/>
                    <path fill="#FFAC00" d="M19.332 10.202c0 4.617-3.733 8.36-8.336 8.36-4.604 0-8.336-3.743-8.336-8.36 0-4.618 3.732-8.36 8.336-8.36 2.21 0 4.331.88 5.894 2.448 1.564 1.568 2.442 3.695 2.442 5.912z" transform="translate(-615.000000, -296.000000) translate(615.000000, 296.000000) translate(112.000000, 51.000000)"/>
                    <path fill="#BB6A00" d="M11.693 17.864c-3.282 0-6.26-1.93-7.605-4.933C2.743 9.929 3.28 6.414 5.46 3.953c-2.315 2.062-3.299 5.24-2.556 8.254.742 3.014 3.089 5.367 6.094 6.11 3.005.745 6.174-.243 8.229-2.565-1.523 1.362-3.494 2.114-5.534 2.112z" transform="translate(-615.000000, -296.000000) translate(615.000000, 296.000000) translate(112.000000, 51.000000)"/>
                </g>
                <g fill-rule="nonzero">
                    <path fill="#C57C00" d="M12.861 6.034c0 .107-.003.213-.01.318-.004.089-.01.175-.02.26-.02.19-.048.378-.087.564-.017.088-.036.174-.057.26-.09.355-.216.7-.373 1.03-.039.088-.084.176-.129.26-.109.202-.23.396-.362.583-.06.09-.126.177-.195.26-.155.2-.326.39-.51.563-.095.093-.191.179-.29.26-.232.197-.481.374-.744.53-.157.095-.32.182-.488.26-.75.353-1.57.536-2.399.535H5.91V.352h1.287c.898 0 1.783.214 2.581.626.156.078.308.165.454.26.263.166.51.355.74.564.094.081.184.17.272.26.293.3.551.63.772.987.05.084.103.17.15.258.185.339.336.696.448 1.066.025.086.05.172.073.26.071.28.12.564.145.851.011.086.017.172.022.26.004.098.006.194.006.29h.001z" transform="translate(-615.000000, -296.000000) translate(615.000000, 296.000000) translate(100.000000, 13.000000)"/>
                    <path fill="#9D6500" d="M4.852 6.353c-.004.088-.01.174-.021.26H3.248v-.26h1.604zm-.107.824c-.017.088-.036.174-.058.26H2.743v-.26h2.002zm-.431 1.29c-.038.088-.083.176-.128.26H2.271v-.26h2.043zm-.491.843c-.06.09-.126.176-.195.26H1.641v-.26h2.182zm-.705.823c-.095.093-.191.179-.29.26H.969v-.26h2.15-.001zm-1.033.789c-.158.096-.321.183-.489.26H-.001v-.26h2.086zm2.769-5.177H3.141v-.26h1.69c.012.085.02.171.023.26zm-.167-1.112h-1.74v-.26h1.667c.026.086.052.172.073.26zm-.521-1.326H2.421v-.259h1.595c.051.082.103.17.15.258v.001zm-.922-1.246H1.302v-.26h1.67c.095.082.183.17.272.26zm-1.012-.823H.35v-.26h1.429c.156.078.308.165.454.26h-.001z" transform="translate(-615.000000, -296.000000) translate(615.000000, 296.000000) translate(100.000000, 13.000000) translate(8.000000, 0.000000)"/>
                    <path fill="#FFC400" d="M11.575 6.035c0 2.298-1.38 4.37-3.497 5.25-2.117.88-4.554.393-6.174-1.232S-.201 5.984.676 3.861C1.551 1.737 3.618.353 5.91.353c1.502 0 2.943.598 4.005 1.664 1.063 1.066 1.66 2.51 1.66 4.018z" transform="translate(-615.000000, -296.000000) translate(615.000000, 296.000000) translate(100.000000, 13.000000)"/>
                    <path fill="#FFAC00" d="M10.611 6.035c0 2.605-2.105 4.716-4.701 4.716-2.597 0-4.702-2.112-4.702-4.716 0-2.605 2.105-4.716 4.702-4.716 1.247 0 2.443.497 3.325 1.381.882.885 1.377 2.084 1.377 3.335h-.001z" transform="translate(-615.000000, -296.000000) translate(615.000000, 296.000000) translate(100.000000, 13.000000)"/>
                    <path fill="#BB6A00" d="M6.303 10.357c-1.852 0-3.531-1.089-4.29-2.783-.759-1.693-.456-3.676.774-5.064-1.306 1.163-1.86 2.956-1.44 4.656.418 1.7 1.741 3.027 3.436 3.447 1.695.42 3.483-.138 4.642-1.447-.86.769-1.971 1.193-3.122 1.191z" transform="translate(-615.000000, -296.000000) translate(615.000000, 296.000000) translate(100.000000, 13.000000)"/>
                </g>
                <g fill-rule="nonzero">
                    <path fill="#C57C00" d="M12.811 6.179c0 .107-.003.213-.01.318-.004.089-.01.175-.02.26-.02.19-.048.378-.087.564-.017.088-.036.174-.057.26-.09.355-.216.7-.373 1.03-.039.088-.084.176-.129.26-.109.202-.23.396-.362.583-.06.09-.126.177-.195.26-.155.2-.326.39-.51.563-.095.093-.191.179-.29.26-.232.197-.481.374-.744.53-.157.095-.32.182-.488.26-.75.353-1.57.536-2.399.535H5.86V.497h1.287c.898 0 1.783.214 2.581.626.156.078.308.165.454.26.263.166.51.355.74.564.094.081.184.17.272.26.293.3.551.63.772.987.05.084.103.17.15.258.185.339.336.696.448 1.066.025.086.05.172.073.26.071.28.12.564.145.851.011.086.017.172.022.26.004.098.006.194.006.29h.001z" transform="translate(-615.000000, -296.000000) translate(615.000000, 296.000000) translate(0.000000, 65.000000)"/>
                    <path fill="#9D6500" d="M5.802 5.498c-.004.088-.01.174-.021.26H4.198v-.26h1.604zm-.107.824c-.017.088-.036.174-.058.26H3.693v-.26h2.002zm-.431 1.29c-.038.088-.083.176-.128.26H3.221v-.26h2.043zm-.491.843c-.06.09-.126.176-.195.26H2.591v-.26h2.182zm-.705.823c-.095.093-.191.179-.29.26H1.919v-.26h2.15-.001zm-1.033.789c-.158.096-.321.183-.489.26H.949v-.26h2.086zM5.804 4.89H4.091v-.26h1.69c.012.085.02.171.023.26zm-.167-1.112h-1.74v-.26h1.667c.026.086.052.172.073.26zm-.521-1.326H3.371v-.259h1.595c.051.082.103.17.15.258v.001zm-.922-1.246H2.252v-.26h1.67c.095.082.183.17.272.26zM3.182.383H1.3v-.26h1.429c.156.078.308.165.454.26h-.001z" transform="translate(-615.000000, -296.000000) translate(615.000000, 296.000000) translate(0.000000, 65.000000) translate(7.000000, 1.000000)"/>
                    <path fill="#FFC400" d="M11.525 6.18c0 2.298-1.38 4.37-3.497 5.25-2.117.88-4.554.393-6.174-1.232S-.251 6.129.626 4.006C1.501 1.882 3.568.498 5.86.498c1.502 0 2.943.598 4.005 1.664 1.063 1.066 1.66 2.51 1.66 4.018z" transform="translate(-615.000000, -296.000000) translate(615.000000, 296.000000) translate(0.000000, 65.000000)"/>
                    <path fill="#FFAC00" d="M10.561 6.18c0 2.605-2.105 4.716-4.701 4.716-2.597 0-4.702-2.112-4.702-4.716 0-2.605 2.105-4.716 4.702-4.716 1.247 0 2.443.497 3.325 1.381.882.885 1.377 2.084 1.377 3.335h-.001z" transform="translate(-615.000000, -296.000000) translate(615.000000, 296.000000) translate(0.000000, 65.000000)"/>
                    <path fill="#BB6A00" d="M6.253 10.502c-1.852 0-3.531-1.089-4.29-2.783-.759-1.693-.456-3.676.774-5.064-1.306 1.163-1.86 2.956-1.44 4.656.418 1.7 1.741 3.027 3.436 3.447 1.695.42 3.483-.138 4.642-1.447-.86.769-1.971 1.193-3.122 1.191z" transform="translate(-615.000000, -296.000000) translate(615.000000, 296.000000) translate(0.000000, 65.000000)"/>
                </g>
                <g fill-rule="nonzero">
                    <path fill="#C57C00" d="M21.837 10.21c0 .18-.004.356-.014.533-.008.148-.018.292-.036.436-.032.316-.08.63-.144.941-.028.148-.06.292-.097.436-.15.593-.36 1.17-.623 1.722-.065.147-.139.294-.215.435-.182.336-.385.661-.606.973-.102.15-.21.296-.326.435-.26.336-.545.65-.853.942-.159.155-.32.299-.484.435-.39.33-.806.625-1.244.885-.264.16-.537.305-.817.434-1.255.592-2.625.898-4.011.896h-2.151V.709h2.15c1.502-.002 2.982.357 4.317 1.046.261.13.515.276.76.435.438.277.851.592 1.236.942.158.136.308.284.455.435.49.5.922 1.054 1.29 1.65.086.14.173.284.251.432.31.566.562 1.164.75 1.783.042.143.085.287.121.435.12.467.201.943.244 1.423.018.144.028.288.036.435.007.162.011.324.011.485z" transform="translate(-615.000000, -296.000000) translate(615.000000, 296.000000) translate(12.000000, 24.000000)"/>
                    <path fill="#9D6500" d="M8.823 9.743c-.007.147-.018.291-.036.435H6.141v-.435h2.682zm-.18 1.376c-.028.148-.06.292-.096.436H5.296v-.436h3.347zm-.72 2.158c-.064.147-.138.294-.215.435h-3.2v-.435h3.416-.001zm-.821 1.409c-.1.15-.21.296-.326.435H3.453v-.435h3.65-.001zm-1.179 1.377c-.158.155-.319.299-.484.435H2.328v-.435h3.595zm-1.728 1.32c-.264.16-.536.305-.817.434H.708v-.434h3.487zm4.632-8.658H5.961V8.29h2.828c.02.144.03.287.038.435zm-.28-1.858H5.635v-.434h2.79c.042.143.086.286.122.434zm-.871-2.219H4.758v-.43h2.667c.085.14.172.283.25.43h.001zM6.134 2.567H2.888v-.435h2.79c.158.136.309.284.455.435h.001zM4.443 1.19H1.296V.755h2.387c.262.13.515.275.76.435z" transform="translate(-615.000000, -296.000000) translate(615.000000, 296.000000) translate(12.000000, 24.000000) translate(13.000000, 1.000000)"/>
                    <path fill="#FFC400" d="M19.687 10.21c0 3.843-2.307 7.308-5.847 8.78-3.54 1.47-7.615.658-10.325-2.06-2.71-2.716-3.52-6.803-2.054-10.354C2.927 3.025 6.382.709 10.214.709c2.512 0 4.922 1 6.699 2.783 1.776 1.781 2.774 4.197 2.774 6.717v.001z" transform="translate(-615.000000, -296.000000) translate(615.000000, 296.000000) translate(12.000000, 24.000000)"/>
                    <path fill="#FFAC00" d="M18.077 10.21c0 4.355-3.52 7.886-7.862 7.886-4.343 0-7.863-3.53-7.863-7.886 0-4.355 3.52-7.886 7.863-7.886 2.085 0 4.085.83 5.56 2.31 1.474 1.479 2.302 3.485 2.302 5.576z" transform="translate(-615.000000, -296.000000) translate(615.000000, 296.000000) translate(12.000000, 24.000000)"/>
                    <path fill="#BB6A00" d="M10.872 17.437c-3.096 0-5.904-1.82-7.172-4.653-1.27-2.832-.763-6.147 1.293-8.468-2.183 1.943-3.112 4.943-2.412 7.786.7 2.844 2.914 5.063 5.75 5.765 2.834.701 5.823-.231 7.762-2.422-1.437 1.285-3.296 1.994-5.221 1.992z" transform="translate(-615.000000, -296.000000) translate(615.000000, 296.000000) translate(12.000000, 24.000000)"/>
                </g>
            </g>
        </g>
    </g>
</svg>
