<svg xmlns="http://www.w3.org/2000/svg" xmlns:xlink="http://www.w3.org/1999/xlink" width="112" height="135" viewBox="0 0 112 135">
    <defs>
        <path id="3z3rfich8a" d="M0 0.171L111.188 0.171 111.188 71.843 0 71.843z"/>
        <path id="lrtp3mh09c" d="M0 0.171L111.188 0.171 111.188 71.843 0 71.843z"/>
    </defs>
    <g fill="none" fill-rule="evenodd">
        <g>
            <g>
                <g>
                    <g>
                        <path fill="#407BFF" d="M0 62.638L28.401 120.219 67.485 121 111 62.638 55.5 16z" transform="translate(-391 -671) translate(308 449) translate(83 222)"/>
                        <g>
                            <path fill="#7E7E7E" d="M0.271 62.328L55.949 15.789 111.627 62.328 67.973 120.566 28.763 119.786z" transform="translate(-391 -671) translate(308 449) translate(83 222)"/>
                            <path fill="#FFF" d="M93.72 115.63H18.178c-1.01 0-1.83-.815-1.83-1.82V2.273c0-1.005.82-1.82 1.83-1.82H93.72c1.01 0 1.83.815 1.83 1.82V113.81c0 1.005-.82 1.82-1.83 1.82" transform="translate(-391 -671) translate(308 449) translate(83 222)"/>
                            <path fill="#FFF" d="M86.532 10.853H25.365c-.325 0-.588.261-.588.585v1.17c0 .322.263.584.588.584h61.167c.325 0 .589-.262.589-.584v-1.17c0-.324-.264-.585-.589-.585M86.532 18.657H25.365c-.325 0-.588.262-.588.586v1.17c0 .322.263.584.588.584h61.167c.325 0 .589-.262.589-.585v-1.17c0-.323-.264-.585-.589-.585M86.532 26.462H25.365c-.325 0-.588.262-.588.585v1.17c0 .323.263.584.588.584h61.167c.325 0 .589-.261.589-.584v-1.17c0-.323-.264-.585-.589-.585" transform="translate(-391 -671) translate(308 449) translate(83 222)"/>
                            <path fill="#F6F6F6" d="M86.532 57.68H25.365c-.325 0-.588.262-.588.586v1.17c0 .322.263.584.588.584h61.167c.325 0 .589-.262.589-.584v-1.17c0-.324-.264-.585-.589-.585" transform="translate(-391 -671) translate(308 449) translate(83 222)"/>
                            <path fill="#F0F0F0" d="M86.532 65.486H25.365c-.325 0-.588.261-.588.585v1.17c0 .322.263.584.588.584h61.167c.325 0 .589-.262.589-.584v-1.17c0-.324-.264-.585-.589-.585" transform="translate(-391 -671) translate(308 449) translate(83 222)"/>
                            <path fill="#D3D3D3" d="M86.532 73.29H25.365c-.325 0-.588.261-.588.585v1.17c0 .323.263.584.588.584h61.167c.325 0 .589-.261.589-.584v-1.17c0-.324-.264-.585-.589-.585" transform="translate(-391 -671) translate(308 449) translate(83 222)"/>
                            <g transform="translate(-391 -671) translate(308 449) translate(83 222) translate(0 62.157)">
                                <mask id="a63l5euteb" fill="#fff">
                                    <use xlink:href="#3z3rfich8a"/>
                                </mask>
                                <path fill="#407BFF" d="M58.927 40.757l-.305-.169c-1.124-.622-2.493-.616-3.612.016l-1.502.848L0 .172v68.115c0 2.011 1.65 3.557 3.667 3.557H108.23c2.015 0 2.957-1.546 2.957-3.557V.17l-52.26 40.586z" mask="url(#a63l5euteb)"/>
                            </g>
                            <g transform="translate(-391 -671) translate(308 449) translate(83 222) translate(0 62.157)">
                                <mask id="3spczcytud" fill="#fff">
                                    <use xlink:href="#lrtp3mh09c"/>
                                </mask>
                                <path fill="#FFF" d="M58.927 40.757l-.305-.169c-1.124-.622-2.493-.616-3.612.016l-1.502.848L0 .172v68.115c0 2.011 1.65 3.557 3.667 3.557H108.23c2.015 0 2.957-1.546 2.957-3.557V.17l-52.26 40.586z" mask="url(#3spczcytud)"/>
                            </g>
                            <path fill="#D3D3D3" d="M51.09 101.743L53.508 103.608 15.696 124.959zM100.232 125.766L58.873 102.954 60.78 101.469z" transform="translate(-391 -671) translate(308 449) translate(83 222)"/>
                        </g>
                    </g>
                    <g fill="#06976D" fill-rule="nonzero">
                        <path d="M16.5 0C7.403 0 0 7.403 0 16.5 0 25.597 7.403 33 16.5 33 25.597 33 33 25.597 33 16.5 33 7.403 25.597 0 16.5 0zm8.205 12.977l-9.498 9.008c-.268.223-.58.357-.937.357-.356 0-.713-.134-.936-.401l-4.995-5.129c-.535-.535-.49-1.382.045-1.873.535-.535 1.382-.49 1.873.045l4.058 4.192 8.562-8.117c.535-.49 1.382-.49 1.873.045.49.49.49 1.338-.045 1.873z" transform="translate(-391 -671) translate(308 449) translate(83 222) translate(40 16)"/>
                    </g>
                </g>
            </g>
        </g>
    </g>
</svg>
