<svg xmlns="http://www.w3.org/2000/svg" width="20" height="20" viewBox="0 0 20 20">
    <g fill="none" fill-rule="evenodd">
        <g fill-rule="nonzero" stroke="#001940">
            <g>
                <g>
                    <path d="M12 2.5c2.622 0 4.997 1.064 6.716 2.784C20.436 7.003 21.5 9.378 21.5 12s-1.064 4.997-2.784 6.716C16.997 20.436 14.622 21.5 12 21.5s-4.997-1.064-6.716-2.784C3.564 16.997 2.5 14.622 2.5 12s1.064-4.997 2.784-6.716C7.003 3.564 9.378 2.5 12 2.5zM12 16c-1.015 0-2.234.24-3.244.605-1.083.392-1.893.948-1.997 2.067C8.205 19.82 10.023 20.5 12 20.5c1.977 0 3.795-.68 5.383-2.431-.239-.512-1.046-1.07-2.132-1.462C14.239 16.24 13.016 16 12 16zm0-12.5c-2.343 0-4.468.953-6.007 2.493C4.453 7.532 3.5 9.657 3.5 12c0 1.934.658 3.709 1.742 5.133.138.181.284.358.437.529.103-.185.218-.357.347-.515C7.37 15.513 10.636 15 12 15c1.363 0 4.63.513 5.974 2.147.129.157.244.33.347.515.153-.171.299-.348.437-.53C19.842 15.71 20.5 13.935 20.5 12c0-2.343-.953-4.468-2.493-6.007C16.468 4.453 14.343 3.5 12 3.5zm0 3c.831 0 1.582.334 2.124.876S15 8.67 15 9.5c0 .831-.334 1.582-.876 2.124S12.83 12.5 12 12.5c-.831 0-1.582-.334-2.124-.876S9 10.33 9 9.5c0-.831.334-1.582.876-2.124S11.17 6.5 12 6.5zm0 1c-.553 0-1.053.224-1.415.585-.361.362-.585.862-.585 1.415s.224 1.053.585 1.415c.362.361.862.585 1.415.585s1.053-.224 1.415-.585c.361-.362.585-.862.585-1.415s-.224-1.053-.585-1.415C13.053 7.724 12.553 7.5 12 7.5z" transform="translate(-1207 -22) translate(1197) translate(8 20)"/>
                </g>
            </g>
        </g>
    </g>
</svg>
