<svg width="24" height="24" viewBox="0 0 24 24" fill="none" xmlns="http://www.w3.org/2000/svg">
<path fill-rule="evenodd" clip-rule="evenodd" d="M4 3H7.5C8.05 3 8.5 3.45 8.5 4C8.5 5.25 8.7 6.45 9.07 7.57C9.18 7.92 9.1 8.31 8.82 8.59L6.62 10.79C8.06 13.62 10.38 15.93 13.21 17.38L15.41 15.18C15.61 14.99 15.86 14.89 16.12 14.89C16.22 14.89 16.33 14.9 16.43 14.94C17.55 15.31 18.76 15.51 20 15.51C20.55 15.51 21 15.96 21 16.51V20C21 20.55 20.55 21 20 21C10.61 21 3 13.39 3 4C3 3.45 3.45 3 4 3ZM6.99 7.59L5.79 8.79C5.38 7.59 5.12 6.32 5.03 5H6.54C6.6 5.89 6.75 6.76 6.99 7.59ZM19 17.47V18.96C17.68 18.87 16.41 18.61 15.2 18.21L16.4 17.02C17.25 17.26 18.12 17.41 19 17.47Z" fill="#8490A8"/>
<path d="M16.0928 10.9521H14.9209V8.51465H12.6357V10.9521H11.4639V5.26465H12.6357V7.56934H14.9209V5.26465H16.0928V10.9521ZM19.2256 8.87012H18.292V10.9521H17.1201V5.26465H19.2334C19.9053 5.26465 20.4235 5.41439 20.7881 5.71387C21.1527 6.01335 21.335 6.43652 21.335 6.9834C21.335 7.37142 21.2503 7.69564 21.0811 7.95605C20.9144 8.21387 20.6605 8.4196 20.3193 8.57324L21.5498 10.8975V10.9521H20.292L19.2256 8.87012ZM18.292 7.9209H19.2373C19.5316 7.9209 19.7594 7.84668 19.9209 7.69824C20.0824 7.5472 20.1631 7.34017 20.1631 7.07715C20.1631 6.80892 20.0863 6.59798 19.9326 6.44434C19.7816 6.29069 19.5485 6.21387 19.2334 6.21387H18.292V7.9209Z" fill="#8490A8"/>
</svg>
