<svg xmlns="http://www.w3.org/2000/svg" width="24" height="24" viewBox="0 0 24 24">
    <g fill="none" fill-rule="evenodd">
        <path d="M0 0H24V24H0z"/>
        <path fill="#7F9799" fill-rule="nonzero" stroke="#FFF" stroke-width=".2" d="M22 8.98V18c0 1.1-.9 2-2 2H4c-1.1 0-2-.9-2-2l.01-12c0-1.1.89-2 1.99-2h10.1c-.06.32-.1.66-.1 1 0 .34.04.68.1 1H4l8 5 3.67-2.29c.47.43 1.02.76 1.63.98L12 13 4 8v10h16V9.9c.74-.15 1.42-.48 2-.92zM16 5c0 1.66 1.34 3 3 3s3-1.34 3-3-1.34-3-3-3-3 1.34-3 3z"/>
    </g>
</svg>
