<svg xmlns="http://www.w3.org/2000/svg" xmlns:xlink="http://www.w3.org/1999/xlink" width="22" height="22" viewBox="0 0 22 22">
    <defs>
        <path id="d2k08bbh1a" d="M0 0L21.282 0 21.282 21.282 0 21.282z"/>
    </defs>
    <g fill="none" fill-rule="evenodd">
        <mask id="hbeyhgcpgb" fill="#fff">
            <use xlink:href="#d2k08bbh1a"/>
        </mask>
        <path fill="#284E52" fill-rule="nonzero" d="M5.732 13.793v-2.39h2.116v-1.53H5.732V7.582h-1.61v2.291H2v1.53h2.121v2.39h1.611zm4.26.937l.416-.005c1.297-.055 2.299-.489 3.006-1.301.707-.813 1.06-1.93 1.06-3.352v-.627c-.003-.68-.126-1.283-.369-1.81-.242-.528-.582-.932-1.02-1.213-.437-.281-.937-.422-1.5-.422-.546 0-1.038.13-1.476.39-.437.26-.778.623-1.022 1.09-.244.466-.366.979-.366 1.538 0 .878.226 1.577.68 2.094.453.518 1.056.777 1.81.777.59 0 1.105-.217 1.547-.65-.121 1.316-.918 2.007-2.39 2.073l-.376.006v1.412zm1.635-4.136c-.387 0-.687-.15-.9-.448-.212-.3-.319-.681-.319-1.146 0-.469.11-.858.328-1.169.22-.31.498-.466.838-.466.367 0 .66.158.88.475.218.316.327.762.327 1.336v.697c-.101.2-.25.37-.448.51-.197.14-.433.21-.706.21zm8.168 4.054V6.105h-.182L16.08 7.371v1.377l2.022-.627v6.527h1.693z" mask="url(#hbeyhgcpgb)"/>
    </g>
</svg>
