<svg xmlns="http://www.w3.org/2000/svg" width="88" height="73" viewBox="0 0 88 73">
    <g fill="none" fill-rule="evenodd">
        <g>
            <g>
                <g>
                    <g>
                        <path d="M0 0H64V64H0z" transform="translate(-422 -149) translate(405 132) translate(1 1) translate(16 16)"/>
                        <g fill-rule="nonzero" transform="translate(-422 -149) translate(405 132) translate(1 1) translate(16 16) translate(21 8)">
                            <path fill="#816E34" d="M3.347 13.805h35.72v32.473c0 .897-.726 1.624-1.623 1.624H4.158c-1.793 0-3.247-1.454-3.247-3.247V16.24c0-1.345 1.09-2.435 2.436-2.435z"/>
                            <path fill="#554A29" d="M28.514 29.23h10.554v9.742H28.514c-2.69 0-4.871-2.181-4.871-4.871 0-2.69 2.18-4.871 4.87-4.871z"/>
                            <circle cx="28.514" cy="33.965" r="1.624" fill="#D9B238"/>
                            <path fill="#804D35" d="M4.158 13.805h34.098v6.494H4.158c-1.793 0-3.247-1.453-3.247-3.247 0-1.793 1.454-3.247 3.247-3.247z"/>
                            <path fill="#744630" d="M.911 16.24v1.624h37.345v-4.06H3.346c-1.345 0-2.435 1.091-2.435 2.436z"/>
                            <g fill="#533222">
                                <path d="M9.841.822L13.089.822 13.089 2.445 9.841 2.445zM4.97.822L8.218.822 8.218 2.445 4.97 2.445zM14.712.822L17.96.822 17.96 2.445 14.712 2.445zM3.347 2.445V.822h-.812c-.408 0-.809-.102-1.167-.297L.656.135.1 1.153v.48c0 .018.005.034.005.052l.487.264c.596.326 1.265.496 1.944.496h.812zM19.583.822L22.831.822 22.831 2.445 19.583 2.445z" transform="translate(.812 43.021)"/>
                            </g>
                            <path fill="#AD9039" d="M4.158 13.805c-1.793 0-3.247 1.454-3.247 3.247 0 1.794 1.454 3.247 3.247 3.247h34.098v-6.494H4.158z"/>
                            <path fill="#6A7367" d="M33.385 17.864H14.712c-.448 0-.812-.363-.812-.812 0-.103.02-.205.058-.301L20.453.514c.156-.39.584-.597.987-.476l16.237 4.87c.43.13.673.582.544 1.012l-.013.04-4.06 11.365c-.115.323-.42.539-.763.539z"/>
                            <path fill="#AAC16B" d="M19.177 17.052L25.266 0.815 36.578 4.629 41.311 6.225 37.444 17.052z"/>
                            <path fill="#EAEAE8" d="M23.643 17.864H4.97c-.343 0-.648-.216-.764-.54L.147 5.96c-.15-.422.07-.887.492-1.037.013-.005.026-.01.04-.013L16.914.038c.403-.121.831.086.987.476l6.495 16.237c.166.416-.037.889-.453 1.055-.096.038-.198.058-.301.058z"/>
                            <path fill="#6A7367" d="M37.444 17.864H19.177c-.448 0-.812-.363-.812-.811 0-.098.017-.195.052-.287L24.506.53c.152-.412.604-.627 1.02-.488L41.57 5.456c.424.145.65.606.505 1.03 0 .004-.002.008-.004.012l-3.863 10.827c-.115.323-.421.539-.764.539z"/>
                            <path fill="#F6FFEF" d="M19.177 17.052L25.266 0.815 36.578 4.629 41.311 6.225 37.444 17.052z"/>
                            <g fill="#787D82">
                                <path d="M5.275 14.109L9.334 14.109 3.198.083.043 1.03zM10.065 5.724c-.159 0-.314-.047-.446-.134-1.123-.74-1.434-2.25-.694-3.374.74-1.123 2.25-1.434 3.373-.694 1.04.685 1.396 2.043.826 3.15-.206.398-.696.554-1.094.348-.399-.206-.555-.695-.35-1.094.06-.115.09-.242.09-.37 0-.45-.364-.812-.813-.812-.448 0-.811.363-.811.811 0 .274.137.529.366.679.374.247.478.75.231 1.124-.15.229-.406.366-.68.366h.002z" transform="translate(3.755 2.943)"/>
                                <path d="M11.77 8.426c-1.346 0-2.436-1.09-2.436-2.435s1.09-2.436 2.435-2.436c1.346 0 2.436 1.09 2.436 2.436 0 1.345-1.09 2.435-2.436 2.435zm0-3.247c-.449 0-.812.363-.812.812 0 .448.363.812.811.812.449 0 .812-.364.812-.812 0-.449-.363-.812-.812-.812z" transform="translate(3.755 2.943)"/>
                            </g>
                            <g>
                                <path fill="#79A73A" d="M13.735 5.65l.416-1.02 4.733 1.596-2.157 6.036c-2.61-.905-3.99-3.755-3.085-6.365.028-.083.06-.166.093-.247z" transform="translate(22.427)"/>
                                <path fill="#6A7367" d="M16.727 13.074c-.098 0-.194-.018-.285-.052-3.029-1.065-4.621-4.383-3.556-7.411.031-.09.065-.18.101-.268l.416-1.02c.162-.397.604-.6 1.01-.463l4.733 1.596c.424.146.648.609.502 1.032l-.004.01-2.156 6.039c-.078.218-.246.393-.462.48-.095.037-.197.057-.3.057z" transform="translate(22.427)"/>
                                <path fill="#79A73A" d="M7.247 3.592l.3-1.061L2.832.884.825 6.974C3.44 7.86 6.28 6.46 7.169 3.845c.028-.084.054-.169.078-.254z" transform="translate(22.427)"/>
                                <path fill="#6A7367" d="M2.442 8.056c-.638 0-1.272-.106-1.876-.312-.424-.142-.653-.6-.513-1.024L2.059.63c.069-.207.217-.377.412-.474.196-.097.422-.11.627-.038l4.715 1.646c.405.142.63.574.514.987L8.03 3.81c-.706 2.503-2.986 4.236-5.587 4.245z" transform="translate(22.427)"/>
                            </g>
                            <path fill="#533222" d="M1.026 16.24c-.153.53-.153 1.093 0 1.624h37.23V16.24H1.026z"/>
                            <path fill="#AD9039" d="M1.028 16.24c-.074.265-.113.538-.117.812.02 1.813 1.505 3.267 3.318 3.247h34.839V16.24H1.028z"/>
                            <path fill="#6A7367" d="M26.292 17.068c-.583-1.381.064-2.973 1.445-3.556 1.381-.583 2.974.064 3.557 1.445.282.67.285 1.424.007 2.095"/>
                            <path fill="#554A29" d="M1.028 16.24c-.156.53-.156 1.094 0 1.624h38.04V16.24H1.028z"/>
                        </g>
                        <g fill-rule="nonzero">
                            <path fill="#FFCE32" d="M22.941 20.647v5.458c0 1.854-4.943 3.4-11.02 3.4-6.076 0-10.916-1.494-10.916-3.348v-.618l-.103-4.325h.051c.824 1.596 5.356 2.832 10.814 2.832s11.071-1.545 11.071-3.399h.103z" transform="translate(-422 -149) translate(405 132) translate(1 1) translate(16 16) translate(7 34)"/>
                            <path fill="#FFD75D" d="M.953 21.213l-.051-1.132-.103-4.635c.36 1.751 5.15 3.141 10.968 3.141 5.819 0 10.968-1.493 11.123-3.295h.051v5.355h-.103c0 1.854-4.995 3.399-11.071 3.399S1.777 22.81.953 21.213z" transform="translate(-422 -149) translate(405 132) translate(1 1) translate(16 16) translate(7 34)"/>
                            <g>
                                <path fill="#FFD75D" stroke="#FFCE32" stroke-width="2" d="M64.531 1.087c.328 0 .672.043.985.153.493.143.9.361 1.244.675.59.509.99 1.168 1.163 1.893.063 1.063.038 1.425-.08 1.782-.187.611-.53 1.148-.986 1.572-.669.6-1.514.925-2.4.925-.965-.008-1.833-.406-2.457-1.043-.627-.64-1.008-1.52-1-2.49.008-.968.405-1.84 1.042-2.466.637-.627 1.515-1.009 2.49-1zM69.175 16.087c.97 0 1.988.135 2.913.46 1.35.387 2.554 1.033 3.572 1.958 1.691 1.457 2.858 3.402 3.336 5.534.035.456.08.83.12 1.159.041.348.078.632.078.909 0 1.024-.137 2.002-.463 2.98-.524 1.71-1.51 3.256-2.822 4.475-1.924 1.731-4.362 2.668-6.932 2.668-2.785-.024-5.29-1.17-7.093-3.007-1.806-1.839-2.907-4.37-2.884-7.16.024-2.785 1.17-5.29 3.007-7.093 1.839-1.805 4.37-2.906 7.168-2.883z" transform="translate(-422 -149) translate(405 132) translate(1 1) translate(16 16) translate(7 34) translate(0 .575)"/>
                                <path fill="#FFE48D" d="M22.89 14.614v.103c-.155 1.802-5.15 3.295-11.123 3.295-5.973 0-10.608-1.39-10.968-3.14v-.258c0-.103 0-.206.051-.31.567-1.699 5.15-3.037 10.763-3.037h.154c6.076 0 11.123 1.493 11.123 3.347z" transform="translate(-422 -149) translate(405 132) translate(1 1) translate(16 16) translate(7 34) translate(0 .575)"/>
                            </g>
                        </g>
                    </g>
                </g>
            </g>
        </g>
    </g>
</svg>
