<svg xmlns="http://www.w3.org/2000/svg" width="23" height="24" viewBox="0 0 23 24">
    <g fill="none" fill-rule="evenodd">
        <g fill="#8490A8">
            <g>
                <g>
                    <g>
                        <g>
                            <g>
                                <g>
                                    <path d="M6.331 4.818c-.033.003-.066.01-.097.02-.995.308-1.7.851-2.08 1.558-.381.707-.43 1.536-.266 2.378.327 1.684 1.486 3.495 2.953 5.002 1.467 1.508 3.235 2.714 4.922 3.066.843.175 1.683.129 2.409-.253.725-.382 1.303-1.094 1.661-2.111.068-.197-.007-.415-.181-.526l-3.184-2.007-.007-.007c-.016-.01-.032-.02-.049-.028-.047-.03-.099-.052-.153-.063h-.014l-.035-.007h-.007c-.075-.004-.15.01-.217.042-.024.012-.047.026-.07.042l-.041.028-.014.021c-.018.016-.034.032-.05.05l-.697.708c-1.266-.64-2.24-1.714-3.114-3.164l.642-.638c.013-.011.024-.023.035-.035.01-.01.02-.018.028-.028v-.007c.01-.01.02-.018.028-.028v-.007l.014-.021.014-.014.014-.035v-.007l.007-.014.014-.028.007-.035v-.007l.007-.042v-.007-.035-.007-.035-.014l-.007-.035V8.48c-.007-.027-.016-.053-.028-.078v-.007c-.008-.019-.017-.038-.028-.056l-.007-.014-.007-.007-1.99-3.283c-.078-.13-.217-.213-.37-.217h-.042v-.001zm-.16.989l1.627 2.7-.678.674c-.141.144-.17.365-.07.54 1.034 1.799 2.258 3.198 3.973 3.957.168.075.365.039.496-.091l.719-.723 2.625 1.649c-.29.657-.67 1.048-1.103 1.276-.502.265-1.116.315-1.815.169-1.4-.292-3.09-1.397-4.469-2.813-1.377-1.416-2.444-3.138-2.715-4.539-.136-.7-.076-1.304.181-1.782.222-.412.598-.764 1.229-1.017z" transform="translate(-420 -506) translate(405 375) translate(0 76) translate(16 55) translate(.5 .143) translate(0 .081)"/>
                                    <g>
                                        <path stroke="#8490A8" stroke-width=".7" d="M9.83 1c1.098 0 2.155.182 3.142.516-.15.257-.268.535-.348.829-.879-.29-1.818-.447-2.794-.447-4.94 0-8.937 4.014-8.937 8.98 0 1.872.569 3.605 1.578 5.094.076.111.098.252.06.381h0l-.91 3.05 2.97-1.03c.13-.046.273-.028.388.047 1.393.909 3.06 1.437 4.85 1.437 4.942 0 8.937-4.014 8.937-8.98 0-1.632-.431-3.16-1.186-4.478.268-.134.516-.303.74-.5.85 1.462 1.34 3.163 1.34 4.978 0 5.45-4.406 9.877-9.83 9.877-1.888 0-3.656-.535-5.15-1.462h0l-3.592 1.245c-.158.055-.334.016-.455-.1-.12-.117-.166-.292-.118-.453h0l1.099-3.687C.584 14.71 0 12.857 0 10.877 0 5.427 4.408 1 9.83 1z" transform="translate(-420 -506) translate(405 375) translate(0 76) translate(16 55) translate(.5 .143) translate(0 .081)"/>
                                        <path fill-rule="nonzero" d="M13.5 3.275c0 1.384 1.116 2.5 2.5 2.5 1.383 0 2.5-1.116 2.5-2.5 0-1.383-1.117-2.5-2.5-2.5-1.384 0-2.5 1.117-2.5 2.5z" transform="translate(-420 -506) translate(405 375) translate(0 76) translate(16 55) translate(.5 .143) translate(0 .081)"/>
                                    </g>
                                </g>
                            </g>
                        </g>
                    </g>
                </g>
            </g>
        </g>
    </g>
</svg>
