<svg xmlns="http://www.w3.org/2000/svg" width="164" height="182" viewBox="0 0 164 182">
    <g fill="none" fill-rule="evenodd">
        <g fill-rule="nonzero">
            <g>
                <g>
                    <g>
                        <g>
                            <path fill="#361D87" d="M22.056 24.952s-11.912-1.65-9.13-15.893c0 0 13.312 2.961 9.13 15.893z" transform="translate(-799 -312) translate(445 277) translate(354 35) translate(0 17) translate(0 36)"/>
                            <path fill="#000" d="M22.056 24.952s-11.912-1.65-9.13-15.893c0 0 13.312 2.961 9.13 15.893z" opacity=".1" transform="translate(-799 -312) translate(445 277) translate(354 35) translate(0 17) translate(0 36)"/>
                            <path fill="#263238" d="M21.453 21.978c-.232-.72-.503-1.427-.81-2.119 0-.092 0-.184-.031-.272 0-.197-.036-.39-.049-.588-.035-.438-.062-.85-.089-1.276-.048-.851-.101-1.702-.115-2.553 0-.049-.075-.044-.075 0v2.557c0 .439.044.851.07 1.277v.285c-.669-1.419-1.47-2.773-2.391-4.045-.389-.567-.807-1.113-1.254-1.636-.474-.54-.974-1.053-1.457-1.584-.031-.035-.08 0-.049.053.855.937 1.623 1.949 2.295 3.023.363.54.704 1.096 1.032 1.662l-.111-.04-.443-.17-.974-.365c-.638-.236-1.276-.465-1.914-.706-.04 0-.067.053-.027.066.634.25 1.258.513 1.887.78l.922.396.465.188c.1.05.205.087.314.11.24.439.479.855.7 1.294.553 1.104 1.038 2.239 1.453 3.4.031.079.058.162.089.246-.315-.18-.642-.337-.98-.47l-1.23-.553c-.838-.381-1.666-.767-2.468-1.215-.017-.01-.039-.004-.049.013-.01.017-.004.039.014.049.82.438 1.62.917 2.44 1.355.412.22.824.439 1.245.636.346.204.723.352 1.116.439.4 1.08.663 2.204.785 3.347.132 1.61.12 3.233.159 4.848.12-1.466.186-2.944.195-4.414-.005-1.365-.229-2.722-.665-4.018z" transform="translate(-799 -312) translate(445 277) translate(354 35) translate(0 17) translate(0 36)"/>
                            <path fill="#263238" d="M19.62 13.604c-.116.832-.156 1.674-.12 2.513 0 .022.035.022.035 0 .05-.833.058-1.667.155-2.496.005-.044-.066-.061-.07-.017zM16.213 14.319c-.533-.203-1.046-.452-1.533-.746-.04-.026-.075.04-.035.061.477.32 1 .566 1.55.733.027.009.071-.035.018-.048zM22.437 47.562c0-1.316-.036-2.606-.049-3.908-.026-4.33-.062-8.66-.142-12.99-.062-3.44-.143-6.876-.243-10.309 0-.018-.01-.035-.027-.044v-2.816c0-.027-.026-.035-.057-.035-.031 0-.058 0-.054.035v2.82s-.03.022-.03.04c-.173 6.142-.328 12.235-.368 18.355v3.733c-.045 3.986-.06 7.975-.049 11.967v1.904c0 3.65.04 7.3.04 10.967 0 .193.221.294.443.303.221.009.554-.097.554-.32 0-4.023.026-8.05.026-12.073-.013-2.553-.013-5.093-.044-7.629z" transform="translate(-799 -312) translate(445 277) translate(354 35) translate(0 17) translate(0 36)"/>
                            <path fill="#361D87" d="M17.462 43.6s-5.732-4.202-11.167-1.368C.859 45.066 0 56.024 0 56.024s7.974 1.132 13.015-3.61c4.846-4.562 4.447-8.813 4.447-8.813z" transform="translate(-799 -312) translate(445 277) translate(354 35) translate(0 17) translate(0 36)"/>
                            <path fill="#263238" d="M19.021 43.86c-1.052-.416-2.192-.566-3.317-.439-.232-.04-.466-.064-.7-.07l-.811-.062-1.67-.114c-1.13-.083-2.264-.153-3.393-.267-.016.005-.027.02-.027.037 0 .017.01.032.027.037 1.116.14 2.215.299 3.344.408.576.057 1.152.119 1.732.158l.417.04c-.169.04-.341.079-.51.127-.899.26-1.769.609-2.596 1.044-.443.079-.886.206-1.328.307-.71.167-1.414.347-2.118.53-1.39.36-2.769.769-4.15 1.168-.045 0-.023.079 0 .066 1.377-.334 2.768-.64 4.15-.966l2.011-.478.527-.123c-1.537.948-2.912 2.132-4.07 3.51-1.116 1.36-2.065 2.845-2.827 4.426 0 .04.036.08.062.04.944-1.616 2.095-3.104 3.424-4.427-.026.075-.048.154-.075.229l-.319 1c-.212.671-.443 1.338-.629 2.009 0 .044.058.057.071 0 .244-.65.474-1.316.704-1.952.111-.32.226-.636.337-.957.062-.166.12-.333.173-.5 0-.048.04-.1.057-.153.639-.614 1.317-1.187 2.03-1.715.945-.686 1.966-1.264 3.042-1.724 0 .096-.035.197-.057.29-.058.258-.115.517-.168.776-.111.535-.218 1.074-.324 1.614-.217 1.097-.35 2.193-.558 3.308 0 .048.062.065.07 0 .258-1.106.59-2.194.838-3.3.124-.552.248-1.105.368-1.658l.16-.78c.026-.145.061-.29.079-.44l.31-.126c1.502-.553 3.163-.952 4.767-.645 1.54.282 2.836 1.31 3.45 2.737.053.123.248.044.217-.083-.31-1.343-1.457-2.356-2.72-2.882z" transform="translate(-799 -312) translate(445 277) translate(354 35) translate(0 17) translate(0 36)"/>
                            <path fill="#263238" d="M10.25 48.536c-.159.72-.323 1.439-.482 2.158-.181.69-.315 1.39-.399 2.097 0 .031.035.031.044 0 .211-.691.374-1.396.488-2.11.141-.71.283-1.421.42-2.132.01-.04-.062-.057-.07-.013zM4.709 50.365c-.731.365-1.435.781-2.215 1.084-.012.005-.02.015-.022.028-.002.012.003.025.013.033.01.008.024.01.036.005.762-.335 1.506-.71 2.228-1.123 0 0 0-.035-.04-.027z" transform="translate(-799 -312) translate(445 277) translate(354 35) translate(0 17) translate(0 36)"/>
                            <path fill="#361D87" d="M18.751 35.88s-7.003.439-10.264-4.128c-3.26-4.567-2.525-11.107-2.525-11.107s7.358.877 10.278 4.171c2.919 3.295 2.511 11.064 2.511 11.064z" transform="translate(-799 -312) translate(445 277) translate(354 35) translate(0 17) translate(0 36)"/>
                            <path fill="#263238" d="M22.025 42.724c-.244-.742-.545-1.474-.828-2.194-.284-.72-.563-1.395-.886-2.08-.624-1.397-1.324-2.76-2.096-4.083-.496-.843-1.027-1.663-1.572-2.47 0-.123-.036-.246-.053-.369-.031-.215-.062-.438-.098-.645-.07-.438-.146-.877-.221-1.316-.16-.96-.36-1.912-.514-2.869 0-.044-.08-.044-.071 0 .137.948.235 1.9.368 2.847.066.465.128.93.199 1.395l.08.505c-1.069-1.548-2.225-3.035-3.464-4.453l-.483-.552c0-.053-.045-.106-.067-.158-.053-.132-.102-.264-.15-.4-.107-.272-.204-.548-.306-.824-.195-.544-.372-1.093-.523-1.65 0-.044-.08-.022-.066 0 .142.57.288 1.136.443 1.698.084.272.173.54.27.807 0 .044.031.088.049.132-.886-.965-1.83-1.895-2.773-2.817-.031-.03-.08 0-.05.053 1.81 1.875 3.47 3.888 4.962 6.019-.17-.053-.343-.096-.518-.127-.54-.106-1.08-.18-1.626-.25-1.143-.145-2.281-.286-3.415-.466-.049 0-.067.062 0 .07 1.085.211 2.157.44 3.238.703.51.114 1.019.21 1.528.311.418.088.83.204 1.232.347.11.162.23.32.34.482.515.737 1.007 1.496 1.49 2.255l-.714-.136c-.54-.105-1.085-.202-1.626-.29-1.067-.175-2.14-.36-3.193-.596-.045 0-.062.061 0 .07 1.072.25 2.13.54 3.193.82.514.136 1.033.26 1.55.373l.776.167c.105.027.211.045.319.053 1.023 1.64 1.98 3.325 2.87 5.04.39.755.767 1.518 1.13 2.281.363.764.696 1.593 1.041 2.391.049.167.301.101.235-.074z" transform="translate(-799 -312) translate(445 277) translate(354 35) translate(0 17) translate(0 36)"/>
                            <path fill="#263238" d="M14.866 26.786c-.133-.662-.274-1.316-.443-1.983 0-.044-.08-.022-.07 0 .132.65.26 1.316.38 1.952.098.654.23 1.303.395 1.944-.042-.643-.13-1.282-.262-1.913zM10.782 26.593c-.323-.162-.669-.29-1.005-.439l-.532-.206-.27-.105c-.104-.033-.203-.077-.297-.132-.053-.035-.084.053-.031.062.104.028.204.069.297.123l.266.118.513.224c.336.156.68.292 1.033.408.04.03.066-.035.026-.053z" transform="translate(-799 -312) translate(445 277) translate(354 35) translate(0 17) translate(0 36)"/>
                            <path fill="#361D87" d="M25.919 30.427s4.239-7.84 10.684-9.054C43.05 20.158 47 26.729 47 26.729s-4.704 5.949-10.631 6.988c-5.928 1.04-10.45-3.29-10.45-3.29z" transform="translate(-799 -312) translate(445 277) translate(354 35) translate(0 17) translate(0 36)"/>
                            <path fill="#263238" d="M40.927 24.887c-1.68-.226-3.385-.205-5.059.061l.288-.154 1.43-.728c.984-.538 1.994-1.027 3.026-1.465.049-.022 0-.088-.026-.066-1.01.465-2.056.878-3.066 1.316-.51.228-1.005.47-1.497.729-.319.166-.669.324-.983.526-1.417.281-2.793.734-4.098 1.347l.806-.878c.598-.653 1.192-1.338 1.852-1.93.035-.03 0-.079-.053-.048-.674.605-1.387 1.167-2.042 1.798-.315.308-.62.623-.917.952-.147.163-.297.33-.443.505-4.484 2.377-7.657 6.619-8.647 11.56 0 .043.057.065.07.021.909-2.989 2.535-5.715 4.74-7.944 2.377-2.39 5.367-4.093 8.647-4.927 1.947-.49 3.96-.672 5.963-.535.04.002.073-.027.075-.066.003-.039-.027-.072-.066-.074z" transform="translate(-799 -312) translate(445 277) translate(354 35) translate(0 17) translate(0 36)"/>
                            <path fill="#000" d="M47 26.73s-4.704 5.948-10.631 6.987c-4.514.79-8.227-1.54-9.746-2.689l-.328-.53s3.052-2.545 8.829-4.015C40.9 25.013 47 26.73 47 26.73z" opacity=".1" transform="translate(-799 -312) translate(445 277) translate(354 35) translate(0 17) translate(0 36)"/>
                            <path fill="#263238" d="M37.18 22.092c-.494.286-.972.598-1.432.935-.448.338-.864.715-1.244 1.127-.01.016-.008.037.006.05.014.013.036.014.051.003.443-.369.855-.737 1.303-1.084.43-.35.883-.675 1.355-.97.017-.01.022-.033.011-.05-.01-.017-.034-.022-.05-.01zM40.719 23.417c-.24.1-.483.184-.722.285l-.718.294c-.049 0-.027.105.026.083l.718-.29c.244-.096.479-.205.718-.302.044-.017.022-.088-.022-.07z" transform="translate(-799 -312) translate(445 277) translate(354 35) translate(0 17) translate(0 36)"/>
                            <path fill="#361D87" d="M25.073 40.293s1.134 7.778 7.038 10.498c5.905 2.72 13.104 0 13.104 0s-2.813-16.824-20.142-10.498z" transform="translate(-799 -312) translate(445 277) translate(354 35) translate(0 17) translate(0 36)"/>
                            <path fill="#263238" d="M41.144 45.742c-.54-.062-1.085-.154-1.621-.25l-.798-.15-.412-.083c-.16-.145-.314-.294-.478-.439-1.122-.972-2.332-1.84-3.615-2.592-.698-.41-1.42-.777-2.162-1.101h.111l1.945.083c1.293.061 2.591.088 3.885.171.048 0 .044-.066 0-.07-1.303-.088-2.596-.228-3.894-.338l-1.887-.167-.975-.083-.248-.026c-.336-.127-.673-.246-1.019-.351-1.61-.547-3.34-.641-5-.272-1.485.377-2.969 1.342-3.354 2.89 0 .053.07.093.093.04.554-1.316 2.006-1.952 3.318-2.22.876-.164 1.775-.182 2.658-.052.06.4.159.794.296 1.176.164.548.324 1.096.492 1.64.337 1.093.704 2.194 1.032 3.268 0 .02.016.036.036.036.02 0 .035-.016.035-.036-.275-1.092-.51-2.193-.775-3.29-.129-.535-.266-1.07-.399-1.605-.077-.374-.176-.743-.297-1.106.518.09 1.03.208 1.533.356.906.268 1.794.593 2.658.973.084.553.213 1.102.341 1.65.16.684.341 1.364.558 2.035.005.014.019.023.033.023.015 0 .029-.009.034-.023l-.027-.127c-.133-.636-.275-1.272-.412-1.908-.106-.513-.208-1.027-.319-1.535.736.323 1.454.683 2.153 1.079 0 .158.053.32.075.465.045.263.093.53.142.798.11.597.23 1.198.377 1.79.267 1.147.606 2.277 1.014 3.382-.01.013-.01.031 0 .044l.036.04c.026.03.066 0 .057-.036-.27-1.153-.585-2.298-.842-3.452-.124-.58-.252-1.158-.372-1.755-.057-.29-.11-.579-.168-.877l-.04-.259c.795.462 1.563.968 2.3 1.518 1.274.945 2.453 2.01 3.52 3.18.04.049.125 0 .085-.07-.438-.59-.907-1.156-1.404-1.698-.297-.315-.607-.622-.922-.92h.098c.279.047.554.087.833.122.545.075 1.094.127 1.643.189.08.008.098-.057.049-.057z" transform="translate(-799 -312) translate(445 277) translate(354 35) translate(0 17) translate(0 36)"/>
                            <path fill="#263238" d="M36.998 48.374c0-.066 0-.136-.036-.202-.035-.066-.057-.167-.07-.254-.12-.522-.222-1.045-.32-1.571 0-.035-.062-.026-.062 0 .036.696.186 1.382.443 2.031 0 .022.049 0 .045 0v-.004zM32.054 48.247s0-.036-.036-.036c-.168-.688-.327-1.377-.47-2.07-.074-.364-.15-.728-.22-1.092-.04-.198-.076-.395-.111-.593-.016-.174-.06-.344-.129-.504-.005-.014-.018-.023-.033-.023-.015 0-.028.01-.033.023-.005.353.046.706.15 1.044.071.377.147.759.23 1.136.173.768.364 1.531.585 2.286.006.016.021.026.038.026.017 0 .032-.01.038-.026l-.01-.171zM40.63 43.491c-1.08-.145-2.157-.298-3.238-.438-.044 0-.062.065 0 .07 1.076.158 2.157.29 3.238.438 0 .01.022-.061 0-.07z" transform="translate(-799 -312) translate(445 277) translate(354 35) translate(0 17) translate(0 36)"/>
                            <path fill="#361D87" d="M22.047 22.053S18.432 6.357 35.465 0c0 0 4.722 20.666-13.418 22.053z" transform="translate(-799 -312) translate(445 277) translate(354 35) translate(0 17) translate(0 36)"/>
                            <path fill="#263238" d="M25.724 13.152l.181-.11.966-.535 1.976-1.092c1.298-.724 2.582-1.47 3.89-2.194.043 0 0-.083-.036-.061-1.33.706-2.658 1.368-3.965 2.057l-1.954 1.022-.797.439c.567-1.066 1.174-2.11 1.843-3.12.886-1.346 1.865-2.631 2.88-3.877.021-.023.02-.06-.003-.081-.023-.022-.06-.021-.082.002-1.496 1.437-2.817 3.042-3.938 4.782v-.167c0-.39.031-.78.035-1.171 0-.768-.026-1.536 0-2.299 0-.048-.07-.044-.075 0-.03.755-.124 1.509-.168 2.264 0 .372-.036.75-.049 1.127v.658c-.348.553-.684 1.113-1.005 1.68-.571 1.024-1.08 2.08-1.524 3.163 0-.39-.04-.78-.062-1.171-.053-.878-.155-1.715-.195-2.575 0-.02-.016-.035-.036-.035-.02 0-.035.015-.035.035v2.58c0 .438.026.877.053 1.289 0 .158 0 .32.031.478-.542 1.404-.971 2.847-1.285 4.317-.295 1.568-.506 3.151-.633 4.742.172-1.43.468-2.844.886-4.225.208-.741.443-1.478.673-2.193.709-.329 1.387-.741 2.069-1.119l2.14-1.158c1.421-.772 2.839-1.557 4.305-2.237.04 0 0-.083-.04-.061-1.484.662-2.98 1.316-4.43 2.022-.726.364-1.44.75-2.148 1.145-.589.329-1.2.658-1.772 1.04.164-.492.337-.979.527-1.457.523-1.331 1.116-2.634 1.777-3.904z" transform="translate(-799 -312) translate(445 277) translate(354 35) translate(0 17) translate(0 36)"/>
                            <path fill="#263238" d="M24.289 9.559c-.006-.016-.021-.027-.038-.027-.017 0-.032.011-.038.027.062.877.093 1.79.19 2.685 0 .021.019.04.04.04.023 0 .04-.019.04-.04-.03-.895-.128-1.786-.194-2.685zM32.453 12.56c-1.064.438-2.14.829-3.203 1.267-.027 0 0 .062 0 .049 1.076-.4 2.135-.834 3.207-1.246.062-.018.04-.088-.004-.07zM34.074 5.317c-1.043.474-2.055 1.011-3.03 1.61-.015.016-.017.04-.005.057.01.019.033.027.054.022.987-.575 1.993-1.123 3.016-1.628.045.005.005-.079-.035-.061z" transform="translate(-799 -312) translate(445 277) translate(354 35) translate(0 17) translate(0 36)"/>
                            <path fill="#455A64" d="M9.249 56.002H33.812V81.643H9.249z" transform="translate(-799 -312) translate(445 277) translate(354 35) translate(0 17) translate(0 36)"/>
                            <path fill="#263238" d="M7.562 65.079H8.82V109H7.562zM34.118 65.079H35.376000000000005V109H34.118zM21.507 65.079H22.765V109H21.507z" transform="translate(-799 -312) translate(445 277) translate(354 35) translate(0 17) translate(0 36)"/>
                            <path fill="#263238" d="M8.191 80.003H34.748V83.552H8.191z" transform="translate(-799 -312) translate(445 277) translate(354 35) translate(0 17) translate(0 36)"/>
                        </g>
                        <g transform="translate(-799 -312) translate(445 277) translate(354 35) translate(0 17) translate(32)">
                            <path fill="#F7A9A0" d="M100.157 130.934v19.112c0 3.65-.031 6.85-.213 8.505.005.008.005.018 0 .026 0 .393-.09.78-.265 1.131l-.023.022c-1.08.74-30.201 1.743-31.228 1.432-1.027-.31-.234-3.263.885-4.208 1.12-.944 12.083-6.318 12.083-6.318l.181-19.09 18.58-.612z"/>
                            <path fill="#C7C7C7" d="M100.152 146.121v3.925c0 3.65-.03 6.85-.212 8.505.004.008.004.018 0 .026-.046.386-.135.765-.266 1.131l-.022.022c-1.08.74-30.202 1.743-31.228 1.432-1.027-.31-.235-3.263.885-4.208 1.12-.944 12.082-6.318 12.082-6.318l-.053-3.991 18.814-.524z"/>
                            <path fill="#263238" d="M68.424 161.162c1.026.31 30.148-.687 31.232-1.432.416-.275.518-4.536.496-9.684v-.164l-18.796.443.022.32s-10.976 5.378-12.082 6.323c-1.107.944-1.904 3.897-.872 4.194z"/>
                            <path fill="#455A64" d="M68.711 160.023c4.909-.293 24.718-.993 29.587-.887.04 0 .04.027 0 .031-4.869.39-24.67.936-29.582.953-.102-.017-.106-.093-.005-.097zM79.794 150.746c1.92-.443 4.293-.212 5.815 1.118.062.053 0 .133-.075.115-1.867-.533-3.786-.864-5.723-.989-.06-.006-.106-.054-.11-.114-.005-.06.034-.115.093-.13zM78.43 151.638c1.917-.444 4.293-.213 5.816 1.117.057.049 0 .133-.08.115-1.867-.533-3.785-.865-5.722-.988-.06-.008-.105-.057-.108-.117-.004-.06.036-.113.094-.127zM77.063 152.525c1.92-.444 4.293-.209 5.815 1.117.062.053 0 .137-.075.12-1.867-.534-3.785-.867-5.722-.994-.06-.006-.107-.054-.111-.114-.005-.06.035-.115.093-.13z"/>
                            <path fill="#455A64" d="M101.825 60.133L101.807 61.396 101.095 117.206 101.09 117.419 100.67 150.848 80.285 150.44 84.219 60.199 84.272 58.993 84.472 48.524 101.688 48.524z"/>
                            <path fill="#263238" d="M81.139 147.035c3.182-.031 2.266-.067 5.448-.058 1.558 0 11.795.04 13.246.297.031 0 .031.062 0 .067-1.46.222-11.692 0-13.25-.027-3.182-.066-2.266-.084-5.448-.186-.02-.007-.034-.027-.033-.048.001-.022.016-.04.037-.045zM90.27 66.004c0-.02-.017-.036-.036-.036-.02 0-.035.016-.035.036 0 5.343-.217 8.336-.346 13.675-.128 5.339-.283 10.677-.442 16.012-.288 10.673-.717 21.337-1.111 32.006-.221 5.983-.497 11.964-.828 17.941 0 .017.014.031.031.031s.031-.014.031-.03c.775-10.643 1.514-21.32 1.939-31.994.425-10.673.726-21.342.774-32.015.044-5.99.01-9.636.022-15.626zM101.821 60.133L101.095 117.206 87.432 48.524 101.683 48.524z"/>
                            <path fill="#F7A9A0" d="M123.02 129.901s2.567 18.92 2.567 18.934c.513 3.619.885 6.798.938 8.46v.027c.052.388.016.782-.106 1.153v.027c-.974.887-29.697 5.809-30.755 5.64-1.057-.168-.668-3.201.292-4.288.96-1.086 11.122-7.893 11.122-7.893l-2.39-18.938 18.332-3.122z"/>
                            <path fill="#C7C7C7" d="M125.06 144.95s.527 3.872.527 3.885c.513 3.619.885 6.798.938 8.46v.027c.009.387-.027.774-.106 1.153v.027c-.974.887-29.697 5.809-30.755 5.64-1.057-.168-.668-3.201.292-4.288.96-1.086 11.122-7.893 11.122-7.893l-.606-3.955 18.588-3.055z"/>
                            <path fill="#263238" d="M95.647 164.142c1.062.169 29.78-4.758 30.754-5.64.377-.333-.097-4.563-.814-9.667l-.026-.16-18.562 2.972.062.314s-10.153 6.811-11.122 7.898c-.97 1.086-1.372 4.11-.292 4.283z"/>
                            <path fill="#455A64" d="M95.78 162.972c4.824-.95 24.341-4.324 29.21-4.878.04 0 .044.022 0 .031-4.758 1.046-24.316 4.261-29.184 4.944-.115.013-.128-.075-.027-.097zM105.512 152.285c1.845-.683 4.226-.79 5.913.32.066.044 0 .137-.062.128-1.921-.278-3.867-.348-5.803-.208-.06 0-.112-.041-.124-.1-.012-.059.02-.118.076-.14zM104.277 153.35c1.845-.684 4.227-.79 5.913.323.066.04 0 .133-.062.124-1.921-.276-3.866-.345-5.802-.208-.06.001-.113-.04-.125-.1-.012-.058.02-.117.076-.14zM103.047 154.418c1.845-.683 4.222-.79 5.912.32.067.044 0 .137-.062.128-1.92-.28-3.866-.35-5.802-.209-.06.002-.112-.04-.124-.099-.012-.059.02-.118.076-.14zM86.224 48.506c.075.355 1.28 5.95 2.527 10.758.908 3.511 1.841 6.598 2.377 6.917.606.36 3.563 1.672 4.554 2.084l4.528 43.38 6.12 40.166 20.014-3.104-14.242-87.905-2.32-12.296H86.225z"/>
                            <path fill="#263238" d="M106.45 147.78c3.142-.506 2.213-.408 5.382-.887 1.54-.23 11.666-1.734 13.14-1.694.03 0 .04.053 0 .062-1.408.444-11.56 1.774-13.105 1.97-3.155.407-2.253.256-5.413.633-.015-.008-.025-.023-.026-.04 0-.018.007-.035.022-.044zM118.023 135.785c-.5-2.784-.995-5.57-1.509-8.354-1.024-5.57-2.056-11.137-3.098-16.704-2.089-11.141-4.154-22.292-6.196-33.452-1.142-6.296-1.115-5.706-2.111-12.034 0-.04-.08-.036-.07 0 .955 5.623.504 4.39 1.407 10.021.902 5.632 1.85 11.144 2.845 16.7 2 11.17 4.099 22.322 6.219 33.47.59 3.127 1.193 6.25 1.81 9.369.62 3.184 1.327 6.35 1.982 9.525 0 .07.129.066.116 0-.46-2.843-.877-5.698-1.395-8.54zM112.522 65.658c-.53-.138-1.102-.182-1.642-.266-.442-.071-.885-.151-1.328-.244-.832-.15-1.622-.483-2.31-.976-.752-.585-1.137-1.476-1.5-2.332-.218-.506-.44-1.011-.664-1.517l-.332-.731c-.155-.288-.292-.584-.412-.887 0-.045-.084 0-.066 0 .075.207.137.419.186.634.075.244.142.488.217.732.137.443.27.886.411 1.33.216.8.526 1.571.925 2.297.806 1.277 2.24 1.796 3.674 1.977.411.05.827.08 1.243.102.522.047 1.046.047 1.567 0 .025-.006.044-.026.05-.05.007-.025 0-.052-.019-.07zM89.557 65.414c2.11.768 4.15 1.72 6.094 2.847.034.016.05.056.033.09-.016.035-.056.05-.09.034-2.054-.887-4.147-1.73-6.148-2.723-.057-.036-.08-.11-.051-.172.027-.062.096-.094.162-.076zM88.937 51.34c0-.071.133-.09.133 0-.002 2.295.114 4.589.345 6.873.093 1.06.943 6.913 2.78 6.487.305-.071.442-.377.509-.838-.007-.607-.089-1.21-.244-1.796-.203-1.228-.367-2.457-.469-3.694-.216-2.305-.191-4.626.075-6.926 0-.032.026-.058.058-.058s.057.026.057.058c-.051 3.198.135 6.395.558 9.565.23 1.52.996 3.813-.593 4.048-1.589.235-2.656-3.6-2.864-4.651-.507-2.995-.623-6.044-.345-9.068z"/>
                            <path fill="#263238" d="M92.146 64.833c.161.396.299.802.411 1.215.119.319.177.657.173.998-.005.028-.027.05-.055.056-.028.006-.057-.006-.073-.03-.198-.298-.347-.626-.443-.97-.141-.373-.288-.75-.416-1.127-.025-.072-.01-.152.04-.21.05-.058.126-.085.2-.071.076.014.138.067.163.139zM112.31 62.093c-2.426-.16-28.038-3.104-28.038-3.104l.2-10.47H109.8l2.32 12.297.19 1.277z"/>
                            <path fill="#F7A9A0" d="M94.372 24.477c-2.93 9.188-7.891 18.673-9.325 20.54-3.846 5.019-15.402 9.963-18.93 10.602-1.526.275-5.186-9.592-4.239-10.949.947-1.356 15.309-6.855 16.012-7.587.487-.51 6.546-8.331 10.622-13.05 5.094-5.866 6.63-1.96 5.86.444z"/>
                            <path fill="#EBEBEB" d="M64.945 42.755l5.674 11.529s12.06-5.237 14.932-8.975c2.873-3.738 8.078-16.407 8.852-20.442.775-4.035-.562-6.917-5.957-1.02-5.395 5.898-9.865 11.773-10.83 12.758-.965.984-12.671 6.15-12.671 6.15z"/>
                            <path fill="#37474F" d="M65.423 42.17l6.798 11.945s10.622-5.086 13.33-8.425c2.709-3.339 7.175-13.59 8.573-19.125 1.399-5.533.58-9.458-5.674-2.687-6.253 6.771-9.79 11.689-11.064 12.793-.606.479-11.963 5.499-11.963 5.499z"/>
                            <circle cx="68.286" cy="42.648" r="1" fill="#263238"/>
                            <circle cx="71.23" cy="41.292" r="1" fill="#263238"/>
                            <path fill="#263238" d="M94.124 26.548c-1.398 5.534-5.86 15.768-8.573 19.125-1.16 1.432-3.753 3.179-6.35 4.713L92.888 20.35c2.12-.577 2.187 2.438 1.235 6.199z"/>
                            <path fill="#EBEBEB" d="M113.646 57.698c-.07.08-30.688.173-30.98-.142-.394-.443 6.523-33.7 9.666-37.784.668-.887 2.885-1.122 4.77-.887.492.056.978.155 1.452.297h.054c.382.113.743.29 1.066.524 5.24 4.194 9.657 18.859 10.688 23.262 1.726 7.267 3.537 14.442 3.284 14.73z"/>
                            <path fill="#37474F" d="M99.586 19.315S97.094 32.93 96.66 36.467c-.434 3.539.204 22.229.204 22.229l19.225 1.423s-4.155-12.371-4.204-13.156c0 0-3.452-14.82-6.688-21.01-1.413-2.563-3.32-4.82-5.611-6.638z"/>
                            <path fill="#263238" d="M116.09 60.12l-8.72-.648-6.222-38.786v.026l3.903 5.01c.045.08.089.16.129.24 3.235 6.208 6.687 21.01 6.687 21.01.067.776 4.222 13.147 4.222 13.147z"/>
                            <path fill="#37474F" d="M92.146 19.613s-2.04 13.786-2.262 14.925c-.221 1.14-3.31 23.621-3.31 23.621l-4.811.151 2.51-10.278s5.58-25.484 7.873-28.42z"/>
                            <path fill="#263238" d="M94.956 27.177L93.593 24.517 91.832 26.441 92.265 28.357 94 28.583z"/>
                            <path fill="#263238" d="M94 28.583L94.832 48.156 91.172 54.63 89.269 47.344 92.265 28.357z"/>
                            <path fill="#361D87" d="M100.661 75.259L123.648 75.258 123.648 113.125 100.661 113.125z" transform="rotate(-89.94 112.155 94.192)"/>
                            <path fill="#000" d="M106.747 69.179L117.571 69.179 117.571 107.046 106.747 107.046z" opacity=".1" transform="rotate(-89.94 112.16 88.113)"/>
                            <path fill="#361D87" d="M92.335 79.315L131.994 79.315 131.994 90.042 92.335 90.042z" transform="rotate(-179.94 112.165 84.679)"/>
                            <path fill="#263238" d="M103.826 73.192L103.817 79.306 106.689 79.311 106.693 75.83 117.647 75.843 117.643 79.324 120.515 79.324 120.52 73.205z"/>
                            <path fill="#263238" d="M123.958 87.487L126.543 87.487 126.543 92.613 123.958 92.613z" transform="rotate(-179.94 125.25 90.05)"/>
                            <path fill="#263238" d="M97.771 87.466L100.356 87.466 100.356 92.592 97.771 92.592z" transform="rotate(-179.94 99.063 90.029)"/>
                            <path fill="#F7A9A0" d="M103.817 23.404c8.541 7.764 13.963 18.854 14.33 21.094.885 5.414 2.005 14.903 1.815 19.067-.07 1.543-11.742-.328-11.72-1.978.076-5.161-.61-16.513-.641-16.713-.208-1.387-2.749-7.626-5.311-14.393-2.563-6.767-2.067-10.336 1.527-7.077z"/>
                            <path fill="#F7A9A0" d="M107.012 77.763c.697.318 1.518.168 2.058-.377.333.542.845.95 1.447 1.153 1.076.31 2.032-1.246 2.032-1.246.463.49 1.063.83 1.721.976 1.058.19 2.249-1.242 2.249-1.242.673.213 1.399.178 2.049-.097 1.102-.52 2.036-3.685 2.266-5.508.23-1.822-.828-7.21-.925-8.256l-11.667-1.57s-3.345 7.884-3.31 10.066c.03 1.849.797 5.463 2.08 6.101z"/>
                            <path fill="#263238" d="M108.893 77.28c-.5-1.947-.398-3.938-.407-5.924 0-.02.016-.036.035-.036.02 0 .036.016.036.036 0 1.977.363 3.933.442 5.91.004.03-.017.057-.046.06-.03.004-.056-.017-.06-.046zM112.403 77.236c-.072-.454-.084-.914-.036-1.37 0-.484.053-.972.093-1.455.077-.97.176-1.936.297-2.9 0-.044.07-.044.066 0-.07.967-.128 1.933-.164 2.9 0 .488-.026.971-.035 1.454.02.459-.01.918-.089 1.37-.01.028-.036.047-.066.047-.03 0-.056-.019-.066-.046zM116.519 76.987c-.057-.411-.045-.83.035-1.237.044-.443.084-.887.124-1.33.08-.887.155-1.774.2-2.66 0-.045.07-.045.07 0-.044.886-.075 1.8-.124 2.7l-.08 1.33c.01.405-.052.809-.181 1.193-.004.008-.012.013-.021.014-.009 0-.018-.003-.023-.01z"/>
                            <path fill="#37474F" d="M107.672 61.65l12.936.7s-.956-14.19-1.983-18.132c-1.026-3.942-9.79-17.08-14.963-21.843-4.869-4.483-4.869-.754-3.023 4.5 1.845 5.255 6.413 17.955 6.568 18.882.155.927.465 15.892.465 15.892z"/>
                            <path fill="#263238" d="M108.251 59.033c.496-.044.996 0 1.492 0 .495 0 .991.022 1.487.044.956.04 1.912.098 2.868.16l2.863.19c.987.067 1.996.085 2.974.231.014.005.023.019.023.033 0 .015-.009.029-.023.034-.987.04-1.991-.05-2.978-.085l-2.921-.12c-.974-.044-1.948-.092-2.921-.154-.478-.027-.956-.063-1.43-.116-.473-.053-.969-.057-1.438-.15-.044-.01-.031-.063.004-.067z"/>
                            <path fill="#F7A9A0" d="M94.053 24.162c.505-.022 3.855-2.66 4.869-4.691.07-.142-.19-1.588-.42-3.357-.138-1.073-.266-2.275-.302-3.379 0-.226-.76.217-.76.217l-1.417.39-4.674 1.304c.44 1.367.711 2.784.806 4.217.005.149-.006.297-.031.444.002.025.002.05 0 .075-.102.874 1.115 4.811 1.93 4.78z"/>
                            <path fill="#263238" d="M92.141 19.315c.002.026.002.05 0 .076.237.022.476.022.713 0 4.647-.257 5.032-6.208 5.032-6.208l-1.837.142-4.673 1.303c.44 1.368.71 2.784.805 4.217.004.158-.009.316-.04.47z"/>
                            <path fill="#F7A9A0" d="M98.028 3.379c1.115 2.31.93 9.52-.553 11.351-2.143 2.661-6.197 3.508-8.587.799-2.314-2.621-1.903-12.013-.199-13.747C91.2-.736 96.381-.036 98.028 3.38z"/>
                            <path fill="#263238" d="M91.858 8.638s.036 0 .036.044c-.027.483.026 1.047.442 1.215v.027c-.518-.085-.58-.83-.478-1.286z"/>
                            <path fill="#263238" d="M92.3 8.141c.78-.044.81 1.526.085 1.565-.726.04-.74-1.53-.084-1.565zM89.052 8.77s-.035.023-.035.045c.022.484-.031 1.047-.47 1.215.54-.062.607-.816.505-1.26z"/>
                            <path fill="#263238" d="M88.61 8.265c-.78-.044-.815 1.526-.089 1.566.726.04.735-1.504.089-1.566zM92.907 7.414c-.217-.053-.407-.133-.61-.204-.227-.04-.433-.156-.585-.328-.078-.128-.058-.294.049-.4.235-.18.55-.22.823-.101.29.076.54.258.704.51.069.121.06.272-.021.385-.083.113-.223.167-.36.138zM87.99 7.49c.21-.047.416-.105.62-.174.226-.031.435-.135.597-.297.085-.124.074-.29-.026-.403-.227-.194-.54-.248-.82-.142-.292.062-.55.231-.725.474-.075.118-.074.269.003.386.076.116.213.177.351.155zM92.385 13.139c-.115.115-.23.274-.403.292-.18-.002-.358-.042-.522-.115.145.191.382.288.62.253.202-.059.349-.234.371-.444-.013.005-.048-.004-.066.014z"/>
                            <path fill="#263238" d="M91.85 11.693c-.242.393-.637.666-1.09.754-.194.042-.394.056-.592.04-.039.004-.077.004-.116 0h-.106c-.052-.01-.092-.053-.097-.107-.002-.016-.002-.032 0-.048v-.045-.94c-.137.071-.828.395-.819.2.015-1.686.2-3.367.553-5.015 0-.025.02-.045.045-.045.024 0 .044.02.044.045 0 1.56-.283 3.104-.31 4.673.245-.12.506-.205.775-.253.053 0-.071 1.1-.05 1.269.619.05 1.23-.153 1.696-.563.057-.036.093-.005.066.035z"/>
                            <path fill="#263238" d="M90.384 12.292c.208.264.481.468.793.594.171.064.358.073.535.026.39-.11.39-.443.314-.771-.043-.154-.104-.303-.181-.444-.412.349-.923.557-1.46.595z"/>
                            <path fill="#FF9ABB" d="M91.177 12.886c.171.064.358.073.535.026.39-.11.39-.443.314-.771-.42.025-.77.331-.85.745z"/>
                            <path fill="#263238" d="M87.698 4.195c.252-.621.549-1.246.916-1.38.367-.132.629.772 1.474.812 1.137.058 1.668-.998 3.257-1.14 2.28-.203 3.32 1.69 3.44 4.936.1 2.895 1.858 3.135 1.858 3.135s.938-6.412-.885-8.496c-1.824-2.084-5.984-2.94-8.719-.887-1.014.776-1.341 3.02-1.341 3.02z"/>
                            <path fill="#F7A9A0" d="M97.16 9.445s1.28-2.488 2.386-2.062c1.106.426.358 3.884-.792 4.5-.287.18-.635.234-.962.15-.328-.084-.607-.298-.773-.593l.141-1.995z"/>
                            <path fill="#263238" d="M99.307 8.372s.026.022 0 .03c-.801.444-1.142 1.304-1.328 2.165.076-.187.23-.33.42-.393.192-.063.4-.037.571.069.023 0 0 .049 0 .049-.318-.057-.638.094-.796.377-.13.23-.234.474-.31.727-.027.084-.173.062-.155-.031-.186-1.1.452-2.727 1.598-2.993z"/>
                            <path fill="#EBEBEB" d="M92.12 19.484l1.668 4.106 5.063-5.188 1.443 1.658s-4.948 8.222-4.98 7.862l-1.69-3.52-2.42 2.456.18-6.16.735-1.214z"/>
                            <path fill="#263238" d="M91.12 23.812c.065-1.016.1-2.044.212-3.055 0-.036.061-.05.07 0 .204.98-.062 4.877-.057 5.795.102-.106 2.244-2.16 2.266-2.128.367.558 1.606 3.104 1.69 3.356.784-1.308 3.78-6.061 4.71-7.298.011-.01.028-.012.041-.004.013.008.02.024.016.04-.677 1.356-4.643 7.764-4.705 7.764-.652-1.211-1.243-2.454-1.77-3.725-.363.443-2.527 2.771-2.536 2.62-.038-1.122-.017-2.245.062-3.365z"/>
                            <path fill="#F7A9A0" d="M34.952 23.714c5.567 11.01 11.223 37.496 11.75 41.04.358 2.407-12.277 4.584-12.277 2.917 0-2.137-2.55-27.138-2.306-37.017.133-5.45 1.682-9.215 2.833-6.94z"/>
                            <path fill="#F7A9A0" d="M34.376 66.616c-.203 1.45.279 6.474 1.226 10.198.443 1.818 2.337 6.896 3.758 6.652 1.42-.244 1-1.774 1-1.774s1.115 2.022 2.518 1.645c1.403-.377.682-2.745.682-2.745s1.292 2 2.655 1.521c1.363-.479.244-2.736.244-2.736s1.102 1.885 2.066 1.011c1.164-1.05-1.252-4.288-1.66-6.323-.092-.443-1.22-9.498-1.22-9.498l-11.269 2.049z"/>
                            <path fill="#263238" d="M46.476 79.346c-1.77-2.385-2.133-3.738-2.354-6.651-.007-.02-.025-.034-.047-.034-.021 0-.04.014-.046.034-.04 2.878.172 4.638 2.337 6.753.106.093.194.01.11-.102zM43.595 80.72c-1.624-2.638-2.031-4.1-2.492-7.138 0-.045-.08-.04-.075 0 .2 3.02.443 4.771 2.421 7.196.089.116.221.063.146-.057zM40.231 81.492c-1.385-2.66-1.898-4.252-1.965-7.258-.007-.025-.03-.042-.055-.042-.026 0-.048.017-.055.042-.23 3.072.398 5.055 1.991 7.298.111.129.173.111.084-.04z"/>
                            <path fill="#F7A9A0" d="M46.622 64.123s2.036 3.104 2.63 4.687c.592 1.583.659 8.222-.775 8.32-1.85.123-2.656-3.712-2.789-5.641 0 0-4.284.288-5.443-2.342-1.16-2.629 6.377-5.024 6.377-5.024z"/>
                            <path fill="#263238" d="M47.959 76.992c-1.77-1.104-1.797-3.65-2.076-5.512-.006-.056-.038-.106-.088-.134-.05-.027-.109-.029-.16-.004-1.8 0-4.346-.523-5.434-2.084-.007-.016-.022-.027-.04-.028-.017-.001-.034.009-.041.024-.008.016-.006.035.005.049.939 1.835 3.4 2.554 5.373 2.425.257 1.911.394 4.465 2.448 5.281.013.005.022-.008.013-.017z"/>
                            <path fill="#361D87" d="M47.915 63.379l-14.353 2.217s-2.288-26.699-2.372-35.66c-.084-8.962 3.129-11.157 6.576-1.992C41.214 37.11 47.915 63.38 47.915 63.38z"/>
                            <path fill="#263238" d="M33.491 63.347c5.873-1.33 12.242-1.822 13.348-1.986.053 0 .058.075 0 .08-1.089.106-8.311 1.467-13.348 1.995-.04.005-.044-.08 0-.089z"/>
                            <path fill="#F7A9A0" d="M65.304 161.14c-.996.324-30.184-.115-31.255-.82-.129-.08-.146-2.723-.111-6.345l-1.42-21.52 18.468.053 1.46 18.624s4.143 1.916 7.56 3.592c1.495.68 2.948 1.45 4.35 2.306 1.102.922 1.943 3.791.948 4.11z"/>
                            <path fill="#263238" d="M65.304 161.14c-.996.324-30.184-.115-31.255-.82-.129-.08-.146-2.723-.111-6.345 7.21 1.61 26.435 4.216 26.997 2.704.226-.607-.234-1.294-.92-1.928 1.495.68 2.947 1.45 4.35 2.305 1.093.896 1.934 3.765.939 4.084z"/>
                            <path fill="#37474F" d="M24.72 54.133s5.23 55.614 5.345 56.288c0 .09.058 1.118.107 2.79.292 9.174 1.009 37.784 1.009 37.784h21.943s-1.43-33.887-2.253-41.789c-1.049-10.087-7.497-55.073-7.497-55.073H24.719z"/>
                            <path fill="#263238" d="M32.681 112.302c-.676-11.547-1.692-23.076-3.05-34.588-.77-6.474-1.699-12.925-2.62-19.382 0-.057-.097-.053-.088 0 1.7 11.49 2.9 23.058 3.935 34.636 1.035 11.578 1.77 23.13 2.213 34.72.27 6.563.473 13.135.681 19.702.011.058.062.1.122.1s.11-.042.122-.1c-.293-11.689-.629-23.395-1.315-35.088z"/>
                            <path fill="#263238" d="M51.739 147.452c-.576-.076-1.2-.053-1.77-.071-.656 0-1.329-.031-1.975-.053-1.27-.05-2.545-.085-3.815-.102-2.562-.045-5.13-.027-7.687.053l-2.116.075c-.752.027-1.505.098-2.257.093-.053 0-.053.067 0 .067 1.288 0 2.594.11 3.886.16 1.292.048 2.54.066 3.81.084 2.563.035 5.134 0 7.692-.08.704-.027 1.408-.036 2.112-.058l1.133-.057c.336 0 .668 0 1.004-.031.044 0 .04-.071-.017-.08zM40.572 54.133l-10.024 72.438c-.142-5.401-.283-10.394-.376-13.36-.049-1.672-.089-2.7-.107-2.79-.123-.674-5.346-56.288-5.346-56.288h15.853z"/>
                            <path fill="#F7A9A0" d="M28.543 164.998c-1.044-.084-27.82-11.737-28.537-12.802-.089-.12.885-2.567 2.332-5.897l5.904-20.841 17.083 6.869-4.82 18.504s3.099 3.365 5.604 6.208c1.119 1.206 2.165 2.478 3.133 3.809.669 1.263.341 4.239-.699 4.15z"/>
                            <path fill="#263238" d="M28.543 164.998c-1.044-.084-27.82-11.737-28.537-12.802-.089-.12.885-2.567 2.332-5.897 6.041 4.266 22.784 14.074 23.9 12.895.442-.47.278-1.286-.111-2.138 1.118 1.207 2.165 2.479 3.133 3.81.65 1.245.323 4.22-.717 4.132z"/>
                            <path fill="#37474F" d="M.417 144.153l21.408 6.651s10.453-36.738 11.254-45.367c.793-8.553 1.558-26.029 1.9-38.706 0 0 3.575-2.12 4.482-3.277.908-1.157 1.722-5.321 3.51-9.312H16.779c-6.258 12.18-1.549 17.6-1.549 20.256 0 12.823-1.934 29.847-2.549 32.37C11.398 112.027.417 144.153.417 144.153z"/>
                            <path fill="#263238" d="M21.776 146.113c-.536-.222-1.142-.36-1.7-.532-.632-.191-1.27-.369-1.898-.564-1.213-.377-2.434-.736-3.656-1.082-2.464-.703-4.945-1.35-7.444-1.942l-2.062-.474c-.73-.169-1.479-.297-2.213-.492-.058 0-.071.048 0 .066 1.248.328 2.478.776 3.713 1.157 1.235.382 2.439.723 3.66 1.073 2.465.697 4.952 1.33 7.449 1.912.69.155 1.372.328 2.058.492l1.102.244c.327.075.646.182.978.23.016.003.031-.004.041-.016.01-.013.013-.03.007-.044-.006-.015-.02-.026-.035-.028zM40.072 63.166c-1.25.575-2.436 1.28-3.54 2.102-1.173.807-2.253 1.733-3.382 2.598-.044.035 0 .106.044.075 1.191-.762 2.44-1.432 3.616-2.217 1.182-.718 2.296-1.543 3.329-2.465.03-.036-.01-.115-.067-.093z"/>
                            <path fill="#263238" d="M40.236 55.774c-.15.816-.35 1.627-.527 2.439-.177.811-.287 1.538-.487 2.292-.164.73-.534 1.396-1.066 1.92-.297.28-.629.523-.947.78-.169.138-.354.267-.531.409.022-.111.04-.218.057-.333.058-.306.11-.616.16-.927.115-.687.225-1.379.331-2.066.208-1.357.399-2.727.682-4.07.006-.025-.009-.05-.033-.056-.025-.006-.05.009-.056.033-.336 1.33-.708 2.66-1 3.99-.146.657-.66 3.903-.681 4.134-.022.23-.045.474-.053.714-.03.243-.03.488 0 .731 0 .058.088.049.11 0 .1-.225.17-.462.208-.705.058-.23.11-.465.15-.7 0-.085.027-.173.04-.262.32-.195.616-.444.917-.665.3-.222.646-.444.951-.719.563-.475.969-1.11 1.164-1.822.197-.766.326-1.548.385-2.337.102-.922.177-1.849.306-2.767.013-.013-.071-.058-.08-.013zM39.687 20.415c-.42 5.21-.943 10.567-2.155 15.657-.947 3.965-3.098 7.046-7.391 7.459-3.983.381-9.494-.444-12.415-3.463-1.363-1.406-1.66-3.17-1.3-5.05.5-2.613 4.558-16.749 5.793-21.166.752-2.687 1.495-5.414 2.717-7.941C27.494.59 30.246 1.033 30.628.967c.358-.169 2.589-.816 5.457.55 1.526.713 2.675 2.046 3.16 3.662 1.522 4.754.85 10.358.442 15.236z"/>
                            <path fill="#263238" d="M29.68 1.618c-3.51 1.091-4.793 4.594-6.032 7.716-1.726 4.35-3.381 8.731-4.824 13.187-.69 2.142-1.328 4.302-1.916 6.474-.554 2.085-1.275 4.288-1.425 6.448-.248 3.547 2.761 5.622 5.824 6.558.063.02.132-.014.153-.078.02-.063-.014-.132-.078-.153-1.735-.598-3.483-1.33-4.63-2.85-1.473-1.934-.969-4.125-.468-6.306.858-3.716 1.925-7.374 3.098-10.993 1.172-3.618 2.527-7.2 3.908-10.753 1.327-3.383 2.553-7.906 6.382-9.192.057 0 .044-.07.008-.058zM40.223 9.165c-.257-2.789-1.302-5.618-4.032-6.793 3.514 1.676 3.859 5.822 3.886 9.246.03 3.61-.073 7.213-.306 10.81-.221 3.463-.522 6.944-1.058 10.372-.58 3.698-1.726 7.095-4.328 9.84-.016.014-.023.035-.018.056.004.021.02.038.04.045.02.006.042.002.058-.013 2.491-2.177 3.673-5.485 4.28-8.65.731-4.204 1.185-8.45 1.358-12.714.23-4.013.491-8.159.12-12.199z"/>
                            <path fill="#F7A9A0" d="M29.472 21.125c.169.443 2.749 3.148 4.838 2.78.677-.124.177-3.871.177-3.871l.026-.284.363-3.99-4.926-2.333-.703-.302s-.031 1.1-.049 2.466v.195c-.004.075-.004.15 0 .226v1.592c.012 1.178.103 2.355.274 3.52z"/>
                            <path fill="#263238" d="M29.198 15.59c1.075 2.101 3.017 3.622 5.311 4.16l.363-3.99-4.922-2.333-.703-.302s-.031 1.1-.049 2.466z"/>
                            <path fill="#F7A9A0" d="M39.94 9.884c.557 7.006-3.568 8.132-5.077 8.252-1.372.106-6.05.301-7.325-6.616-1.274-6.917 1.802-9.4 4.922-9.8 3.12-.399 6.926 1.153 7.48 8.164z"/>
                            <path fill="#263238" d="M38.762 8.394c-.16-.024-.318-.056-.473-.098-.173-.01-.338-.077-.47-.19-.068-.09-.068-.216 0-.306.161-.156.392-.213.607-.151.225.028.431.143.575.32.064.084.072.198.02.29-.052.093-.154.146-.259.135zM34.106 8.491c.164-.022.31-.066.474-.102.164-.018.32-.088.442-.2.07-.089.07-.215 0-.305-.163-.155-.396-.209-.61-.142-.223.036-.425.153-.567.328-.066.088-.07.207-.013.3.058.094.167.142.274.121zM35.2 10.26s-.036 0-.036.04c.03.48 0 1.034-.443 1.207v.026c.54-.102.585-.824.478-1.272z"/>
                            <path fill="#263238" d="M34.757 9.773c-.77-.031-.78 1.512-.067 1.543.713.031.713-1.516.067-1.543z"/>
                            <path fill="#263238" d="M34.456 9.853c-.137.088-.27.24-.443.257-.172.018-.327-.146-.442-.302h-.027c0 .293.102.6.443.643.34.045.5-.217.575-.514-.004-.035-.053-.12-.106-.084zM37.855 10.154s.035 0 .035.04c-.022.48.031 1.033.465 1.197v.027c-.531-.08-.598-.816-.5-1.264z"/>
                            <path fill="#263238" d="M38.289 9.658c.765-.045.805 1.498.093 1.543-.713.044-.74-1.503-.093-1.543z"/>
                            <path fill="#263238" d="M38.612 9.755c.124.076.247.222.394.23.146.01.287-.163.393-.327h.023c0 .292-.076.603-.354.665-.28.062-.443-.19-.532-.48-.013-.039.027-.123.076-.088zM35.164 14.048c.11.12.217.279.39.301.177.004.353-.028.517-.093-.15.183-.387.27-.62.226-.198-.06-.338-.236-.353-.443.017 0 .053-.01.066.009zM37.156 12.318s.101.714.101 1.051c0 .036-.08.049-.194.058-.589.111-1.19-.116-1.558-.59-.014-.015-.013-.037.002-.051.015-.013.037-.012.05.002.43.293.943.438 1.461.413.022-.093-.216-1.22-.163-1.224.261.02.519.077.765.168-.168-1.494-.575-2.948-.726-4.434 0-.024.02-.044.045-.044.024 0 .044.02.044.044.485 1.546.816 3.137.987 4.75.013.15-.682-.098-.814-.143z"/>
                            <path fill="#263238" d="M37.696 10.62c-.107-1.144.42-2.129 1.172-2.217.753-.089 1.456.798 1.563 1.942.106 1.144-.443 2.128-1.173 2.217-.73.089-1.456-.798-1.562-1.942zm.278-.027c.093.99.655 1.747 1.257 1.694.602-.053 1.018-.909.925-1.898-.093-.989-.66-1.747-1.261-1.694-.602.054-1.014.91-.92 1.898zM32.495 11.112c-.026-1.057.794-1.941 1.848-1.993 1.054-.051 1.956.75 2.032 1.804.077 1.054-.7 1.977-1.751 2.078-1.107.063-2.058-.78-2.129-1.889zm.279-.026c.157.888.992 1.49 1.883 1.358.89-.132 1.515-.951 1.408-1.848-.107-.896-.907-1.544-1.804-1.462-.948.129-1.613 1.002-1.487 1.952z"/>
                            <path fill="#263238" d="M36.248 10.567c1-.444 1.5-.164 1.505-.16l.15-.235c-.022 0-.615-.39-1.77.142l.115.253zM32.606 10.917l.026-.28c-.185 0-4.478-.398-4.939-.38-.46.017-1.553.758-1.673.842l.16.23c.454-.344.963-.61 1.504-.789h.054c.336.005 3.341.24 4.868.377z"/>
                            <path fill="#263238" d="M27.738 11.019c.756-.044 2.73-2.142 2.792-5.813 0 0-.283 3.294-.526 3.778-.244.483 1.102-1.18 1.19-4.137.932.666 1.955 1.196 3.036 1.574 1.394.39 2.248.377 2.35.275.102-.102-1.956-.75-2.514-1.388 0 0 3.718 1.725 5.426 1.858.2 0 .443-4.067-2.213-5.796-2.655-1.73-6.837.142-7.966 1.233 0 0-1.328.186-2.757 2.15-1.43 1.965.367 6.315 1.182 6.266z"/>
                            <path fill="#F7A9A0" d="M28.693 11.972s-1.518-2.217-2.513-1.667c-.996.55.128 3.73 1.292 4.173.294.135.63.145.932.028.3-.118.541-.354.666-.654l-.377-1.88z"/>
                            <path fill="#263238" d="M26.525 11.21c.814.341 1.24 1.104 1.536 1.893-.094-.168-.258-.285-.446-.321-.189-.036-.384.013-.533.135 0 0 0 .049.023.044.295-.093.617.012.8.262.15.203.278.421.381.652.036.075.168.035.142-.05.018-1.032-.783-2.5-1.903-2.615z"/>
                            <path fill="#FFF" d="M28.45 14.318c.002.209-.122.397-.314.478-.191.081-.413.039-.56-.108-.149-.147-.193-.369-.114-.561.08-.193.267-.319.475-.319.281 0 .51.228.513.51z"/>
                            <path fill="#361D87" d="M44.113 56.505s-23.572.35-29.423-.062c0 0 4.771-27.093 11.065-33.94.234-.257.482-.5.743-.731.385-.324.332-2.909.514-3.104.181-.195 7.829.812 7.926.998.098.186.492 2.625.492 2.625 1.734 2.217 7.315 9.88 7.966 13.04.65 3.163-1.399 6.652-1.399 6.652l2.116 14.522z"/>
                            <path fill="#F7A9A0" d="M23.953 27.337c-1.394 6.731-.566 21.284 2.656 23.945 5.31 4.354 18.075 5.627 21.638 6.048 1.535.182 4.594-9.888 3.54-11.187-1.053-1.3-16.743-3.322-17.49-3.991-.518-.48-2.957-9.272-5.06-14.23-2.827-6.709-4.775-3.068-5.284-.585z"/>
                            <path fill="#F7A9A0" d="M49.132 45.331s4.709-.049 7.79.067c1.72.062 4.655.443 5.899 1.064 1.854.936 9.024 6.035 7.824 7.804-1.084 1.6-3.217-.505-3.217-.505s2.55 2.08.987 3.339c-1.562 1.259-4.09-1.747-4.09-1.747s2.86 2.022 1.063 3.201c-1.558 1.029-4.829-2.128-4.829-2.128s3.235 1.773 1.74 3.002c-1.651 1.33-7.148-2.785-7.148-2.785-3.94.887-6.422.887-9.316.412-.532-.088 3.297-11.724 3.297-11.724z"/>
                            <path fill="#263238" d="M65.113 56.053l-.642-.678c-.397-.45-.82-.876-1.265-1.277-.443-.382-.885-.745-1.372-1.091-.487-.346-1.036-.692-1.523-1.069-.04-.03-.084.027-.04.053.484.374.948.772 1.39 1.193.443.4.885.807 1.328 1.21.442.404.885.763 1.328 1.15.216.19.442.39.641.589.189.205.395.393.615.563.023 0 .05 0 .036-.035-.143-.22-.31-.424-.496-.608zM67.95 54.204c-.71-.86-1.479-1.668-2.301-2.421-.833-.748-1.739-1.409-2.704-1.973-.036 0-.071.026-.045.053.832.75 1.678 1.485 2.523 2.217.412.36 2.235 2.053 2.447 2.217.05.027.111-.044.08-.093zM62.489 57.862c-.689-.793-1.428-1.541-2.213-2.239-.864-.637-1.774-1.21-2.722-1.712-.035 0-.07.036-.04.058.859.639 1.726 1.255 2.554 1.933.407.333 1.938 1.743 2.354 2.022.045.027.093-.026.067-.062z"/>
                            <path fill="#361D87" d="M44.715 57.747l5.616-13.12s-15.384-2.55-15.857-2.861c-.474-.31-3.28-10.545-5.081-14.562-1.802-4.017-4.895-6.376-6.09 2.248-1.195 8.625.535 19.156 2.266 21.347 2.098 2.651 10.405 6.008 19.146 6.948z"/>
                            <path fill="#263238" d="M36.81 56.089c-2.301-.626-4.545-1.716-6.745-2.66-1.89-.795-3.819-1.775-4.868-3.633-.489-.946-.83-1.96-1.013-3.01-.244-1.171-.443-2.355-.611-3.548-.204-1.36-.387-2.722-.549-4.088-.08-.7-.16-1.401-.23-2.102-.07-.7-.2-1.401-.226-2.106 0-.02-.016-.036-.035-.036-.02 0-.036.016-.036.036.05.647 0 1.299.053 1.95 0 .444.054.852.085 1.278l-.124-.27c-.137-.311-.24-.635-.31-.967 0-.04-.075-.022-.067 0 .08.332.16.67.253.997.044.16.097.32.16.48.036.107.079.212.127.314.107 1.274.244 2.542.412 3.805.164 1.224.354 2.439.57 3.654.161 1.074.447 2.126.85 3.135.403.95 1.017 1.795 1.798 2.47.808.664 1.701 1.22 2.655 1.649 2.157.998 4.387 1.831 6.67 2.492 2.73.86 3.562.803 1.181.16zM42.586 43.26c-.567-.075-7.263-1.485-7.524-1.56-.266-.082-.47-.297-.535-.568-.208-.541-.39-1.095-.585-1.64-.336-.94-.678-1.876-1.026-2.808 0-.208-.04-.443-.062-.625s-.067-.496-.107-.745c-.088-.536-.247-1.064-.314-1.6 0-.054-.084-.036-.07 0 .134.528.214 1.069.238 1.614.023.212.036.443.05.642-.204-.545-.412-1.09-.63-1.631-.252-.63-.54-1.264-.743-1.911 0-.045-.08-.023-.066 0 .23.58.394 1.197.575 1.773.182.577.376 1.197.571 1.796.38 1.175.783 2.341 1.19 3.512.195.563.386 1.135.594 1.694.116.426.456.754.885.856 1.164.315 6.855 1.259 7.546 1.286.07.044.088-.076.013-.085zM47.485 44.83c-.885 1.885-1.77 3.756-2.571 5.68-.81 1.894-1.521 3.828-2.129 5.796-.007.018.002.04.02.046.018.008.04-.001.047-.02.885-1.849 1.66-3.769 2.443-5.67.783-1.903 1.495-3.859 2.288-5.765.04-.08-.062-.142-.098-.067z"/>
                            <path fill="#F7A9A0" d="M64.029 43.331c-.677.382-4.554-.691-6.125.488-1.04.78-2.058 2.66-2.28 5.113-.225 2.532 1.77 2.403 2.51 1.33.9-1.413 1.686-2.895 2.35-4.434.71.142 1.411.33 2.098.563l1.447-3.06zM59.276 52.169c-1.2-1.26-7.192 3.356-5.311 5.454 1.88 2.097 6.665-4.026 5.31-5.454z"/>
                            <path fill="#F7A9A0" d="M61.276 53.974c-1.2-1.26-7.192 3.356-5.31 5.454 1.88 2.097 6.664-4.027 5.31-5.454z"/>
                            <path fill="#F7A9A0" d="M62.852 54.612c-1.262-.98-6.068 4.053-4.054 5.694 2.013 1.64 5.483-4.585 4.054-5.694z"/>
                            <path fill="#F7A9A0" d="M64.564 54.887c-1.447-.554-4.496 5.476-2.164 6.43 2.333.953 3.806-5.823 2.164-6.43z"/>
                            <path fill="#263238" d="M59.099 54.244c-.333.223-.647.474-.939.75-.323.283-.641.571-.934.886-.284.298-.552.612-.8.94-.262.355-.479.74-.744 1.087-.013.008-.02.024-.015.04.004.015.018.025.034.025.016 0 .03-.01.034-.025.262-.335.548-.65.854-.945.288-.301.558-.616.845-.922.288-.306.545-.603.828-.887.283-.284.602-.577.885-.887.014-.04-.017-.08-.048-.062zM61.48 54.807c-.257.395-1.155 1.925-1.43 2.31-.274.386-.562.772-.854 1.149-.292.377-.575.79-.907 1.144-.027.03.022.08.053.049.332-.355.695-.679 1.009-1.051.314-.373.602-.75.885-1.144.492-.782.935-1.594 1.328-2.43 0-.04-.062-.062-.084-.027zM63.144 55.667c-.266.586-.496 1.193-.766 1.774-.133.288-.27.577-.403.887l-.186.421c-.058.168-.132.33-.22.484-.027.035.043.075.061.026.089-.175.193-.343.31-.501.075-.133.155-.266.226-.399.15-.296.287-.584.411-.865.259-.574.475-1.167.646-1.773.015-.022.01-.052-.013-.067-.022-.015-.052-.009-.066.013z"/>
                        </g>
                    </g>
                    <path fill="#06976D" d="M105.788 11.75c-.37-.405-.505-.977-.303-1.516l.337-.875c.269-.74-.068-1.549-.775-1.852-1.01-.437-1.683-1.447-1.717-2.558v-.034c0-.774-.64-1.414-1.414-1.414h-.942c-.539 0-1.044-.37-1.28-.841l-.37-.876c-.303-.707-1.11-1.043-1.851-.774-1.044.404-2.222.168-3.03-.606-.573-.539-1.448-.539-1.987 0l-.033.034c-.808.774-1.987 1.01-3.03.606h-.034c-.707-.27-1.549.067-1.852.774l-.37.875c-.236.505-.74.842-1.28.842h-.942c-.774.034-1.414.64-1.414 1.414v.034c-.033 1.11-.707 2.12-1.717 2.558-.707.303-1.043 1.111-.774 1.852l.337.875c.235.539.1 1.111-.303 1.515l-.64.673c-.539.573-.539 1.448 0 1.987l.673.707c.404.404.505.976.303 1.48l-.336.91c-.27.707.067 1.515.774 1.852h.034c1.043.437 1.683 1.447 1.717 2.592v.033c0 .775.64 1.414 1.414 1.414h.033c1.111 0 2.121.674 2.559 1.717v.034c.303.707 1.11 1.044 1.851.774h.034c1.044-.404 2.222-.168 3.03.606l.034.034c.572.539 1.447.539 1.986 0 .808-.774 1.986-1.01 3.03-.606.74.27 1.549-.067 1.852-.774v-.034c.47-1.01 1.447-1.683 2.592-1.717h.033c.775 0 1.414-.64 1.414-1.414v-.034c.034-1.11.674-2.12 1.717-2.558h.034c.707-.303 1.044-1.111.774-1.852l-.336-.909c-.202-.505-.101-1.11.303-1.481l.673-.707c.539-.572.539-1.448 0-1.986l-.808-.775zM92.813 18L89 14.451l1.518-1.4 2.329 2.147L98.482 10 100 11.4 92.813 18z" transform="translate(-799 -312) translate(445 277) translate(354 35)"/>
                </g>
            </g>
        </g>
    </g>
</svg>
