<svg xmlns="http://www.w3.org/2000/svg" width="23" height="23" viewBox="0 0 23 23">
    <g fill="none" fill-rule="evenodd">
        <g>
            <g>
                <path d="M0 0L23 0 23 23 0 23z" transform="translate(-148 -1141) translate(148 1141)"/>
                <path fill="#E87D15" fill-rule="nonzero" d="M6.268 4.792c.057.853.2 1.686.43 2.482l-1.15 1.15c-.392-1.15-.641-2.367-.728-3.632h1.447m9.45 11.519c.814.23 1.648.374 2.491.431v1.428c-1.265-.086-2.482-.335-3.641-.719l1.15-1.14M7.187 2.875H3.833c-.527 0-.958.431-.958.958 0 9 7.293 16.292 16.292 16.292.527 0 .958-.431.958-.958v-3.345c0-.527-.431-.958-.958-.958-1.189 0-2.348-.192-3.422-.546-.095-.039-.2-.048-.297-.048-.249 0-.488.095-.68.277l-2.108 2.109c-2.713-1.39-4.936-3.603-6.316-6.316l2.109-2.108c.268-.268.345-.642.24-.977-.355-1.074-.547-2.224-.547-3.422 0-.527-.431-.958-.959-.958z" transform="translate(-148 -1141) translate(148 1141)"/>
                <g fill="#E87D15" stroke="#E87D15" stroke-width=".5">
                    <path d="M9.2.863C9.2.388 8.786 0 8.28 0H.92C.414 0 0 .388 0 .863v5.175c0 .474.414.862.92.862h7.36c.506 0 .92-.388.92-.863V.862zm-.92 0L4.6 3.019.92.862h7.36zm0 5.175H.92V1.724L4.6 3.881l3.68-2.156v4.313z" transform="translate(-148 -1141) translate(148 1141) translate(11.5 4.6)"/>
                </g>
            </g>
        </g>
    </g>
</svg>
