<svg xmlns="http://www.w3.org/2000/svg" width="13" height="24" viewBox="0 0 13 24">
    <g fill="none" fill-rule="evenodd">
        <g fill="#E87D15" fill-rule="nonzero">
            <g>
                <path d="M13 10.116V0H0v10.116c0 .42.234.816.637 1.032l5.434 3.012-1.287 2.808-4.433.348 3.367 2.688L2.691 24 6.5 21.876 10.309 24l-1.014-3.996 3.367-2.688-4.433-.348-1.287-2.808 5.434-3.012c.39-.216.624-.6.624-1.032zm-7.8 1.027L2.6 9.688V2.571h2.6v8.572zm5.2-1.455l-2.6 1.455V2.57h2.6v7.117z" transform="translate(-148 -929) translate(148 929)"/>
            </g>
        </g>
    </g>
</svg>
