<?xml version="1.0" encoding="UTF-8"?>
<svg width="16px" height="16px" viewBox="0 0 16 16" version="1.1" xmlns="http://www.w3.org/2000/svg" xmlns:xlink="http://www.w3.org/1999/xlink">
    <title>Tick@2x</title>
    <g id="Page-1" stroke="none" stroke-width="1" fill="none" fill-rule="evenodd">
        <g id="Tick">
            <rect id="Rectangle" fill="#06971D" x="0" y="0" width="16" height="16" rx="2.66666667"></rect>
            <path d="M6.2795622,9.19121843 L5.29429323,8.17832207 C5.10174926,7.98037908 4.78519703,7.97600231 4.58725403,8.16854628 C4.58394989,8.1717603 4.58069036,8.17501985 4.57747636,8.17832401 L4.33944857,8.42302885 C4.15052882,8.6172481 4.15067992,8.92660375 4.33978932,9.12063835 L5.94191583,10.764491 C6.3273882,11.1600027 6.96050087,11.1681411 7.35601256,10.7826688 C7.36238336,10.7764597 7.36867103,10.7701658 7.37487388,10.7637889 L12.6608915,5.32945863 C12.8496755,5.13537789 12.849678,4.82629088 12.6608972,4.63220705 L12.404373,4.36847672 C12.2118339,4.17052897 11.8952818,4.16614439 11.6973341,4.35868347 C11.6940271,4.36190008 11.6907648,4.3651623 11.6875481,4.3684692 L6.99637849,9.1912171 C6.80383525,9.38916081 6.48728303,9.39353875 6.28933932,9.20099551 C6.28603537,9.1977817 6.28277602,9.19452236 6.2795622,9.19121843 Z" id="Path" stroke="#FFFFFF" stroke-width="0.25" fill="#FFFFFF" fill-rule="nonzero"></path>
        </g>
    </g>
</svg>