<svg xmlns="http://www.w3.org/2000/svg" width="24" height="25" viewBox="0 0 24 25">
    <path fill="#153E42" d="M13.986 3.91c.346 0 .63.256.676.588l.006.093v2.045h4.773c.376 0 .682.306.682.682V21.41c0 .377-.306.682-.682.682h-2.727c-.377 0-.682-.305-.682-.682v-2.5h-1.818v2.5c0 .377-.306.682-.682.682h-2.727c-.377 0-.682-.305-.682-.682V7.32c0-.377.305-.683.682-.683h2.5V5.273H5.123v16.136c0 .377-.306.682-.682.682-.345 0-.63-.257-.676-.59l-.006-.092V4.591c0-.345.257-.63.59-.676l.092-.006h9.545zM18.76 8h-7.273v12.727h1.364v-2.5c0-.376.305-.682.682-.682h3.182c.376 0 .681.306.681.682v2.5h1.364V8zM8.305 17.545v1.819H6.486v-1.819h1.819zm6.363-2.727v1.818H12.85v-1.818h1.818zm2.727 0v1.818h-1.818v-1.818h1.818zm-9.09 0v1.818H6.486v-1.818h1.819zm6.363-2.727v1.818H12.85v-1.818h1.818zm2.727 0v1.818h-1.818v-1.818h1.818zm-9.09 0v1.818H6.486v-1.818h1.819zm0-2.727v1.818H6.486V9.364h1.819zm6.363 0v1.818H12.85V9.364h1.818zm2.727 0v1.818h-1.818V9.364h1.818zm-9.09-2.728v1.819H6.486V6.636h1.819z"/>
</svg>
