<svg xmlns="http://www.w3.org/2000/svg" width="234" height="192" viewBox="0 0 234 192">
    <g fill="none" fill-rule="evenodd">
        <g>
            <g fill-rule="nonzero" transform="translate(0 18)">
                <path fill="#EBEBEB" d="M0 152.85H234V153.85H0zM195.053 160.361H210.553V161.361H195.053zM150.944 161.631H155.011V162.631H150.944zM185.604 156.029H194.585V157.029H185.604zM24.551 156.813H44.763999999999996V157.813H24.551zM48.934 156.813H51.896V157.813H48.934zM61.528 158.783H105.37V159.783H61.528zM110.916 132.028H20.55c-1.474-.003-2.668-1.196-2.668-2.666V2.642C17.895 1.182 19.085.002 20.55 0h90.366c1.476 0 2.672 1.194 2.672 2.666v126.696c0 1.472-1.196 2.666-2.672 2.666zM20.55.093C19.14.096 18 1.236 18 2.643v126.719c0 1.406 1.14 2.546 2.55 2.549h90.366c1.41-.003 2.553-1.142 2.555-2.55V2.643c-.002-1.406-1.145-2.546-2.555-2.549H20.55zM212.15 132.028h-90.372c-1.475-.003-2.67-1.195-2.672-2.666V2.642c.015-1.462 1.207-2.64 2.672-2.642h90.371c1.463.005 2.65 1.183 2.663 2.642v126.72c0 1.469-1.19 2.66-2.663 2.666zM121.777.093c-1.41.003-2.552 1.143-2.555 2.55v126.719c.003 1.407 1.145 2.546 2.555 2.549h90.371c1.41-.003 2.553-1.142 2.555-2.55V2.643c-.002-1.406-1.145-2.546-2.555-2.549h-90.37z"/>
                <circle cx="168.166" cy="90.005" r="17.72" fill="#F0F0F0" transform="rotate(-45 168.166 90.005)"/>
                <path fill="#F0F0F0" d="M33.088 58.824H81.67s-.702-3.837-9.693-3.618c1.783-5.602-3.248-11.718-14.597-11.952-11.349-.233-7.361 8.87-7.361 8.87s-19.076-3.267-13.305 3.512c-9.454.359-11.321 1.564-3.627 3.188z"/>
                <path fill="#FAFAFA" d="M159.2 82.825c1.104-5.513-8.34-11.554-25.74-11.788-17.4-.233-8.672 8.763-8.672 8.763s-30.05-3.268-19.282 3.46c-14.33.322-16.848 1.512-4.62 3.137h74.146s-2.18-3.763-15.832-3.572z"/>
                <path fill="#F5F5F5" d="M149.559 41.518h50.338s11.232-6.434-2.083-7.265c2.289-5.5-3.332-14.827-22.983-15.042-19.652-.215-9.463 12.657-9.463 12.657s-29.952-8.614-19.446 5.084c-4.586 0-20.905 4.566 3.637 4.566zM44.137 108.139h22.619s5.05-2.89-.936-3.269c1.03-2.47-1.498-6.662-10.33-6.76-8.83-.098-4.249 5.687-4.249 5.687s-13.46-3.866-8.742 2.287c-2.054.005-9.393 2.055 1.638 2.055z"/>
                <path fill="#F0F0F0" d="M43.117 20.038s-6.384-4.08-10.825 1.722c3.646-3.604 10.577.028 10.577.028s7.956-3.595 10.577 0c-2.822-5.793-10.33-1.75-10.33-1.75zM77.337 73.764s-3.838-2.456-6.515 1.036c2.2-2.17 6.37 0 6.37 0s4.774-2.166 6.37 0c-1.704-3.455-6.225-1.036-6.225-1.036z"/>
                <path fill="#F5F5F5" d="M147.312 16.872s-1.918-1.228-3.276.518c1.1-1.087 3.187 0 3.187 0s2.387-1.078 3.183 0c-.833-1.736-3.094-.518-3.094-.518zM194.253 58.787s-1.924-1.228-3.276.518c1.095-1.083 3.182 0 3.182 0s2.387-1.083 3.183 0c-.833-1.737-3.09-.518-3.09-.518z"/>
            </g>
            <g fill="#F5F5F5" fill-rule="nonzero" transform="translate(26 181)">
                <ellipse cx="91" cy="5.61" rx="90.948" ry="5.188"/>
            </g>
            <g fill-rule="nonzero" transform="rotate(-70 128.49 2.298)">
                <path fill="#407BFF" d="M39.997 22.186c1.594 9.364-5.844 13.974-13.081 11.65-4.93-1.59-9.812-.37-13.12 1.233-.268.122-.584.041-.763-.196-.18-.237-.174-.568.011-.8.557-.677 1.151-1.322 1.78-1.93.213-.204.258-.53.11-.786-.15-.256-.453-.373-.73-.282-2.879.892-7.121 1.727-11.214.75-.252-.06-.443-.268-.482-.527-.039-.26.082-.517.305-.65 4.088-2.457 10.325-8.913 16.17-11.01.296-.106.47-.418.407-.73-.062-.313-.342-.53-.655-.512-.922.053-1.84.167-2.747.341-.305.077-.62-.085-.738-.382-.117-.296-.002-.635.27-.794 8.195-5.166 22.44-7.334 24.477 4.625z"/>
                <path fill="#FFF" d="M37.545 21.364c1.593 9.363-5.845 13.974-13.082 11.65-4.93-1.59-9.811-.37-13.12 1.233-.268.122-.584.04-.763-.196-.179-.237-.174-.568.012-.8.556-.677 1.15-1.322 1.78-1.93.212-.205.258-.53.109-.786-.15-.256-.452-.373-.73-.282-2.879.892-7.121 1.727-11.214.75-.251-.06-.442-.268-.482-.528-.039-.259.082-.516.305-.649 4.088-2.457 10.325-8.913 16.17-11.01.296-.106.47-.418.407-.73-.062-.313-.341-.531-.655-.513-.922.054-1.84.168-2.747.342-.305.077-.62-.086-.738-.382-.117-.296-.002-.635.27-.794 8.196-5.166 22.44-7.334 24.478 4.625z" opacity=".7"/>
                <path fill="#000" d="M29.943 35.852l-3.13-24.467c-.032-.267.053-.534.234-.73.18-.195.437-.3.7-.286l15.185 1.101c.42.03.763.358.817.783l2.336 18.4c.044.42-.204.814-.598.949l-14.404 4.995c-.25.077-.52.04-.74-.104-.22-.144-.366-.378-.4-.64z"/>
                <path fill="#263238" d="M26.92 31.26l-1.868-14.676c-.032-.254.044-.51.209-.704.165-.194.403-.307.655-.312l17.436-.332c.453-.008.84.331.897.788l1.402 10.81c.055.456-.234.882-.673.992l-16.941 4.193c-.249.068-.514.024-.728-.122-.214-.145-.356-.377-.389-.637z"/>
                <path fill="#407BFF" d="M93.808 29.402L103.044 29.379 103.043 29.863 93.807 29.886z" transform="rotate(-9.35 98.426 29.633)"/>
                <path fill="#407BFF" d="M88.806 30.777L91.521 30.771 91.52 31.254 88.805 31.261z" transform="rotate(-9.35 90.163 31.016)"/>
                <path fill="#ED5B5B" d="M129.92 10.241S117.358-1.708 99.36.66L42.676 6.1c-2.1.201-4.03 1.26-5.346 2.933-1.316 1.674-1.906 3.819-1.634 5.943l1.924 15.084c.271 2.124 1.38 4.045 3.074 5.323 1.693 1.277 3.825 1.8 5.906 1.451l56.182-9.416c17.992-2.367 27.14-17.177 27.14-17.177z"/>
                <path fill="#FFF" d="M129.92 10.241c-2.749 4.04-6.189 7.547-10.156 10.356-.968.687-2.22.81-3.299.325-1.08-.485-1.831-1.508-1.98-2.697l-1.496-11.74c-.151-1.19.321-2.372 1.246-3.117.924-.746 2.166-.945 3.272-.527 4.541 1.691 8.746 4.198 12.414 7.4z" opacity=".3"/>
                <ellipse cx="90.239" cy="15.471" fill="#FFF" rx="9.8" ry="9.653" transform="rotate(-87.44 90.239 15.47)"/>
                <path fill="#276EF1" d="M96.735 15.995c-.253 3.115-2.61 5.63-5.663 6.039-.093 0-.191.024-.29.028-.413.04-.829.04-1.242 0-.145 0-.294-.033-.435-.056l-.313-.062c-2.664-.621-4.668-2.86-5.022-5.612-.038-.315-.055-.631-.051-.949.17-3.385 2.825-6.095 6.158-6.29 3.333-.193 6.275 2.193 6.825 5.536.059.453.07.911.033 1.366z" opacity=".3"/>
            </g>
            <g fill-rule="nonzero">
                <path fill="#CF7A64" d="M27.926 109.542L30.89 109.255 31.308 102.637 28.343 102.924zM10.906 111.261L13.823 110.979 14.444 104.245 11.527 104.528z" transform="translate(56 78)"/>
                <path fill="#263238" d="M13.989 110.339l-3.283.32c-.117.012-.21.103-.223.218l-.251 2.585c-.01.126.037.25.128.339.091.09.218.135.346.125 1.143-.13 1.689-.25 3.131-.39.887-.087 2.078-.166 3.32-.287 1.243-.12 1.239-1.316.722-1.39-2.31-.26-2.595-.853-3.397-1.413-.146-.092-.32-.13-.493-.107zM30.976 108.657l-3.188.315c-.12.009-.214.101-.223.218l-.251 2.586c-.012.126.034.25.126.34.091.09.219.135.348.123 1.148-.13 2.799-.361 4.245-.5 1.694-.167 1.703-.08 3.686-.274 1.196-.12 1.376-1.335.864-1.39-2.349-.264-2.756-.274-4.886-1.265-.223-.112-.471-.165-.721-.153z" transform="translate(56 78)"/>
                <path fill="#FFB573" d="M21.977 16.655c.74.065 1.575.144 2.372.18.797.038 1.594.066 2.372.066.75-.002 1.499-.045 2.243-.13.591-.06 1.17-.205 1.718-.431l-.873 1.307c0 .153.033.153 0 .06-.04-.142-.098-.279-.171-.408-.222-.395-.485-.768-.783-1.112-.683-.8-1.416-1.556-2.196-2.266-.797-.746-1.637-1.469-2.486-2.187-.849-.719-1.731-1.432-2.585-2.123l1.139-1.733c1.057.528 2.054 1.103 3.06 1.7 1.005.599 1.972 1.247 2.93 1.942.99.703 1.924 1.478 2.795 2.318.483.476.92.996 1.304 1.552.236.343.43.711.579 1.098.214.543.29 1.128.218 1.706l-.104.815-.778.505c-.937.583-1.981.981-3.074 1.173-.938.188-1.89.302-2.846.343-.92.05-1.827.041-2.723 0-.897-.042-1.765-.107-2.713-.246l.602-4.129z" transform="translate(56 78)"/>
                <path fill="#FFB573" d="M22.77 7.878l-1.746-2.136-1.31 3.063s1.585 1.821 3.264.927l-.209-1.854z" transform="translate(56 78)"/>
                <path fill="#FFB573" d="M17.438 7.164L19.77 8.78 21.024 5.742 18.142 5.285z" transform="translate(56 78)"/>
                <path fill="#263238" d="M15.146 5.992l2.657-1.075c.087-.045.19-.05.28-.014.092.036.162.108.194.2l1.712 5.333c.043.194-.063.39-.25.464l-2.657 1.075c-.087.044-.19.049-.281.013-.091-.035-.162-.108-.194-.199l-1.712-5.301c-.061-.204.048-.42.251-.496z" transform="translate(56 78)"/>
                <path fill="#FFB130" d="M16.712 21.743c1.93 2.28 14.555-1.424 14.555-1.424l-3.159-4.408s-4.22.188-8.18.068c-4.06-.144-5.332 3.267-3.216 5.764z" transform="translate(56 78)"/>
                <path fill="#000" d="M31.308 102.642L31.089 106.052 28.129 106.34 28.343 102.929zM11.522 104.532L14.444 104.245 14.122 107.716 11.204 108.003z" opacity=".2" transform="translate(56 78)"/>
                <path fill="#FFB130" d="M22.793 17.41c1.148 2.91 3.966 11.586 2.984 24.682L10.16 43.626c-.408-2.317-.475-15.056-4.213-25.84 1.689-.492 3.408-.878 5.147-1.154 2.2-.343 4.417-.561 6.641-.653 1.137-.002 2.272.061 3.401.19.746.08 1.384.558 1.656 1.241z" transform="translate(56 78)"/>
                <path fill="#000" d="M16.792 19.788l-.612.079c.062 5.097.138 6.487-4.572 11.251-.851.846-1.623 1.764-2.306 2.744.062.602.124 1.186.18 1.751 1.22-1.089 2.847-2.516 4.06-3.508 5.48-4.467 3.407-12.382 3.25-12.317zM9.691 20.172c.475 1.785.475 6.178-.664 11.359-.525-4.293-1.435-8.532-2.718-12.67 1.01-.227 2.917-.361 3.382 1.311z" opacity=".2" transform="translate(56 78)"/>
                <path fill="#FFB573" d="M11.185 10.496c.688 2.04 1.229 4.597-.09 6.136 0 0 1.13 2.025 5.1 1.636 3.624-.357 1.541-2.29 1.541-2.29-2.457-.32-2.699-3.202-2.49-4.86l-4.06-.622z" transform="translate(56 78)"/>
                <path fill="#263238" d="M16.365 18.073l.95.844c.066.06.097.149.08.236L17.2 20c-.02.096-.1.169-.199.18l-.925.135c-.087.013-.175-.018-.232-.083l-.636-.742c-.07-.088-.07-.212 0-.301L16 18.106c.043-.054.106-.088.176-.094.069-.006.137.016.19.061z" transform="translate(56 78)"/>
                <path fill="#002853" d="M16.071 18.045c-.398 1.012-.922 1.973-1.56 2.86 0 0-3.857-1.715-4.09-4.171-.008-.091.031-.18.105-.236.147-.112.413-.316.664-.52.06-.052.14-.076.219-.064.079.011.148.057.19.125.307.533 1.304 1.57 4.472 2.006zM16.209 18.018c.806.594 1.479 1.343 1.978 2.2.746-1.27.871-2.8.341-4.17-.033-.08-.103-.142-.19-.167-.165-.041-.474-.116-.791-.176-.086-.014-.173.013-.235.071-.063.058-.093.142-.083.226.163.82-.254 1.645-1.02 2.016z" transform="translate(56 78)"/>
                <path fill="#001443" d="M16.764 19.755c.152-.065 1.689 7.026-3.615 11.33-2.163 1.757-5.64 4.895-5.635 4.89.322-1.247 1.338-3.17 3.885-5.69 4.606-4.556 4.601-5.794 4.79-10.428l.575-.102z" transform="translate(56 78)"/>
                <path fill="#000" d="M15.246 11.122c-.17 1.16-.005 2.342.474 3.415-.377-.017-.75-.088-1.105-.213-1.423-.463-2.206-1.39-3.083-2.78-.1-.366-.21-.719-.323-1.062l4.037.64z" opacity=".2" transform="translate(56 78)"/>
                <path fill="#263238" d="M13.647 4.17c.565-4.36 3.847.256 2.937 2.424-.56 1.326-3.074-1.371-2.937-2.423z" transform="translate(56 78)"/>
                <path fill="#FFB573" d="M9.131 8.128c1.125 2.651 1.646 4.26 3.525 5.204 2.822 1.432 5.768-.885 5.465-3.795-.27-2.618-2.064-6.516-5.128-6.738-1.369-.11-2.695.493-3.488 1.588-.794 1.095-.936 2.517-.374 3.741z" transform="translate(56 78)"/>
                <path fill="#484848" d="M10.398 10.691c.731-.125 1.32-.656 1.508-1.358-.809-.317-1.51-.85-2.025-1.538 0 0 1.205-1.692 1.077-2.67 1.546 0 5.17-1.46 4.35-3.072C14.487.44 11.233-.361 9.335.779c-1.196.796-2.613 1.215-4.06 1.2.431.25.9.431 1.39.537-1.08 1.032-1.662 2.464-1.599 3.94.09 2.07-1.062 2.905-1.062 2.905s1.423.209 1.86-.403c-.195.676.976 3.05 3.552 3.378 2.884.366.982-1.645.982-1.645z" transform="translate(56 78)"/>
                <path fill="#FFB573" d="M9.217 11.96c1.067.464 1.897.622 2.447.307.55-.316.394-1.39-.308-2.007-.63-.542-1.874-1.057-2.595-.463-.72.593-.645 1.673.456 2.164z" transform="translate(56 78)"/>
                <path fill="#C9C9C9" d="M25.777 42.092s6.717 21.577 7.19 29.737c.523 8.93-.735 36.43-.735 36.43l-4.92 1.283s-1.407-27.124-2.745-35.864c-1.451-9.486-8.742-30.585-8.742-30.585l9.952-1.001z" transform="translate(56 78)"/>
                <path fill="#000" d="M21.152 52.264L20.322 57c1.162 3.832 2.324 7.915 3.173 11.46.254-5.494-.54-10.986-2.343-16.196z" opacity=".2" transform="translate(56 78)"/>
                <path fill="#C9C9C9" d="M20.236 42.634s2.187 19.292 1.423 27.62c-.849 9.115-6.129 40.078-6.129 40.078h-5.374s2.846-29.466 2.846-38.392c0-9.708-2.846-28.296-2.846-28.296l10.08-1.01z" transform="translate(56 78)"/>
                <path fill="#263238" d="M13.557 7.563c.076.222.261.361.403.315.143-.046.204-.264.124-.463-.08-.2-.256-.362-.403-.315-.148.046-.204.24-.124.463zM16.08 6.761c.077.223.262.362.404.315.142-.046.204-.264.123-.463-.08-.2-.256-.362-.403-.315-.147.046-.2.245-.123.463z" transform="translate(56 78)"/>
                <path fill="#C46D20" d="M15.317 7.127c.505.587 1.087 1.106 1.731 1.543-.231.318-.598.515-.996.538l-.735-2.08z" transform="translate(56 78)"/>
                <path fill="#263238" d="M15.493 10.112c.034-.015.05-.054.038-.088-.016-.034-.054-.052-.09-.042-.56.206-1.185.142-1.69-.172-.027-.026-.071-.026-.099 0-.025.028-.025.07 0 .098.542.36 1.23.435 1.84.204zM12.514 7.002c.04-.013.071-.044.085-.083.096-.33.351-.59.683-.7.036-.009.067-.031.085-.063.018-.032.022-.07.01-.104-.02-.072-.096-.115-.17-.097-.422.131-.748.457-.874.871-.017.05-.004.105.035.143.038.037.094.05.146.033zM16.901 5.52c.02-.009.039-.021.053-.038.05-.053.05-.136 0-.19-.328-.301-.782-.433-1.224-.357-.036.01-.065.033-.083.064-.018.032-.022.069-.012.103.009.036.032.066.064.084.032.019.07.023.107.014.345-.053.696.055.948.291.04.036.097.047.147.028z" transform="translate(56 78)"/>
                <path fill="#FFB573" d="M4.089 22.49l3.975 1.57s-3.273 9.51-2.566 10.798c.949 1.752 3.515 4.546 5.038 6.404-.14.7-.467 1.351-.95 1.887-3.196-1.483-8.234-6.14-8.495-7.925C.517 31.155 4.089 22.49 4.089 22.49z" transform="translate(56 78)"/>
                <path fill="#FFB130" d="M5.948 17.786C2.7 18.815 0 35.975 0 35.975l5.782-1.261c1.446-1.681 3.973-9.98 4.526-12.109.877-3.582-1.504-5.723-4.36-4.82z" transform="translate(56 78)"/>
                <path fill="#407BFF" d="M15.018 110.98c.199-.004.39-.095.541-.258.096-.128.133-.309.1-.48-.012-.102-.066-.19-.143-.227-.341-.168-1.214.677-1.314.773-.013.03-.013.066 0 .095.007.034.03.059.057.06.251.05.506.063.76.036zm.356-.815c.031-.01.064-.01.095 0 .03.017.05.054.052.096.024.115.001.239-.062.329-.31.228-.678.298-1.029.198.278-.292.599-.512.944-.647v.024z" transform="translate(56 78)"/>
                <path fill="#407BFF" d="M14.273 110.714h.041c.352-.19.975-.87.846-1.181-.043-.1-.167-.163-.3-.153-.133-.004-.262.038-.352.116-.376.3-.329 1.13-.329 1.163-.003.026.016.05.047.06l.047-.005zm.546-1.214h.041c.112 0 .13.042.135.056.077.185-.311.695-.646.927-.027-.325.073-.649.288-.927.054-.037.123-.057.194-.056h-.012zM32.256 109.24c.25-.001.492-.111.683-.31.089-.113.123-.275.09-.426-.014-.096-.065-.176-.137-.217-.38-.198-1.48.678-1.603.777-.023.023-.034.059-.029.094.008.035.033.06.062.064.31.042.623.047.934.018zm.451-.812c.044-.013.09-.013.133 0 .03.015.05.048.052.087.022.1 0 .206-.057.28-.156.223-.636.31-1.295.263.365-.292.767-.506 1.19-.63h-.023z" transform="translate(56 78)"/>
                <path fill="#407BFF" d="M31.338 109.023h.03c.34-.185.972-.871.88-1.186-.025-.075-.093-.163-.292-.163-.143-.003-.28.053-.375.153-.234.337-.347.737-.32 1.14 0 .023.013.044.033.056.014.007.03.007.044 0zm.579-1.223h.044c.13 0 .145.046.15.06.059.19-.364.723-.71.968-.01-.33.09-.653.282-.927.064-.058.146-.094.234-.101z" transform="translate(56 78)"/>
                <path fill="#FFB573" d="M9.82 40.864l2.793.093-1.703 2.845s-2.443-.162-2.69-2.025l1.6-.913z" transform="translate(56 78)"/>
                <path fill="#FFB573" d="M13.922 41.907L12.229 44.409 10.887 43.802 12.613 40.957z" transform="translate(56 78)"/>
            </g>
            <path fill="#001443" d="M56 112.457L63 111 63 112.562 56.392 114zM83 93L86.59 99 88 97.444 84.874 93z"/>
        </g>
    </g>
</svg>
