<svg xmlns="http://www.w3.org/2000/svg" width="12" height="16" viewBox="0 0 12 16">
    <g fill="none" fill-rule="evenodd">
        <g fill="#0CAA41" fill-rule="nonzero">
            <g>
                <g>
                    <g>
                        <path d="M293.476 27.715h-9.143c0 1.262 1.022 2.285 2.284 2.285h6.858c1.262 0 2.285-1.023 2.285-2.285v-9.387c0-.047-.036-.083-.083-.083h-2.12c-.044 0-.082.037-.082.084v9.386h.001zm0-13.715c1.261 0 2.285 1.023 2.285 2.287h-9.142v9.385c0 .045-.038.083-.084.083h-2.119c-.047 0-.083-.038-.083-.083v-9.387c0-1.261 1.022-2.285 2.284-2.285h6.858" transform="translate(-607 -245) translate(0 60) translate(322 95) translate(.667 76)"/>
                    </g>
                </g>
            </g>
        </g>
    </g>
</svg>
