<svg xmlns="http://www.w3.org/2000/svg" width="15" height="19" viewBox="0 0 15 19">
    <g fill="none" fill-rule="evenodd">
        <g>
            <g>
                <g>
                    <g>
                        <g transform="translate(-607 -245) translate(0 60) translate(322 95) translate(0 76) translate(285 14)">
                            <path fill="#C7CCD6" fill-rule="nonzero" d="M9.143 13.715H.001C0 14.977 1.023 16 2.285 16h6.857c1.262 0 2.285-1.023 2.285-2.285V4.328c0-.047-.036-.083-.082-.083h-2.12c-.045 0-.082.037-.082.084v9.386zM9.143 0c1.262 0 2.285 1.023 2.285 2.287H2.286v9.385c0 .045-.037.083-.083.083H.083c-.046 0-.083-.038-.083-.083V2.285C0 1.024 1.023 0 2.285 0h6.858"/>
                            <circle cx="11" cy="15" r="3.5" fill="#276EF1" stroke="#276EF1"/>
                            <path fill="#FFF" d="M10.998 13c-.205 0-.37.165-.37.37v1.256H9.37c-.098 0-.191.04-.262.107-.067.071-.107.164-.107.263 0 .204.165.37.37.374h1.258v1.26c0 .205.165.37.37.37.204 0 .37-.165.37-.37v-1.26h1.263c.204-.005.369-.17.369-.374 0-.205-.165-.37-.37-.37h-1.263V13.37c0-.205-.165-.37-.37-.37z"/>
                        </g>
                    </g>
                </g>
            </g>
        </g>
    </g>
</svg>
