<svg xmlns="http://www.w3.org/2000/svg" width="184" height="129" viewBox="0 0 184 129">
    <g fill="none" fill-rule="evenodd">
        <path fill="#2F2E41" fill-rule="nonzero" d="M8.165 49.173c.176 10.822 4.22 11.994 9.187 10.865 5.675-1.29 10.332-5.33 12.627-10.678l1.583-3.688c2.192-5.105-.17-11.02-5.275-13.211-2.452-1.053-5.221-1.088-7.699-.099-2.477.99-4.46 2.923-5.513 5.374-5.094 2.001-6.1 6.144-4.91 11.437z"/>
        <path fill="#9F616A" fill-rule="nonzero" d="M40.104 27.393l1.525-2.58c.377-.639.441-1.414.174-2.106s-.836-1.223-1.544-1.442c-.748-.232-1.563-.088-2.186.387-.623.476-.978 1.223-.953 2.006l.09 2.773-7.165 19.635 3.907.816 6.152-19.49zM2.411 75.796L.535 78.132c-.465.578-.639 1.337-.473 2.06.166.722.653 1.329 1.323 1.647.708.336 1.534.309 2.219-.072.684-.382 1.142-1.07 1.229-1.85l.306-2.757 9.889-18.414-3.751-1.364-8.866 18.414z"/>
        <path fill="#2F2E41" fill-rule="nonzero" d="M14.005 95.232l.276 3.318.065.774 18.366-1.766c1.284-.145 2.422-.893 3.063-2.016.64-1.122.708-2.482.18-3.662l-5.923-12.715-2.046-4.392-8.866-2.046c-7.311 5.595-.733 11.77 7.543 18.018.324.245.651.491.982.737l-13.64 3.75z"/>
        <path fill="#2F2E41" fill-rule="nonzero" d="M7.816 106.722c.456.065.912-.112 1.204-.466l6.008-7.273-.341-3.41-2.048-1.229c-.34-.203-.751-.247-1.126-.12-.374.127-.674.413-.819.78l-3.918 9.927c-.149.376-.117.798.086 1.147.203.35.555.587.954.644z"/>
        <path fill="#000" fill-rule="nonzero" d="M12.982 94.55l.341 4.092.958-.092 17.408-1.674c1.284-.145 2.422-.893 3.063-2.016.64-1.122.708-2.482.18-3.662l-4.9-10.97v-1.063l-2.046-4.392-8.866-2.046c-7.311 5.595-.733 11.77 7.543 18.018l-.041.055-13.64 3.75z" opacity=".2"/>
        <path fill="#2F2E41" fill-rule="nonzero" d="M6.111 105.358c.456.065.912-.112 1.204-.466l6.008-7.273-.341-3.41-2.048-1.229c-.34-.203-.751-.247-1.126-.12-.374.127-.674.413-.819.78l-3.918 9.927c-.149.376-.117.798.086 1.147.203.35.555.587.954.644z"/>
        <path fill="#2F2E41" fill-rule="nonzero" d="M12.3 93.868l.341 4.092 18.366-1.766c1.284-.145 2.422-.894 3.063-2.015.641-1.122.708-2.483.181-3.662l-4.901-10.97v-6.138l-11.935-2.046c-7.599 5.815-.195 12.257 8.525 18.755l-13.64 3.75z"/>
        <circle cx="23.894" cy="40.673" r="5.115" fill="#9F616A" fill-rule="nonzero"/>
        <path fill="#9F616A" fill-rule="nonzero" d="M17.074 49.198l7.16 4.774 6.139-1.364-3.41-3.41v-5.115l-5.456-.341c-.115 2.043-1.285 3.912-4.433 5.456z"/>
        <path fill="#FFCE32" d="M16.051 73.068l13.299 1.705 3.069-14.322c1.426-3.802.608-7.16-2.032-10.16-.208-1.04-1.105-1.798-2.165-1.83l-1.26.055c.143 4.522-3.189 3.433-8.183-.341l-.603.18c-1.612.484-2.624 2.077-2.378 3.742l.55 3.712c.234 1.471.596 2.92 1.083 4.328 1.363 4.074.876 8.388-1.38 12.93z"/>
        <path fill="#FFCE32" d="M9.913 57.723l6.138 2.046 2.728-9.889-.924-.42c-1.59-.723-3.468-.088-4.293 1.452l-3.649 6.81zM27.986 48.516L31.396 52.267 35.488 45.788 30.373 43.06z"/>
        <path fill="#2F2E41" fill-rule="nonzero" d="M17.926 39.139c3.215 1.212 6.645 1.086 10.23 0v-4.092h-10.23v4.092zM177.453 109.381L173.927 110.85 150.418 78.82 133.375 111.438 128.967 110.556 141.897 65.596 156.883 65.596z"/>
        <path fill="#2F2E41" fill-rule="nonzero" d="M182.184 116.853c-.395.108-.816.053-1.17-.15l-7.438-4.283c-.406-.234-.681-.644-.743-1.11-.061-.465.097-.932.43-1.264l.664-.665 3.526-.294 5.391 5.175c.4.383.561.952.425 1.488-.137.536-.551.957-1.085 1.103zM124.53 118.028c.395.108.816.054 1.17-.15l7.438-4.282c.406-.234.681-.645.743-1.11.061-.465-.097-.933-.43-1.265l-.664-.665-3.526-.293-5.39 5.175c-.4.383-.562.951-.426 1.487.137.536.551.958 1.085 1.103z"/>
        <path fill="#FFB9B9" fill-rule="nonzero" d="M131.906 18.873l-1.47.882-3.045-4.948c-.38-.617-.435-1.38-.149-2.045.286-.665.878-1.15 1.586-1.299.628-.132 1.283.013 1.796.399.513.386.834.974.882 1.614l.4 5.397zM172.607 57.394l.61-1.601 5.452 2.006c.68.25 1.195.815 1.381 1.514.187.7.022 1.447-.443 2.002-.412.492-1.016.783-1.658.797-.641.014-1.258-.25-1.691-.724l-3.651-3.994z"/>
        <circle cx="149.537" cy="32.097" r="4.408" fill="#FFB9B9" fill-rule="nonzero"/>
        <path fill="#FFB9B9" fill-rule="nonzero" d="M153.357 41.5L147.186 41.5 147.186 34.741 152.476 34.154z"/>
        <path fill="#3F3D56" fill-rule="nonzero" d="M157.765 67.36h-16.75c.59-9.346 1.058-18.378 0-23.51l.974-4.674c.28-1.343 1.544-2.247 2.905-2.076l2.292.286c1.552 2.729 3.428 2.702 5.583.294h2.76c.744 0 1.457.3 1.977.83s.805 1.249.79 1.992c.72 3.293.96 6.672.711 10.033l-1.242 16.824z"/>
        <path fill="#3F3D56" fill-rule="nonzero" d="M129.555 18.873L131.905 17.698 144.541 38.562 141.015 43.851zM172.64 58.23l2.009-1.694-10.675-14.959c-2.132-2.988-5.8-4.473-9.41-3.81l-.337.062 4.037 7.064 5.317 4.025 9.059 9.312z"/>
        <path fill="#2F2E41" fill-rule="nonzero" d="M154.635 29.495s.823-1.812-1.318-2.636c0 0-1.812-2.965-5.436-.988 0 0-2.471.988-2.471 3.624 0 2.635-.824 3.13-.824 3.13s1.227-1.259 1.556-2.247c.33-.989 2.892-1.213 3.88-.224.989.988 3.46.823 3.46.823l-.165 3.624s.823-2.141 1.153-2.141c.33 0 .659-2.965.165-2.965z"/>
        <ellipse cx="154.228" cy="126.73" fill="#E6E6E6" fill-rule="nonzero" rx="26.971" ry="1.405"/>
        <ellipse cx="19.567" cy="126.73" fill="#E6E6E6" fill-rule="nonzero" rx="14.256" ry="1"/>
        <path fill="#FFCE32" d="M41.82 32.482c-.885.078-1.667-.575-1.748-1.461L38.145 9.523c-.078-.886.576-1.669 1.462-1.75L126.272.007c.886-.078 1.669.576 1.75 1.462l1.926 21.498c.078.886-.575 1.668-1.461 1.748L41.82 32.482z"/>
        <path fill="#816E34" d="M50.583 25.571l1.593-6.642 1.592 6.351 3.584-.327 2.899-11.577-3.393.31-1.481 7.65-1.784-7.352-2.835.26-1.784 7.677-1.481-7.38-3.393.31L46.983 25.9l3.6-.329zm17.359-1.586v-2.812l-3.202.293v-1.503l2.597-.237V16.93l-2.597.237v-1.39l3.075-.28v-2.812l-6.244.57v11.312l6.371-.582zm8.217-.75v-2.813l-3.202.293v-8.5l-3.17.29v11.311l6.372-.582zm6.799-.412c1.337-.122 2.564-.638 3.376-1.278l-.876-2.732c-.525.485-1.29.958-2.341 1.054-1.689.155-2.82-1.002-2.82-2.683 0-1.648 1.131-3.012 2.82-3.166 1.051-.096 1.816.238 2.341.626l.876-2.892c-.812-.491-2.039-.783-3.376-.66-3.616.33-5.973 3.147-5.973 6.395 0 3.28 2.357 5.666 5.973 5.336zm10.207-.933c3.68-.336 6.02-3.12 6.02-6.432 0-3.264-2.34-5.636-6.02-5.3-3.68.337-6.02 3.136-6.02 6.4 0 3.313 2.34 5.669 6.02 5.332zm0-2.94c-1.625.148-2.708-.998-2.708-2.694 0-1.649 1.083-3.008 2.708-3.156 1.625-.149 2.708 1.013 2.708 2.66 0 1.698-1.083 3.04-2.708 3.19zm10.638 1.758v-6.884l2.134 5.8 2.883-.263 2.15-6.191v6.883l3.027-.276V8.465l-4.11.376-2.516 6.952-2.485-6.495-4.125.377v11.311l3.042-.278zM122.5 19v-2.812l-3.202.293v-1.503l2.597-.237v-2.796l-2.597.237v-1.39l3.075-.28V7.7l-6.244.57v11.312L122.5 19z"/>
    </g>
</svg>
