<svg xmlns="http://www.w3.org/2000/svg" width="24" height="25" viewBox="0 0 24 25">
    <g fill="#153E42">
        <path stroke="#153E42" stroke-width=".2" d="M17.979 1.344C17.939.629 17.37.06 16.656.02 15.214-.058 12.39.02 9.691 1.415c-1.376.712-2.832 1.919-3.993 3.311l-.043.052-2.636.204c-.434.033-.82.26-1.06.624L.16 8.326c-.182.275-.21.62-.077.921.133.302.408.512.734.563l2.22.344-.022.13c-.074.442.072.896.392 1.216L6.5 14.593c.265.265.623.411.99.411.075 0 .151-.006.227-.019l.13-.023.343 2.221c.05.326.261.6.563.734.125.056.258.083.39.083.186 0 .37-.054.531-.16l2.72-1.799c.363-.24.59-.626.624-1.06l.204-2.636.051-.042c1.393-1.162 2.6-2.617 3.312-3.994 1.396-2.7 1.473-5.523 1.394-6.965zM11.813 15.16l-2.602 1.72-.335-2.164c1.1-.323 2.187-.84 3.223-1.535l-.132 1.718c-.008.107-.065.202-.154.261h0zm-4.567-1.314l-3.093-3.093c-.08-.08-.116-.19-.098-.297.092-.55.235-1.073.412-1.566l4.641 4.641c-.592.212-1.122.339-1.565.413-.107.018-.218-.019-.297-.098zM3.1 6.033l1.718-.132c-.694 1.036-1.212 2.124-1.535 3.224l-2.165-.336 1.72-2.602c.06-.09.155-.145.262-.154h0zm9.498 5.46c-.852.71-1.679 1.224-2.441 1.596L4.91 7.843c.487-.995 1.082-1.824 1.596-2.44 1.075-1.29 2.412-2.401 3.668-3.05C12.653 1.07 15.263 1 16.6 1.073c.177.01.317.15.327.327.073 1.336.003 3.946-1.278 6.424-.65 1.256-1.761 2.593-3.05 3.668z" transform="translate(3 4)"/>
        <path d="M12.33 8.305c.675 0 1.35-.257 1.864-.77.498-.499.773-1.16.773-1.865 0-.704-.275-1.366-.773-1.864-1.028-1.028-2.7-1.028-3.728 0-.498.498-.773 1.16-.773 1.864 0 .704.275 1.366.773 1.864.514.514 1.189.771 1.864.771zm-1.119-3.754c.309-.308.714-.462 1.119-.462s.81.154 1.119.462c.298.3.463.696.463 1.119 0 .423-.165.82-.463 1.119-.617.616-1.62.616-2.238 0-.298-.3-.463-.696-.463-1.119 0-.423.165-.82.463-1.119z" transform="translate(3 4)"/>
        <path stroke="#153E42" stroke-width=".2" d="M.538 14.834c.135 0 .27-.052.373-.155l1.721-1.721c.206-.206.206-.54 0-.746-.205-.206-.54-.206-.745 0L.165 13.934c-.206.205-.206.54 0 .745.103.103.238.155.373.155zM4.21 13.79c-.206-.206-.54-.206-.745 0L.155 17.1c-.206.206-.206.54 0 .746.102.103.237.154.372.154s.27-.051.373-.154l3.31-3.31c.206-.207.206-.54 0-.746zM5.042 15.367L3.321 17.09c-.206.206-.206.54 0 .746.103.103.238.154.373.154s.27-.051.372-.154l1.722-1.722c.206-.206.206-.54 0-.745-.206-.206-.54-.206-.746 0z" transform="translate(3 4)"/>
    </g>
</svg>
