<svg xmlns="http://www.w3.org/2000/svg" width="44" height="44" viewBox="0 0 44 44">
    <g fill="none" fill-rule="evenodd">
        <g>
            <g>
                <g>
                    <g>
                        <g>
                            <g>
                                <path d="M0 0H44V44H0z" transform="translate(-507 -231) translate(0 60) translate(322 95) translate(.667 76) translate(22.333) translate(162)"/>
                                <g fill="#00ACEE" fill-rule="nonzero">
                                    <g>
                                        <path d="M5.032 13.02c6.038 0 9.34-5.003 9.34-9.341 0-.142-.003-.284-.01-.424.641-.464 1.199-1.042 1.638-1.7-.588.261-1.221.437-1.885.517.678-.407 1.198-1.05 1.443-1.816-.634.376-1.336.65-2.084.797-.6-.638-1.452-1.037-2.396-1.037-1.813 0-3.283 1.47-3.283 3.282 0 .258.029.508.085.748C5.152 3.91 2.732 2.603 1.113.616.832 1.103.67 1.667.67 2.267c0 1.14.58 2.145 1.46 2.733-.538-.017-1.044-.164-1.486-.41v.041c0 1.59 1.131 2.918 2.633 3.218-.276.075-.566.116-.865.116-.212 0-.417-.02-.617-.06.418 1.305 1.63 2.254 3.066 2.28-1.123.881-2.539 1.406-4.077 1.406-.265 0-.526-.015-.783-.046 1.453.932 3.178 1.475 5.032 1.475" transform="translate(-507 -231) translate(0 60) translate(322 95) translate(.667 76) translate(22.333) translate(162) translate(14 15) translate(0 .333)"/>
                                    </g>
                                </g>
                            </g>
                        </g>
                    </g>
                </g>
            </g>
        </g>
    </g>
</svg>
