<svg xmlns="http://www.w3.org/2000/svg" width="24" height="24" viewBox="0 0 24 24">
    <g fill="none" fill-rule="evenodd">
        <path d="M0 0H24V24H0z"/>
        <path fill="#153E42" fill-rule="nonzero" stroke="#153E42" stroke-width=".5" d="M19.899 19.602H4.127c-1.162 0-2.075-.913-2.075-2.075V7.565c0-1.162.913-2.075 2.075-2.075H19.9c1.162 0 2.075.913 2.075 2.075v9.962c0 1.162-.913 2.075-2.075 2.075zM4.127 6.32c-.664 0-1.245.581-1.245 1.245v9.962c0 .664.581 1.245 1.245 1.245H19.9c.664 0 1.245-.581 1.245-1.245V7.565c0-.664-.581-1.245-1.245-1.245H4.127z"/>
        <path fill="#153E42" fill-rule="nonzero" stroke="#153E42" stroke-width=".5" d="M14.918 6.32c-.249 0-.415-.166-.415-.415v-1.66c0-.249-.166-.415-.415-.415h-4.15c-.25 0-.415.166-.415.415v1.66c0 .25-.166.415-.415.415-.25 0-.415-.166-.415-.415v-1.66c0-.664.58-1.245 1.245-1.245h4.15c.664 0 1.245.581 1.245 1.245v1.66c0 .25-.166.415-.415.415zM12.013 12.961h-.166l-9.546-3.32c-.166-.083-.332-.332-.25-.581.084-.166.333-.332.582-.25l9.38 3.321 9.38-3.32c.249-.083.415 0 .498.249.083.249 0 .415-.249.498l-9.546 3.32c0 .083 0 .083-.083.083h0z"/>
    </g>
</svg>
