<svg xmlns="http://www.w3.org/2000/svg" width="19" height="19" viewBox="0 0 19 19">
    <g fill="none" fill-rule="evenodd">
        <g>
            <g>
                <g>
                    <g>
                        <g>
                            <g fill="#D5D8E0" fill-rule="nonzero">
                                <path d="M15.784 4.188l-.002-.016c-.02-.03-.046-.056-.068-.085-.155-.212-.32-.416-.494-.612l-.144-.159c-.179-.191-.366-.374-.563-.548l-.106-.097c-.484-.414-1.014-.772-1.58-1.066-.022-.012-.046-.022-.07-.034-.25-.128-.51-.243-.773-.344-.06-.022-.113-.042-.17-.06-.234-.084-.472-.158-.714-.222-.071-.019-.143-.039-.215-.055-.238-.056-.476-.098-.72-.132-.074-.011-.146-.025-.22-.034-.627-.076-1.261-.076-1.888 0-.075.009-.147.023-.22.034-.244.034-.485.076-.72.132-.073.016-.144.036-.216.055-.243.064-.481.138-.714.222-.06.02-.114.04-.17.06-.264.101-.522.216-.774.344l-.07.034c-.567.294-1.098.651-1.584 1.066-.036.032-.07.065-.107.097-.198.175-.386.358-.562.548-.05.053-.097.106-.144.16-.175.195-.34.399-.494.611-.022.03-.047.055-.068.085l-.007.016c-2.053 2.876-2.053 6.738 0 9.615l.007.016c.02.03.046.055.068.084.155.212.32.416.494.612.047.054.095.107.144.159.179.192.366.374.562.548.037.032.07.066.107.097.484.415 1.014.772 1.58 1.066.022.012.046.022.069.034.252.128.51.243.774.345.06.021.113.042.17.06.234.084.472.158.714.221.071.02.143.04.215.056.238.055.476.097.72.132.073.01.146.025.22.034.627.076 1.261.076 1.888 0 .074-.01.147-.023.22-.034.244-.035.485-.077.72-.132.073-.017.144-.037.216-.056.243-.063.481-.137.714-.222.06-.02.113-.04.17-.06.264-.1.522-.216.774-.344l.07-.034c.565-.294 1.095-.651 1.579-1.066.036-.031.07-.065.106-.097.198-.174.386-.357.563-.548.049-.052.096-.105.144-.159.174-.196.339-.4.494-.612.021-.029.047-.054.068-.084l.007-.016c2.052-2.877 2.052-6.739 0-9.615zm-.68 1.126c.57.937.914 1.993 1.005 3.086h-3.565c-.043-.709-.155-1.412-.333-2.1 1.007-.188 1.982-.52 2.894-.986h-.001zm-4.592-3.295c.033.007.066.018.099.026.213.05.424.107.63.178l.094.035c.205.071.407.15.604.238l.103.05c.19.09.374.187.555.292l.119.072c.171.105.338.217.5.336.041.03.083.06.124.093.159.12.31.247.456.383.038.034.077.068.115.104.152.145.297.297.438.456l.054.06c-.805.383-1.659.657-2.538.815-.407-1.12-.944-2.186-1.602-3.18.083.016.168.024.25.042h-.001zM6.64 8.4c.047-.644.157-1.281.328-1.904.674.08 1.352.12 2.031.119.68 0 1.359-.04 2.034-.122.17.624.28 1.262.325 1.907H6.64zm4.718 1.19c-.047.644-.156 1.282-.327 1.905-.674-.08-1.353-.12-2.032-.12-.68 0-1.358.04-2.033.12-.17-.623-.28-1.26-.326-1.905h4.718zm-2.36-7.348c.677.96 1.234 2 1.659 3.095-.551.058-1.105.088-1.659.088-.553 0-1.106-.03-1.656-.089.424-1.094.98-2.133 1.656-3.094zm-5.35 2.04c.14-.16.286-.312.439-.457l.114-.104c.147-.134.3-.261.456-.382.041-.032.083-.06.125-.093.161-.12.328-.231.5-.337l.118-.072c.181-.105.366-.202.555-.292l.103-.05c.198-.089.4-.168.604-.238.031-.011.06-.024.093-.034.207-.07.417-.126.631-.179.034-.008.066-.018.1-.025.081-.018.166-.027.248-.041-.657.993-1.195 2.06-1.602 3.179C5.253 5 4.4 4.726 3.594 4.342l.055-.06h-.001zm-.756 1.032c.912.465 1.886.798 2.893.986-.178.688-.29 1.391-.333 2.1H1.888c.09-1.093.435-2.15 1.004-3.086zm0 7.363c-.57-.937-.913-1.994-1.004-3.087h3.564c.044.71.155 1.413.333 2.1-1.006.189-1.981.521-2.893.987zm4.592 3.295c-.033-.008-.065-.019-.098-.026-.213-.05-.425-.107-.631-.179-.032-.01-.063-.023-.094-.034-.204-.072-.406-.15-.604-.238l-.103-.05c-.189-.09-.374-.188-.554-.293l-.12-.072c-.17-.104-.337-.216-.499-.336-.042-.03-.083-.06-.124-.093-.16-.119-.311-.246-.456-.382-.038-.035-.078-.069-.115-.104-.152-.145-.298-.298-.438-.456l-.055-.06c.806-.384 1.66-.658 2.538-.815.407 1.119.945 2.186 1.602 3.179-.083-.015-.167-.023-.249-.041zm1.514-.224c-.677-.96-1.234-1.999-1.658-3.094 1.102-.119 2.213-.119 3.316 0h-.001c-.425 1.095-.981 2.134-1.657 3.094zm5.35-2.039c-.14.159-.286.312-.438.456-.037.036-.077.07-.115.104-.147.135-.299.262-.456.383-.04.032-.082.063-.124.093-.162.119-.329.231-.5.336l-.119.072c-.18.105-.365.203-.555.292l-.102.05c-.198.09-.4.169-.604.238-.031.012-.06.024-.094.035-.206.069-.416.126-.63.178-.034.008-.066.019-.1.026-.082.018-.166.026-.249.041.657-.993 1.195-2.06 1.602-3.179.879.157 1.732.431 2.538.815l-.054.06zm.757-1.032c-.912-.466-1.887-.798-2.893-.987.177-.687.289-1.39.332-2.1h3.565c-.091 1.093-.435 2.15-1.004 3.087z" transform="translate(-322 -243) translate(0 60) translate(322 95) translate(0 76) translate(0 12)"/>
                            </g>
                            <g transform="translate(-322 -243) translate(0 60) translate(322 95) translate(0 76) translate(0 12) translate(11 11)">
                                <circle cx="4" cy="4" r="3.5" fill="#276EF1" stroke="#276EF1"/>
                                <path fill="#FFF" d="M3.998 2c-.205 0-.37.165-.37.37v1.256H2.37c-.098 0-.191.04-.262.107-.067.071-.107.164-.107.263 0 .204.165.37.37.374h1.258v1.26c0 .205.165.37.37.37.204 0 .37-.165.37-.37V4.37H5.63C5.835 4.365 6 4.2 6 3.996c0-.205-.165-.37-.37-.37H4.368V2.37c0-.205-.165-.37-.37-.37z"/>
                            </g>
                        </g>
                    </g>
                </g>
            </g>
        </g>
    </g>
</svg>
