<svg xmlns="http://www.w3.org/2000/svg" width="42" height="48" viewBox="0 0 42 48">
    <g fill="none" fill-rule="nonzero">
        <path fill="#16C9CA" d="M37.334 24.324L26.25 34.83 42 48V19.902zM0 19.902V48l15.75-13.17z"/>
        <path fill="#089F99" d="M15.75 34.83L0 48h21v-8.195z"/>
        <path fill="#006D64" d="M21 39.805V48h21L26.25 34.83z"/>
        <path fill="#089F99" d="M4.666 15.48L0 19.902h4.665zM42 19.902l-4.666-4.422v4.422zM21 0l-7.442 7.053 14.865-.018z"/>
        <path fill="#006D64" d="M37.334 24.324L42 19.902h-4.666zM21 39.805L4.665 24.324v-4.422H0L15.75 34.83z"/>
        <path fill="#DBDDDF" d="M4.665 24.324L21 39.804l5.25-4.975 11.084-10.505V7.024l-8.911.011-14.865.018-8.891.01-.001 8.417v4.422l-.001 4.422zm5.835-3.25h21v3.511h-21v-3.512zm0-3.513v-3.512h21v3.512h-21z"/>
        <path fill="#FFF" d="M10.5 14.049h21v3.512h-21zM10.5 21.073h21v3.512h-21z"/>
    </g>
</svg>
