<svg xmlns="http://www.w3.org/2000/svg" width="64" height="64" viewBox="0 0 64 64">
    <g fill="none" fill-rule="evenodd">
        <g>
            <g>
                <g>
                    <path fill="#FFF" d="M0 0L64 0 64 64 0 64 0 5.5z" transform="translate(-151 -1298) translate(151 1057) translate(0 241)"/>
                    <g fill="#F60">
                        <path d="M18.5 0C8.276 0 0 8.274 0 18.5c0 3.245.846 6.414 2.453 9.21L.07 35.11c-.167.517-.03 1.082.353 1.466.38.38.944.521 1.466.353l7.402-2.383C12.086 36.154 15.255 37 18.5 37 28.724 37 37 28.726 37 18.5 37 8.276 28.726 0 18.5 0zm1.807 18.5c0 .998-.81 1.807-1.807 1.807-.998 0-1.807-.81-1.807-1.807 0-.998.81-1.807 1.807-1.807.998 0 1.807.81 1.807 1.807zm7.226 0c0 .998-.809 1.807-1.806 1.807-.998 0-1.807-.81-1.807-1.807 0-.998.809-1.807 1.807-1.807.997 0 1.806.81 1.806 1.807zm-14.453 0c0 .998-.809 1.807-1.807 1.807-.997 0-1.806-.81-1.806-1.807 0-.998.809-1.807 1.806-1.807.998 0 1.807.81 1.807 1.807z" transform="translate(-151 -1298) translate(151 1057) translate(0 241) translate(14 14)"/>
                    </g>
                </g>
            </g>
        </g>
    </g>
</svg>
