<svg xmlns="http://www.w3.org/2000/svg" xmlns:xlink="http://www.w3.org/1999/xlink" width="591" height="505" viewBox="0 0 591 505">
    <defs>
        <path id="o6xu3kd0ca" d="M0 0H591V505H0z"/>
        <path id="89hduh2nfc" d="M47.432 0h220.877c16.493 0 22.474 1.717 28.504 4.942 6.03 3.225 10.761 7.957 13.986 13.986 3.225 6.03 4.942 12.01 4.942 28.504v580.3c0 16.492-1.717 22.473-4.942 28.503-3.225 6.03-7.957 10.761-13.986 13.986-6.03 3.225-12.01 4.942-28.504 4.942H47.432c-16.493 0-22.474-1.717-28.504-4.942-6.03-3.225-10.761-7.957-13.986-13.986C1.717 650.205 0 644.225 0 627.73v-580.3C0 30.94 1.717 24.959 4.942 18.929c3.225-6.03 7.957-10.761 13.986-13.986C24.958 1.717 30.938 0 47.432 0z"/>
        <path id="i44wo1164g" d="M46.705 4.391h222.331c14.71 0 20.044 1.532 25.422 4.408 5.378 2.876 9.599 7.097 12.475 12.474 2.876 5.378 4.407 10.712 4.407 25.422v581.773c0 14.71-1.531 20.044-4.407 25.422-2.876 5.377-7.097 9.598-12.475 12.474-5.378 2.876-10.712 4.408-25.422 4.408H46.705c-14.71 0-20.045-1.532-25.422-4.408-5.378-2.876-9.599-7.097-12.475-12.474-2.876-5.378-4.407-10.712-4.407-25.422V46.695c0-14.71 1.531-20.044 4.407-25.422 2.876-5.377 7.097-9.598 12.475-12.474 5.377-2.876 10.712-4.408 25.422-4.408z"/>
        <path id="w9ngwjm9nj" d="M26.92 0h237.697c9.36 0 12.755.975 16.178 2.805 3.422 1.83 6.108 4.516 7.938 7.938 1.83 3.422 2.805 6.817 2.805 16.178v556.91c0 11.145-1.16 15.186-3.34 19.26-2.178 4.074-5.376 7.271-9.45 9.45-4.074 2.18-8.115 3.34-19.259 3.34H32.05c-11.144 0-15.185-1.16-19.26-3.34-4.074-2.179-7.271-5.376-9.45-9.45C1.16 599.017 0 594.976 0 583.831V26.922c0-9.361.975-12.756 2.805-16.178 1.83-3.422 4.516-6.108 7.938-7.938C14.165.975 17.56 0 26.921 0z"/>
        <filter id="6l1hbej6fe" width="101.3%" height="100.6%" x="-.6%" y="-.3%" filterUnits="objectBoundingBox">
            <feMorphology in="SourceAlpha" radius="2" result="shadowSpreadInner1"/>
            <feGaussianBlur in="shadowSpreadInner1" result="shadowBlurInner1" stdDeviation="1"/>
            <feOffset in="shadowBlurInner1" result="shadowOffsetInner1"/>
            <feComposite in="shadowOffsetInner1" in2="SourceAlpha" k2="-1" k3="1" operator="arithmetic" result="shadowInnerInner1"/>
            <feColorMatrix in="shadowInnerInner1" result="shadowMatrixInner1" values="0 0 0 0 1 0 0 0 0 1 0 0 0 0 1 0 0 0 0.596454327 0"/>
            <feMorphology in="SourceAlpha" radius="1" result="shadowSpreadInner2"/>
            <feGaussianBlur in="shadowSpreadInner2" result="shadowBlurInner2" stdDeviation=".5"/>
            <feOffset in="shadowBlurInner2" result="shadowOffsetInner2"/>
            <feComposite in="shadowOffsetInner2" in2="SourceAlpha" k2="-1" k3="1" operator="arithmetic" result="shadowInnerInner2"/>
            <feColorMatrix in="shadowInnerInner2" result="shadowMatrixInner2" values="0 0 0 0 0 0 0 0 0 0 0 0 0 0 0 0 0 0 0.977682474 0"/>
            <feMerge>
                <feMergeNode in="shadowMatrixInner1"/>
                <feMergeNode in="shadowMatrixInner2"/>
            </feMerge>
        </filter>
        <filter id="phn5haclvf" width="102%" height="100.9%" x="-1%" y="-.5%" filterUnits="objectBoundingBox">
            <feMorphology in="SourceAlpha" operator="dilate" radius=".5" result="shadowSpreadOuter1"/>
            <feOffset in="shadowSpreadOuter1" result="shadowOffsetOuter1"/>
            <feGaussianBlur in="shadowOffsetOuter1" result="shadowBlurOuter1" stdDeviation=".5"/>
            <feColorMatrix in="shadowBlurOuter1" values="0 0 0 0 0 0 0 0 0 0 0 0 0 0 0 0 0 0 1 0"/>
        </filter>
        <filter id="0g5stwn5hi" width="101.8%" height="100.8%" x="-.9%" y="-.4%" filterUnits="objectBoundingBox">
            <feOffset dy="-1.5" in="SourceAlpha" result="shadowOffsetInner1"/>
            <feComposite in="shadowOffsetInner1" in2="SourceAlpha" k2="-1" k3="1" operator="arithmetic" result="shadowInnerInner1"/>
            <feColorMatrix in="shadowInnerInner1" result="shadowMatrixInner1" values="0 0 0 0 1 0 0 0 0 1 0 0 0 0 1 0 0 0 0.389450393 0"/>
            <feOffset dx="-1.5" in="SourceAlpha" result="shadowOffsetInner2"/>
            <feComposite in="shadowOffsetInner2" in2="SourceAlpha" k2="-1" k3="1" operator="arithmetic" result="shadowInnerInner2"/>
            <feColorMatrix in="shadowInnerInner2" result="shadowMatrixInner2" values="0 0 0 0 1 0 0 0 0 1 0 0 0 0 1 0 0 0 0.362980769 0"/>
            <feMerge>
                <feMergeNode in="shadowMatrixInner1"/>
                <feMergeNode in="shadowMatrixInner2"/>
            </feMerge>
        </filter>
        <radialGradient id="jg3xip3z5h" cx="0%" cy="0%" r="92.039%" fx="0%" fy="0%" gradientTransform="matrix(.56016 .38156 -.82839 .25801 0 0)">
            <stop offset="0%" stop-color="#FFF"/>
            <stop offset="18.98%" stop-color="#FFF" stop-opacity=".506"/>
            <stop offset="100%" stop-color="#FFF" stop-opacity="0"/>
        </radialGradient>
        <linearGradient id="7nxl9649vd" x1="100%" x2=".861%" y1="50%" y2="50%">
            <stop offset="0%" stop-opacity="0"/>
            <stop offset="100%" stop-color="#FFF" stop-opacity=".263"/>
        </linearGradient>
        <rect id="6yhl3br1nl" width="291.538" height="533.543" x="0" y="0" rx="13.25"/>
    </defs>
    <g fill="none" fill-rule="evenodd">
        <g>
            <g transform="translate(-120 -1703) translate(120 1703)">
                <mask id="mg1128ebsb" fill="#fff">
                    <use xlink:href="#o6xu3kd0ca"/>
                </mask>
                <use fill="#FAFAFA" xlink:href="#o6xu3kd0ca"/>
                <path fill="#EBEBEB" fill-rule="nonzero" d="M506.904 252.667s-7.7 1.02-3.476 17.806 7.81 25.448 7.81 25.448.55 3.798-2.519 3.667c-3.069-.132-9.296-2.657-11.441.636-2.145 3.294-.32 7.543 4.466 11.89 4.786 4.347 14.918 14.272 15.832 15.16.913.89 1.562 2.756-.54 2.998-2.1.241-17.019-1.603-17.47 5.49-.45 7.091 14.874 17.048 16.502 18.168 1.629 1.12 1.915 1.987 1.53 2.942-.386.955-5.336-.131-9.594-.472-4.257-.34-9.274 0-9.186 4.117.088 4.117 8.097 14.601 31.618 22.495l11.134 2.953 8.295-8.058c16.7-18.312 18.592-31.354 16.656-35.01-1.936-3.656-6.48-1.515-10.033.867-3.554 2.383-7.36 5.73-8.152 5.072-.793-.658-1.002-1.537-.1-3.293.903-1.757 9.45-17.895 5.59-23.889-3.862-5.994-16.008 2.843-17.955 3.656-1.947.812-2.277-1.098-1.925-2.35.352-1.251 4.4-14.81 6.435-20.935 2.036-6.126 1.706-10.66-1.903-12.56-3.608-1.898-7.7 3.404-10.308 5.007-2.607 1.603-3.983-1.987-3.983-1.987s-1.1-9.31-5.577-26.019c-4.478-16.709-11.882-13.766-11.882-13.766" mask="url(#mg1128ebsb)"/>
                <g mask="url(#mg1128ebsb)">
                    <g>
                        <g transform="translate(21.126 -319.467)">
                            <use fill="#060607" xlink:href="#89hduh2nfc"/>
                            <use fill="url(#7nxl9649vd)" xlink:href="#89hduh2nfc"/>
                            <use fill="#000" filter="url(#6l1hbej6fe)" xlink:href="#89hduh2nfc"/>
                        </g>
                        <g transform="translate(21.126 -319.467)">
                            <use fill="#000" filter="url(#phn5haclvf)" xlink:href="#i44wo1164g"/>
                            <use fill="#060607" xlink:href="#i44wo1164g"/>
                            <use fill="url(#jg3xip3z5h)" fill-opacity=".84" xlink:href="#i44wo1164g"/>
                            <use fill="#000" filter="url(#0g5stwn5hi)" xlink:href="#i44wo1164g"/>
                        </g>
                        <path fill="#060607" d="M50.005 7.685h215.73c14.71 0 20.045 1.531 25.423 4.407 5.378 2.877 9.598 7.097 12.474 12.475 2.876 5.378 4.408 10.712 4.408 25.422v575.185c0 14.71-1.532 20.044-4.408 25.422-2.876 5.378-7.096 9.599-12.474 12.475-5.378 2.876-10.712 4.407-25.422 4.407H50.006c-14.711 0-20.045-1.531-25.423-4.407-5.378-2.876-9.598-7.097-12.474-12.475-2.876-5.378-4.408-10.712-4.408-25.422V49.99c0-14.71 1.532-20.044 4.408-25.422 2.876-5.378 7.096-9.598 12.474-12.475 5.378-2.876 10.712-4.407 25.422-4.407z" transform="translate(21.126 -319.467)"/>
                        <g transform="translate(21.126 -319.467) translate(12.102 39.522)">
                            <mask id="fn6o4q6ztk" fill="#fff">
                                <use xlink:href="#w9ngwjm9nj"/>
                            </mask>
                            <use fill="#FFF" xlink:href="#w9ngwjm9nj"/>
                            <g mask="url(#fn6o4q6ztk)">
                                <g>
                                    <g transform="translate(0 74.652)">
                                        <mask id="stqx7xakqm" fill="#fff">
                                            <use xlink:href="#6yhl3br1nl"/>
                                        </mask>
                                        <use fill="#FFF" xlink:href="#6yhl3br1nl"/>
                                        <g mask="url(#stqx7xakqm)">
                                            <g>
                                                <path fill="#FFF" d="M0 0H291.538V100.646H0z" transform="translate(0 226.756)"/>
                                                <g>
                                                    <path fill="#000" fill-rule="nonzero" d="M46.578 41.451v-3.409l-.178-4.553 3.053 7.962h1.289l3.06-7.969-.178 4.56v3.41h1.794V31.11H53.09l-2.982 7.926-2.99-7.926h-2.334V41.45h1.794zm13.303.142c.934 0 1.656-.298 2.163-.895l.043.753h1.63v-7.685h-1.73v5.519c-.294.601-.86.902-1.7.902-.812 0-1.218-.488-1.218-1.463v-4.958h-1.73v4.98c0 .922.215 1.628.645 2.116.43.487 1.061.731 1.897.731zm7.324-.142v-5.568c.289-.564.78-.845 1.473-.845.901 0 1.364.452 1.388 1.356v5.057h1.73l-.008-5.27c.1-.34.274-.617.523-.827.25-.211.571-.316.965-.316.493 0 .847.113 1.06.34.214.228.32.585.32 1.073v5h1.73v-5.05c-.01-.914-.222-1.605-.637-2.074-.415-.468-1.047-.703-1.897-.703-1.015 0-1.803.393-2.363 1.18-.38-.787-1.084-1.18-2.114-1.18-.94 0-1.68.315-2.22.945l-.05-.803h-1.63v7.685h1.73zm14.712.142c.934 0 1.669-.352 2.203-1.058.533-.706.8-1.655.8-2.848v-.1c0-1.25-.268-2.223-.804-2.919-.536-.696-1.274-1.044-2.214-1.044-.844 0-1.516.294-2.014.88v-3.962h-1.73v10.91h1.566l.086-.832c.503.649 1.205.973 2.107.973zm-.434-1.406c-.755 0-1.286-.334-1.595-1.001v-3.168c.304-.654.83-.98 1.58-.98.56 0 .987.208 1.281.625.295.416.442 1.041.442 1.875v.22c-.01.814-.162 1.423-.456 1.825-.294.403-.712.604-1.252.604zm7.267 1.406c.797 0 1.47-.286 2.021-.86.057.332.123.571.2.718h1.764v-.12c-.194-.412-.291-.964-.291-1.655V36.21c-.015-.82-.29-1.455-.826-1.908-.536-.452-1.255-.678-2.157-.678-.593 0-1.13.104-1.612.313-.481.208-.862.496-1.142.863-.28.367-.42.76-.42 1.182h1.73c0-.303.125-.553.377-.75.251-.196.574-.294.968-.294.455 0 .795.12 1.018.359.223.239.334.557.334.955v.504h-1.06c-1.135 0-2.006.22-2.616.657-.61.438-.915 1.067-.915 1.886 0 .649.245 1.193.733 1.634.49.44 1.12.66 1.894.66zm.32-1.385c-.37 0-.666-.098-.886-.294-.22-.197-.331-.461-.331-.792 0-.408.161-.723.484-.945.322-.223.804-.334 1.445-.334h.932v1.45c-.152.278-.378.501-.68.667-.301.165-.622.248-.964.248zm6.164-7.529c.313 0 .555-.086.726-.259.17-.173.256-.39.256-.65 0-.265-.085-.485-.256-.66-.171-.175-.413-.263-.726-.263s-.554.088-.723.263c-.168.175-.252.395-.252.66 0 .26.084.477.252.65.169.173.41.26.723.26zm.861 8.772v-7.685h-1.73v7.685h1.73zm2.128 2.33c.394-.327.715-.742.965-1.247.249-.504.376-1.007.38-1.509l.008-1.243h-1.56v1.343c-.004.331-.057.657-.16.976-.101.32-.29.695-.565 1.126l.932.554zm8.548-2.33v-3.409l-.178-4.553 3.054 7.962h1.288l3.06-7.969-.177 4.56v3.41h1.794V31.11h-2.328l-2.982 7.926-2.99-7.926h-2.334V41.45h1.793zm13.182.142c.797 0 1.471-.286 2.022-.86.057.332.123.571.199.718h1.765v-.12c-.194-.412-.292-.964-.292-1.655V36.21c-.014-.82-.29-1.455-.825-1.908-.537-.452-1.255-.678-2.157-.678-.593 0-1.13.104-1.612.313-.482.208-.863.496-1.142.863-.28.367-.42.76-.42 1.182h1.73c0-.303.125-.553.376-.75.252-.196.575-.294.968-.294.456 0 .795.12 1.018.359.223.239.335.557.335.955v.504h-1.06c-1.135 0-2.007.22-2.617.657-.61.438-.914 1.067-.914 1.886 0 .649.244 1.193.733 1.634.489.44 1.12.66 1.893.66zm.32-1.385c-.37 0-.665-.098-.886-.294-.22-.197-.33-.461-.33-.792 0-.408.16-.723.483-.945.323-.223.805-.334 1.445-.334h.933v1.45c-.152.278-.379.501-.68.667-.301.165-.623.248-.964.248zm6.89 1.243v-5.49c.342-.616.86-.923 1.552-.923.446 0 .784.11 1.014.33.23.22.346.595.346 1.126v4.957h1.73V36.43c-.025-1.87-.857-2.806-2.5-2.806-.863 0-1.577.327-2.142.98v-4.062h-1.73v10.91h1.73zm8.77.142c.796 0 1.47-.286 2.02-.86.058.332.124.571.2.718h1.765v-.12c-.194-.412-.292-.964-.292-1.655V36.21c-.014-.82-.29-1.455-.825-1.908-.536-.452-1.255-.678-2.157-.678-.593 0-1.13.104-1.612.313-.482.208-.862.496-1.142.863-.28.367-.42.76-.42 1.182h1.73c0-.303.125-.553.376-.75.252-.196.575-.294.968-.294.456 0 .795.12 1.018.359.223.239.335.557.335.955v.504h-1.06c-1.135 0-2.007.22-2.616.657-.61.438-.915 1.067-.915 1.886 0 .649.244 1.193.733 1.634.489.44 1.12.66 1.893.66zm.32-1.385c-.37 0-.666-.098-.887-.294-.22-.197-.33-.461-.33-.792 0-.408.16-.723.483-.945.323-.223.805-.334 1.445-.334h.933v1.45c-.152.278-.379.501-.68.667-.301.165-.623.248-.964.248zm6.91 1.243v-5.256c.276-.606.81-.909 1.602-.909.242 0 .477.02.705.057l.007-1.62c-.161-.066-.365-.099-.612-.099-.74 0-1.32.334-1.737 1.002l-.042-.86h-1.652v7.685h1.73zm5.78.142c.797 0 1.471-.286 2.022-.86.057.332.123.571.199.718h1.765v-.12c-.194-.412-.292-.964-.292-1.655V36.21c-.014-.82-.29-1.455-.825-1.908-.536-.452-1.255-.678-2.157-.678-.593 0-1.13.104-1.612.313-.482.208-.862.496-1.142.863-.28.367-.42.76-.42 1.182h1.73c0-.303.125-.553.376-.75.252-.196.575-.294.968-.294.456 0 .795.12 1.018.359.223.239.335.557.335.955v.504h-1.06c-1.135 0-2.007.22-2.616.657-.61.438-.915 1.067-.915 1.886 0 .649.244 1.193.733 1.634.489.44 1.12.66 1.893.66zm.32-1.385c-.37 0-.665-.098-.886-.294-.22-.197-.33-.461-.33-.792 0-.408.16-.723.484-.945.322-.223.804-.334 1.444-.334h.933v1.45c-.152.278-.379.501-.68.667-.301.165-.623.248-.964.248zm8.086 1.385c.93 0 1.682-.214 2.257-.642.574-.429.86-.989.86-1.68 0-.412-.093-.763-.28-1.051-.188-.29-.475-.537-.862-.743-.386-.206-.919-.383-1.598-.532-.678-.15-1.129-.297-1.352-.444-.223-.147-.334-.353-.334-.618 0-.294.12-.528.359-.703.24-.176.55-.263.929-.263.408 0 .735.11.982.33.247.22.37.496.37.828h1.73c0-.725-.284-1.314-.85-1.769-.568-.455-1.312-.682-2.232-.682-.864 0-1.575.223-2.135.668-.56.445-.84.999-.84 1.662 0 .79.432 1.394 1.295 1.811.394.19.885.346 1.473.469.589.123 1.01.265 1.264.426.254.16.38.395.38.703 0 .28-.118.506-.355.678-.237.173-.584.26-1.04.26-.47 0-.846-.11-1.131-.33-.285-.22-.439-.535-.463-.942h-1.68c0 .46.138.888.413 1.286.276.398.66.71 1.153.937.494.228 1.056.341 1.687.341zm6.328-.142v-5.49c.341-.616.859-.923 1.551-.923.446 0 .785.11 1.015.33.23.22.345.595.345 1.126v4.957h1.73V36.43c-.024-1.87-.857-2.806-2.499-2.806-.863 0-1.578.327-2.142.98v-4.062h-1.73v10.91h1.73zm8.819.142c.365 0 .745-.054 1.138-.163v-1.335c-.204.047-.405.07-.605.07-.299 0-.506-.064-.622-.195-.117-.13-.175-.342-.175-.635v-4.29h1.36v-1.279h-1.36v-1.868h-1.73v1.868h-1.266v1.279h1.267v4.354c0 1.463.664 2.194 1.993 2.194zm4.142-.142v-5.256c.275-.606.809-.909 1.601-.909.242 0 .477.02.705.057l.007-1.62c-.161-.066-.365-.099-.612-.099-.74 0-1.319.334-1.737 1.002l-.042-.86h-1.652v7.685h1.73zm5.78.142c.797 0 1.47-.286 2.02-.86.058.332.124.571.2.718h1.765v-.12c-.194-.412-.291-.964-.291-1.655V36.21c-.015-.82-.29-1.455-.826-1.908-.536-.452-1.255-.678-2.157-.678-.593 0-1.13.104-1.612.313-.482.208-.862.496-1.142.863-.28.367-.42.76-.42 1.182h1.73c0-.303.125-.553.377-.75.251-.196.574-.294.968-.294.455 0 .794.12 1.017.359.223.239.335.557.335.955v.504h-1.06c-1.135 0-2.007.22-2.616.657-.61.438-.915 1.067-.915 1.886 0 .649.244 1.193.733 1.634.489.44 1.12.66 1.893.66zm.32-1.385c-.37 0-.666-.098-.886-.294-.221-.197-.331-.461-.331-.792 0-.408.161-.723.484-.945.322-.223.804-.334 1.445-.334h.932v1.45c-.152.278-.378.501-.68.667-.301.165-.623.248-.964.248zm5.43 3.573c.394-.327.716-.742.965-1.247.25-.504.376-1.007.38-1.509l.008-1.243h-1.559v1.343c-.005.331-.058.657-.16.976-.102.32-.29.695-.566 1.126l.933.554zm8.656-2.33V31.11h-1.794V41.45h1.794zm3.75 0v-5.469c.342-.63.862-.944 1.56-.944.479 0 .824.117 1.035.351.211.235.317.596.317 1.083v4.98h1.73v-5.08c-.03-1.832-.845-2.748-2.45-2.748-.925 0-1.672.343-2.241 1.03l-.05-.888h-1.63v7.685h1.73zm9.104.142c.864 0 1.554-.312 2.071-.937l.086.795h1.565v-10.91h-1.73v3.935c-.502-.568-1.162-.852-1.978-.852-.925 0-1.663.359-2.213 1.076-.55.718-.826 1.668-.826 2.852 0 1.245.279 2.23.836 2.955.558.724 1.287 1.086 2.189 1.086zm.441-1.406c-.555 0-.983-.219-1.284-.657-.302-.438-.452-1.048-.452-1.829 0-.89.151-1.557.455-2 .304-.442.736-.663 1.296-.663.707 0 1.219.307 1.537.923v3.281c-.327.63-.845.945-1.552.945zm6.064-7.508c.314 0 .556-.086.726-.259.171-.173.257-.39.257-.65 0-.265-.086-.485-.257-.66-.17-.175-.412-.263-.726-.263-.313 0-.554.088-.722.263-.168.175-.253.395-.253.66 0 .26.085.477.253.65.168.173.41.26.722.26zm.862 8.772v-7.685h-1.73v7.685h1.73zm4.263.142c.797 0 1.471-.286 2.022-.86.057.332.123.571.199.718h1.765v-.12c-.195-.412-.292-.964-.292-1.655V36.21c-.014-.82-.29-1.455-.825-1.908-.537-.452-1.255-.678-2.157-.678-.593 0-1.13.104-1.612.313-.482.208-.863.496-1.143.863s-.42.76-.42 1.182h1.73c0-.303.126-.553.377-.75.252-.196.574-.294.968-.294.456 0 .795.12 1.018.359.223.239.335.557.335.955v.504h-1.06c-1.135 0-2.007.22-2.617.657-.61.438-.914 1.067-.914 1.886 0 .649.244 1.193.733 1.634.489.44 1.12.66 1.893.66zm.32-1.385c-.37 0-.665-.098-.886-.294-.22-.197-.33-.461-.33-.792 0-.408.16-.723.483-.945.323-.223.805-.334 1.445-.334h.933v1.45c-.152.278-.379.501-.68.667-.301.165-.623.248-.965.248zM45.34 65.933l.974-2.7h4.342l.99 2.7h1.402L49.083 55.59h-1.196L43.93 65.933h1.41zm4.91-3.821h-3.523l1.758-4.837 1.765 4.837zm5.303 3.82v-5.475c.18-.37.432-.668.754-.895.323-.228.698-.341 1.125-.341.527 0 .915.132 1.164.398.249.265.376.674.38 1.228v5.086h1.317v-5.079c-.014-1.832-.835-2.748-2.462-2.748-.95 0-1.718.369-2.306 1.108l-.043-.966h-1.246v7.685h1.317zm9.43.143c.94 0 1.674-.322 2.2-.966l.064.824h1.21v-10.91h-1.316v4.006c-.527-.616-1.241-.923-2.143-.923-.906 0-1.64.358-2.2 1.076-.56.717-.84 1.665-.84 2.844v.1c0 1.174.282 2.126.844 2.855.563.73 1.29 1.094 2.182 1.094zm.328-1.115c-.636 0-1.134-.247-1.494-.739-.361-.492-.541-1.174-.541-2.046 0-.975.18-1.711.54-2.208.361-.498.864-.746 1.51-.746.816 0 1.42.362 1.815 1.086v3.53c-.385.749-.995 1.123-1.83 1.123zm6.506.973v-5.476c.18-.37.432-.668.754-.895.323-.228.698-.341 1.125-.341.527 0 .914.132 1.164.398.249.265.376.674.38 1.228v5.086h1.317v-5.079c-.014-1.832-.835-2.748-2.463-2.748-.934 0-1.694.357-2.277 1.072v-4.155H70.5v10.91h1.317zm9.908.142c1.29 0 2.258-.495 2.904-1.485l-.805-.625c-.242.313-.524.564-.847.753-.322.19-.716.284-1.181.284-.655 0-1.195-.233-1.62-.7-.424-.466-.646-1.078-.665-1.835h5.217v-.547c0-1.227-.277-2.169-.833-2.827-.555-.658-1.333-.987-2.334-.987-.612 0-1.18.169-1.705.508-.524.338-.932.807-1.224 1.406-.292.599-.438 1.28-.438 2.042v.241c0 1.146.328 2.061.982 2.745.655.685 1.505 1.027 2.549 1.027zm1.686-4.688h-3.857c.085-.696.308-1.237.669-1.623.36-.386.806-.579 1.338-.579.55 0 .987.184 1.31.55.322.368.502.885.54 1.553v.1zm4.157 4.546v-5.455c.309-.734.895-1.101 1.758-1.101.233 0 .449.017.648.05v-1.222c-.133-.066-.328-.1-.584-.1-.792 0-1.404.344-1.836 1.03l-.022-.887h-1.28v7.685h1.316zm4.399-8.978c.256 0 .45-.071.583-.213.133-.142.2-.32.2-.533 0-.213-.067-.393-.2-.54-.132-.146-.327-.22-.583-.22-.256 0-.45.074-.58.22-.13.147-.196.327-.196.54 0 .213.065.39.196.533.13.142.324.213.58.213zm.647 8.978v-7.685h-1.316v7.685h1.316zm2.065 2.06c.355-.29.65-.673.886-1.151.235-.478.352-.957.352-1.435v-1.03H94.63v1.186c-.02.659-.252 1.298-.698 1.918l.748.512zm8.085-2.06v-4.027l-.135-4.326 3.395 8.353h1.046l3.403-8.374-.129 4.347v4.027h1.367V55.59h-1.772l-3.388 8.438-3.388-8.438h-1.765v10.342h1.366zm13.652.142c.992 0 1.744-.3 2.256-.902l.029.76h1.252v-7.685h-1.317v5.59c-.332.748-1 1.122-2.007 1.122-.949 0-1.423-.583-1.423-1.748v-4.964h-1.317v5c.005.933.222 1.637.651 2.113.43.476 1.055.714 1.876.714zm6.847-.142v-5.611c.318-.734.909-1.101 1.772-1.101 1.096 0 1.644.559 1.644 1.676v5.036h1.324v-5.1c.052-.492.24-.884.563-1.175.322-.292.728-.437 1.217-.437.593 0 1.015.136 1.267.408.251.272.377.683.377 1.232v5.072h1.317v-5.15c-.029-1.785-.888-2.677-2.577-2.677-.56 0-1.045.113-1.456.34-.41.228-.743.526-1 .896-.389-.824-1.122-1.236-2.199-1.236-.958 0-1.72.331-2.285.994l-.035-.852h-1.246v7.685h1.317zm14.997.142c.91 0 1.637-.356 2.178-1.07.54-.712.811-1.655.811-2.83v-.113c0-1.227-.267-2.193-.8-2.898-.534-.706-1.269-1.058-2.203-1.058-.935 0-1.668.329-2.2.987v-4.07h-1.317v10.91h1.21l.064-.888c.532.687 1.284 1.03 2.257 1.03zm-.328-1.115c-.854 0-1.482-.403-1.886-1.208v-3.324c.38-.805 1.004-1.207 1.872-1.207.65 0 1.148.244 1.495.731.346.488.52 1.18.52 2.074 0 .98-.176 1.714-.527 2.202-.351.488-.843.732-1.474.732zm7.353 1.115c.85 0 1.58-.317 2.192-.952.048.388.11.658.185.81h1.381v-.114c-.18-.417-.27-.978-.27-1.683v-3.537c-.02-.777-.28-1.387-.783-1.83-.503-.442-1.199-.663-2.086-.663-.56 0-1.073.104-1.54.312-.468.209-.838.491-1.111.849-.273.357-.41.728-.41 1.112h1.324c0-.337.16-.623.477-.86.318-.237.712-.355 1.182-.355.536 0 .942.136 1.217.408.275.273.413.638.413 1.098v.603h-1.281c-1.106 0-1.964.222-2.573.665-.61.442-.915 1.064-.915 1.864 0 .658.243 1.202.73 1.63.486.429 1.109.643 1.868.643zm.192-1.144c-.432 0-.785-.116-1.06-.348-.276-.232-.413-.554-.413-.966 0-.942.806-1.413 2.42-1.413h1.032v1.577c-.166.34-.434.618-.805.83-.37.214-.761.32-1.174.32zm6.143-7.976c.256 0 .45-.071.583-.213.133-.142.2-.32.2-.533 0-.213-.067-.393-.2-.54-.133-.146-.327-.22-.583-.22-.257 0-.45.074-.58.22-.131.147-.196.327-.196.54 0 .213.065.39.195.533.131.142.324.213.58.213zm.647 8.978v-7.685h-1.317v7.685h1.317zm2.064 2.06c.356-.29.652-.673.887-1.151.234-.478.352-.957.352-1.435v-1.03h-1.288v1.186c-.02.659-.252 1.298-.698 1.918l.747.512zm8.186-2.06V55.59h-1.367v10.342h1.367zm3.608 0v-5.476c.18-.37.432-.668.755-.895.322-.228.697-.341 1.124-.341.527 0 .915.132 1.164.398.25.265.376.674.38 1.228v5.086h1.318v-5.079c-.015-1.832-.836-2.748-2.463-2.748-.95 0-1.718.369-2.306 1.108l-.043-.966h-1.245v7.685h1.316zm9.431.142c.94 0 1.673-.322 2.2-.966l.064.824h1.21v-10.91h-1.317v4.006c-.527-.616-1.241-.923-2.143-.923-.906 0-1.64.358-2.199 1.076-.56.717-.84 1.665-.84 2.844v.1c0 1.174.281 2.126.844 2.855.562.73 1.289 1.094 2.181 1.094zm.328-1.115c-.636 0-1.135-.247-1.495-.739-.36-.492-.541-1.174-.541-2.046 0-.975.18-1.711.54-2.208.361-.498.864-.746 1.51-.746.816 0 1.42.362 1.815 1.086v3.53c-.385.749-.994 1.123-1.83 1.123zm5.971-8.005c.256 0 .451-.071.584-.213.133-.142.2-.32.2-.533 0-.213-.067-.393-.2-.54-.133-.146-.328-.22-.584-.22-.256 0-.45.074-.58.22-.13.147-.196.327-.196.54 0 .213.066.39.196.533.13.142.324.213.58.213zm.648 8.978v-7.685h-1.317v7.685h1.317zm4.484.142c.85 0 1.58-.317 2.192-.952.048.388.11.658.185.81h1.381v-.114c-.18-.417-.27-.978-.27-1.683v-3.537c-.02-.777-.28-1.387-.783-1.83-.503-.442-1.198-.663-2.086-.663-.56 0-1.073.104-1.54.312-.468.209-.838.491-1.111.849-.273.357-.41.728-.41 1.112h1.325c0-.337.159-.623.476-.86.318-.237.712-.355 1.182-.355.536 0 .942.136 1.217.408.275.273.413.638.413 1.098v.603h-1.281c-1.106 0-1.964.222-2.573.665-.61.442-.915 1.064-.915 1.864 0 .658.243 1.202.73 1.63.486.429 1.109.643 1.868.643zm.192-1.144c-.432 0-.785-.116-1.06-.348-.276-.232-.413-.554-.413-.966 0-.942.806-1.413 2.42-1.413h1.032v1.577c-.166.34-.434.618-.804.83-.37.214-.762.32-1.175.32zM49.97 17.43v-.93h-4.092V8.812h-1.145v8.618h5.237zm3.76.118c.578 0 1.09-.138 1.534-.414.445-.277.787-.662 1.026-1.157.24-.496.36-1.055.36-1.678v-.077c0-1.003-.27-1.806-.81-2.41-.54-.603-1.247-.905-2.12-.905-.566 0-1.07.136-1.51.408-.441.273-.785.66-1.033 1.16-.247.502-.37 1.066-.37 1.693v.077c0 .995.27 1.794.81 2.397.54.604 1.244.906 2.114.906zm0-.894c-.553 0-.995-.215-1.325-.645-.33-.43-.495-1-.495-1.71 0-.801.166-1.417.498-1.847.332-.43.77-.645 1.311-.645.554 0 .998.218 1.332.654.334.436.5 1.005.5 1.707 0 .786-.163 1.396-.491 1.832-.329.436-.772.654-1.33.654zm6.87.894c.434 0 .847-.099 1.236-.296.39-.197.701-.462.934-.793.234-.331.36-.68.38-1.048h-1.038c-.032.355-.194.651-.486.888-.293.237-.635.355-1.027.355-.565 0-1-.199-1.304-.598-.305-.398-.457-.966-.457-1.704v-.207c0-.758.153-1.337.46-1.738.306-.4.738-.6 1.295-.6.416 0 .765.133 1.047.4.283.266.44.606.472 1.02h1.038c-.032-.686-.286-1.245-.762-1.675-.477-.43-1.075-.645-1.795-.645-.585 0-1.092.134-1.52.403-.43.268-.76.645-.988 1.13-.23.485-.344 1.04-.344 1.663v.184c0 1.01.258 1.806.774 2.388.516.582 1.21.873 2.084.873zm5.765 0c.708 0 1.316-.264 1.827-.793.04.323.09.548.154.675h1.15v-.095c-.15-.347-.225-.815-.225-1.403v-2.947c-.016-.648-.233-1.156-.652-1.525-.42-.368-.999-.553-1.738-.553-.467 0-.895.087-1.284.26-.39.174-.698.41-.926.708-.227.298-.34.606-.34.926h1.102c0-.28.133-.519.398-.716.265-.197.593-.296.984-.296.447 0 .785.113 1.015.34.23.227.344.532.344.915v.503h-1.068c-.921 0-1.636.184-2.144.553-.508.37-.762.887-.762 1.554 0 .548.202 1.001.608 1.358.405.357.924.536 1.557.536zm.16-.953c-.36 0-.655-.097-.884-.29-.23-.193-.344-.462-.344-.805 0-.785.672-1.178 2.017-1.178h.86v1.314c-.139.284-.362.515-.67.693-.309.177-.635.266-.98.266zm6.34.953c.273 0 .554-.04.843-.118v-.888c-.222.047-.396.07-.522.07-.257 0-.44-.063-.546-.192-.107-.128-.16-.32-.16-.577v-3.971h1.198v-.847H72.48v-1.55h-1.097v1.55h-1.169v.847h1.169v3.971c0 .545.124.965.373 1.261.25.296.62.444 1.11.444zm2.747-7.6c.213 0 .375-.059.486-.177.11-.119.166-.267.166-.444 0-.178-.055-.328-.166-.45-.11-.122-.273-.184-.486-.184-.214 0-.375.062-.484.184-.108.122-.163.272-.163.45 0 .177.055.325.163.444.109.118.27.177.484.177zm.54 7.482v-6.405h-1.098v6.405h1.097zm4.389.118c.577 0 1.088-.138 1.533-.414.445-.277.787-.662 1.026-1.157.24-.496.359-1.055.359-1.678v-.077c0-1.003-.27-1.806-.81-2.41-.54-.603-1.246-.905-2.12-.905-.566 0-1.069.136-1.51.408-.44.273-.785.66-1.032 1.16-.247.502-.37 1.066-.37 1.693v.077c0 .995.27 1.794.81 2.397.539.604 1.244.906 2.114.906zm0-.894c-.554 0-.996-.215-1.326-.645-.33-.43-.495-1-.495-1.71 0-.801.166-1.417.498-1.847.332-.43.769-.645 1.31-.645.554 0 .998.218 1.332.654.334.436.502 1.005.502 1.707 0 .786-.165 1.396-.493 1.832-.328.436-.77.654-1.328.654zm5.391.776v-4.564c.15-.308.36-.556.629-.746.269-.189.581-.284.937-.284.439 0 .762.11.97.332.207.22.313.562.317 1.024v4.238h1.097v-4.232c-.011-1.527-.695-2.29-2.052-2.29-.79 0-1.431.307-1.922.922l-.035-.805h-1.038v6.405h1.097z" opacity=".87" transform="translate(0 226.756) translate(14.577 9.7)"/>
                                                    <g>
                                                        <path d="M0 0H29.154V29.102H0z" transform="translate(0 226.756) translate(14.577 9.7)"/>
                                                        <g transform="translate(0 226.756) translate(14.577 9.7) translate(2.43 2.425)">
                                                            <path d="M0 0L24.295 0 24.295 24.252 0 24.252z"/>
                                                            <path fill="#F60" fill-rule="nonzero" d="M12.147 2.021c-3.917 0-7.086 2.973-7.086 6.65 0 4.986 7.086 12.347 7.086 12.347s7.086-7.361 7.086-12.348c0-3.676-3.168-6.649-7.086-6.649zm-5.061 6.65c0-2.623 2.268-4.75 5.061-4.75 2.794 0 5.062 2.127 5.062 4.75 0 2.735-2.916 6.829-5.062 9.384-2.105-2.536-5.061-6.678-5.061-9.385z"/>
                                                            <ellipse cx="12.147" cy="9.094" fill="#F60" fill-rule="nonzero" rx="2.531" ry="2.526"/>
                                                        </g>
                                                    </g>
                                                </g>
                                                <path fill="#F2F4F5" d="M58.308 99.433H281.82V100.646H58.308z" transform="translate(0 226.756)"/>
                                            </g>
                                        </g>
                                        <g mask="url(#stqx7xakqm)">
                                            <g>
                                                <path fill="#FFF" d="M0 0H291.538V63.055H0z" transform="translate(0 327.402)"/>
                                                <g>
                                                    <path fill="#000" fill-rule="nonzero" d="M46.578 41.68v-3.408l-.178-4.553 3.053 7.962h1.289l3.06-7.97-.178 4.56v3.41h1.794V31.339H53.09l-2.982 7.927-2.99-7.927h-2.334v10.342h1.794zm14.064.143c.712 0 1.34-.164 1.883-.49.543-.327.96-.789 1.252-1.385.292-.597.438-1.274.438-2.032l-.007-.404c-.052-1.104-.402-1.99-1.05-2.657-.647-.667-1.49-1.001-2.53-1.001-.702 0-1.324.162-1.865.486-.54.325-.96.789-1.26 1.392-.299.604-.448 1.282-.448 2.035v.085c0 1.203.326 2.166.979 2.888.652.722 1.522 1.083 2.608 1.083zm0-1.378c-.584 0-1.039-.224-1.366-.671-.328-.448-.492-1.067-.492-1.858 0-.89.167-1.559.499-2.006.332-.448.78-.671 1.345-.671.574 0 1.028.227 1.363.682.334.454.502 1.07.502 1.846 0 .876-.163 1.542-.488 1.996-.325.455-.78.682-1.363.682zm6.74 1.236v-5.47c.342-.629.862-.944 1.56-.944.479 0 .824.117 1.035.352.211.234.317.595.317 1.083v4.979h1.73v-5.079c-.03-1.832-.845-2.748-2.45-2.748-.925 0-1.672.343-2.241 1.03l-.05-.888h-1.63v7.685h1.73zm8.833.142c.366 0 .745-.055 1.14-.164v-1.335c-.205.048-.406.071-.606.071-.299 0-.506-.065-.622-.195-.117-.13-.175-.342-.175-.636v-4.29h1.36v-1.278h-1.36v-1.868h-1.73v1.868h-1.266v1.278h1.267v4.354c0 1.463.664 2.195 1.992 2.195zm4.122-.142v-5.49c.341-.616.858-.924 1.551-.924.446 0 .784.11 1.014.33.23.22.346.596.346 1.126v4.958h1.73v-5.022c-.024-1.87-.857-2.805-2.499-2.805-.864 0-1.578.326-2.142.98V30.77h-1.73v10.91h1.73zm8.228 0V30.77h-1.73v10.91h1.73zm2.533 3.104c1.125 0 1.922-.647 2.392-1.94l3.06-8.85h-1.843l-1.566 5.214-1.63-5.213h-1.865l2.705 7.65-.249.66c-.128.374-.302.64-.523.799-.22.159-.55.238-.986.238l-.327-.021v1.335c.303.085.58.128.832.128zm15.29-3.104v-.093l-3.318-3.87c.954-.081 1.692-.328 2.214-.743.522-.414.835-1.012.94-1.793h1.074l.356-1.293h-1.438c-.07-.478-.228-.895-.47-1.25h1.552l.363-1.3h-6.705l-.384 1.45h1.915c1.025 0 1.653.366 1.886 1.1h-3.438l-.363 1.293h3.83c-.105.36-.313.65-.624.87-.31.22-.731.33-1.263.33h-1.8l.006 1.087 3.623 4.212h2.043zm7.017 0V31.304h-.22l-4.043 1.484v1.456l2.54-.866v8.303h1.723zm10.57 0v-1.378h-4.812l2.534-2.706c.664-.72 1.142-1.363 1.434-1.929.292-.565.438-1.106.438-1.623 0-.89-.29-1.587-.872-2.091-.581-.505-1.375-.757-2.38-.757-.698 0-1.314.14-1.848.42-.534.279-.944.67-1.231 1.175-.287.504-.43 1.071-.43 1.7h1.729c0-.591.154-1.057.462-1.398.309-.341.743-.512 1.303-.512.47 0 .843.152 1.121.455.278.303.416.7.416 1.193 0 .374-.105.747-.316 1.119-.211.372-.566.834-1.064 1.388l-3.452 3.758v1.186h6.968zm4.69.142c1.139 0 1.987-.378 2.545-1.133.557-.755.836-1.876.836-3.363v-1.79c-.014-1.444-.3-2.529-.858-3.253-.557-.724-1.403-1.087-2.537-1.087-1.144 0-1.994.372-2.552 1.115-.557.744-.836 1.859-.836 3.346v1.79c.014 1.444.305 2.534.872 3.27.567.737 1.41 1.105 2.53 1.105zm0-1.378c-.579 0-1.003-.237-1.274-.71-.27-.474-.406-1.194-.406-2.16v-2.343c.015-.91.155-1.578.42-2.007.266-.428.681-.643 1.246-.643.579 0 1.001.226 1.267.679.266.452.399 1.163.399 2.134v2.337c-.015.933-.155 1.618-.42 2.056-.266.438-.677.657-1.232.657zm8.285 1.378c1.139 0 1.987-.378 2.545-1.133.557-.755.836-1.876.836-3.363v-1.79c-.014-1.444-.3-2.529-.858-3.253-.557-.724-1.403-1.087-2.537-1.087-1.144 0-1.994.372-2.552 1.115-.557.744-.836 1.859-.836 3.346v1.79c.014 1.444.305 2.534.872 3.27.567.737 1.41 1.105 2.53 1.105zm0-1.378c-.579 0-1.003-.237-1.274-.71-.27-.474-.406-1.194-.406-2.16v-2.343c.015-.91.155-1.578.42-2.007.266-.428.681-.643 1.246-.643.579 0 1.001.226 1.267.679.266.452.398 1.163.398 2.134v2.337c-.014.933-.154 1.618-.42 2.056-.265.438-.676.657-1.23.657zm8.285 1.378c1.139 0 1.987-.378 2.545-1.133.557-.755.836-1.876.836-3.363v-1.79c-.014-1.444-.3-2.529-.858-3.253-.557-.724-1.403-1.087-2.537-1.087-1.144 0-1.994.372-2.552 1.115-.557.744-.836 1.859-.836 3.346v1.79c.014 1.444.305 2.534.872 3.27.567.737 1.41 1.105 2.53 1.105zm0-1.378c-.579 0-1.004-.237-1.274-.71-.27-.474-.406-1.194-.406-2.16v-2.343c.015-.91.155-1.578.42-2.007.266-.428.681-.643 1.246-.643.579 0 1.001.226 1.267.679.265.452.398 1.163.398 2.134v2.337c-.014.933-.154 1.618-.42 2.056-.265.438-.676.657-1.231.657zm12.007-2.465v-1.392h-3.736v1.392h3.736zm10.271 3.7v-.092l-3.317-3.87c.954-.081 1.692-.328 2.214-.743.522-.414.835-1.012.94-1.793h1.074l.356-1.293h-1.438c-.07-.478-.227-.895-.47-1.25h1.552l.363-1.3h-6.705l-.384 1.45h1.915c1.025 0 1.653.366 1.886 1.1h-3.438l-.363 1.293h3.83c-.105.36-.313.65-.623.87-.311.22-.732.33-1.264.33h-1.8l.007 1.087 3.622 4.212h2.043zm7.018 0V31.305h-.22l-4.043 1.484v1.456l2.54-.866v8.303h1.723zm7.118.143c1.058 0 1.89-.311 2.498-.934.607-.623.911-1.46.911-2.51 0-1.066-.274-1.914-.822-2.544-.548-.63-1.316-.944-2.303-.944-.602 0-1.143.137-1.622.412l.284-2.472h4.129v-1.492h-5.566l-.563 5.214 1.381.34c.256-.24.494-.403.712-.486.218-.083.484-.124.797-.124.574 0 1.025.183 1.352.55.328.367.492.866.492 1.495 0 .654-.149 1.17-.445 1.549-.297.379-.71.568-1.242.568-.475 0-.86-.134-1.153-.401-.295-.268-.475-.653-.541-1.155h-1.673c.052.881.39 1.59 1.014 2.128.624.537 1.41.806 2.36.806zm8.142 0c1.14 0 1.987-.378 2.545-1.133.557-.755.836-1.876.836-3.363v-1.79c-.014-1.444-.3-2.529-.857-3.253-.558-.724-1.404-1.087-2.538-1.087-1.143 0-1.994.372-2.552 1.115-.557.744-.836 1.859-.836 3.346v1.79c.014 1.444.305 2.534.872 3.27.567.737 1.41 1.105 2.53 1.105zm0-1.378c-.579 0-1.003-.237-1.274-.71-.27-.474-.405-1.194-.405-2.16v-2.343c.014-.91.154-1.578.42-2.007.265-.428.68-.643 1.245-.643.579 0 1.001.226 1.267.679.266.452.399 1.163.399 2.134v2.337c-.015.933-.155 1.618-.42 2.056-.266.438-.676.657-1.232.657zm8.285 1.378c1.14 0 1.987-.378 2.545-1.133.557-.755.836-1.876.836-3.363v-1.79c-.014-1.444-.3-2.529-.858-3.253-.557-.724-1.403-1.087-2.537-1.087-1.144 0-1.994.372-2.552 1.115-.557.744-.836 1.859-.836 3.346v1.79c.014 1.444.305 2.534.872 3.27.567.737 1.41 1.105 2.53 1.105zm0-1.378c-.579 0-1.003-.237-1.274-.71-.27-.474-.405-1.194-.405-2.16v-2.343c.014-.91.154-1.578.42-2.007.265-.428.68-.643 1.245-.643.579 0 1.001.226 1.267.679.266.452.399 1.163.399 2.134v2.337c-.015.933-.155 1.618-.42 2.056-.266.438-.677.657-1.232.657zm8.285 1.378c1.139 0 1.987-.378 2.545-1.133.557-.755.836-1.876.836-3.363v-1.79c-.014-1.444-.3-2.529-.858-3.253-.557-.724-1.403-1.087-2.537-1.087-1.144 0-1.994.372-2.552 1.115-.557.744-.836 1.859-.836 3.346v1.79c.014 1.444.305 2.534.872 3.27.567.737 1.41 1.105 2.53 1.105zm0-1.378c-.579 0-1.003-.237-1.274-.71-.27-.474-.406-1.194-.406-2.16v-2.343c.015-.91.155-1.578.42-2.007.266-.428.681-.643 1.246-.643.579 0 1.001.226 1.267.679.266.452.398 1.163.398 2.134v2.337c-.014.933-.154 1.618-.42 2.056-.265.438-.676.657-1.23.657zM47.473 17.548c.914 0 1.643-.21 2.189-.63.546-.42.819-.98.819-1.678 0-.438-.098-.82-.294-1.143-.196-.323-.496-.606-.902-.849-.405-.243-.966-.465-1.684-.666s-1.226-.423-1.524-.666c-.299-.242-.448-.54-.448-.89 0-.439.157-.78.471-1.027.315-.247.753-.37 1.314-.37.605 0 1.074.149 1.406.446.332.298.498.708.498 1.229h1.145c0-.478-.128-.918-.383-1.32-.255-.403-.615-.718-1.08-.947-.464-.23-.993-.344-1.586-.344-.87 0-1.577.222-2.12.666-.544.444-.816 1.006-.816 1.684 0 .6.222 1.104.667 1.512.445.409 1.156.753 2.133 1.033.779.225 1.316.453 1.613.684.297.23.445.557.445.98 0 .422-.16.755-.48 1-.32.244-.782.367-1.383.367-.644 0-1.16-.151-1.545-.453-.385-.302-.578-.713-.578-1.234h-1.145c0 .501.14.949.418 1.343.28.395.676.706 1.19.933.514.227 1.067.34 1.66.34zm6.276 0c.708 0 1.316-.264 1.827-.793.04.323.09.548.154.675h1.15v-.095c-.15-.347-.225-.815-.225-1.403v-2.947c-.016-.648-.233-1.156-.652-1.525-.42-.368-.999-.553-1.738-.553-.467 0-.895.087-1.284.26-.39.174-.698.41-.926.708-.227.298-.34.606-.34.926h1.102c0-.28.133-.519.398-.716.265-.197.593-.296.984-.296.447 0 .785.113 1.015.34.23.227.344.532.344.915v.503H54.49c-.921 0-1.636.184-2.144.553-.508.37-.762.887-.762 1.554 0 .548.202 1.001.608 1.358.405.357.924.536 1.557.536zm.16-.953c-.36 0-.655-.097-.884-.29-.23-.193-.344-.462-.344-.805 0-.785.672-1.178 2.017-1.178h.86v1.314c-.139.284-.362.515-.67.693-.309.177-.635.266-.98.266zm5.658.835V8.338H58.47v9.092h1.097zm3.737.118c.708 0 1.317-.264 1.827-.793.04.323.09.548.154.675h1.15v-.095c-.15-.347-.225-.815-.225-1.403v-2.947c-.015-.648-.233-1.156-.652-1.525-.42-.368-.998-.553-1.738-.553-.466 0-.895.087-1.284.26-.39.174-.698.41-.925.708-.228.298-.341.606-.341.926h1.103c0-.28.132-.519.397-.716.265-.197.593-.296.985-.296.447 0 .785.113 1.014.34.23.227.344.532.344.915v.503h-1.067c-.922 0-1.637.184-2.145.553-.508.37-.762.887-.762 1.554 0 .548.203 1.001.608 1.358.405.357.924.536 1.557.536zm.16-.953c-.36 0-.654-.097-.884-.29-.229-.193-.344-.462-.344-.805 0-.785.673-1.178 2.017-1.178h.86v1.314c-.138.284-.362.515-.67.693-.308.177-.635.266-.979.266zm5.564.835v-4.546c.257-.612.745-.917 1.465-.917.194 0 .374.013.54.041V10.99c-.111-.055-.273-.083-.487-.083-.66 0-1.17.286-1.53.858l-.018-.74h-1.067v6.405h1.097zm3.298 2.586c.87 0 1.504-.533 1.904-1.598l2.58-7.393h-1.175l-1.494 4.8-1.602-4.8h-1.198l2.29 6.334-.244.65c-.134.4-.305.673-.513.823-.207.15-.497.225-.869.225l-.296-.023v.887l.41.077.207.018z" opacity=".87" transform="translate(0 327.402) translate(14.577 7.276)"/>
                                                    <g>
                                                        <path d="M0 0H29.154V29.102H0z" transform="translate(0 327.402) translate(14.577 7.276)"/>
                                                        <g>
                                                            <path d="M0 0L24.295 0 24.295 24.252 0 24.252z" transform="translate(0 327.402) translate(14.577 7.276) translate(2.43 2.425)"/>
                                                            <path fill="#F60" fill-rule="nonzero" d="M12.147 2.021c5.588 0 10.123 4.527 10.123 10.105s-4.535 10.105-10.123 10.105c-5.587 0-10.122-4.527-10.122-10.105S6.56 2.021 12.147 2.021zm0 2.021c-4.464 0-8.098 3.628-8.098 8.084 0 4.456 3.634 8.084 8.098 8.084 4.465 0 8.099-3.628 8.099-8.084 0-4.456-3.634-8.084-8.099-8.084zm3.645 3.234l-.345 1.184h-1.766l.13.179c.245.369.404.804.477 1.305h1.504l-.345 1.184H14.31l-.028.218c-.122.782-.465 1.379-1.027 1.791-.614.45-1.467.675-2.56.675l3.69 4.287v.09h-1.699L8.72 13.564l-.007-.937h1.863l.228-.008c.52-.033.95-.166 1.291-.4.39-.267.636-.631.74-1.09H8.504l.344-1.185h3.974l-.048-.163c-.28-.843-.997-1.284-2.152-1.321H8.518l.352-1.184h6.922z" transform="translate(0 327.402) translate(14.577 7.276) translate(2.43 2.425)"/>
                                                        </g>
                                                    </g>
                                                </g>
                                                <path fill="#F2F4F5" d="M0 67.906H291.538V76.394H0z" transform="translate(0 327.402)"/>
                                            </g>
                                        </g>
                                        <g mask="url(#stqx7xakqm)">
                                            <g>
                                                <path fill="#FFF" d="M0 0H291.538V100.646H0z" transform="translate(0 403.795)"/>
                                                <path fill="#000" fill-rule="nonzero" d="M61.162 51.152V46.77h4.17v-1.435h-4.17V42.26h4.783v-1.45H59.36v10.342h1.8zm8.54.142c.936 0 1.657-.298 2.165-.895l.042.753h1.63v-7.685h-1.73v5.519c-.294.601-.86.902-1.7.902-.812 0-1.218-.488-1.218-1.463v-4.958h-1.73v4.979c0 .923.216 1.629.645 2.117.43.487 1.062.731 1.897.731zm7.439-.142v-10.91h-1.73v10.91h1.73zm3.722 0v-10.91h-1.73v10.91h1.73zm9.936 0V42.26h3.232v-1.45H85.81v1.45h3.203v8.892h1.786zm5.403-8.772c.313 0 .555-.086.726-.259.17-.173.256-.39.256-.65 0-.265-.085-.485-.256-.66-.171-.176-.413-.263-.726-.263s-.554.087-.723.263c-.168.175-.252.395-.252.66 0 .26.084.477.252.65.169.173.41.26.723.26zm.861 8.772v-7.685h-1.73v7.685h1.73zm3.609 0v-5.568c.29-.564.78-.846 1.473-.846.902 0 1.364.453 1.388 1.357v5.057h1.73l-.008-5.27c.1-.341.274-.617.524-.828.249-.21.57-.316.964-.316.493 0 .847.114 1.06.341.214.228.32.585.32 1.073v5h1.73v-5.05c-.01-.914-.221-1.605-.637-2.074-.415-.469-1.047-.703-1.897-.703-1.015 0-1.803.393-2.363 1.179-.38-.786-1.084-1.18-2.114-1.18-.939 0-1.68.316-2.22.946l-.05-.803h-1.63v7.685h1.73zm14.349.142c.64 0 1.218-.127 1.733-.38.515-.253.926-.61 1.235-1.069l-.933-.888c-.498.64-1.143.96-1.936.96-.564 0-1.033-.185-1.405-.555-.373-.37-.585-.871-.637-1.506h5.032v-.696c0-1.221-.286-2.166-.858-2.834-.572-.667-1.382-1.001-2.43-1.001-.66 0-1.258.168-1.794.504-.536.336-.953.806-1.25 1.41-.296.604-.444 1.29-.444 2.056v.213c0 1.146.34 2.064 1.021 2.753.681.689 1.57 1.033 2.666 1.033zm1.38-4.702h-3.295c.08-.592.267-1.053.559-1.385.292-.331.675-.497 1.15-.497.479 0 .853.148 1.124.444.27.296.425.733.463 1.31v.128zM61.344 27.249c.827 0 1.488-.233 1.984-.699.497-.465.745-1.11.745-1.935v-6.102h-1.145v6.12c-.004.532-.151.947-.442 1.243-.29.296-.671.444-1.142.444-.514 0-.906-.139-1.177-.415-.27-.276-.406-.66-.406-1.154h-1.14c0 .79.24 1.403.719 1.84.478.439 1.146.658 2.004.658zm7.13 0c.577 0 1.088-.138 1.533-.415.445-.276.787-.661 1.026-1.157.24-.495.36-1.054.36-1.678v-.077c0-1.002-.27-1.805-.81-2.409-.54-.603-1.247-.905-2.121-.905-.565 0-1.069.136-1.51.408-.44.273-.784.66-1.032 1.16-.247.501-.37 1.066-.37 1.693v.077c0 .994.27 1.794.81 2.397.54.604 1.244.906 2.114.906zm0-.894c-.554 0-.996-.215-1.326-.645-.33-.43-.495-1-.495-1.71 0-.802.166-1.417.498-1.847.332-.43.77-.645 1.311-.645.554 0 .997.218 1.332.654.334.436.5 1.005.5 1.707 0 .785-.163 1.396-.491 1.832-.329.436-.772.654-1.33.654zm7.236.894c.76 0 1.364-.297 1.815-.891.45-.594.676-1.38.676-2.359v-.094c0-1.022-.222-1.827-.667-2.415-.445-.588-1.057-.882-1.836-.882-.779 0-1.39.274-1.833.823v-3.392h-1.097v9.091h1.009l.053-.74c.443.573 1.07.859 1.88.859zm-.273-.93c-.711 0-1.235-.335-1.572-1.006v-2.77c.317-.67.837-1.006 1.56-1.006.542 0 .957.203 1.246.61.289.406.433.982.433 1.728 0 .817-.146 1.428-.439 1.835-.293.406-.702.61-1.228.61zm10.517.811v-7.682h2.775v-.935h-6.678v.935h2.77v7.682h1.133zm4.17 2.587c.87 0 1.504-.533 1.903-1.598l2.58-7.393h-1.174l-1.495 4.8-1.601-4.8h-1.198l2.29 6.333-.244.651c-.134.399-.305.673-.513.823-.208.15-.497.225-.869.225l-.297-.024v.888l.41.077.207.018zm6.56-.124v-3.084c.446.493 1.06.74 1.838.74.763 0 1.368-.298 1.815-.894.447-.596.67-1.381.67-2.356v-.1c0-1.034-.224-1.841-.673-2.421-.449-.58-1.059-.87-1.83-.87-.794 0-1.415.276-1.862.828l-.054-.71h-1.002v8.867h1.097zm1.506-3.238c-.676 0-1.178-.292-1.507-.876v-3.06c.333-.588.83-.882 1.495-.882.538 0 .961.21 1.27.628.308.418.462.988.462 1.71 0 .82-.155 1.44-.466 1.856-.31.416-.728.624-1.254.624zm6.874.894c1.076 0 1.883-.413 2.42-1.237l-.67-.521c-.202.26-.437.47-.706.627-.269.158-.597.237-.984.237-.546 0-.996-.194-1.35-.583-.354-.389-.538-.899-.554-1.53h4.347v-.456c0-1.022-.23-1.807-.694-2.355-.462-.549-1.11-.823-1.945-.823-.51 0-.984.14-1.42.423-.438.282-.778.673-1.02 1.172-.244.5-.366 1.066-.366 1.702v.2c0 .956.273 1.718.819 2.289.546.57 1.253.855 2.123.855zm1.406-3.907h-3.215c.071-.58.257-1.03.558-1.352.3-.322.672-.482 1.115-.482.459 0 .822.152 1.091.458.27.306.42.737.451 1.294v.082zm3.013-1.373c.226 0 .397-.061.513-.183.117-.123.175-.275.175-.456 0-.19-.058-.347-.175-.474-.116-.126-.287-.189-.513-.189-.225 0-.394.063-.507.19-.113.126-.169.284-.169.473 0 .181.056.333.17.456.112.122.28.183.506.183zm-.006 5.227c.226 0 .397-.062.513-.184.117-.122.175-.274.175-.456 0-.19-.058-.347-.175-.473-.116-.126-.287-.19-.513-.19-.225 0-.394.064-.507.19-.113.126-.169.284-.169.473 0 .182.056.334.17.456.112.122.28.184.506.184z" opacity=".87" transform="translate(0 403.795)"/>
                                                <path fill="#F2F4F5" d="M58.308 65.48H167.635V84.882H58.308z" transform="translate(0 403.795)"/>
                                                <g>
                                                    <path d="M0 0H29.154V29.102H0z" transform="translate(0 403.795) translate(14.577 9.7)"/>
                                                    <g>
                                                        <path d="M0 0L24.295 0 24.295 24.252 0 24.252z" transform="translate(0 403.795) translate(14.577 9.7) translate(2.43 2.425)"/>
                                                        <path fill="#F60" fill-rule="nonzero" d="M12.654 8.084h-1.519v6.063l4.808 2.88.76-1.243-4.05-2.395V8.084zm4.896-6.255l4.664 3.885-1.296 1.551-4.667-3.883L17.55 1.83zm-10.805 0l1.298 1.552-4.665 3.884-1.296-1.552L6.745 1.83zm5.402 2.213c-5.03 0-9.11 4.072-9.11 9.094 0 5.023 4.08 9.095 9.11 9.095 5.031 0 9.111-4.072 9.111-9.095 0-5.022-4.08-9.094-9.11-9.094zm0 16.168c-3.907 0-7.086-3.173-7.086-7.074 0-3.9 3.179-7.073 7.086-7.073 3.908 0 7.086 3.173 7.086 7.073 0 3.901-3.178 7.074-7.086 7.074z" transform="translate(0 403.795) translate(14.577 9.7) translate(2.43 2.425)"/>
                                                    </g>
                                                </g>
                                                <path fill="#F2F4F5" d="M58.308 99.433H281.82V100.646H58.308z" transform="translate(0 403.795)"/>
                                            </g>
                                        </g>
                                    </g>
                                    <g transform="translate(0 74.652) translate(0 471.7)">
                                        <path fill="#FFF" d="M3.644 4.85H287.379V61.757H3.644z"/>
                                        <path fill="#FFF" d="M0 0H291.538V61.757H0z"/>
                                        <path fill="#F2F4F5" d="M0 0H291.538V2.425H0z"/>
                                        <rect width="123.788" height="37.765" x="149.413" y="14.551" fill="#1b2d93" rx="4.298"/>
                                        <path fill="#FFF" fill-rule="nonzero" d="M191.546 38.915l.98-2.81h4.684l.988 2.81h2.192l-4.575-12.065h-1.885l-4.567 12.065h2.183zm5.074-4.5h-3.504l1.752-5.005 1.752 5.005zm6.959 7.947V38.11c.592.646 1.381.97 2.366.97 1.063 0 1.91-.414 2.541-1.24.631-.825.947-1.932.947-3.318v-.124c0-1.448-.311-2.579-.934-3.394s-1.482-1.222-2.579-1.222c-1.018 0-1.824.36-2.416 1.077l-.083-.911h-1.86v12.413h2.018zm1.793-4.89c-.83 0-1.428-.347-1.793-1.043V32.45c.36-.68.952-1.019 1.777-1.019.664 0 1.175.262 1.532.787s.535 1.235.535 2.13c0 1.05-.18 1.833-.543 2.35-.363.516-.865.774-1.508.774zm7.781 4.89V38.11c.593.646 1.381.97 2.367.97 1.063 0 1.91-.414 2.54-1.24.632-.825.947-1.932.947-3.318v-.124c0-1.448-.311-2.579-.934-3.394s-1.482-1.222-2.578-1.222c-1.019 0-1.824.36-2.417 1.077l-.083-.911h-1.86v12.413h2.018zm1.794-4.89c-.83 0-1.428-.347-1.794-1.043V32.45c.36-.68.952-1.019 1.777-1.019.665 0 1.175.262 1.532.787s.536 1.235.536 2.13c0 1.05-.181 1.833-.544 2.35-.363.516-.865.774-1.507.774zm7.913 1.443V26.187h-2.017v12.728h2.017zm2.957 3.62c1.312 0 2.242-.753 2.79-2.261l3.57-10.325h-2.15L228.2 36.03l-1.902-6.082h-2.175l3.155 8.924-.29.77c-.15.437-.353.748-.61.933-.258.185-.642.278-1.151.278l-.382-.025v1.558c.354.1.678.149.972.149z"/>
                                        <g stroke="#F60">
                                            <rect width="124.839" height="39.96" x="16.423" y="13.442" fill="#FFF" stroke-width="2.208" rx="4.298"/>
                                            <rect width="129.256" height="44.377" x="14.214" y="11.234" stroke-opacity=".266" stroke-width="6.625" rx="4.298"/>
                                        </g>
                                        <rect width="122.794" height="36.7" x="17.532" y="15.072" fill="#FFF" stroke="#ABB2C1" stroke-width="1.052" rx="4.298"/>
                                        <path fill="#1b2d93" fill-rule="nonzero" d="M55.497 39.07c1.379 0 2.483-.36 3.314-1.081.83-.721 1.306-1.725 1.428-3.013h-2.093c-.11.862-.373 1.478-.789 1.848-.415.37-1.035.556-1.86.556-.902 0-1.587-.343-2.055-1.028-.468-.685-.702-1.68-.702-2.983v-1.07c.011-1.286.262-2.263.752-2.928.49-.666 1.191-.999 2.105-.999.786 0 1.383.192 1.79.576.406.384.66 1.01.76 1.877h2.092c-.133-1.32-.606-2.342-1.42-3.066-.814-.724-1.888-1.086-3.222-1.086-.991 0-1.864.235-2.62.705s-1.336 1.138-1.74 2.005c-.404.867-.606 1.87-.606 3.008v1.127c.017 1.11.224 2.085.623 2.925.399.84.965 1.488 1.698 1.943.734.456 1.582.684 2.545.684zm9.201 0c.93 0 1.716-.334 2.358-1.003.067.387.144.666.233.837h2.06v-.14c-.228-.481-.341-1.125-.341-1.931v-4.044c-.017-.956-.338-1.697-.964-2.225-.625-.528-1.464-.791-2.516-.791-.692 0-1.319.121-1.88.364-.562.243-1.007.579-1.333 1.007-.327.428-.49.888-.49 1.38h2.018c0-.354.146-.645.44-.875.293-.229.67-.343 1.13-.343.53 0 .926.14 1.187.418.26.279.39.65.39 1.115v.588h-1.237c-1.324 0-2.34.255-3.052.766-.711.511-1.067 1.245-1.067 2.2 0 .757.285 1.393.855 1.906.57.514 1.307.77 2.209.77zm.374-1.616c-.432 0-.777-.115-1.034-.344-.258-.23-.386-.537-.386-.924 0-.475.188-.842.564-1.102.377-.26.939-.39 1.686-.39h1.088v1.691c-.177.326-.442.586-.793.78-.352.192-.727.29-1.125.29zm8.196 1.45V26.176H71.25v12.728h2.018zm4.343 0V26.176h-2.018v12.728h2.018zm8.727 0v-5.361h5.406v5.361h2.092V26.84h-2.092v5.022h-5.406v-5.022h-2.101v12.065h2.1zm12.082 0v-4.648h2.342l2.425 4.648h2.25v-.108l-2.716-5.03c.698-.292 1.242-.71 1.632-1.255.39-.544.586-1.22.586-2.026 0-1.182-.38-2.085-1.138-2.71-.758-.624-1.835-.936-3.23-.936h-4.252v12.065h2.101zm2.16-6.33h-2.16V28.53h2.217c.731.01 1.28.193 1.649.547.368.353.552.853.552 1.5 0 .618-.2 1.106-.598 1.462-.399.356-.952.534-1.66.534z"/>
                                    </g>
                                </g>
                            </g>
                        </g>
                    </g>
                </g>
                <g mask="url(#mg1128ebsb)">
                    <g>
                        <path fill="#407BFF" fill-rule="nonzero" d="M46.206 287.444h-8.163v-.824c13.642 0 27.613 0 41.508-.22v.824c-11.133.143-22.344.22-33.345.22zM31.321 287.4c-5.864 0-11.848-.099-17.811-.187v-.823c5.952.088 11.947.154 17.811.187v.823zM.858 286.39H7.5249999999999995V287.39H.858zM135.978 303.714H177.827V304.714H135.978zM128.057 303.714H131.46699999999998V304.714H128.057zM192.426 255.442H211.447V256.442H192.426zM176.859 255.442H187.574V256.442H176.859z" transform="matrix(-1 0 0 1 551.395 146.01)"/>
                        <path fill="#FFB573" fill-rule="nonzero" d="M121.72 260.986l-29.253 12.867c-.891-.714-6.37-10.485-6.37-10.485l25.864-13.173 9.759 10.791z" transform="matrix(-1 0 0 1 551.395 146.01)"/>
                        <path fill="#407BFF" fill-rule="nonzero" d="M93.512 276.564c-.03-.128.012-.263.11-.351.114-.072.26-.072.374 0 .198.12 4.797 2.931 5.325 5.182.127.42.071.874-.154 1.251-.212.466-.701.741-1.21.681-.924-.066-1.926-1.416-2.75-2.931-.682-1.223-1.249-2.505-1.695-3.832zm4.995 4.392c-1.086-1.491-2.454-2.756-4.027-3.722.88 2.338 2.542 5.314 3.598 5.49.143 0 .352 0 .583-.407.14-.222.177-.495.099-.747-.054-.202-.132-.397-.231-.581l-.022-.033z" transform="matrix(-1 0 0 1 551.395 146.01)"/>
                        <path fill="#407BFF" fill-rule="nonzero" d="M93.6 276.356c.03-.11.12-.195.231-.22.143 0 3.477-1.47 5.5-.648.583.254 1.036.734 1.255 1.329.295.484.197 1.11-.231 1.482-1.2.955-5.28-.472-6.7-1.537l-.099-.11.044-.296zm5.5-.253c-1.5-.328-3.066-.178-4.477.428 1.672.966 4.775 1.845 5.501 1.23 0-.055.231-.198 0-.714l-.143-.153c-.18-.368-.495-.652-.88-.79z" transform="matrix(-1 0 0 1 551.395 146.01)"/>
                        <path fill="#263238" fill-rule="nonzero" d="M94.733 273.567l-1.914-1.526c-2.141-1.702-3.444-4.242-3.575-6.97l-.154-3.196c-.227-.509-.799-.768-1.332-.603l-10.748 2.382c-1.1.307-1.287 2.723-1.232 2.832 2.75 7.476 9.901 22.989 12.41 28.006 2.508 5.017 7.865 3.162 7.271.878-2.662-10.232-1.639-15.128-.484-19.398.237-.803.15-1.665-.242-2.405z" transform="matrix(-1 0 0 1 551.395 146.01)"/>
                        <g opacity=".2">
                            <path fill="#000" fill-rule="nonzero" d="M.594 5.555L9.648.933l9.759 10.847-13.39 5.884-2.31-2.58c-1.38-1.536-2.273-3.446-2.563-5.489l-.55-4.04z" transform="matrix(-1 0 0 1 551.395 146.01) translate(102.313 249.207)"/>
                        </g>
                        <path fill="#407BFF" fill-rule="nonzero" d="M151.908 145.067c-.846 2.2-1.433 4.492-1.75 6.828-1.88 12.296-7.558 75.432-10.374 76.903-8.438 4.391-13.96 5.862-32.685 22.538 2.541 4.853 4.906 8.256 7.272 13.976 0 0 34.104-11.802 45.018-23.241 11.221-11.813 25.204-65.782 29.076-79.977 2.2-8.069 4.72-17.697-.22-24.372-2.772-3.787-28.801-14.403-36.337 7.345z" transform="matrix(-1 0 0 1 551.395 146.01)"/>
                        <path fill="#09225C" fill-rule="nonzero" d="M141.823 146.09c-1.063 2.37-1.801 4.838-2.199 7.354-2.365 13.243-9.503 81.242-13.044 82.826-10.609 4.73-17.553 6.314-41.095 24.274 3.195 5.226 6.17 8.892 9.143 15.052 0 0 48.889-17.12 62.61-29.44 14.11-12.723 25.68-66.44 30.55-81.727 2.766-8.69 5.934-19.06-.277-26.25-3.486-4.078-36.212-15.512-45.688 7.911z" transform="matrix(-1 0 0 1 551.395 146.01)"/>
                        <path fill="#FFB130" fill-rule="nonzero" d="M241.844 76.288l-22.916 32.935c-1.377 2.013-3.436 3.462-5.797 4.084-3.422.856-8.406 1.097-12.421-3.074-3.62-3.376-6.998-7-10.11-10.847-6.176-7.319-12.256-14.733-18.24-22.242-2.377-2.986-4.797-6.082-5.941-9.716-1.145-3.633-.793-8.014 1.892-10.736 3.07-3.13 10.022-4.875 13.983-2.986 7.15 3.414 19.692 26.04 26.92 38.204 8.064-7.169 23.103-19.86 23.103-19.86l9.527 4.238z" transform="matrix(-1 0 0 1 551.395 146.01)"/>
                        <path fill="#FFB130" fill-rule="nonzero" d="M190.853 123.56c-.891 6.774-38.505 9.211-45.667 3.294l-16.03-54.705c-1.045-3.587-.527-7.447 1.426-10.634 1.954-3.186 5.163-5.404 8.839-6.108.99-.186 1.87-.351 2.618-.516 1.596-.329 2.487-.57 2.08-.603 0 0 .792-.275 2.2-.66 6.64-1.935 13.512-2.965 20.43-3.062 6.281 4.841 11.452 13.174 13.4 18.608 4.158 11.604 3.41 24.657 1.297 36.602-1.183 7.157-3.024 14.191-5.5 21.012-.814 2.196 2.74 2.986 3.553.823 6.601-17.565 10.342-39.39 4.775-57.57-2.375-7.427-6.752-14.058-12.652-19.168 5.633.692 10.914 2.657 14.423 6.884 3.3 3.963 3.972 10.231 4.654 13.766 1.419 7.52 1.034 45.264.154 52.037z" transform="matrix(-1 0 0 1 551.395 146.01)"/>
                        <path fill="#407BFF" fill-rule="nonzero" d="M179.455 127.611c-.814 2.196-4.4 1.362-3.553-.823 2.476-6.82 4.317-13.855 5.5-21.012 2.113-11.945 2.86-24.998-1.298-36.602-1.947-5.423-7.118-13.767-13.4-18.608 1.633.008 3.264.11 4.885.307 5.892 5.113 10.261 11.744 12.63 19.168 5.578 18.18 1.804 40.038-4.764 57.57z" transform="matrix(-1 0 0 1 551.395 146.01)"/>
                        <path fill="#09225C" fill-rule="nonzero" d="M190.853 123.56c2.378 10.98 2.11 22.365-.781 33.22l-2.53 9.53s-28.868 14.052-41.102 1.756c-12.234-12.295-1.221-41.201-1.221-41.201 15.29.845 30.626-.265 45.634-3.305z" transform="matrix(-1 0 0 1 551.395 146.01)"/>
                        <path fill="#000" fill-rule="nonzero" d="M149.29 157.538c3.3.834 34.104 26.655 34.104 26.655l-7.371 22.297-27.977-29.806 1.243-19.146z" opacity=".4" transform="matrix(-1 0 0 1 551.395 146.01)"/>
                        <path fill="#FFB573" fill-rule="nonzero" d="M243.131 278.76l3.785 31.672c-.946.648-11.354 6.038-11.904 3.02-1.672-9.2-5.126-28.544-5.126-28.544l13.245-6.148z" transform="matrix(-1 0 0 1 551.395 146.01)"/>
                        <path fill="#407BFF" fill-rule="nonzero" d="M249.193 309.411c-.129.039-.268-.005-.352-.11-.07-.11-.07-.251 0-.362.121-.197 2.883-4.82 5.127-5.39.42-.124.873-.073 1.254.143.464.21.745.69.704 1.196-.066.922-1.397 1.943-2.915 2.778-1.214.702-2.492 1.286-3.818 1.745zm4.4-5.039c-1.479 1.105-2.727 2.49-3.674 4.073 2.322-.922 5.281-2.602 5.402-3.667 0-.142 0-.34-.418-.581-.23-.143-.511-.18-.77-.1-.198.063-.39.144-.572.242l.033.033z" transform="matrix(-1 0 0 1 551.395 146.01)"/>
                        <path fill="#407BFF" fill-rule="nonzero" d="M248.984 309.367c-.115-.026-.204-.116-.23-.23-.056-.143-1.519-3.447-.727-5.49.254-.583.735-1.038 1.331-1.262.469-.326 1.109-.24 1.474.198.969 1.185-.396 5.28-1.452 6.708l-.099.098-.297-.022zm-.33-5.489c-.306 1.505-.133 3.067.495 4.468.946-1.69 1.771-4.797 1.1-5.489-.055 0-.187-.23-.704 0l-.154.143c-.353.189-.624.502-.759.878h.022z" transform="matrix(-1 0 0 1 551.395 146.01)"/>
                        <path fill="#263238" fill-rule="nonzero" d="M246.168 308.27l-11.64 5.785c-.507.234-.757.81-.583 1.34l2.52 10.747c.33 1.098 2.75 1.252 2.86 1.197 7.448-2.855 22.905-10.144 27.9-12.757 4.994-2.613 3.058-7.893.78-7.268-10.22 2.789-15.126 1.834-19.428.736-.8-.243-1.665-.164-2.41.22z" transform="matrix(-1 0 0 1 551.395 146.01)"/>
                        <g opacity=".2">
                            <path fill="#000" fill-rule="nonzero" d="M1.724 15.72L0.008 6.158 13.254 0.021 14.651 12.997z" transform="matrix(-1 0 0 1 551.395 146.01) translate(229.889 278.75)"/>
                        </g>
                        <path fill="#09225C" fill-rule="nonzero" d="M143.206 168.214c7.271 13.213 39.605 38.458 55.623 58.925 12.101 15.416 24.093 67.429 31.959 87.224 6.876-1.903 11.265-7.26 15.259-9.076 0 0-4.907-57.096-8.086-72.611-5.853-28.617-39.363-63.666-71.983-94.784-5.5-5.2-13.366-6.494-21.067-.808-1.408 1.007-8.746 18.302-1.705 31.13z" transform="matrix(-1 0 0 1 551.395 146.01)"/>
                        <path fill="#263238" fill-rule="nonzero" d="M179.455 127.611c-.814 2.196-4.4 1.362-3.553-.823 2.476-6.82 4.317-13.855 5.5-21.012 2.113-11.945 2.86-24.998-1.298-36.602-1.947-5.423-7.118-13.767-13.4-18.608-5.005-3.854-16.502-3.414-20.43 3.063-1.374.384-2.2.659-2.2.659.408 0-.483.274-2.079.603 3.525-6.52 10.696-10.216 18.065-9.31 4.807.648 7.635 2.02 11.496 5.292 5.892 5.113 10.261 11.744 12.63 19.168 5.61 18.18 1.837 40.038-4.73 57.57z" transform="matrix(-1 0 0 1 551.395 146.01)"/>
                        <path fill="#888" fill-rule="nonzero" d="M106.013 106.079l65.419-.056c1.968-.002 3.561 1.59 3.56 3.556l-.03 35.64c-.004 3.39-2.758 6.141-6.153 6.144l-60.25.052c-3.396.003-6.145-2.744-6.142-6.135l.03-35.64c.002-1.965 1.598-3.56 3.566-3.561z" transform="matrix(-1 0 0 1 551.395 146.01) rotate(27.04 138.704 128.719)"/>
                        <path fill="#FFF" fill-rule="nonzero" d="M106.013 106.079l65.419-.056c1.968-.002 3.561 1.59 3.56 3.556l-.03 35.64c-.004 3.39-2.758 6.141-6.153 6.144l-60.25.052c-3.396.003-6.145-2.744-6.142-6.135l.03-35.64c.002-1.965 1.598-3.56 3.566-3.561z" opacity=".3" transform="matrix(-1 0 0 1 551.395 146.01) rotate(27.04 138.704 128.719)"/>
                        <path fill="#000" fill-rule="nonzero" d="M176.155 126.975l-58.099-29.587c-1.808-.92-4.02-.208-4.95 1.592l-.605 1.197c-1.252 2.439-1.48 5.275-.634 7.882.846 2.608 2.697 4.772 5.144 6.016l46.206 23.538c5.092 2.594 11.327.58 13.928-4.502l.616-1.196c.914-1.808.197-4.013-1.606-4.94z" opacity=".2" transform="matrix(-1 0 0 1 551.395 146.01)"/>
                        <path fill="#A7A7A7" fill-rule="nonzero" d="M178.08 123.33l-58.098-29.642c-1.812-.912-4.021-.196-4.951 1.603l-.605 1.197c-1.252 2.44-1.48 5.275-.634 7.883.847 2.607 2.697 4.771 5.144 6.015l46.206 23.538c5.093 2.588 11.323.574 13.928-4.501l.616-1.197c.885-1.797.172-3.97-1.606-4.896z" transform="matrix(-1 0 0 1 551.395 146.01)"/>
                        <path fill="#ABB2C1" fill-rule="nonzero" d="M178.08 123.33l-58.098-29.642c-1.812-.912-4.021-.196-4.951 1.603l-.605 1.197c-1.252 2.44-1.48 5.275-.634 7.883.847 2.607 2.697 4.771 5.144 6.015l46.206 23.538c5.093 2.588 11.323.574 13.928-4.501l.616-1.197c.885-1.797.172-3.97-1.606-4.896z" transform="matrix(-1 0 0 1 551.395 146.01)"/>
                        <path fill="#FFF" fill-rule="nonzero" d="M178.08 123.33l-58.098-29.642c-1.812-.912-4.021-.196-4.951 1.603l-.605 1.197c-1.252 2.44-1.48 5.275-.634 7.883.847 2.607 2.697 4.771 5.144 6.015l46.206 23.538c5.093 2.588 11.323.574 13.928-4.501l.616-1.197c.885-1.797.172-3.97-1.606-4.896z" opacity=".5" transform="matrix(-1 0 0 1 551.395 146.01)"/>
                        <path fill="#407BFF" fill-rule="nonzero" d="M124.446 107.937l3.04-.003c1.076 0 1.95.872 1.95 1.949v.003l-.008 10.663c-.001 1.076-.873 1.948-1.949 1.949l-3.039.002c-1.077.001-1.95-.871-1.951-1.948v-.003l.009-10.664c0-1.076.873-1.947 1.948-1.948z" transform="matrix(-1 0 0 1 551.395 146.01) rotate(27.04 125.963 115.217)"/>
                        <path fill="#407BFF" fill-rule="nonzero" d="M155.722 123.877l3.039-.003c1.077 0 1.95.872 1.951 1.949v.003l-.009 10.663c0 1.076-.872 1.948-1.948 1.949l-3.039.002c-1.077.001-1.95-.871-1.952-1.948v-.003l.01-10.664c0-1.075.872-1.947 1.948-1.948z" transform="matrix(-1 0 0 1 551.395 146.01) rotate(27.03 157.238 131.157)"/>
                        <path fill="#000" fill-rule="nonzero" d="M124.446 107.937l3.04-.003c1.076 0 1.95.872 1.95 1.949v.003l-.008 10.663c-.001 1.076-.873 1.948-1.949 1.949l-3.039.002c-1.077.001-1.95-.871-1.951-1.948v-.003l.009-10.664c0-1.076.873-1.947 1.948-1.948z" opacity=".3" transform="matrix(-1 0 0 1 551.395 146.01) rotate(27.04 125.963 115.217)"/>
                        <path fill="#000" fill-rule="nonzero" d="M155.722 123.877l3.039-.003c1.077 0 1.95.872 1.951 1.949v.003l-.009 10.663c0 1.076-.872 1.948-1.948 1.949l-3.039.002c-1.077.001-1.95-.871-1.952-1.948v-.003l.01-10.664c0-1.075.872-1.947 1.948-1.948z" opacity=".3" transform="matrix(-1 0 0 1 551.395 146.01) rotate(27.03 157.238 131.157)"/>
                        <path fill="#000" fill-rule="nonzero" d="M106.153 137.58s20.583 12.076 27.118 1.767l-4.895 9.551-22.223-11.318z" opacity=".2" transform="matrix(-1 0 0 1 551.395 146.01)"/>
                        <path fill="#FFF" fill-rule="nonzero" d="M147.628 56.867c.473 1.439 6.227 12.57 9.285 16.402.995-1.51 2.263-2.82 3.74-3.864.887-.587 2.013-.679 2.982-.242 4.016 1.8 7.118 3.47 7.118 3.47.938-2.59 2.303-5.006 4.038-7.148 1.408-1.504 4.697 1.647 6.6 2.503-.946-5.137-5.357-13.81-10.253-16.357-4.39-2.295-26.535-4.051-23.51 5.236z" transform="matrix(-1 0 0 1 551.395 146.01)"/>
                        <path fill="#717171" fill-rule="nonzero" d="M236.53 71.49l-10.176.418c-1.066.066-2.11-.33-2.861-1.088-.753-.757-1.141-1.801-1.066-2.865l1.287-28.06c.06-.993.853-1.785 1.848-1.844l12.52-.516c1.066-.066 2.11.33 2.862 1.087.752.757 1.14 1.801 1.065 2.865l-1.177 25.71c-.145 2.309-1.988 4.149-4.301 4.293z" transform="matrix(-1 0 0 1 551.395 146.01)"/>
                        <path fill="#000" fill-rule="nonzero" d="M236.53 71.49l-10.176.418c-1.066.066-2.11-.33-2.861-1.088-.753-.757-1.141-1.801-1.066-2.865l1.287-28.06c.06-.993.853-1.785 1.848-1.844l12.52-.516c1.066-.066 2.11.33 2.862 1.087.752.757 1.14 1.801 1.065 2.865l-1.177 25.71c-.145 2.309-1.988 4.149-4.301 4.293z" opacity=".2" transform="matrix(-1 0 0 1 551.395 146.01)"/>
                        <path fill="#7A7A7A" fill-rule="nonzero" d="M237.103 71.984l-10.177.429c-1.065.062-2.106-.336-2.857-1.092-.752-.756-1.141-1.798-1.07-2.86l1.287-28.072c.055-.993.853-1.784 1.848-1.833l12.52-.527c1.065-.063 2.106.335 2.858 1.091.751.756 1.14 1.798 1.07 2.86l-1.178 25.712c-.135 2.312-1.984 4.157-4.301 4.292z" transform="matrix(-1 0 0 1 551.395 146.01)"/>
                        <path fill="#FFF" fill-rule="nonzero" d="M237.004 71.995l-9.968.407c-1.09.061-2.155-.345-2.926-1.117-.771-.772-1.176-1.835-1.111-2.923l1.287-27.885c.07-1.041.904-1.868 1.947-1.932l12.31-.505c1.092-.065 2.16.34 2.931 1.112.772.773 1.176 1.839 1.107 2.928l-1.177 25.535c-.146 2.36-2.035 4.24-4.4 4.38z" opacity=".5" transform="matrix(-1 0 0 1 551.395 146.01)"/>
                        <path fill="#FFF" fill-rule="nonzero" d="M234.847 55.55c-.05 1.191-1.006 2.145-2.2 2.196-.537.036-1.064-.162-1.444-.543-.38-.381-.576-.908-.536-1.444.06-1.187 1.01-2.136 2.2-2.196.536-.03 1.058.171 1.436.55.379.38.577.903.544 1.437z" transform="matrix(-1 0 0 1 551.395 146.01)"/>
                        <path fill="#FFB573" fill-rule="nonzero" d="M242.031 76.255l1.607-3.293c1.954-3.798 1.268-8.415-1.706-11.484l-3.575-3.36s-6.04 14.152-4.533 14.328c.748.087 1.1 1.46 3.697 3.161 1.3.955 2.993 1.198 4.51.648z" transform="matrix(-1 0 0 1 551.395 146.01)"/>
                        <path fill="#FFB573" fill-rule="nonzero" d="M238.357 58.097s-4.742-.944-6.062.67c-1.32 1.613-2.2 8.266-2.31 9.145-.22 2.338 3.84 4.512 3.84 4.512l4.532-14.327z" transform="matrix(-1 0 0 1 551.395 146.01)"/>
                        <path fill="#001443" fill-rule="nonzero" d="M152.238 40.257c-4.104-3.172-7.767-7.125-9.56-12.02-1.926-5.227-1.288-11.67 2.607-15.601.319-.307.737-.637 1.155-.483.31.18.53.484.605.834.088.22.165.461.242.692.077.23.176.516.253.78-.514 1.049-.905 2.154-1.166 3.293-.486 2.17-.467 4.424.055 6.587.374 1.625.693 3.085 1.023 4.446 1.232 5.248 2.288 8.541 4.786 11.472z" transform="matrix(-1 0 0 1 551.395 146.01)"/>
                        <path fill="#263238" fill-rule="nonzero" d="M153.085 40.905l-.825-.626c-2.498-2.887-3.554-6.268-4.786-11.516-.33-1.361-.649-2.821-1.023-4.446-.522-2.163-.54-4.416-.055-6.587.26-1.139.652-2.244 1.166-3.294 1.463 4.666 1.848 9.562 2.497 14.382.396 4.158 1.416 8.232 3.026 12.087z" transform="matrix(-1 0 0 1 551.395 146.01)"/>
                        <path fill="#FFB573" fill-rule="nonzero" d="M153.91 35.13c.825 5.413 1.551 13.02-1.21 17.456-.998 1.52-.972 3.491.066 4.984 1.848 2.547 5.996 6.334 15.336 10.484 2.552-3.425 3.421-6.159 3.52-8.222.074-2.405-1.368-4.6-3.608-5.49-4.489-1.888-4.115-4.545-2.927-8.705L153.91 35.13z" transform="matrix(-1 0 0 1 551.395 146.01)"/>
                        <path fill="#000" fill-rule="nonzero" d="M158.42 39.401l6.601 6.28c-.333 1.096-.569 2.22-.704 3.359-2.585-.483-6.6-2.876-6.986-5.753.045-1.364.418-2.697 1.09-3.886z" opacity=".2" transform="matrix(-1 0 0 1 551.395 146.01)"/>
                        <path fill="#FFB573" fill-rule="nonzero" d="M177.002 34.098c-.298 6.522-5.513 11.75-12.047 12.077h-.077c-2.451.11-4.89-.42-7.074-1.537-.81-.408-1.583-.886-2.31-1.428-.297-.208-.594-.439-.858-.658-.862-.689-1.658-1.457-2.376-2.295-2.498-2.887-3.554-6.268-4.786-11.516-.33-1.361-.649-2.821-1.023-4.446-.522-2.163-.54-4.416-.055-6.587.26-1.139.652-2.244 1.166-3.294.226-.463.484-.91.77-1.339 3.14-4.979 9.1-7.421 14.841-6.082 4.808 1.098 8.24 4.776 10.495 9.409.22.46.43.933.628 1.405 2.102 5.163 3.027 10.728 2.706 16.291z" transform="matrix(-1 0 0 1 551.395 146.01)"/>
                        <path fill="#263238" fill-rule="nonzero" d="M162.986 24.251c.154.834.704 1.438 1.232 1.361.528-.077.858-.856.726-1.69-.132-.835-.693-1.439-1.22-1.362-.529.077-.826.89-.738 1.691zM172.293 22.692c.143.856.693 1.438 1.221 1.361.529-.076.87-.856.738-1.69-.132-.835-.694-1.438-1.233-1.34-.539.1-.858.835-.726 1.67z" transform="matrix(-1 0 0 1 551.395 146.01)"/>
                        <path fill="#ED893E" fill-rule="nonzero" d="M169.675 24.701c1.053 1.778 2.34 3.406 3.828 4.841-.742.765-1.784 1.167-2.849 1.098l-.979-5.939z" transform="matrix(-1 0 0 1 551.395 146.01)"/>
                        <path fill="#263238" fill-rule="nonzero" d="M166.716 34.636c.413-.003.825-.04 1.232-.11.13-.022.222-.142.209-.274-.028-.131-.153-.218-.286-.197-2.075.385-4.21-.244-5.743-1.691-.046-.048-.11-.076-.176-.076-.067 0-.13.028-.176.076-.095.098-.095.253 0 .351 1.317 1.283 3.1 1.977 4.94 1.921zM158.938 22.977c.214.008.406-.133.462-.34.67-1.48 1.925-2.616 3.465-3.14.263-.084.41-.362.33-.625-.036-.125-.12-.23-.233-.291-.114-.062-.248-.076-.372-.039-1.86.603-3.362 1.992-4.103 3.799-.08.254.064.525.319.604.04.023.085.034.132.032zM174.362 17.85c.231.008.437-.146.495-.37.058-.223-.047-.457-.253-.563-1.352-.865-3.054-.98-4.511-.307-.232.114-.334.39-.231.626.056.115.158.203.28.242.123.04.256.027.37-.034 1.154-.483 2.473-.372 3.53.297.088.077.203.117.32.11z" transform="matrix(-1 0 0 1 551.395 146.01)"/>
                        <path fill="#001443" fill-rule="nonzero" d="M152.689 31.376c-.407.582-1.936-2.415-2.652-2.536-.854-.143-1.722-.176-2.585-.099-.33-1.361-.649-2.821-1.023-4.446-.522-2.163-.54-4.416-.055-6.587.26-1.139.652-2.244 1.166-3.294-.077-.263-.154-.527-.253-.779.319-.218.658-.406 1.012-.56.81-.353 1.698-.482 2.575-.373 1.323.259 2.44 1.137 3.003 2.36-3.29 6.895.143 14.48-1.188 16.314z" opacity=".2" transform="matrix(-1 0 0 1 551.395 146.01)"/>
                        <path fill="#001443" fill-rule="nonzero" d="M152.084 1.998c-3.559.997-6.64 3.237-8.68 6.313-1.2 1.91-1.904 4.775-.55 6.499 1.1 1.427 3.069 1.284 4.73 1.043l21.486-3.217c2.475-.373 5.105-.823 6.975-2.767 1.674-1.85 2.433-4.35 2.068-6.817.1.68-6.04 1.032-6.6.999-2.385-.186-4.705-.866-6.81-1.998-3.917-2.053-8.483-1.328-12.62-.055z" transform="matrix(-1 0 0 1 551.395 146.01)"/>
                        <path fill="#FFB573" fill-rule="nonzero" d="M144.988 32.671c.932 1.731 2.515 3.022 4.4 3.59 2.498.703 3.752-1.559 3.059-3.974-.638-2.196-2.685-5.138-5.193-4.83-1.121.21-2.062.968-2.504 2.017-.443 1.05-.329 2.25.304 3.197h-.066z" transform="matrix(-1 0 0 1 551.395 146.01)"/>
                        <path fill="#001443" fill-rule="nonzero" d="M153.888 15.018s-.1 1.537-.154 2.942c-.032 1.198-.867 2.225-2.035 2.503l-6.854 1.636s-3.246-5.665-.275-6.697c2.97-1.031 9.45-2.349 9.318-.384z" transform="matrix(-1 0 0 1 551.395 146.01)"/>
                        <path fill="#FFB573" fill-rule="nonzero" d="M137.43 145.736l8.416 11.725s9.67-5.214 10.341-6.06c0 0-2.442-5.698-7.063-8.124l-4.4-1.877-7.294 4.336z" transform="matrix(-1 0 0 1 551.395 146.01)"/>
                        <path fill="#FFB573" fill-rule="nonzero" d="M144.438 155.595l11.474-4.578 2.905 4.699c.254.417.316.923.171 1.39-.145.465-.484.847-.93 1.047l-6.14 2.711c-1.324.59-2.88.226-3.806-.889l-3.674-4.38z" transform="matrix(-1 0 0 1 551.395 146.01)"/>
                        <path fill="#FFB130" fill-rule="nonzero" d="M122.292 68.263c-5.237 12.142-11.299 23-9.99 35.668 1.244 12.076 15.832 34.78 24.655 43.156-1.375-.615 11.298-6.137 11.298-6.137-.143-3.875-13.268-26.546-17.8-36.086-3.07-6.466 17.79-29.96 16.227-37.326-3.983-18.915-20.903-7.333-24.39.725z" transform="matrix(-1 0 0 1 551.395 146.01)"/>
                    </g>
                </g>
            </g>
        </g>
    </g>
</svg>
