<svg xmlns="http://www.w3.org/2000/svg" width="596" height="449" viewBox="0 0 596 449">
    <g fill="none" fill-rule="evenodd">
        <g>
            <g>
                <path stroke="#9FB8FC" stroke-dasharray="6 6" stroke-width="4" d="M83.127 191.893C41.525 152.38 185.547 289.076 256.847 260c47.534-19.384 73.867-57.717 79-115" transform="translate(-732 -1073) translate(732 1073)"/>
                <g>
                    <path fill="#002F34" d="M0 4L304.776 4 323 21.5 323 145 0 145z" opacity=".08" transform="translate(-732 -1073) translate(732 1073) translate(241.846)"/>
                    <path fill="#FFF" d="M4 0L305.001 0 323 17.5 323 141 4 141z" transform="translate(-732 -1073) translate(732 1073) translate(241.846)"/>
                    <path fill="#001443" fill-rule="nonzero" d="M35.71 45.234c1.892 0 3.395-.42 4.513-1.26 1.117-.84 1.675-1.997 1.675-3.474 0-1.328-.457-2.438-1.37-3.328-.915-.89-2.372-1.637-4.372-2.238-1.086-.329-1.908-.68-2.467-1.055-.558-.375-.837-.84-.837-1.395 0-.593.238-1.072.714-1.435.477-.363 1.145-.545 2.004-.545.89 0 1.582.217 2.075.65.492.434.738 1.041.738 1.823h3.515c0-1.024-.263-1.938-.79-2.743-.528-.804-1.268-1.427-2.221-1.869-.953-.441-2.04-.662-3.258-.662-1.211 0-2.303.203-3.275.61-.973.406-1.72.97-2.239 1.693-.52.723-.78 1.545-.78 2.467 0 1.773.97 3.183 2.907 4.23.711.383 1.676.772 2.895 1.166 1.218.395 2.062.77 2.531 1.125.469.356.703.865.703 1.53 0 .609-.234 1.083-.703 1.423-.469.34-1.121.51-1.957.51-2.25 0-3.375-.941-3.375-2.824h-3.527c0 1.101.283 2.07.85 2.906.566.836 1.388 1.494 2.466 1.975 1.078.48 2.273.72 3.586.72zm12.153 0c1.313 0 2.38-.457 3.2-1.37.07.452.183.831.34 1.136h3.421v-.2c-.328-.616-.496-1.527-.504-2.73v-5.496c0-1.422-.459-2.525-1.377-3.31-.918-.785-2.158-1.178-3.72-1.178-1.032 0-1.961.178-2.79.533-.828.356-1.468.846-1.921 1.47-.453.626-.68 1.306-.68 2.04h3.387c0-.477.162-.852.486-1.125.324-.274.772-.41 1.342-.41.648 0 1.123.176 1.424.527.3.352.45.82.45 1.406v.727h-1.558c-1.883.008-3.322.371-4.318 1.09-.996.718-1.494 1.75-1.494 3.093 0 1.094.408 2 1.224 2.72.817.718 1.846 1.077 3.088 1.077zm.739-2.59c-.516 0-.922-.136-1.22-.41-.296-.273-.444-.62-.444-1.043l.011-.199c.11-1.172 1.012-1.758 2.707-1.758h1.266v2.18c-.203.375-.516.674-.938.897-.422.222-.882.334-1.382.334zM60.496 45V27h-3.398v18h3.398zm8.625.234c1.055 0 2.016-.2 2.883-.603.867-.402 1.555-.963 2.062-1.682l-1.664-1.863c-.734.945-1.754 1.418-3.058 1.418-.844 0-1.541-.25-2.092-.75-.55-.5-.88-1.164-.99-1.992h8.074v-1.383c0-2.008-.498-3.559-1.494-4.652-.996-1.094-2.362-1.641-4.096-1.641-1.156 0-2.185.271-3.088.814-.902.543-1.6 1.317-2.092 2.32-.492 1.005-.738 2.143-.738 3.417v.328c0 1.898.584 3.418 1.752 4.558 1.168 1.141 2.682 1.711 4.541 1.711zm1.887-7.78h-4.711c.117-.845.385-1.493.803-1.946.418-.453.963-.68 1.634-.68.72 0 1.274.205 1.664.615.391.41.594.99.61 1.74v.27zm10.078 7.78c1.57 0 2.852-.357 3.844-1.072.992-.715 1.488-1.65 1.488-2.807 0-1.617-.895-2.753-2.684-3.41-.578-.21-1.289-.4-2.132-.568-.844-.168-1.444-.367-1.8-.598-.355-.23-.532-.533-.532-.908 0-.398.156-.726.468-.984.313-.258.754-.387 1.325-.387.664 0 1.152.158 1.464.475.313.316.47.716.47 1.2h3.386c0-1.21-.483-2.195-1.447-2.952-.965-.758-2.252-1.137-3.862-1.137-1.508 0-2.728.377-3.662 1.13-.933.755-1.4 1.694-1.4 2.82 0 1.929 1.508 3.21 4.523 3.843.906.187 1.565.4 1.975.639.41.238.615.564.615.978 0 .399-.166.72-.498.967-.332.246-.822.369-1.47.369-.696 0-1.25-.16-1.665-.48-.414-.32-.637-.782-.668-1.383h-3.21c0 .765.234 1.478.702 2.138.47.66 1.116 1.18 1.94 1.559.824.379 1.767.568 2.83.568zM106.234 45v-2.824h-7.921v-4.57h6.75v-2.754h-6.75v-4.067h7.898v-2.848H94.797V45h11.437zm4.43 0l2.25-3.984L115.176 45h3.633l-3.762-6.469 3.61-6.21h-3.622l-2.133 3.784-2.086-3.785h-3.632l3.597 6.211L107.02 45h3.644zm15.457.234c1.055 0 2.016-.2 2.883-.603.867-.402 1.555-.963 2.062-1.682l-1.664-1.863c-.734.945-1.754 1.418-3.058 1.418-.844 0-1.541-.25-2.092-.75-.55-.5-.88-1.164-.99-1.992h8.074v-1.383c0-2.008-.498-3.559-1.494-4.652-.996-1.094-2.362-1.641-4.096-1.641-1.156 0-2.185.271-3.088.814-.902.543-1.6 1.317-2.092 2.32-.492 1.005-.738 2.143-.738 3.417v.328c0 1.898.584 3.418 1.752 4.558 1.168 1.141 2.682 1.711 4.541 1.711zm1.887-7.78h-4.711c.117-.845.385-1.493.803-1.946.418-.453.963-.68 1.634-.68.72 0 1.274.205 1.664.615.391.41.594.99.61 1.74v.27zm10.582 7.78c.969 0 1.853-.197 2.654-.591.8-.395 1.432-.95 1.893-1.664.46-.715.695-1.502.703-2.362h-3.176c-.016.57-.219 1.028-.61 1.371-.39.344-.898.516-1.523.516-.812 0-1.418-.285-1.816-.856-.399-.57-.598-1.507-.598-2.812v-.352c0-1.289.201-2.22.604-2.795.402-.574.998-.86 1.787-.86.64 0 1.156.204 1.547.614.39.41.593.944.61 1.6h3.175c-.016-1.5-.502-2.701-1.46-3.604-.956-.902-2.228-1.353-3.814-1.353-1.812 0-3.238.582-4.277 1.746-1.039 1.164-1.559 2.723-1.559 4.676v.222c0 2.032.524 3.624 1.57 4.776 1.048 1.152 2.477 1.728 4.29 1.728zm11.308 0c1.477 0 2.633-.507 3.47-1.523L153.46 45h3.187V32.32h-3.398v8.977c-.43.797-1.219 1.195-2.367 1.195-1.203 0-1.805-.66-1.805-1.98V32.32h-3.387v8.309c.016 1.508.381 2.652 1.096 3.434.715.78 1.752 1.171 3.111 1.171zm13.606 0c.703 0 1.387-.101 2.05-.304v-2.567c-.288.055-.62.082-.995.082-.508 0-.852-.101-1.032-.304-.18-.203-.27-.54-.27-1.008v-6.328h2.169V32.32h-2.168v-3.117h-3.387v3.117h-1.851v2.485h1.851v6.832c.047 2.398 1.258 3.597 3.633 3.597zm5.684-14.437c.57 0 1.029-.164 1.376-.492.348-.328.522-.75.522-1.266 0-.508-.172-.926-.516-1.254-.343-.328-.804-.492-1.382-.492-.586 0-1.05.164-1.39.492-.339.328-.509.746-.509 1.254 0 .516.174.938.522 1.266.347.328.806.492 1.376.492zM170.887 45V32.32h-3.399V45h3.399zm9.152 0l4.277-12.68h-3.539l-2.355 8.543-2.356-8.543h-3.539L176.805 45h3.234zm11.602.234c1.054 0 2.015-.2 2.882-.603.868-.402 1.555-.963 2.063-1.682l-1.664-1.863c-.734.945-1.754 1.418-3.059 1.418-.843 0-1.54-.25-2.092-.75-.55-.5-.88-1.164-.99-1.992h8.074v-1.383c0-2.008-.498-3.559-1.494-4.652-.996-1.094-2.361-1.641-4.095-1.641-1.157 0-2.186.271-3.088.814-.903.543-1.6 1.317-2.092 2.32-.492 1.005-.738 2.143-.738 3.417v.328c0 1.898.584 3.418 1.752 4.558 1.168 1.141 2.681 1.711 4.54 1.711zm1.886-7.78h-4.71c.117-.845.384-1.493.802-1.946.418-.453.963-.68 1.635-.68.719 0 1.273.205 1.664.615.39.41.594.99.61 1.74v.27z" transform="translate(-732 -1073) translate(732 1073) translate(241.846)"/>
                    <path fill="#1b2d93" fill-rule="nonzero" d="M33.54 69v-4.242l3.92-7.133h-1.702l-2.969 5.71-2.953-5.71h-1.719l3.922 7.133V69h1.5zm8.632.156c.76 0 1.433-.182 2.02-.547.585-.364 1.036-.873 1.351-1.527.315-.654.473-1.392.473-2.215v-.101c0-1.323-.356-2.383-1.067-3.18-.71-.797-1.642-1.195-2.793-1.195-.745 0-1.407.18-1.988.539-.58.36-1.034.87-1.36 1.53-.325.662-.488 1.407-.488 2.235v.102c0 1.312.356 2.367 1.067 3.164.71.797 1.639 1.195 2.785 1.195zm0-1.18c-.73 0-1.311-.283-1.746-.851-.435-.568-.653-1.32-.653-2.258 0-1.057.22-1.87.657-2.437.437-.568 1.013-.852 1.726-.852.73 0 1.314.288 1.754.863.44.576.66 1.327.66 2.254 0 1.037-.216 1.843-.648 2.418-.432.576-1.016.864-1.75.864zm8.398 1.18c1.089 0 1.914-.33 2.477-.992l.031.836h1.375v-8.453h-1.445v6.148c-.365.823-1.1 1.235-2.203 1.235-1.042 0-1.563-.64-1.563-1.922v-5.461h-1.445v5.5c.005 1.026.243 1.8.715 2.324.471.524 1.157.785 2.058.785zM58.094 69v-6c.338-.807.982-1.21 1.93-1.21.255 0 .492.017.71.054V60.5c-.145-.073-.359-.11-.64-.11-.87 0-1.542.378-2.016 1.133l-.023-.976h-1.407V69h1.446zm12.21.156c1.24 0 2.234-.327 2.981-.98.748-.654 1.192-1.582 1.332-2.785H73.11c-.145.937-.441 1.595-.886 1.972-.446.378-1.085.567-1.918.567-.927 0-1.649-.365-2.164-1.094-.516-.73-.774-1.711-.774-2.945v-1.102c0-1.307.272-2.315.817-3.023.544-.709 1.295-1.063 2.254-1.063.78 0 1.389.203 1.824.61.435.406.717 1.062.847 1.968h1.508c-.12-1.192-.544-2.126-1.273-2.8-.73-.675-1.698-1.012-2.906-1.012-.912 0-1.714.215-2.407.644-.692.43-1.228 1.046-1.605 1.848-.378.802-.567 1.732-.567 2.789v1.094c0 1.614.405 2.903 1.215 3.867.81.963 1.887 1.445 3.23 1.445zm9.602 0c.76 0 1.434-.182 2.02-.547.586-.364 1.036-.873 1.351-1.527.315-.654.473-1.392.473-2.215v-.101c0-1.323-.355-2.383-1.066-3.18-.711-.797-1.642-1.195-2.793-1.195-.745 0-1.408.18-1.989.539-.58.36-1.034.87-1.359 1.53-.326.662-.488 1.407-.488 2.235v.102c0 1.312.355 2.367 1.066 3.164.711.797 1.64 1.195 2.785 1.195zm0-1.18c-.729 0-1.31-.283-1.746-.851-.435-.568-.652-1.32-.652-2.258 0-1.057.219-1.87.656-2.437.438-.568 1.013-.852 1.727-.852.729 0 1.313.288 1.754.863.44.576.66 1.327.66 2.254 0 1.037-.216 1.843-.649 2.418-.432.576-1.015.864-1.75.864zM87 69v-6.172c.349-.807.997-1.21 1.945-1.21 1.203 0 1.805.614 1.805 1.843V69h1.453v-5.61c.057-.541.263-.972.617-1.292.354-.32.8-.48 1.336-.48.651 0 1.115.149 1.39.448.277.3.415.752.415 1.356V69h1.445v-5.664c-.031-1.964-.974-2.945-2.828-2.945-.614 0-1.147.125-1.598.375-.45.25-.816.578-1.097.984-.427-.906-1.232-1.36-2.414-1.36-1.052 0-1.888.365-2.508 1.094l-.04-.937h-1.366V69H87zm14.031 3.25v-4.07c.589.65 1.396.976 2.422.976 1.005 0 1.802-.393 2.39-1.18.59-.786.884-1.822.884-3.109v-.133c0-1.364-.296-2.43-.887-3.195-.591-.766-1.395-1.148-2.41-1.148-1.047 0-1.865.364-2.453 1.093l-.07-.937h-1.321V72.25h1.445zm1.985-4.273c-.891 0-1.552-.386-1.985-1.157v-4.039c.438-.776 1.094-1.164 1.969-1.164.708 0 1.266.276 1.672.828.406.552.61 1.305.61 2.258 0 1.083-.205 1.9-.614 2.45-.409.549-.96.824-1.652.824zm8.156 1.18c.932 0 1.734-.35 2.406-1.048.052.427.12.724.203.891h1.516v-.125c-.198-.458-.297-1.076-.297-1.852v-3.89c-.02-.854-.307-1.525-.86-2.012-.551-.487-1.314-.73-2.288-.73-.615 0-1.179.114-1.692.343-.513.23-.92.54-1.219.934-.3.393-.449.8-.449 1.223h1.453c0-.37.175-.685.524-.946.349-.26.781-.39 1.297-.39.588 0 1.033.15 1.336.449.302.3.453.702.453 1.207v.664h-1.407c-1.213 0-2.155.243-2.824.73-.67.487-1.004 1.171-1.004 2.051 0 .724.267 1.322.801 1.793.534.472 1.218.707 2.05.707zm.21-1.259c-.473 0-.861-.127-1.163-.382-.302-.256-.453-.61-.453-1.063 0-1.036.885-1.555 2.656-1.555h1.133v1.735c-.183.375-.477.68-.883.914-.406.234-.836.351-1.29.351zM118.712 69v-6.023c.198-.407.474-.735.828-.985s.766-.375 1.234-.375c.579 0 1.004.146 1.278.438.273.291.413.742.418 1.351V69h1.445v-5.586c-.016-2.016-.917-3.023-2.703-3.023-1.042 0-1.885.406-2.531 1.218l-.047-1.062h-1.367V69h1.445zm7.758 3.414c1.146 0 1.982-.703 2.508-2.11l3.398-9.757h-1.547l-1.969 6.336-2.109-6.336h-1.578l3.016 8.36-.32.859c-.178.526-.403.888-.677 1.086-.273.197-.655.296-1.144.296l-.39-.03v1.171l.538.102.274.023z" transform="translate(-732 -1073) translate(732 1073) translate(241.846)"/>
                    <path fill="#F2F4F5" d="M28 92H256V102H28zM28 112H216V122H28z" transform="translate(-732 -1073) translate(732 1073) translate(241.846)"/>
                </g>
                <g fill-rule="nonzero">
                    <g transform="translate(-732 -1073) translate(732 1073) translate(0 146) rotate(-20 107.031 17.434)">
                        <path fill="#CAD8FB" d="M83.591 3.824H9.697C4.595 3.824.46 8.647.46 14.598V171.55c0 5.951 4.135 10.775 9.237 10.775H83.59c5.102 0 9.237-4.824 9.237-10.775V150l-27.71-67.7 27.71-67.7c0-5.952-4.135-10.775-9.237-10.775z"/>
                        <path fill="#13624E" d="M99.552 1.573h-9.474v175.263h9.474c5.232 0 9.474-4.736 9.474-10.579V12.152c0-5.843-4.242-10.579-9.474-10.579z"/>
                        <path fill="#489481" d="M92.691.75H18.796C13.695.75 9.56 5.575 9.56 11.526v156.951c0 5.951 4.135 10.775 9.236 10.775h73.895c5.102 0 9.237-4.824 9.237-10.775v-21.55l-27.71-67.7 27.71-67.7c0-5.952-4.135-10.775-9.237-10.775z"/>
                        <path fill="#13624E" d="M65.095 161.43c0-2.616-2.121-4.737-4.737-4.737h-9.474c-2.616 0-4.737 2.121-4.737 4.737s2.121 4.737 4.737 4.737h9.474c2.616 0 4.737-2.121 4.737-4.737z"/>
                        <path fill="#489481" d="M59.391 77.265L91.08 143.827 101.525 143.638 101.82 11.255 90.707 11.265z"/>
                        <path fill="#FFFBEF" d="M72.1 11.544l-6.489 7.463c-1.668 1.909-3.96 3.091-6.49 3.091-2.528 0-4.821-1.182-6.483-3.09-.006 0-6.495-7.464-6.495-7.464h-28.32v132.632h73.42V11.544H72.101z"/>
                        <circle cx="59.712" cy="11.694" r="2.368" fill="#13624E"/>
                    </g>
                    <g>
                        <path fill="#AA133D" d="M64.585 6.234H8.03c-4.26 0-7.712 3.453-7.712 7.712l.388 26.906c0 4.26 3.453 7.713 7.712 7.713h9.126l-1.398 12.57c-.156 1.412.862 2.682 2.273 2.838.729.08 1.457-.154 2.002-.645l16.406-14.763h28.147c4.26 0 7.712-3.453 7.712-7.713l-.388-26.906c0-4.26-3.453-7.712-7.713-7.712z" opacity=".08" transform="translate(-732 -1073) translate(732 1073) translate(0 146) rotate(-20 222.118 -183.619)"/>
                        <path fill="#FFB130" d="M71.38.725H14.822c-4.259 0-7.712 3.453-7.712 7.712L7.5 35.344c0 4.26 3.453 7.712 7.712 7.712h9.126l-1.398 12.57c-.156 1.412.862 2.682 2.273 2.838.728.08 1.457-.154 2.002-.644L43.62 43.056h28.147c4.26 0 7.712-3.453 7.712-7.712l-.389-26.907c0-4.259-3.453-7.712-7.712-7.712z" transform="translate(-732 -1073) translate(732 1073) translate(0 146) rotate(-20 222.118 -183.619)"/>
                    </g>
                </g>
                <path stroke="#9FB8FC" stroke-dasharray="6 6" stroke-width="4" d="M402.847 145c-22.513 41.826-20.68 67.992 5.5 78.5 49 19.667 62.834 52.167 41.5 97.5M469.347 141c-24.176 25.21-29.342 44.877-15.5 59 13.843 14.123 43.676 19.623 89.5 16.5" transform="translate(-732 -1073) translate(732 1073)"/>
                <g fill-rule="nonzero">
                    <path fill="#EAEAEA" d="M18.623 61.276L30.638 50.18 42.654 48.206 80 0.052 49.311 9.848 18.623 17.868 13.08 30.363 20.008 39.923z" transform="translate(-732 -1073) translate(732 1073) translate(515.847 165)"/>
                    <path fill="#D5DFF9" d="M80 .052L13.08 30.363 2.112 23.747c-3.403-2.054-2.514-7.216 1.38-8.015L80 .052z" transform="translate(-732 -1073) translate(732 1073) translate(515.847 165)"/>
                    <path fill="#265AE3" d="M42.654 48.206L18.623 61.276 27.535 39.084z" transform="translate(-732 -1073) translate(732 1073) translate(515.847 165)"/>
                    <path fill="#D5DFF9" d="M80 .052L60.213 52.768c-.959 2.557-4.003 3.615-6.342 2.205l-11.217-6.767-15.119-9.122L80 .052z" transform="translate(-732 -1073) translate(732 1073) translate(515.847 165)"/>
                    <path fill="#517CE9" d="M80 0.052L27.535 39.084 18.623 61.276 13.08 30.363z" transform="translate(-732 -1073) translate(732 1073) translate(515.847 165)"/>
                </g>
                <g fill-rule="nonzero" transform="translate(-732 -1073) translate(732 1073) rotate(28 -318.95 788.552)">
                    <path fill="#CAD8FB" d="M.554 16.318c0-4.457 3.613-8.07 8.07-8.07h127.861c4.457 0 8.07 3.613 8.07 8.07V144.18c0 4.457-3.613 8.069-8.07 8.069H8.623c-4.456 0-8.069-3.612-8.069-8.07V16.319z"/>
                    <g>
                        <path fill="#FFF" d="M135.93 144.207H8.07c-4.458 0-8.07-3.612-8.07-8.07V30h144v106.138c0 4.457-3.612 8.069-8.07 8.069z" transform="translate(8.4)"/>
                        <g>
                            <path fill="#F2F4F5" d="M6 0H42V36H6z" transform="translate(8.4) translate(49.2 68.4)"/>
                            <path fill="#D8DFE0" d="M24 21.786L42 36 42 7.938z" transform="translate(8.4) translate(49.2 68.4)"/>
                            <path fill="#ED5B5B" d="M43.5 0H42L24 14.214 6 0H4.5C2.016 0 0 2.016 0 4.5v27C0 33.984 2.016 36 4.5 36H6V7.938l18 13.845L42 7.935V36h1.5c2.484 0 4.5-2.016 4.5-4.5v-27C48 2.016 45.984 0 43.5 0z" transform="translate(8.4) translate(49.2 68.4)"/>
                        </g>
                        <path fill="#F60" d="M144 29.793H0V8.07C0 3.612 3.612 0 8.07 0h127.86c4.458 0 8.07 3.612 8.07 8.07v21.723z" transform="translate(8.4)"/>
                    </g>
                    <rect width="9.931" height="9.931" x="18.331" y="9.931" fill="#FF8169" rx="4.965"/>
                    <rect width="9.931" height="9.931" x="38.193" y="9.931" fill="#FFCE32" rx="4.965"/>
                    <rect width="9.931" height="9.931" x="58.055" y="9.931" fill="#16C7BF" rx="4.965"/>
                </g>
            </g>
        </g>
    </g>
</svg>
