<svg xmlns="http://www.w3.org/2000/svg" width="64" height="65" viewBox="0 0 64 65">
    <g fill="none" fill-rule="evenodd">
        <g>
            <g>
                <g>
                    <path d="M0 0H64V64H0z" transform="translate(-152 -2625) translate(152 2512) translate(0 113)"/>
                    <path fill="#1b2d93" fill-rule="nonzero" d="M19.813 45.563L19.813 0 18.844 0 0 6.75 0 14.094 10.781 10.75 10.781 45.563z" opacity=".32" transform="translate(-152 -2625) translate(152 2512) translate(0 113)"/>
                    <g fill-rule="nonzero">
                        <path fill="#D9B238" d="M54.973 50.826c-.55.796-1.455 1.27-2.422 1.267H2.981c-.9 0-1.75-.41-2.31-1.116-.56-.706-.766-1.628-.56-2.505L9.54 8.174c.313-1.334 1.502-2.277 2.872-2.277H43.12c1.37 0 2.56.943 2.872 2.277l9.43 40.298c.194.813.03 1.67-.45 2.354z" transform="translate(-152 -2625) translate(152 2512) translate(0 113) translate(8 12)"/>
                        <path fill="#FFCE32" d="M36.613 42.264L45.459 42.264 34.647 52.093 28.749 52.093z" transform="translate(-152 -2625) translate(152 2512) translate(0 113) translate(8 12)"/>
                        <path fill="#FFEDB2" d="M44.61 9.518l-1.222 5.225-8.208 35.073c-.312 1.334-1.502 2.277-2.871 2.277H2.982c-.9 0-1.752-.41-2.311-1.116-.56-.706-.766-1.628-.56-2.505l7.893-33.729 1.537-6.57c.313-1.333 1.502-2.276 2.872-2.276H41.74c.9 0 1.751.411 2.31 1.117.56.705.766 1.627.56 2.504z" transform="translate(-152 -2625) translate(152 2512) translate(0 113) translate(8 12)"/>
                        <path fill="#AD9039" d="M54.973 50.826c-.55.796-1.455 1.27-2.422 1.267H34.647l10.812-9.829 9.514 8.562z" transform="translate(-152 -2625) translate(152 2512) translate(0 113) translate(8 12)"/>
                        <path fill="#FFEDB2" d="M44.61 9.518l-1.222 5.225H8.004l1.537-6.57c.313-1.333 1.502-2.276 2.872-2.276H41.74c.9 0 1.751.411 2.31 1.117.56.705.766 1.627.56 2.504z" transform="translate(-152 -2625) translate(152 2512) translate(0 113) translate(8 12)"/>
                        <path fill="#AD9039" d="M22.852 5.002v.895h-2.949v-.983c.001-.524-.208-1.027-.58-1.396-.372-.37-.877-.574-1.401-.57-1.092.028-1.96.925-1.95 2.017V6.88c0 .754.43 1.441 1.108 1.77.628.29.97.979.824 1.655-.147.677-.743 1.162-1.436 1.167-.21 0-.417-.047-.607-.137-1.731-.807-2.838-2.544-2.838-4.455V4.914C13.01 2.83 14.323.966 16.29.275c1.968-.69 4.156-.055 5.449 1.581.719.891 1.111 2.001 1.113 3.146z" transform="translate(-152 -2625) translate(152 2512) translate(0 113) translate(8 12)"/>
                        <path fill="#AD9039" d="M22.852 5.002v.895h-1.966v-.983c-.003-1.078.292-2.136.853-3.058.719.891 1.111 2.001 1.113 3.146z" transform="translate(-152 -2625) translate(152 2512) translate(0 113) translate(8 12)"/>
                        <path fill="#AD9039" d="M31.698 5.002v.895H28.75v-.983c.001-.524-.208-1.027-.58-1.396-.372-.37-.877-.574-1.401-.57-1.092.028-1.96.925-1.95 2.017V6.88c0 .754.43 1.441 1.108 1.77.628.29.97.979.824 1.655-.147.677-.743 1.162-1.436 1.167-.21 0-.417-.047-.607-.137-1.731-.807-2.838-2.544-2.838-4.455V4.914C21.856 2.83 23.17.966 25.136.275c1.968-.69 4.156-.055 5.449 1.581.719.891 1.111 2.001 1.113 3.146z" transform="translate(-152 -2625) translate(152 2512) translate(0 113) translate(8 12)"/>
                        <path fill="#AD9039" d="M31.698 5.002v.895h-1.966v-.983c-.003-1.078.292-2.136.853-3.058.719.891 1.111 2.001 1.113 3.146z" transform="translate(-152 -2625) translate(152 2512) translate(0 113) translate(8 12)"/>
                        <path fill="#AD9039" d="M40.544 5.002v.895h-2.949v-.983c.001-.524-.208-1.027-.58-1.396-.372-.37-.877-.574-1.401-.57-1.092.027-1.96.925-1.95 2.017V6.88c0 .754.43 1.441 1.109 1.77.519.244.852.765.857 1.339.002.5-.25.968-.67 1.24-.42.273-.95.313-1.407.107-1.731-.808-2.838-2.545-2.838-4.456V4.914C30.716 2.214 32.896.02 35.597 0c2.721-.018 4.947 2.28 4.947 5.002z" transform="translate(-152 -2625) translate(152 2512) translate(0 113) translate(8 12)"/>
                        <g>
                            <path fill="#FFCE32" d="M7.438 23.589L6.057 29.487 0 29.487 1.381 23.589zM10.438 12L9.057 17.897 3 17.897 4.381 12z" transform="translate(-152 -2625) translate(152 2512) translate(0 113) translate(8 12) translate(4.177 18.675)"/>
                            <path fill="#F60" d="M24.573 0L23.194 5.897 17.137 5.897 18.516 0z" transform="translate(-152 -2625) translate(152 2512) translate(0 113) translate(8 12) translate(4.177 18.675)"/>
                            <path fill="#FFCE32" d="M20.438 12L19.057 17.897 13 17.897 14.381 12zM34.189 0L32.809 5.897 26.752 5.897 28.131 0z" transform="translate(-152 -2625) translate(152 2512) translate(0 113) translate(8 12) translate(4.177 18.675)"/>
                        </g>
                        <path fill="#FFCE32" d="M10.234 49.144H4.177c-.3 0-.583-.137-.77-.372-.186-.235-.255-.542-.187-.835l1.381-5.897c.104-.444.5-.759.957-.759h6.057c.3 0 .584.137.77.372.187.236.256.543.187.835l-1.38 5.898c-.105.444-.501.758-.958.758zM5.417 47.18h4.038l.92-3.932H6.339l-.921 3.932zM13.04 36.863H6.983c-.3 0-.584-.137-.77-.372-.187-.235-.256-.543-.187-.835l1.38-5.897c.105-.445.501-.759.958-.759h6.057c.3 0 .584.137.77.372.187.235.255.543.187.835l-1.381 5.897c-.104.445-.5.76-.957.76zm-4.817-1.966h4.038l.92-3.931H9.143l-.92 3.931z" transform="translate(-152 -2625) translate(152 2512) translate(0 113) translate(8 12)"/>
                        <path fill="#FF5636" d="M27.04 25.863h-6.057c-.3 0-.584-.137-.77-.372-.187-.235-.255-.543-.187-.835l1.38-5.897c.104-.445.5-.759.957-.759h6.057c.3 0 .583.137.77.372.186.235.255.543.187.835l-1.38 5.897c-.104.445-.5.76-.957.76zm-4.818-1.966h4.039l.92-3.931h-4.039l-.92 3.931z" transform="translate(-152 -2625) translate(152 2512) translate(0 113) translate(8 12)"/>
                        <path fill="#FFCE32" d="M17.751 18.675L16.371 24.572 10.314 24.572 11.694 18.675z" transform="translate(-152 -2625) translate(152 2512) translate(0 113) translate(8 12)"/>
                        <path fill="#FFCE32" d="M16.04 25.863H9.983c-.3 0-.584-.137-.77-.372-.187-.235-.255-.543-.187-.835l1.38-5.897c.104-.445.5-.759.957-.759h6.057c.3 0 .583.137.77.372.186.235.255.543.187.835l-1.38 5.897c-.104.445-.5.76-.957.76zm-4.818-1.966h4.039l.92-3.931h-4.039l-.92 3.931zM24.04 36.863h-6.057c-.3 0-.584-.137-.77-.372-.187-.235-.256-.543-.187-.835l1.38-5.897c.105-.445.501-.759.958-.759h6.057c.3 0 .584.137.77.372.187.235.255.543.187.835l-1.381 5.897c-.104.445-.5.76-.957.76zm-4.817-1.966h4.038l.92-3.931h-4.038l-.92 3.931zM35.615 30.675L34.234 36.572 28.177 36.572 29.558 30.675z" transform="translate(-152 -2625) translate(152 2512) translate(0 113) translate(8 12)"/>
                        <path fill="#FFCE32" d="M35.04 36.863h-6.057c-.3 0-.584-.137-.77-.372-.187-.235-.256-.543-.187-.835l1.38-5.897c.105-.445.501-.759.958-.759h6.057c.3 0 .584.137.77.372.187.235.255.543.187.835l-1.381 5.897c-.104.445-.5.76-.957.76zm-4.817-1.966h4.038l.92-3.931h-4.038l-.92 3.931zM36.986 25.555h-6.057c-.3 0-.584-.137-.77-.372-.187-.235-.255-.543-.187-.835l1.38-5.897c.104-.445.5-.759.957-.759h6.057c.3 0 .584.137.77.372.186.235.255.543.187.835l-1.38 5.897c-.104.445-.5.76-.957.76zm-4.818-1.966h4.039l.92-3.931h-4.039l-.92 3.931z" transform="translate(-152 -2625) translate(152 2512) translate(0 113) translate(8 12)"/>
                    </g>
                </g>
            </g>
        </g>
    </g>
</svg>
