<svg xmlns="http://www.w3.org/2000/svg" width="64" height="64" viewBox="0 0 64 64">
    <g fill="none" fill-rule="evenodd">
        <g>
            <g>
                <g>
                    <g>
                        <path d="M0 0H64V64H0z" transform="translate(-152 -2737) translate(152 2512) translate(0 113) translate(0 112)"/>
                        <path fill="#1b2d93" fill-rule="nonzero" d="M32.094 46.125v-7.281H12.53l10.344-10.907c2.833-3.104 4.833-5.822 6-8.156 1.167-2.333 1.75-4.625 1.75-6.875 0-4.104-1.297-7.281-3.89-9.531C24.14 1.125 20.5 0 15.812 0c-3.063 0-5.803.651-8.22 1.953-2.416 1.302-4.286 3.1-5.609 5.39C.661 9.636 0 12.168 0 14.939h9.063c0-2.292.588-4.141 1.765-5.547 1.177-1.407 2.787-2.11 4.828-2.11 1.896 0 3.354.578 4.375 1.735 1.021 1.156 1.532 2.744 1.532 4.765 0 1.48-.485 3.042-1.454 4.688-.968 1.646-2.463 3.573-4.484 5.781L.906 39.938v6.187h31.188z" opacity=".32" transform="translate(-152 -2737) translate(152 2512) translate(0 113) translate(0 112)"/>
                        <g fill-rule="nonzero" transform="translate(-152 -2737) translate(152 2512) translate(0 113) translate(0 112) rotate(20 16.157 95.22)">
                            <path fill="#EBF1FF" d="M27.429 0H3.852C1.731 0 .011 1.72.011 3.841V52.16c0 2.121 1.72 3.84 3.841 3.84H27.43c2.122 0 3.841-1.719 3.841-3.84V3.84C31.27 1.72 29.55 0 27.43 0z"/>
                            <path fill="#CEDDFF" d="M3.685 52.159V3.84C3.685 1.72 5.405 0 7.527 0H3.852C1.731 0 .011 1.72.011 3.841V52.16c0 2.121 1.72 3.84 3.841 3.84h3.675c-2.122 0-3.842-1.719-3.842-3.84z"/>
                            <path fill="#9CBBFF" d="M18.47 3.744H12.81c-.466 0-.845-.378-.845-.845 0-.466.379-.845.845-.845h5.659c.467 0 .845.379.845.845 0 .467-.378.845-.845.845z"/>
                            <path fill="#3A77FF" d="M3.511 9.873L27.77 9.873 27.77 40.111 3.511 40.111z"/>
                            <path fill="#2A52AD" d="M3.511 9.873L7.906 9.873 7.906 40.111 3.511 40.111z"/>
                            <circle cx="15.641" cy="51.272" r="1.806" fill="#9CBBFF"/>
                            <path fill="#F60" d="M25.203 35.991L19.62 33.83c-.837 1.274-2.277 2.12-3.913 2.12-1.816 0-3.243-.878-4.059-2.134L6.08 35.99c-1.098.452-2.568 1.873-2.568 3.982V43h4.294v3.544h15.671V43h4.294v-3.026c0-1.816-1.163-3.404-2.567-3.982z"/>
                            <path fill="#4B3A07" d="M7.906 46.543V35.278l-1.827.713c-1.098.452-2.568 1.873-2.568 3.982V43h4.294v3.544h.101z"/>
                            <path fill="#FFEDB2" d="M23.364 46.543h4.065c.188 0 .341-.153.341-.34v-3.317h-4.406v3.657zM3.511 46.202c0 .188.153.341.341.341h4.066v-3.657H3.51v3.316zM18.266 32.98v-1.617c-.748.449-1.62.707-2.553.707-1.03 0-1.941-.266-2.7-.715v1.623c0 .195-.094.31-.202.384l-1.221.477c.805 1.304 2.26 2.223 4.118 2.223 1.675 0 3.146-.884 3.973-2.209l-1.112-.43c-.182-.071-.303-.246-.303-.442z"/>
                            <path fill="#FFD75D" d="M15.636 32.068c-.998-.013-1.883-.275-2.623-.713v1.623c0 .195-.094.31-.203.384l-1.22.477c.794 1.287 2.222 2.197 4.046 2.22v-3.991z"/>
                            <path fill="#2A52AD" d="M7.906 5.825H3.852c-.188 0-.341.153-.341.341v4.045h4.395l.26-.241V6.139l-.26-.314z"/>
                            <path fill="#3A77FF" d="M27.429 5.825H7.906v4.385H27.77V6.166c0-.188-.153-.341-.341-.341z"/>
                            <path fill="#4E3A00" d="M8.763 46.543v-6.597c0-.466-.379-.845-.845-.845-.467 0-.845.379-.845.845v6.597h1.69z"/>
                            <path fill="#513A00" d="M24.209 46.543v-6.597c0-.466-.379-.845-.845-.845-.467 0-.845.379-.845.845v6.597h1.69z"/>
                            <path fill="#FFEDB2" d="M19.036 22.21c0-.09-.123-.122-.166-.042-.557 1.041-1.654 1.75-2.917 1.75h-5.36v3.29c0 2.6 2.038 4.975 5.12 4.975 2.743 0 4.975-2.232 4.975-4.976v-3.292c-.914-.03-1.652-.784-1.652-1.704z"/>
                            <path fill="#FFE48D" d="M13.748 27.207v-3.289h-3.155v3.29c0 2.6 2.038 4.975 5.12 4.975.532 0 1.044-.085 1.526-.24-2.15-.667-3.491-2.627-3.491-4.736z"/>
                            <path fill="#002F34" d="M20.086 17.98c-.447.035-.858-.246-.944-.687-.145-.741-.512-1.477-1.946-1.477H12.22c-1.826 0-3.306 1.48-3.306 3.306v3.63c0 .768.623 1.391 1.392 1.391h5.647c1.263 0 2.36-.708 2.917-1.75.043-.08.166-.049.166.043 0 .94.768 1.707 1.707 1.707.492 0 .895-.402.895-.895v-3.786c0-.892-.778-1.54-1.552-1.481z"/>
                            <path fill="#284E52" d="M12.069 22.751v-3.629c0-1.826 1.48-3.306 3.306-3.306H12.22c-1.826 0-3.306 1.48-3.306 3.306v3.63c0 .768.623 1.391 1.392 1.391h3.155c-.769 0-1.392-.623-1.392-1.392z"/>
                        </g>
                    </g>
                </g>
            </g>
        </g>
    </g>
</svg>
