<svg xmlns="http://www.w3.org/2000/svg" width="64" height="64" viewBox="0 0 64 64">
    <g fill="none" fill-rule="evenodd">
        <g>
            <g>
                <g>
                    <path fill="#FFF" d="M0 0L64 0 64 64 0 64 0 5.5z" transform="translate(-151 -1210) translate(151 1057) translate(0 153)"/>
                    <g fill="#F60">
                        <path d="M39.32 16.047c-5.422 0-10.172 2.967-12.75 7.381l-12.934-5.643c.067-.391.105-.793.105-1.204 0-.41-.038-.812-.105-1.204l13.25-5.78c1.068 1.323 2.691 2.17 4.506 2.17 3.206 0 5.814-2.639 5.814-5.883C37.206 2.639 34.598 0 31.392 0c-3.205 0-5.813 2.64-5.813 5.884 0 .26.019.515.051.766l-13.25 5.781c-1.254-1.7-3.257-2.803-5.51-2.803-3.788 0-6.87 3.12-6.87 6.953 0 3.835 3.082 6.954 6.87 6.954 2.253 0 4.256-1.103 5.51-2.803l12.88 5.62c-.478 1.47-.738 3.04-.738 4.671C24.522 39.281 31.16 46 39.32 46s14.798-6.719 14.798-14.977-6.639-14.976-14.798-14.976zM31.392 3.209c1.458 0 2.643 1.2 2.643 2.675 0 1.474-1.185 2.674-2.643 2.674-1.457 0-2.642-1.2-2.642-2.674 0-1.475 1.185-2.675 2.642-2.675zM6.87 20.326c-2.04 0-3.699-1.68-3.699-3.745 0-2.064 1.66-3.744 3.7-3.744s3.699 1.68 3.699 3.744c0 2.065-1.66 3.745-3.7 3.745zM33.506 41.21v-.025c0-3.244 2.608-5.884 5.814-5.884 3.205 0 5.813 2.64 5.813 5.884v.025c-1.711 1.004-3.697 1.58-5.813 1.58-2.116 0-4.102-.576-5.814-1.58zm3.171-11.792c0-1.475 1.186-2.675 2.643-2.675 1.457 0 2.642 1.2 2.642 2.675 0 1.474-1.185 2.674-2.642 2.674-1.457 0-2.643-1.2-2.643-2.674z" transform="translate(-151 -1210) translate(151 1057) translate(0 153) translate(5 9)"/>
                    </g>
                </g>
            </g>
        </g>
    </g>
</svg>
