<svg xmlns="http://www.w3.org/2000/svg" width="48" height="48" viewBox="0 0 48 48">
    <g fill="none" fill-rule="evenodd">
        <g>
            <g>
                <g>
                    <g>
                        <path d="M0 0H48V48H0z" transform="translate(-801 -692) translate(0 640) translate(567 32) translate(234 20)"/>
                        <g fill="#AEBABB" fill-rule="nonzero">
                            <path d="M30.096 4.496c-1.757 0-3.41-.682-4.654-1.922C22-.853 16.4-.853 12.958 2.574c-1.245 1.24-2.897 1.922-4.654 1.922H0v27.15h38.4V4.496h-8.304zm-15.55-.328c2.566-2.555 6.742-2.555 9.308 0 .113.113.23.222.348.328H14.198c.119-.106.235-.215.348-.328zM35.98 6.746l-1.127 7.959c-.223 1.579-1.01 3.024-2.213 4.07-1.204 1.045-2.746 1.621-4.34 1.621h-4.6v-4.5h-9v4.5h-4.6c-1.595 0-3.136-.575-4.34-1.621-1.204-1.046-1.99-2.491-2.213-4.07L2.42 6.746h33.56zm-14.53 13.65h-4.5v-2.25h4.5v2.25zm-19.2 9V17.903c.509.968 1.196 1.842 2.035 2.57 1.613 1.402 3.678 2.173 5.815 2.173h18.2c2.137 0 4.202-.771 5.815-2.172.84-.729 1.526-1.603 2.035-2.57v11.492H2.25z" transform="translate(-801 -692) translate(0 640) translate(567 32) translate(234 20) translate(4.8 8.4)"/>
                        </g>
                    </g>
                </g>
            </g>
        </g>
    </g>
</svg>
