<svg xmlns="http://www.w3.org/2000/svg" xmlns:xlink="http://www.w3.org/1999/xlink" width="64" height="64" viewBox="0 0 64 64">
    <defs>
        <path id="rbr9mrdi7a" d="M0 0H64V64H0z"/>
    </defs>
    <g fill="none" fill-rule="evenodd">
        <g>
            <g>
                <g>
                    <g transform="translate(-152 -2849) translate(152 2512) translate(0 113) translate(0 224)">
                        <mask id="p9agmw1j3b" fill="#fff">
                            <use xlink:href="#rbr9mrdi7a"/>
                        </mask>
                        <path fill="#1b2d93" fill-rule="nonzero" d="M15.469 46.75c4.854 0 8.755-1.219 11.703-3.656 2.948-2.438 4.422-5.677 4.422-9.719 0-2.5-.63-4.667-1.89-6.5-1.261-1.833-3.173-3.208-5.735-4.125 2.062-.938 3.729-2.281 5-4.031 1.27-1.75 1.906-3.667 1.906-5.75 0-4.042-1.365-7.214-4.094-9.516C24.052 1.151 20.281 0 15.47 0c-2.771 0-5.308.531-7.61 1.594C5.557 2.656 3.766 4.13 2.484 6.016 1.204 7.9.563 10.03.563 12.406h9.03c0-1.52.584-2.755 1.75-3.703 1.167-.948 2.615-1.422 4.345-1.422 1.916 0 3.421.51 4.515 1.532 1.094 1.02 1.64 2.447 1.64 4.28 0 1.897-.551 3.417-1.655 4.563-1.105 1.146-2.803 1.719-5.094 1.719H10.28v7.063h4.781c5 0 7.5 2.27 7.5 6.812 0 1.875-.609 3.38-1.828 4.516-1.218 1.135-2.9 1.703-5.047 1.703-1.874 0-3.453-.542-4.734-1.625-1.281-1.084-1.922-2.48-1.922-4.188H0c0 3.938 1.443 7.104 4.328 9.5 2.886 2.396 6.6 3.594 11.14 3.594z" mask="url(#p9agmw1j3b)" opacity=".32"/>
                        <g mask="url(#p9agmw1j3b)">
                            <g>
                                <path fill="#D8DFE0" fill-rule="nonzero" d="M28.554 56H3.377c-1.579 0-2.86-1.28-2.86-2.86V2.86C.518 1.28 1.799 0 3.378 0h25.177c1.58 0 2.86 1.28 2.86 2.86v50.28c0 1.58-1.28 2.86-2.86 2.86" transform="rotate(-18 40.053 -43.716)"/>
                                <path fill="#001443" fill-rule="nonzero" d="M0.517 48.276L31.414 48.276 31.414 5.793 0.517 5.793z" transform="rotate(-18 40.053 -43.716)"/>
                                <path fill="#FFB130" fill-rule="nonzero" d="M3.951 17.309L27.851 17.309 27.851 10.309 3.951 10.309zM4.446 28.496L28.346 28.496 28.346 21.496 4.446 21.496z" transform="rotate(-18 40.053 -43.716)"/>
                                <path fill="#F60" fill-rule="nonzero" d="M4.299 39.423L28.199 39.423 28.199 32.423 4.299 32.423z" transform="rotate(-18 40.053 -43.716)"/>
                                <g fill-rule="nonzero">
                                    <path fill="#001443" d="M9.75 2.003H4.922c-.534 0-.966-.432-.966-.966s.432-.965.966-.965H9.75c.534 0 .965.431.965.965s-.432.966-.965.966" transform="rotate(-18 40.053 -43.716) translate(10.078 1.86)"/>
                                    <path fill="#406367" d="M2.025 2.003H1.06c-.534 0-.966-.432-.966-.966S.526.072 1.06.072h.965c.534 0 .966.431.966.965s-.432.966-.966.966" transform="rotate(-18 40.053 -43.716) translate(10.078 1.86)"/>
                                </g>
                                <g>
                                    <path fill="#A4A4A4" fill-rule="nonzero" d="M6.378 3.482c0 1.6-1.297 2.896-2.897 2.896-1.6 0-2.896-1.296-2.896-2.896C.585 1.882 1.88.585 3.48.585c1.6 0 2.897 1.297 2.897 2.897" transform="rotate(-18 40.053 -43.716) translate(12.484 48.656)"/>
                                </g>
                            </g>
                        </g>
                    </g>
                </g>
            </g>
        </g>
    </g>
</svg>
