<svg xmlns="http://www.w3.org/2000/svg" xmlns:xlink="http://www.w3.org/1999/xlink" width="1134" height="320" viewBox="0 0 1134 320">
    <defs>
        <path id="nw474obxva" d="M0 0H1134V320H0z"/>
        <path id="rwp4ffiqlb" d="M0 0H1134V320H0z"/>
    </defs>
    <g fill="none" fill-rule="evenodd">
        <g>
            <g>
                <g transform="translate(-152 -2940) translate(0 2820) translate(152 120)">
                    <use fill="#FFF" xlink:href="#nw474obxva"/>
                    <mask id="2qyxkbw5xc" fill="#fff">
                        <use xlink:href="#rwp4ffiqlb"/>
                    </mask>
                    <use fill="#EBF1FF" opacity=".48" xlink:href="#rwp4ffiqlb"/>
                    <path fill="#6C99FF" d="M361.404 348.979H250.359c-6.834.123-13.375-2.767-17.887-7.903-16.992-17.445-34.58-34.294-51.423-51.888-6.26-6.56-10.434-6.113-16.396 0-16.247 16.998-33.388 33.101-49.635 50.099-5.717 6.466-14.033 10.024-22.656 9.692H-.946c-11.179 0-14.905-3.728-14.905-14.91v-94.83c-.176-7.722 3.038-15.132 8.794-20.279 17.141-16.7 33.835-33.996 50.977-50.546 6.26-6.114 6.856-10.14 0-16.402-17.589-16.848-34.432-34.443-51.871-51.44C-12.986 95.847-15.89 89.283-16 82.38v-96.172c0-10.587 3.875-14.91 14.905-14.91h93.457c7.25-.34 14.264 2.62 19.079 8.05 17.141 17.446 34.73 34.295 51.572 51.889 6.857 7.157 11.478 7.753 18.632 0 16.843-17.743 34.431-34.592 51.573-51.888 4.406-5.246 10.888-8.297 17.737-8.35H362V93.116c-20.42 20.13-40.84 40.407-61.41 60.387-6.558 6.263-4.174 10.288 1.043 14.91 20.272 19.682 40.245 39.662 59.622 59.642l.149 120.924zM780.001 160.179c-.07-76.565 46.059-145.609 116.82-174.849 70.763-29.24 152.175-12.897 206.172 41.386 53.996 54.283 69.906 135.78 40.292 206.386-29.615 70.606-98.902 116.368-175.466 115.894-49.956-.1-97.823-20.055-133.054-55.472-35.23-35.418-54.932-83.39-54.764-133.345zm131.728.729c-.098 14.918 5.862 29.258 16.554 39.832 10.693 10.575 25.233 16.51 40.391 16.485 20.972.826 40.72-9.715 51.456-27.466 10.736-17.75 10.736-39.862 0-57.613-10.736-17.75-30.484-28.292-51.456-27.466-15.102-.048-29.6 5.83-40.287 16.331-10.688 10.502-16.682 24.763-16.658 39.626v.27z" mask="url(#2qyxkbw5xc)" opacity=".08"/>
                    <g mask="url(#2qyxkbw5xc)">
                        <g transform="translate(150 216)">
                            <path stroke="#3A77FF" stroke-dasharray="6 10" stroke-linecap="square" stroke-width="4" d="M20.556 20.5L818.444 20.5"/>
                            <circle cx="20" cy="20" r="20" fill="#3A77FF"/>
                            <circle cx="414" cy="20" r="20" fill="#3A77FF"/>
                            <circle cx="816" cy="20" r="20" fill="#3A77FF"/>
                        </g>
                    </g>
                    <g mask="url(#2qyxkbw5xc)">
                        <g fill-rule="nonzero">
                            <g>
                                <g>
                                    <path fill="#FFE48D" d="M72.81 30.54L49.03 16.458c-1.454-.862-1.934-2.738-1.072-4.192l1.45-2.447-5.734-3.392c-3.783-2.17-5.551-2.572-8.964-1.253l-3.719 1.438c-2.263.875-4.802.664-6.89-.573L14.147.169.009 24.035l12.746 7.523c.863.512 1.622 1.183 2.234 1.977l4.296 5.57c2.372 2.776 7.268 6.375 10.409 8.235l9.82 5.818c1.583.938 3.58.805 5.025-.334L72.81 30.54z" transform="translate(910 63) translate(15.469 62.344)"/>
                                    <path fill="#FFD75D" d="M77.37 33.24l-10.375-6.144c-.129-.076-.295-.036-.374.09-.056.09-.054.2-.001.29.891 1.5.919 3.445-.14 5.018-1.333 1.976-4.027 2.494-6.078 1.28l-1.551-.92c-.322-.19-.738-.083-.927.24-.106.184-.12.407-.038.601.514 1.21.403 2.9-.176 4.184-.83 1.845-2.996 3.11-5.313 1.738l-.674-.399c-.462-.274-1.046-.229-1.46.113-.433 0-.67.334-.55.75.35 1.221.208 2.58-.51 3.752-1.351 2.201-4.272 2.837-6.494 1.521l-1.828-1.083c-.35-.208-.8-.122-1.05.198-.152.196-.207.45-.145.69.3 1.165.156 2.442-.506 3.558-.752 1.27-2.01 2.053-3.364 2.25l10.177 6.029c2.125 1.259 4.913.679 6.246-1.4 1.4-2.182.701-5.07-1.51-6.38l5.028 2.978c2.124 1.259 4.912.679 6.246-1.4 1.4-2.182.701-5.07-1.51-6.38l3.414 2.023c2.164 1.282 4.958.567 6.24-1.597 1.281-2.164.567-4.957-1.597-6.239l4.084 2.42c2.125 1.259 4.913.679 6.246-1.4 1.4-2.182.702-5.07-1.51-6.38z" transform="translate(910 63) translate(15.469 62.344)"/>
                                </g>
                                <path fill="#AD9039" d="M74.916 1.595L67.27 6.039c-2.088 1.236-4.627 1.448-6.89.573l-4.195-1.648c-1.312-.515-2.752-.607-4.119-.26L45.641 6.33c-2.992.757-5.087 3.449-5.087 6.534v8.579c0 1.213.983 2.2 2.196 2.2 3.657.002 6.623-2.962 6.623-6.619v-.363L76.88 32.95c.51-.544 1.094-1.013 1.736-1.394l10.437-6.098L74.916 1.595z" transform="translate(910 63) translate(15.469 62.344)"/>
                                <g fill="#AD9039">
                                    <path d="M10.841 7.314l-2.579 3.592c-1.466 2.043-4.31 2.51-6.353 1.043C-.134 10.483-.601 7.64.866 5.596l2.579-3.592C4.91-.038 7.755-.506 9.798.961c2.042 1.466 2.51 4.31 1.043 6.353z" transform="translate(910 63) translate(15.469 62.344) translate(7.5 29.297)"/>
                                    <path d="M21.084 8.66l-5.425 7.556c-1.467 2.043-4.311 2.51-6.354 1.044-2.042-1.467-2.51-4.311-1.043-6.354l5.425-7.556c1.466-2.043 4.31-2.51 6.353-1.043 2.043 1.466 2.51 4.31 1.044 6.353z" transform="translate(910 63) translate(15.469 62.344) translate(7.5 29.297)"/>
                                    <path d="M28.48 13.97l-5.425 7.556c-1.466 2.043-4.31 2.51-6.353 1.044-2.043-1.467-2.51-4.311-1.043-6.354l5.425-7.556c1.466-2.043 4.31-2.51 6.353-1.043 2.042 1.466 2.51 4.31 1.043 6.353zM33.466 22.638l-1.804 2.512c-1.466 2.043-4.31 2.51-6.353 1.044-2.043-1.467-2.51-4.311-1.043-6.354l1.804-2.512c1.466-2.043 4.31-2.51 6.353-1.044 2.042 1.467 2.51 4.311 1.043 6.354z" transform="translate(910 63) translate(15.469 62.344) translate(7.5 29.297)"/>
                                </g>
                            </g>
                            <g>
                                <g>
                                    <path fill="#284E52" d="M14.87 39.04c5.403-3.221 8.713-9.048 8.713-15.339V2.275L22.257.18 2.102 12.194C.279 13.281-.321 15.637.76 17.463l13.126 22.156.982-.58z" transform="translate(910 63) translate(0 42.188) translate(82.266 7.5)"/>
                                    <path fill="#407093" d="M18.121 44.296c.517.106 1.055.108 1.582-.005-.49.02-1.024.021-1.582.005z" transform="translate(910 63) translate(0 42.188) translate(82.266 7.5)"/>
                                </g>
                                <path fill="#002F34" d="M104.523 7.68v23.521c0 6.291-3.31 12.117-8.714 15.338l2.043 3.449c1.086 1.832 3.453 2.435 5.283 1.344l14.156-8.438c1.611-.96 2.598-2.697 2.598-4.573V2.129c0-1.59-1.733-2.575-3.1-1.76L104.523 7.68z" transform="translate(910 63) translate(0 42.188)"/>
                                <path fill="#153E42" d="M3.21.368l32.422 19.326c1.823 1.086 2.423 3.443 1.341 5.269L22.148 49.987c-1.086 1.833-3.453 2.436-5.283 1.345L2.709 42.894c-1.611-.96-2.598-2.698-2.598-4.573V2.129c0-1.59 1.733-2.575 3.1-1.76z" transform="translate(910 63) translate(0 42.188)"/>
                            </g>
                            <g>
                                <g>
                                    <path fill="#771F31" d="M34.718 13.947c-.998 0-1.808-.81-1.808-1.808V5.97c0-1.298-1.055-2.354-2.353-2.354h-9.55c-1.299 0-2.355 1.056-2.355 2.355v6.17c0 .998-.809 1.807-1.807 1.807-.998 0-1.808-.81-1.808-1.808V5.97C15.037 2.68 17.715 0 21.006 0h9.55c3.291 0 5.97 2.678 5.97 5.97v6.17c0 .998-.81 1.807-1.808 1.807z" transform="translate(910 63) translate(34.219)"/>
                                    <g>
                                        <path fill="#FF8169" d="M9.12 14.487c-5.001 0-9.055-4.054-9.055-9.054v24.313c0 2.76 2.237 4.997 4.997 4.997H32.64c2.76 0 4.996-2.237 4.996-4.997V14.487H9.12z" transform="translate(910 63) translate(34.219) translate(0 10.547)"/>
                                        <path fill="#FF5636" d="M42.443 14.487h-6.192v15.26c0 2.759-2.238 4.996-4.997 4.996H46.5c2.76 0 4.996-2.237 4.996-4.997V5.433c0 5-4.053 9.054-9.054 9.054z" transform="translate(910 63) translate(34.219) translate(0 10.547)"/>
                                        <path fill="#D83C3C" d="M32.654.094H5.062C2.302.094.065 2.331.065 5.091V7.23c0 5 4.054 9.054 9.055 9.054h28.53V5.091c0-2.76-2.236-4.997-4.996-4.997z" transform="translate(910 63) translate(34.219) translate(0 10.547)"/>
                                        <path fill="#BE273D" d="M36.25 5.091v11.193h6.193c5 0 9.055-4.054 9.055-9.054V5.09c0-2.759-2.238-4.996-4.997-4.996H31.254c2.76 0 4.997 2.237 4.997 4.997z" transform="translate(910 63) translate(34.219) translate(0 10.547)"/>
                                    </g>
                                </g>
                                <g fill="#F4FBFF">
                                    <path d="M2.029 7.34c-.998 0-1.808-.52-1.808-1.162V1.296c0-.642.81-1.162 1.808-1.162s1.807.52 1.807 1.162v4.882c0 .642-.809 1.162-1.807 1.162zM28.909 7.34c-.999 0-1.808-.52-1.808-1.162V1.296c0-.642.81-1.162 1.808-1.162s1.807.52 1.807 1.162v4.882c0 .642-.809 1.162-1.807 1.162z" transform="translate(910 63) translate(34.219) translate(10.313 23.094)"/>
                                </g>
                            </g>
                        </g>
                    </g>
                    <g mask="url(#2qyxkbw5xc)">
                        <g fill-rule="nonzero">
                            <g>
                                <path fill="#284E52" d="M31.32.232h-7.422c-4.96 0-8.98 4.02-8.98 8.98v8.66l2.174 1.308h15.09V1.811L31.318.232z" transform="translate(507 85) translate(58.594 .094)"/>
                                <path fill="#00A49F" d="M47.659 60.56c0-4.909-3.235-9.23-7.944-10.612l-13.134-3.856.009-2.813h-5.875l-12.84 3.768C3.274 48.398.113 52.621.113 57.417v20.51H47.66L47.66 60.56z" transform="translate(507 85) translate(58.594 .094)"/>
                                <path fill="#00A49F" d="M53.643 47.047l-12.835-3.768H25.615l-.01 3.698 12.834 3.768c4.602 1.351 7.763 5.574 7.763 10.37v16.813h15.204V57.417c0-4.796-3.16-9.019-7.763-10.37z" transform="translate(507 85) translate(58.594 .094)"/>
                                <path fill="#002F34" d="M38.022 77.928L33.306 56.902 28.198 56.902 23.482 77.928z" transform="translate(507 85) translate(58.594 .094)"/>
                                <g>
                                    <path fill="#FFE48D" d="M23.043 45.864V34.53H8.939v11.334c0 3.895 7.052 4.241 7.052 4.241s7.052-.346 7.052-4.24z" transform="translate(507 85) translate(58.594 .094) translate(14.766)"/>
                                    <path fill="#FFE48D" d="M17.108 29.94c.22-.964.307-1.955.307-2.945v-15.02c-2.718.183-5.463-.159-8.082-1.024l-.005-.001c-1.854-.613-3.765.768-3.765 2.72v1.487c0 1.5-1.215 2.715-2.714 2.715H.153v4.44c0 1.134.92 2.053 2.054 2.053.358 0 .65.28.672.638.368 5.836 4.543 10.639 10.07 11.949 2.045-1.817 3.53-4.25 4.159-7.011z" transform="translate(507 85) translate(58.594 .094) translate(14.766)"/>
                                    <path fill="#002F34" d="M27.927 5.451h-.131c-.728 0-1.318-.59-1.318-1.318 0-2.154-1.747-3.901-3.901-3.901h-6.024V19.18h13.102l2.174-1.308v-8.52c0-2.154-1.747-3.9-3.902-3.9z" transform="translate(507 85) translate(58.594 .094) translate(14.766)"/>
                                    <path fill="#FFD75D" d="M29.133 17.872c-1.5 0-2.715-1.215-2.715-2.715v-1.485c0-1.953-1.91-3.334-3.765-2.722-1.983.656-4.038 1.007-6.1 1.061V26.54c0 .973-.085 1.947-.302 2.895-.653 2.868-2.246 5.377-4.435 7.19 1.312.44 2.715.681 4.175.681 6.976 0 12.68-5.436 13.112-12.302.023-.358.314-.638.672-.638 1.134 0 2.054-.92 2.054-2.054v-4.44h-2.696v.001z" transform="translate(507 85) translate(58.594 .094) translate(14.766)"/>
                                </g>
                                <g fill="#2C7B78">
                                    <path d="M3.143.34l-2.008.901C-.011 1.756-.288 3.26.6 4.148L6.16 9.72c.706.687 1.816.73 2.572.098l4.362-3.643L5.659.618C4.933.075 3.969-.032 3.143.34zM20.225.652l-7.13 5.521 4.099 3.505c.75.642 1.867.61 2.58-.074l5.564-5.42c.91-.885.638-2.41-.522-2.926L22.77.345c-.84-.373-1.817-.255-2.544.307z" transform="translate(507 85) translate(58.594 .094) translate(17.813 42.188)"/>
                                </g>
                            </g>
                            <path fill="#816E34" d="M106.256 96.506l-.002-23.136H28.53v25.517h76.208c.854-.457 1.45-1.352 1.517-2.381z" transform="translate(507 85)"/>
                            <path fill="#554A29" d="M104.799 73.37v22.875c-.094 1.46-1.277 2.642-2.736 2.642h12.924c2.769 0 5.013-2.245 5.013-5.013V73.37h-15.201z" transform="translate(507 85)"/>
                            <g>
                                <path fill="#FFE48D" d="M27.52 48.68V37.659H13.803V48.68c0 3.787 6.857 4.124 6.857 4.124s6.858-.337 6.858-4.124z" transform="translate(507 85) translate(9.14 17.906)"/>
                                <path fill="#284E52" d="M20.985 41.435c3.34-1.16 5.578-4.307 5.576-7.842 0-1.955-.286-3.9-.847-5.772-.923-3.078-1.392-6.274-1.393-9.488v-.008c-.002-7.386-4.27-13.771-10.474-16.836C7.144 4.19 2.413 10.753 2.41 18.422v.008c0 3.124-.457 6.23-1.354 9.223-.546 1.82-.823 3.71-.824 5.61 0 3.436 2.175 6.496 5.421 7.623 3.062 1.063 6.21 1.791 9.388 2.185 2.006-.413 3.992-.958 5.944-1.636z" transform="translate(507 85) translate(9.14 17.906)"/>
                                <path fill="#002F34" d="M40.271 27.653c-.896-2.992-1.353-6.1-1.354-9.223v-.008C38.914 8.343 30.743.174 20.664.174c-2.728 0-5.313.603-7.638 1.675C19.29 4.74 23.64 11.071 23.642 18.422v.008c.001 3.124.457 6.23 1.354 9.223.546 1.82.823 3.71.824 5.61.001 3.436-2.175 6.496-5.42 7.623-2.414.838-4.88 1.467-7.374 1.89 7.549 1.277 15.34.647 22.648-1.89 3.247-1.127 5.422-4.187 5.421-7.623 0-1.9-.278-3.79-.824-5.61z" transform="translate(507 85) translate(9.14 17.906)"/>
                            </g>
                            <path fill="#FF8169" d="M45.46 80.684c0-4.664-2.623-6.917-7.55-7.974l-2.783-.53c-2.002-.381-3.544-1.89-4.03-3.79-3.194.546-6.707-.962-8.137-4.524l-.016-.04L7.55 66.803C3.075 68.117 0 72.223 0 76.888v17.097c0 2.772 2.25 5.018 5.023 5.012l39.31-.08 1.102-.845.026-17.388z" transform="translate(507 85)"/>
                            <path fill="#FF5636" d="M57.347 98.905c1.252-.01 2.262-1.028 2.262-2.28V76.887c0-4.664-3.074-8.77-7.55-10.084l-15.4-2.933c-1.234 3.071-4.018 4.612-6.808 4.627.279 2.19 1.933 3.993 4.15 4.415l2.783.53c4.926 1.058 7.55 3.31 7.55 7.974v17.502l13.013-.013z" transform="translate(507 85)"/>
                            <path fill="#284E52" d="M93.6 51.96l-4.099-3.505-4.361 3.643c-.281.235-.612.376-.952.426l2.603 4.471H91.9l2.574-4.613c-.314-.062-.615-.201-.874-.422z" transform="translate(507 85)"/>
                        </g>
                    </g>
                    <g mask="url(#2qyxkbw5xc)">
                        <g fill-rule="nonzero" transform="translate(104 61)">
                            <path fill="#2C7B78" d="M8.889 28.889H111.11c4.91 0 8.889 3.98 8.889 8.889v57.778H0V37.778c0-4.91 3.98-8.89 8.889-8.89z"/>
                            <path fill="#00A49F" d="M8.889 28.889h93.333c4.91 0 8.89 3.98 8.89 8.889v57.778H0V37.778c0-4.91 3.98-8.89 8.889-8.89z"/>
                            <path fill="#002F34" d="M8.889 95.556H111.11c4.91 0 8.889 3.98 8.889 8.888v2.223H0v-2.223c0-4.909 3.98-8.888 8.889-8.888z" transform="rotate(-180 60 101.111)"/>
                            <path fill="#153E42" d="M0 95.556h111.111v2.222c0 4.909-3.98 8.889-8.889 8.889H8.89c-4.91 0-8.889-3.98-8.889-8.89v-2.221z"/>
                            <path fill="#002F34" d="M46.667 106.667L66.667 106.667 66.667 115.556 46.667 115.556z"/>
                            <path fill="#153E42" d="M46.667 111.111L60 111.111 60 115.556 46.667 115.556zM37.778 115.556h35.555c2.455 0 4.445 1.99 4.445 4.444v2.222H33.333V120c0-2.455 1.99-4.444 4.445-4.444z"/>
                            <path fill="#002F34" d="M68.889 115.556h4.444c2.455 0 4.445 1.99 4.445 4.444v2.222H64.444V120c0-2.455 1.99-4.444 4.445-4.444z"/>
                            <path fill="#002F34" d="M93.778 95.556H9.333V8.889c0-4.91 3.98-8.889 8.89-8.889h53.333l22.222 20v75.556z" opacity=".08"/>
                            <path fill="#F2F4F5" d="M97.778 95.556H13.333V8.889c0-4.91 3.98-8.889 8.89-8.889h53.333l22.222 20v75.556z"/>
                            <g transform="translate(22.778)">
                                <rect width="41.481" height="4.667" x=".185" y="48.889" fill="#D8DFE0" rx="2.333"/>
                                <rect width="28.481" height="4.667" x=".185" y="57.889" fill="#D8DFE0" rx="2.333"/>
                                <path fill="#AEBABB" d="M52.778 0v11.111c0 4.91 3.98 8.889 8.889 8.889H75L52.778 0z"/>
                            </g>
                            <path fill="#FFD75D" d="M80 82.222h31.111v26.667H75.556V86.667c0-2.455 1.99-4.445 4.444-4.445z" transform="rotate(-180 93.333 95.556)"/>
                            <path fill="#FFE48D" d="M102.222 73.333h8.89v4.445c0 2.454-1.99 4.444-4.445 4.444s-4.445-1.99-4.445-4.444v-4.445z" transform="rotate(-180 106.667 77.778)"/>
                            <path fill="#FFE48D" d="M93.333 73.333h8.89v4.445c0 2.454-1.99 4.444-4.445 4.444s-4.445-1.99-4.445-4.444v-4.445z" transform="rotate(-180 97.778 77.778)"/>
                            <path fill="#FFE48D" d="M84.444 73.333h8.89v4.445c0 2.454-1.99 4.444-4.445 4.444s-4.445-1.99-4.445-4.444v-4.445z" transform="rotate(-180 88.889 77.778)"/>
                            <path fill="#FFE48D" d="M102.222 77.333h8.89v4.445c0 2.454-1.99 4.444-4.445 4.444s-4.445-1.99-4.445-4.444v-4.445z" transform="matrix(-1 0 0 1 213.333 0)"/>
                            <path fill="#FFE48D" d="M93.333 77.333h8.89v4.445c0 2.454-1.99 4.444-4.445 4.444s-4.445-1.99-4.445-4.444v-4.445z" transform="matrix(-1 0 0 1 195.556 0)"/>
                            <path fill="#FFE48D" d="M84.444 77.333h8.89v4.445c0 2.454-1.99 4.444-4.445 4.444s-4.445-1.99-4.445-4.444v-4.445z" transform="matrix(-1 0 0 1 177.778 0)"/>
                            <path fill="#FFE48D" d="M75.556 53.333h8.888v24.445c0 2.454-1.99 4.444-4.444 4.444-2.455 0-4.444-1.99-4.444-4.444V53.333z" transform="rotate(-180 80 67.778)"/>
                            <path fill="#FFD75D" d="M75.556 108.889L106.667 108.889 106.667 122.556 75.556 122.556z" transform="rotate(-180 91.111 115.722)"/>
                            <path fill="#FFE48D" d="M75.556 108.889H91.11v13.667h-8.889c-3.682 0-6.666-9.985-6.666-13.667z" transform="rotate(-180 83.333 115.722)"/>
                            <path fill="#FFD75D" d="M79.111 82.222c4.91 0 8.889 3.98 8.889 8.89v15.555c0 1.227-.995 2.222-2.222 2.222-3.682 0-6.667-2.985-6.667-6.667-8.296-2.494-12.444-4.364-12.444-5.61 0-3.198 4.148-7.995 12.444-14.39z" transform="rotate(-180 77.333 95.556)"/>
                            <circle cx="80" cy="57.778" r="2.222" fill="#FFF6D9"/>
                            <path fill="#FFF6D9" d="M66.667 84.444c2.863 0 5.185 2.322 5.185 5.186 0 .393-.156.77-.434 1.047-.278.278-.655.434-1.048.434h-3.703v-6.667z"/>
                            <circle cx="35.556" cy="22.222" r="13.333" fill="#D8DFE0"/>
                            <circle cx="35.556" cy="20.259" r="5.185" fill="#AEBABB"/>
                            <rect width="41.481" height="4.667" x="22.963" y="70.37" fill="#D8DFE0" rx="2.333"/>
                            <rect width="26.481" height="4.667" x="22.963" y="79.37" fill="#D8DFE0" rx="2.333"/>
                            <path fill="#AEBABB" d="M40 28.444h-8.889c-2.452 0-4.44 1.986-4.444 4.438 2.095 2.802 5.39 4.452 8.889 4.452 3.499 0 6.793-1.65 8.888-4.452-.004-2.452-1.992-4.438-4.444-4.438z"/>
                        </g>
                    </g>
                </g>
            </g>
        </g>
    </g>
</svg>
