<svg xmlns="http://www.w3.org/2000/svg" xmlns:xlink="http://www.w3.org/1999/xlink" width="161" height="129" viewBox="0 0 161 129">
    <defs>
        <path id="m412kywoua" d="M8.236 39.595L8.519 0S1.614 4.214 2.897 9.918c.616 2.736 1.63 4.569-.271 6.848-1.9 2.28-2.79 3.758-2.6 6.417.19 2.658 3.253 3.534 2.872 6.572-.38 3.038-2.33 5.292-1.983 7.138.79 4.218 4.373 5.888 4.373 5.888l2.948-3.186z"/>
        <path id="idobmfnd0c" d="M9.025 43.386L9.335 0s-7.567 4.618-6.16 10.868c.675 2.998 1.785 5.007-.299 7.504C.793 20.869-.18 22.49.028 25.402c.208 2.914 3.564 3.874 3.147 7.202-.417 3.329-2.553 5.8-2.174 7.823.865 4.622 4.793 6.451 4.793 6.451l3.23-3.492h.001z"/>
        <path id="2zc4lnm0ne" d="M10.816 51.9V0S2.049 5.349 3.678 12.592c.781 3.472 2.068 5.8-.345 8.693C.92 24.178-.21 26.056.033 29.433c.242 3.376 4.129 4.486 3.645 8.343-.483 3.857-4.208 7.376-2.518 9.063 1.69 1.687 5.552 7.472 5.552 7.472l4.104-2.41V51.9z"/>
    </defs>
    <g fill="none" fill-rule="evenodd">
        <g>
            <g>
                <g opacity=".201">
                    <path fill="#425AC2" fill-rule="nonzero" d="M9.22 40.33L9.503.735s-6.905 4.214-5.622 9.918c.616 2.736 1.63 4.569-.271 6.848-1.9 2.28-2.79 3.758-2.6 6.417.19 2.658 3.253 3.534 2.872 6.572-.38 3.038-2.33 5.292-1.983 7.138.79 4.218 4.373 5.888 4.373 5.888L9.22 40.33z" transform="translate(67 17) translate(78 51)"/>
                    <g transform="translate(67 17) translate(78 51) translate(.984 .735)">
                        <mask id="7kymh0wsrb" fill="#fff">
                            <use xlink:href="#m412kywoua"/>
                        </mask>
                        <g fill="#8EA8DD" fill-rule="nonzero" mask="url(#7kymh0wsrb)">
                            <g>
                                <path d="M1.805.32L11.224.32 11.224 1.32 1.805 1.32zM.286 13.671L9.705 13.671 9.705 14.671.286 14.671zM.893 28.234L10.312 28.234 10.312 29.234.893 29.234z" transform="translate(4 8)"/>
                            </g>
                        </g>
                    </g>
                </g>
                <g opacity=".201">
                    <path fill="#425AC2" fill-rule="nonzero" d="M9.215 44.024L9.525.638s-7.567 4.618-6.16 10.868c.675 2.998 1.785 5.007-.299 7.504C.983 21.507.01 23.128.218 26.04c.208 2.914 3.564 3.874 3.147 7.202-.417 3.329-2.553 5.8-2.174 7.823.865 4.622 4.793 6.451 4.793 6.451l3.23-3.492h.001z" transform="translate(67 17) translate(52 47)"/>
                    <g transform="translate(67 17) translate(52 47) translate(.19 .638)">
                        <mask id="2nfru0srhd" fill="#fff">
                            <use xlink:href="#idobmfnd0c"/>
                        </mask>
                        <g fill="#8EA8DD" fill-rule="nonzero" mask="url(#2nfru0srhd)">
                            <g>
                                <path d="M1.36.135L11.681.135 11.681 1.135 1.36 1.135zM.362 30.721L10.683 30.721 10.683 31.721.362 31.721z" transform="translate(5 9)"/>
                            </g>
                        </g>
                    </g>
                </g>
                <path fill="#425AC2" fill-rule="nonzero" d="M10.824 52.105V.205S2.057 5.554 3.686 12.797c.781 3.472 2.068 5.8-.345 8.693-2.413 2.893-3.543 4.771-3.3 8.148.242 3.376 4.129 4.486 3.645 8.343-.483 3.857-4.208 7.376-2.518 9.063 1.69 1.687 5.552 7.472 5.552 7.472l4.104-2.41v-.001z" opacity=".201" transform="translate(67 17) translate(65 40)"/>
                <path fill="#0E24A5" fill-rule="nonzero" d="M0.794 0.89L19.676 0.89 16.079 21.54 4.39 21.54z" opacity=".201" transform="translate(67 17) translate(68 90)"/>
                <path fill="#F5F0D1" fill-rule="nonzero" d="M37.274 52.832c0-8.66 19.855-5.328 26.017-29.978C68.271 2.944 62.625.87 62.625.87H3.76s-6.03 2.174-.667 21.984c6.67 24.65 26.017 21.317 26.017 29.978 0 11.326-18.68 5.33-26.017 29.98-5.857 19.67.667 21.983.667 21.983h58.864s5.645-2.073.665-21.984c-5.493-21.984-26.015-18.653-26.015-29.979z" transform="translate(67 17) translate(5 3)"/>
                <path fill="#5C5313" fill-rule="nonzero" d="M69.676 15.139H6.32c-3.458 0-6.261-2.375-6.261-5.302V5.47C.059 2.54 2.863.168 6.32.168h63.356c3.459 0 6.26 2.374 6.26 5.302v4.368c.002 2.926-2.802 5.302-6.26 5.302v-.001z" transform="translate(67 17)"/>
                <path fill="#E5BB30" fill-rule="nonzero" d="M.501 30.701c-.76-2.124 2.203-12.933 3.115-14.905.91-1.972 22.56-15.133 24.23-14.98 1.672.15 22.294 10.998 24.877 15.548 2.582 4.55 3.076 14.335 3.076 14.335H.501v.002z" transform="translate(67 17) translate(10 67)"/>
                <path fill="#5C5313" fill-rule="nonzero" d="M69.676 15.805H6.32c-3.458 0-6.261-2.373-6.261-5.3V6.137C.059 3.207 2.863.835 6.32.835h63.356c3.459 0 6.26 2.373 6.26 5.302v4.367c.002 2.927-2.802 5.301-6.26 5.301z" transform="translate(67 17) translate(0 96)"/>
                <path fill="#E5BB30" fill-rule="nonzero" d="M17.226 13.686c-1.026 0-8.887-4.323-13.33-7.508-4.445-3.185-3.42-4.551-1.71-5.12 1.708-.568 32.016-.34 33.27.911 1.254 1.251-5.81 5.46-8.886 7.622-2.253 1.582-7.408 4.095-9.345 4.095h.001z" transform="translate(67 17) translate(21 36)"/>
                <g transform="translate(67 17) translate(65.008 40.205)">
                    <mask id="7fi2nld85f" fill="#fff">
                        <use xlink:href="#2zc4lnm0ne"/>
                    </mask>
                    <g fill="#8EA8DD" fill-rule="nonzero" mask="url(#7fi2nld85f)">
                        <g>
                            <path d="M2.868.81L12.287.81 12.287 1.81 2.868 1.81zM.437 17.043L9.856 17.043 9.856 18.043.437 18.043zM2.868 33.428L12.287 33.428 12.287 34.428 2.868 34.428z" transform="translate(4 11)"/>
                        </g>
                    </g>
                </g>
            </g>
            <g>
                <g fill="#E5E7EA" fill-rule="nonzero">
                    <path d="M40.002 35.754v.25c0 2.088-1.618 3.78-3.613 3.78H8.091c-4.365 0-7.724-4.194-7.122-8.893L4.164 4.706C4.441 2.538 6.145.924 8.159.924h8.387c2.013 0 3.718 1.614 3.996 3.782l3.194 26.185c.025.187.042.374.052.56l.017-.003s.592 4.305 6.086 4.305h10.11l.001.001zM9.875 69.28c0 1.335-1.08 2.417-2.414 2.417s-2.415-1.082-2.415-2.417c0-1.336 1.081-2.418 2.415-2.418.64 0 1.254.254 1.707.708.453.453.707 1.068.707 1.71" transform="translate(28 35) translate(0 22)"/>
                    <path d="M31.911 69.764H8.047c-.918 0-1.662-.744-1.662-1.664 0-.919.744-1.664 1.662-1.664h23.864c.918 0 1.662.745 1.662 1.664 0 .92-.744 1.665-1.662 1.665" transform="translate(28 35) translate(0 22)"/>
                    <path d="M18.754 68.973L21.204 68.973 21.204 39.684 18.754 39.684z" transform="translate(28 35) translate(0 22)"/>
                    <path d="M28.371 39.684l-8.392 3.827-8.391-3.827h16.783zm-8.207 30.08h-3.095c-.918 0-1.662-.744-1.662-1.664 0-.919.744-1.664 1.662-1.664h3.096c.918 0 1.662.745 1.662 1.664 0 .92-.744 1.665-1.662 1.665" transform="translate(28 35) translate(0 22)"/>
                    <path d="M18.132 69.28c0 1.335-1.08 2.417-2.414 2.417-1.333 0-2.414-1.082-2.414-2.417 0-1.336 1.08-2.418 2.414-2.418.64 0 1.254.254 1.707.708.453.453.707 1.068.707 1.71m16.939 0c0 1.335-1.081 2.417-2.415 2.417-1.333 0-2.414-1.082-2.414-2.417 0-1.336 1.081-2.418 2.414-2.418.64 0 1.255.254 1.708.708.452.453.707 1.068.707 1.71" transform="translate(28 35) translate(0 22)"/>
                </g>
                <g>
                    <path fill="#19141E" fill-rule="nonzero" d="M10.449 4.585c-5.679.794-3.3 7.343-1.704 10.88 1.873 4.152.233 6.935.233 6.935L.2 19.278c3.222-4.103-.336-6.388.54-11.28.785-4.388 5.05-6.368 7.745-6.275 1.154.031 2.286.318 3.317.839.033.016.064.034.095.054C13.564.912 15.857-.034 18.238 0c5.238 0 9.943 4.138 9.943 9.632s-4.246 9.949-9.483 9.949-9.482-4.454-9.482-9.949c-.019-1.76.405-3.495 1.233-5.047z" transform="translate(28 35) translate(1)"/>
                    <path fill="#CF3E83" fill-rule="nonzero" d="M19.625 19.843s-1.948.058-2.778-.396l2.674 1.681.104-1.285z" transform="translate(28 35) translate(1)"/>
                    <path fill="#FFB573" fill-rule="nonzero" d="M14.884 5.493c-.292 2.263-1.05 5.451-2.92 6.696-.992.66-2.8.742-4.34.653l-.352 4.382-5.026-2.073s.483-4.836.693-6.688C1.926 7.546.205 7.121.202 5.563c-.016-.398.134-.785.414-1.065.282-.28.668-.43 1.065-.412 1.56-.001 1.337 1.872 1.337 1.872.186.072.393.073.58.002 1.544-.065 5.841-.713 8.763-5.712.341 1.683 1.05 3.78 2.523 5.245z" transform="translate(28 35) translate(1) translate(12 7)"/>
                    <path fill="#7E4613" fill-rule="nonzero" d="M23.858 12.954L24.972 15.66 23.679 15.634z" transform="translate(28 35) translate(1)"/>
                    <path fill="#0D0B6D" fill-rule="nonzero" d="M22.671 13.071c-.027.541-.345.963-.709.941-.364-.021-.636-.476-.608-1.017.028-.54.345-.961.709-.941.364.02.636.476.608 1.017m3.417-.086c-.028.54-.345.962-.71.94-.363-.02-.634-.475-.608-1.016.027-.54.346-.962.71-.941.363.02.636.476.608 1.016" transform="translate(28 35) translate(1)"/>
                    <path stroke="#1C295E" stroke-width=".3" d="M23.362 16.93s-.842.272-1.686-.668" transform="translate(28 35) translate(1)"/>
                    <path fill="#000" fill-rule="nonzero" d="M19.621 19.843s-1.947.058-2.777-.396l2.674 1.681.103-1.285z" opacity=".403" transform="translate(28 35) translate(1)"/>
                </g>
                <g>
                    <path fill="#C83820" fill-rule="nonzero" d="M12.797 25.444l-1.041-.015.003-.051c.358.024.705.046 1.037.066" transform="translate(28 35) translate(0 19)"/>
                    <path fill="#FFB130" fill-rule="nonzero" d="M34.002 36.737l-3.435.431-5.534-8.665-.202-2.88-8.43-.126-3.596-.053h-.008c-.333-.02-.68-.04-1.038-.066-4.532-.317-10.81-1.2-11.241-3.643-.782-4.425 5.131-13.012 5.83-14.007l.066-.095c.99-1.418 1.988-2.52 2.918-3.107 1.53-.964 3.314-1.447 5.121-1.387l.431-3.136 6.581.91-.358 2.606c1.932.185 3.246.564 4.477 1.694 3.95 3.632 4.24 17.234 4.24 17.234l4.178 14.29z" transform="translate(28 35) translate(0 19)"/>
                    <path fill="#C83820" fill-rule="nonzero" d="M16.401 25.497v.06s-1.508.004-3.597-.113l3.597.053z" transform="translate(28 35) translate(0 19)"/>
                    <path stroke="#000" d="M24.71 25.586c.483-6.143 3.827-7.443 1.417-14.334" opacity=".201" transform="translate(28 35) translate(0 19)"/>
                    <path fill="#18181C" fill-rule="nonzero" d="M30.399 33.189l-12.565-1.45c-.196-.023-.373-.13-.483-.294-.11-.164-.142-.368-.089-.558l4.965-17.567c.09-.318.397-.523.725-.485l12.566 1.451c.196.023.371.13.48.294.11.164.143.367.09.557l-4.966 17.567c-.09.317-.396.523-.723.485" transform="translate(28 35) translate(0 19)"/>
                    <path fill="#FCBDA4" fill-rule="nonzero" d="M19.24 26.624l.073.02c.975.287 2 .362 3.006.22.798-.106 1.484-.242 1.477-.37-.022-.322-.41-.395-.41-.395l-.744.037-.717-.043s3.295-.624 3.295-.72c-.01-.34-.551-.479-.551-.479s1.133-.18 1.12-.36c-.031-.46-.537-.494-.537-.494s.14-.121.126-.234c-.056-.452-.862-.527-1.245-.582-.567-.002-1.133-.04-1.695-.115-.693-.154-1.368-.38-2.013-.676l2.551-9.027c.09-.317.396-.523.724-.485l12.566 1.451c.196.023.371.13.48.294.11.164.143.367.09.557L31.87 32.79c-.09.317-.396.523-.723.485l-12.565-1.45c-.196-.022-.373-.13-.483-.294-.11-.164-.142-.368-.089-.558l1.23-4.349z" transform="translate(28 35) translate(0 19)"/>
                    <path fill="#FFB573" fill-rule="nonzero" d="M19.78 23.692s-.778.66-1.102.648c-3.048-.104-2.884-1.65-2.812-1.843.162-.435.975.062.975.062s-1.564-3.178-1.188-5.403l3.288-.413c.79.93 1.752 2.088 1.892 2.364.243.478.692 2.845.671 3.313-.021.468-1.422 2.57-1.422 2.57-.87-.213-.302-1.298-.302-1.298zM4.314 6.644c-.074-.021-.145-.04-.213-.057-.899-.236-1.3-.28-2.455-.91-.56-.325-1.09-.697-1.584-1.116l.833-3.086 1.149-.393C2.51.915 2.989.79 3.477.706 4.042.602 4.592.643 5.177.58l-.332 1.216c-.04.049-.078.1-.112.154.025.02.05.043.077.07.239.217.69.604 2.628 1.089.562.074 1.128.112 1.694.114.384.056 1.19.13 1.246.583.014.112-.127.233-.127.233s.506.035.537.494c.013.18-1.12.36-1.12.36s.542.139.551.48c0 .096-3.294.72-3.294.72l.717.042.745-.036s.388.073.41.395c.007.128-.679.264-1.477.369-.338.046-.679.07-1.02.07-.672-.004-1.34-.101-1.987-.289h.001z" transform="translate(28 35) translate(0 19) translate(15 20)"/>
                    <path stroke="#000" stroke-width="3" d="M32.463 38.318s.428 1.618 1.896 2.122c.513.176.385 2.257 1.643 2.008" opacity=".148" transform="translate(28 35) translate(0 19)"/>
                    <path fill="#020101" fill-rule="nonzero" d="M24.253 14.558c-.099.31-.31.522-.472.47-.161-.052-.213-.346-.113-.657.1-.31.31-.522.472-.47.161.05.212.345.113.656" transform="translate(28 35) translate(0 19)"/>
                    <path stroke="#000" d="M11.596 12.47L8.424 17.73 16.31 20.854" opacity=".2" transform="translate(28 35) translate(0 19)"/>
                </g>
                <g fill-rule="nonzero">
                    <path fill="#D6D6D6" d="M.95 14.843l3.414 1.587-.388 3.398s7.232 1.9 9.95 4.722l-13.481.024.505-9.731zM16.145 1.202l3.737-.564 1.552 3.06s7.106-2.42 10.943-1.563l-11.149 7.41-5.083-8.343z" transform="translate(28 35) translate(11 36) translate(26 33)"/>
                    <path fill="#FFB573" d="M.677 18.809l.11-4.111 3.582 1.425-.03 2.82-3.662-.133v-.001zM16.489.864l3.787-.792 1.534 2.379-3.14 1.917L16.488.864h.001z" transform="translate(28 35) translate(11 36) translate(26 34)"/>
                    <path fill="#054549" d="M35.781 30.826l-1.853 20.153h-8.587l.38-29.261-16.39.113c-4.675 0-9.198-4.022-8.874-8.695l.51-4.758L25.998.973c4.634-1.05 6.24.337 9.245 5.692l13.264 27.228-7.286 4.877-5.44-7.944z" transform="translate(28 35) translate(11 36)"/>
                    <path fill="#18181C" d="M19.089.111L.331 11.831l16.39-.112-.38 29.26h8.587l2.943-31.998c.727-5.825-2.912-8.87-8.782-8.87" opacity=".15" transform="translate(28 35) translate(11 36) translate(9 10)"/>
                </g>
            </g>
            <path fill="#E5BB30" fill-rule="nonzero" d="M114 0l-.75 2.25H111l1.875 1.5-.75 2.25L114 4.5l1.875 1.5-.75-2.25L117 2.25h-2.25L114 0zm41 35l-1.5 4.5H149l3.75 3-1.5 4.5 3.75-3 3.75 3-1.5-4.5 3.75-3h-4.499L155 35zM54 3l-1.5 4.5H48l3.75 3-1.5 4.5L54 12l3.75 3-1.5-4.5 3.75-3h-4.499L54 3zM6 63l-1.5 4.5H0l3.75 3-1.5 4.5L6 72l3.75 3-1.5-4.5 3.75-3H7.501L6 63z"/>
        </g>
    </g>
</svg>
