<svg xmlns="http://www.w3.org/2000/svg" xmlns:xlink="http://www.w3.org/1999/xlink" width="154" height="119" viewBox="0 0 154 119">
    <defs>
        <path id="xfgj7x9xpa" d="M8.644 41.744L8.942 0S1.694 4.443 3.04 10.456c.647 2.885 1.71 4.817-.285 7.22C.762 20.08-.172 21.638.027 24.441c.2 2.803 3.414 3.726 3.015 6.929-.4 3.203-2.445 5.58-2.082 7.526.83 4.446 4.59 6.207 4.59 6.207l3.094-3.36v.001z"/>
        <path id="9mtam3jckc" d="M9.472 45.741L9.798 0S1.856 4.868 3.333 11.458c.708 3.161 1.873 5.278-.314 7.911S-.189 23.71.029 26.781c.22 3.072 3.741 4.084 3.304 7.593-.438 3.51-2.68 6.114-2.282 8.247.908 4.873 5.03 6.802 5.03 6.802l3.391-3.682z"/>
        <path id="rx9urx8tre" d="M11.352 54.717V0S2.15 5.64 3.86 13.276c.82 3.66 2.171 6.114-.362 9.164S-.22 27.47.034 31.03c.254 3.56 4.334 4.73 3.827 8.797-.507 4.066-4.418 7.776-2.643 9.554 1.774 1.78 5.827 7.879 5.827 7.879l4.307-2.543z"/>
    </defs>
    <g fill="none" fill-rule="evenodd">
        <g>
            <g>
                <g>
                    <g opacity=".201">
                        <path fill="#425AC2" fill-rule="nonzero" d="M9.416 42.324L9.714.58S2.466 5.023 3.812 11.036c.647 2.885 1.71 4.817-.285 7.22C1.534 20.66.6 22.218.799 25.021c.2 2.803 3.414 3.726 3.015 6.929-.4 3.203-2.445 5.58-2.082 7.526.83 4.446 4.59 6.207 4.59 6.207l3.094-3.36v.001z" transform="translate(-137 -619) translate(137 619) translate(61) translate(83 54)"/>
                        <g transform="translate(-137 -619) translate(137 619) translate(61) translate(83 54) translate(.772 .58)">
                            <mask id="zozh7mzydb" fill="#fff">
                                <use xlink:href="#xfgj7x9xpa"/>
                            </mask>
                            <g fill="#8EA8DD" fill-rule="nonzero" mask="url(#zozh7mzydb)">
                                <g>
                                    <path d="M2.093.772L11.979.772 11.979 1.772 2.093 1.772zM.498 14.847L10.384 14.847 10.384 15.847.498 15.847zM1.136 30.201L11.022 30.201 11.022 31.201 1.136 31.201z" transform="translate(4 8)"/>
                                </g>
                            </g>
                        </g>
                    </g>
                    <g opacity=".201">
                        <path fill="#425AC2" fill-rule="nonzero" d="M10.122 46.002L10.448.261S2.506 5.129 3.983 11.719c.708 3.161 1.873 5.278-.314 7.911S.461 23.971.679 27.042c.22 3.072 3.741 4.084 3.304 7.593-.438 3.51-2.68 6.114-2.282 8.247.908 4.873 5.03 6.802 5.03 6.802l3.391-3.682z" transform="translate(-137 -619) translate(137 619) translate(61) translate(55 50)"/>
                        <g transform="translate(-137 -619) translate(137 619) translate(61) translate(55 50) translate(.65 .261)">
                            <mask id="7734tmqutd" fill="#fff">
                                <use xlink:href="#9mtam3jckc"/>
                            </mask>
                            <g fill="#8EA8DD" fill-rule="nonzero" mask="url(#7734tmqutd)">
                                <g>
                                    <path d="M1.676.63L12.509.63 12.509 1.63 1.676 1.63zM.628 32.877L11.461 32.877 11.461 33.877.628 33.877z" transform="translate(5 9)"/>
                                </g>
                            </g>
                        </g>
                    </g>
                    <path fill="#425AC2" fill-rule="nonzero" d="M11.455 55.141V.424S2.253 6.064 3.963 13.7c.82 3.66 2.171 6.114-.362 9.164s-3.718 5.03-3.464 8.59c.254 3.56 4.334 4.73 3.827 8.797-.507 4.066-4.418 7.776-2.643 9.554 1.774 1.78 5.827 7.879 5.827 7.879l4.307-2.543z" opacity=".201" transform="translate(-137 -619) translate(137 619) translate(61) translate(69 42)"/>
                    <path fill="#0E24A5" fill-rule="nonzero" d="M0.077 0.861L19.895 0.861 16.12 22.632 3.852 22.632z" opacity=".201" transform="translate(-137 -619) translate(137 619) translate(61) translate(73 95)"/>
                    <path fill="#D6EBF7" fill-rule="nonzero" d="M39.242 54.9c0-9.13 20.84-5.618 27.307-31.605C71.775 2.303 65.851.117 65.851.117H4.067s-6.328 2.292-.7 23.178C10.368 49.282 30.674 45.769 30.674 54.9c0 11.94-19.605 5.619-27.307 31.606-6.148 20.739.7 23.178.7 23.178h61.782s5.924-2.186.698-23.178C60.782 63.329 39.242 66.841 39.242 54.9z" transform="translate(-137 -619) translate(137 619) translate(61) translate(6 4)"/>
                    <path fill="#052C49" fill-rule="nonzero" d="M74.002 15.999H7.505c-3.629 0-6.571-2.504-6.571-5.59V5.805c0-3.088 2.943-5.59 6.571-5.59h66.498c3.63 0 6.571 2.503 6.571 5.59v4.604c.001 3.085-2.941 5.59-6.571 5.59h-.001z" transform="translate(-137 -619) translate(137 619) translate(61)"/>
                    <path fill="#63ACD9" fill-rule="nonzero" d="M.895 32.043c-.798-2.24 2.312-13.635 3.268-15.714C5.119 14.249 27.841.373 29.595.533c1.754.16 23.399 11.596 26.11 16.394 2.71 4.797 3.229 15.114 3.229 15.114H.894l.001.002z" transform="translate(-137 -619) translate(137 619) translate(61) translate(11 71)"/>
                    <path fill="#052C49" fill-rule="nonzero" d="M74.002 15.912H7.505c-3.629 0-6.571-2.502-6.571-5.59V5.719c0-3.09 2.943-5.59 6.571-5.59h66.498c3.63 0 6.571 2.502 6.571 5.59v4.604c.001 3.086-2.941 5.589-6.571 5.589h-.001z" transform="translate(-137 -619) translate(137 619) translate(61) translate(0 102)"/>
                    <path fill="#63ACD9" fill-rule="nonzero" d="M17.993 14.421c-1.075 0-9.327-4.558-13.99-7.916C-.662 3.148.413 1.707 2.207 1.107 4 .508 35.81.749 37.127 2.067c1.316 1.32-6.1 5.757-9.327 8.036-2.364 1.668-7.775 4.318-9.808 4.318h.001z" transform="translate(-137 -619) translate(137 619) translate(61) translate(23 38)"/>
                    <g transform="translate(-137 -619) translate(137 619) translate(61) translate(69.103 42.424)">
                        <mask id="holg8ii3xf" fill="#fff">
                            <use xlink:href="#rx9urx8tre"/>
                        </mask>
                        <g fill="#8EA8DD" fill-rule="nonzero" mask="url(#holg8ii3xf)">
                            <g>
                                <path d="M3.208.451L13.094.451 13.094 1.451 3.208 1.451zM.657 17.565L10.543 17.565 10.543 18.565.657 18.565zM3.208 34.838L13.094 34.838 13.094 35.838 3.208 35.838z" transform="translate(4 12)"/>
                            </g>
                        </g>
                    </g>
                </g>
                <g>
                    <g fill="#E5E7EA" fill-rule="nonzero">
                        <g>
                            <path d="M41.089 37.213v.263c0 2.197-1.7 3.977-3.793 3.977H7.578c-4.583 0-8.111-4.412-7.479-9.355L3.456 4.557C3.745 2.274 5.535.577 7.651.577h8.807c2.115 0 3.905 1.697 4.197 3.979l3.354 27.542c.026.197.044.394.055.589l.018-.003s.62 4.529 6.39 4.529h10.617zM9.452 72.477c0 1.405-1.135 2.544-2.535 2.544-1.4 0-2.536-1.139-2.536-2.543 0-1.405 1.135-2.543 2.536-2.543.672 0 1.317.268 1.793.745.475.476.742 1.123.742 1.798" transform="translate(-137 -619) translate(137 619) translate(0 19) translate(0 24) translate(21)"/>
                            <path d="M32.593 72.988H7.533c-.964 0-1.746-.783-1.746-1.75s.782-1.751 1.745-1.751h25.06c.965 0 1.746.784 1.746 1.75 0 .968-.781 1.751-1.745 1.751" transform="translate(-137 -619) translate(137 619) translate(0 19) translate(0 24) translate(21)"/>
                            <path d="M18.777 72.156L21.348 72.156 21.348 41.347 18.777 41.347z" transform="translate(-137 -619) translate(137 619) translate(0 19) translate(0 24) translate(21)"/>
                            <path d="M28.875 41.347l-8.812 4.026-8.813-4.026h17.625zm-8.618 31.641h-3.251c-.964 0-1.745-.783-1.745-1.75s.781-1.751 1.745-1.751h3.252c.964 0 1.746.784 1.746 1.75 0 .968-.782 1.751-1.746 1.751" transform="translate(-137 -619) translate(137 619) translate(0 19) translate(0 24) translate(21)"/>
                            <path d="M18.123 72.477c0 1.405-1.135 2.544-2.535 2.544-1.4 0-2.536-1.139-2.536-2.543 0-1.405 1.136-2.543 2.536-2.543.672 0 1.317.268 1.793.745.475.476.742 1.123.742 1.798m17.788-.001c0 1.405-1.135 2.544-2.536 2.544-1.4 0-2.535-1.139-2.535-2.543 0-1.405 1.135-2.543 2.535-2.543.673 0 1.318.268 1.793.745.476.476.743 1.123.743 1.798" transform="translate(-137 -619) translate(137 619) translate(0 19) translate(0 24) translate(21)"/>
                        </g>
                        <g>
                            <path d="M15.066 5.889c0 2.909-1.763 5.267-3.938 5.267-2.175 0-3.938-2.36-3.938-5.267 0-2.908 1.763-5.267 3.938-5.267 2.175 0 3.938 2.358 3.938 5.267" transform="translate(-137 -619) translate(137 619) translate(0 19) translate(0 24) translate(0 32)"/>
                            <path stroke="#DCEEFF" stroke-width="1.4" d="M11.157 33.551L11.157 6.156" transform="translate(-137 -619) translate(137 619) translate(0 19) translate(0 24) translate(0 32)"/>
                            <path d="M6.916 13.626c1.86 1.865 2.237 4.511.842 5.91-1.394 1.4-4.032 1.021-5.892-.844-1.861-1.866-2.237-4.512-.842-5.91 1.394-1.4 4.033-1.022 5.892.844m13.279 3.832c1.5 1.505 1.094 4.35-.906 6.355-2 2.006-4.834 2.412-6.335.908" transform="translate(-137 -619) translate(137 619) translate(0 19) translate(0 24) translate(0 32)"/>
                            <path stroke="#DCEEFF" stroke-width="1.4" d="M18.174 20.107l-6.9 6.942M16.18 13.47l-5.042 4.998m-5.236 5.974l5.268 5.344M4.086 15.888l7.042 7.148" transform="translate(-137 -619) translate(137 619) translate(0 19) translate(0 24) translate(0 32)"/>
                            <path d="M13.269 42.96H9.047c-3.254-.01-5.89-2.652-5.9-5.916v-5.567h16.02v5.567c-.01 3.264-2.645 5.908-5.9 5.917" transform="translate(-137 -619) translate(137 619) translate(0 19) translate(0 24) translate(0 32)"/>
                            <path stroke="#DCEEFF" stroke-width=".4" d="M19.167 34.571L3.148 34.571M19.167 37.675L3.148 37.675" transform="translate(-137 -619) translate(137 619) translate(0 19) translate(0 24) translate(0 32)"/>
                        </g>
                    </g>
                    <g>
                        <g>
                            <path fill="#19141E" fill-rule="nonzero" d="M11.105 5.287c-5.964.835-3.465 7.724-1.79 11.445 1.967 4.366.245 7.294.245 7.294L.342 20.742c3.383-4.316-.353-6.72.567-11.865.825-4.616 5.303-6.699 8.133-6.6 1.212.032 2.401.334 3.483.882.035.017.068.036.1.057 1.751-1.793 4.157-2.787 6.66-2.752 5.5 0 10.44 4.353 10.44 10.132S25.267 21.06 19.768 21.06c-5.5 0-9.958-4.685-9.958-10.464-.02-1.85.426-3.676 1.295-5.309z" transform="translate(-137 -619) translate(137 619) translate(0 19) translate(20) translate(1)"/>
                            <path fill="#CF3E83" fill-rule="nonzero" d="M20.74 21.337s-2.045.06-2.916-.417l2.808 1.768.108-1.351z" transform="translate(-137 -619) translate(137 619) translate(0 19) translate(20) translate(1)"/>
                            <path fill="#FFB573" fill-rule="nonzero" d="M16.364 5.605c-.306 2.38-1.102 5.734-3.066 7.044-1.042.694-2.94.78-4.558.686l-.37 4.609-5.277-2.18s.507-5.086.727-7.035C2.758 7.764.95 7.317.948 5.678c-.019-.419.14-.825.434-1.12.296-.296.701-.453 1.118-.434 1.638-.001 1.404 1.969 1.404 1.969.196.076.414.077.61.002 1.62-.067 6.133-.749 9.201-6.007.358 1.77 1.102 3.977 2.65 5.517h-.001z" transform="translate(-137 -619) translate(137 619) translate(0 19) translate(20) translate(1) translate(12 8)"/>
                            <path fill="#C47834" fill-rule="nonzero" d="M25.186 14.09L26.356 16.936 24.999 16.908z" transform="translate(-137 -619) translate(137 619) translate(0 19) translate(20) translate(1)"/>
                            <path fill="#0D0B6D" fill-rule="nonzero" d="M23.94 14.214c-.03.568-.363 1.012-.745.989-.382-.023-.668-.501-.639-1.07.03-.568.363-1.011.745-.99.382.021.668.501.639 1.07m3.588-.09c-.03.568-.362 1.012-.745.99-.382-.023-.667-.502-.639-1.07.028-.569.363-1.012.745-.99.382.02.668.5.639 1.069" transform="translate(-137 -619) translate(137 619) translate(0 19) translate(20) translate(1)"/>
                            <path stroke="#1C295E" stroke-width=".3" d="M24.665 18.272s-.884.286-1.77-.703" transform="translate(-137 -619) translate(137 619) translate(0 19) translate(20) translate(1)"/>
                            <path fill="#000" fill-rule="nonzero" d="M20.737 21.337s-2.045.06-2.917-.417l2.808 1.768.109-1.351z" opacity=".403" transform="translate(-137 -619) translate(137 619) translate(0 19) translate(20) translate(1)"/>
                        </g>
                        <g>
                            <path fill="#C83820" fill-rule="nonzero" d="M13.52 27.212l-1.092-.015.003-.054c.376.026.74.049 1.09.07" transform="translate(-137 -619) translate(137 619) translate(0 19) translate(20) translate(0 20)"/>
                            <path fill="#06976D" fill-rule="nonzero" d="M35.789 39.092l-3.607.453-5.812-9.115-.212-3.03-8.851-.132-3.778-.055h-.008c-.35-.021-.713-.043-1.09-.07C7.672 26.81 1.08 25.881.628 23.311-.194 18.657 6.015 9.624 6.749 8.577l.069-.1c1.04-1.49 2.088-2.65 3.065-3.267 1.607-1.014 3.48-1.522 5.377-1.46l.453-3.298 6.91.956-.376 2.742c2.03.195 3.41.593 4.702 1.783 4.149 3.82 4.454 18.127 4.454 18.127l4.386 15.031v.001z" transform="translate(-137 -619) translate(137 619) translate(0 19) translate(20) translate(0 20)"/>
                            <path fill="#C83820" fill-rule="nonzero" d="M17.306 27.268v.063s-1.584.005-3.777-.119l3.777.056z" transform="translate(-137 -619) translate(137 619) translate(0 19) translate(20) translate(0 20)"/>
                            <path stroke="#000" d="M26.031 27.362c.507-6.462 4.02-7.83 1.489-15.078" opacity=".201" transform="translate(-137 -619) translate(137 619) translate(0 19) translate(20) translate(0 20)"/>
                            <path fill="#18181C" fill-rule="nonzero" d="M32.005 35.359l-13.193-1.526c-.206-.023-.392-.136-.507-.308-.116-.173-.15-.387-.094-.587l5.214-18.478c.094-.334.417-.55.761-.51l13.196 1.526c.206.024.39.137.505.309.115.172.149.386.093.586l-5.214 18.478c-.094.334-.416.55-.76.51" transform="translate(-137 -619) translate(137 619) translate(0 19) translate(20) translate(0 20)"/>
                            <path fill="#FCBDA4" fill-rule="nonzero" d="M20.288 28.454l.076.02c1.023.303 2.1.381 3.156.231.838-.11 1.56-.253 1.551-.388-.023-.339-.43-.415-.43-.415l-.781.038-.754-.044s3.46-.657 3.46-.759c-.01-.358-.578-.503-.578-.503s1.19-.19 1.176-.38c-.032-.482-.564-.518-.564-.518s.148-.128.133-.246c-.059-.476-.906-.555-1.308-.613-.595-.002-1.19-.042-1.78-.12-.727-.162-1.436-.4-2.114-.711l2.68-9.496c.094-.334.416-.55.76-.51l13.196 1.526c.205.024.39.137.505.31.115.172.149.386.092.586l-5.212 18.477c-.095.334-.416.55-.76.51l-13.195-1.525c-.206-.023-.391-.136-.507-.308-.115-.173-.15-.388-.093-.588l1.292-4.574h-.001z" transform="translate(-137 -619) translate(137 619) translate(0 19) translate(20) translate(0 20)"/>
                            <path fill="#FFB573" fill-rule="nonzero" d="M21.606 24.406s-.818.694-1.157.682c-3.201-.11-3.03-1.734-2.954-1.938.17-.458 1.024.065 1.024.065s-1.642-3.343-1.247-5.683l3.453-.434c.83.979 1.839 2.196 1.986 2.486.255.502.727 2.993.705 3.485-.023.492-1.494 2.702-1.494 2.702-.912-.222-.316-1.364-.316-1.364v-.001zM5.364 6.475l-.223-.06c-.944-.248-1.365-.294-2.579-.957-.588-.342-1.143-.734-1.663-1.174l.875-3.247L2.979.624c.49-.175.994-.308 1.506-.395.593-.11 1.173-.067 1.784-.133l-.348 1.28c-.043.05-.082.104-.118.16.026.022.052.047.082.074.25.23.724.636 2.759 1.146.59.078 1.184.118 1.78.12.402.059 1.249.137 1.307.613.015.118-.133.246-.133.246s.531.037.564.519c.014.19-1.176.38-1.176.38s.57.145.579.503c0 .102-3.46.758-3.46.758l.753.045.783-.038s.407.076.43.415c.008.134-.713.278-1.551.388-.355.048-.713.073-1.071.074-.706-.005-1.408-.107-2.087-.304h.002z" transform="translate(-137 -619) translate(137 619) translate(0 19) translate(20) translate(0 20) translate(15 22)"/>
                            <path stroke="#000" stroke-width="3" d="M34.173 40.754s.45 1.702 1.991 2.232c.54.185.405 2.374 1.726 2.113" opacity=".148" transform="translate(-137 -619) translate(137 619) translate(0 19) translate(20) translate(0 20)"/>
                            <path fill="#020101" fill-rule="nonzero" d="M25.552 15.762c-.104.327-.326.548-.496.494-.17-.055-.224-.363-.119-.69.105-.328.326-.55.496-.496.17.054.223.364.119.691" transform="translate(-137 -619) translate(137 619) translate(0 19) translate(20) translate(0 20)"/>
                            <path stroke="#000" d="M12.26 13.566L8.929 19.098 17.21 22.385" opacity=".2" transform="translate(-137 -619) translate(137 619) translate(0 19) translate(20) translate(0 20)"/>
                        </g>
                        <g fill-rule="nonzero">
                            <path fill="#D6D6D6" d="M.935 15.655l3.586 1.67-.408 3.573s7.594 1.999 10.45 4.968L.405 25.89l.53-10.235zM16.892 1.306l3.924-.593 1.63 3.218s7.462-2.543 11.492-1.642L22.23 10.083l-5.338-8.777z" transform="translate(-137 -619) translate(137 619) translate(0 19) translate(20) translate(12 39) translate(27 34)"/>
                            <path fill="#FFB573" d="M.647 19.88l.116-4.326 3.761 1.5-.032 2.967-3.845-.142v.001zM17.252 1.002L21.229.17l1.61 2.502-3.298 2.016-2.29-3.685.001-.001z" transform="translate(-137 -619) translate(137 619) translate(0 19) translate(20) translate(12 39) translate(27 35)"/>
                            <path fill="#054549" d="M37.21 31.757l-1.947 21.196h-9.018l.4-30.778-17.212.118c-4.91 0-9.66-4.23-9.319-9.146L.65 8.143 26.935.355c4.867-1.104 6.554.355 9.708 5.988l13.93 28.64-7.652 5.13-5.711-8.356z" transform="translate(-137 -619) translate(137 619) translate(0 19) translate(20) translate(12 39)"/>
                            <path fill="#18181C" d="M20.131.967L.433 13.296l17.212-.12-.4 30.78h9.018l3.091-33.66C30.117 4.17 26.296.967 20.131.967" opacity=".15" transform="translate(-137 -619) translate(137 619) translate(0 19) translate(20) translate(12 39) translate(9 9)"/>
                        </g>
                    </g>
                </g>
            </g>
        </g>
    </g>
</svg>
