<svg xmlns="http://www.w3.org/2000/svg" xmlns:xlink="http://www.w3.org/1999/xlink" width="146" height="126" viewBox="0 0 146 126">
    <defs>
        <path id="foe58pliea" d="M0.036 0.163L10.001 0.163 10.001 8.568 0.036 8.568z"/>
        <path id="05x86rf5jc" d="M0 124L145.829 124 145.829 0.163 0 0.163z"/>
        <path id="xw2dnd57ed" d="M14.988 1.726c-2.389.108-6.052 2.968-8.19 5.646-2.14 2.679-4.72 4.575-5.22 7.437-.5 2.861-.113 3.932.04 6.48.155 2.546-1.475 10.66-1.475 10.66s1.291-3.852 2.186-6.042c1.045-2.56 4.508-13.925 8.21-16.775C14.24 6.28 23.814.179 23.814.179c-1.596.564-6.438 1.44-8.826 1.547"/>
        <path id="bpn3ehp9vf" d="M14.519 3.439c-1.023.345-2.054.693-2.992 1.24-1.146.666-2.114 1.606-3.064 2.54-2.76 2.708-5.05 5.87-6.173 9.564-.882 2.9-.968 1.52-1.812 4.278-.388 1.27-.486 2.615-.388 3.926 2.057-4.645 4.908-8.948 8.383-12.656.837-.892 1.715-1.754 2.714-2.453.632-.441 1.308-.814 1.928-1.272C13.8 8.101 14.41 7.5 15.016 6.9L21.812.173c-3.007 1.012-4.287 2.254-7.293 3.266"/>
        <path id="2yx0bvpsjh" d="M8.268 9.239c.219.558.354 1.17.75 1.625.235.27.546.463.823.691 1.37 1.126 1.817 2.974 2.75 4.468 1.259 2.01 3.36 3.328 4.685 5.286 1.103 1.628 1.735 3.634 2.516 5.412.312-2.272-.249-4.503-.83-6.688-.314-1.18-.629-2.361-.942-3.542-.15-.562-.3-1.127-.546-1.654-.304-.652-.746-1.233-1.209-1.788-.74-.888-1.542-1.726-2.389-2.518-.578-.54-1.182-1.067-1.633-1.713-.323-.461-.56-.975-.866-1.447-1.09-1.68-2.947-2.705-4.728-3.661L.122.206c1.208 3.907 6.65 5.223 8.146 9.033"/>
        <path id="1ft7tyxzmj" d="M5.956 6.425c-1.307 1.74-2.658 3.585-3.027 5.853-.105.638-.127 1.293-.25 1.925-.173.885-.537 1.697-.87 2.515C1.32 17.916.892 19.147.54 20.409c-.22.79-.41 1.598-.44 2.433-.025.675.054 1.353.133 2.028l.5 4.258c.308 2.626.653 5.294 1.838 7.67.04-2.256-.15-4.704.253-6.92.483-2.665 1.95-4.926 2.349-7.623.296-2.002-.006-4.206.845-5.973.172-.358.39-.69.506-1.078.196-.654.082-1.378.07-2.076-.08-4.766 4.54-8.318 4.148-13.079L5.956 6.425"/>
        <path id="qjvb29tkxl" d="M7.764.517c-1.795.41-3.657.896-5.059 2.16C1.455 3.804.71 5.427 0 7c3.65-2.142 7.582-3.735 11.644-4.719 1.612-.39 4.675-.62 6.288-.29C16.063 1.254 12.5 1.458 11.32.96c-.392-.165-.755-.408-1.157-.54C9.88.326 9.593.29 9.3.29c-.512 0-1.033.112-1.537.227"/>
        <path id="f0i5cs1hln" d="M.298.994c1.11.3 2.297.244 3.433.448 2.06.37 3.858 1.59 5.166 3.107 1.308 1.516 2.17 3.317 2.888 5.138 2.9 7.358 3.616 12.425 4.306 20.23-.105-1.191.246-2.707.303-3.933.056-1.2.217-2.402.303-3.602.21-2.927.325-5.866.099-8.795-.257-3.334-.952-3.777-1.645-7.058-.262-1.239-.543-2.52-1.335-3.55-.83-1.08-2.14-1.766-3.487-2.221C8.833.252 7.24 0 5.646 0 3.815 0 1.984.333.298.994"/>
        <path id="042mmcb7yp" d="M5.925.65c-.75.135-1.541.067-2.324 0C2.428.549 1.273.447.3 1.027c3.145.39 5.863 2.235 8.436 4.025.28.194.561.39.783.646 1.124 1.291 2.725 7.655 3.385 9.155-.05-2.704-1.121-9.637-1.842-12.244C10.853 1.86 9.604.728 8.884.38c-.253-.123-.517-.17-.79-.17-.701 0-1.451.313-2.17.441"/>
        <path id="t8fueaeqcr" d="M7.02.248c-.88.339-1.484 1.143-2.31 1.595-.846.462-1.876.528-2.71 1.01C.455 3.744.042 5.743.062 7.496c.031 2.75.734 5.558.002 8.215 1.327-.977 1.186-2.91 1.505-4.504.642-3.211 3.575-5.56 6.69-6.754 1.032-.395 2.107-.698 3.075-1.226.932-.509 3.665-2.139 5.554-1.32C15.833.33 14.043.47 12.78.61c-.39.043-.729.087-.981.08C10.546.657 9.279.065 8.07.065c-.356 0-.706.051-1.05.183"/>
        <path id="565enm5b2t" d="M8.573.668c-1.63.56-3.656.072-3.656.072-.882 1.113-2.145 1.74-3.042 2.848C.125 5.747-.443 11.339.96 14.94c.095-.767 1.165-3.553 1.723-4.126.85-.874 2.16-3.313 3.148-3.98 2.265-1.532 6.26-3.35 9.652-3.341 1.496.004-.892-.735-1.628-1.668-.548-.697-2.412-1.71-3.206-1.76-.038-.002-.075-.004-.112-.004-.68 0-1.313.383-1.965.606"/>
        <path id="k8swnrdh0v" d="M3.987 1.412C2.833 2.083 1.674 2.755.399 2.795c3.622.011 6.786 2.297 10.252 3.311 3.496 1.024 6.45 3.099 9.062 5.792-1.123-2.684-2.43-5.457-4.392-7.57-1.345-1.449-3.071-2.392-4.765-3.31C9.764.59 8.951.155 8.077.052c-.141-.016-.28-.025-.42-.025-1.296 0-2.48.693-3.67 1.386M.214 2.796c.062.001.123 0 .185-.001H.37l-.157.001"/>
        <path id="kj8slbgspx" d="M0.193 0.023L1.776 0.023 1.776 2.868 0.193 2.868z"/>
        <path id="b75irebuyz" d="M0 124.273L145.829 124.273 145.829 0.163 0 0.163z"/>
        <path id="8o04jm1zyB" d="M0 124.273L145.829 124.273 145.829 0.163 0 0.163z"/>
        <path id="8hc65bsabD" d="M0 124.273L145.829 124.273 145.829 0.163 0 0.163z"/>
        <path id="qv7he0qtfF" d="M0 124.273L145.829 124.273 145.829 0.163 0 0.163z"/>
        <path id="0mpqysm35H" d="M0 124.273L145.829 124.273 145.829 0.163 0 0.163z"/>
        <path id="nk5l1v731J" d="M0 124.273L145.829 124.273 145.829 0.163 0 0.163z"/>
        <path id="hdxq3m6arL" d="M0 124.273L145.829 124.273 145.829 0.163 0 0.163z"/>
        <path id="tl9ku9pn0N" d="M0 124.273L145.829 124.273 145.829 0.163 0 0.163z"/>
        <path id="ef6iul0qdP" d="M0 124.273L145.829 124.273 145.829 0.163 0 0.163z"/>
        <path id="q0pwuh9prR" d="M0 124.273L145.829 124.273 145.829 0.163 0 0.163z"/>
        <path id="reb7i7g12T" d="M0 124.273L145.829 124.273 145.829 0.163 0 0.163z"/>
        <path id="eji1iyx9bV" d="M0 124.273L145.829 124.273 145.829 0.163 0 0.163z"/>
        <path id="81o7fwq2yX" d="M0 124.273L145.829 124.273 145.829 0.163 0 0.163z"/>
        <path id="gvix1gjzeZ" d="M0 124.273L145.829 124.273 145.829 0.163 0 0.163z"/>
        <path id="j2ljc73wuab" d="M0 124.273L145.829 124.273 145.829 0.163 0 0.163z"/>
        <path id="9kyse5or9ad" d="M0 124.273L145.829 124.273 145.829 0.163 0 0.163z"/>
        <path id="auueem5qmaf" d="M0 124.273L145.829 124.273 145.829 0.163 0 0.163z"/>
        <path id="ci47xbu4xah" d="M0 124.273L145.829 124.273 145.829 0.163 0 0.163z"/>
        <path id="vrbpjtaclaj" d="M0 124.273L145.829 124.273 145.829 0.163 0 0.163z"/>
        <path id="lw5sal8t9al" d="M0 124.273L145.829 124.273 145.829 0.163 0 0.163z"/>
        <path id="q91hz43a3an" d="M0 124.273L145.829 124.273 145.829 0.163 0 0.163z"/>
        <path id="qivb4q3s4ap" d="M0 124.273L145.829 124.273 145.829 0.163 0 0.163z"/>
        <path id="uxn969m8oar" d="M0 124.273L145.829 124.273 145.829 0.163 0 0.163z"/>
        <path id="5tx6czlykat" d="M0 124.273L145.829 124.273 145.829 0.163 0 0.163z"/>
        <path id="ws0mevpq1av" d="M0 124.273L145.829 124.273 145.829 0.163 0 0.163z"/>
        <path id="0c8qpzw75ax" d="M0 124.273L145.829 124.273 145.829 0.163 0 0.163z"/>
        <path id="4vekfjsg1az" d="M0 124.273L145.829 124.273 145.829 0.163 0 0.163z"/>
        <path id="4vb19zla9aB" d="M0 124.273L145.829 124.273 145.829 0.163 0 0.163z"/>
        <path id="cunyvuqk0aD" d="M0 124.273L145.829 124.273 145.829 0.163 0 0.163z"/>
        <path id="zvdq8e1ufaF" d="M0 124.273L145.829 124.273 145.829 0.163 0 0.163z"/>
        <path id="8jpatrk9paH" d="M0 124.273L145.829 124.273 145.829 0.163 0 0.163z"/>
    </defs>
    <g fill="none" fill-rule="evenodd">
        <g>
            <g>
                <g opacity=".596">
                    <path fill="#D3D3D3" fill-rule="nonzero" d="M111.484 123.845H37.57c-1.774 0-3.212-1.44-3.212-3.217V14.435c0-1.777 1.438-3.217 3.212-3.217h73.914c1.774 0 3.212 1.44 3.212 3.217v106.193c0 1.777-1.438 3.217-3.212 3.217"/>
                    <path fill="#C7C7C7" fill-rule="nonzero" d="M109.234 121.156H39.82c-.553 0-1-.448-1-1.001V20.537c0-.553.447-1.002 1-1.002h69.414c.553 0 1 .449 1 1.002v99.618c0 .553-.447 1.001-1 1.001"/>
                    <path fill="#FFF" fill-rule="nonzero" d="M109.234 119.123H39.82c-.553 0-1-.449-1-1.002V18.504c0-.554.447-1.002 1-1.002h69.414c.553 0 1 .448 1 1.002v99.617c0 .553-.447 1.002-1 1.002"/>
                    <path fill="#DCDCDC" fill-rule="nonzero" d="M90.873 11.217l1.4 7.7c.193 1.065-.626 2.049-1.711 2.049H58.489c-1.081 0-1.9-.984-1.707-2.05l1.399-7.7h32.692v.001z"/>
                    <path fill="#CDCDCD" fill-rule="nonzero" d="M90.564 19.535H58.49c-1.083 0-1.901-.982-1.708-2.05L58.714 6.85c.15-.826.87-1.427 1.708-1.427h28.21c.839 0 1.558.6 1.708 1.427l1.931 10.635c.194 1.068-.624 2.05-1.707 2.05"/>
                    <path fill="#C7C7C7" fill-rule="nonzero" d="M90.885 9.854H58.17l-1.386 7.632c-.194 1.067.624 2.05 1.707 2.05h32.074c1.083 0 1.901-.983 1.707-2.05l-1.386-7.632h-.001z"/>
                    <path fill="#C7C7C7" fill-rule="nonzero" d="M95.174 22.042H53.88c-.843 0-1.525-.684-1.525-1.528v-7.109c0-.843.682-1.527 1.525-1.527h41.294c.842 0 1.525.684 1.525 1.527v7.109c0 .844-.683 1.528-1.525 1.528"/>
                    <path fill="#9E9E9E" fill-rule="nonzero" d="M95.174 20.966H53.88c-.843 0-1.525-.684-1.525-1.528V12.33c0-.844.682-1.528 1.525-1.528h41.294c.842 0 1.525.684 1.525 1.528v7.108c0 .844-.683 1.528-1.525 1.528"/>
                    <g transform="translate(69.509)">
                        <mask id="s5a8dh2ltb" fill="#fff">
                            <use xlink:href="#foe58pliea"/>
                        </mask>
                        <path fill="#D5D5D5" fill-rule="nonzero" d="M5.018 2.76c.734 0 1.33.595 1.33 1.331s-.596 1.332-1.33 1.332c-.734 0-1.329-.596-1.329-1.332 0-.736.595-1.332 1.33-1.332l-.001.001zm4.983 5.808V5.154c0-2.757-2.23-4.991-4.983-4.991C2.266.163.036 2.397.036 5.154v3.414h9.965z" mask="url(#s5a8dh2ltb)"/>
                    </g>
                    <g/>
                </g>
                <g opacity=".596" transform="translate(23 83)">
                    <mask id="r2kh6y1rie" fill="#fff">
                        <use xlink:href="#xw2dnd57ed"/>
                    </mask>
                    <path fill="#9E9E9E" fill-rule="nonzero" d="M14.988 1.726c-2.389.108-6.052 2.968-8.19 5.646-2.14 2.679-4.72 4.575-5.22 7.437-.5 2.861-.113 3.932.04 6.48.155 2.546-1.475 10.66-1.475 10.66s1.291-3.852 2.186-6.042c1.045-2.56 4.508-13.925 8.21-16.775C14.24 6.28 23.814.179 23.814.179c-1.596.564-6.438 1.44-8.826 1.547" mask="url(#r2kh6y1rie)"/>
                </g>
                <g opacity=".596" transform="translate(25 84)">
                    <mask id="hp412jhw6g" fill="#fff">
                        <use xlink:href="#bpn3ehp9vf"/>
                    </mask>
                    <path fill="#CECECE" fill-rule="nonzero" d="M14.519 3.439c-1.023.345-2.054.693-2.992 1.24-1.146.666-2.114 1.606-3.064 2.54-2.76 2.708-5.05 5.87-6.173 9.564-.882 2.9-.968 1.52-1.812 4.278-.388 1.27-.486 2.615-.388 3.926 2.057-4.645 4.908-8.948 8.383-12.656.837-.892 1.715-1.754 2.714-2.453.632-.441 1.308-.814 1.928-1.272C13.8 8.101 14.41 7.5 15.016 6.9L21.812.173c-3.007 1.012-4.287 2.254-7.293 3.266" mask="url(#hp412jhw6g)"/>
                </g>
                <g opacity=".596" transform="translate(4 88)">
                    <mask id="dtwelpluki" fill="#fff">
                        <use xlink:href="#2yx0bvpsjh"/>
                    </mask>
                    <path fill="#C7C7C7" fill-rule="nonzero" d="M8.268 9.239c.219.558.354 1.17.75 1.625.235.27.546.463.823.691 1.37 1.126 1.817 2.974 2.75 4.468 1.259 2.01 3.36 3.328 4.685 5.286 1.103 1.628 1.735 3.634 2.516 5.412.312-2.272-.249-4.503-.83-6.688-.314-1.18-.629-2.361-.942-3.542-.15-.562-.3-1.127-.546-1.654-.304-.652-.746-1.233-1.209-1.788-.74-.888-1.542-1.726-2.389-2.518-.578-.54-1.182-1.067-1.633-1.713-.323-.461-.56-.975-.866-1.447-1.09-1.68-2.947-2.705-4.728-3.661L.122.206c1.208 3.907 6.65 5.223 8.146 9.033" mask="url(#dtwelpluki)"/>
                </g>
                <g opacity=".596" transform="translate(23 71)">
                    <mask id="iabw2zwoek" fill="#fff">
                        <use xlink:href="#1ft7tyxzmj"/>
                    </mask>
                    <path fill="#C9C9C9" fill-rule="nonzero" d="M5.956 6.425c-1.307 1.74-2.658 3.585-3.027 5.853-.105.638-.127 1.293-.25 1.925-.173.885-.537 1.697-.87 2.515C1.32 17.916.892 19.147.54 20.409c-.22.79-.41 1.598-.44 2.433-.025.675.054 1.353.133 2.028l.5 4.258c.308 2.626.653 5.294 1.838 7.67.04-2.256-.15-4.704.253-6.92.483-2.665 1.95-4.926 2.349-7.623.296-2.002-.006-4.206.845-5.973.172-.358.39-.69.506-1.078.196-.654.082-1.378.07-2.076-.08-4.766 4.54-8.318 4.148-13.079L5.956 6.425" mask="url(#iabw2zwoek)"/>
                </g>
                <g opacity=".596" transform="translate(0 84)">
                    <mask id="q7jqbbvkqm" fill="#fff">
                        <use xlink:href="#qjvb29tkxl"/>
                    </mask>
                    <path fill="#D3D3D3" fill-rule="nonzero" d="M7.764.517c-1.795.41-3.657.896-5.059 2.16C1.455 3.804.71 5.427 0 7c3.65-2.142 7.582-3.735 11.644-4.719 1.612-.39 4.675-.62 6.288-.29C16.063 1.254 12.5 1.458 11.32.96c-.392-.165-.755-.408-1.157-.54C9.88.326 9.593.29 9.3.29c-.512 0-1.033.112-1.537.227" mask="url(#q7jqbbvkqm)"/>
                </g>
                <g opacity=".596" transform="translate(9 86)">
                    <mask id="8yh7k8ia7o" fill="#fff">
                        <use xlink:href="#f0i5cs1hln"/>
                    </mask>
                    <path fill="#A5A5A5" fill-rule="nonzero" d="M.298.994c1.11.3 2.297.244 3.433.448 2.06.37 3.858 1.59 5.166 3.107 1.308 1.516 2.17 3.317 2.888 5.138 2.9 7.358 3.616 12.425 4.306 20.23-.105-1.191.246-2.707.303-3.933.056-1.2.217-2.402.303-3.602.21-2.927.325-5.866.099-8.795-.257-3.334-.952-3.777-1.645-7.058-.262-1.239-.543-2.52-1.335-3.55-.83-1.08-2.14-1.766-3.487-2.221C8.833.252 7.24 0 5.646 0 3.815 0 1.984.333.298.994" mask="url(#8yh7k8ia7o)"/>
                </g>
                <g opacity=".596" transform="translate(12 100)">
                    <mask id="v1dkh9gisq" fill="#fff">
                        <use xlink:href="#042mmcb7yp"/>
                    </mask>
                    <path fill="#959595" fill-rule="nonzero" d="M5.925.65c-.75.135-1.541.067-2.324 0C2.428.549 1.273.447.3 1.027c3.145.39 5.863 2.235 8.436 4.025.28.194.561.39.783.646 1.124 1.291 2.725 7.655 3.385 9.155-.05-2.704-1.121-9.637-1.842-12.244C10.853 1.86 9.604.728 8.884.38c-.253-.123-.517-.17-.79-.17-.701 0-1.451.313-2.17.441" mask="url(#v1dkh9gisq)"/>
                </g>
                <g opacity=".596" transform="translate(5 99)">
                    <mask id="6e3gzj88ls" fill="#fff">
                        <use xlink:href="#t8fueaeqcr"/>
                    </mask>
                    <path fill="#CCC" fill-rule="nonzero" d="M7.02.248c-.88.339-1.484 1.143-2.31 1.595-.846.462-1.876.528-2.71 1.01C.455 3.744.042 5.743.062 7.496c.031 2.75.734 5.558.002 8.215 1.327-.977 1.186-2.91 1.505-4.504.642-3.211 3.575-5.56 6.69-6.754 1.032-.395 2.107-.698 3.075-1.226.932-.509 3.665-2.139 5.554-1.32C15.833.33 14.043.47 12.78.61c-.39.043-.729.087-.981.08C10.546.657 9.279.065 8.07.065c-.356 0-.706.051-1.05.183" mask="url(#6e3gzj88ls)"/>
                </g>
                <g opacity=".596" transform="translate(25 100)">
                    <mask id="34ovcjifau" fill="#fff">
                        <use xlink:href="#565enm5b2t"/>
                    </mask>
                    <path fill="#AAA" fill-rule="nonzero" d="M8.573.668c-1.63.56-3.656.072-3.656.072-.882 1.113-2.145 1.74-3.042 2.848C.125 5.747-.443 11.339.96 14.94c.095-.767 1.165-3.553 1.723-4.126.85-.874 2.16-3.313 3.148-3.98 2.265-1.532 6.26-3.35 9.652-3.341 1.496.004-.892-.735-1.628-1.668-.548-.697-2.412-1.71-3.206-1.76-.038-.002-.075-.004-.112-.004-.68 0-1.313.383-1.965.606" mask="url(#34ovcjifau)"/>
                </g>
                <g transform="translate(29 99)">
                    <mask id="1kxmqiy2aw" fill="#fff">
                        <use xlink:href="#k8swnrdh0v"/>
                    </mask>
                    <path fill="#D4D4D4" fill-rule="nonzero" d="M3.987 1.412C2.833 2.083 1.674 2.755.399 2.795c3.622.011 6.786 2.297 10.252 3.311 3.496 1.024 6.45 3.099 9.062 5.792-1.123-2.684-2.43-5.457-4.392-7.57-1.345-1.449-3.071-2.392-4.765-3.31C9.764.59 8.951.155 8.077.052c-.141-.016-.28-.025-.42-.025-1.296 0-2.48.693-3.67 1.386M.214 2.796c.062.001.123 0 .185-.001H.37l-.157.001" mask="url(#1kxmqiy2aw)" opacity=".596"/>
                </g>
                <path fill="#D1D3D4" fill-rule="nonzero" d="M28.93 124.157h-8.17c-.204 0-.38-.146-.417-.348l-2.294-12.293c-.049-.262.151-.504.417-.504h12.759c.265 0 .465.242.416.504l-2.294 12.293c-.037.202-.212.348-.416.348"/>
                <path fill="#001443" fill-rule="nonzero" d="M143.586 63.459c-.611-.275-.065-1.73-.677-2.013-.048.111-1.476 2.137-1.512 2.231 0 0-.96 1.714-1.96 3.155-1 1.442-3.504 5.04-3.504 5.04s-.453.55.514 1.459c.966.91 1.538.54 1.538.54s6.211-6.892 7.187-8.036c.203-.237.573-1.342.61-1.538-.706-.344-1.481-.517-2.196-.838"/>
                <g transform="translate(119.022 121.405)">
                    <mask id="kc4lz9zpqy" fill="#fff">
                        <use xlink:href="#kj8slbgspx"/>
                    </mask>
                    <path fill="#1EADF9" fill-rule="nonzero" d="M.984 2.868c-.197 0-.365-.144-.396-.34L.193.023h1.583L1.38 2.528c-.03.196-.199.34-.396.34" mask="url(#kc4lz9zpqy)"/>
                </g>
                <path fill="silver" fill-rule="nonzero" d="M121.216 113.834L118.835 113.834 119.723 121.906 120.328 121.906z" opacity=".297"/>
                <path fill="#8E8E8E" fill-rule="nonzero" d="M118.835 113.834L117.417 116.789 119.317 121.906 119.723 121.906z" opacity=".297"/>
                <path fill="#CFCFCF" fill-rule="nonzero" d="M122.634 116.789L121.216 113.834 120.328 121.907 120.735 121.907z" opacity=".297"/>
                <path fill="#A4A4A4" fill-rule="nonzero" d="M121.216 80.291h-2.381v35.303c0 .66.533 1.195 1.19 1.195.658 0 1.191-.535 1.191-1.195V80.29v.001z" opacity=".297"/>
                <path fill="#DEDEDE" fill-rule="nonzero" d="M118.835 80.291h-1.418v36.498c.783 0 1.418-.637 1.418-1.423V80.291z" opacity=".297"/>
                <path fill="#7B7B7B" fill-rule="nonzero" d="M122.634 80.291h-1.418v35.075c0 .786.635 1.423 1.418 1.423V80.291z" opacity=".297"/>
                <g>
                    <mask id="2xz7gxh0aA" fill="#fff">
                        <use xlink:href="#b75irebuyz"/>
                    </mask>
                    <path fill="#B9CBEE" fill-rule="nonzero" d="M118.835 80.291L121.216 80.291 121.216 76.737 118.835 76.737z" mask="url(#2xz7gxh0aA)" opacity=".297"/>
                </g>
                <g>
                    <mask id="51thz8p77C" fill="#fff">
                        <use xlink:href="#8o04jm1zyB"/>
                    </mask>
                    <path fill="#C9D1DF" fill-rule="nonzero" d="M117.417 80.291L118.835 80.291 118.835 76.737 117.417 76.737z" mask="url(#51thz8p77C)" opacity=".297"/>
                </g>
                <g opacity=".297">
                    <mask id="hfioqo4g2E" fill="#fff">
                        <use xlink:href="#8hc65bsabD"/>
                    </mask>
                    <path fill="#004CFF" fill-rule="nonzero" d="M121.216 80.291L122.634 80.291 122.634 76.737 121.216 76.737z" mask="url(#hfioqo4g2E)"/>
                </g>
                <g opacity=".297">
                    <mask id="f5t7kc1vkG" fill="#fff">
                        <use xlink:href="#qv7he0qtfF"/>
                    </mask>
                    <path fill="#9E9E9E" fill-rule="nonzero" d="M118.835 76.737L118.835 71.005 121.216 71.006 121.216 76.737z" mask="url(#f5t7kc1vkG)"/>
                </g>
                <g>
                    <mask id="rvzbvpnp3I" fill="#fff">
                        <use xlink:href="#0mpqysm35H"/>
                    </mask>
                    <path fill="#DBDBDB" fill-rule="nonzero" d="M117.417 76.737V72.43c0-.786.635-1.424 1.418-1.424v5.732h-1.418v-.001z" mask="url(#rvzbvpnp3I)" opacity=".297"/>
                </g>
                <g>
                    <mask id="4421x03vzK" fill="#fff">
                        <use xlink:href="#nk5l1v731J"/>
                    </mask>
                    <path fill="#7B7B7B" fill-rule="nonzero" d="M121.216 76.737v-5.731c.783 0 1.418.637 1.418 1.423v4.308h-1.418z" mask="url(#4421x03vzK)" opacity=".297"/>
                </g>
                <g>
                    <mask id="5k85izrhgM" fill="#fff">
                        <use xlink:href="#hdxq3m6arL"/>
                    </mask>
                    <path fill="#FEDBAD" fill-rule="nonzero" d="M121.327 68.12s-1.338.913-1.869 1.21c-.53.296-1.564.918-1.74 1.154-.178.238-.767 1.304-.738 1.54.03.238-.001 1.215-.001 1.215.134.06.325.06.488-.09.162-.147.236-.62.236-.62s.244-.638.284-.726c.04-.09 1.132-.523 1.265-.523 0 0-.37.433-.443.523-.074.088-.236.488-.295.607-.059.118.089.178.221.236.133.06.605-.28.856-.488.25-.207.944-.4 1.195-.563.25-.163.354-.644.604-.9.251-.255.9-1.055 1.579-1.499.679-.444 2.001-.918 2.83-1.466l-4.472.39z" mask="url(#5k85izrhgM)"/>
                </g>
                <g>
                    <mask id="14zvxadxiO" fill="#fff">
                        <use xlink:href="#tl9ku9pn0N"/>
                    </mask>
                    <path fill="#001443" fill-rule="nonzero" d="M138.635 39.326c-.376-.268-2.291-.615-3.572.014-2.45 1.203-1.72 5.225-1.662 6.141.057.916-.93 2.459-1.02 3.537-.09 1.078.127 1.493.826 2.614.208.333.218.861.218.861s1.015-1.243 1.384-3.076c.369-1.834.72-1.364 1.839-3.307 1.12-1.944 1.457-5.004 1.457-5.004l.53-1.78z" mask="url(#14zvxadxiO)"/>
                </g>
                <g>
                    <mask id="sj5cjgqj1Q" fill="#fff">
                        <use xlink:href="#ef6iul0qdP"/>
                    </mask>
                    <path fill="#1C295E" fill-rule="nonzero" d="M136.585 40.466l2.05-1.14s1.664-.06 2.475 1.5c.81 1.559.284 3.655.344 5.271s1.619 3.488 1.465 4.674c-.154 1.186-2.246 2.449-2.246 2.449l-4.625-2.569s.819-2.493.556-5.26c-.264-2.769-.02-4.925-.02-4.925" mask="url(#sj5cjgqj1Q)"/>
                </g>
                <g>
                    <mask id="l0jt91mszS" fill="#fff">
                        <use xlink:href="#q0pwuh9prR"/>
                    </mask>
                    <path fill="#FEDBAD" fill-rule="nonzero" d="M134.937 40.714c-.158.593-.796 2.32-.953 3.452-.156 1.132-.203 3.019.497 3.608.7.59 2.148.315 3.22-.012s1.392-1.029 1.658-1.677c.266-.647.366-2.426.254-3.718-.112-1.293-.866-1.883-1.78-2.149-.913-.266-2.896.496-2.896.496" mask="url(#l0jt91mszS)"/>
                </g>
                <g>
                    <mask id="5r3rmoqiaU" fill="#fff">
                        <use xlink:href="#reb7i7g12T"/>
                    </mask>
                    <path fill="#FEDBAD" fill-rule="nonzero" d="M137.858 45.79s-.087 2.588.524 3.766c.422.813 1.95 1.077 1.95 1.077s.193 2.31-1.185 4.635c-1.38 2.325-6.058 3.435-6.058 3.435s-1.034-1.81-1.647-3.87c-.612-2.061-.329-3.476-.329-3.476s2.195-.775 2.795-1.044c1.456-.653 1.14-3.02 1.14-3.02l2.81-1.502v-.001z" mask="url(#5r3rmoqiaU)"/>
                </g>
                <g>
                    <mask id="a10wxenorW" fill="#fff">
                        <use xlink:href="#eji1iyx9bV"/>
                    </mask>
                    <path fill="#1C295E" fill-rule="nonzero" d="M137.74 40.178c-.63-.004-1.277 1.013-2.432 1.523-1.156.509-1.796.511-1.796.511l.675-2.038s1.548-.757 2.568-.563c1.018.194.985.567.985.567" mask="url(#a10wxenorW)"/>
                </g>
                <g>
                    <mask id="9pky1fxwqY" fill="#fff">
                        <use xlink:href="#81o7fwq2yX"/>
                    </mask>
                    <path fill="#753B32" fill-rule="nonzero" d="M139.097 50.165c-.426.218-.317 1.917-.315 3.319 0 0 .816-1.609 1.818-2.434.664-.547-.33-2.658-.33-2.658l-1.173 1.773z" mask="url(#9pky1fxwqY)"/>
                </g>
                <g>
                    <mask id="msn9opjooaa" fill="#fff">
                        <use xlink:href="#gvix1gjzeZ"/>
                    </mask>
                    <path fill="#FEDBAD" fill-rule="nonzero" d="M134.892 74.674c.38 3.937 1.492 14.097 2.124 17.78.633 3.683 1.418 18.796 1.544 20.701.127 1.905-.126 6.731-.632 7.493-.506.762-1.267 3.053-1.267 3.053l3.946.298s-.368-2.97.138-7.542c.506-4.572 1.737-12.256 1.23-18.448-.505-6.19.633-14.221 1.013-18.207.38-3.985-1.197-8.938-1.197-8.938l-6.9 3.81h.001z" mask="url(#msn9opjooaa)"/>
                </g>
                <g>
                    <mask id="gywtxb6j3ac" fill="#fff">
                        <use xlink:href="#j2ljc73wuab"/>
                    </mask>
                    <path fill="#FEDBAD" fill-rule="nonzero" d="M129.335 74.674c.38 3.937-.058 14.097.575 17.78.632 3.683 1.77 18.796 1.897 20.701.127 1.905-.126 6.731-.632 7.493-.506.762-3.07 3.053-3.07 3.053l2.365-.384 1.831-.919 1.691.536s-.506-1.905 0-6.477 1.466-10.416 1.194-18.448c-.21-6.207 1.866-14.221 2.245-18.207.38-3.985 0-8.938 0-8.938l-8.096 3.81z" mask="url(#gywtxb6j3ac)"/>
                </g>
                <g>
                    <mask id="gkf5v2hy0ae" fill="#fff">
                        <use xlink:href="#9kyse5or9ad"/>
                    </mask>
                    <path fill="#FEC4AD" fill-rule="nonzero" d="M130.006 63.683L142.545 60.644 142.545 51.292 138.743 49.919 132.871 50.436 131.679 51.375z" mask="url(#gkf5v2hy0ae)"/>
                </g>
                <g>
                    <mask id="yvhvk1ibpag" fill="#fff">
                        <use xlink:href="#auueem5qmaf"/>
                    </mask>
                    <path fill="#E9F2F4" fill-rule="nonzero" d="M139.898 51.707L139.027 49.861 136.346 50.598 133.953 49.861 133.232 50.04 132.521 53.046 134.372 63.921 138.99 56.115z" mask="url(#yvhvk1ibpag)"/>
                </g>
                <g>
                    <mask id="4rypocybfai" fill="#fff">
                        <use xlink:href="#ci47xbu4xah"/>
                    </mask>
                    <path fill="#501313" fill-rule="nonzero" d="M127.68 62.727s-1.85 2.188-3.577 3.4c-1.729 1.213-3.714 2.66-3.714 2.66.75.54 1.999 2.537 1.999 2.537s4.975-3.298 6.336-4.105c1.477-.876 2.67-2.475 2.67-2.475l-.346-4.1-3.368 2.083z" mask="url(#4rypocybfai)"/>
                </g>
                <g>
                    <mask id="f8o7jlyvnak" fill="#fff">
                        <use xlink:href="#vrbpjtaclaj"/>
                    </mask>
                    <path fill="#501313" fill-rule="nonzero" d="M126.728 64.64c.108-.794.969-3.552 1.597-6.756.4-2.034.77-4.07 1.337-4.99.567-.92 1.503-1.957 1.503-1.957l.841 4.797s-.648 6.087-1.572 7.484c-.317.479-1.283.836-1.593 1.157-.075-.365-1.739 1.661-2.113.265m2.595 8.263c-.168.662-.356 1.357-.567 2.093-1.966 6.87.928 17.818.928 17.818 2.232.816 2.818 1.217 6.754.815 1.78-.182 3.28-.291 5.512-1.107 0 0 1.58-3.217 1.551-13.5-.006-2.136-.392-4.14-.805-6.119h-13.373z" mask="url(#f8o7jlyvnak)"/>
                </g>
                <g>
                    <mask id="ryxjhyt3pam" fill="#fff">
                        <use xlink:href="#lw5sal8t9al"/>
                    </mask>
                    <path fill="#671818" fill-rule="nonzero" d="M130.174 62.444c.483 2.034-1.193 9.873-1.45 11.66 0 0 2.65 1.318 5.67 1.186 7.674-.337 9.108-.104 9.108-.104-.312-2.128-1.947-9.948-1.35-12.303.753-2.963 1.847-6.54 1.847-6.54s-.363-4.315-.607-5.069l-4.016-1.334-5.315 10.602-1.74-10.3-1.156.695c-.243.754-1.006 3.786-1.5 5.408-.239.787-.487 1.872-.286 3.26.14.977.503 1.61.795 2.839" mask="url(#ryxjhyt3pam)"/>
                </g>
                <g>
                    <mask id="v3ryj9z7aao" fill="#fff">
                        <use xlink:href="#q91hz43a3an"/>
                    </mask>
                    <path fill="#501313" fill-rule="nonzero" d="M139.027 49.86l1.307.439-.543 3.156-1.26-.272-.006 1.873c-2.425 1.037-4.556 5.588-4.556 5.588s1.627-4.651 2.387-6.102c2.01-3.833 2.67-4.681 2.67-4.681" mask="url(#v3ryj9z7aao)"/>
                </g>
                <g>
                    <mask id="ruy9ko4u7aq" fill="#fff">
                        <use xlink:href="#qivb4q3s4ap"/>
                    </mask>
                    <path fill="#501313" fill-rule="nonzero" d="M133.443 49.988l-1.122.254-.926 2.614 1.012-.14-.68 2.083c1.36 1.266 2.314 5.844 2.314 5.844s-.162-3.934-.358-6.21c-.327-3.815-.24-4.445-.24-4.445" mask="url(#ruy9ko4u7aq)"/>
                </g>
                <g>
                    <mask id="hn60479xeas" fill="#fff">
                        <use xlink:href="#uxn969m8oar"/>
                    </mask>
                    <path fill="#AEBFDE" fill-rule="nonzero" d="M135.534 50.329s-.397-.169-.861-1.036l-.72.568.863 2.527.718-2.06v.001zm0 0s2.013-.169 2.678-1.036l.815.568-2.329 2.479-1.164-2.011z" mask="url(#hn60479xeas)"/>
                </g>
                <g>
                    <mask id="hrej2feuqau" fill="#fff">
                        <use xlink:href="#5tx6czlykat"/>
                    </mask>
                    <path fill="#133A50" fill-rule="nonzero" d="M137.98 120.33c.632-.126.856.128 1.425.509.57.38 1.202.38 1.202.38V124h-4.398l1.77-3.668.001-.002zm-6.805.318s.064.595 1.013.863c.949.268 1.594-.519 1.594-.519l.21 2.961h-1.216l-.158-.854-.847.9h-5.276l2.738-1.364 1.942-1.987z" mask="url(#hrej2feuqau)"/>
                </g>
                <g>
                    <mask id="shymcmjtwaw" fill="#fff">
                        <use xlink:href="#ws0mevpq1av"/>
                    </mask>
                    <path fill="#001443" fill-rule="nonzero" d="M137.74 40.178c.322.053.412 1.616.362 2.478-.05.862 1.165 1.665.416 3.5-.748 1.835-.85 3.667-1.808 5.665-.958 1.996.941 2.535 1.281 3.288 0 0 .683-1.88 1.498-2.547 1.94-1.586 1.315-3.269 1.315-3.269s-.999-2.226-.789-3.52c.21-1.294.632-3.26-.285-4.55-.918-1.29-1.99-1.045-1.99-1.045" mask="url(#shymcmjtwaw)"/>
                </g>
                <g>
                    <mask id="2ap31s3tzay" fill="#fff">
                        <use xlink:href="#0c8qpzw75ax"/>
                    </mask>
                    <path fill="#CD813E" fill-rule="nonzero" d="M135.069 45.001L135.5 46.001 135 45.991z" mask="url(#2ap31s3tzay)" transform="matrix(-1 0 0 1 270.5 0)"/>
                </g>
                <g>
                    <mask id="4uhsocfjwaA" fill="#fff">
                        <use xlink:href="#4vekfjsg1az"/>
                    </mask>
                    <path fill="#001443" fill-rule="nonzero" d="M137.281 44.035c-.015.2-.19.357-.39.35-.2-.009-.349-.178-.334-.378.016-.2.19-.357.39-.349.2.007.35.177.335.377" mask="url(#4uhsocfjwaA)" transform="matrix(-1 0 0 1 273.839 0)"/>
                </g>
                <g>
                    <mask id="k3c3tynqxaC" fill="#fff">
                        <use xlink:href="#4vb19zla9aB"/>
                    </mask>
                    <path fill="#001443" fill-rule="nonzero" d="M135.104 43.982c-.015.2-.19.357-.39.35-.2-.009-.35-.177-.334-.378.015-.2.19-.357.39-.35.2.008.35.177.334.378" mask="url(#k3c3tynqxaC)" transform="matrix(-1 0 0 1 269.484 0)"/>
                </g>
                <g>
                    <mask id="b7cdarsolaE" fill="#fff">
                        <use xlink:href="#cunyvuqk0aD"/>
                    </mask>
                    <path stroke="#1C295E" stroke-width=".2" d="M136.175 46.548s-.448.182-1.175-.396" mask="url(#b7cdarsolaE)" transform="matrix(-1 0 0 1 271.175 0)"/>
                </g>
                <g>
                    <mask id="zm96ki4jdaG" fill="#fff">
                        <use xlink:href="#zvdq8e1ufaF"/>
                    </mask>
                    <path fill="#FEDBAD" fill-rule="nonzero" d="M138.591 44.406s.643-.583 1.017-.447c.375.135.343.714.005 1.16-.338.444-1.446.605-1.446.605l.424-1.318z" mask="url(#zm96ki4jdaG)"/>
                </g>
                <g transform="translate(0 1)">
                    <mask id="5jok27qojaI" fill="#fff">
                        <use xlink:href="#8jpatrk9paH"/>
                    </mask>
                    <path fill="#501313" fill-rule="nonzero" d="M142.767 51.274c1.874-.044 2.48 3.915 2.749 6.604.268 2.688.386 4.465.265 6.419-.094 1.504-3.236 3.837-3.236 3.837-.066-1.755.01-3.953.01-3.953-.485-1.69-.427-4.267-1.805-7.29-.568-1.247-.701-5.553 2.017-5.617" mask="url(#5jok27qojaI)"/>
                </g>
            </g>
            <g fill="#6EE4BF" fill-rule="nonzero">
                <path d="M33.25 20.316c.819-.915 1.75-1.95 1.75-3.318 0-1.365-.931-2.4-1.75-3.315-.472-.525-.959-1.067-1.099-1.507-.154-.475-.073-1.233.004-1.964.125-1.205.269-2.57-.497-3.633-.77-1.075-2.104-1.358-3.283-1.606-.704-.15-1.432-.305-1.824-.592-.382-.284-.746-.93-1.099-1.557-.599-1.063-1.281-2.272-2.544-2.687-1.215-.4-2.444.156-3.525.645-.672.305-1.369.62-1.883.62-.515 0-1.211-.315-1.883-.62-1.082-.489-2.31-1.045-3.524-.645-1.264.415-1.943 1.624-2.545 2.687-.353.628-.717 1.273-1.099 1.557-.392.287-1.12.443-1.823.592-1.176.248-2.514.531-3.283 1.606-.763 1.063-.62 2.428-.494 3.633.077.73.154 1.49.003 1.964-.143.44-.63.982-1.099 1.507C.931 14.598 0 15.633 0 16.998c0 1.368.931 2.403 1.753 3.318.47.525.956 1.067 1.1 1.503.15.479.073 1.234-.004 1.968-.126 1.205-.27 2.57.494 3.633.77 1.074 2.107 1.358 3.283 1.606.703.15 1.431.305 1.823.592.381.284.745.929 1.099 1.557.599 1.063 1.281 2.272 2.545 2.687 1.214.4 2.443-.156 3.524-.645.672-.305 1.368-.62 1.883-.62.514 0 1.211.315 1.883.62.822.372 1.729.783 2.65.783.297 0 .592-.046.875-.138 1.263-.415 1.945-1.624 2.544-2.691.353-.624.717-1.27 1.099-1.553.392-.287 1.12-.443 1.824-.592 1.179-.248 2.512-.532 3.283-1.606.766-1.063.622-2.428.493-3.637-.074-.73-.154-1.485 0-1.964.14-.436.627-.978 1.099-1.503zm-16.894.712l-4.186-4.24 1.484-1.503 2.702 2.737 4.99-5.055 1.485 1.507-6.475 6.554z" transform="translate(56 51)"/>
            </g>
            <g fill="#1E8294" fill-rule="nonzero">
                <path d="M33.25 20.316c.819-.915 1.75-1.95 1.75-3.318 0-1.365-.931-2.4-1.75-3.315-.472-.525-.959-1.067-1.099-1.507-.154-.475-.073-1.233.004-1.964.125-1.205.269-2.57-.497-3.633-.77-1.075-2.104-1.358-3.283-1.606-.704-.15-1.432-.305-1.824-.592-.382-.284-.746-.93-1.099-1.557-.599-1.063-1.281-2.272-2.544-2.687-1.215-.4-2.444.156-3.525.645-.672.305-1.369.62-1.883.62-.515 0-1.211-.315-1.883-.62-1.082-.489-2.31-1.045-3.524-.645-1.264.415-1.943 1.624-2.545 2.687-.353.628-.717 1.273-1.099 1.557-.392.287-1.12.443-1.823.592-1.176.248-2.514.531-3.283 1.606-.763 1.063-.62 2.428-.494 3.633.077.73.154 1.49.003 1.964-.143.44-.63.982-1.099 1.507C.931 14.598 0 15.633 0 16.998c0 1.368.931 2.403 1.753 3.318.47.525.956 1.067 1.1 1.503.15.479.073 1.234-.004 1.968-.126 1.205-.27 2.57.494 3.633.77 1.074 2.107 1.358 3.283 1.606.703.15 1.431.305 1.823.592.381.284.745.929 1.099 1.557.599 1.063 1.281 2.272 2.545 2.687 1.214.4 2.443-.156 3.524-.645.672-.305 1.368-.62 1.883-.62.514 0 1.211.315 1.883.62.822.372 1.729.783 2.65.783.297 0 .592-.046.875-.138 1.263-.415 1.945-1.624 2.544-2.691.353-.624.717-1.27 1.099-1.553.392-.287 1.12-.443 1.824-.592 1.179-.248 2.512-.532 3.283-1.606.766-1.063.622-2.428.493-3.637-.074-.73-.154-1.485 0-1.964.14-.436.627-.978 1.099-1.503zm-16.894.712l-4.186-4.24 1.484-1.503 2.702 2.737 4.99-5.055 1.485 1.507-6.475 6.554z" transform="translate(56 52)"/>
            </g>
        </g>
    </g>
</svg>
