<svg width="1440" height="533" viewBox="0 0 1440 533" fill="none" xmlns="http://www.w3.org/2000/svg">
<rect width="1440" height="533" rx="4" transform="matrix(-1 0 0 1 1440 0)" fill="#09B984" fill-opacity="0.1"/>
<path opacity="0.08" fill-rule="evenodd" clip-rule="evenodd" d="M75.8865 232.26L94.2273 251.253C95.2368 252.298 95.2368 252.298 94.2227 253.277C91.7378 255.677 89.2528 258.077 86.7679 260.476C86.1408 261.082 85.7236 261.13 85.0686 260.452C72.6462 247.588 60.229 234.73 47.8169 221.876C47.2004 221.238 47.209 220.829 47.8206 220.238C50.406 217.803 52.9606 215.336 55.4844 212.837C56.1889 212.157 56.6134 212.271 57.2607 212.942C63.4564 219.404 69.6754 225.828 75.8865 232.26Z" fill="#09B984"/>
<path opacity="0.16" fill-rule="evenodd" clip-rule="evenodd" d="M167.193 125.974L178.625 119.373C179.255 119.01 179.255 119.01 179.634 119.667C180.564 121.278 181.494 122.889 182.424 124.5C182.659 124.907 182.638 125.126 182.23 125.362C174.486 129.832 166.746 134.301 159.009 138.768C158.625 138.99 158.422 138.927 158.193 138.53C157.256 136.863 156.3 135.207 155.325 133.562C155.061 133.105 155.163 132.906 155.567 132.673C159.452 130.45 163.321 128.209 167.193 125.974Z" fill="#09B984"/>
<path opacity="0.24" fill-rule="evenodd" clip-rule="evenodd" d="M256.902 406.293L245.451 437.753C244.821 439.484 244.821 439.484 243.102 438.859C238.891 437.326 234.68 435.794 230.469 434.261C229.407 433.874 229.111 433.422 229.519 432.298C237.275 410.991 245.027 389.691 252.776 368.401C253.161 367.344 253.64 367.129 254.677 367.506C258.987 369.135 263.316 370.71 267.664 372.233C268.858 372.668 268.97 373.217 268.566 374.328C264.644 384.981 260.779 395.639 256.902 406.293Z" fill="#09B984"/>
<path opacity="0.24" fill-rule="evenodd" clip-rule="evenodd" d="M1255.53 409.355L1272.02 454.665C1272.93 457.159 1272.93 457.159 1270.46 458.06C1264.39 460.268 1258.32 462.475 1252.26 464.683C1250.73 465.24 1249.98 465.015 1249.39 463.397C1238.22 432.708 1227.06 402.031 1215.9 371.367C1215.34 369.844 1215.67 369.163 1217.17 368.62C1223.43 366.426 1229.67 364.157 1235.87 361.811C1237.59 361.185 1238.22 361.688 1238.81 363.287C1244.34 378.672 1249.95 394.01 1255.53 409.355Z" fill="#09B984"/>
<path opacity="0.16" fill-rule="evenodd" clip-rule="evenodd" d="M106.193 409.974L117.625 403.373C118.255 403.01 118.255 403.01 118.634 403.667C119.564 405.278 120.494 406.889 121.424 408.5C121.659 408.907 121.638 409.126 121.23 409.362C113.486 413.832 105.746 418.301 98.0092 422.768C97.6249 422.99 97.4218 422.927 97.1929 422.53C96.256 420.863 95.2998 419.207 94.3245 417.562C94.0608 417.105 94.1633 416.906 94.5668 416.673C98.452 414.45 102.321 412.209 106.193 409.974Z" fill="#09B984"/>
<path opacity="0.16" fill-rule="evenodd" clip-rule="evenodd" d="M260.279 265.88L87.0406 296.427L71.558 208.621L250.334 177.098L264.84 259.367L260.279 265.88Z" fill="#2E6360"/>
<path fill-rule="evenodd" clip-rule="evenodd" d="M262.886 262.158L89.647 292.705L74.1645 204.899L252.94 173.376L267.446 255.645L262.886 262.158Z" fill="white" stroke="#F2F4F5" stroke-width="1.42609"/>
<path fill-rule="evenodd" clip-rule="evenodd" d="M141.619 262.98C142.005 265.168 141.294 267 138.636 267.468C137.193 267.723 136.198 267.319 135.688 267.002L136.558 265.188C136.902 265.362 137.435 265.629 138.24 265.487C139.485 265.267 139.726 264.41 139.519 263.413L139.444 262.988C139.294 263.296 138.733 263.755 137.913 263.9C135.878 264.259 134.669 263.266 134.273 261.018L134.193 260.563C133.852 258.634 134.724 256.914 136.956 256.521C139.28 256.111 140.615 257.285 140.982 259.366L141.619 262.98ZM131.638 264.098L132.05 266.437L130.227 266.759L129.815 264.42L127.567 264.816L127.267 263.115L129.515 262.719L129.105 260.395L130.928 260.074L131.338 262.397L133.57 262.004L133.87 263.705L131.638 264.098ZM137.918 261.879C137.007 262.04 136.507 261.517 136.355 260.651L136.274 260.196C136.127 259.36 136.394 258.656 137.306 258.495C138.232 258.332 138.737 258.885 138.887 259.735L138.975 260.236C139.102 261.044 138.829 261.719 137.918 261.879ZM144.281 255.433L146.135 265.943L144.023 266.315L142.545 257.931L141.622 258.47L141.271 256.48L142.322 255.778L144.281 255.433ZM150.399 261.699L150.062 259.785L146.356 260.438L146.693 262.352L150.399 261.699ZM158.35 260.704C158.645 262.374 157.728 264.102 155.374 264.517C152.944 264.946 151.557 263.655 151.257 261.954C151.062 260.846 151.403 259.94 152.12 259.297C151.402 258.953 150.805 258.323 150.612 257.229C150.342 255.695 151.142 254.019 153.436 253.615C155.744 253.208 157.067 254.494 157.34 256.043C157.528 257.106 157.191 257.948 156.616 258.504C157.539 258.858 158.144 259.534 158.35 260.704ZM154.223 257.986C153.463 258.12 152.871 257.692 152.74 256.948C152.608 256.204 153.003 255.602 153.763 255.468C154.522 255.334 155.114 255.762 155.246 256.506C155.377 257.25 154.967 257.855 154.223 257.986ZM153.416 261.495C153.558 262.3 154.236 262.776 155.041 262.634C155.862 262.489 156.324 261.828 156.18 261.008C156.038 260.203 155.374 259.725 154.554 259.87C153.719 260.017 153.274 260.691 153.416 261.495ZM162.77 263.213C165.428 262.744 166.139 260.912 165.753 258.725L165.116 255.11C164.749 253.029 163.414 251.855 161.09 252.265C158.858 252.659 157.986 254.378 158.327 256.307L158.407 256.763C158.803 259.011 160.012 260.004 162.047 259.645C162.867 259.5 163.428 259.041 163.578 258.733L163.653 259.158C163.86 260.155 163.619 261.012 162.374 261.231C161.569 261.373 161.036 261.107 160.692 260.933L159.822 262.746C160.332 263.063 161.327 263.467 162.77 263.213ZM160.488 256.396C160.64 257.262 161.14 257.784 162.051 257.624C162.962 257.463 163.235 256.789 163.108 255.981L163.02 255.48C162.87 254.629 162.365 254.076 161.439 254.24C160.527 254.4 160.26 255.105 160.407 255.94L160.488 256.396ZM169.601 261.805L169.778 259.08L171.221 258.826L171.059 261.548L172.851 261.232L173.029 258.507L174.623 258.226L174.332 256.57L173.132 256.782L173.289 254.389L174.854 254.114L174.562 252.458L173.407 252.662L173.565 250.269L171.742 250.591L171.585 252.983L170.157 253.235L170.315 250.842L168.492 251.164L168.335 253.556L166.725 253.84L167.017 255.496L168.232 255.281L168.074 257.674L166.479 257.955L166.771 259.61L167.971 259.399L167.794 262.124L169.601 261.805ZM169.881 257.355L171.339 257.098L171.481 254.708L170.038 254.963L169.881 257.355ZM178.881 260.169L179.058 257.444L180.501 257.19L180.339 259.912L182.131 259.596L182.308 256.871L183.903 256.59L183.611 254.934L182.411 255.146L182.569 252.753L184.133 252.477L183.841 250.822L182.687 251.025L182.844 248.633L181.022 248.954L180.864 251.347L179.437 251.599L179.594 249.206L177.772 249.527L177.614 251.92L176.004 252.204L176.296 253.859L177.511 253.645L177.353 256.038L175.759 256.319L176.051 257.974L177.25 257.763L177.073 260.488L178.881 260.169ZM179.16 255.719L180.618 255.462L180.761 253.072L179.318 253.326L179.16 255.719ZM188.16 258.532L188.337 255.808L189.78 255.553L189.618 258.275L191.41 257.959L191.587 255.235L193.182 254.953L192.89 253.298L191.69 253.509L191.848 251.117L193.412 250.841L193.12 249.186L191.966 249.389L192.124 246.997L190.301 247.318L190.144 249.711L188.716 249.962L188.873 247.57L187.051 247.891L186.893 250.284L185.283 250.567L185.575 252.223L186.79 252.009L186.633 254.401L185.038 254.682L185.33 256.338L186.53 256.126L186.353 258.851L188.16 258.532ZM188.441 254.083L189.899 253.825L190.041 251.436L188.598 251.69L188.441 254.083ZM197.44 256.896L197.618 254.171L199.061 253.917L198.898 256.639L200.691 256.323L200.868 253.598L202.463 253.317L202.171 251.662L200.971 251.873L201.128 249.481L202.693 249.205L202.401 247.549L201.247 247.753L201.404 245.36L199.582 245.682L199.424 248.074L197.996 248.326L198.154 245.933L196.331 246.255L196.174 248.647L194.564 248.931L194.856 250.587L196.071 250.372L195.913 252.765L194.319 253.046L194.61 254.702L195.81 254.49L195.633 257.215L197.44 256.896ZM197.72 252.446L199.178 252.189L199.321 249.799L197.878 250.054L197.72 252.446ZM206.721 255.26L206.898 252.535L208.341 252.281L208.179 255.003L209.971 254.687L210.148 251.962L211.743 251.681L211.451 250.025L210.251 250.237L210.409 247.844L211.973 247.568L211.681 245.913L210.527 246.117L210.685 243.724L208.862 244.045L208.705 246.438L207.277 246.69L207.434 244.297L205.612 244.618L205.454 247.011L203.844 247.295L204.136 248.95L205.351 248.736L205.194 251.129L203.599 251.41L203.891 253.065L205.091 252.854L204.913 255.579L206.721 255.26ZM207.001 250.81L208.459 250.553L208.601 248.163L207.158 248.417L207.001 250.81ZM216 253.624L216.177 250.899L217.62 250.644L217.458 253.366L219.25 253.05L219.428 250.326L221.022 250.044L220.731 248.389L219.531 248.6L219.688 246.208L221.253 245.932L220.961 244.277L219.806 244.48L219.964 242.088L218.141 242.409L217.984 244.802L216.556 245.053L216.714 242.661L214.891 242.982L214.734 245.375L213.124 245.659L213.416 247.314L214.631 247.1L214.473 249.492L212.878 249.773L213.17 251.429L214.37 251.217L214.193 253.942L216 253.624ZM216.281 249.174L217.739 248.916L217.881 246.527L216.439 246.781L216.281 249.174ZM229.822 251.186L229.487 249.288L225.508 249.99L227.393 247.183C228.181 246.057 228.667 245.079 228.417 243.667C228.104 241.89 226.719 240.693 224.456 241.092C221.858 241.55 221.489 243.541 221.789 244.976L223.87 244.609C223.776 244.078 223.85 243.251 224.806 243.082C225.581 242.945 226.11 243.369 226.249 244.159C226.386 244.933 226.062 245.585 225.517 246.402L222.767 250.52L223.093 252.373L229.822 251.186ZM236.835 246.646C237.191 248.666 236.007 250.299 233.926 250.666C231.238 251.14 230.163 249.482 229.892 247.948L231.973 247.581C232.132 248.305 232.667 248.853 233.578 248.692C234.398 248.547 234.813 247.879 234.671 247.074C234.518 246.208 233.911 245.783 232.969 245.949L231.572 246.195L231.283 244.555L232.965 241.753L229.305 242.398L228.97 240.5L235.076 239.423L235.408 241.306L233.648 244.028C235.123 243.956 236.479 244.626 236.835 246.646Z" fill="#8490A8"/>
<circle opacity="0.24" cx="108.357" cy="266.976" r="12.4503" transform="rotate(-10 108.357 266.976)" fill="#FF5636"/>
<path fill-rule="evenodd" clip-rule="evenodd" d="M113.026 264.929L112.235 265.069L112.049 264.014C111.69 261.978 109.742 260.614 107.706 260.973C105.671 261.332 104.307 263.28 104.666 265.316L104.852 266.371L104.061 266.51C103.915 266.536 103.818 266.674 103.843 266.82L105.006 273.412C105.108 273.994 105.665 274.384 106.246 274.281L113.629 272.979C114.211 272.877 114.601 272.32 114.498 271.738L113.336 265.146C113.31 265.001 113.171 264.904 113.026 264.929ZM110.303 271.089C110.325 271.162 110.314 271.241 110.274 271.305C110.234 271.37 110.168 271.415 110.093 271.428L109.038 271.614C108.963 271.627 108.886 271.608 108.826 271.561C108.766 271.514 108.729 271.443 108.724 271.367L108.627 269.842C108.322 269.693 108.106 269.411 108.046 269.07C107.943 268.488 108.333 267.932 108.915 267.829C109.496 267.727 110.053 268.116 110.155 268.698C110.215 269.039 110.109 269.378 109.873 269.622L110.303 271.089ZM106.248 265.037L106.434 266.091L110.653 265.348L110.467 264.293C110.262 263.13 109.149 262.35 107.986 262.555C106.823 262.76 106.043 263.874 106.248 265.037Z" fill="#D83C3C"/>
<path opacity="0.16" fill-rule="evenodd" clip-rule="evenodd" d="M291.25 270.465L118.011 301.012L102.529 213.206L281.305 181.683L295.811 263.951L291.25 270.465Z" fill="#2E6360"/>
<path fill-rule="evenodd" clip-rule="evenodd" d="M293.856 266.743L120.618 297.289L105.135 209.484L283.911 177.961L298.417 260.229L293.856 266.743Z" fill="white" stroke="#F2F4F5" stroke-width="1.42609"/>
<path fill-rule="evenodd" clip-rule="evenodd" d="M172.589 267.565C172.974 269.752 172.264 271.584 169.606 272.053C168.163 272.307 167.168 271.903 166.658 271.586L167.528 269.773C167.872 269.947 168.405 270.213 169.21 270.071C170.455 269.852 170.695 268.995 170.488 267.998L170.413 267.573C170.264 267.881 169.703 268.34 168.883 268.485C166.848 268.844 165.639 267.851 165.243 265.603L165.162 265.147C164.822 263.218 165.693 261.499 167.926 261.105C170.25 260.695 171.584 261.869 171.951 263.95L172.589 267.565ZM162.607 268.683L163.02 271.022L161.197 271.343L160.785 269.004L158.537 269.401L158.237 267.7L160.485 267.303L160.075 264.98L161.898 264.658L162.307 266.982L164.54 266.588L164.84 268.289L162.607 268.683ZM168.888 266.464C167.977 266.624 167.477 266.102 167.325 265.236L167.244 264.78C167.097 263.945 167.364 263.24 168.275 263.079C169.202 262.916 169.707 263.469 169.857 264.32L169.945 264.821C170.072 265.629 169.799 266.303 168.888 266.464ZM175.251 260.017L177.104 270.527L174.993 270.899L173.515 262.516L172.592 263.054L172.241 261.065L173.292 260.363L175.251 260.017ZM181.369 266.283L181.031 264.369L177.325 265.023L177.663 266.937L181.369 266.283ZM189.32 265.288C189.614 266.959 188.698 268.687 186.343 269.102C183.913 269.53 182.527 268.24 182.227 266.539C182.032 265.43 182.373 264.524 183.09 263.881C182.371 263.538 181.775 262.907 181.582 261.814C181.311 260.28 182.112 258.604 184.405 258.199C186.714 257.792 188.037 259.078 188.31 260.627C188.498 261.69 188.161 262.533 187.585 263.088C188.509 263.442 189.114 264.119 189.32 265.288ZM185.192 262.571C184.433 262.705 183.841 262.277 183.709 261.532C183.578 260.788 183.973 260.186 184.732 260.052C185.492 259.918 186.084 260.346 186.215 261.091C186.347 261.835 185.936 262.44 185.192 262.571ZM184.385 266.08C184.527 266.885 185.206 267.36 186.011 267.218C186.831 267.074 187.294 266.413 187.15 265.593C187.008 264.788 186.344 264.31 185.524 264.454C184.688 264.602 184.243 265.275 184.385 266.08ZM193.74 267.798C196.398 267.329 197.108 265.497 196.723 263.31L196.085 259.695C195.718 257.614 194.384 256.44 192.06 256.85C189.827 257.243 188.956 258.963 189.296 260.892L189.377 261.348C189.773 263.595 190.982 264.588 193.017 264.229C193.837 264.085 194.398 263.625 194.547 263.317L194.622 263.743C194.829 264.74 194.589 265.596 193.344 265.816C192.539 265.958 192.006 265.692 191.662 265.517L190.792 267.331C191.302 267.648 192.297 268.052 193.74 267.798ZM191.457 260.981C191.61 261.846 192.109 262.369 193.021 262.208C193.932 262.048 194.205 261.373 194.078 260.566L193.989 260.064C193.84 259.214 193.335 258.661 192.408 258.824C191.497 258.985 191.23 259.69 191.377 260.525L191.457 260.981ZM200.571 266.39L200.748 263.665L202.191 263.41L202.029 266.132L203.821 265.816L203.998 263.092L205.593 262.81L205.301 261.155L204.101 261.367L204.259 258.974L205.823 258.698L205.531 257.043L204.377 257.246L204.535 254.854L202.712 255.175L202.555 257.568L201.127 257.819L201.284 255.427L199.462 255.748L199.304 258.141L197.694 258.425L197.986 260.08L199.201 259.866L199.044 262.258L197.449 262.54L197.741 264.195L198.941 263.983L198.764 266.708L200.571 266.39ZM200.851 261.94L202.309 261.683L202.451 259.293L201.008 259.547L200.851 261.94ZM209.85 264.753L210.028 262.029L211.47 261.774L211.308 264.496L213.101 264.18L213.278 261.455L214.873 261.174L214.581 259.519L213.381 259.73L213.538 257.338L215.103 257.062L214.811 255.407L213.657 255.61L213.814 253.218L211.992 253.539L211.834 255.931L210.406 256.183L210.564 253.791L208.741 254.112L208.584 256.505L206.974 256.788L207.266 258.444L208.481 258.23L208.323 260.622L206.728 260.903L207.02 262.559L208.22 262.347L208.043 265.072L209.85 264.753ZM210.13 260.303L211.588 260.046L211.73 257.657L210.288 257.911L210.13 260.303ZM219.13 263.117L219.307 260.392L220.75 260.138L220.588 262.86L222.38 262.544L222.557 259.819L224.152 259.538L223.86 257.882L222.66 258.094L222.818 255.702L224.382 255.426L224.09 253.77L222.936 253.974L223.093 251.581L221.271 251.903L221.113 254.295L219.686 254.547L219.843 252.154L218.021 252.476L217.863 254.868L216.253 255.152L216.545 256.808L217.76 256.593L217.603 258.986L216.008 259.267L216.3 260.922L217.5 260.711L217.322 263.436L219.13 263.117ZM219.41 258.667L220.869 258.41L221.011 256.02L219.568 256.275L219.41 258.667ZM228.41 261.481L228.587 258.756L230.03 258.501L229.868 261.224L231.66 260.908L231.838 258.183L233.432 257.902L233.14 256.246L231.941 256.458L232.098 254.065L233.663 253.789L233.371 252.134L232.216 252.337L232.374 249.945L230.551 250.266L230.394 252.659L228.966 252.91L229.124 250.518L227.301 250.839L227.144 253.232L225.534 253.516L225.825 255.171L227.041 254.957L226.883 257.349L225.288 257.631L225.58 259.286L226.78 259.075L226.603 261.799L228.41 261.481ZM228.69 257.031L230.148 256.774L230.29 254.384L228.847 254.638L228.69 257.031ZM237.691 259.844L237.868 257.12L239.311 256.865L239.149 259.587L240.941 259.271L241.118 256.546L242.713 256.265L242.421 254.61L241.221 254.821L241.379 252.429L242.943 252.153L242.651 250.498L241.497 250.701L241.654 248.309L239.832 248.63L239.674 251.022L238.247 251.274L238.404 248.882L236.582 249.203L236.424 251.596L234.814 251.879L235.106 253.535L236.321 253.321L236.163 255.713L234.569 255.994L234.861 257.65L236.06 257.438L235.883 260.163L237.691 259.844ZM237.97 255.394L239.428 255.137L239.571 252.748L238.128 253.002L237.97 255.394ZM246.97 258.208L247.147 255.483L248.59 255.229L248.428 257.951L250.22 257.635L250.397 254.91L251.992 254.629L251.7 252.973L250.5 253.185L250.658 250.793L252.222 250.517L251.93 248.861L250.776 249.065L250.934 246.672L249.111 246.994L248.954 249.386L247.526 249.638L247.683 247.245L245.861 247.567L245.703 249.959L244.093 250.243L244.385 251.899L245.6 251.684L245.443 254.077L243.848 254.358L244.14 256.013L245.34 255.802L245.163 258.527L246.97 258.208ZM247.251 253.758L248.709 253.501L248.851 251.111L247.408 251.366L247.251 253.758ZM260.791 255.771L260.457 253.873L256.477 254.574L258.363 251.767C259.151 250.642 259.636 249.664 259.387 248.251C259.074 246.474 257.688 245.278 255.425 245.677C252.828 246.135 252.459 248.126 252.759 249.561L254.84 249.194C254.746 248.662 254.819 247.835 255.776 247.666C256.551 247.53 257.08 247.953 257.219 248.743C257.355 249.518 257.032 250.17 256.487 250.986L253.736 255.104L254.063 256.957L260.791 255.771ZM267.804 251.23C268.161 253.25 266.977 254.884 264.896 255.251C262.208 255.725 261.132 254.067 260.862 252.533L262.943 252.166C263.101 252.889 263.637 253.437 264.548 253.276C265.368 253.132 265.783 252.464 265.641 251.659C265.488 250.793 264.881 250.368 263.939 250.534L262.542 250.78L262.252 249.14L263.935 246.337L260.275 246.983L259.94 245.084L266.046 244.008L266.378 245.891L264.618 248.613C266.093 248.541 267.448 249.21 267.804 251.23Z" fill="#8490A8"/>
<circle opacity="0.24" cx="139.326" cy="271.561" r="12.4503" transform="rotate(-10 139.326 271.561)" fill="#FF5636"/>
<path fill-rule="evenodd" clip-rule="evenodd" d="M143.994 269.514L143.203 269.653L143.017 268.599C142.658 266.563 140.711 265.199 138.675 265.558C136.639 265.917 135.275 267.865 135.634 269.9L135.82 270.955L135.029 271.095C134.884 271.12 134.786 271.259 134.812 271.405L135.974 277.997C136.077 278.579 136.633 278.968 137.215 278.866L144.598 277.564C145.18 277.461 145.57 276.905 145.467 276.323L144.305 269.731C144.279 269.585 144.14 269.488 143.994 269.514ZM141.272 275.673C141.293 275.746 141.283 275.825 141.243 275.89C141.202 275.955 141.136 275.999 141.062 276.012L140.007 276.198C139.932 276.211 139.855 276.192 139.795 276.145C139.735 276.098 139.698 276.028 139.693 275.952L139.596 274.427C139.291 274.278 139.075 273.995 139.015 273.654C138.912 273.073 139.302 272.516 139.883 272.414C140.465 272.311 141.021 272.701 141.124 273.282C141.184 273.623 141.077 273.963 140.842 274.207L141.272 275.673ZM137.217 269.621L137.403 270.676L141.622 269.932L141.436 268.877C141.231 267.714 140.118 266.935 138.955 267.14C137.791 267.345 137.012 268.458 137.217 269.621Z" fill="#D83C3C"/>
<path opacity="0.16" fill-rule="evenodd" clip-rule="evenodd" d="M318.304 284.01L145.065 314.557L129.582 226.751L308.358 195.228L322.864 277.496L318.304 284.01Z" fill="#2E6360"/>
<path fill-rule="evenodd" clip-rule="evenodd" d="M320.91 280.288L147.671 310.835L132.189 223.029L310.965 191.506L325.471 273.774L320.91 280.288Z" fill="white" stroke="#F2F4F5" stroke-width="1.42609"/>
<path fill-rule="evenodd" clip-rule="evenodd" d="M181.885 239.225L180.983 234.106C180.846 233.332 181.15 232.746 181.879 232.617C182.623 232.486 183.061 232.926 183.2 233.715L184.103 238.834L186.138 238.475L185.193 233.114C184.917 231.549 184.051 230.371 182.153 230.705C181.15 230.882 180.729 231.426 180.56 231.707L179.928 228.122L177.892 228.481L179.85 239.584L181.885 239.225ZM162.228 232.543C162.346 233.211 161.893 233.839 161.225 233.957C160.541 234.078 159.916 233.64 159.798 232.972C159.678 232.288 160.113 231.648 160.796 231.527C161.465 231.409 162.108 231.86 162.228 232.543ZM148.745 245.068L147.952 240.573L148.864 240.412L151.889 244.514L154.152 244.115L150.799 239.664C151.624 239.017 152.013 238.024 151.799 236.809C151.456 234.865 150.142 233.985 148.046 234.355L144.796 234.928L146.649 245.438L148.745 245.068ZM148.634 238.667L147.647 238.841L147.213 236.381L148.2 236.207C148.975 236.07 149.483 236.466 149.614 237.21C149.745 237.954 149.408 238.531 148.634 238.667ZM158.785 242.766C158.6 243.049 158.12 243.525 157.179 243.691C155.553 243.977 154.163 243.111 153.866 241.425C153.598 239.906 154.504 238.556 156.189 238.259C156.918 238.13 157.454 238.239 157.691 238.339L157.619 237.929C157.496 237.23 157.104 236.782 156.344 236.916C155.585 237.05 155.443 237.576 155.523 238.032L153.625 238.367C153.4 236.825 154.147 235.644 156.06 235.306C158.399 234.894 159.356 236.056 159.675 237.864L160.577 242.982L158.876 243.282L158.785 242.766ZM157.167 242.033C156.468 242.156 155.897 241.756 155.776 241.072C155.661 240.419 156.043 239.835 156.742 239.712C157.425 239.591 158.01 239.974 158.13 240.657C158.251 241.341 157.835 241.915 157.167 242.033ZM161.637 245.536C163.596 245.19 164.044 243.999 163.766 242.42L162.333 234.294L160.298 234.653L161.725 242.748C161.811 243.234 161.797 243.691 161.099 243.814L160.734 243.878L161.045 245.64L161.637 245.536ZM172.014 238.93C171.707 240.033 170.807 241.319 168.832 241.667C166.372 242.101 164.389 240.806 163.934 238.224C163.506 235.794 164.83 233.713 167.184 233.298C169.629 232.867 171.444 234.191 171.873 236.621C171.908 236.818 171.959 237.107 171.99 237.462L166.188 238.485C166.485 239.544 167.359 240.063 168.513 239.86C169.546 239.678 170.042 239.027 170.35 238.283L172.014 238.93ZM169.638 236.295L165.963 236.943C165.906 235.997 166.439 235.199 167.471 235.017C168.58 234.821 169.387 235.399 169.638 236.295ZM178.574 237.319C178.866 238.974 177.651 240.081 176.057 240.362C173.809 240.758 172.877 239.56 172.674 238.14L174.618 237.797C174.72 238.374 175.008 238.856 175.798 238.716C176.329 238.623 176.709 238.29 176.626 237.819C176.543 237.348 176.263 237.178 175.674 237.125C175.562 237.115 175.456 237.106 175.352 237.097L175.352 237.097L175.352 237.097L175.352 237.097L175.352 237.097C175.03 237.07 174.735 237.045 174.379 236.978C173.183 236.766 172.487 236.106 172.27 234.875C172.029 233.508 173.007 232.302 174.632 232.016C176.348 231.713 177.519 232.4 177.834 234.098L175.966 234.427C175.841 233.807 175.488 233.494 174.865 233.603C174.379 233.689 174.108 234.019 174.181 234.429C174.25 234.824 174.518 235.011 175.028 235.062C175.21 235.082 175.383 235.093 175.561 235.104C175.758 235.117 175.961 235.13 176.188 235.155C177.564 235.32 178.314 235.845 178.574 237.319ZM191.771 228.681L193.276 237.216L191.165 237.588L189.66 229.053L187.747 229.39L187.398 227.416L193.337 226.369L193.685 228.343L191.771 228.681ZM195.534 227.907C196.217 227.787 196.655 227.162 196.537 226.493C196.417 225.81 195.789 225.357 195.105 225.477C194.437 225.595 193.987 226.238 194.107 226.922C194.225 227.59 194.865 228.025 195.534 227.907ZM196.643 228.244L198.075 236.37L196.04 236.729L194.607 228.603L196.643 228.244ZM203.422 235.427L204.068 229.942L206.581 234.87L208.829 234.474L209.766 225.931L207.64 226.305L207.154 232.076L204.678 226.828L202.506 227.211L201.975 232.989L199.544 227.733L197.251 228.137L201.129 235.832L203.422 235.427ZM215.983 232.68C215.798 232.963 215.318 233.439 214.376 233.605C212.751 233.892 211.361 233.025 211.064 231.339C210.796 229.821 211.701 228.471 213.387 228.173C214.116 228.045 214.652 228.154 214.889 228.253L214.817 227.843C214.693 227.144 214.301 226.697 213.542 226.831C212.782 226.965 212.64 227.491 212.721 227.946L210.822 228.281C210.597 226.739 211.344 225.558 213.258 225.221C215.597 224.808 216.554 225.971 216.872 227.778L217.775 232.897L216.074 233.196L215.983 232.68ZM214.366 231.947C213.667 232.07 213.095 231.67 212.975 230.987C212.86 230.334 213.242 229.749 213.941 229.626C214.624 229.506 215.208 229.888 215.329 230.572C215.449 231.255 215.034 231.829 214.366 231.947ZM220.091 227.383L220.964 232.334L218.929 232.693L217.496 224.568L219.531 224.209L219.646 224.862C219.863 224.401 220.27 224.047 221.105 223.9L221.48 226.026L220.964 226.117C220.174 226.256 219.968 226.684 220.091 227.383ZM222.873 223.087C223.557 222.966 223.995 222.341 223.877 221.673C223.756 220.989 223.128 220.536 222.445 220.657C221.777 220.775 221.326 221.418 221.447 222.101C221.565 222.77 222.205 223.205 222.873 223.087ZM223.982 223.424L225.415 231.549L223.38 231.908L221.947 223.783L223.982 223.424Z" fill="#001443"/>
<path fill-rule="evenodd" clip-rule="evenodd" d="M179.667 249.837L180.486 254.479L179.571 254.641L178.753 249.998L177.907 250.147L177.783 249.44L178.628 249.291L178.531 248.743C178.43 248.169 178.505 247.699 178.757 247.332C179.008 246.964 179.414 246.731 179.974 246.633C180.185 246.595 180.399 246.586 180.617 246.606L180.698 247.356C180.538 247.354 180.371 247.368 180.196 247.399C179.899 247.451 179.685 247.578 179.554 247.78C179.423 247.981 179.386 248.243 179.443 248.566L179.543 249.13L180.685 248.929L180.81 249.636L179.667 249.837ZM151.284 259.73C151.96 259.611 152.475 259.325 152.83 258.872C153.185 258.418 153.306 257.868 153.192 257.222C153.118 256.804 152.947 256.469 152.68 256.217C152.413 255.965 152.071 255.811 151.653 255.755C151.977 255.549 152.215 255.281 152.366 254.952C152.517 254.623 152.565 254.302 152.509 253.988C152.397 253.349 152.116 252.884 151.667 252.592C151.218 252.301 150.654 252.215 149.975 252.335C149.332 252.448 148.836 252.731 148.485 253.181C148.135 253.632 148.01 254.143 148.11 254.713L149.025 254.552C148.959 254.179 149.024 253.859 149.22 253.592C149.416 253.325 149.712 253.156 150.107 253.087C150.948 252.938 151.442 253.286 151.591 254.13C151.657 254.506 151.586 254.826 151.378 255.09C151.17 255.355 150.85 255.528 150.42 255.611L149.733 255.732L149.864 256.479L150.551 256.357C151.037 256.279 151.428 256.329 151.725 256.507C152.022 256.686 152.207 256.985 152.281 257.403C152.357 257.835 152.298 258.187 152.105 258.459C151.911 258.731 151.594 258.906 151.152 258.984C150.737 259.057 150.386 259.002 150.098 258.818C149.811 258.634 149.634 258.353 149.567 257.974L148.648 258.136C148.753 258.736 149.05 259.181 149.538 259.472C150.026 259.764 150.608 259.85 151.284 259.73ZM158.021 260.668C158.746 260.541 159.197 260.002 159.373 259.054L160.434 252.499L159.455 252.672L158.917 256.901L156.875 253.127L155.876 253.303L158.717 258.257L158.61 258.836C158.557 259.189 158.455 259.443 158.304 259.599C158.153 259.755 157.922 259.86 157.613 259.915L157.362 259.938L157.493 260.68L157.845 260.684L158.021 260.668ZM162.438 253.747L163.108 257.544L162.193 257.705L161.25 252.356L162.14 252.199L162.264 252.814C162.479 252.283 162.862 251.969 163.413 251.872C163.591 251.841 163.73 251.84 163.83 251.87L163.98 252.72C163.838 252.722 163.686 252.737 163.524 252.765C162.924 252.871 162.562 253.198 162.438 253.747ZM167.604 256.853C168.214 256.745 168.685 256.514 169.016 256.158C169.348 255.802 169.471 255.385 169.387 254.907C169.336 254.62 169.225 254.389 169.053 254.214C168.881 254.039 168.641 253.905 168.333 253.814C168.024 253.722 167.633 253.665 167.158 253.643C166.684 253.622 166.349 253.57 166.155 253.489C165.96 253.408 165.843 253.257 165.805 253.036C165.763 252.802 165.824 252.596 165.986 252.418C166.148 252.239 166.396 252.121 166.729 252.062C167.052 252.005 167.336 252.049 167.58 252.193C167.825 252.336 167.969 252.533 168.013 252.784L168.933 252.622C168.847 252.134 168.588 251.767 168.155 251.52C167.722 251.274 167.203 251.204 166.596 251.311C166.02 251.412 165.573 251.648 165.255 252.016C164.938 252.385 164.818 252.788 164.895 253.227C164.942 253.49 165.047 253.706 165.211 253.875C165.375 254.043 165.605 254.172 165.901 254.263C166.197 254.353 166.586 254.407 167.066 254.424C167.547 254.441 167.892 254.502 168.103 254.606C168.313 254.71 168.44 254.885 168.484 255.133C168.525 255.367 168.453 255.572 168.269 255.749C168.084 255.926 167.819 256.045 167.473 256.106C167.097 256.172 166.779 256.136 166.518 255.997C166.257 255.857 166.091 255.636 166.021 255.332L165.106 255.494C165.162 255.81 165.307 256.088 165.541 256.327C165.775 256.566 166.071 256.732 166.427 256.826C166.783 256.919 167.176 256.928 167.604 256.853ZM176.777 254.879C176.447 255.175 176.041 255.365 175.56 255.45C174.835 255.578 174.203 255.429 173.664 255.004C173.125 254.579 172.782 253.952 172.636 253.121L172.625 253.057C172.532 252.533 172.552 252.043 172.684 251.588C172.816 251.133 173.046 250.76 173.374 250.468C173.701 250.175 174.1 249.988 174.572 249.905C175.3 249.776 175.934 249.924 176.473 250.349C177.011 250.774 177.355 251.405 177.502 252.243L177.514 252.307C177.605 252.828 177.588 253.312 177.462 253.761C177.335 254.21 177.107 254.582 176.777 254.879ZM175.428 254.704C174.966 254.785 174.566 254.67 174.228 254.359C173.889 254.049 173.668 253.597 173.563 253.003C173.445 252.334 173.493 251.796 173.706 251.388C173.92 250.98 174.252 250.736 174.704 250.656C175.165 250.575 175.567 250.692 175.91 251.007C176.253 251.322 176.476 251.773 176.579 252.359C176.695 253.015 176.648 253.549 176.439 253.962C176.23 254.374 175.892 254.622 175.428 254.704ZM187.381 253.366C188.277 253.208 188.889 252.745 189.216 251.977L188.58 251.64C188.451 251.887 188.285 252.097 188.085 252.268C187.884 252.439 187.622 252.553 187.299 252.61C186.844 252.691 186.44 252.594 186.088 252.322C185.736 252.049 185.507 251.65 185.4 251.125L189.024 250.486L188.957 250.106C188.807 249.252 188.498 248.63 188.032 248.24C187.565 247.85 186.985 247.716 186.289 247.839C185.864 247.913 185.49 248.101 185.167 248.401C184.845 248.701 184.619 249.077 184.49 249.53C184.36 249.982 184.343 250.474 184.436 251.005L184.466 251.173C184.606 251.97 184.946 252.567 185.485 252.963C186.024 253.359 186.656 253.494 187.381 253.366ZM185.297 250.369L187.976 249.896L187.964 249.827C187.856 249.367 187.667 249.029 187.398 248.813C187.129 248.597 186.803 248.523 186.421 248.59C186.052 248.655 185.765 248.844 185.562 249.157C185.359 249.47 185.271 249.874 185.297 250.369ZM191.081 252.611L191.964 250.391L193.553 252.175L194.611 251.989L192.33 249.603L193.613 246.649L192.546 246.837L191.703 248.999L190.187 247.253L189.129 247.44L191.346 249.776L190.018 252.799L191.081 252.611ZM196.349 251.147L196.803 253.723L195.889 253.884L194.583 246.478L195.418 246.331L195.568 246.916C195.859 246.389 196.335 246.067 196.998 245.95C197.641 245.837 198.192 245.99 198.651 246.408C199.111 246.827 199.417 247.468 199.569 248.331L199.584 248.415C199.727 249.229 199.657 249.918 199.372 250.482C199.087 251.045 198.627 251.383 197.991 251.495C197.342 251.609 196.794 251.493 196.349 251.147ZM197.583 250.797C197.019 250.896 196.557 250.726 196.198 250.287L195.747 247.731C195.937 247.191 196.309 246.872 196.863 246.774C197.311 246.695 197.695 246.808 198.013 247.112C198.332 247.416 198.545 247.87 198.651 248.473C198.772 249.158 198.734 249.698 198.536 250.091C198.339 250.484 198.021 250.72 197.583 250.797ZM205.278 249.144C204.952 249.912 204.34 250.375 203.444 250.533C202.718 250.661 202.086 250.527 201.548 250.131C201.009 249.735 200.669 249.138 200.528 248.34L200.499 248.172C200.405 247.642 200.423 247.15 200.552 246.697C200.681 246.245 200.907 245.868 201.23 245.569C201.553 245.269 201.926 245.081 202.352 245.006C203.047 244.884 203.628 245.017 204.094 245.408C204.561 245.798 204.869 246.42 205.02 247.273L205.087 247.654L201.463 248.293C201.569 248.818 201.798 249.217 202.151 249.489C202.503 249.762 202.906 249.858 203.361 249.778C203.684 249.721 203.946 249.607 204.147 249.436C204.348 249.264 204.513 249.055 204.643 248.808L205.278 249.144ZM204.04 247.064L201.36 247.536C201.334 247.041 201.423 246.637 201.626 246.324C201.829 246.012 202.115 245.823 202.484 245.758C202.867 245.69 203.192 245.764 203.462 245.98C203.731 246.196 203.92 246.534 204.028 246.994L204.04 247.064ZM206.815 245.922L207.485 249.719L206.57 249.88L205.627 244.531L206.517 244.374L206.641 244.989C206.856 244.458 207.239 244.144 207.79 244.047C207.968 244.016 208.107 244.015 208.207 244.045L208.357 244.895C208.215 244.897 208.063 244.912 207.901 244.94C207.301 245.046 206.939 245.373 206.815 245.922ZM209.439 242.931C209.617 242.899 209.743 242.826 209.818 242.711C209.893 242.596 209.917 242.464 209.891 242.316C209.865 242.167 209.797 242.05 209.686 241.964C209.576 241.878 209.432 241.851 209.254 241.883C209.076 241.914 208.951 241.989 208.878 242.107C208.805 242.225 208.782 242.358 208.808 242.507C208.834 242.655 208.901 242.771 209.01 242.853C209.118 242.936 209.261 242.962 209.439 242.931ZM210.048 243.751L210.991 249.101L210.076 249.262L209.133 243.912L210.048 243.751ZM214.691 248.55C215.587 248.392 216.199 247.929 216.526 247.161L215.891 246.825C215.761 247.072 215.595 247.281 215.395 247.452C215.194 247.624 214.932 247.738 214.609 247.795C214.154 247.875 213.75 247.779 213.398 247.506C213.046 247.234 212.817 246.835 212.71 246.31L216.334 245.671L216.267 245.29C216.117 244.436 215.808 243.814 215.342 243.424C214.876 243.034 214.295 242.9 213.599 243.023C213.174 243.098 212.8 243.285 212.477 243.585C212.155 243.885 211.929 244.261 211.8 244.714C211.67 245.167 211.653 245.658 211.746 246.189L211.776 246.357C211.916 247.155 212.256 247.752 212.795 248.148C213.334 248.544 213.966 248.678 214.691 248.55ZM212.608 245.553L215.287 245.08L215.275 245.011C215.167 244.551 214.978 244.213 214.709 243.997C214.44 243.781 214.114 243.707 213.732 243.774C213.363 243.839 213.077 244.028 212.873 244.341C212.67 244.654 212.582 245.058 212.608 245.553ZM218.732 247.735L218.06 243.924C218.14 243.644 218.278 243.406 218.474 243.208C218.67 243.011 218.917 242.886 219.214 242.833C219.579 242.769 219.865 242.814 220.071 242.968C220.276 243.122 220.415 243.391 220.486 243.776L221.11 247.316L222.025 247.155L221.402 243.62C221.167 242.346 220.484 241.809 219.354 242.008C218.694 242.124 218.206 242.476 217.888 243.062L217.739 242.395L216.874 242.547L217.817 247.897L218.732 247.735ZM226.555 246.203C226.259 246.425 225.93 246.568 225.568 246.632C224.839 246.761 224.217 246.62 223.701 246.209C223.185 245.799 222.853 245.172 222.704 244.328L222.677 244.175C222.586 243.654 222.599 243.174 222.719 242.735C222.839 242.296 223.058 241.933 223.376 241.646C223.694 241.358 224.097 241.172 224.585 241.086C225.185 240.98 225.715 241.072 226.175 241.361C226.636 241.65 226.93 242.079 227.057 242.648L226.192 242.801C226.105 242.459 225.924 242.198 225.649 242.017C225.374 241.836 225.063 241.776 224.717 241.837C224.252 241.919 223.922 242.15 223.725 242.53C223.529 242.909 223.487 243.415 223.598 244.048L223.629 244.221C223.737 244.838 223.948 245.29 224.26 245.578C224.573 245.866 224.965 245.969 225.436 245.886C225.762 245.828 226.03 245.679 226.239 245.438C226.448 245.197 226.54 244.926 226.514 244.625L227.379 244.473C227.417 244.782 227.362 245.092 227.217 245.403C227.071 245.715 226.851 245.981 226.555 246.203ZM230.942 245.685C231.838 245.527 232.45 245.064 232.777 244.296L232.141 243.959C232.011 244.206 231.846 244.415 231.645 244.587C231.444 244.758 231.182 244.872 230.859 244.929C230.405 245.01 230.001 244.913 229.649 244.641C229.297 244.368 229.067 243.969 228.961 243.444L232.585 242.805L232.518 242.424C232.368 241.571 232.059 240.949 231.593 240.559C231.126 240.169 230.545 240.035 229.85 240.157C229.425 240.232 229.051 240.42 228.728 240.72C228.405 241.02 228.179 241.396 228.05 241.849C227.921 242.301 227.903 242.793 227.997 243.324L228.027 243.492C228.167 244.289 228.507 244.886 229.046 245.282C229.585 245.678 230.217 245.812 230.942 245.685ZM228.86 242.687L231.539 242.215L231.527 242.146C231.419 241.686 231.23 241.348 230.961 241.132C230.692 240.916 230.366 240.841 229.984 240.909C229.614 240.974 229.328 241.163 229.125 241.476C228.922 241.788 228.834 242.192 228.86 242.687Z" fill="#8490A8"/>
<path fill-rule="evenodd" clip-rule="evenodd" d="M199.643 281.11C200.029 283.297 199.318 285.13 196.661 285.598C195.218 285.853 194.223 285.449 193.712 285.131L194.583 283.318C194.927 283.492 195.459 283.759 196.264 283.617C197.51 283.397 197.75 282.54 197.543 281.543L197.468 281.118C197.319 281.426 196.758 281.885 195.937 282.03C193.902 282.389 192.694 281.396 192.297 279.148L192.217 278.693C191.877 276.764 192.748 275.044 194.981 274.65C197.305 274.241 198.639 275.415 199.006 277.495L199.643 281.11ZM189.662 282.228L190.074 284.567L188.252 284.889L187.839 282.55L185.592 282.946L185.292 281.245L187.539 280.849L187.13 278.525L188.952 278.203L189.362 280.527L191.595 280.133L191.895 281.835L189.662 282.228ZM195.943 280.009C195.031 280.17 194.532 279.647 194.379 278.781L194.299 278.326C194.152 277.49 194.419 276.785 195.33 276.625C196.257 276.461 196.761 277.014 196.911 277.865L197 278.366C197.126 279.174 196.854 279.848 195.943 280.009ZM202.306 273.562L204.159 284.072L202.048 284.445L200.57 276.061L199.647 276.599L199.296 274.61L200.347 273.908L202.306 273.562ZM208.423 279.828L208.086 277.915L204.38 278.568L204.718 280.482L208.423 279.828ZM216.375 278.833C216.669 280.504 215.752 282.232 213.398 282.647C210.968 283.075 209.582 281.785 209.282 280.084C209.086 278.975 209.428 278.07 210.144 277.426C209.426 277.083 208.829 276.452 208.637 275.359C208.366 273.825 209.167 272.149 211.46 271.745C213.769 271.338 215.092 272.623 215.365 274.173C215.552 275.236 215.215 276.078 214.64 276.634C215.564 276.988 216.168 277.664 216.375 278.833ZM212.247 276.116C211.488 276.25 210.895 275.822 210.764 275.078C210.633 274.334 211.028 273.731 211.787 273.598C212.547 273.464 213.139 273.892 213.27 274.636C213.401 275.38 212.991 275.985 212.247 276.116ZM211.44 279.625C211.582 280.43 212.261 280.906 213.066 280.764C213.886 280.619 214.349 279.958 214.204 279.138C214.062 278.333 213.399 277.855 212.578 277.999C211.743 278.147 211.298 278.82 211.44 279.625ZM220.795 281.343C223.453 280.874 224.163 279.042 223.777 276.855L223.14 273.24C222.773 271.159 221.439 269.985 219.115 270.395C216.882 270.789 216.011 272.508 216.351 274.437L216.431 274.893C216.828 277.141 218.036 278.133 220.071 277.774C220.892 277.63 221.453 277.171 221.602 276.863L221.677 277.288C221.884 278.285 221.644 279.142 220.398 279.361C219.593 279.503 219.061 279.237 218.717 279.063L217.846 280.876C218.357 281.193 219.352 281.597 220.795 281.343ZM218.512 274.526C218.665 275.392 219.164 275.914 220.075 275.754C220.987 275.593 221.259 274.918 221.133 274.111L221.044 273.61C220.894 272.759 220.39 272.206 219.463 272.369C218.552 272.53 218.285 273.235 218.432 274.07L218.512 274.526ZM227.626 279.935L227.803 277.21L229.246 276.956L229.084 279.678L230.876 279.362L231.053 276.637L232.648 276.356L232.356 274.7L231.156 274.912L231.314 272.519L232.878 272.243L232.586 270.588L231.432 270.791L231.589 268.399L229.767 268.72L229.609 271.113L228.182 271.365L228.339 268.972L226.517 269.293L226.359 271.686L224.749 271.97L225.041 273.625L226.256 273.411L226.098 275.804L224.504 276.085L224.796 277.74L225.995 277.529L225.818 280.253L227.626 279.935ZM227.905 275.485L229.363 275.228L229.506 272.838L228.063 273.092L227.905 275.485ZM236.905 278.299L237.082 275.574L238.525 275.319L238.363 278.042L240.155 277.726L240.332 275.001L241.927 274.719L241.635 273.064L240.435 273.276L240.593 270.883L242.157 270.607L241.865 268.952L240.711 269.155L240.869 266.763L239.046 267.084L238.889 269.477L237.461 269.728L237.619 267.336L235.796 267.657L235.638 270.05L234.028 270.334L234.32 271.989L235.535 271.775L235.378 274.167L233.783 274.449L234.075 276.104L235.275 275.892L235.098 278.617L236.905 278.299ZM237.185 273.849L238.643 273.592L238.785 271.202L237.342 271.456L237.185 273.849ZM246.184 276.662L246.362 273.937L247.804 273.683L247.642 276.405L249.435 276.089L249.612 273.364L251.207 273.083L250.915 271.428L249.715 271.639L249.872 269.247L251.437 268.971L251.145 267.315L249.991 267.519L250.148 265.126L248.326 265.448L248.168 267.84L246.74 268.092L246.898 265.7L245.075 266.021L244.918 268.413L243.308 268.697L243.6 270.353L244.815 270.139L244.657 272.531L243.062 272.812L243.354 274.468L244.554 274.256L244.377 276.981L246.184 276.662ZM246.465 272.212L247.923 271.955L248.066 269.565L246.623 269.82L246.465 272.212ZM255.465 275.026L255.642 272.301L257.085 272.047L256.923 274.769L258.715 274.453L258.892 271.728L260.487 271.447L260.195 269.791L258.995 270.003L259.153 267.61L260.717 267.335L260.425 265.679L259.271 265.883L259.429 263.49L257.606 263.812L257.448 266.204L256.021 266.456L256.178 264.063L254.356 264.385L254.198 266.777L252.588 267.061L252.88 268.716L254.095 268.502L253.938 270.895L252.343 271.176L252.635 272.831L253.835 272.62L253.657 275.345L255.465 275.026ZM255.744 270.576L257.203 270.319L257.345 267.929L255.902 268.184L255.744 270.576ZM264.745 273.39L264.923 270.665L266.365 270.41L266.203 273.133L267.995 272.817L268.173 270.092L269.768 269.811L269.476 268.155L268.276 268.367L268.433 265.974L269.998 265.698L269.706 264.043L268.551 264.246L268.709 261.854L266.886 262.175L266.729 264.568L265.301 264.819L265.459 262.427L263.636 262.748L263.479 265.141L261.869 265.425L262.161 267.08L263.376 266.866L263.218 269.258L261.623 269.54L261.915 271.195L263.115 270.983L262.938 273.708L264.745 273.39ZM265.025 268.94L266.483 268.683L266.625 266.293L265.183 266.547L265.025 268.94ZM274.025 271.753L274.202 269.028L275.645 268.774L275.483 271.496L277.275 271.18L277.452 268.455L279.047 268.174L278.755 266.519L277.555 266.73L277.713 264.338L279.277 264.062L278.985 262.406L277.831 262.61L277.988 260.217L276.166 260.539L276.008 262.931L274.581 263.183L274.738 260.791L272.916 261.112L272.758 263.504L271.148 263.788L271.44 265.444L272.655 265.23L272.497 267.622L270.903 267.903L271.195 269.559L272.394 269.347L272.217 272.072L274.025 271.753ZM274.305 267.303L275.763 267.046L275.906 264.656L274.463 264.911L274.305 267.303ZM287.846 269.316L287.511 267.418L283.532 268.119L285.418 265.313C286.206 264.187 286.691 263.209 286.442 261.796C286.129 260.019 284.743 258.823 282.48 259.222C279.883 259.68 279.514 261.671 279.814 263.106L281.894 262.739C281.801 262.208 281.874 261.38 282.831 261.212C283.605 261.075 284.134 261.499 284.274 262.288C284.41 263.063 284.087 263.715 283.542 264.532L280.791 268.65L281.118 270.503L287.846 269.316ZM294.859 264.775C295.215 266.795 294.031 268.429 291.951 268.796C289.262 269.27 288.187 267.612 287.916 266.078L289.997 265.711C290.156 266.435 290.691 266.982 291.602 266.822C292.423 266.677 292.837 266.009 292.695 265.204C292.543 264.338 291.935 263.913 290.994 264.079L289.596 264.325L289.307 262.685L290.99 259.883L287.329 260.528L286.995 258.629L293.1 257.553L293.432 259.436L291.673 262.158C293.148 262.086 294.503 262.755 294.859 264.775Z" fill="#8490A8"/>
<circle opacity="0.24" cx="166.381" cy="285.106" r="12.4503" transform="rotate(-10 166.381 285.106)" fill="#FF5636"/>
<path fill-rule="evenodd" clip-rule="evenodd" d="M171.049 283.059L170.258 283.199L170.072 282.144C169.713 280.108 167.765 278.744 165.73 279.103C163.694 279.462 162.33 281.41 162.689 283.446L162.875 284.5L162.084 284.64C161.938 284.666 161.841 284.804 161.867 284.95L163.029 291.542C163.132 292.124 163.688 292.513 164.27 292.411L171.653 291.109C172.235 291.006 172.624 290.45 172.522 289.868L171.359 283.276C171.334 283.13 171.195 283.033 171.049 283.059ZM168.327 289.219C168.348 289.291 168.337 289.37 168.297 289.435C168.257 289.5 168.191 289.544 168.116 289.558L167.062 289.744C166.987 289.757 166.909 289.737 166.85 289.69C166.79 289.643 166.753 289.573 166.748 289.497L166.65 287.972C166.346 287.823 166.129 287.541 166.069 287.2C165.967 286.618 166.356 286.062 166.938 285.959C167.52 285.856 168.076 286.246 168.179 286.828C168.239 287.169 168.132 287.508 167.897 287.752L168.327 289.219ZM164.272 283.167L164.458 284.221L168.677 283.477L168.491 282.423C168.286 281.26 167.172 280.48 166.009 280.685C164.846 280.89 164.067 282.003 164.272 283.167Z" fill="#D83C3C"/>
<path d="M269.093 311.926L261.459 306.581L258.867 310.282C258.644 310.602 258.269 310.783 257.878 310.762C257.486 310.74 257.135 310.517 256.949 310.172L247.327 292.404C247.123 292.027 247.15 291.568 247.395 291.218C247.639 290.869 248.062 290.682 248.486 290.749L268.474 293.713C268.862 293.77 269.191 294.024 269.346 294.384C269.5 294.743 269.458 295.157 269.233 295.478L266.642 299.179L274.276 304.525C274.787 304.883 274.911 305.587 274.553 306.098L270.666 311.649C270.308 312.16 269.604 312.284 269.093 311.926Z" fill="#4727AD"/>
<path d="M247.134 286.16C246.519 286.268 245.934 285.858 245.825 285.243L244.648 278.569C244.54 277.954 244.95 277.369 245.565 277.26C246.179 277.152 246.765 277.562 246.873 278.177L248.05 284.851C248.158 285.466 247.749 286.051 247.134 286.16Z" fill="#4727AD"/>
<path d="M241.915 288.76L236.363 284.872C235.852 284.514 235.728 283.81 236.085 283.299C236.443 282.788 237.147 282.664 237.659 283.022L243.211 286.91C243.722 287.267 243.846 287.971 243.488 288.483C243.13 288.994 242.426 289.118 241.915 288.76Z" fill="#276EF1"/>
<path d="M239.692 303.75C239.181 303.393 239.057 302.689 239.415 302.177L243.303 296.625C243.661 296.114 244.365 295.99 244.876 296.348C245.387 296.706 245.511 297.41 245.153 297.921L241.265 303.473C240.907 303.984 240.203 304.108 239.692 303.75Z" fill="#276EF1"/>
<path d="M251.352 287.096C250.841 286.738 250.717 286.034 251.075 285.523L254.963 279.971C255.321 279.459 256.025 279.335 256.536 279.693C257.047 280.051 257.171 280.755 256.813 281.266L252.925 286.819C252.567 287.33 251.864 287.454 251.352 287.096Z" fill="#276EF1"/>
<path d="M241.636 294.011L234.962 295.188C234.347 295.296 233.762 294.887 233.653 294.272C233.545 293.657 233.955 293.072 234.569 292.963L241.244 291.786C241.859 291.678 242.444 292.088 242.552 292.702C242.661 293.317 242.251 293.903 241.636 294.011Z" fill="#4727AD"/>
<path opacity="0.24" fill-rule="evenodd" clip-rule="evenodd" d="M1354.08 323.419L1346.68 303.109C1346.28 301.991 1346.28 301.991 1347.39 301.587C1350.11 300.597 1352.82 299.608 1355.54 298.618C1356.23 298.369 1356.56 298.469 1356.83 299.195C1361.83 312.951 1366.84 326.701 1371.84 340.446C1372.09 341.129 1371.94 341.434 1371.27 341.677C1368.47 342.661 1365.67 343.678 1362.89 344.729C1362.12 345.01 1361.83 344.784 1361.57 344.067C1359.09 337.172 1356.58 330.297 1354.08 323.419Z" fill="#09B984"/>
<path opacity="0.08" fill-rule="evenodd" clip-rule="evenodd" d="M1203.89 301.053L1222.23 282.061C1223.24 281.016 1223.24 281.016 1222.22 280.036C1219.74 277.637 1217.25 275.237 1214.77 272.837C1214.14 272.232 1213.72 272.184 1213.07 272.862C1200.65 285.726 1188.23 298.584 1175.82 311.437C1175.2 312.076 1175.21 312.485 1175.82 313.075C1178.41 315.511 1180.96 317.977 1183.48 320.476C1184.19 321.157 1184.61 321.042 1185.26 320.372C1191.46 313.91 1197.68 307.485 1203.89 301.053Z" fill="#09B984"/>
<path opacity="0.16" fill-rule="evenodd" clip-rule="evenodd" d="M1145.19 202.088L1156.63 208.689C1157.25 209.052 1157.25 209.052 1157.63 208.395C1158.56 206.784 1159.49 205.173 1160.42 203.562C1160.66 203.156 1160.64 202.936 1160.23 202.7C1152.49 198.23 1144.75 193.761 1137.01 189.294C1136.62 189.072 1136.42 189.135 1136.19 189.532C1135.26 191.199 1134.3 192.855 1133.32 194.5C1133.06 194.957 1133.16 195.156 1133.57 195.389C1137.45 197.612 1141.32 199.853 1145.19 202.088Z" fill="#09B984"/>
<path opacity="0.16" fill-rule="evenodd" clip-rule="evenodd" d="M1381.19 188.088L1392.63 194.689C1393.25 195.052 1393.25 195.052 1393.63 194.395C1394.56 192.784 1395.49 191.173 1396.42 189.562C1396.66 189.156 1396.64 188.936 1396.23 188.7C1388.49 184.23 1380.75 179.761 1373.01 175.294C1372.62 175.072 1372.42 175.135 1372.19 175.532C1371.26 177.199 1370.3 178.855 1369.32 180.5C1369.06 180.957 1369.16 181.156 1369.57 181.389C1373.45 183.612 1377.32 185.853 1381.19 188.088Z" fill="#09B984"/>
<path d="M1246.49 200.797L1237.42 175.881C1233.99 166.475 1223.61 161.661 1214.16 165.1L1203.77 168.882C1194.32 172.321 1189.45 182.687 1192.88 192.093L1201.95 217.009L1190.12 221.313L1180.43 194.692C1174.66 178.851 1182.88 161.349 1198.79 155.556L1209.18 151.775C1225.1 145.982 1242.64 154.111 1248.4 169.952L1258.09 196.573L1246.49 200.797Z" fill="#4727AD"/>
<path d="M1339.14 235.405L1254.75 266.119C1252.05 267.105 1249.03 265.709 1248.05 263.014L1227.43 206.361C1226.45 203.666 1227.86 200.662 1230.57 199.676L1314.96 168.962C1317.66 167.977 1320.67 169.372 1321.66 172.067L1342.28 228.72C1343.28 231.47 1341.85 234.42 1339.14 235.405Z" fill="#FFC401"/>
<path d="M1292.51 219.238C1291.27 215.828 1287.51 214.084 1284.08 215.331C1280.65 216.578 1278.89 220.334 1280.13 223.744C1280.87 225.779 1282.51 227.177 1284.42 227.789L1285.77 239.57L1297.87 235.165L1291.51 225.585C1292.85 223.786 1293.31 221.439 1292.51 219.238Z" fill="#4727AD"/>
<circle opacity="0.24" cx="720.5" cy="106.5" r="28.5" fill="#09B984"/>
<path d="M714.846 105.251V99.5983C714.846 97.4645 713.115 95.7424 710.972 95.7424H708.614C706.471 95.7424 704.74 97.4645 704.74 99.5983V105.251H702.057V99.2115C702.057 95.6176 704.979 92.7101 708.589 92.7101H710.946C714.557 92.7101 717.479 95.6176 717.479 99.2115V105.251H714.846Z" fill="#09B984"/>
<path d="M730.884 118.94H711.739C711.125 118.94 710.623 118.441 710.623 117.83V104.977C710.623 104.365 711.125 103.866 711.739 103.866H730.884C731.498 103.866 732 104.365 732 104.977V117.83C732 118.454 731.498 118.94 730.884 118.94Z" fill="#09B984"/>
<path d="M722.722 112.302C722.722 111.528 722.095 110.904 721.318 110.904C720.541 110.904 719.914 111.528 719.914 112.302C719.914 112.763 720.139 113.163 720.478 113.425L719.889 115.883H722.634L722.058 113.5C722.459 113.238 722.722 112.801 722.722 112.302Z" fill="white"/>
<path d="M663.198 104.215L665.936 98L668.675 104.215L675.722 104.798L670.37 109.303L671.982 116L665.926 112.44L659.871 116L661.503 109.303L656.15 104.798L663.198 104.215Z" fill="#B1E9D8"/>
<path d="M772.198 104.215L774.936 98L777.675 104.215L784.722 104.798L779.37 109.303L780.982 116L774.926 112.44L768.871 116L770.503 109.303L765.15 104.798L772.198 104.215Z" fill="#B1E9D8"/>
<path d="M802.198 104.215L804.936 98L807.675 104.215L814.722 104.798L809.37 109.303L810.982 116L804.926 112.44L798.871 116L800.503 109.303L795.15 104.798L802.198 104.215Z" fill="#B1E9D8"/>
<path d="M632.198 104.215L634.936 98L637.675 104.215L644.722 104.798L639.37 109.303L640.982 116L634.926 112.44L628.871 116L630.503 109.303L625.15 104.798L632.198 104.215Z" fill="#B1E9D8"/>
</svg>
