<svg xmlns="http://www.w3.org/2000/svg" xmlns:xlink="http://www.w3.org/1999/xlink" width="1439" height="524" viewBox="0 0 1439 524">
    <defs>
        <path id="z198td49pa" d="M0 0H818V524H0z"/>
    </defs>
    <g fill="none" fill-rule="evenodd">
        <g>
            <g fill="#D9AE38">
                <g>
                    <path d="M95.692 387c-.167 0-.334-.029-.498-.089l-20.384-7.624c-.669-.247-.986-.941-.71-1.55.274-.609 1.045-.897 1.703-.647l20.387 7.621c.666.25.987.945.711 1.554-.209.46-.697.735-1.209.735M22.669 152c-.167 0-.337-.03-.5-.088l-20.337-7.565c-.681-.25-1.01-.962-.734-1.587.276-.624 1.053-.92 1.73-.673l20.34 7.562c.681.253 1.01.966.734 1.59-.213.475-.709.761-1.233.761M852.275 100c-.582 0-1.106-.427-1.242-1.054-.16-.731.27-1.46.956-1.63l13.45-3.284c.701-.16 1.368.29 1.528 1.018.16.731-.27 1.463-.956 1.63l-13.45 3.287c-.096.022-.194.033-.286.033M851.031 284c-.496 0-.918-.522-.964-1.218l-1.063-16.326c-.049-.736.344-1.386.88-1.454.532-.042 1.003.48 1.05 1.215l1.062 16.322c.049.74-.344 1.39-.88 1.457-.028.004-.056.004-.085.004M542.551 27c-.618 0-1.119-.566-1.125-1.268l-.102-13.44c-.006-.706.495-1.285 1.116-1.292h.009c.618 0 1.119.566 1.125 1.268l.102 13.443c.006.706-.495 1.282-1.116 1.289h-.009zM356.641 253c-.612 0-1.113-.588-1.125-1.324l-.282-20.305c-.009-.743.486-1.357 1.107-1.371.735.01 1.131.581 1.143 1.324l.282 20.309c.009.743-.486 1.356-1.107 1.367h-.018zM495.29 222c-.498 0-.969-.272-1.182-.728-.285-.615.014-1.33.667-1.6l18.42-7.57c.656-.269 1.415.013 1.697.628.285.615-.014 1.327-.663 1.595l-18.423 7.575c-.165.068-.344.1-.516.1M228.718 447c-.106 0-.216-.013-.325-.039l-18.432-4.57c-.687-.171-1.097-.836-.92-1.485.185-.648.896-1.031 1.566-.869l18.435 4.57c.684.168 1.094.836.917 1.485-.154.545-.67.908-1.241.908M21.72 442c-.455 0-.898-.237-1.127-.659l-13.44-24.493c-.335-.612-.102-1.371.522-1.699.618-.324 1.4-.104 1.734.512l13.436 24.49c.338.612.103 1.37-.518 1.699-.195.103-.4.15-.608.15M843.152 440c-.261 0-.525-.1-.74-.306-.486-.463-.553-1.288-.142-1.837l7.697-10.394c.412-.55 1.137-.62 1.623-.157.485.46.55 1.284.14 1.837l-7.696 10.39c-.227.31-.556.467-.882.467M598.683 281c-.435 0-.86-.212-1.11-.594l-13.367-20.437c-.39-.597-.21-1.386.404-1.769.61-.379 1.425-.205 1.818.393l13.364 20.44c.394.598.211 1.387-.403 1.766-.218.136-.464.201-.706.201M425.744 107c-.037 0-.073 0-.114-.003l-24.489-1.89c-.69-.053-1.2-.569-1.136-1.149.064-.577.647-1 1.367-.955l24.486 1.887c.69.057 1.203.57 1.136 1.15-.06.549-.606.96-1.25.96M782.676 269c-.402 0-.808-.181-1.065-.52l-16.35-21.44c-.438-.571-.31-1.374.278-1.794.579-.41 1.418-.3 1.848.273l16.354 21.439c.434.57.31 1.373-.279 1.793-.236.167-.511.249-.786.249M250.341 231c-.59 0-1.13-.376-1.294-.946-.193-.682.229-1.386.944-1.57l13.317-3.434c.705-.198 1.449.215 1.645.9.194.684-.232 1.387-.947 1.568l-13.314 3.438c-.118.03-.236.044-.35.044M304.742 312c-.58 0-1.097-.42-1.227-1.038l-4.485-21.352c-.15-.713.279-1.42.956-1.578.694-.16 1.348.293 1.5 1.006l4.484 21.352c.15.713-.279 1.42-.956 1.578-.09.021-.185.032-.272.032M429.341 292c-.203 0-.403-.046-.596-.137-.665-.323-.933-1.113-.605-1.766l13.32-26.368c.325-.653 1.136-.909 1.798-.596.661.322.93 1.112.604 1.765l-13.32 26.372c-.232.463-.707.73-1.2.73M699.618 84.728h-.022l-16.236-.206c-.763-.013-1.37-.523-1.36-1.144.011-.62.55-1.08 1.404-1.106l16.236.206c.763.01 1.37.523 1.36 1.144-.011.615-.63 1.106-1.382 1.106M824.265 197c-.25 0-.5-.076-.722-.233-.573-.414-.715-1.223-.317-1.814l16.47-24.394c.395-.594 1.188-.733 1.762-.327.573.41.715 1.224.313 1.815l-16.467 24.393c-.246.365-.64.56-1.039.56M581.054 103c-.03 0-.061 0-.092-.004-.583-.067-1.011-.71-.957-1.44l1.891-26.352c.05-.727.58-1.253 1.143-1.2.583.067 1.008.71.957 1.437l-1.892 26.355c-.05.688-.51 1.204-1.05 1.204M520.692 304c-.073 0-.153-.008-.23-.023l-16.388-3.188c-.711-.139-1.182-.87-1.053-1.635.13-.762.795-1.264 1.517-1.133l16.384 3.188c.715.139 1.186.87 1.057 1.636-.115.679-.663 1.155-1.287 1.155M434.651 193c-.237 0-.478-.067-.697-.201l-16.307-10.207c-.632-.399-.837-1.256-.453-1.92.385-.659 1.205-.867 1.852-.472l16.303 10.206c.637.4.842 1.26.457 1.92-.252.436-.698.674-1.155.674M5.341 362c-.15 0-.304-.024-.454-.074-.697-.24-1.058-.963-.808-1.616l6.32-16.475c.248-.656 1.013-1 1.717-.757.697.239 1.054.963.804 1.616l-6.317 16.471c-.196.515-.715.835-1.262.835M729.358 179c-.485 0-.956-.23-1.198-.634-.355-.584-.098-1.307.56-1.616l16.285-7.61c.655-.309 1.484-.092 1.835.495.355.583.098 1.307-.56 1.616l-16.285 7.609c-.203.095-.42.14-.637.14M101.666 209c-.12 0-.242-.014-.367-.048l-16.328-4.443c-.713-.194-1.122-.904-.92-1.582.2-.679.952-1.067 1.65-.88l16.332 4.443c.709.195 1.118.9.915 1.582-.167.563-.698.928-1.282.928M647.632 23c-.117 0-.242-.014-.366-.044l-29.26-7.458c-.73-.19-1.157-.888-.956-1.566.2-.674.935-1.07 1.684-.887l29.263 7.458c.727.186 1.154.887.953 1.565-.168.563-.716.932-1.318.932M731.77 23c-.383 0-.76-.193-1.002-.552l-7.54-11.364c-.393-.595-.265-1.414.288-1.839.553-.425 1.316-.281 1.712.31l7.544 11.36c.393.595.265 1.417-.288 1.839-.22.169-.468.246-.714.246M780.862 104c-.349 0-.695-.176-.919-.507l-7.724-11.518c-.37-.553-.26-1.332.246-1.736.51-.404 1.222-.284 1.592.269l7.724 11.515c.37.553.26 1.331-.246 1.739-.206.162-.44.238-.673.238M167.223 381c-.092 0-.19-.01-.284-.035-.655-.166-1.062-.865-.906-1.56l4.552-20.407c.156-.696.811-1.129 1.473-.962.658.166 1.065.861.909 1.56L168.412 380c-.134.599-.636 1-1.19 1M495.472 129c-.192 0-.388-.034-.572-.114-.75-.304-1.099-1.144-.785-1.866l7.056-16.15c.318-.726 1.188-1.064 1.93-.756.749.304 1.098 1.144.784 1.866l-7.056 16.15c-.24.543-.784.87-1.357.87M11.441 88c-.15 0-.3-.02-.45-.065-.757-.221-1.168-.943-.918-1.615l6.114-16.44c.254-.668 1.068-1.043 1.821-.811.758.221 1.169.943.919 1.615l-6.118 16.44c-.2.535-.765.876-1.368.876M637.338 142c-.632 0-1.193-.429-1.314-1.047-.14-.7.34-1.372 1.068-1.506l24.32-4.424c.746-.134 1.425.33 1.564 1.026.14.697-.34 1.373-1.068 1.503l-24.324 4.427c-.082.014-.168.021-.246.021M2.282 284c-.63 0-1.173-.49-1.268-1.171-.103-.75.38-1.446 1.08-1.56l20.436-3.253c.725-.117 1.347.41 1.456 1.157.103.75-.382 1.449-1.083 1.559L2.47 283.985c-.065.011-.127.015-.188.015M249.347 150c-.18 0-.362-.033-.535-.103-.682-.274-.998-1.011-.7-1.645l6.305-13.502c.298-.633 1.095-.917 1.77-.65.683.274.999 1.01.7 1.648l-6.304 13.498c-.223.474-.715.754-1.236.754M91.432 125c-.1 0-.203-.01-.306-.028-.772-.16-1.261-.863-1.093-1.58l3.134-13.346c.168-.717.913-1.173 1.704-1.014.776.155 1.261.862 1.097 1.576l-3.137 13.35c-.146.618-.738 1.042-1.4 1.042M255.747 67c-.066 0-.133-.003-.203-.014l-13.495-1.871c-.682-.094-1.143-.64-1.033-1.219.11-.578.729-.986 1.437-.879l13.498 1.871c.682.094 1.143.64 1.033 1.222-.1.519-.632.89-1.237.89M100.314 37c-.07 0-.14-.004-.21-.018-.719-.117-1.203-.799-1.087-1.527l4.372-27.332c.115-.725.795-1.236 1.507-1.101.719.117 1.203.802 1.087 1.527l-4.372 27.332c-.105.654-.662 1.119-1.297 1.119M184.358 14c-.696 0-1.29-.384-1.352-.893-.07-.538.486-1.014 1.233-1.063l16.283-1.042c.805-.03 1.41.352 1.472.888.07.538-.486 1.016-1.233 1.063l-16.283 1.044c-.043.003-.08.003-.12.003M14.867 222c-.372 0-.734-.207-.952-.583l-7.735-13.46c-.338-.59-.187-1.376.339-1.76.52-.369 1.226-.21 1.567.384l7.732 13.46c.342.59.187 1.376-.338 1.756-.187.135-.402.203-.613.203M628.365 346c-.564 0-1.096-.363-1.29-.943-.247-.733.132-1.534.846-1.785l20.267-7.196c.7-.25 1.494.135 1.738.869.244.733-.132 1.53-.849 1.784l-20.268 7.192c-.145.057-.295.079-.444.079M506.447 450c-.262 0-.529-.066-.764-.2-.679-.384-.887-1.193-.463-1.809l16.102-23.376c.428-.615 1.324-.797 1.995-.416.679.381.887 1.193.463 1.81l-16.106 23.375c-.274.399-.745.616-1.227.616M378.63 342c-.482 0-.953-.238-1.2-.66l-10.262-17.444c-.362-.62-.12-1.397.543-1.738.657-.34 1.493-.112 1.862.504l10.258 17.444c.364.62.12 1.397-.54 1.737-.212.106-.435.157-.661.157M349.66 173c-.177 0-.356-.035-.523-.104l-27.326-11.402c-.677-.284-.995-1.046-.702-1.708.292-.659 1.084-.964 1.754-.68l27.322 11.399c.681.284.999 1.05.706 1.708-.22.492-.71.787-1.23.787M164.172 275c-.178 0-.353-.043-.521-.13-.581-.307-.816-1.058-.528-1.679l7.655-16.497c.288-.624.997-.868 1.571-.564.581.307.816 1.058.528 1.676l-7.655 16.5c-.203.44-.619.694-1.05.694M872.557 362c-.3 0-.603-.086-.865-.27l-16.113-11.294c-.638-.447-.769-1.294-.292-1.892.476-.602 1.375-.72 2.017-.274l16.117 11.298c.638.446.769 1.293.292 1.891-.284.354-.718.541-1.156.541M217.334 327c-.459 0-.907-.227-1.152-.634-.373-.607-.153-1.387.483-1.737l24.331-13.456c.636-.353 1.45-.15 1.824.461.37.607.152 1.384-.484 1.736l-24.334 13.457c-.21.119-.44.173-.668.173M379.735 415c-.236 0-.472-.068-.684-.216l-16.472-11.302c-.587-.402-.755-1.237-.378-1.866.378-.626 1.16-.802 1.746-.403l16.473 11.306c.586.403.758 1.237.377 1.863-.24.399-.647.618-1.062.618M390.675 23c-.269 0-.537-.075-.773-.23l-11.35-7.546c-.593-.397-.73-1.163-.303-1.714.434-.553 1.26-.671 1.85-.281l11.349 7.544c.593.396.73 1.162.303 1.713-.26.337-.667.514-1.076.514M461.79 381c-.443 0-.869-.264-1.082-.725l-7.58-16.36c-.297-.65-.059-1.446.535-1.773.588-.327 1.327-.07 1.627.584l7.58 16.36c.3.65.062 1.442-.535 1.77-.175.098-.358.144-.546.144M176.58 107c-.477 0-.946-.222-1.211-.625L159.206 81.98c-.405-.615-.197-1.414.477-1.79.663-.374 1.541-.18 1.95.439l16.159 24.391c.409.615.197 1.417-.477 1.789-.227.128-.485.191-.735.191M282.307 401c-.052 0-.105-.003-.16-.01-.719-.088-1.224-.746-1.137-1.463l3.386-27.38c.087-.713.708-1.228 1.457-1.137.719.088 1.224.746 1.137 1.463l-3.386 27.376c-.08.665-.645 1.151-1.297 1.151M98.117 290.2c4.582 2.546 6.235 8.33 3.684 12.916-2.547 4.586-8.33 6.235-12.917 3.684-4.586-2.547-6.235-8.33-3.684-12.917 2.547-4.582 8.33-6.235 12.917-3.684M556.058 357.064c3.834-.52 7.361 2.166 7.877 5.996.523 3.83-2.163 7.356-5.997 7.875-3.83.523-7.357-2.166-7.873-5.996-.523-3.83 2.163-7.355 5.993-7.875M572.306 181.99c-2.756.168-5.126-1.928-5.297-4.684-.167-2.756 1.932-5.126 4.688-5.297 2.755-.167 5.126 1.93 5.293 4.685.17 2.756-1.928 5.126-4.684 5.297M178.933 173.036c3.847 2.171 5.204 7.053 3.032 10.897-2.174 3.847-7.052 5.204-10.899 3.032-3.847-2.174-5.204-7.052-3.03-10.896 2.172-3.847 7.05-5.207 10.897-3.033M303.181 18.552c-4.724 2.86-10.87 1.352-13.73-3.369-2.864-4.724-1.356-10.871 3.368-13.735 4.724-2.86 10.87-1.352 13.73 3.372 2.864 4.72 1.356 10.872-3.368 13.732M722.895 328.125c2.693-.61 5.372 1.077 5.982 3.77.606 2.693-1.08 5.37-3.774 5.98-2.693.613-5.369-1.078-5.978-3.771-.61-2.693 1.077-5.37 3.77-5.98M825.673 16.892c1.165 3.686-.88 7.616-4.566 8.78-3.682 1.166-7.616-.879-8.78-4.565-1.165-3.686.883-7.617 4.565-8.781 3.69-1.161 7.616.88 8.78 4.566M782.787 364.218c-1.78-3.432-.438-7.655 2.994-9.432 3.432-1.778 7.655-.438 9.433 2.993 1.778 3.432.438 7.655-2.994 9.436-3.432 1.777-7.655.435-9.433-2.997M704.95 414.52c-3.326 1.352-7.116-.248-8.469-3.572-1.352-3.323.244-7.114 3.57-8.467 3.324-1.353 7.117.244 8.466 3.568 1.356 3.323-.243 7.117-3.567 8.47M338.676 77.591c3.54 4.238 2.971 10.545-1.267 14.085-4.241 3.54-10.545 2.971-14.085-1.267-3.54-4.24-2.971-10.548 1.267-14.088 4.241-3.537 10.549-2.968 14.085 1.27M619.93 430.02c-3.049 1.894-7.054.96-8.948-2.089-1.898-3.049-.96-7.057 2.09-8.951 3.048-1.894 7.057-.96 8.948 2.089 1.894 3.049.96 7.057-2.09 8.951M16.491 6.73c3.188 1.65 4.43 5.572 2.777 8.76-1.653 3.188-5.572 4.43-8.76 2.78-3.184-1.653-4.43-5.575-2.777-8.763 1.65-3.185 5.572-4.427 8.76-2.778M697.924 266.519c.543 3.546-1.894 6.862-5.444 7.405-3.548.543-6.865-1.893-7.404-5.443-.543-3.546 1.894-6.862 5.444-7.405 3.548-.543 6.865 1.896 7.404 5.443M462.138 31.318c-2.663-2.408-2.865-6.522-.456-9.18 2.412-2.663 6.522-2.865 9.182-.456 2.659 2.408 2.864 6.518.455 9.18-2.412 2.663-6.522 2.865-9.181.456M656.798 211.401c-.772 2.652-3.549 4.17-6.198 3.398-2.651-.774-4.173-3.55-3.398-6.2.775-2.65 3.548-4.172 6.2-3.397 2.652.775 4.17 3.548 3.396 6.2" transform="translate(-102) translate(0 83) translate(667)"/>
                </g>
                <g>
                    <path d="M852.275 100c-.582 0-1.106-.427-1.242-1.054-.16-.731.27-1.46.956-1.63l13.45-3.284c.701-.16 1.368.29 1.528 1.018.16.731-.27 1.463-.956 1.63l-13.45 3.287c-.096.022-.194.033-.286.033M929.745 245c-.325 0-.65-.125-.897-.37l-11.487-11.525c-.489-.488-.479-1.273.016-1.75.492-.479 1.286-.472 1.774.016l11.49 11.526c.486.488.476 1.272-.016 1.75-.248.234-.562.353-.88.353M851.031 284c-.496 0-.918-.522-.964-1.218l-1.063-16.326c-.049-.736.344-1.386.88-1.454.532-.042 1.003.48 1.05 1.215l1.062 16.322c.049.74-.344 1.39-.88 1.457-.028.004-.056.004-.085.004M542.551 27c-.618 0-1.119-.566-1.125-1.268l-.102-13.44c-.006-.706.495-1.285 1.116-1.292h.009c.618 0 1.119.566 1.125 1.268l.102 13.443c.006.706-.495 1.282-1.116 1.289h-.009zM356.641 253c-.612 0-1.113-.588-1.125-1.324l-.282-20.305c-.009-.743.486-1.357 1.107-1.371.735.01 1.131.581 1.143 1.324l.282 20.309c.009.743-.486 1.356-1.107 1.367h-.018zM495.29 222c-.498 0-.969-.272-1.182-.728-.285-.615.014-1.33.667-1.6l18.42-7.57c.656-.269 1.415.013 1.697.628.285.615-.014 1.327-.663 1.595l-18.423 7.575c-.165.068-.344.1-.516.1M228.718 447c-.106 0-.216-.013-.325-.039l-18.432-4.57c-.687-.171-1.097-.836-.92-1.485.185-.648.896-1.031 1.566-.869l18.435 4.57c.684.168 1.094.836.917 1.485-.154.545-.67.908-1.241.908M917.313 169c-.357 0-.708-.143-.967-.421-.49-.53-.455-1.357.077-1.845l11.374-10.389c.536-.487 1.366-.456 1.857.077.49.529.455 1.354-.077 1.844l-11.374 10.39c-.252.23-.571.344-.89.344M942.622 324c-.096 0-.199-.01-.301-.03l-23.244-4.567c-.742-.15-1.21-.798-1.044-1.453.17-.652.875-1.06 1.646-.924l23.244 4.572c.742.145 1.21.794 1.044 1.452-.144.564-.713.95-1.345.95M843.152 440c-.261 0-.525-.1-.74-.306-.486-.463-.553-1.288-.142-1.837l7.697-10.394c.412-.55 1.137-.62 1.623-.157.485.46.55 1.284.14 1.837l-7.696 10.39c-.227.31-.556.467-.882.467M598.683 281c-.435 0-.86-.212-1.11-.594l-13.367-20.437c-.39-.597-.21-1.386.404-1.769.61-.379 1.425-.205 1.818.393l13.364 20.44c.394.598.211 1.387-.403 1.766-.218.136-.464.201-.706.201M909.365 22c-.305 0-.611-.102-.863-.306-.582-.478-.673-1.342-.193-1.925L921.58 3.5c.47-.584 1.341-.664 1.92-.194.583.478.67 1.338.193 1.925l-13.27 16.267c-.266.332-.663.503-1.057.503M425.744 107c-.037 0-.073 0-.114-.003l-24.489-1.89c-.69-.053-1.2-.569-1.136-1.149.064-.577.647-1 1.367-.955l24.486 1.887c.69.057 1.203.57 1.136 1.15-.06.549-.606.96-1.25.96M936.688 414c-.28 0-.56-.077-.8-.24l-11.374-7.69c-.573-.387-.685-1.114-.245-1.619.444-.51 1.269-.597 1.842-.212l11.377 7.692c.573.388.682 1.112.241 1.62-.258.295-.65.449-1.041.449M782.676 269c-.402 0-.808-.181-1.065-.52l-16.35-21.44c-.438-.571-.31-1.374.278-1.794.579-.41 1.418-.3 1.848.273l16.354 21.439c.434.57.31 1.373-.279 1.793-.236.167-.511.249-.786.249M250.341 231c-.59 0-1.13-.376-1.294-.946-.193-.682.229-1.386.944-1.57l13.317-3.434c.705-.198 1.449.215 1.645.9.194.684-.232 1.387-.947 1.568l-13.314 3.438c-.118.03-.236.044-.35.044M304.742 312c-.58 0-1.097-.42-1.227-1.038l-4.485-21.352c-.15-.713.279-1.42.956-1.578.694-.16 1.348.293 1.5 1.006l4.484 21.352c.15.713-.279 1.42-.956 1.578-.09.021-.185.032-.272.032M429.341 292c-.203 0-.403-.046-.596-.137-.665-.323-.933-1.113-.605-1.766l13.32-26.368c.325-.653 1.136-.909 1.798-.596.661.322.93 1.112.604 1.765l-13.32 26.372c-.232.463-.707.73-1.2.73M699.618 84.728h-.022l-16.236-.206c-.763-.013-1.37-.523-1.36-1.144.011-.62.55-1.08 1.404-1.106l16.236.206c.763.01 1.37.523 1.36 1.144-.011.615-.63 1.106-1.382 1.106M824.265 197c-.25 0-.5-.076-.722-.233-.573-.414-.715-1.223-.317-1.814l16.47-24.394c.395-.594 1.188-.733 1.762-.327.573.41.715 1.224.313 1.815l-16.467 24.393c-.246.365-.64.56-1.039.56M581.054 103c-.03 0-.061 0-.092-.004-.583-.067-1.011-.71-.957-1.44l1.891-26.352c.05-.727.58-1.253 1.143-1.2.583.067 1.008.71.957 1.437l-1.892 26.355c-.05.688-.51 1.204-1.05 1.204M520.692 304c-.073 0-.153-.008-.23-.023l-16.388-3.188c-.711-.139-1.182-.87-1.053-1.635.13-.762.795-1.264 1.517-1.133l16.384 3.188c.715.139 1.186.87 1.057 1.636-.115.679-.663 1.155-1.287 1.155M434.651 193c-.237 0-.478-.067-.697-.201l-16.307-10.207c-.632-.399-.837-1.256-.453-1.92.385-.659 1.205-.867 1.852-.472l16.303 10.206c.637.4.842 1.26.457 1.92-.252.436-.698.674-1.155.674M729.358 179c-.485 0-.956-.23-1.198-.634-.355-.584-.098-1.307.56-1.616l16.285-7.61c.655-.309 1.484-.092 1.835.495.355.583.098 1.307-.56 1.616l-16.285 7.609c-.203.095-.42.14-.637.14M101.666 209c-.12 0-.242-.014-.367-.048l-16.328-4.443c-.713-.194-1.122-.904-.92-1.582.2-.679.952-1.067 1.65-.88l16.332 4.443c.709.195 1.118.9.915 1.582-.167.563-.698.928-1.282.928M647.632 23c-.117 0-.242-.014-.366-.044l-29.26-7.458c-.73-.19-1.157-.888-.956-1.566.2-.674.935-1.07 1.684-.887l29.263 7.458c.727.186 1.154.887.953 1.565-.168.563-.716.932-1.318.932M731.77 23c-.383 0-.76-.193-1.002-.552l-7.54-11.364c-.393-.595-.265-1.414.288-1.839.553-.425 1.316-.281 1.712.31l7.544 11.36c.393.595.265 1.417-.288 1.839-.22.169-.468.246-.714.246M780.862 104c-.349 0-.695-.176-.919-.507l-7.724-11.518c-.37-.553-.26-1.332.246-1.736.51-.404 1.222-.284 1.592.269l7.724 11.515c.37.553.26 1.331-.246 1.739-.206.162-.44.238-.673.238M167.223 381c-.092 0-.19-.01-.284-.035-.655-.166-1.062-.865-.906-1.56l4.552-20.407c.156-.696.811-1.129 1.473-.962.658.166 1.065.861.909 1.56L168.412 380c-.134.599-.636 1-1.19 1M495.472 129c-.192 0-.388-.034-.572-.114-.75-.304-1.099-1.144-.785-1.866l7.056-16.15c.318-.726 1.188-1.064 1.93-.756.749.304 1.098 1.144.784 1.866l-7.056 16.15c-.24.543-.784.87-1.357.87M637.338 142c-.632 0-1.193-.429-1.314-1.047-.14-.7.34-1.372 1.068-1.506l24.32-4.424c.746-.134 1.425.33 1.564 1.026.14.697-.34 1.373-1.068 1.503l-24.324 4.427c-.082.014-.168.021-.246.021M249.347 150c-.18 0-.362-.033-.535-.103-.682-.274-.998-1.011-.7-1.645l6.305-13.502c.298-.633 1.095-.917 1.77-.65.683.274.999 1.01.7 1.648l-6.304 13.498c-.223.474-.715.754-1.236.754M255.747 67c-.066 0-.133-.003-.203-.014l-13.495-1.871c-.682-.094-1.143-.64-1.033-1.219.11-.578.729-.986 1.437-.879l13.498 1.871c.682.094 1.143.64 1.033 1.222-.1.519-.632.89-1.237.89M100.314 37c-.07 0-.14-.004-.21-.018-.719-.117-1.203-.799-1.087-1.527l4.372-27.332c.115-.725.795-1.236 1.507-1.101.719.117 1.203.802 1.087 1.527l-4.372 27.332c-.105.654-.662 1.119-1.297 1.119M184.358 14c-.696 0-1.29-.384-1.352-.893-.07-.538.486-1.014 1.233-1.063l16.283-1.042c.805-.03 1.41.352 1.472.888.07.538-.486 1.016-1.233 1.063l-16.283 1.044c-.043.003-.08.003-.12.003M628.365 346c-.564 0-1.096-.363-1.29-.943-.247-.733.132-1.534.846-1.785l20.267-7.196c.7-.25 1.494.135 1.738.869.244.733-.132 1.53-.849 1.784l-20.268 7.192c-.145.057-.295.079-.444.079M506.447 450c-.262 0-.529-.066-.764-.2-.679-.384-.887-1.193-.463-1.809l16.102-23.376c.428-.615 1.324-.797 1.995-.416.679.381.887 1.193.463 1.81l-16.106 23.375c-.274.399-.745.616-1.227.616M378.63 342c-.482 0-.953-.238-1.2-.66l-10.262-17.444c-.362-.62-.12-1.397.543-1.738.657-.34 1.493-.112 1.862.504l10.258 17.444c.364.62.12 1.397-.54 1.737-.212.106-.435.157-.661.157M349.66 173c-.177 0-.356-.035-.523-.104l-27.326-11.402c-.677-.284-.995-1.046-.702-1.708.292-.659 1.084-.964 1.754-.68l27.322 11.399c.681.284.999 1.05.706 1.708-.22.492-.71.787-1.23.787M164.172 275c-.178 0-.353-.043-.521-.13-.581-.307-.816-1.058-.528-1.679l7.655-16.497c.288-.624.997-.868 1.571-.564.581.307.816 1.058.528 1.676l-7.655 16.5c-.203.44-.619.694-1.05.694M872.557 362c-.3 0-.603-.086-.865-.27l-16.113-11.294c-.638-.447-.769-1.294-.292-1.892.476-.602 1.375-.72 2.017-.274l16.117 11.298c.638.446.769 1.293.292 1.891-.284.354-.718.541-1.156.541M217.334 327c-.459 0-.907-.227-1.152-.634-.373-.607-.153-1.387.483-1.737l24.331-13.456c.636-.353 1.45-.15 1.824.461.37.607.152 1.384-.484 1.736l-24.334 13.457c-.21.119-.44.173-.668.173M379.735 415c-.236 0-.472-.068-.684-.216l-16.472-11.302c-.587-.402-.755-1.237-.378-1.866.378-.626 1.16-.802 1.746-.403l16.473 11.306c.586.403.758 1.237.377 1.863-.24.399-.647.618-1.062.618M390.675 23c-.269 0-.537-.075-.773-.23l-11.35-7.546c-.593-.397-.73-1.163-.303-1.714.434-.553 1.26-.671 1.85-.281l11.349 7.544c.593.396.73 1.162.303 1.713-.26.337-.667.514-1.076.514M461.79 381c-.443 0-.869-.264-1.082-.725l-7.58-16.36c-.297-.65-.059-1.446.535-1.773.588-.327 1.327-.07 1.627.584l7.58 16.36c.3.65.062 1.442-.535 1.77-.175.098-.358.144-.546.144M176.58 107c-.477 0-.946-.222-1.211-.625L159.206 81.98c-.405-.615-.197-1.414.477-1.79.663-.374 1.541-.18 1.95.439l16.159 24.391c.409.615.197 1.417-.477 1.789-.227.128-.485.191-.735.191M282.307 401c-.052 0-.105-.003-.16-.01-.719-.088-1.224-.746-1.137-1.463l3.386-27.38c.087-.713.708-1.228 1.457-1.137.719.088 1.224.746 1.137 1.463l-3.386 27.376c-.08.665-.645 1.151-1.297 1.151M98.117 290.2c4.582 2.546 6.235 8.33 3.684 12.916-2.547 4.586-8.33 6.235-12.917 3.684-4.586-2.547-6.235-8.33-3.684-12.917 2.547-4.582 8.33-6.235 12.917-3.684M940.269 88.338c-1.843 4.014-6.591 5.773-10.607 3.93-4.014-1.845-5.773-6.593-3.93-10.606 1.842-4.014 6.593-5.773 10.606-3.93 4.014 1.842 5.773 6.59 3.93 10.606M556.058 357.064c3.834-.52 7.361 2.166 7.877 5.996.523 3.83-2.163 7.356-5.997 7.875-3.83.523-7.357-2.166-7.873-5.996-.523-3.83 2.163-7.355 5.993-7.875M572.306 181.99c-2.756.168-5.126-1.928-5.297-4.684-.167-2.756 1.932-5.126 4.688-5.297 2.755-.167 5.126 1.93 5.293 4.685.17 2.756-1.928 5.126-4.684 5.297M178.933 173.036c3.847 2.171 5.204 7.053 3.032 10.897-2.174 3.847-7.052 5.204-10.899 3.032-3.847-2.174-5.204-7.052-3.03-10.896 2.172-3.847 7.05-5.207 10.897-3.033M303.181 18.552c-4.724 2.86-10.87 1.352-13.73-3.369-2.864-4.724-1.356-10.871 3.368-13.735 4.724-2.86 10.87-1.352 13.73 3.372 2.864 4.72 1.356 10.872-3.368 13.732M722.895 328.125c2.693-.61 5.372 1.077 5.982 3.77.606 2.693-1.08 5.37-3.774 5.98-2.693.613-5.369-1.078-5.978-3.771-.61-2.693 1.077-5.37 3.77-5.98M825.673 16.892c1.165 3.686-.88 7.616-4.566 8.78-3.682 1.166-7.616-.879-8.78-4.565-1.165-3.686.883-7.617 4.565-8.781 3.69-1.161 7.616.88 8.78 4.566M782.787 364.218c-1.78-3.432-.438-7.655 2.994-9.432 3.432-1.778 7.655-.438 9.433 2.993 1.778 3.432.438 7.655-2.994 9.436-3.432 1.777-7.655.435-9.433-2.997M704.95 414.52c-3.326 1.352-7.116-.248-8.469-3.572-1.352-3.323.244-7.114 3.57-8.467 3.324-1.353 7.117.244 8.466 3.568 1.356 3.323-.243 7.117-3.567 8.47M338.676 77.591c3.54 4.238 2.971 10.545-1.267 14.085-4.241 3.54-10.545 2.971-14.085-1.267-3.54-4.24-2.971-10.548 1.267-14.088 4.241-3.537 10.549-2.968 14.085 1.27M619.93 430.02c-3.049 1.894-7.054.96-8.948-2.089-1.898-3.049-.96-7.057 2.09-8.951 3.048-1.894 7.057-.96 8.948 2.089 1.894 3.049.96 7.057-2.09 8.951M697.924 266.519c.543 3.546-1.894 6.862-5.444 7.405-3.548.543-6.865-1.893-7.404-5.443-.543-3.546 1.894-6.862 5.444-7.405 3.548-.543 6.865 1.896 7.404 5.443M462.138 31.318c-2.663-2.408-2.865-6.522-.456-9.18 2.412-2.663 6.522-2.865 9.182-.456 2.659 2.408 2.864 6.518.455 9.18-2.412 2.663-6.522 2.865-9.181.456M656.798 211.401c-.772 2.652-3.549 4.17-6.198 3.398-2.651-.774-4.173-3.55-3.398-6.2.775-2.65 3.548-4.172 6.2-3.397 2.652.775 4.17 3.548 3.396 6.2" transform="translate(-102) translate(0 83)"/>
                </g>
            </g>
            <g transform="translate(-102) translate(396)">
                <use fill="#FFF" fill-opacity=".91" xlink:href="#z198td49pa"/>
            </g>
        </g>
    </g>
</svg>
