<svg xmlns="http://www.w3.org/2000/svg" width="274" height="200" viewBox="0 0 274 200">
    <g fill="none" fill-rule="evenodd">
        <g>
            <g>
                <g transform="translate(-584 -695) translate(539 663) translate(45 32)">
                    <rect width="273" height="200" fill="#FFF" rx="4"/>
                    <path fill="#FF5636" d="M246.937 118.412v75.436c0 4.152 0 4.152-4.12 4.152h-30.294c-2.548 0-3.523-.729-3.523-3.423V41.36c0-2.536.85-3.36 3.334-3.36 10.381.127 20.762.127 31.143 0 2.862 0 3.523 1.078 3.523 3.74-.094 25.579-.063 51.125-.063 76.672z" opacity=".24" transform="rotate(20 228 118)"/>
                    <path fill="#FF5636" d="M58.348 149.055v26.403c0 1.453 0 1.453-1.41 1.453H46.575c-.872 0-1.205-.255-1.205-1.198v-53.626c0-.887.29-1.176 1.14-1.176 3.552.044 7.103.044 10.654 0 .98 0 1.206.377 1.206 1.31-.033 8.952-.022 17.893-.022 26.834z" opacity=".08" transform="rotate(-44 51.87 148.911)"/>
                    <path fill="#FF5636" d="M135.982 179.385v13.201c0 .727 0 .727-.759.727h-5.58c-.47 0-.65-.128-.65-.599v-26.813c0-.444.157-.588.615-.588 1.912.022 3.825.022 5.737 0 .527 0 .649.189.649.655-.018 4.476-.012 8.946-.012 13.417z" opacity=".16" transform="rotate(-120 132.494 179.313)"/>
                    <g>
                        <path fill="#2E6360" d="M7 4L226 4 226 115 0 115 0 11z" opacity=".16" transform="translate(0 24) rotate(180 113 59.5)"/>
                        <path fill="#FFF" stroke="#F2F4F5" stroke-width="2" d="M11 0L230 0 230 111 4 111 4 7z" transform="translate(0 24) rotate(180 117 55.5)"/>
                        <g transform="translate(0 24) translate(16 16)">
                            <path fill="#001E3E" fill-rule="nonzero" d="M3.533 14.6V8.917h1.152L7.507 14.6h2.861L7.219 8.418c1.152-.615 1.843-1.748 1.843-3.284 0-2.457-1.42-3.82-4.07-3.82H.883V14.6h2.65zM4.78 6.728H3.533v-3.11H4.78c.979 0 1.517.595 1.517 1.536 0 .94-.538 1.574-1.517 1.574zm9.389 8.006c1.19 0 1.881-.48 2.17-.787v.653h2.15V8.13c0-2.285-.922-3.917-3.879-3.917-2.419 0-3.59 1.286-3.648 3.225h2.4c0-.576.288-1.19 1.248-1.19s1.344.634 1.344 1.517v.518c-.269-.173-.902-.422-1.824-.422-2.131 0-3.533 1.459-3.533 3.379 0 2.131 1.517 3.494 3.572 3.494zm.345-2.035c-.883 0-1.497-.614-1.497-1.478 0-.826.595-1.46 1.478-1.46.864 0 1.498.596 1.498 1.46s-.634 1.478-1.479 1.478zm6.72-9.024c.845 0 1.536-.672 1.536-1.517 0-.864-.691-1.555-1.536-1.555-.864 0-1.536.691-1.536 1.555 0 .845.672 1.517 1.536 1.517zM19.238 17.96c2.477 0 3.284-1.363 3.284-3.36V4.328h-2.573v10.234c0 .614-.115 1.17-.999 1.17h-.46v2.228h.748zm9.658-3.187c2.496 0 3.878-1.383 4.493-2.669l-1.901-1.152c-.538.845-1.286 1.536-2.592 1.536-1.46 0-2.42-.826-2.554-2.189h7.335c.038-.441.038-.806.038-1.056 0-3.072-1.939-5.088-5.03-5.088-2.976 0-5.05 2.266-5.05 5.338 0 3.264 2.15 5.28 5.261 5.28zm2.15-6.413H26.4c.134-1.171.96-2.035 2.266-2.035 1.401 0 2.265.883 2.38 2.035zm6.99 6.374c2.015 0 3.743-1.094 3.743-3.187 0-1.862-.806-2.669-2.457-3.168-.519-.153-.941-.23-1.402-.365-.614-.172-.902-.46-.902-.96 0-.518.403-.864 1.017-.864.787 0 1.152.461 1.171 1.248h2.362c-.02-2.15-1.306-3.244-3.475-3.244-2.055 0-3.514 1.267-3.514 2.995 0 1.555.71 2.515 2.131 3.033.557.212.999.308 1.556.461.71.192 1.017.461 1.017 1.056s-.537.922-1.21.922c-.998 0-1.247-.653-1.247-1.383h-2.458c-.058 1.786.826 3.456 3.667 3.456zm7.391-.134V8.13c0-.98.5-1.632 1.421-1.632.94 0 1.382.633 1.382 1.632v6.47h2.573V7.822c0-1.977-.806-3.61-3.206-3.61-1.267 0-1.901.577-2.17.884V.565h-2.573V14.6h2.573zm14.4 0V3.81h2.42V1.314h-7.508V3.81h2.42V14.6h2.668zm4.781-10.925c.864 0 1.536-.672 1.536-1.517 0-.864-.672-1.555-1.536-1.555-.845 0-1.536.691-1.536 1.555 0 .845.691 1.517 1.536 1.517zM65.894 14.6V4.328h-2.572V14.6h2.572zm6.759 0l1.977-6.586 2.016 6.586h2.842l2.995-10.272h-2.688l-1.843 6.97-1.9-6.97h-2.746l-1.901 6.97-1.843-6.97h-2.9L69.754 14.6h2.899zm13.824.134c1.19 0 1.881-.48 2.17-.787v.653h2.15V8.13c0-2.285-.922-3.917-3.879-3.917-2.419 0-3.59 1.286-3.648 3.225h2.4c0-.576.288-1.19 1.248-1.19s1.344.634 1.344 1.517v.518c-.268-.173-.902-.422-1.824-.422-2.13 0-3.532 1.459-3.532 3.379 0 2.131 1.516 3.494 3.57 3.494zm.345-2.035c-.883 0-1.497-.614-1.497-1.478 0-.826.595-1.46 1.478-1.46.864 0 1.498.596 1.498 1.46s-.634 1.478-1.479 1.478zM94.83 14.6V8.34c0-.882.345-1.362 1.344-1.362h.653V4.29c-1.056 0-1.632.345-1.997.864v-.826h-2.573V14.6h2.573zm4.339-10.925c.864 0 1.536-.672 1.536-1.517 0-.864-.672-1.555-1.536-1.555-.845 0-1.536.691-1.536 1.555 0 .845.691 1.517 1.536 1.517zm1.286 10.925V4.328h-2.572V14.6h2.572z"/>
                            <path fill="#828FA8" fill-rule="nonzero" d="M3.475 33.125c.854 0 1.548-.24 2.081-.719.534-.479.8-1.127.8-1.944 0-.529-.136-.977-.41-1.343-.272-.367-.659-.63-1.159-.788.442-.183.791-.46 1.047-.831.257-.37.385-.754.385-1.15 0-.808-.244-1.44-.732-1.894-.487-.454-1.16-.681-2.018-.681-.813 0-1.483.239-2.01.716-.527.477-.79 1.076-.79 1.797h1.156c0-.471.149-.85.447-1.135.298-.285.697-.428 1.197-.428 1.062 0 1.594.533 1.594 1.6 0 .475-.157.852-.47 1.131-.312.28-.74.423-1.287.431h-.869v.944h.87c.612.009 1.08.154 1.406.438.324.283.487.69.487 1.219 0 .545-.148.964-.444 1.256-.296.291-.723.437-1.281.437-.525 0-.944-.143-1.256-.431-.313-.288-.469-.67-.469-1.15H.587c0 .758.268 1.369.804 1.831.535.463 1.23.694 2.084.694zm8.056 2.606c.917 0 1.586-.562 2.006-1.687l2.72-7.806h-1.238l-1.575 5.068-1.688-5.069h-1.262l2.412 6.688-.256.688c-.142.42-.322.71-.54.868-.22.159-.525.238-.916.238l-.313-.025v.937l.431.081.22.02zM18.444 33v-4.8c.27-.646.785-.969 1.544-.969.204 0 .393.015.568.044V26.2c-.116-.058-.287-.087-.512-.087-.696 0-1.234.302-1.613.906l-.018-.781h-1.125V33h1.156zm5.662.125c.771 0 1.398-.182 1.881-.547.484-.364.726-.849.726-1.453 0-.363-.087-.67-.26-.922-.173-.252-.438-.468-.797-.647-.358-.179-.826-.333-1.403-.462-.577-.13-.976-.265-1.197-.407-.22-.141-.331-.352-.331-.63 0-.297.119-.536.356-.72.238-.183.567-.274.988-.274.408 0 .747.114 1.015.343.27.23.404.502.404.819h1.162c0-.617-.239-1.123-.716-1.519-.477-.396-1.099-.593-1.865-.593-.73 0-1.328.191-1.797.575-.469.383-.703.852-.703 1.406 0 .333.082.62.247.862.164.242.418.45.762.625.344.175.808.325 1.394.45.585.125.996.274 1.231.447.236.173.353.416.353.728 0 .296-.132.533-.397.71-.264.177-.615.265-1.053.265-.475 0-.857-.113-1.147-.34-.29-.227-.444-.535-.465-.922h-1.157c0 .4.118.772.354 1.115.235.344.561.612.978.803.416.192.896.288 1.437.288zm10.056 0c.609 0 1.147-.146 1.616-.438.469-.291.83-.698 1.081-1.221.252-.523.378-1.114.378-1.772v-.081c0-1.059-.284-1.907-.853-2.544-.568-.638-1.313-.956-2.234-.956-.596 0-1.126.143-1.59.43-.465.288-.828.697-1.088 1.226-.26.529-.39 1.125-.39 1.787v.081c0 1.05.284 1.894.852 2.532.57.637 1.312.956 2.229.956zm0-.944c-.583 0-1.048-.227-1.396-.681-.348-.454-.522-1.056-.522-1.806 0-.846.175-1.496.525-1.95.35-.454.81-.681 1.381-.681.583 0 1.051.23 1.403.69.352.46.528 1.062.528 1.803 0 .83-.173 1.474-.519 1.935-.345.46-.812.69-1.4.69zm6.25.819v-5.869h1.444v-.893h-1.444v-.713c0-.408.103-.722.307-.94.204-.22.493-.329.868-.329.221 0 .43.019.625.056l.063-.937c-.262-.07-.527-.106-.794-.106-.708 0-1.256.198-1.644.594-.387.395-.58.956-.58 1.68v.695h-1.07v.893h1.07V33h1.156zm8.694.125c1.134 0 1.984-.435 2.55-1.306l-.706-.55c-.213.275-.46.496-.744.662-.283.167-.629.25-1.037.25-.575 0-1.05-.205-1.422-.615-.373-.41-.568-.95-.584-1.616h4.58v-.481c0-1.08-.243-1.909-.73-2.488-.488-.579-1.171-.869-2.05-.869-.538 0-1.037.15-1.497.447-.46.298-.82.71-1.075 1.238-.257.527-.385 1.126-.385 1.797v.212c0 1.009.288 1.814.863 2.416.575.602 1.32.903 2.237.903zM50.587 29H47.2c.075-.613.27-1.089.587-1.428.317-.34.709-.51 1.175-.51.484 0 .867.162 1.15.485.284.323.442.778.475 1.366V29zm3.22 4l1.562-2.531L56.93 33h1.338l-2.282-3.419 2.213-3.343h-1.35l-1.5 2.468-1.481-2.468H52.53l2.213 3.343L52.462 33h1.344zm6.774 2.6v-3.256c.471.52 1.117.781 1.938.781.804 0 1.441-.315 1.912-.944.471-.629.707-1.458.707-2.487v-.107c0-1.091-.237-1.943-.71-2.556-.473-.612-1.115-.918-1.928-.918-.837 0-1.492.291-1.962.875l-.057-.75h-1.056V35.6h1.156zm1.588-3.419c-.713 0-1.242-.308-1.588-.925v-3.231c.35-.62.875-.931 1.575-.931.567 0 1.013.22 1.338.662.325.442.487 1.044.487 1.806 0 .867-.163 1.52-.49 1.96-.327.44-.768.66-1.322.66zm7.243.944c1.134 0 1.984-.435 2.55-1.306l-.706-.55c-.212.275-.46.496-.743.662-.284.167-.63.25-1.038.25-.575 0-1.049-.205-1.422-.615-.373-.41-.568-.95-.584-1.616h4.581v-.481c0-1.08-.244-1.909-.731-2.488-.488-.579-1.171-.869-2.05-.869-.538 0-1.037.15-1.497.447-.46.298-.819.71-1.075 1.238-.256.527-.385 1.126-.385 1.797v.212c0 1.009.288 1.814.863 2.416.575.602 1.32.903 2.237.903zM70.894 29h-3.388c.075-.613.271-1.089.588-1.428.316-.34.708-.51 1.175-.51.483 0 .866.162 1.15.485.283.323.441.778.475 1.366V29zm3.65 4v-4.8c.27-.646.785-.969 1.544-.969.204 0 .393.015.568.044V26.2c-.116-.058-.287-.087-.512-.087-.696 0-1.234.302-1.613.906l-.019-.781h-1.124V33h1.156zm3.862-7.9c.225 0 .396-.063.513-.188.116-.124.175-.28.175-.468s-.059-.346-.175-.475c-.117-.13-.288-.194-.513-.194-.225 0-.395.065-.51.194-.114.129-.171.287-.171.475 0 .187.057.344.172.469.114.125.284.187.51.187zm.569 7.9v-6.762h-1.156V33h1.156zm4.656.125c1.134 0 1.984-.435 2.55-1.306l-.706-.55c-.212.275-.46.496-.744.662-.283.167-.629.25-1.037.25-.575 0-1.05-.205-1.422-.615-.373-.41-.568-.95-.585-1.616h4.582v-.481c0-1.08-.244-1.909-.732-2.488-.487-.579-1.17-.869-2.05-.869-.537 0-1.036.15-1.496.447-.46.298-.82.71-1.075 1.238-.257.527-.385 1.126-.385 1.797v.212c0 1.009.288 1.814.863 2.416.575.602 1.32.903 2.237.903zM85.112 29h-3.387c.075-.613.27-1.089.588-1.428.316-.34.708-.51 1.174-.51.484 0 .867.162 1.15.485.284.323.442.778.475 1.366V29zm3.65 4v-4.819c.159-.325.38-.587.663-.787.283-.2.612-.3.987-.3.463 0 .804.116 1.022.35.22.233.33.594.335 1.081V33h1.156v-4.469c-.013-1.612-.733-2.418-2.162-2.418-.834 0-1.509.325-2.026.974l-.037-.85h-1.094V33h1.157zm8.62.125c.458 0 .892-.104 1.302-.313.41-.208.739-.487.985-.837s.379-.719.4-1.106h-1.094c-.033.375-.204.687-.512.937-.309.25-.67.375-1.082.375-.596 0-1.054-.21-1.375-.631-.32-.42-.481-1.02-.481-1.8v-.219c0-.8.161-1.411.484-1.834.323-.423.778-.634 1.366-.634.438 0 .805.14 1.103.421.298.282.464.641.497 1.078h1.094c-.034-.725-.301-1.314-.803-1.768-.502-.454-1.133-.681-1.891-.681-.617 0-1.151.141-1.603.425-.452.283-.8.68-1.04 1.193-.242.513-.363 1.098-.363 1.756v.194c0 1.067.272 1.908.815 2.522.544.615 1.276.922 2.197.922zm6.793 0c1.133 0 1.983-.435 2.55-1.306l-.706-.55c-.213.275-.46.496-.744.662-.283.167-.63.25-1.038.25-.575 0-1.048-.205-1.421-.615-.373-.41-.568-.95-.585-1.616h4.582v-.481c0-1.08-.244-1.909-.732-2.488-.487-.579-1.17-.869-2.05-.869-.537 0-1.036.15-1.497.447-.46.298-.818.71-1.075 1.238-.256.527-.384 1.126-.384 1.797v.212c0 1.009.287 1.814.862 2.416.576.602 1.321.903 2.238.903zM105.656 29h-3.387c.075-.613.27-1.089.587-1.428.317-.34.709-.51 1.175-.51.484 0 .867.162 1.15.485.284.323.442.778.475 1.366V29zM45.664 71.962v-2.957h2.822v-2.15h-2.822v-2.938H43.36v2.937h-2.842v2.15h2.842v2.958h2.304zm7.853 2.688c3.36 0 4.627-2.093 4.627-4.858v-4.57c0-2.63-1.382-4.358-4.32-4.358-2.822 0-4.262 1.92-4.262 4.358v.576c0 2.842 1.267 4.32 3.84 4.32 1.036 0 1.824-.441 2.073-.787v.538c.039 1.267-.441 2.265-2.016 2.265-1.017 0-1.613-.441-1.997-.73l-1.459 2.036c.557.5 1.69 1.21 3.514 1.21zm.326-7.008c-1.152 0-1.651-.75-1.651-1.844v-.576c0-1.056.48-1.862 1.632-1.862 1.171 0 1.67.787 1.67 1.862v.634c-.019 1.018-.499 1.786-1.65 1.786zM63.04 74.4V61.114h-2.477l-1.44.633v2.515l1.248-.46V74.4h2.669zm6.144-4.282V67.7h-4.685v2.42h4.685zm5.491 4.532c2.976 0 4.474-1.92 4.474-4.032 0-1.479-.595-2.439-1.651-3.072.825-.557 1.42-1.517 1.42-2.861 0-1.959-1.344-3.821-4.262-3.821-2.9 0-4.243 1.882-4.243 3.82 0 1.383.595 2.286 1.401 2.862-1.017.633-1.632 1.67-1.632 3.072 0 2.15 1.421 4.032 4.493 4.032zm0-8.256c-.96 0-1.593-.653-1.593-1.594 0-.94.614-1.594 1.574-1.594.96 0 1.594.653 1.594 1.594 0 .94-.634 1.594-1.575 1.594zm0 5.875c-1.017 0-1.747-.73-1.747-1.747 0-1.018.691-1.748 1.747-1.748 1.037 0 1.747.73 1.747 1.748 0 1.036-.71 1.747-1.747 1.747zm9.35 2.38c3.36 0 4.628-2.092 4.628-4.857v-4.57c0-2.63-1.383-4.358-4.32-4.358-2.823 0-4.263 1.92-4.263 4.358v.576c0 2.842 1.268 4.32 3.84 4.32 1.037 0 1.824-.441 2.074-.787v.538c.038 1.267-.442 2.265-2.016 2.265-1.018 0-1.613-.441-1.997-.73l-1.459 2.036c.557.5 1.69 1.21 3.514 1.21zm.327-7.007c-1.152 0-1.651-.75-1.651-1.844v-.576c0-1.056.48-1.862 1.632-1.862 1.171 0 1.67.787 1.67 1.862v.634c-.019 1.018-.499 1.786-1.651 1.786zm8.352 6.758l.806-3.302h1.824l-.787 3.302h2.266l.806-3.302h2.016v-2.093h-1.517l.71-2.9h1.978v-2.092h-1.459l.71-2.9h-2.303l-.71 2.9h-1.806l.71-2.9h-2.303l-.71 2.9h-2.036v2.093h1.536l-.71 2.899h-2.016v2.093h1.517l-.807 3.302h2.285zm3.149-5.395H94.01l.71-2.9h1.824l-.691 2.9zm8.582 5.395l.807-3.302h1.824l-.788 3.302h2.266l.806-3.302h2.016v-2.093h-1.516l.71-2.9h1.978v-2.092h-1.46l.71-2.9h-2.303l-.71 2.9h-1.805l.71-2.9h-2.304l-.71 2.9h-2.036v2.093h1.536l-.71 2.899h-2.016v2.093h1.517l-.807 3.302h2.285zm3.149-5.395h-1.843l.71-2.9h1.824l-.691 2.9zm8.582 5.395l.807-3.302h1.824l-.787 3.302h2.265l.807-3.302h2.016v-2.093h-1.517l.71-2.9h1.978v-2.092h-1.46l.711-2.9h-2.304l-.71 2.9H118.7l.71-2.9h-2.304l-.71 2.9h-2.035v2.093h1.536l-.71 2.899h-2.017v2.093h1.517l-.806 3.302h2.284zm3.15-5.395h-1.844l.71-2.9h1.824l-.69 2.9zm8.582 5.395l.806-3.302h1.824l-.787 3.302h2.265l.807-3.302h2.016v-2.093h-1.517l.71-2.9H136v-2.092h-1.46l.711-2.9h-2.304l-.71 2.9h-1.805l.71-2.9h-2.304l-.71 2.9h-2.035v2.093h1.536l-.71 2.899h-2.017v2.093h1.517l-.806 3.302h2.285zm3.148-5.395h-1.843l.71-2.9h1.825l-.692 2.9zm8.583 5.395l.806-3.302h1.824l-.787 3.302h2.266l.806-3.302h2.016v-2.093h-1.517l.71-2.9h1.978v-2.092h-1.459l.71-2.9h-2.304l-.71 2.9h-1.805l.71-2.9h-2.303l-.71 2.9h-2.036v2.093h1.536l-.71 2.899h-2.016v2.093h1.516l-.806 3.302h2.285zm3.149-5.395h-1.844l.71-2.9h1.825l-.691 2.9zm8.582 5.395l.806-3.302h1.824l-.787 3.302h2.266l.806-3.302h2.016v-2.093h-1.517l.71-2.9h1.978v-2.092h-1.459l.71-2.9h-2.303l-.71 2.9h-1.806l.71-2.9h-2.303l-.71 2.9h-2.036v2.093h1.536l-.71 2.899h-2.016v2.093h1.517l-.807 3.302h2.285zm3.149-5.395h-1.843l.71-2.9h1.824l-.691 2.9zm14.323 5.395V72h-5.03l2.918-3.034c1.21-1.21 2.016-2.304 2.016-4.09 0-2.246-1.44-4.012-4.3-4.012-3.284 0-4.167 2.362-4.11 4.186h2.63c0-.672.27-1.67 1.48-1.67.978 0 1.535.633 1.535 1.631 0 .98-.537 1.709-1.382 2.592l-4.263 4.455V74.4h8.506zm5.146.25c2.63 0 4.435-1.748 4.435-4.301 0-2.554-1.517-3.667-3.341-3.898l2.746-2.957v-2.38h-7.719v2.4h4.627l-2.668 3.072v2.073h1.766c1.19 0 1.843.653 1.843 1.747 0 1.018-.653 1.748-1.69 1.748-1.151 0-1.689-.788-1.727-1.71h-2.63c0 1.94.96 4.206 4.358 4.206z"/>
                            <circle cx="16.5" cy="67.5" r="15.5" fill="#FF5636" opacity=".24"/>
                            <g fill="#D83C3C" fill-rule="nonzero">
                                <path d="M11.667 6h-1V4.667C10.667 2.093 8.573 0 6 0S1.333 2.093 1.333 4.667V6h-1C.15 6 0 6.15 0 6.333v8.334C0 15.402.598 16 1.333 16h9.334c.735 0 1.333-.598 1.333-1.333V6.333C12 6.15 11.85 6 11.667 6zm-4.669 6.963c.01.094-.02.189-.083.26-.063.07-.154.11-.248.11H5.333c-.094 0-.185-.04-.248-.11-.063-.071-.093-.166-.083-.26l.21-1.89c-.341-.25-.545-.642-.545-1.073 0-.735.598-1.333 1.333-1.333S7.333 9.265 7.333 10c0 .431-.204.824-.545 1.072l.21 1.891zM8.667 6H3.333V4.667C3.333 3.197 4.53 2 6 2c1.47 0 2.667 1.196 2.667 2.667V6z" transform="translate(11 60)"/>
                            </g>
                        </g>
                    </g>
                    <g fill="#3166FF" fill-rule="nonzero">
                        <path d="M39.634 47.588l-8.205-8.203-3.977 3.977c-.343.343-.842.484-1.317.375-.475-.113-.857-.462-1.01-.925l-7.956-23.865c-.169-.505-.037-1.063.34-1.439.374-.375.933-.512 1.438-.34l23.865 7.956c.463.154.812.536.925 1.011.11.474-.03.972-.375 1.317l-3.977 3.977 8.203 8.205c.55.549.55 1.439 0 1.988l-5.966 5.966c-.549.55-1.439.55-1.988 0zM18.281 11.25c-.777 0-1.406-.629-1.406-1.406V1.406C16.875.63 17.504 0 18.281 0c.778 0 1.407.629 1.407 1.406v8.438c0 .777-.63 1.406-1.407 1.406zM11.321 13.31L5.354 7.343c-.549-.55-.549-1.44 0-1.989.55-.549 1.44-.549 1.989 0l5.967 5.967c.55.55.55 1.44 0 1.989-.55.55-1.44.55-1.989 0zM5.354 31.208c-.549-.55-.549-1.44 0-1.988l5.967-5.967c.55-.55 1.44-.55 1.989 0 .55.549.55 1.439 0 1.988l-5.967 5.967c-.55.55-1.44.55-1.989 0zM23.253 13.31c-.55-.55-.55-1.44 0-1.989l5.966-5.966c.55-.55 1.44-.55 1.989 0 .55.549.55 1.439 0 1.988l-5.967 5.967c-.55.55-1.44.55-1.988 0zM9.844 19.688H1.406C.63 19.688 0 19.058 0 18.28s.629-1.406 1.406-1.406h8.438c.777 0 1.406.629 1.406 1.406 0 .778-.629 1.407-1.406 1.407z" transform="translate(113 115)"/>
                    </g>
                </g>
            </g>
        </g>
    </g>
</svg>
