<svg xmlns="http://www.w3.org/2000/svg" width="275" height="200" viewBox="0 0 275 200">
    <g fill="none" fill-rule="evenodd">
        <g>
            <g>
                <g transform="translate(-197 -695) translate(153 663) translate(44 32)">
                    <rect width="273" height="200" x="1" fill="#FFF" rx="4"/>
                    <path fill="#FFCE32" d="M0 90.085c-.033-36.46 21.933-69.337 55.63-83.261C89.325-7.1 128.092.682 153.805 26.531c25.712 25.85 33.289 64.658 19.187 98.28-14.102 33.621-47.096 55.413-83.555 55.187-23.789-.047-46.583-9.55-63.36-26.415C9.303 136.717-.078 113.873.002 90.085zM234 25.014c-.006-6.076 3.655-11.556 9.272-13.877 5.616-2.32 12.077-1.023 16.362 3.285 4.286 4.308 5.548 10.776 3.198 16.38-2.35 5.604-7.85 9.236-13.926 9.198-3.965-.008-7.764-1.592-10.56-4.403-2.796-2.81-4.36-6.618-4.346-10.583zm11 .482c-.007 1.192.453 2.338 1.28 3.183.826.845 1.95 1.32 3.121 1.317 1.62.066 3.147-.776 3.977-2.194.83-1.419.83-3.185 0-4.604-.83-1.418-2.356-2.26-3.977-2.194-1.167-.004-2.288.465-3.114 1.305-.826.839-1.289 1.978-1.287 3.166v.021z" opacity=".24"/>
                    <g>
                        <path fill="#2E6360" d="M7 4L226 4 226 115 0 115 0 11z" opacity=".16" transform="translate(44 85)"/>
                        <path fill="#FFF" stroke="#F2F4F5" stroke-width="2" d="M11 0L230 0 230 111 4 111 4 7z" transform="translate(44 85)"/>
                        <g>
                            <path fill="#D9B238" fill-rule="nonzero" d="M1.86 11.878V8.25H5.43V6.774H1.86V4.482h4.017V3H0v8.878h1.86zm11.147 0v-1.47h-4.19V8.03h3.57V6.598h-3.57V4.482h4.178V3H6.956v8.878h6.051zm2.307 0l.62-1.83h3.26l.627 1.83h1.978L18.419 3h-1.723l-3.36 8.878h1.978zm3.378-3.31h-2.256l1.122-3.324 1.134 3.323zm7.98 3.31V4.482h2.765V3h-7.353v1.482h2.728v7.396h1.86zM33.87 12c1.07 0 1.914-.283 2.532-.848.618-.565.927-1.333.927-2.304V3h-1.866v5.909c-.017 1.08-.548 1.621-1.593 1.621-.5 0-.892-.133-1.175-.399-.283-.266-.425-.69-.425-1.271V3h-1.86v5.915c.013.959.329 1.713.949 2.262.62.549 1.457.823 2.51.823zm6.844-.122v-3.25h1.482l1.693 3.25h1.996v-.085l-1.953-3.628c.541-.24.945-.562 1.212-.967.267-.404.4-.91.4-1.515 0-.854-.29-1.514-.868-1.982C44.097 3.234 43.275 3 42.208 3h-3.354v8.878h1.86zm1.5-4.732h-1.5V4.482h1.494c.5 0 .871.12 1.113.36s.363.569.363.987c0 .41-.128.733-.384.967-.257.233-.618.35-1.085.35zm10.794 4.732v-1.47h-4.19V8.03h3.57V6.598h-3.57V4.482h4.178V3h-6.039v8.878h6.051zm3.888 0c.79-.004 1.498-.183 2.126-.537.629-.353 1.115-.851 1.46-1.493.345-.643.518-1.376.518-2.202v-.408c0-.825-.176-1.562-.527-2.21-.351-.649-.84-1.149-1.466-1.5C58.38 3.175 57.67 3 56.877 3H54.1v8.878h2.796zm-.037-1.47h-.9V4.483h.918c.732 0 1.288.232 1.668.698.38.465.57 1.15.57 2.052v.47c-.008.87-.204 1.538-.589 2.005-.384.468-.94.702-1.667.702z" transform="translate(44 85) translate(17 12)"/>
                            <g>
                                <path d="M0 0H16V16H0z" transform="translate(44 85) translate(17 12) translate(62)"/>
                                <path fill="#D9B238" fill-rule="nonzero" d="M11.333 6.953v-5.62H4.667v5.62c0 .234.12.454.326.574L7.78 9.2l-.66 1.56-2.273.193 1.726 1.494-.526 2.22L8 13.487l1.953 1.18-.52-2.22 1.727-1.494-2.273-.193-.66-1.56 2.786-1.673c.2-.12.32-.334.32-.574zm-4 .427L6 6.58V2.667h1.333V7.38zM10 6.58l-1.333.8V2.667H10V6.58z" transform="translate(44 85) translate(17 12) translate(62)"/>
                            </g>
                        </g>
                        <g fill-rule="nonzero">
                            <path fill="#001E3E" d="M4.723 14.85c2.573 0 4.378-1.594 4.378-4.128 0-1.882-.96-2.996-2.554-3.706-.73-.326-1.363-.557-1.997-.826-.864-.364-1.248-.825-1.248-1.516 0-.75.5-1.325 1.421-1.325.98 0 1.498.71 1.498 1.69h2.457c.096-2.17-.96-3.975-3.955-3.975-2.496 0-4.07 1.574-4.07 3.744 0 1.594.691 2.803 1.977 3.475.768.442 1.556.672 2.304 1.018.864.365 1.421.825 1.421 1.709 0 .998-.691 1.536-1.632 1.536-1.305 0-1.747-.96-1.728-2.036H.461c-.096 2.055.749 4.34 4.262 4.34zm8.813-.116c1.19 0 1.882-.48 2.17-.787v.653h2.15V8.13c0-2.285-.922-3.917-3.878-3.917-2.42 0-3.59 1.286-3.648 3.225h2.4c0-.576.288-1.19 1.248-1.19s1.344.634 1.344 1.517v.518c-.27-.173-.903-.422-1.824-.422-2.132 0-3.533 1.459-3.533 3.379 0 2.131 1.517 3.494 3.571 3.494zm.346-2.035c-.884 0-1.498-.614-1.498-1.478 0-.826.595-1.46 1.478-1.46.864 0 1.498.596 1.498 1.46s-.634 1.478-1.478 1.478zm8.006 1.901V.565h-2.573V14.6h2.573zm6.374.173c2.496 0 3.879-1.383 4.493-2.669l-1.9-1.152c-.538.845-1.287 1.536-2.593 1.536-1.459 0-2.419-.826-2.553-2.189h7.334c.039-.441.039-.806.039-1.056 0-3.072-1.94-5.088-5.03-5.088-2.977 0-5.05 2.266-5.05 5.338 0 3.264 2.15 5.28 5.26 5.28zm2.15-6.413h-4.646c.135-1.171.96-2.035 2.266-2.035 1.402 0 2.266.883 2.38 2.035zm6.99 6.374c2.016 0 3.744-1.094 3.744-3.187 0-1.862-.807-2.669-2.458-3.168-.518-.153-.94-.23-1.402-.365-.614-.172-.902-.46-.902-.96 0-.518.403-.864 1.018-.864.787 0 1.152.461 1.17 1.248h2.362c-.019-2.15-1.305-3.244-3.475-3.244-2.054 0-3.513 1.267-3.513 2.995 0 1.555.71 2.515 2.13 3.033.558.212 1 .308 1.556.461.71.192 1.018.461 1.018 1.056s-.538.922-1.21.922c-.998 0-1.248-.653-1.248-1.383h-2.458c-.057 1.786.826 3.456 3.668 3.456zm13.996-.134v-2.496h-3.475V9.032h3.322V6.574h-3.322V3.81h3.418V1.314h-6.087V14.6h6.144zm3.38 0l2.342-3.226 2.323 3.226h2.88l-3.705-5.318 3.513-4.954H59.31l-2.074 2.918-2.073-2.918h-2.976l3.532 5.03-3.724 5.242h2.784zm13.152.173c2.496 0 3.878-1.383 4.492-2.669l-1.9-1.152c-.538.845-1.287 1.536-2.592 1.536-1.46 0-2.42-.826-2.554-2.189h7.334c.039-.441.039-.806.039-1.056 0-3.072-1.94-5.088-5.03-5.088-2.977 0-5.05 2.266-5.05 5.338 0 3.264 2.15 5.28 5.26 5.28zm2.15-6.413h-4.646c.134-1.171.96-2.035 2.265-2.035 1.402 0 2.266.883 2.381 2.035zm8.66 6.413c1.766 0 2.975-.787 3.59-1.44l-1.421-1.728c-.461.384-1.114.845-2.15.845-1.479 0-2.765-1.133-2.765-2.976 0-1.71 1.056-2.996 2.745-2.996 1.018 0 1.69.442 2.112.845l1.479-1.785c-.615-.634-1.748-1.383-3.61-1.383-3.072 0-5.3 2.343-5.3 5.338 0 2.976 2.074 5.28 5.32 5.28zm7.583-.058c1.21 0 1.882-.537 2.15-.883v.768h2.554V4.328h-2.573v6.432c0 .98-.499 1.651-1.42 1.651-.922 0-1.325-.633-1.325-1.632V4.328h-2.573v6.758c0 2.093.902 3.63 3.187 3.63zm9.389-.019c.883 0 1.344-.134 1.402-.134v-2.19h-.596c-.73 0-.979-.326-.979-1.094v-4.78h1.575v-2.17h-1.575V2.715h-2.573v1.613h-.96v2.17h.96v5.51c0 1.709.807 2.688 2.746 2.688zm3.86-11.02c.863 0 1.535-.673 1.535-1.518 0-.864-.672-1.555-1.536-1.555-.845 0-1.536.691-1.536 1.555 0 .845.691 1.517 1.536 1.517zm1.286 10.924V4.328h-2.573V14.6h2.573zm7.257 0l3.629-10.272h-2.669l-2.323 7.046-2.323-7.046h-2.842l3.706 10.272h2.822zm9.235.173c2.496 0 3.879-1.383 4.493-2.669l-1.9-1.152c-.538.845-1.287 1.536-2.593 1.536-1.459 0-2.419-.826-2.553-2.189h7.334c.039-.441.039-.806.039-1.056 0-3.072-1.94-5.088-5.03-5.088-2.977 0-5.05 2.266-5.05 5.338 0 3.264 2.15 5.28 5.26 5.28zm2.15-6.413h-4.646c.135-1.171.96-2.035 2.266-2.035 1.402 0 2.266.883 2.38 2.035z" transform="translate(44 85) translate(16 36)"/>
                            <path fill="#828FA8" d="M4.431 35v-3.394L7.57 25.9H6.206l-2.375 4.569L1.47 25.9H.094l3.137 5.706V35h1.2zm6.907.125c.608 0 1.146-.146 1.615-.438.469-.291.83-.698 1.081-1.221.252-.523.378-1.114.378-1.772v-.081c0-1.059-.284-1.907-.853-2.544-.568-.638-1.313-.956-2.234-.956-.596 0-1.126.143-1.59.43-.465.288-.828.697-1.088 1.226-.26.529-.39 1.125-.39 1.787v.081c0 1.05.284 1.894.852 2.532.57.637 1.312.956 2.229.956zm0-.944c-.584 0-1.05-.227-1.397-.681-.348-.454-.522-1.056-.522-1.806 0-.846.175-1.496.525-1.95.35-.454.81-.681 1.381-.681.583 0 1.051.23 1.403.69.352.46.528 1.062.528 1.803 0 .83-.173 1.474-.518 1.935-.346.46-.813.69-1.4.69zm6.718.944c.871 0 1.531-.265 1.982-.794l.024.669h1.1v-6.762h-1.156v4.918c-.291.659-.879.988-1.762.988-.834 0-1.25-.513-1.25-1.538v-4.369h-1.156v4.4c.004.821.194 1.441.571 1.86.377.419.926.628 1.647.628zM24.075 35v-4.8c.27-.646.785-.969 1.544-.969.204 0 .393.015.569.044V28.2c-.117-.058-.288-.087-.513-.087-.696 0-1.233.302-1.613.906l-.018-.781h-1.125V35h1.156zm9.769.125c.991 0 1.786-.261 2.384-.784.598-.523.953-1.266 1.066-2.229h-1.206c-.117.75-.354 1.277-.71 1.579-.356.302-.868.453-1.534.453-.742 0-1.319-.292-1.732-.875-.412-.584-.618-1.369-.618-2.356v-.882c0-1.046.217-1.852.653-2.418.435-.567 1.036-.85 1.803-.85.625 0 1.111.162 1.46.487.347.325.573.85.678 1.575h1.206c-.096-.954-.436-1.701-1.019-2.24-.583-.54-1.358-.81-2.325-.81-.73 0-1.37.172-1.925.516-.554.343-.982.836-1.284 1.478-.302.641-.453 1.385-.453 2.231v.875c0 1.292.323 2.323.971 3.094.648.77 1.51 1.156 2.585 1.156zm7.681 0c.608 0 1.147-.146 1.616-.438.468-.291.829-.698 1.08-1.221.253-.523.379-1.114.379-1.772v-.081c0-1.059-.284-1.907-.853-2.544-.569-.638-1.314-.956-2.234-.956-.596 0-1.127.143-1.591.43-.465.288-.827.697-1.088 1.226-.26.529-.39 1.125-.39 1.787v.081c0 1.05.284 1.894.853 2.532.569.637 1.311.956 2.228.956zm0-.944c-.583 0-1.049-.227-1.397-.681-.348-.454-.522-1.056-.522-1.806 0-.846.175-1.496.525-1.95.35-.454.81-.681 1.382-.681.583 0 1.05.23 1.403.69.352.46.528 1.062.528 1.803 0 .83-.173 1.474-.519 1.935-.346.46-.813.69-1.4.69zM47.2 35v-4.938c.28-.645.798-.968 1.556-.968.963 0 1.444.491 1.444 1.475V35h1.162v-4.488c.046-.433.21-.778.494-1.034.284-.256.64-.384 1.069-.384.52 0 .892.12 1.113.36.22.239.33.6.33 1.084V35h1.157v-4.531c-.025-1.571-.78-2.357-2.262-2.357-.492 0-.918.1-1.279.3-.36.2-.653.463-.878.788-.341-.725-.985-1.087-1.931-1.087-.842 0-1.51.291-2.006.875l-.031-.75h-1.094V35H47.2zm11.225 2.6v-3.256c.47.52 1.117.781 1.938.781.804 0 1.441-.315 1.912-.944.47-.629.706-1.458.706-2.487v-.107c0-1.091-.236-1.943-.71-2.556-.472-.612-1.115-.918-1.927-.918-.838 0-1.492.291-1.963.875l-.056-.75h-1.056V37.6h1.156zm1.588-3.419c-.713 0-1.242-.308-1.588-.925v-3.231c.35-.62.875-.931 1.575-.931.567 0 1.013.22 1.337.662.325.442.488 1.044.488 1.806 0 .867-.164 1.52-.49 1.96-.328.44-.768.66-1.322.66zm6.524.944c.746 0 1.388-.28 1.925-.837.042.341.096.579.163.712h1.213v-.1c-.159-.367-.238-.86-.238-1.481v-3.113c-.017-.683-.246-1.22-.688-1.61-.441-.389-1.052-.584-1.83-.584-.492 0-.943.092-1.354.276-.41.183-.735.432-.975.746-.24.315-.36.641-.36.979h1.163c0-.296.14-.548.419-.757.28-.208.625-.312 1.038-.312.47 0 .827.12 1.068.36.242.239.363.56.363.965v.531h-1.125c-.971 0-1.724.195-2.26.584-.535.39-.803.937-.803 1.641 0 .58.214 1.057.64 1.434.428.377.975.566 1.641.566zm.17-1.006c-.38 0-.69-.102-.932-.306-.242-.205-.363-.488-.363-.85 0-.83.709-1.244 2.125-1.244h.907v1.387c-.146.3-.382.544-.707.731-.325.188-.668.282-1.03.282zm5.862.881v-4.819c.158-.325.379-.587.662-.787.284-.2.613-.3.988-.3.462 0 .803.116 1.022.35.218.233.33.594.334 1.081V35h1.156v-4.469c-.012-1.612-.733-2.418-2.162-2.418-.834 0-1.509.325-2.025.974l-.038-.85h-1.094V35h1.157zm6.206 2.731c.917 0 1.585-.562 2.006-1.687l2.719-7.806h-1.237l-1.576 5.068L79 28.238h-1.263l2.413 6.687-.256.688c-.142.42-.322.71-.54.868-.22.159-.525.238-.916.238l-.313-.025v.937l.431.081.219.02z" transform="translate(44 85) translate(16 36)"/>
                        </g>
                    </g>
                    <g fill="#3166FF" fill-rule="nonzero">
                        <path d="M50.831 15.392c-.04-.048-.084-.092-.132-.132L36.236.486c-.438-.472-1.176-.5-1.648-.063-.235.218-.37.521-.374.84V9.04h-18.74c-.7 0-1.477.155-1.477.777V22.26c.092.789.694 1.422 1.477 1.555h18.74v6.998c.011.466.281.885.7 1.089h.467c.324-.013.632-.153.855-.389l14.463-14.697c.43-.356.489-.994.132-1.423zM10.498 8.65c-.645 0-1.167.523-1.167 1.167V22.26c0 .644.522 1.166 1.167 1.166.644 0 1.166-.522 1.166-1.166V9.817c0-.644-.522-1.166-1.166-1.166zM5.832 8.65c-.644 0-1.166.523-1.166 1.167V22.26c0 .644.522 1.166 1.166 1.166.644 0 1.166-.522 1.166-1.166V9.817c0-.644-.522-1.166-1.166-1.166zM1.166 8.65C.522 8.65 0 9.174 0 9.818V22.26c0 .644.522 1.166 1.166 1.166.645 0 1.167-.522 1.167-1.166V9.817c0-.644-.522-1.166-1.167-1.166z" transform="rotate(-90 197.5 -24.5)"/>
                    </g>
                </g>
            </g>
        </g>
    </g>
</svg>
