<svg xmlns="http://www.w3.org/2000/svg" xmlns:xlink="http://www.w3.org/1999/xlink" width="274" height="199" viewBox="0 0 274 199">
    <defs>
        <ellipse id="99buugh8pc" cx="28" cy="27.5" rx="28" ry="27.5"/>
        <ellipse id="2j8h5neqie" cx="28" cy="27.5" rx="28" ry="27.5"/>
        <ellipse id="83syinj6rg" cx="28" cy="27.5" rx="28" ry="27.5"/>
        <ellipse id="shqekn50di" cx="30" cy="29.5" rx="30" ry="29.5"/>
        <ellipse id="sbpzh5j3uk" cx="28" cy="27.5" rx="28" ry="27.5"/>
        <ellipse id="bjo2njtpnm" cx="28" cy="27.5" rx="28" ry="27.5"/>
        <linearGradient id="x8jgozx9ro" x1="50%" x2="50%" y1="0%" y2="100%">
            <stop offset="0%" stop-color="#FFF" stop-opacity="0"/>
            <stop offset="100%" stop-color="#FFF"/>
        </linearGradient>
        <path id="uh35inir3a" d="M0 0H225V120H0z"/>
    </defs>
    <g fill="none" fill-rule="evenodd">
        <g>
            <g transform="translate(-947 -100) translate(947 100)">
                <g fill="#D7F4F5">
                    <path d="M127.08 42.756c4.7 22.3-16.9 45.2-41.9 63.4-25 18.1-53.4 31.6-69.6 21.4-16.1-10.1-20-43.9-10.4-72.9 9.5-29 32.5-53.3 59.4-54.6 26.9-1.3 57.9 20.4 62.5 42.7z"/>
                </g>
                <g fill="#D7F4F5" opacity=".8">
                    <path d="M56.15 43.922c12.3 10.5 35 12.4 40.3 19.6 5.3 7.2-6.8 19.7-19.2 34.6-12.3 14.8-24.8 32-35.3 30-10.5-2-19.1-23.1-20.2-38-1.2-14.8 5.1-23.4-.3-37.3-5.4-14-22.5-33.4-21.4-43.8 1.1-10.5 20.5-12.1 31.2-3.4 10.6 8.8 12.5 27.8 24.9 38.3z" transform="translate(176)"/>
                </g>
                <g fill="#D7F4F5" opacity=".8">
                    <path d="M69.626 9.731c6 4.3 9.3 14 6.5 20.5-2.8 6.6-11.8 10.1-20.7 14.8-9 4.8-17.9 10.8-28.1 9.6-10.2-1.1-21.7-9.3-25.7-20.9-4-11.7-.4-26.7 8.4-31.6 8.7-5 22.5.1 33.7 2.1 11.3 2.1 19.9 1.1 25.9 5.5z" transform="translate(185 144)"/>
                </g>
                <path fill="#2E6360" fill-rule="nonzero" d="M20 40H247V161H20z" opacity=".16"/>
                <g transform="translate(24 37)">
                    <mask id="ko3g3yoewb" fill="#fff">
                        <use xlink:href="#uh35inir3a"/>
                    </mask>
                    <use fill="#FFF" fill-rule="nonzero" xlink:href="#uh35inir3a"/>
                    <g mask="url(#ko3g3yoewb)">
                        <g>
                            <g>
                                <g transform="translate(11 83) translate(73)">
                                    <mask id="nw81pizlvd" fill="#fff">
                                        <use xlink:href="#99buugh8pc"/>
                                    </mask>
                                    <use fill="#EEF1F7" fill-rule="nonzero" transform="matrix(-1 0 0 1 56 0)" xlink:href="#99buugh8pc"/>
                                    <path fill="#A0A6B2" fill-rule="nonzero" d="M47.6 44.215c1.184 2.451 2.118 6.505 2.8 12.16H5.6c.682-5.655 1.616-9.709 2.8-12.16 1.184-2.452 5.236-4.814 12.152-7.089 2 4.18 12.975 4.18 14.89-.001 6.92 2.274 10.974 4.636 12.158 7.09z" mask="url(#nw81pizlvd)"/>
                                </g>
                                <path fill="#FFF" fill-rule="nonzero" d="M34.468 31.545v2.2c0 1.954 1.467 3.359 4.402 4.214-3.38 2.444-6.824 3.666-10.335 3.666-3.509 0-6.954-1.222-10.335-3.666 2.958-.855 4.424-2.26 4.402-4.216-.034-2.932-.012-4.654-.034-9.68-2.744-3.404-2.568-5.69-1.068-7.297 3.35-3.588 9.587-4.772 18.71-3.55.85 8.796.309 14.479-1.627 17.045-.83 1.1-2.201 1.527-4.115 1.284z" transform="translate(11 83) translate(73)"/>
                                <path fill="#DDDFE3" fill-rule="nonzero" d="M34.6 32.313c-2.933-.287-5.267-.974-7-2.063 1.467 2.12 3.8 3.495 7 4.125v-2.063z" style="mix-blend-mode:multiply" transform="translate(11 83) translate(73)"/>
                                <path fill="#FFF" fill-rule="nonzero" d="M27.3 49.5c.386 0 .7.308.7.688 0 .379-.314.687-.7.687-.386 0-.7-.308-.7-.688 0-.379.314-.687.7-.687zm0-3.438c.386 0 .7.309.7.688 0 .38-.314.688-.7.688-.386 0-.7-.309-.7-.688 0-.38.314-.688.7-.688zm0-3.437c.386 0 .7.308.7.688 0 .379-.314.687-.7.687-.386 0-.7-.308-.7-.688 0-.379.314-.687.7-.687z" transform="translate(11 83) translate(73)"/>
                                <path fill="#A0A6B2" fill-rule="nonzero" d="M24.427 18.92c-.588-.5-1.305-.836-2.317-.316-2.4 1.233-.584 5.962 1.547 5.962.557 0 .833 1.728-1.642 2.934 0-1.925-2.967-6.692-3.224-11.032-2.985-1.098-2.244-5.495-.195-5.495-.327-4.032 6.198-6.114 8.725-3.801 2.57-3.047 9.058-1.488 9.45 1.155 4.459-2.355 7.392 4.415 3.214 7.043-1.717 1.08-5.738 1.493-11.541 1.493-.877 0-1.368.215-1.123 1.287.476 2.076-.626 3.384-2.894.77z" transform="translate(11 83) translate(73)"/>
                            </g>
                            <g>
                                <g transform="translate(11 83)">
                                    <mask id="szw96n2qtf" fill="#fff">
                                        <use xlink:href="#2j8h5neqie"/>
                                    </mask>
                                    <use fill="#EEF1F7" fill-rule="nonzero" transform="matrix(-1 0 0 1 56 0)" xlink:href="#2j8h5neqie"/>
                                    <path fill="#A0A6B2" fill-rule="nonzero" d="M47.6 44.215c1.184 2.451 2.118 6.505 2.8 12.16H5.6c.682-5.655 1.616-9.709 2.8-12.16 1.184-2.452 5.236-4.814 12.152-7.089 2 4.18 12.975 4.18 14.89-.001 6.92 2.274 10.974 4.636 12.158 7.09z" mask="url(#szw96n2qtf)"/>
                                </g>
                                <path fill="#FFF" fill-rule="nonzero" d="M34.468 31.545v2.2c0 1.954 1.467 3.359 4.402 4.214-3.38 2.444-6.824 3.666-10.335 3.666-3.509 0-6.954-1.222-10.335-3.666 2.958-.855 4.424-2.26 4.402-4.216-.034-2.932-.012-4.654-.034-9.68-2.744-3.404-2.568-5.69-1.068-7.297 3.35-3.588 9.587-4.772 18.71-3.55.85 8.796.309 14.479-1.627 17.045-.83 1.1-2.201 1.527-4.115 1.284z" transform="translate(11 83)"/>
                                <path fill="#DDDFE3" fill-rule="nonzero" d="M34.6 32.313c-2.933-.287-5.267-.974-7-2.063 1.467 2.12 3.8 3.495 7 4.125v-2.063z" style="mix-blend-mode:multiply" transform="translate(11 83)"/>
                                <path fill="#FFF" fill-rule="nonzero" d="M27.3 49.5c.386 0 .7.308.7.688 0 .379-.314.687-.7.687-.386 0-.7-.308-.7-.688 0-.379.314-.687.7-.687zm0-3.438c.386 0 .7.309.7.688 0 .38-.314.688-.7.688-.386 0-.7-.309-.7-.688 0-.38.314-.688.7-.688zm0-3.437c.386 0 .7.308.7.688 0 .379-.314.687-.7.687-.386 0-.7-.308-.7-.688 0-.379.314-.687.7-.687z" transform="translate(11 83)"/>
                                <path fill="#A0A6B2" fill-rule="nonzero" d="M24.427 18.92c-.588-.5-1.305-.836-2.317-.316-2.4 1.233-.584 5.962 1.547 5.962.557 0 .833 1.728-1.642 2.934 0-1.925-2.967-6.692-3.224-11.032-2.985-1.098-2.244-5.495-.195-5.495-.327-4.032 6.198-6.114 8.725-3.801 2.57-3.047 9.058-1.488 9.45 1.155 4.459-2.355 7.392 4.415 3.214 7.043-1.717 1.08-5.738 1.493-11.541 1.493-.877 0-1.368.215-1.123 1.287.476 2.076-.626 3.384-2.894.77z" transform="translate(11 83)"/>
                            </g>
                            <g>
                                <g transform="translate(11 83) translate(146)">
                                    <mask id="u7a0bx98oh" fill="#fff">
                                        <use xlink:href="#83syinj6rg"/>
                                    </mask>
                                    <use fill="#EEF1F7" fill-rule="nonzero" transform="matrix(-1 0 0 1 56 0)" xlink:href="#83syinj6rg"/>
                                    <path fill="#A0A6B2" fill-rule="nonzero" d="M47.6 44.215c1.184 2.451 2.118 6.505 2.8 12.16H5.6c.682-5.655 1.616-9.709 2.8-12.16 1.184-2.452 5.236-4.814 12.152-7.089 2 4.18 12.975 4.18 14.89-.001 6.92 2.274 10.974 4.636 12.158 7.09z" mask="url(#u7a0bx98oh)"/>
                                </g>
                                <path fill="#FFF" fill-rule="nonzero" d="M34.468 31.545v2.2c0 1.954 1.467 3.359 4.402 4.214-3.38 2.444-6.824 3.666-10.335 3.666-3.509 0-6.954-1.222-10.335-3.666 2.958-.855 4.424-2.26 4.402-4.216-.034-2.932-.012-4.654-.034-9.68-2.744-3.404-2.568-5.69-1.068-7.297 3.35-3.588 9.587-4.772 18.71-3.55.85 8.796.309 14.479-1.627 17.045-.83 1.1-2.201 1.527-4.115 1.284z" transform="translate(11 83) translate(146)"/>
                                <path fill="#DDDFE3" fill-rule="nonzero" d="M34.6 32.313c-2.933-.287-5.267-.974-7-2.063 1.467 2.12 3.8 3.495 7 4.125v-2.063z" style="mix-blend-mode:multiply" transform="translate(11 83) translate(146)"/>
                                <path fill="#FFF" fill-rule="nonzero" d="M27.3 49.5c.386 0 .7.308.7.688 0 .379-.314.687-.7.687-.386 0-.7-.308-.7-.688 0-.379.314-.687.7-.687zm0-3.438c.386 0 .7.309.7.688 0 .38-.314.688-.7.688-.386 0-.7-.309-.7-.688 0-.38.314-.688.7-.688zm0-3.437c.386 0 .7.308.7.688 0 .379-.314.687-.7.687-.386 0-.7-.308-.7-.688 0-.379.314-.687.7-.687z" transform="translate(11 83) translate(146)"/>
                                <path fill="#A0A6B2" fill-rule="nonzero" d="M24.427 18.92c-.588-.5-1.305-.836-2.317-.316-2.4 1.233-.584 5.962 1.547 5.962.557 0 .833 1.728-1.642 2.934 0-1.925-2.967-6.692-3.224-11.032-2.985-1.098-2.244-5.495-.195-5.495-.327-4.032 6.198-6.114 8.725-3.801 2.57-3.047 9.058-1.488 9.45 1.155 4.459-2.355 7.392 4.415 3.214 7.043-1.717 1.08-5.738 1.493-11.541 1.493-.877 0-1.368.215-1.123 1.287.476 2.076-.626 3.384-2.894.77z" transform="translate(11 83) translate(146)"/>
                            </g>
                        </g>
                    </g>
                </g>
                <g>
                    <g transform="translate(106 47)">
                        <mask id="losy10tzlj" fill="#fff">
                            <use xlink:href="#shqekn50di"/>
                        </mask>
                        <use fill="#EEF1F7" fill-rule="nonzero" transform="matrix(-1 0 0 1 60 0)" xlink:href="#shqekn50di"/>
                        <path fill="#0068FE" fill-rule="nonzero" d="M51 47.43c1.269 2.63 2.27 6.978 3 13.045H6c.73-6.067 1.731-10.415 3-13.045 1.269-2.63 5.61-5.164 13.02-7.604 2.142 4.484 13.902 4.484 15.954-.001 7.415 2.44 11.757 4.974 13.026 7.605z" mask="url(#losy10tzlj)"/>
                    </g>
                    <path fill="#FFF" fill-rule="nonzero" d="M36.93 33.839v2.36c0 2.096 1.572 3.603 4.716 4.52-3.621 2.622-7.311 3.933-11.073 3.933-3.759 0-7.45-1.311-11.073-3.932 3.17-.918 4.74-2.425 4.716-4.522-.036-3.147-.012-4.993-.036-10.384-2.94-3.653-2.751-6.104-1.145-7.828 3.59-3.85 10.272-5.12 20.046-3.809.912 9.436.332 15.532-1.742 18.284-.889 1.18-2.358 1.64-4.409 1.378z" transform="translate(106 47)"/>
                    <path fill="#DDDFE3" fill-rule="nonzero" d="M37.071 34.663c-3.142-.307-5.643-1.045-7.5-2.213 1.572 2.274 4.071 3.75 7.5 4.425v-2.212z" style="mix-blend-mode:multiply" transform="translate(106 47)"/>
                    <path fill="#FFF" fill-rule="nonzero" d="M29.25 53.1c.414 0 .75.33.75.737 0 .408-.336.738-.75.738s-.75-.33-.75-.738c0-.407.336-.737.75-.737zm0-3.688c.414 0 .75.33.75.738 0 .407-.336.738-.75.738s-.75-.33-.75-.738c0-.407.336-.737.75-.737zm0-3.687c.414 0 .75.33.75.737 0 .408-.336.738-.75.738s-.75-.33-.75-.738c0-.407.336-.737.75-.737z" transform="translate(106 47)"/>
                    <path fill="#0068FE" fill-rule="nonzero" d="M26.172 20.296c-.63-.535-1.398-.897-2.483-.34-2.572 1.324-.625 6.396 1.658 6.396.597 0 .892 1.854-1.76 3.148 0-2.065-3.178-7.179-3.454-11.834-3.198-1.178-2.404-5.896-.209-5.896-.35-4.324 6.641-6.557 9.349-4.076 2.753-3.269 9.704-1.596 10.125 1.239 4.777-2.527 7.92 4.736 3.444 7.555-1.841 1.159-6.149 1.601-12.366 1.601-.94 0-1.466.23-1.203 1.381.51 2.227-.671 3.63-3.101.826z" transform="translate(106 47)"/>
                </g>
                <circle cx="112.5" cy="101.5" r="13.5" fill="#2E6360" fill-rule="nonzero" opacity=".16"/>
                <circle cx="113.5" cy="100.5" r="13.5" fill="#FFF"/>
                <g>
                    <g transform="translate(36 49)">
                        <mask id="uau90k2wsl" fill="#fff">
                            <use xlink:href="#sbpzh5j3uk"/>
                        </mask>
                        <use fill="#EEF1F7" fill-rule="nonzero" transform="matrix(-1 0 0 1 56 0)" xlink:href="#sbpzh5j3uk"/>
                        <path fill="#A0A6B2" fill-rule="nonzero" d="M47.6 44.215c1.184 2.451 2.118 6.505 2.8 12.16H5.6c.682-5.655 1.616-9.709 2.8-12.16 1.184-2.452 5.236-4.814 12.152-7.089 2 4.18 12.975 4.18 14.89-.001 6.92 2.274 10.974 4.636 12.158 7.09z" mask="url(#uau90k2wsl)"/>
                    </g>
                    <path fill="#FFF" fill-rule="nonzero" d="M34.468 31.545v2.2c0 1.954 1.467 3.359 4.402 4.214-3.38 2.444-6.824 3.666-10.335 3.666-3.509 0-6.954-1.222-10.335-3.666 2.958-.855 4.424-2.26 4.402-4.216-.034-2.932-.012-4.654-.034-9.68-2.744-3.404-2.568-5.69-1.068-7.297 3.35-3.588 9.587-4.772 18.71-3.55.85 8.796.309 14.479-1.627 17.045-.83 1.1-2.201 1.527-4.115 1.284z" transform="translate(36 49)"/>
                    <path fill="#DDDFE3" fill-rule="nonzero" d="M34.6 32.313c-2.933-.287-5.267-.974-7-2.063 1.467 2.12 3.8 3.495 7 4.125v-2.063z" style="mix-blend-mode:multiply" transform="translate(36 49)"/>
                    <path fill="#FFF" fill-rule="nonzero" d="M27.3 49.5c.386 0 .7.308.7.688 0 .379-.314.687-.7.687-.386 0-.7-.308-.7-.688 0-.379.314-.687.7-.687zm0-3.438c.386 0 .7.309.7.688 0 .38-.314.688-.7.688-.386 0-.7-.309-.7-.688 0-.38.314-.688.7-.688zm0-3.437c.386 0 .7.308.7.688 0 .379-.314.687-.7.687-.386 0-.7-.308-.7-.688 0-.379.314-.687.7-.687z" transform="translate(36 49)"/>
                    <path fill="#A0A6B2" fill-rule="nonzero" d="M24.427 18.92c-.588-.5-1.305-.836-2.317-.316-2.4 1.233-.584 5.962 1.547 5.962.557 0 .833 1.728-1.642 2.934 0-1.925-2.967-6.692-3.224-11.032-2.985-1.098-2.244-5.495-.195-5.495-.327-4.032 6.198-6.114 8.725-3.801 2.57-3.047 9.058-1.488 9.45 1.155 4.459-2.355 7.392 4.415 3.214 7.043-1.717 1.08-5.738 1.493-11.541 1.493-.877 0-1.368.215-1.123 1.287.476 2.076-.626 3.384-2.894.77z" transform="translate(36 49)"/>
                </g>
                <g>
                    <g transform="translate(181 49)">
                        <mask id="uytou9lpnn" fill="#fff">
                            <use xlink:href="#bjo2njtpnm"/>
                        </mask>
                        <use fill="#EEF1F7" fill-rule="nonzero" transform="matrix(-1 0 0 1 56 0)" xlink:href="#bjo2njtpnm"/>
                        <path fill="#A0A6B2" fill-rule="nonzero" d="M47.6 44.215c1.184 2.451 2.118 6.505 2.8 12.16H5.6c.682-5.655 1.616-9.709 2.8-12.16 1.184-2.452 5.236-4.814 12.152-7.089 2 4.18 12.975 4.18 14.89-.001 6.92 2.274 10.974 4.636 12.158 7.09z" mask="url(#uytou9lpnn)"/>
                    </g>
                    <path fill="#FFF" fill-rule="nonzero" d="M34.468 31.545v2.2c0 1.954 1.467 3.359 4.402 4.214-3.38 2.444-6.824 3.666-10.335 3.666-3.509 0-6.954-1.222-10.335-3.666 2.958-.855 4.424-2.26 4.402-4.216-.034-2.932-.012-4.654-.034-9.68-2.744-3.404-2.568-5.69-1.068-7.297 3.35-3.588 9.587-4.772 18.71-3.55.85 8.796.309 14.479-1.627 17.045-.83 1.1-2.201 1.527-4.115 1.284z" transform="translate(181 49)"/>
                    <path fill="#DDDFE3" fill-rule="nonzero" d="M34.6 32.313c-2.933-.287-5.267-.974-7-2.063 1.467 2.12 3.8 3.495 7 4.125v-2.063z" style="mix-blend-mode:multiply" transform="translate(181 49)"/>
                    <path fill="#FFF" fill-rule="nonzero" d="M27.3 49.5c.386 0 .7.308.7.688 0 .379-.314.687-.7.687-.386 0-.7-.308-.7-.688 0-.379.314-.687.7-.687zm0-3.438c.386 0 .7.309.7.688 0 .38-.314.688-.7.688-.386 0-.7-.309-.7-.688 0-.38.314-.688.7-.688zm0-3.437c.386 0 .7.308.7.688 0 .379-.314.687-.7.687-.386 0-.7-.308-.7-.688 0-.379.314-.687.7-.687z" transform="translate(181 49)"/>
                    <path fill="#A0A6B2" fill-rule="nonzero" d="M24.427 18.92c-.588-.5-1.305-.836-2.317-.316-2.4 1.233-.584 5.962 1.547 5.962.557 0 .833 1.728-1.642 2.934 0-1.925-2.967-6.692-3.224-11.032-2.985-1.098-2.244-5.495-.195-5.495-.327-4.032 6.198-6.114 8.725-3.801 2.57-3.047 9.058-1.488 9.45 1.155 4.459-2.355 7.392 4.415 3.214 7.043-1.717 1.08-5.738 1.493-11.541 1.493-.877 0-1.368.215-1.123 1.287.476 2.076-.626 3.384-2.894.77z" transform="translate(181 49)"/>
                </g>
                <path fill="url(#x8jgozx9ro)" d="M24 136H249V157H24z"/>
                <g>
                    <path d="M0 0L20 0 20 20 0 20z" transform="translate(103 90)"/>
                    <path fill="#24A2A7" fill-rule="nonzero" d="M5.45 4.167c.05.741.175 1.466.375 2.158l-1 1c-.342-1-.558-2.058-.633-3.158H5.45m8.217 10.016c.708.2 1.433.325 2.166.375V15.8c-1.1-.075-2.158-.292-3.166-.625l1-.992M6.25 2.5H3.333c-.458 0-.833.375-.833.833C2.5 11.158 8.842 17.5 16.667 17.5c.458 0 .833-.375.833-.833v-2.909c0-.458-.375-.833-.833-.833-1.034 0-2.042-.167-2.975-.475-.084-.033-.175-.042-.259-.042-.216 0-.425.084-.591.242l-1.834 1.833C8.65 13.275 6.717 11.35 5.517 8.992L7.35 7.158c.233-.233.3-.558.208-.85-.308-.933-.475-1.933-.475-2.975 0-.458-.375-.833-.833-.833z" transform="translate(103 90)"/>
                    <path fill="#FFF" fill-rule="nonzero" d="M5.45 4.167c.05.741.175 1.466.375 2.158l-1 1c-.342-1-.558-2.058-.633-3.158H5.45m8.217 10.016c.708.2 1.433.325 2.166.375V15.8c-1.1-.075-2.158-.292-3.166-.625l1-.992" transform="translate(103 90)"/>
                </g>
            </g>
        </g>
    </g>
</svg>
