<svg xmlns="http://www.w3.org/2000/svg" width="162" height="28" viewBox="0 0 162 28">
    <g fill="none" fill-rule="evenodd">
        <g fill-rule="nonzero">
            <g>
                <g>
                    <g>
                        <g>
                            <g>
                                <path fill="#FFE48D" d="M3.09 8.536c.383 0 .743-.237.882-.618l1.781-4.884c.086-.234.074-.492-.03-.718-.106-.226-.296-.401-.53-.486l-2.12-.773c-.487-.178-1.026.073-1.204.56L.09 6.503c-.086.234-.075.492.03.718.105.226.296.401.53.487l2.119.772c.106.039.215.057.322.057z" transform="translate(-829 -1484) translate(0 1109) translate(441 368) translate(1 1) translate(387 6)"/>
                                <path fill="#FFD5CD" d="M48.829 11.184l-2.17-.615c-.5-.141-1.019.149-1.16.648l-1.416 5.002c-.068.24-.038.496.083.714.122.217.325.378.564.446l2.17.614c.086.025.172.036.257.036.41 0 .786-.27.903-.684l1.417-5.001c.068-.24.038-.497-.084-.715-.121-.217-.324-.378-.564-.445z" transform="translate(-829 -1484) translate(0 1109) translate(441 368) translate(1 1) translate(387 6)"/>
                                <path fill="#FFE48D" d="M65.201 6.784l-2.069-4.769c-.206-.476-.76-.694-1.236-.488l-2.069.898c-.476.207-.694.76-.488 1.236l2.07 4.769c.153.354.499.566.862.566.125 0 .251-.025.373-.078l2.07-.898c.228-.099.408-.285.5-.517.09-.231.086-.49-.013-.719z" transform="translate(-829 -1484) translate(0 1109) translate(441 368) translate(1 1) translate(387 6)"/>
                                <path fill="#C8F8F6" d="M5.253 19.303c-.084-.234-.257-.426-.482-.533-.226-.106-.484-.119-.719-.035l-2.123.76c-.489.174-.743.712-.568 1.2l1.75 4.896c.085.234.258.426.483.532.127.06.265.09.402.09.107 0 .214-.018.317-.054l2.123-.76c.489-.175.743-.712.568-1.201l-1.75-4.895z" transform="translate(-829 -1484) translate(0 1109) translate(441 368) translate(1 1) translate(387 6)"/>
                                <path fill="#FFD75D" d="M13.172 14.868c-.075 0-.152-.009-.228-.028-.504-.126-.81-.636-.684-1.14l.689-2.755c.126-.503.637-.81 1.14-.684.503.126.809.636.683 1.14l-.69 2.755c-.106.427-.489.712-.91.712zM75.422 18.03c-.317 0-.627-.162-.803-.453l-1.476-2.427c-.27-.443-.129-1.021.315-1.29.443-.27 1.021-.13 1.29.314l1.476 2.427c.27.444.129 1.022-.315 1.291-.152.093-.32.137-.487.137z" transform="translate(-829 -1484) translate(0 1109) translate(441 368) translate(1 1) translate(387 6)"/>
                                <path fill="#FFF" d="M34.988 27.615c-.05 0-.101-.003-.152-.012-.513-.083-.86-.566-.777-1.078l.456-2.804c.083-.512.566-.86 1.078-.776.512.083.86.566.777 1.078l-.456 2.804c-.075.46-.474.788-.926.788zM21.925 4.731c-.446 0-.842-.319-.924-.773l-.503-2.796c-.092-.51.247-.999.758-1.091.51-.092.999.247 1.09.758l.505 2.796c.092.51-.248.999-.758 1.09-.057.011-.113.016-.168.016z" transform="translate(-829 -1484) translate(0 1109) translate(441 368) translate(1 1) translate(387 6)"/>
                                <path fill="#FFAA9A" d="M29.183 19.253c-.17 0-.341-.046-.496-.143-.44-.275-.574-.854-.3-1.294l.942-1.51-.942-1.51c-.19-.305-.19-.69 0-.995l.942-1.51-.942-1.51c-.19-.304-.19-.69 0-.994L29.64 7.78c.275-.44.854-.575 1.294-.3.44.275.575.854.3 1.294l-.942 1.51.942 1.51c.19.304.19.69 0 .995l-.942 1.51.942 1.51c.19.304.19.69 0 .994l-1.253 2.008c-.178.285-.484.442-.798.442zM63.333 28c-.08 0-.162-.01-.244-.032-.5-.135-.798-.65-.664-1.151l.461-1.72-1.341-1.169c-.27-.236-.383-.605-.29-.951l.461-1.72-1.341-1.169c-.271-.235-.384-.605-.29-.952l.613-2.284c.134-.501.65-.799 1.15-.664.502.134.799.65.664 1.15l-.46 1.72 1.34 1.169c.271.235.384.605.29.951l-.46 1.719 1.341 1.17c.27.235.383.605.29.951l-.613 2.285c-.112.42-.492.697-.907.697z" transform="translate(-829 -1484) translate(0 1109) translate(441 368) translate(1 1) translate(387 6)"/>
                            </g>
                            <g>
                                <path fill="#FFE48D" d="M3.09 8.536c.383 0 .743-.237.882-.618l1.781-4.884c.086-.234.074-.492-.03-.718-.106-.226-.296-.401-.53-.486l-2.12-.773c-.487-.178-1.026.073-1.204.56L.09 6.503c-.086.234-.075.492.03.718.105.226.296.401.53.487l2.119.772c.106.039.215.057.322.057z" transform="translate(-829 -1484) translate(0 1109) translate(441 368) translate(1 1) translate(387 6) translate(85)"/>
                                <path fill="#FFD5CD" d="M48.829 11.184l-2.17-.615c-.5-.141-1.019.149-1.16.648l-1.416 5.002c-.068.24-.038.496.083.714.122.217.325.378.564.446l2.17.614c.086.025.172.036.257.036.41 0 .786-.27.903-.684l1.417-5.001c.068-.24.038-.497-.084-.715-.121-.217-.324-.378-.564-.445z" transform="translate(-829 -1484) translate(0 1109) translate(441 368) translate(1 1) translate(387 6) translate(85)"/>
                                <path fill="#FFE48D" d="M65.201 6.784l-2.069-4.769c-.206-.476-.76-.694-1.236-.488l-2.069.898c-.476.207-.694.76-.488 1.236l2.07 4.769c.153.354.499.566.862.566.125 0 .251-.025.373-.078l2.07-.898c.228-.099.408-.285.5-.517.09-.231.086-.49-.013-.719z" transform="translate(-829 -1484) translate(0 1109) translate(441 368) translate(1 1) translate(387 6) translate(85)"/>
                                <path fill="#C8F8F6" d="M5.253 19.303c-.084-.234-.257-.426-.482-.533-.226-.106-.484-.119-.719-.035l-2.123.76c-.489.174-.743.712-.568 1.2l1.75 4.896c.085.234.258.426.483.532.127.06.265.09.402.09.107 0 .214-.018.317-.054l2.123-.76c.489-.175.743-.712.568-1.201l-1.75-4.895z" transform="translate(-829 -1484) translate(0 1109) translate(441 368) translate(1 1) translate(387 6) translate(85)"/>
                                <path fill="#FFD75D" d="M13.172 14.868c-.075 0-.152-.009-.228-.028-.504-.126-.81-.636-.684-1.14l.689-2.755c.126-.503.637-.81 1.14-.684.503.126.809.636.683 1.14l-.69 2.755c-.106.427-.489.712-.91.712zM75.422 18.03c-.317 0-.627-.162-.803-.453l-1.476-2.427c-.27-.443-.129-1.021.315-1.29.443-.27 1.021-.13 1.29.314l1.476 2.427c.27.444.129 1.022-.315 1.291-.152.093-.32.137-.487.137z" transform="translate(-829 -1484) translate(0 1109) translate(441 368) translate(1 1) translate(387 6) translate(85)"/>
                                <path fill="#FFF" d="M34.988 27.615c-.05 0-.101-.003-.152-.012-.513-.083-.86-.566-.777-1.078l.456-2.804c.083-.512.566-.86 1.078-.776.512.083.86.566.777 1.078l-.456 2.804c-.075.46-.474.788-.926.788zM21.925 4.731c-.446 0-.842-.319-.924-.773l-.503-2.796c-.092-.51.247-.999.758-1.091.51-.092.999.247 1.09.758l.505 2.796c.092.51-.248.999-.758 1.09-.057.011-.113.016-.168.016z" transform="translate(-829 -1484) translate(0 1109) translate(441 368) translate(1 1) translate(387 6) translate(85)"/>
                                <path fill="#FFAA9A" d="M29.183 19.253c-.17 0-.341-.046-.496-.143-.44-.275-.574-.854-.3-1.294l.942-1.51-.942-1.51c-.19-.305-.19-.69 0-.995l.942-1.51-.942-1.51c-.19-.304-.19-.69 0-.994L29.64 7.78c.275-.44.854-.575 1.294-.3.44.275.575.854.3 1.294l-.942 1.51.942 1.51c.19.304.19.69 0 .995l-.942 1.51.942 1.51c.19.304.19.69 0 .994l-1.253 2.008c-.178.285-.484.442-.798.442zM63.333 28c-.08 0-.162-.01-.244-.032-.5-.135-.798-.65-.664-1.151l.461-1.72-1.341-1.169c-.27-.236-.383-.605-.29-.951l.461-1.72-1.341-1.169c-.271-.235-.384-.605-.29-.952l.613-2.284c.134-.501.65-.799 1.15-.664.502.134.799.65.664 1.15l-.46 1.72 1.34 1.169c.271.235.384.605.29.951l-.46 1.719 1.341 1.17c.27.235.383.605.29.951l-.613 2.285c-.112.42-.492.697-.907.697z" transform="translate(-829 -1484) translate(0 1109) translate(441 368) translate(1 1) translate(387 6) translate(85)"/>
                            </g>
                        </g>
                    </g>
                </g>
            </g>
        </g>
    </g>
</svg>
