<svg xmlns="http://www.w3.org/2000/svg" width="24" height="24" viewBox="0 0 24 24">
    <g fill="none" fill-rule="evenodd">
        <path d="M0 0H24V24H0z"/>
        <g>
            <path d="M0 0H20V20H0z" transform="translate(2 2)"/>
            <g>
                <path d="M0 0L16.667 0 16.667 16.667 0 16.667z" transform="translate(2 2) translate(1.667 1.667)"/>
                <path fill="#284E52" fill-rule="nonzero" d="M8.938 10.465L7.173 8.722l.02-.02c1.209-1.348 2.07-2.896 2.577-4.535h2.035v-1.39H6.944V1.39H5.556v1.389H.694V4.16h7.757C7.986 5.5 7.25 6.77 6.25 7.882c-.646-.715-1.18-1.5-1.604-2.326h-1.39c.508 1.131 1.202 2.2 2.07 3.166l-3.534 3.486.986.986L6.25 9.722l2.16 2.16.527-1.417zm3.91-3.52h-1.39l-3.125 8.333h1.39l.777-2.084h3.299l.784 2.084h1.39l-3.126-8.334zm-1.82 4.86L12.153 8.8l1.125 3.007h-2.25z" transform="translate(2 2) translate(1.667 1.667)"/>
            </g>
        </g>
    </g>
</svg>
