<svg xmlns="http://www.w3.org/2000/svg" width="20" height="20" viewBox="0 0 20 20">
    <path fill="#2C2F35" fill-rule="nonzero" d="M10.004 4.9a5.104 5.104 0 0 0-5.106 5.118 5.104 5.104 0 0 0 5.106 5.118 5.104 5.104 0 0 0 5.107-5.118A5.104 5.104 0 0 0 10.004 4.9zm0 8.445a3.327 3.327 0 1 1 0-6.655 3.327 3.327 0 0 1 0 6.655zm6.507-8.655a1.19 1.19 0 0 1-1.191 1.194 1.19 1.19 0 0 1-1.191-1.194c0-.659.533-1.193 1.191-1.193s1.191.534 1.191 1.193zm3.382 1.212c-.075-1.6-.44-3.016-1.609-4.183C17.12.552 15.707.187 14.111.107c-1.644-.094-6.573-.094-8.218 0-1.59.076-3.004.44-4.173 1.608C.551 2.882.191 4.298.111 5.898c-.093 1.648-.093 6.588 0 8.236.076 1.599.44 3.015 1.609 4.182 1.169 1.167 2.578 1.533 4.173 1.613 1.645.093 6.574.093 8.218 0 1.596-.076 3.009-.441 4.173-1.613 1.165-1.167 1.53-2.583 1.61-4.182.093-1.648.093-6.584 0-8.232zm-2.124 10a3.365 3.365 0 0 1-1.893 1.898c-1.312.52-4.423.4-5.872.4-1.448 0-4.564.116-5.87-.4a3.365 3.365 0 0 1-1.894-1.898c-.52-1.314-.4-4.432-.4-5.884s-.116-4.575.4-5.884a3.365 3.365 0 0 1 1.893-1.898c1.311-.521 4.423-.4 5.871-.4 1.45 0 4.565-.117 5.872.4a3.365 3.365 0 0 1 1.893 1.898c.52 1.314.4 4.432.4 5.884s.12 4.574-.4 5.884z"/>
</svg>
