<svg xmlns="http://www.w3.org/2000/svg" width="24" height="24" viewBox="0 0 24 24">
    <g fill="none" fill-rule="evenodd">
        <path d="M0 0H24V24H0z"/>
        <g>
            <path d="M0 0L20 0 20 20 0 20z" transform="translate(2 2)"/>
            <path fill="#284E52" fill-rule="nonzero" d="M16.667 5.833h-3.334V4.167L11.667 2.5H8.333L6.667 4.167v1.666H3.333c-.916 0-1.666.75-1.666 1.667v4.167c0 .625.333 1.15.833 1.441v2.725c0 .925.742 1.667 1.667 1.667h11.666c.925 0 1.667-.742 1.667-1.667V13.1c.492-.292.833-.825.833-1.433V7.5c0-.917-.75-1.667-1.666-1.667zM8.333 4.167h3.334v1.666H8.333V4.167zm-5 3.333h13.334v4.167H12.5v-2.5h-5v2.5H3.333V7.5zm7.5 5H9.167v-1.667h1.666V12.5zm5 3.333H4.167v-2.5H7.5v.834h5v-.834h3.333v2.5z" transform="translate(2 2)"/>
        </g>
    </g>
</svg>
