<svg xmlns="http://www.w3.org/2000/svg" width="24" height="24" viewBox="0 0 24 24">
    <g fill="none" fill-rule="evenodd">
        <path d="M0 0H24V24H0z"/>
        <g>
            <path d="M0 0L20 0 20 20 0 20z" transform="translate(2 2)"/>
            <path fill="#284E52" fill-rule="nonzero" d="M10.417 6.667h-1.25v5l3.958 2.375.625-1.025-3.333-1.975V6.667zm4.03-5.159l3.84 3.205-1.067 1.279-3.842-3.203 1.07-1.28zm-8.894 0l1.068 1.28-3.84 3.204-1.067-1.28 3.839-3.204zM10 3.333c-4.142 0-7.5 3.359-7.5 7.5 0 4.142 3.358 7.5 7.5 7.5 4.142 0 7.5-3.358 7.5-7.5 0-4.141-3.358-7.5-7.5-7.5zm0 13.334c-3.217 0-5.833-2.617-5.833-5.834C4.167 7.617 6.783 5 10 5s5.833 2.617 5.833 5.833c0 3.217-2.616 5.834-5.833 5.834z" transform="translate(2 2)"/>
        </g>
    </g>
</svg>
