<svg xmlns="http://www.w3.org/2000/svg" width="14" height="14" viewBox="0 0 14 14">
    <g fill="none">
        <circle cx="6.998" cy="6.998" r="4.024" fill="#FFCE32"/>
        <path fill="#D9B238" d="M8.905 3.447c.175.56.298 1.154.315 1.767.105 2.432-1.54 4.584-3.674 5.528.455.175.945.28 1.452.28 2.222 0 4.024-1.802 4.024-4.024 0-1.54-.857-2.869-2.117-3.551z"/>
        <path fill="#FFCE32" d="M6.998 0c-.332 0-.595.262-.595.595v.98c0 .332.263.594.595.594.333 0 .595-.262.595-.594v-.98C7.593.262 7.331 0 6.998 0zM6.998 11.827c-.332 0-.595.263-.595.595v.98c0 .332.263.595.595.595.333 0 .595-.263.595-.595v-.98c0-.332-.262-.595-.595-.595zM13.997 6.998c0-.332-.263-.595-.595-.595h-.98c-.332 0-.595.263-.595.595 0 .333.263.595.595.595h.98c.332 0 .595-.262.595-.595zM2.17 6.998c0-.332-.263-.595-.595-.595h-.98c-.333 0-.595.263-.595.595 0 .333.262.595.595.595h.98c.332 0 .594-.262.594-.595zM11.95 2.047c-.228-.227-.613-.227-.84 0l-.7.7c-.227.227-.227.612 0 .84.227.227.612.227.84 0l.7-.7c.227-.228.227-.613 0-.84zM3.587 10.41c-.228-.227-.613-.227-.84 0l-.7.7c-.227.227-.227.612 0 .84.227.227.612.227.84 0l.7-.7c.227-.228.227-.595 0-.84zM11.95 11.95c.227-.228.227-.613 0-.84l-.7-.7c-.228-.227-.613-.227-.84 0-.227.227-.227.612 0 .84l.7.7c.227.227.612.227.84 0zM3.587 3.587c.227-.228.227-.613 0-.84l-.7-.7c-.228-.227-.613-.227-.84 0-.227.227-.227.612 0 .84l.7.7c.227.227.595.227.84 0z"/>
    </g>
</svg>
