<svg xmlns="http://www.w3.org/2000/svg" width="17" height="14" viewBox="0 0 17 14">
    <g fill="none">
        <path fill="#FFCE32" d="M12.028 9.471c-.387 0-.776-.047-1.16-.142-1.242-.308-2.291-1.083-2.952-2.18-.66-1.097-.855-2.386-.546-3.63C7.792 1.818 9.11.483 10.806.036c.163-.043.337.007.452.13.115.123.153.3.1.46-.35 1.04-.253 2.144.274 3.105.527.96 1.402 1.635 2.466 1.899.63.156 1.294.152 1.919-.013.163-.043.337.007.452.13.115.124.153.3.1.46-.383 1.138-1.175 2.086-2.23 2.668-.715.394-1.51.596-2.311.596z"/>
        <path fill="#D9B238" d="M16.469 5.748c-.115-.124-.29-.174-.452-.13-.625.164-1.288.168-1.92.012-.893-.222-1.655-.734-2.187-1.463V9.47l.118.001c.802 0 1.596-.202 2.311-.596 1.055-.582 1.847-1.53 2.23-2.668.053-.16.015-.336-.1-.46z"/>
        <path fill="#284E52" d="M7.227 13.98c-.576 0-1.14-.2-1.587-.56-.238-.193-.438-.426-.592-.687-.332.208-.72.323-1.12.323-.945 0-1.759-.633-2.02-1.506-.44-.042-.86-.222-1.196-.519-.452-.4-.712-.975-.712-1.58 0-1.097.842-2 1.914-2.099.109-.35.308-.67.582-.924.391-.362.9-.561 1.433-.561.396 0 .78.113 1.11.318.154-.264.355-.5.594-.695.448-.365 1.015-.566 1.594-.566.58 0 1.145.2 1.594.566.239.194.44.43.593.695.33-.205.715-.318 1.11-.318.534 0 1.043.2 1.433.561.275.255.474.573.583.924.441.041.863.22 1.2.52.454.399.714.975.714 1.58 0 .604-.26 1.18-.713 1.58-.336.296-.756.476-1.196.518-.26.873-1.074 1.506-2.02 1.506-.4 0-.788-.115-1.12-.323-.153.26-.354.494-.591.686-.448.361-1.011.56-1.587.56z"/>
        <path fill="#002F34" d="M13.74 7.871c-.337-.298-.759-.478-1.2-.519-.109-.35-.308-.67-.583-.924-.39-.362-.9-.561-1.432-.561-.396 0-.78.113-1.111.318-.153-.264-.354-.5-.593-.695-.449-.365-1.015-.566-1.594-.566v9.055c.576 0 1.14-.199 1.587-.56.237-.192.438-.425.591-.686.332.208.72.323 1.12.323.946 0 1.76-.633 2.02-1.506.44-.042.86-.222 1.196-.519.453-.4.713-.975.713-1.58 0-.604-.26-1.18-.713-1.58z"/>
    </g>
</svg>
