<svg xmlns="http://www.w3.org/2000/svg" width="24" height="24" viewBox="0 0 24 24">
    <g fill="none" fill-rule="evenodd">
        <path d="M0 0H24V24H0z"/>
        <g>
            <path d="M0.008 0L20.008 0 20.008 20 0.008 20z" transform="translate(2 2)"/>
            <path fill="#284E52" fill-rule="nonzero" d="M4.583 18.333v-6.25h-1.25V7.5c0-.917.75-1.667 1.667-1.667h2.5c.917 0 1.667.75 1.667 1.667v4.583h-1.25v6.25H4.583zm10.417 0v-5h2.5l-2.117-6.358c-.233-.683-.866-1.142-1.583-1.142h-.1c-.717 0-1.358.459-1.583 1.142L10 13.333h2.5v5H15zM6.25 5c.925 0 1.667-.742 1.667-1.667S7.175 1.667 6.25 1.667s-1.667.741-1.667 1.666C4.583 4.258 5.325 5 6.25 5zm7.5 0c.925 0 1.667-.742 1.667-1.667s-.742-1.666-1.667-1.666-1.667.741-1.667 1.666c0 .925.742 1.667 1.667 1.667z" transform="translate(2 2)"/>
        </g>
    </g>
</svg>
