<svg xmlns="http://www.w3.org/2000/svg" width="22" height="22" viewBox="0 0 22 22">
    <g fill="none" fill-rule="evenodd">
        <path d="M0 0H24V24H0z" transform="translate(-1 -1)"/>
        <g>
            <path d="M0 0H22V22H0z" transform="translate(-1 -1) translate(1 1)"/>
            <path fill="#9AEBEB" d="M22 .957v19.13C22 21.143 21.143 22 20.087 22H1.913l1.913-7.174V.956c0-.528.428-.956.957-.956h16.26c.529 0 .957.428.957.957" transform="translate(-1 -1) translate(1 1)"/>
            <path fill="#0BA8B0" d="M17.696 5.74h-2.87c-.264 0-.478-.215-.478-.48 0-.263.214-.477.478-.477h2.87c.264 0 .478.214.478.478s-.214.478-.478.478M17.696 9.565h-2.87c-.264 0-.478-.214-.478-.478s.214-.478.478-.478h2.87c.264 0 .478.214.478.478s-.214.478-.478.478M17.696 13.391H8.13c-.264 0-.478-.214-.478-.478s.214-.478.478-.478h9.566c.264 0 .478.214.478.478s-.214.478-.478.478M17.696 17.522H8.13c-.264 0-.478-.215-.478-.479s.214-.478.478-.478h9.566c.264 0 .478.214.478.478s-.214.479-.478.479M11.957 9.565H8.13c-.264 0-.478-.214-.478-.478V5.261c0-.264.214-.478.478-.478h3.827c.264 0 .478.214.478.478v3.826c0 .264-.214.478-.478.478M1.913 22c1.057 0 1.913-.857 1.913-1.913V13.87H.478c-.264 0-.478.214-.478.478v5.739C0 21.143.857 22 1.913 22" transform="translate(-1 -1) translate(1 1)"/>
        </g>
    </g>
</svg>
