<svg xmlns="http://www.w3.org/2000/svg" width="24" height="24" viewBox="0 0 24 24">
    <g fill="none" fill-rule="evenodd">
        <path d="M0 0H24V24H0z"/>
        <g>
            <path d="M0 0L20 0 20 20 0 20z" transform="translate(2 2)"/>
            <path fill="#284E52" fill-rule="nonzero" d="M10 1.667c4.6 0 8.333 3.733 8.333 8.333S14.6 18.333 10 18.333 1.667 14.6 1.667 10 5.4 1.667 10 1.667zm0 1.666c-3.675 0-6.667 2.992-6.667 6.667S6.325 16.667 10 16.667s6.667-2.992 6.667-6.667S13.675 3.333 10 3.333zM13 6l-.283.977h-1.454l.107.147c.201.305.332.663.392 1.077H13l-.283.976h-.937l-.028.215c-.106.627-.386 1.108-.84 1.442-.505.37-1.208.556-2.107.556l3.037 3.536V15h-1.398l-3.265-3.814-.007-.773h1.534l.214-.008c.417-.03.762-.14 1.037-.328.32-.22.523-.52.61-.9H7l.283-.976h3.271l-.044-.152c-.235-.684-.824-1.042-1.767-1.072h-1.73L7.301 6H13z" transform="translate(2 2)"/>
        </g>
    </g>
</svg>
