<svg xmlns="http://www.w3.org/2000/svg" width="24" height="24" viewBox="0 0 24 24">
    <g fill="none" fill-rule="evenodd">
        <path d="M0 0H24V24H0z"/>
        <g>
            <path d="M0 0L20 0 20 20 0 20z" transform="translate(2 2)"/>
            <path fill="#284E52" fill-rule="nonzero" d="M18.842 15.825l-7.567-7.567c.775-1.95.375-4.25-1.2-5.833C8.158.508 5.175.333 3.05 1.883l3.2 3.209-1.183 1.175-3.192-3.192C.325 5.192.5 8.183 2.417 10.092c1.55 1.55 3.808 1.958 5.741 1.233l7.592 7.592c.325.325.85.325 1.175 0L18.842 17c.333-.317.333-.842 0-1.175zm-2.5 1.333L8.458 9.275c-.508.375-1.075.6-1.666.683-1.134.167-2.325-.175-3.192-1.041-.792-.784-1.158-1.834-1.1-2.867l2.575 2.575 3.533-3.533-2.575-2.575c1.034-.059 2.075.308 2.867 1.091.9.9 1.242 2.142 1.033 3.3-.1.592-.35 1.142-.733 1.634l7.875 7.875-.733.741z" transform="translate(2 2)"/>
        </g>
    </g>
</svg>
