<svg width="7" height="9" viewBox="0 0 7 9" fill="none" xmlns="http://www.w3.org/2000/svg">
<path d="M2.6041 9H4.39556V8.4758H2.6041V9ZM3.50102 0C3.50034 0 3.50034 0 3.49966 0H3.49898C1.50427 0 0 1.28902 0 2.9988C0 3.91893 0.413652 4.44313 0.893174 5.04982L0.893516 5.05045C1.2628 5.51825 1.68174 6.0487 2.01706 6.86007C2.01911 6.86554 2.02372 6.87742 2.02577 6.88273C2.05512 6.9682 2.20102 7.47193 2.24744 7.68348L3.49966 7.68098L4.75256 7.68348C4.7988 7.47193 4.94488 6.9682 4.97355 6.88273C4.9756 6.87757 4.98055 6.8657 4.98225 6.86007C5.31826 6.0487 5.73652 5.51825 6.10614 5.05045L6.10648 5.04982C6.58618 4.44313 7 3.91893 7 2.9988C7 1.28902 5.49539 0 3.50102 0Z" fill="#1E6C8D"/>
</svg>
