<svg xmlns="http://www.w3.org/2000/svg" xmlns:xlink="http://www.w3.org/1999/xlink" width="309" height="149" viewBox="0 0 309 149">
    <defs>
        <path id="0taqpfy4ia" d="M0 0H309V149H0z"/>
    </defs>
    <g fill="none" fill-rule="evenodd">
        <g>
            <g>
                <g>
                    <g transform="translate(-663 -128) translate(471 126) translate(-6 -1) translate(198 3)">
                        <mask id="wivnro30ib" fill="#fff">
                            <use xlink:href="#0taqpfy4ia"/>
                        </mask>
                        <g mask="url(#wivnro30ib)">
                            <g fill-rule="nonzero">
                                <g opacity=".367">
                                    <path fill="#361D87" d="M33.048 37.703S15.2 35.21 19.368 13.688c0 0 19.946 4.474 13.68 24.015z" transform="translate(18 18) translate(3.986 54.456)"/>
                                    <path fill="#000" d="M33.048 37.703S15.2 35.21 19.368 13.688c0 0 19.946 4.474 13.68 24.015z" opacity=".1" transform="translate(18 18) translate(3.986 54.456)"/>
                                    <path fill="#263238" d="M32.146 33.209c-.349-1.088-.754-2.157-1.215-3.202 0-.14 0-.278-.046-.41 0-.3-.053-.59-.073-.89-.053-.662-.093-1.285-.133-1.928-.073-1.286-.153-2.572-.173-3.858 0-.073-.113-.066-.113 0v3.865c0 .662.067 1.286.107 1.929v.43c-1.004-2.143-2.203-4.189-3.585-6.111-.582-.857-1.209-1.682-1.878-2.473-.71-.815-1.46-1.59-2.184-2.392-.046-.053-.12 0-.073.08 1.282 1.415 2.433 2.943 3.438 4.566.545.815 1.056 1.657 1.547 2.512l-.166-.06-.664-.258-1.46-.55c-.956-.358-1.912-.703-2.867-1.067-.06 0-.1.08-.04.1.949.377 1.885.775 2.827 1.18l1.381.596.697.285c.15.075.308.13.471.165.359.663.717 1.293 1.049 1.956.828 1.667 1.555 3.383 2.177 5.137.047.12.086.245.133.371-.472-.27-.962-.508-1.467-.71l-1.845-.834c-1.255-.577-2.496-1.16-3.697-1.836-.026-.015-.059-.006-.073.02-.015.025-.006.058.02.072 1.227.663 2.429 1.386 3.657 2.049.617.331 1.234.662 1.865.96.519.309 1.083.532 1.673.664.598 1.63.993 3.33 1.174 5.057.2 2.433.18 4.885.24 7.325.179-2.214.278-4.448.291-6.669-.006-2.064-.343-4.113-.995-6.071z" transform="translate(18 18) translate(3.986 54.456)"/>
                                    <path fill="#263238" d="M29.398 20.555c-.173 1.258-.233 2.53-.18 3.798 0 .033.054.033.054 0 .073-1.26.086-2.519.232-3.772.007-.066-.1-.092-.106-.026zM24.294 21.635c-.798-.305-1.567-.682-2.297-1.127-.06-.04-.113.06-.053.093.715.482 1.498.855 2.323 1.107.04.013.106-.053.027-.073zM33.62 71.866c0-1.989-.054-3.938-.074-5.906-.04-6.542-.093-13.085-.212-19.627-.093-5.197-.215-10.39-.365-15.577-.001-.027-.016-.052-.04-.066v-4.256c0-.04-.04-.053-.086-.053-.047 0-.087 0-.08.053v4.262s-.046.034-.046.06c-.26 9.28-.492 18.487-.551 27.734v5.64c-.067 6.023-.091 12.05-.073 18.083v2.877c0 5.514.06 11.03.06 16.57 0 .292.331.445.663.458.332.013.83-.146.83-.484 0-6.078.04-12.163.04-18.241-.02-3.858-.02-7.696-.067-11.527z" transform="translate(18 18) translate(3.986 54.456)"/>
                                    <path fill="#361D87" d="M26.165 65.88s-8.589-6.35-16.733-2.068S0 84.652 0 84.652s11.948 1.71 19.501-5.455c7.262-6.894 6.664-13.317 6.664-13.317z" transform="translate(18 18) translate(3.986 54.456)"/>
                                    <path fill="#263238" d="M28.502 66.271c-1.577-.627-3.285-.855-4.972-.662-.346-.062-.697-.097-1.049-.107l-1.214-.092-2.503-.173c-1.692-.126-3.391-.232-5.084-.404-.024.008-.04.031-.04.056 0 .026.016.048.04.057 1.673.212 3.319.45 5.011.616.863.086 1.726.18 2.596.239l.624.06c-.253.06-.511.119-.764.192-1.347.391-2.65.92-3.89 1.577-.663.12-1.327.312-1.99.464-1.063.252-2.118.524-3.173.802-2.085.544-4.149 1.16-6.22 1.763-.066 0-.033.12 0 .1 2.065-.504 4.149-.968 6.22-1.458l3.013-.723.79-.186c-2.304 1.431-4.363 3.222-6.1 5.303-1.671 2.055-3.093 4.3-4.235 6.688 0 .06.053.12.093.06 1.414-2.442 3.138-4.69 5.131-6.688-.04.113-.073.232-.113.345l-.478 1.51c-.318 1.015-.663 2.023-.942 3.037 0 .066.086.086.106 0 .365-.981.71-1.989 1.055-2.95.166-.484.339-.961.505-1.445.093-.252.179-.504.259-.756 0-.073.06-.152.086-.232.957-.927 1.972-1.793 3.04-2.591 1.418-1.036 2.947-1.91 4.56-2.605 0 .146-.053.298-.086.437-.087.391-.173.782-.253 1.173-.165.81-.325 1.624-.484 2.44-.325 1.657-.524 3.314-.836 4.998 0 .072.093.099.106 0 .385-1.67.883-3.315 1.254-4.985.186-.835.372-1.67.551-2.506l.24-1.18c.039-.218.092-.437.119-.662l.464-.193c2.25-.835 4.74-1.438 7.142-.974 2.309.427 4.25 1.98 5.171 4.136.08.186.372.067.325-.126-.464-2.028-2.184-3.56-4.075-4.355z" transform="translate(18 18) translate(3.986 54.456)"/>
                                    <path fill="#263238" d="M15.36 73.337c-.24 1.087-.485 2.174-.724 3.262-.271 1.04-.471 2.1-.598 3.168 0 .046.054.046.067 0 .316-1.045.56-2.11.73-3.188.212-1.074.425-2.148.63-3.222.014-.06-.092-.086-.106-.02zM7.056 76.101c-1.095.55-2.15 1.18-3.319 1.638-.018.007-.03.023-.033.042-.003.019.005.038.02.05.015.011.035.014.053.007 1.142-.505 2.257-1.072 3.338-1.697 0 0 0-.053-.06-.04z" transform="translate(18 18) translate(3.986 54.456)"/>
                                    <path fill="#361D87" d="M28.097 54.214s-10.494.663-15.38-6.237c-4.885-6.9-3.783-16.783-3.783-16.783s11.025 1.325 15.4 6.303c4.374 4.978 3.763 16.717 3.763 16.717z" transform="translate(18 18) translate(3.986 54.456)"/>
                                    <path fill="#263238" d="M33.002 64.555c-.365-1.12-.816-2.228-1.241-3.315-.425-1.087-.843-2.107-1.328-3.142-.934-2.111-1.982-4.171-3.14-6.17-.743-1.273-1.54-2.513-2.356-3.732 0-.186-.053-.372-.08-.557-.046-.325-.092-.663-.145-.975-.107-.662-.22-1.325-.332-1.988-.24-1.452-.538-2.89-.77-4.335 0-.066-.12-.066-.106 0 .205 1.432.351 2.87.55 4.302.1.702.193 1.405.3 2.108l.119.762c-1.6-2.34-3.334-4.586-5.19-6.728l-.724-.835c0-.08-.067-.16-.1-.239-.08-.199-.153-.398-.226-.603-.159-.411-.305-.829-.458-1.246-.292-.822-.557-1.65-.783-2.493 0-.066-.12-.033-.1 0 .213.862.432 1.717.664 2.566.126.41.26.815.405 1.22 0 .066.047.132.073.198-1.327-1.458-2.741-2.863-4.155-4.255-.046-.047-.12 0-.073.08 2.712 2.833 5.197 5.873 7.434 9.094-.254-.08-.514-.145-.776-.193-.81-.159-1.62-.271-2.436-.378-1.713-.218-3.419-.43-5.118-.702-.073 0-.1.093 0 .106 1.626.318 3.233.663 4.852 1.06.763.173 1.527.319 2.29.471.626.133 1.243.308 1.845.524.166.245.346.484.511.729.77 1.113 1.507 2.26 2.23 3.407l-1.068-.206c-.81-.159-1.626-.305-2.436-.437-1.6-.265-3.206-.544-4.786-.902-.066 0-.093.093 0 .107 1.607.377 3.193.815 4.786 1.239.77.206 1.547.391 2.323.563l1.162.252c.156.041.316.068.478.08 1.533 2.479 2.967 5.024 4.3 7.616.585 1.14 1.15 2.293 1.693 3.447.545 1.153 1.042 2.406 1.56 3.612.073.252.452.153.352-.112z" transform="translate(18 18) translate(3.986 54.456)"/>
                                    <path fill="#263238" d="M22.276 40.473c-.2-1-.412-1.988-.664-2.996 0-.066-.12-.033-.106 0 .199.981.391 1.989.57 2.95.147.988.344 1.968.591 2.936-.062-.97-.193-1.937-.391-2.89zM16.156 40.182c-.485-.246-1.002-.438-1.507-.663l-.796-.312-.405-.159c-.155-.05-.304-.116-.445-.199-.08-.053-.126.08-.046.093.155.043.305.105.444.186l.399.179.77.338c.502.235 1.019.441 1.546.616.06.047.1-.053.04-.08z" transform="translate(18 18) translate(3.986 54.456)"/>
                                    <path fill="#361D87" d="M38.836 45.975s6.353-11.845 16.01-13.681c9.658-1.836 15.579 8.093 15.579 8.093s-7.05 8.988-15.93 10.56c-8.882 1.57-15.659-4.972-15.659-4.972z" transform="translate(18 18) translate(3.986 54.456)"/>
                                    <path fill="#263238" d="M61.325 37.603c-2.518-.34-5.072-.31-7.58.093l.43-.232 2.145-1.1c1.473-.814 2.986-1.553 4.533-2.214.073-.033 0-.133-.04-.1-1.513.703-3.08 1.326-4.593 1.989-.763.345-1.506.71-2.243 1.1-.478.252-1.003.49-1.474.796-2.122.425-4.184 1.108-6.14 2.035l1.208-1.326c.897-.988 1.786-2.022 2.775-2.917.053-.046 0-.119-.08-.072-1.009.914-2.077 1.763-3.06 2.717-.47.464-.929.941-1.374 1.439-.219.245-.444.497-.663.762-6.719 3.592-11.473 10-12.957 17.466 0 .066.086.1.106.033 1.361-4.516 3.798-8.635 7.103-12.004 3.56-3.611 8.04-6.185 12.956-7.444 2.916-.742 5.932-1.015 8.934-.809.059.004.11-.04.113-.099.004-.059-.04-.11-.1-.113z" transform="translate(18 18) translate(3.986 54.456)"/>
                                    <path fill="#000" d="M70.425 40.387s-7.05 8.988-15.93 10.56c-6.764 1.192-12.326-2.327-14.603-4.064l-.491-.802s4.573-3.844 13.228-6.065c8.656-2.22 17.796.371 17.796.371z" opacity=".1" transform="translate(18 18) translate(3.986 54.456)"/>
                                    <path fill="#263238" d="M55.71 33.38c-.74.433-1.456.904-2.145 1.413-.671.511-1.295 1.081-1.865 1.703-.015.025-.011.056.01.076.021.02.053.021.076.004.664-.557 1.281-1.114 1.952-1.637.645-.53 1.324-1.02 2.03-1.465.027-.017.034-.05.017-.076-.016-.026-.05-.034-.076-.017zM61.013 35.383c-.359.152-.724.278-1.082.43l-1.076.445c-.073 0-.04.159.04.126l1.075-.438c.366-.146.717-.311 1.076-.457.066-.027.033-.133-.033-.106z" transform="translate(18 18) translate(3.986 54.456)"/>
                                    <path fill="#361D87" d="M37.569 60.882s1.699 11.753 10.547 15.862c8.848 4.11 19.634 0 19.634 0s-4.215-25.42-30.181-15.862z" transform="translate(18 18) translate(3.986 54.456)"/>
                                    <path fill="#263238" d="M61.65 69.115c-.81-.093-1.626-.232-2.43-.378l-1.194-.225-.618-.126c-.239-.219-.47-.444-.716-.663-1.68-1.47-3.494-2.781-5.417-3.917-1.045-.62-2.127-1.175-3.239-1.664h.166l2.914.126c1.938.093 3.883.132 5.821.258.073 0 .066-.1 0-.106-1.951-.132-3.89-.344-5.834-.51l-2.828-.252-1.46-.126-.372-.04c-.504-.192-1.009-.37-1.527-.53-2.411-.827-5.005-.969-7.493-.411-2.224.57-4.448 2.028-5.025 4.368 0 .08.106.14.14.06.83-1.989 3.006-2.95 4.97-3.354 1.315-.25 2.66-.276 3.983-.08.09.606.239 1.2.445 1.777.246.828.485 1.657.737 2.479.504 1.65 1.055 3.314 1.547 4.938 0 .03.023.053.053.053.029 0 .053-.024.053-.053-.412-1.65-.764-3.314-1.162-4.971-.192-.81-.398-1.618-.597-2.426-.116-.565-.264-1.123-.445-1.67.775.134 1.542.313 2.297.536 1.357.406 2.687.897 3.982 1.472.126.835.319 1.663.511 2.492.24 1.034.511 2.061.837 3.076.007.02.027.034.05.034.022 0 .041-.014.05-.034l-.04-.193c-.2-.96-.412-1.922-.618-2.883-.16-.776-.312-1.551-.478-2.32 1.102.489 2.179 1.033 3.226 1.63 0 .24.08.484.113.703.066.398.14.802.212 1.207.166.901.345 1.81.564 2.704.4 1.733.909 3.44 1.52 5.11-.015.02-.015.047 0 .067l.054.06c.04.046.1 0 .086-.054-.405-1.743-.876-3.473-1.261-5.216-.186-.875-.379-1.75-.558-2.652-.086-.437-.166-.874-.252-1.325l-.06-.391c1.192.697 2.342 1.463 3.445 2.293 1.91 1.428 3.677 3.038 5.277 4.806.06.073.186 0 .126-.106-.657-.89-1.36-1.747-2.104-2.565-.445-.478-.91-.942-1.38-1.392h.145c.419.072.83.132 1.248.185.817.113 1.64.192 2.463.285.12.013.146-.086.073-.086z" transform="translate(18 18) translate(3.986 54.456)"/>
                                    <path fill="#263238" d="M55.437 73.092c0-.1 0-.205-.053-.305s-.086-.252-.106-.384c-.18-.79-.332-1.578-.478-2.373 0-.053-.093-.04-.093 0 .054 1.052.278 2.088.664 3.069 0 .033.073 0 .066 0v-.007zM48.03 72.9s0-.053-.054-.053c-.252-1.04-.49-2.082-.703-3.129-.113-.55-.226-1.1-.332-1.65-.06-.299-.113-.597-.166-.895-.023-.263-.088-.52-.193-.762-.007-.021-.027-.035-.05-.035-.021 0-.041.014-.05.035-.006.534.07 1.066.227 1.577.106.57.219 1.147.345 1.717.259 1.16.544 2.313.876 3.453.008.024.03.04.056.04.026 0 .048-.016.057-.04l-.014-.258zM60.88 65.715c-1.62-.22-3.233-.451-4.852-.663-.067 0-.093.1 0 .106 1.613.238 3.232.437 4.852.663 0 .013.033-.093 0-.106z" transform="translate(18 18) translate(3.986 54.456)"/>
                                    <path fill="#361D87" d="M33.035 33.321S27.62 9.605 53.14 0c0 0 7.076 31.227-20.105 33.321z" transform="translate(18 18) translate(3.986 54.456)"/>
                                    <path fill="#263238" d="M38.544 19.872l.273-.166 1.447-.808 2.96-1.65c1.945-1.094 3.87-2.221 5.828-3.315.066 0 0-.126-.053-.093-1.992 1.067-3.983 2.068-5.941 3.109l-2.927 1.544-1.195.663c.85-1.61 1.759-3.188 2.761-4.713 1.328-2.035 2.795-3.977 4.315-5.86.033-.034.031-.089-.004-.122-.034-.033-.09-.031-.122.004-2.242 2.171-4.222 4.596-5.901 7.225v-.252c0-.59.046-1.18.053-1.77 0-1.16-.04-2.32 0-3.473 0-.073-.106-.067-.113 0-.046 1.14-.186 2.28-.252 3.42 0 .563-.053 1.133-.073 1.703v.995c-.522.835-1.025 1.681-1.507 2.538-.855 1.547-1.618 3.143-2.283 4.78 0-.59-.06-1.18-.093-1.77-.08-1.326-.233-2.592-.292-3.891 0-.03-.024-.053-.053-.053-.03 0-.053.023-.053.053v3.897c0 .663.04 1.326.08 1.95 0 .238 0 .483.046.722-.812 2.12-1.455 4.3-1.925 6.522-.443 2.37-.76 4.762-.95 7.165.258-2.162.702-4.297 1.328-6.383.312-1.12.664-2.234 1.009-3.314 1.062-.497 2.078-1.12 3.1-1.69l3.206-1.75c2.13-1.167 4.254-2.353 6.451-3.38.06 0 0-.127-.06-.094-2.223 1.001-4.466 1.989-6.637 3.056-1.088.55-2.157 1.134-3.22 1.73-.882.497-1.798.994-2.654 1.571.245-.742.504-1.478.79-2.2.783-2.012 1.671-3.981 2.661-5.9z" transform="translate(18 18) translate(3.986 54.456)"/>
                                    <path fill="#263238" d="M36.394 14.443c-.009-.024-.031-.04-.057-.04-.025 0-.048.016-.056.04.093 1.326.14 2.705.285 4.057 0 .033.027.06.06.06s.06-.027.06-.06c-.047-1.352-.193-2.698-.292-4.057zM48.627 18.977c-1.593.663-3.206 1.253-4.8 1.916-.039 0 0 .093 0 .073 1.614-.603 3.2-1.26 4.807-1.883.092-.026.06-.132-.007-.106zM51.056 8.034c-1.562.716-3.079 1.528-4.54 2.432-.022.024-.025.06-.008.087.017.028.05.041.081.033 1.48-.869 2.987-1.697 4.52-2.46.067.007.007-.119-.053-.092z" transform="translate(18 18) translate(3.986 54.456)"/>
                                </g>
                                <g transform="translate(18 18) translate(51.822)">
                                    <path fill="#455A64" d="M153.752 90.518L153.725 92.42 152.649 176.43 152.643 176.75 152.008 227.072 121.227 226.458 127.168 90.618 127.248 88.802 127.549 73.043 153.545 73.043z"/>
                                    <path fill="#263238" d="M136.303 99.355c0-.03-.024-.053-.053-.053-.03 0-.054.024-.054.053 0 8.043-.327 12.549-.52 20.585-.195 8.037-.429 16.073-.67 24.103-.434 16.067-1.082 32.12-1.676 48.18-.335 9.006-.751 18.008-1.25 27.006 0 .026.02.047.047.047.025 0 .046-.021.046-.047 1.17-16.02 2.286-32.093 2.927-48.16.642-16.066 1.096-32.125 1.17-48.192.067-9.017.013-14.504.033-23.522zM153.745 90.518L152.649 176.43 132.02 73.043 153.538 73.043z"/>
                                    <path fill="#455A64" d="M130.195 73.016c.114.534 1.932 8.958 3.816 16.193 1.37 5.287 2.78 9.933 3.589 10.413.915.54 5.38 2.517 6.876 3.137l6.837 65.3 9.242 60.461 30.22-4.672-21.506-132.322-3.501-18.51h-35.573z"/>
                                    <path fill="#263238" d="M178.21 204.397c-.754-4.191-1.503-8.383-2.278-12.575-1.546-8.384-3.105-16.765-4.678-25.144-3.154-16.772-6.273-33.557-9.356-50.355-1.724-9.479-1.684-8.59-3.187-18.116 0-.06-.12-.053-.107 0 1.443 8.464.762 6.608 2.125 15.085s2.793 16.774 4.297 25.138c3.02 16.814 6.188 33.601 9.39 50.382.89 4.708 1.801 9.409 2.732 14.104.936 4.792 2.005 9.558 2.994 14.337 0 .107.194.1.174 0-.695-4.278-1.323-8.577-2.105-12.856zM169.904 98.835c-.802-.207-1.664-.274-2.479-.401-.668-.107-1.337-.227-2.005-.367-1.257-.225-2.45-.726-3.488-1.469-1.136-.88-1.718-2.222-2.266-3.51-.33-.761-.664-1.522-1.002-2.283l-.501-1.102c-.234-.432-.441-.878-.622-1.335 0-.066-.127 0-.1 0 .114.312.207.631.28.955.114.367.214.734.328 1.101.207.668.408 1.335.622 2.003.325 1.204.794 2.365 1.396 3.457 1.216 1.923 3.382 2.704 5.547 2.977.621.074 1.25.12 1.878.154.787.07 1.578.07 2.365 0 .038-.01.067-.04.077-.077.01-.037-.002-.077-.03-.103zM135.227 98.467c3.188 1.157 6.267 2.59 9.203 4.286.051.024.074.085.05.137-.024.051-.086.074-.137.05-3.101-1.335-6.262-2.604-9.283-4.099-.086-.055-.12-.165-.077-.259.041-.093.146-.142.244-.115zM134.292 77.281c0-.106.2-.133.2 0-.002 3.456.172 6.909.522 10.346.14 1.596 1.423 10.407 4.196 9.766.461-.107.669-.568.769-1.262-.01-.913-.134-1.82-.368-2.703-.307-1.85-.554-3.698-.708-5.56-.327-3.47-.288-6.965.114-10.426 0-.048.038-.087.086-.087.048 0 .087.039.087.087-.077 4.813.204 9.626.842 14.397.348 2.29 1.504 5.74-.895 6.094-2.4.354-4.01-5.42-4.324-7.002-.765-4.508-.94-9.096-.521-13.65z"/>
                                    <path fill="#263238" d="M139.137 97.593c.244.597.451 1.207.621 1.829.179.48.267.99.26 1.502-.007.042-.04.076-.082.085-.043.009-.087-.01-.11-.045-.3-.45-.525-.943-.67-1.462-.213-.56-.434-1.128-.627-1.695-.039-.109-.016-.23.06-.317.074-.087.19-.128.303-.107.113.022.207.101.245.21zM169.583 93.468c-3.662-.24-42.335-4.672-42.335-4.672l.3-15.76h38.246l3.502 18.51.287 1.922z"/>
                                    <path fill="#F7A9A0" d="M142.498 36.845c-4.424 13.83-11.915 28.108-14.08 30.918-5.808 7.556-23.256 14.998-28.582 15.96-2.306.413-7.833-14.438-6.403-16.48 1.43-2.043 23.116-10.32 24.179-11.421.735-.768 9.883-12.542 16.038-19.644 7.692-8.831 10.011-2.95 8.848.667z"/>
                                    <path fill="#EBEBEB" d="M98.065 64.359l8.567 17.355s18.21-7.884 22.548-13.51c4.337-5.627 12.196-24.697 13.365-30.772 1.17-6.074-.849-10.412-8.995-1.535-8.146 8.878-14.896 17.722-16.353 19.204-1.457 1.482-19.132 9.258-19.132 9.258z"/>
                                    <path fill="#37474F" d="M98.786 63.478l10.265 17.982s16.039-7.656 20.129-12.682c4.09-5.027 10.832-20.459 12.944-28.79 2.112-8.33.875-14.237-8.567-4.044-9.443 10.192-14.783 17.595-16.707 19.257-.916.72-18.064 8.277-18.064 8.277z"/>
                                    <circle cx="103.11" cy="64.199" r="1" fill="#263238"/>
                                    <circle cx="107.554" cy="62.156" r="1" fill="#263238"/>
                                    <path fill="#263238" d="M142.124 39.962c-2.112 8.33-8.848 23.736-12.944 28.789-1.751 2.156-5.667 4.786-9.59 7.095l20.67-45.215c3.2-.868 3.3 3.671 1.864 9.331z"/>
                                    <path fill="#EBEBEB" d="M171.602 86.853c-.107.12-46.339.26-46.78-.213-.594-.668 9.85-50.73 14.596-56.877 1.009-1.335 4.357-1.689 7.204-1.335.742.084 1.476.233 2.191.447h.08c.578.17 1.123.437 1.611.788 7.913 6.314 14.582 28.388 16.14 35.016 2.605 10.94 5.339 21.74 4.958 22.174z"/>
                                    <path fill="#37474F" d="M150.37 29.076s-3.762 20.491-4.417 25.818c-.655 5.326.308 33.461.308 33.461l29.03 2.143s-6.276-18.623-6.35-19.805c0 0-5.212-22.307-10.097-31.625-2.133-3.859-5.014-7.255-8.473-9.992z"/>
                                    <path fill="#263238" d="M175.29 90.498l-13.164-.975-9.396-58.385v.04l5.894 7.543c.067.12.133.24.194.36 4.885 9.345 10.097 31.626 10.097 31.626.1 1.168 6.376 19.79 6.376 19.79z"/>
                                    <path fill="#37474F" d="M139.137 29.523s-3.08 20.752-3.415 22.467c-.334 1.716-4.999 35.557-4.999 35.557l-7.264.227 3.79-15.472s8.426-38.36 11.888-42.78z"/>
                                    <path fill="#263238" d="M143.38 40.91L141.322 36.905 138.662 39.802 139.317 42.686 141.937 43.026z"/>
                                    <path fill="#263238" d="M141.937 43.026L143.193 72.489 137.667 82.234 134.793 71.267 139.317 42.686z"/>
                                    <path fill="#361D87" d="M152.048 113.198L186.651 113.198 186.651 170.376 152.048 170.376z" transform="rotate(-89.94 169.35 141.787)"/>
                                    <path fill="#000" d="M161.209 104.047L177.503 104.047 177.503 161.225 161.209 161.225z" opacity=".1" transform="rotate(-89.94 169.356 132.636)"/>
                                    <path fill="#361D87" d="M139.422 119.393L199.307 119.393 199.307 135.54 139.422 135.54z" transform="rotate(-179.94 169.365 127.467)"/>
                                    <path fill="#263238" d="M156.773 110.175L156.759 119.38 161.096 119.386 161.103 114.147 177.643 114.167 177.636 119.406 181.973 119.406 181.98 110.195z"/>
                                    <path fill="#F7A9A0" d="M156.76 35.23c12.897 11.687 21.083 28.381 21.638 31.752 1.337 8.15 3.027 22.434 2.74 28.702-.107 2.323-17.73-.494-17.696-2.977.114-7.77-.922-24.857-.969-25.158-.314-2.089-4.15-11.48-8.02-21.666-3.869-10.186-3.12-15.56 2.306-10.653z"/>
                                    <path fill="#F7A9A0" d="M161.584 117.057c1.053.478 2.292.252 3.108-.567.503.815 1.276 1.43 2.185 1.735 1.624.467 3.067-1.876 3.067-1.876.7.738 1.606 1.25 2.6 1.469 1.597.287 3.395-1.87 3.395-1.87 1.016.32 2.113.269 3.094-.146 1.664-.78 3.074-5.547 3.421-8.29.348-2.744-1.25-10.853-1.396-12.429l-17.616-2.363s-5.052 11.868-4.999 15.152c.047 2.784 1.203 8.224 3.141 9.185z"/>
                                    <path fill="#263238" d="M164.424 116.33c-.755-2.93-.601-5.928-.614-8.918 0-.03.024-.054.053-.054.03 0 .054.024.054.054 0 2.977.547 5.92.668 8.897.005.045-.026.085-.07.09-.045.006-.085-.025-.09-.07zM169.724 116.263c-.108-.683-.126-1.376-.054-2.063 0-.728.08-1.462.14-2.19.117-1.459.266-2.914.448-4.365 0-.066.107-.066.1 0-.106 1.455-.193 2.91-.247 4.366 0 .734-.04 1.461-.053 2.19.03.69-.016 1.38-.134 2.062-.015.041-.055.07-.1.07-.045 0-.085-.029-.1-.07zM175.939 115.889c-.086-.62-.068-1.249.053-1.862.067-.668.127-1.335.187-2.003.12-1.335.234-2.67.301-4.005 0-.067.107-.067.107 0-.067 1.335-.114 2.71-.187 4.065l-.12 2.003c.014.61-.079 1.217-.274 1.795-.007.012-.019.02-.032.022-.013 0-.027-.005-.035-.015z"/>
                                    <path fill="#37474F" d="M162.58 92.8l19.534 1.055s-1.444-21.36-2.994-27.293c-1.55-5.934-14.782-25.712-22.595-32.88-7.35-6.75-7.35-1.136-4.564 6.774 2.787 7.91 9.683 27.027 9.917 28.422.234 1.395.702 23.922.702 23.922z"/>
                                    <path fill="#263238" d="M163.455 88.862c.749-.066 1.504 0 2.252 0 .749 0 1.497.034 2.246.067 1.443.06 2.887.147 4.33.24l4.324.287c1.49.1 3.014.127 4.49.347.022.008.036.028.036.05 0 .023-.014.043-.035.05-1.49.06-3.007-.073-4.498-.126l-4.41-.18c-1.47-.067-2.94-.14-4.41-.234-.723-.04-1.444-.094-2.16-.174-.714-.08-1.463-.086-2.171-.227-.067-.013-.047-.093.006-.1z"/>
                                    <path fill="#F7A9A0" d="M142.017 36.371c.762-.033 5.82-4.005 7.351-7.062.107-.213-.287-2.39-.635-5.053-.207-1.615-.4-3.424-.454-5.086 0-.34-1.15.327-1.15.327l-2.138.588-7.057 1.962c.665 2.058 1.073 4.19 1.216 6.348.008.223-.008.447-.047.667.003.038.003.076 0 .114-.153 1.315 1.684 7.242 2.914 7.195z"/>
                                    <path fill="#263238" d="M139.13 29.076c.003.037.003.075 0 .113.358.034.718.034 1.076 0 7.017-.387 7.598-9.345 7.598-9.345l-2.773.214-7.057 1.962c.665 2.058 1.073 4.19 1.216 6.348.006.237-.014.475-.06.708z"/>
                                    <path fill="#F7A9A0" d="M148.018 5.086c1.684 3.478 1.404 14.331-.835 17.088-3.235 4.005-9.356 5.28-12.965 1.201-3.495-3.945-2.873-18.082-.3-20.692 3.789-3.791 11.614-2.737 14.1 2.403z"/>
                                    <path fill="#263238" d="M138.702 13.002s.054 0 .054.067c-.04.728.04 1.575.668 1.83v.04c-.782-.128-.875-1.249-.722-1.937z"/>
                                    <path fill="#263238" d="M139.37 12.255c1.177-.067 1.224 2.296.128 2.356-1.096.06-1.116-2.303-.127-2.356zM134.466 13.203s-.054.033-.054.066c.034.728-.047 1.576-.708 1.83.815-.094.915-1.229.762-1.896z"/>
                                    <path fill="#263238" d="M133.797 12.442c-1.176-.067-1.23 2.296-.133 2.356 1.096.06 1.109-2.263.133-2.356zM140.286 11.16c-.327-.08-.615-.2-.922-.307-.341-.06-.652-.234-.882-.494-.118-.193-.088-.442.073-.6.356-.273.832-.332 1.243-.154.438.115.816.389 1.063.768.105.182.092.41-.032.58-.124.17-.337.25-.543.207zM132.862 11.274c.316-.07.628-.157.935-.26.342-.048.658-.205.902-.448.128-.187.112-.438-.04-.607-.342-.292-.816-.374-1.236-.214-.442.093-.832.348-1.096.714-.113.178-.111.404.004.58.115.176.323.268.53.235zM139.498 19.777c-.174.174-.348.414-.608.441-.272-.004-.54-.063-.789-.174.219.289.578.435.936.38.305-.087.527-.35.56-.667-.02.007-.073-.006-.1.02z"/>
                                    <path fill="#263238" d="M138.69 17.601c-.366.592-.962 1.003-1.645 1.135-.294.064-.596.084-.895.06-.058.007-.116.007-.174 0h-.16c-.08-.014-.14-.08-.148-.16-.003-.024-.003-.049 0-.073v-.067-1.415c-.207.107-1.25.594-1.236.3.022-2.538.302-5.067.836-7.55 0-.036.03-.066.066-.066.037 0 .067.03.067.067 0 2.35-.428 4.672-.468 7.035.37-.18.764-.309 1.17-.38.08 0-.107 1.655-.074 1.909.933.077 1.858-.23 2.56-.848.087-.053.14-.007.1.053z"/>
                                    <path fill="#263238" d="M136.477 18.503c.314.397.726.705 1.196.894.26.097.542.11.809.04.588-.167.588-.667.474-1.161-.065-.233-.157-.457-.274-.668-.62.525-1.393.838-2.205.895z"/>
                                    <path fill="#FF9ABB" d="M137.673 19.397c.26.097.542.11.809.04.588-.167.588-.667.474-1.161-.634.037-1.162.498-1.283 1.121z"/>
                                    <path fill="#263238" d="M132.42 6.314c.382-.934.83-1.875 1.384-2.076.555-.2.949 1.162 2.225 1.222 1.718.087 2.52-1.502 4.919-1.716 3.441-.307 5.012 2.544 5.192 7.43.154 4.358 2.807 4.719 2.807 4.719s1.417-9.652-1.336-12.79c-2.754-3.137-9.036-4.425-13.165-1.334-1.53 1.168-2.025 4.545-2.025 4.545z"/>
                                    <path fill="#F7A9A0" d="M146.708 14.217s1.932-3.744 3.602-3.104c1.671.641.542 5.848-1.196 6.775-.433.27-.958.352-1.452.225-.495-.126-.917-.448-1.167-.892l.213-3.004z"/>
                                    <path fill="#263238" d="M149.95 12.602s.04.033 0 .047c-1.21.667-1.725 1.962-2.005 3.257.114-.281.346-.497.635-.591.288-.094.604-.056.862.104.033 0 0 .073 0 .073-.481-.085-.964.142-1.203.568-.196.346-.353.713-.468 1.094-.04.127-.26.094-.234-.046-.28-1.656.682-4.106 2.413-4.506z"/>
                                    <path fill="#EBEBEB" d="M139.097 29.33l2.52 6.18 7.644-7.81 2.179 2.497s-7.472 12.375-7.518 11.834l-2.553-5.3-3.656 3.698.274-9.27 1.11-1.83z"/>
                                    <path fill="#263238" d="M137.586 35.844c.1-1.529.154-3.077.321-4.6 0-.053.094-.073.107 0 .308 1.476-.093 7.343-.087 8.725.154-.16 3.388-3.25 3.422-3.204.554.841 2.426 4.672 2.553 5.053 1.182-1.97 5.707-9.125 7.11-10.987.018-.015.043-.017.063-.005.02.012.03.036.024.058-1.022 2.043-7.01 11.688-7.104 11.688-.985-1.822-1.878-3.694-2.673-5.607-.548.668-3.816 4.172-3.83 3.945-.056-1.69-.025-3.38.094-5.066z"/>
                                    <path fill="#F7A9A0" d="M52.776 35.697c8.406 16.574 16.947 56.443 17.742 61.776.542 3.624-18.538 6.902-18.538 4.392 0-3.217-3.849-40.85-3.481-55.722.2-8.203 2.539-13.87 4.277-10.446z"/>
                                    <path fill="#F7A9A0" d="M51.907 100.276c-.308 2.183.42 9.746 1.85 15.352.67 2.737 3.53 10.38 5.675 10.013 2.145-.367 1.51-2.67 1.51-2.67s1.684 3.044 3.802 2.476c2.119-.567 1.03-4.132 1.03-4.132s1.95 3.01 4.01 2.29c2.057-.721.367-4.118.367-4.118s1.664 2.836 3.12 1.521c1.758-1.582-1.89-6.454-2.506-9.518-.14-.667-1.844-14.297-1.844-14.297l-17.014 3.083z"/>
                                    <path fill="#263238" d="M70.177 119.44c-2.673-3.591-3.22-5.627-3.555-10.012-.01-.031-.038-.052-.07-.052-.032 0-.06.02-.07.052-.06 4.332.26 6.981 3.528 10.165.16.14.294.014.167-.153zM65.827 121.509c-2.453-3.972-3.067-6.174-3.762-10.746 0-.067-.12-.06-.114 0 .3 4.545.668 7.182 3.655 10.833.134.173.335.093.22-.087zM60.748 122.67c-2.092-4.004-2.867-6.4-2.967-10.926-.01-.038-.045-.063-.084-.063-.038 0-.073.025-.083.063-.348 4.625.601 7.609 3.007 10.987.167.193.26.166.127-.06z"/>
                                    <path fill="#F7A9A0" d="M70.398 96.525s3.074 4.672 3.97 7.055c.895 2.383.995 12.376-1.17 12.522-2.793.187-4.01-5.586-4.21-8.49 0 0-6.469.434-8.22-3.524-1.75-3.959 9.63-7.563 9.63-7.563z"/>
                                    <path fill="#263238" d="M72.416 115.895c-2.673-1.662-2.713-5.493-3.134-8.296-.009-.085-.059-.16-.133-.201-.075-.042-.165-.044-.241-.006-2.72 0-6.563-.788-8.207-3.137-.01-.025-.032-.042-.059-.043-.027-.002-.051.013-.063.037-.012.023-.008.052.009.072 1.416 2.764 5.132 3.845 8.113 3.651.387 2.877.594 6.722 3.695 7.95.02.007.034-.013.02-.027z"/>
                                    <path fill="#361D87" d="M72.35 95.404L50.676 98.74s-3.455-40.19-3.582-53.68c-.127-13.49 4.725-16.793 9.93-2.996C62.233 55.862 72.35 95.404 72.35 95.404z"/>
                                    <path fill="#263238" d="M50.57 95.357c8.868-2.003 18.485-2.743 20.155-2.99.08 0 .087.113 0 .12-1.644.16-12.55 2.21-20.155 3.003-.06.007-.067-.12 0-.133z"/>
                                    <path fill="#37474F" d="M37.325 81.487s7.899 83.716 8.073 84.73c0 .134.087 1.682.16 4.199.441 13.81 1.524 56.876 1.524 56.876h33.133s-2.159-51.01-3.402-62.904c-1.583-15.185-11.32-82.901-11.32-82.901H37.325z"/>
                                    <path fill="#263238" d="M49.347 169.047c-1.02-17.38-2.555-34.736-4.604-52.064-1.163-9.745-2.566-19.457-3.956-29.175 0-.087-.147-.08-.134 0 2.566 17.294 4.377 34.709 5.94 52.137 1.565 17.428 2.674 34.816 3.342 52.264.408 9.879.715 19.771 1.03 29.657.016.088.093.151.183.151s.167-.063.184-.151c-.441-17.595-.949-35.217-1.985-52.819z"/>
                                    <path fill="#263238" d="M61.263 81.487l-15.137 109.04c-.214-8.13-.428-15.646-.568-20.111-.073-2.517-.134-4.065-.16-4.199-.187-1.014-8.073-84.73-8.073-84.73h23.938z"/>
                                    <path fill="#37474F" d="M.63 216.993l32.324 10.012s15.785-55.301 16.995-68.29c1.196-12.876 2.352-39.182 2.867-58.265 0 0 5.4-3.19 6.77-4.933 1.37-1.742 2.599-8.01 5.299-14.017H25.336c-9.45 18.336-2.339 26.492-2.339 30.49 0 19.304-2.92 44.93-3.85 48.727C17.21 168.634.63 216.993.63 216.993z"/>
                                    <path fill="#263238" d="M60.507 95.083c-1.887.867-3.679 1.927-5.346 3.164-1.77 1.215-3.401 2.61-5.105 3.912-.067.053 0 .16.066.113 1.798-1.148 3.683-2.156 5.46-3.337 1.785-1.082 3.467-2.324 5.026-3.712.046-.053-.014-.173-.1-.14z"/>
                                    <path fill="#263238" d="M60.755 83.956c-.227 1.228-.528 2.45-.796 3.671-.267 1.222-.434 2.317-.735 3.451-.248 1.098-.807 2.101-1.61 2.89-.448.421-.95.788-1.43 1.175-.254.207-.535.4-.802.614.033-.166.06-.327.087-.5.087-.46.167-.928.24-1.395.174-1.035.341-2.076.501-3.11.315-2.043.602-4.106 1.03-6.128.009-.037-.014-.074-.05-.084-.037-.009-.075.014-.084.05-.508 2.003-1.07 4.005-1.51 6.008-.22.988-.996 5.874-1.03 6.22-.033.348-.066.715-.08 1.075-.043.366-.043.736 0 1.102 0 .086.134.073.167 0 .15-.34.256-.696.314-1.062.087-.347.168-.7.228-1.054 0-.127.04-.26.06-.394.481-.294.929-.668 1.383-1.001.455-.334.976-.668 1.437-1.082.85-.716 1.462-1.672 1.757-2.743.297-1.153.492-2.33.582-3.518.154-1.388.267-2.783.461-4.165.02-.02-.107-.086-.12-.02zM59.926 30.73c-.635 7.844-1.423 15.907-3.254 23.57-1.43 5.967-4.678 10.606-11.16 11.227-6.015.574-14.335-.668-18.746-5.213-2.058-2.116-2.506-4.773-1.965-7.603.756-3.931 6.884-25.21 8.748-31.859 1.136-4.045 2.259-8.15 4.103-11.955 3.863-8.01 8.02-7.342 8.594-7.442.542-.254 3.91-1.228 8.24.828 2.305 1.074 4.04 3.08 4.772 5.513 2.299 7.156 1.283 15.593.668 22.935z"/>
                                    <path fill="#263238" d="M44.816 2.436c-5.3 1.642-7.237 6.915-9.108 11.614-2.607 6.548-5.106 13.143-7.284 19.851-1.043 3.224-2.005 6.475-2.894 9.746-.835 3.137-1.925 6.454-2.152 9.705-.374 5.34 4.17 8.464 8.795 9.872.096.031.199-.02.23-.117.031-.096-.02-.199-.117-.23-2.62-.901-5.26-2.002-6.99-4.292-2.225-2.91-1.464-6.208-.708-9.492 1.296-5.593 2.907-11.1 4.678-16.547 1.77-5.446 3.815-10.84 5.9-16.186 2.005-5.093 3.856-11.901 9.637-13.837.087 0 .067-.107.013-.087zM60.735 13.797C60.347 9.598 58.77 5.34 54.647 3.57c5.306 2.523 5.827 8.764 5.867 13.917.045 5.433-.109 10.858-.461 16.273-.334 5.213-.789 10.453-1.597 15.613-.876 5.567-2.606 10.68-6.536 14.811-.024.022-.034.054-.028.086.007.031.03.057.06.066.031.01.065.003.088-.018 3.763-3.278 5.547-8.257 6.463-13.023 1.104-6.327 1.79-12.72 2.051-19.137.348-6.04.742-12.281.18-18.362z"/>
                                    <path fill="#F7A9A0" d="M44.502 31.799c.254.667 4.15 4.739 7.305 4.185 1.022-.187.267-5.827.267-5.827l.04-.427.548-6.008-7.438-3.51-1.063-.455s-.046 1.656-.073 3.712v.293c-.007.114-.007.227 0 .34V26.5c.018 1.774.156 3.545.414 5.3z"/>
                                    <path fill="#263238" d="M44.088 23.469c1.623 3.161 4.555 5.45 8.02 6.26l.547-6.007-7.431-3.51-1.063-.455s-.046 1.656-.073 3.712z"/>
                                    <path fill="#F7A9A0" d="M60.307 14.878c.842 10.546-5.386 12.242-7.665 12.422-2.072.16-9.135.454-11.06-9.959-1.925-10.413 2.72-14.15 7.431-14.751 4.711-.601 10.459 1.735 11.294 12.288z"/>
                                    <path fill="#263238" d="M58.53 12.635c-.242-.035-.48-.084-.716-.146-.26-.016-.51-.117-.708-.288-.104-.136-.104-.324 0-.46.243-.234.592-.32.915-.227.341.043.652.215.87.48.096.128.108.3.03.44-.079.139-.233.218-.392.201zM51.5 12.782c.246-.033.467-.1.714-.153.249-.028.483-.133.668-.3.106-.136.106-.326 0-.461-.246-.233-.598-.315-.922-.214-.336.054-.64.23-.855.494-.1.132-.107.312-.02.452s.252.213.414.182zM53.15 15.445s-.054 0-.054.06c.047.721 0 1.556-.668 1.816v.04c.815-.153.882-1.241.722-1.916z"/>
                                    <path fill="#263238" d="M52.481 14.711c-1.162-.046-1.176 2.276-.1 2.323 1.076.047 1.076-2.283.1-2.323z"/>
                                    <path fill="#263238" d="M52.027 14.831c-.207.134-.408.36-.668.388-.26.026-.495-.22-.669-.454h-.04c0 .44.154.9.669.968.514.066.755-.328.868-.775-.006-.053-.08-.18-.16-.127zM57.16 15.285s.053 0 .053.06c-.034.721.047 1.556.702 1.803v.04c-.802-.12-.903-1.229-.756-1.903z"/>
                                    <path fill="#263238" d="M57.814 14.538c1.156-.067 1.217 2.256.14 2.323-1.075.066-1.115-2.263-.14-2.323z"/>
                                    <path fill="#263238" d="M58.302 14.685c.187.113.374.333.595.347.22.013.434-.247.595-.494h.033c0 .44-.114.907-.535 1-.42.094-.668-.286-.801-.72-.02-.06.04-.187.113-.133zM53.096 21.146c.167.18.328.42.588.454.268.006.534-.042.782-.14-.226.275-.585.406-.935.34-.3-.09-.512-.356-.535-.668.027 0 .08-.013.1.014zM56.104 18.543s.153 1.074.153 1.582c0 .053-.12.073-.294.086-.889.168-1.797-.174-2.352-.887-.02-.023-.019-.057.003-.077.022-.02.057-.019.077.003.648.44 1.422.659 2.205.62.034-.14-.327-1.835-.247-1.841.395.031.784.117 1.156.253-.254-2.25-.869-4.438-1.096-6.675 0-.036.03-.066.067-.066.037 0 .067.03.067.066.733 2.328 1.232 4.723 1.49 7.15.02.226-1.029-.148-1.23-.214z"/>
                                    <path fill="#263238" d="M56.919 15.986c-.16-1.722.635-3.204 1.77-3.337 1.137-.134 2.2 1.201 2.36 2.923.16 1.722-.669 3.204-1.771 3.338-1.103.133-2.199-1.202-2.36-2.924zm.42-.04c.141 1.489.99 2.63 1.899 2.55.909-.08 1.537-1.368 1.396-2.857-.14-1.488-.995-2.63-1.904-2.55-.909.08-1.53 1.369-1.39 2.857zM49.067 16.727c-.04-1.59 1.198-2.922 2.79-3 1.59-.077 2.953 1.128 3.068 2.715.116 1.587-1.058 2.976-2.644 3.129-1.672.095-3.107-1.175-3.214-2.844zm.42-.04c.238 1.338 1.498 2.244 2.843 2.045 1.346-.2 2.288-1.432 2.127-2.781-.162-1.35-1.37-2.325-2.724-2.2-1.431.193-2.435 1.506-2.245 2.936z"/>
                                    <path fill="#263238" d="M54.734 15.906c1.51-.667 2.265-.247 2.272-.24l.227-.354c-.034 0-.929-.587-2.673.214l.174.38zM49.234 16.433l.04-.42c-.28 0-6.763-.6-7.458-.574-.695.027-2.346 1.141-2.526 1.268l.24.347c.687-.518 1.455-.92 2.272-1.188h.08c.508.007 5.046.36 7.352.567z"/>
                                    <path fill="#263238" d="M41.883 16.587c1.142-.067 4.123-3.224 4.216-8.75 0 0-.427 4.959-.795 5.686-.367.728 1.664-1.775 1.798-6.228 1.408 1.004 2.951 1.801 4.584 2.37 2.105.587 3.395.567 3.549.414.153-.154-2.954-1.128-3.796-2.09 0 0 5.613 2.597 8.193 2.797.3 0 .668-6.12-3.341-8.724-4.01-2.603-10.325.214-12.03 1.856 0 0-2.004.28-4.163 3.237-2.158 2.957.555 9.505 1.785 9.432z"/>
                                    <path fill="#F7A9A0" d="M43.326 18.022s-2.292-3.337-3.796-2.51c-1.503.828.194 5.614 1.952 6.281.443.205.951.22 1.406.042.455-.177.819-.532 1.006-.983l-.568-2.83z"/>
                                    <path fill="#263238" d="M40.052 16.874c1.23.514 1.87 1.662 2.318 2.85-.142-.252-.388-.43-.673-.483-.284-.054-.579.02-.803.203 0 0 0 .073.033.066.446-.14.932.019 1.21.394.226.306.418.635.574.981.054.114.254.054.214-.073.027-1.555-1.183-3.765-2.873-3.938z"/>
                                    <path fill="#FFF" d="M42.959 21.553c.002.314-.185.598-.474.72-.29.122-.624.057-.847-.163-.224-.221-.291-.555-.171-.845.12-.29.402-.48.716-.48.426 0 .772.343.776.768z"/>
                                    <path fill="#361D87" d="M66.609 85.058s-35.593.527-44.427-.094c0 0 7.204-40.783 16.707-51.09.354-.386.728-.754 1.122-1.1.582-.488.502-4.38.776-4.673.274-.294 11.821 1.222 11.968 1.502.147.28.742 3.951.742 3.951 2.62 3.338 11.047 14.872 12.03 19.631.982 4.76-2.113 10.012-2.113 10.012l3.195 21.86z"/>
                                    <path fill="#F7A9A0" d="M36.169 41.15c-2.105 10.133-.856 32.04 4.01 36.045 8.019 6.554 27.292 8.47 32.672 9.104 2.318.274 6.936-14.885 5.346-16.84-1.59-1.956-25.281-5-26.41-6.008-.782-.72-4.465-13.957-7.639-21.42-4.27-10.099-7.21-4.619-7.98-.88z"/>
                                    <path fill="#F7A9A0" d="M74.187 68.237s7.11-.073 11.762.1c2.6.094 7.03.668 8.908 1.602 2.8 1.408 13.626 9.085 11.815 11.748-1.637 2.41-4.858-.761-4.858-.761s3.849 3.13 1.49 5.026c-2.36 1.896-6.175-2.63-6.175-2.63s4.317 3.044 1.604 4.82c-2.352 1.548-7.291-3.205-7.291-3.205s4.885 2.67 2.626 4.52c-2.492 2.002-10.792-4.192-10.792-4.192-5.948 1.335-9.697 1.335-14.068.62-.802-.133 4.98-17.648 4.98-17.648z"/>
                                    <path fill="#263238" d="M98.319 84.377l-.97-1.021c-.6-.677-1.237-1.32-1.91-1.923-.669-.574-1.337-1.121-2.072-1.642-.736-.52-1.564-1.041-2.3-1.608-.06-.047-.126.04-.06.08.73.562 1.43 1.161 2.099 1.795.668.6 1.337 1.215 2.005 1.822.668.608 1.336 1.148 2.005 1.73.327.286.668.587.969.887.285.308.595.592.929.848.033 0 .073 0 .053-.054-.216-.33-.467-.637-.748-.914zM102.602 81.593c-1.072-1.294-2.233-2.511-3.475-3.644-1.257-1.125-2.625-2.12-4.083-2.97-.053 0-.107.04-.067.08 1.256 1.128 2.533 2.236 3.81 3.337.62.54 3.374 3.09 3.695 3.338.073.04.167-.067.12-.14zM94.356 87.1c-1.04-1.194-2.156-2.32-3.342-3.37-1.304-.96-2.678-1.821-4.11-2.577-.053 0-.107.053-.06.087 1.297.96 2.606 1.889 3.856 2.91.615.5 2.927 2.623 3.555 3.044.067.04.14-.04.1-.094z"/>
                                    <path fill="#361D87" d="M67.518 86.927l8.48-19.751s-23.23-3.838-23.944-4.306c-.715-.467-4.952-15.872-7.672-21.92-2.72-6.047-7.391-9.598-9.196 3.384-1.804 12.983.81 28.836 3.422 32.133 3.168 3.992 15.711 9.045 28.91 10.46z"/>
                                    <path fill="#263238" d="M55.582 84.43c-3.475-.941-6.863-2.583-10.184-4.005-2.854-1.195-5.767-2.67-7.351-5.466-.739-1.424-1.255-2.953-1.53-4.533-.368-1.762-.669-3.544-.923-5.34-.307-2.047-.584-4.098-.829-6.154-.12-1.054-.24-2.11-.347-3.164-.107-1.054-.3-2.109-.34-3.17 0-.03-.025-.054-.054-.054-.03 0-.054.024-.054.054.074.974 0 1.955.08 2.937 0 .667.08 1.281.127 1.922l-.187-.407c-.206-.468-.362-.955-.468-1.455 0-.06-.113-.034-.1 0 .12.5.24 1.008.381 1.502.067.24.147.48.24.72.057.162.121.32.195.474.16 1.918.367 3.827.621 5.727.247 1.843.535 3.672.862 5.5.243 1.618.673 3.202 1.283 4.72.607 1.43 1.535 2.703 2.713 3.718 1.221 1 2.57 1.836 4.01 2.483 3.257 1.503 6.624 2.757 10.071 3.75 4.123 1.296 5.38 1.209 1.784.241zM64.303 65.12c-.855-.114-10.966-2.236-11.36-2.35-.402-.122-.71-.447-.809-.854-.314-.814-.588-1.649-.882-2.47-.508-1.415-1.025-2.823-1.55-4.225 0-.314-.06-.668-.094-.941-.034-.274-.1-.748-.16-1.122-.134-.807-.375-1.602-.475-2.41 0-.08-.127-.053-.107 0 .204.796.325 1.61.361 2.43.033.32.053.668.073.968-.307-.82-.621-1.642-.948-2.456-.381-.948-.816-1.902-1.123-2.877 0-.067-.12-.033-.1 0 .347.875.594 1.802.868 2.67.274.868.568 1.802.862 2.703.575 1.77 1.183 3.525 1.798 5.287.294.848.581 1.709.896 2.55.175.641.688 1.135 1.336 1.288 1.758.474 10.352 1.896 11.394 1.936.107.066.134-.114.02-.127zM71.701 67.483c-1.336 2.837-2.673 5.653-3.883 8.55-1.223 2.85-2.296 5.762-3.214 8.724-.011.028.002.06.03.07.028.011.06-.002.07-.03 1.337-2.783 2.506-5.673 3.69-8.537 1.182-2.863 2.258-5.807 3.454-8.677.06-.12-.093-.214-.147-.1z"/>
                                    <path fill="#F7A9A0" d="M96.681 65.227c-1.022.574-6.876-1.042-9.249.734-1.57 1.175-3.107 4.005-3.441 7.696-.341 3.811 2.673 3.618 3.789 2.002 1.36-2.126 2.546-4.358 3.548-6.674 1.074.213 2.132.496 3.168.847l2.185-4.605zM89.504 78.53c-1.811-1.896-10.86 5.052-8.02 8.21 2.84 3.157 10.065-6.061 8.02-8.21z"/>
                                    <path fill="#F7A9A0" d="M92.525 81.246c-1.811-1.895-10.86 5.053-8.02 8.21 2.84 3.158 10.064-6.06 8.02-8.21z"/>
                                    <path fill="#F7A9A0" d="M94.904 82.207c-1.905-1.475-9.162 6.101-6.122 8.571 3.04 2.47 8.28-6.902 6.122-8.57z"/>
                                    <path fill="#F7A9A0" d="M97.49 82.621c-2.185-.834-6.79 8.244-3.268 9.679 3.522 1.435 5.747-8.764 3.268-9.679z"/>
                                    <path fill="#263238" d="M89.237 81.653c-.503.337-.977.714-1.417 1.128-.488.428-.97.862-1.41 1.335-.43.448-.834.921-1.21 1.416-.394.534-.721 1.114-1.122 1.635-.02.013-.03.037-.023.06.007.023.028.038.051.038.024 0 .045-.015.052-.038.396-.504.827-.979 1.29-1.422.434-.454.842-.928 1.276-1.388.434-.46.822-.908 1.25-1.335.427-.427.908-.868 1.336-1.335.02-.06-.027-.12-.073-.094zM92.832 82.501c-.388.594-1.744 2.897-2.159 3.478-.414.58-.848 1.161-1.29 1.729-.44.567-.868 1.188-1.37 1.722-.04.046.034.12.08.073.502-.534 1.05-1.021 1.525-1.582.474-.56.908-1.128 1.336-1.722.742-1.177 1.412-2.399 2.005-3.658 0-.06-.094-.093-.127-.04zM95.345 83.796c-.401.881-.749 1.796-1.156 2.67-.2.434-.408.868-.609 1.335l-.28.634c-.088.253-.2.496-.334.728-.04.053.066.113.093.04.134-.265.29-.517.468-.755.114-.2.234-.4.34-.6.228-.445.435-.88.622-1.302.39-.865.717-1.757.976-2.67.022-.033.013-.078-.02-.1-.033-.022-.078-.013-.1.02z"/>
                                </g>
                            </g>
                        </g>
                    </g>
                </g>
            </g>
        </g>
    </g>
</svg>
