<svg width="360" height="64" viewBox="0 0 360 64" fill="none" xmlns="http://www.w3.org/2000/svg">
<g clip-path="url(#clip0_80_3678)">
<path d="M360 0H0V64H360V0Z" fill="#E9F3FF"/>
<circle cx="278" cy="50" r="70" fill="#F5FAFF"/>
<path d="M72 16H48C45.7909 16 44 17.7909 44 20V44C44 46.2091 45.7909 48 48 48H72C74.2091 48 76 46.2091 76 44V20C76 17.7909 74.2091 16 72 16Z" fill="white" stroke="#DBDBDB"/>
<path d="M67.8298 27.7494C67.8194 27.8112 67.7873 27.8634 67.7316 27.9048L62.3035 32.6484L62.2107 32.7286L61.3399 33.4796L61.1325 33.6583C61.0196 33.7557 60.9067 33.8528 60.7939 33.9504C60.4075 34.1965 59.9493 34.3389 59.4573 34.3389C59.0346 34.3389 58.6362 34.2337 58.2877 34.0475C58.3503 34.0558 58.4142 34.0598 58.4789 34.0598C58.7085 34.0598 58.9073 34.02 59.0747 33.9403C59.2944 33.8359 59.4846 33.692 59.6793 33.5478C59.9693 33.333 60.2593 33.1184 60.5493 32.9033C60.7436 32.7594 60.9383 32.6155 61.1325 32.4715L61.9482 31.8675L62.2958 31.6101L62.5911 31.3913L67.474 27.5675C67.5288 27.526 67.5845 27.5041 67.6417 27.5041C67.6987 27.5041 67.7482 27.5322 67.7918 27.5886L67.7993 27.5985C67.8298 27.6379 67.8392 27.6881 67.8298 27.7494Z" fill="#F68815"/>
<path d="M51.2804 30.7134C51.2501 30.6794 51.2142 30.6487 51.1729 30.622C51.0754 30.5515 50.984 30.4901 50.8988 30.4374C50.8137 30.3852 50.7267 30.3428 50.6379 30.3099C50.5491 30.277 50.4559 30.2525 50.3587 30.2368C50.2611 30.2211 50.1518 30.213 50.0301 30.213C49.8938 30.213 49.7721 30.2302 49.665 30.2642C49.558 30.2982 49.4615 30.3431 49.3763 30.3994C49.2912 30.4553 49.2152 30.5193 49.1483 30.5909C49.0814 30.6629 49.0211 30.7364 48.9674 30.8117C48.9575 30.7609 48.9491 30.7042 48.9414 30.6421C48.9341 30.58 48.9221 30.5222 48.9049 30.4685C48.8877 30.4152 48.8636 30.3702 48.8318 30.3336C48.8 30.2971 48.7536 30.2788 48.6926 30.2788H48.2273C48.171 30.2788 48.1192 30.2971 48.0716 30.3336C48.0238 30.3702 48 30.4236 48 30.4941V34.6965C48 34.8427 48.0757 34.9158 48.2273 34.9158H48.8281C48.9794 34.9158 49.0551 34.8427 49.0551 34.6965V31.9439C49.1063 31.7005 49.2068 31.5093 49.3562 31.3704C49.5061 31.2316 49.6892 31.1625 49.9059 31.1625C49.9885 31.1625 50.0634 31.1702 50.1303 31.1863C50.1975 31.202 50.2626 31.2239 50.3258 31.2517C50.389 31.2798 50.4537 31.3134 50.5195 31.3522C50.5849 31.3913 50.658 31.4326 50.7384 31.4764C50.775 31.4958 50.8126 31.5057 50.8517 31.5057C50.871 31.5057 50.8937 31.5002 50.9193 31.4892C50.9445 31.4783 50.9672 31.4607 50.9865 31.4362L51.2858 30.9615C51.3005 30.9396 51.3103 30.9177 51.3151 30.8957C51.3202 30.8738 51.3239 30.8533 51.3261 30.8336C51.3261 30.7876 51.3111 30.7473 51.2804 30.7134Z" fill="#2C368F"/>
<path d="M54.7958 33.1576C54.7289 33.3319 54.6357 33.4832 54.5166 33.6122C54.3974 33.7412 54.2556 33.8436 54.0912 33.9189C53.9271 33.9945 53.7487 34.0322 53.5565 34.0322C53.3592 34.0322 53.1772 33.9945 53.0105 33.9189C52.8438 33.8436 52.6995 33.7412 52.5778 33.6122C52.4561 33.4832 52.3611 33.3319 52.2931 33.1576C52.2248 32.9837 52.1908 32.7995 52.1908 32.6047C52.1908 32.4124 52.2248 32.2286 52.2931 32.0532C52.3611 31.8781 52.4561 31.7243 52.5778 31.5912C52.6995 31.4589 52.8438 31.353 53.0105 31.2737C53.1772 31.1947 53.3592 31.1552 53.5565 31.1552C53.7487 31.1552 53.9271 31.1947 54.0912 31.2737C54.2556 31.353 54.3974 31.4589 54.5166 31.5912C54.6357 31.7243 54.7289 31.8781 54.7958 32.0532C54.8627 32.2286 54.8963 32.4124 54.8963 32.6047C54.8963 32.7995 54.8627 32.9837 54.7958 33.1576ZM55.8658 31.964C55.8085 31.7583 55.7277 31.5664 55.6232 31.3888C55.5183 31.2112 55.3933 31.0496 55.2475 30.9049C55.1013 30.7602 54.9401 30.6359 54.764 30.5325C54.5874 30.4291 54.3974 30.3487 54.1928 30.2917C53.9888 30.2347 53.7769 30.2058 53.5583 30.2058C53.3369 30.2058 53.1245 30.2347 52.9217 30.2917C52.7185 30.3487 52.5281 30.4291 52.3505 30.5325C52.1729 30.6359 52.0113 30.7602 51.8655 30.9049C51.7193 31.0496 51.594 31.2112 51.4895 31.3888C51.3849 31.5664 51.3042 31.7583 51.2468 31.964C51.1898 32.1694 51.1613 32.3832 51.1613 32.6047C51.1613 32.8261 51.1898 33.0392 51.2468 33.2435C51.3042 33.4481 51.3849 33.6386 51.4895 33.8151C51.594 33.9916 51.7193 34.1528 51.8655 34.2986C52.0113 34.4448 52.1729 34.5694 52.3505 34.6728C52.5281 34.7766 52.7185 34.8566 52.9217 34.914C53.1245 34.971 53.3369 34.9999 53.5583 34.9999C53.7769 34.9999 53.9888 34.971 54.1928 34.914C54.3974 34.8566 54.5874 34.7766 54.764 34.6728C54.9401 34.5694 55.1013 34.4448 55.2475 34.2986C55.3933 34.1528 55.5183 33.9916 55.6232 33.8151C55.7277 33.6386 55.8085 33.4481 55.8658 33.2435C55.9228 33.0392 55.9513 32.8261 55.9513 32.6047C55.9513 32.3832 55.9228 32.1694 55.8658 31.964Z" fill="#2C368F"/>
<path d="M61.0812 34.0128V34.7153C61.0812 34.7302 61.0852 34.7489 61.0921 34.7716C61.0998 34.7953 61.1115 34.818 61.1287 34.8399C61.1459 34.8614 61.1663 34.8797 61.1912 34.8943C61.2157 34.9086 61.246 34.9163 61.2822 34.9163H61.9283C61.9674 34.9163 62.0003 34.9086 62.027 34.8943C62.0544 34.8797 62.0752 34.8614 62.091 34.8399C62.1067 34.818 62.1184 34.7935 62.1253 34.7686C62.1333 34.7427 62.1363 34.7193 62.1363 34.6973V33.1029L61.0812 34.0128ZM62.0814 30.2698C62.0504 30.2267 61.9988 30.2055 61.9283 30.2055H61.3038C61.2069 30.2055 61.1451 30.2267 61.1195 30.268C61.0943 30.3096 61.0812 30.3619 61.0812 30.4244V32.2139L62.1293 31.438V30.4065C62.1293 30.3579 62.1136 30.3118 62.0814 30.2698Z" fill="#2C368F"/>
<path d="M66.0942 32.1154C66.1329 31.9744 66.1943 31.8428 66.2784 31.7211C66.3624 31.5994 66.4611 31.4934 66.574 31.4035C66.6873 31.3136 66.8119 31.2423 66.9482 31.1901C67.0846 31.1375 67.2245 31.1115 67.3682 31.1115C67.5337 31.1115 67.6883 31.1356 67.8319 31.1846C67.9756 31.2332 68.1035 31.3019 68.2153 31.3907C68.3271 31.4795 68.4229 31.5855 68.5018 31.7083C68.5811 31.8315 68.64 31.9671 68.679 32.1154H66.0942ZM69.5773 31.8271C69.509 31.591 69.402 31.3706 69.2557 31.1663C69.1487 31.0176 69.0248 30.8846 68.8834 30.7665C68.7423 30.6485 68.5906 30.548 68.4287 30.465C68.2672 30.3824 68.0962 30.3184 67.916 30.2735C67.7358 30.2286 67.5531 30.2059 67.3682 30.2059C67.1419 30.2059 66.927 30.2348 66.7238 30.2918C66.5207 30.3488 66.3321 30.4299 66.1578 30.5344C65.9838 30.6393 65.8263 30.7651 65.6852 30.9123C65.5438 31.0596 65.4239 31.2215 65.3256 31.398C65.2269 31.5745 65.1509 31.7638 65.0972 31.966C65.0438 32.1677 65.0168 32.3771 65.0168 32.5938C65.0168 32.9297 65.0822 33.2432 65.2123 33.5338C65.3424 33.8247 65.5182 34.0787 65.74 34.295C65.9615 34.5117 66.2195 34.6821 66.5141 34.8063C66.8083 34.9306 67.12 34.9927 67.4486 34.9927C67.753 34.9927 68.0322 34.9401 68.2866 34.8355C68.5409 34.731 68.7752 34.5874 68.9893 34.4047C69.0818 34.3367 69.1282 34.2683 69.1282 34.2004C69.1282 34.1733 69.1213 34.1467 69.1081 34.12C69.0946 34.0933 69.0734 34.0615 69.0442 34.025C69.0149 33.9884 68.9773 33.9434 68.9309 33.8897C68.8848 33.8364 68.8285 33.7695 68.7631 33.6891C68.7361 33.6551 68.7087 33.6306 68.6809 33.616C68.6527 33.6014 68.6279 33.5941 68.606 33.5941C68.5767 33.5941 68.5486 33.6021 68.5219 33.6178C68.4952 33.6335 68.4671 33.6551 68.4382 33.6818C68.4357 33.6818 68.4346 33.6829 68.4346 33.6854C68.3783 33.7366 68.3132 33.786 68.239 33.8335C68.1649 33.881 68.0837 33.9226 67.9964 33.9592C67.9087 33.9957 67.8144 34.025 67.7132 34.0469C67.6123 34.0688 67.507 34.0798 67.3974 34.0798C67.2538 34.0798 67.1102 34.056 66.9665 34.0085C66.8229 33.961 66.6902 33.8905 66.5685 33.7969C66.4468 33.703 66.3416 33.5886 66.2528 33.4537C66.164 33.3185 66.1037 33.1632 66.0722 32.9881H69.3106C69.3983 32.9881 69.4663 32.9816 69.5152 32.968C69.5638 32.9545 69.6004 32.9333 69.6245 32.9041C69.649 32.8749 69.6643 32.8365 69.6702 32.789C69.6764 32.7415 69.6793 32.6826 69.6793 32.6121C69.6793 32.3248 69.6453 32.0631 69.5773 31.8271Z" fill="#2C368F"/>
<path d="M71.9487 30.3278C71.9147 30.2953 71.8661 30.2788 71.8029 30.2788H71.277C71.277 30.1253 71.2777 29.9726 71.2788 29.8205C71.2799 29.6685 71.2807 29.5157 71.2807 29.3623C71.2807 29.2943 71.2693 29.2395 71.2459 29.1982C71.2229 29.1565 71.1736 29.136 71.0983 29.136C71.0592 29.136 71.0106 29.1426 70.9521 29.1561C70.8936 29.1697 70.8333 29.1857 70.7716 29.2055C70.7094 29.2248 70.6491 29.2449 70.5906 29.2658C70.5322 29.2862 70.4825 29.3038 70.4412 29.3184C70.3776 29.3403 70.3308 29.3655 70.3005 29.3933C70.2702 29.4215 70.2548 29.4598 70.2548 29.5084C70.2548 29.6375 70.2541 29.7657 70.253 29.8936C70.2519 30.0215 70.2512 30.1498 70.2512 30.2788H69.8312C69.7607 30.2788 69.7077 30.2934 69.6723 30.3223C69.6372 30.3516 69.6196 30.4012 69.6196 30.4714V30.9951C69.6196 31.0678 69.6372 31.1201 69.6723 31.1516C69.7077 31.183 69.7607 31.1987 69.8312 31.1987H70.2512V33.6659C70.2512 33.8633 70.2877 34.0391 70.3608 34.194C70.4339 34.3486 70.5329 34.4791 70.6583 34.5851C70.7836 34.691 70.9309 34.7722 71.1001 34.8281C71.2693 34.884 71.4498 34.9132 71.6421 34.9158C71.7053 34.9158 71.7546 34.8982 71.7901 34.8628C71.8252 34.8274 71.8431 34.778 71.8431 34.7148V34.2075C71.8431 34.1564 71.8285 34.1125 71.7992 34.0759C71.77 34.0394 71.7298 34.0211 71.6786 34.0211C71.5376 34.0211 71.4352 33.9861 71.372 33.9152C71.3088 33.8446 71.277 33.7288 71.277 33.568V33.0889C71.277 33.0841 71.2777 33.0794 71.2788 33.0742C71.2799 33.0695 71.2807 33.0647 71.2807 33.0596V32.3652C71.2807 32.2797 71.2799 32.2008 71.2788 32.1277C71.2777 32.0542 71.277 31.9756 71.277 31.8916V31.1987H71.8029C71.8661 31.1987 71.9147 31.1819 71.9487 31.1479C71.9831 31.1139 71.9999 31.0583 71.9999 30.9805V30.4824C71.9999 30.4122 71.9831 30.3607 71.9487 30.3278Z" fill="#2C368F"/>
<path d="M60.7936 33.9508L60.7671 33.9738C60.7586 33.9813 60.7497 33.9887 60.7412 33.9962C60.6901 34.0404 60.639 34.0845 60.5879 34.13C60.5729 34.1423 60.5585 34.1551 60.5437 34.168L60.4993 34.2068C60.4185 34.2771 60.3375 34.3475 60.2556 34.4171C60.0293 34.6081 59.7674 34.7547 59.4913 34.8612C59.2516 34.9535 58.9881 35 58.701 35C58.4843 35 58.2743 34.9711 58.0713 34.9141C57.8679 34.8566 57.678 34.7766 57.5014 34.6728C57.3249 34.5696 57.1638 34.4454 57.0177 34.3004C56.8717 34.1557 56.7457 33.9946 56.6397 33.817C56.534 33.6391 56.4522 33.4481 56.3952 33.2434C56.3382 33.0393 56.3093 32.8261 56.3093 32.6048C56.3093 32.3833 56.3382 32.1701 56.3952 31.966C56.4522 31.7613 56.534 31.57 56.6397 31.3924C56.6694 31.3432 56.7005 31.295 56.7334 31.2482C56.8174 31.1265 56.9123 31.013 57.0177 30.9087C57.1638 30.764 57.3249 30.6396 57.5014 30.5363C57.678 30.4328 57.8679 30.3523 58.0713 30.2953C58.2743 30.238 58.4843 30.2094 58.701 30.2094C58.9715 30.2094 59.2267 30.2509 59.4678 30.3338C59.7085 30.4165 59.9231 30.5286 60.1101 30.6695C60.143 30.7022 60.1751 30.7305 60.2069 30.7554C60.2398 30.7808 60.2564 30.8204 60.2564 30.8739C60.2564 30.8886 60.2556 30.9058 60.2545 30.925C60.2535 30.9446 60.2465 30.9627 60.2345 30.9799L59.9351 31.4363C59.8864 31.5093 59.8327 31.546 59.7743 31.546C59.7329 31.546 59.6869 31.5251 59.6358 31.4839C59.5116 31.379 59.3669 31.2937 59.2013 31.2281C59.0357 31.1626 58.8653 31.1297 58.69 31.1297C58.5004 31.1297 58.3219 31.1693 58.1553 31.2482C57.9883 31.3274 57.8417 31.4344 57.7152 31.5692C57.5884 31.7046 57.4886 31.8616 57.4156 32.0403C57.3428 32.2196 57.3064 32.4074 57.3064 32.6048C57.3064 32.8068 57.3428 32.9965 57.4156 33.1741C57.4886 33.352 57.5881 33.5064 57.7136 33.6378C57.7575 33.684 57.8048 33.7274 57.8546 33.767C58.185 34.0299 58.5873 34.2046 59.0009 34.2873C59.1336 34.3138 59.2684 34.3306 59.4038 34.3381C59.4217 34.3384 59.4394 34.3389 59.4576 34.3389C59.9493 34.3389 60.4073 34.1966 60.7936 33.9508Z" fill="#2C368F"/>
<path d="M65.2862 34.7335C65.2805 34.717 65.2722 34.7011 65.262 34.6857L65.2623 34.6855L65.237 34.6459L65.2229 34.6278L63.2705 32.1245L62.5444 32.7513L64.0912 34.7632C64.1576 34.8648 64.2248 34.9164 64.296 34.9164H65.1573C65.2057 34.9164 65.2425 34.9085 65.2667 34.8945C65.2901 34.8796 65.3026 34.8515 65.3026 34.8101C65.3026 34.7905 65.2972 34.7655 65.2862 34.7335Z" fill="#2C368F"/>
<path d="M92.8184 26.5391L94.3496 19.0469H96.0654L93.7686 29H92.1143L90.2207 21.7334L88.2861 29H86.625L84.3281 19.0469H86.0439L87.5889 26.5254L89.4893 19.0469H90.9385L92.8184 26.5391ZM101.356 29C101.284 28.8587 101.22 28.6286 101.165 28.3096C100.636 28.861 99.9893 29.1367 99.2236 29.1367C98.4808 29.1367 97.8747 28.9248 97.4053 28.501C96.9359 28.0771 96.7012 27.5531 96.7012 26.9287C96.7012 26.1403 96.9928 25.5365 97.5762 25.1172C98.1641 24.6934 99.0026 24.4814 100.092 24.4814H101.11V23.9961C101.11 23.6133 101.003 23.3079 100.789 23.0801C100.575 22.8477 100.249 22.7314 99.8115 22.7314C99.4333 22.7314 99.1234 22.8271 98.8818 23.0186C98.6403 23.2054 98.5195 23.4447 98.5195 23.7363H96.8584C96.8584 23.3307 96.9928 22.9525 97.2617 22.6016C97.5306 22.2461 97.8952 21.9681 98.3555 21.7676C98.8203 21.5671 99.3376 21.4668 99.9072 21.4668C100.773 21.4668 101.464 21.6855 101.979 22.123C102.493 22.556 102.758 23.1667 102.771 23.9551V27.291C102.771 27.9564 102.865 28.4873 103.052 28.8838V29H101.356ZM99.5312 27.8037C99.8594 27.8037 100.167 27.724 100.454 27.5645C100.746 27.4049 100.965 27.1908 101.11 26.9219V25.5273H100.215C99.5996 25.5273 99.137 25.6344 98.8271 25.8486C98.5173 26.0628 98.3623 26.3659 98.3623 26.7578C98.3623 27.0768 98.4671 27.332 98.6768 27.5234C98.891 27.7103 99.1758 27.8037 99.5312 27.8037ZM108.931 29C108.858 28.8587 108.794 28.6286 108.739 28.3096C108.211 28.861 107.563 29.1367 106.798 29.1367C106.055 29.1367 105.449 28.9248 104.979 28.501C104.51 28.0771 104.275 27.5531 104.275 26.9287C104.275 26.1403 104.567 25.5365 105.15 25.1172C105.738 24.6934 106.577 24.4814 107.666 24.4814H108.685V23.9961C108.685 23.6133 108.577 23.3079 108.363 23.0801C108.149 22.8477 107.823 22.7314 107.386 22.7314C107.007 22.7314 106.698 22.8271 106.456 23.0186C106.215 23.2054 106.094 23.4447 106.094 23.7363H104.433C104.433 23.3307 104.567 22.9525 104.836 22.6016C105.105 22.2461 105.469 21.9681 105.93 21.7676C106.395 21.5671 106.912 21.4668 107.481 21.4668C108.347 21.4668 109.038 21.6855 109.553 22.123C110.068 22.556 110.332 23.1667 110.346 23.9551V27.291C110.346 27.9564 110.439 28.4873 110.626 28.8838V29H108.931ZM107.105 27.8037C107.434 27.8037 107.741 27.724 108.028 27.5645C108.32 27.4049 108.539 27.1908 108.685 26.9219V25.5273H107.789C107.174 25.5273 106.711 25.6344 106.401 25.8486C106.091 26.0628 105.937 26.3659 105.937 26.7578C105.937 27.0768 106.041 27.332 106.251 27.5234C106.465 27.7103 106.75 27.8037 107.105 27.8037ZM113.723 22.4102C114.265 21.7812 114.951 21.4668 115.78 21.4668C117.357 21.4668 118.157 22.3669 118.18 24.167V29H116.519V24.2285C116.519 23.7181 116.407 23.3581 116.184 23.1484C115.965 22.9342 115.641 22.8271 115.213 22.8271C114.548 22.8271 114.051 23.1234 113.723 23.7158V29H112.062V18.5H113.723V22.4102ZM124.1 19.0469H125.822V26.0264C125.822 26.9788 125.524 27.7354 124.927 28.2959C124.334 28.8564 123.55 29.1367 122.575 29.1367C121.536 29.1367 120.734 28.8747 120.169 28.3506C119.604 27.8265 119.321 27.0973 119.321 26.1631H121.044C121.044 26.6917 121.174 27.0905 121.434 27.3594C121.698 27.6237 122.078 27.7559 122.575 27.7559C123.04 27.7559 123.409 27.6032 123.683 27.2979C123.961 26.988 124.1 26.5618 124.1 26.0195V19.0469ZM127.333 25.2334C127.333 24.5088 127.477 23.8571 127.764 23.2783C128.051 22.695 128.454 22.2484 128.974 21.9385C129.493 21.624 130.09 21.4668 130.765 21.4668C131.763 21.4668 132.572 21.7881 133.191 22.4307C133.816 23.0732 134.153 23.9255 134.203 24.9873L134.21 25.377C134.21 26.1061 134.069 26.7578 133.786 27.332C133.508 27.9062 133.107 28.3506 132.583 28.665C132.063 28.9795 131.462 29.1367 130.778 29.1367C129.735 29.1367 128.898 28.7904 128.27 28.0977C127.645 27.4004 127.333 26.473 127.333 25.3154V25.2334ZM128.994 25.377C128.994 26.138 129.151 26.735 129.466 27.168C129.78 27.5964 130.218 27.8105 130.778 27.8105C131.339 27.8105 131.774 27.5918 132.084 27.1543C132.398 26.7168 132.556 26.0765 132.556 25.2334C132.556 24.486 132.394 23.8936 132.07 23.4561C131.751 23.0186 131.316 22.7998 130.765 22.7998C130.222 22.7998 129.792 23.0163 129.473 23.4492C129.154 23.8776 128.994 24.5202 128.994 25.377ZM142.105 25.377C142.105 26.5254 141.848 27.4391 141.333 28.1182C140.823 28.7972 140.118 29.1367 139.221 29.1367C138.355 29.1367 137.68 28.8245 137.197 28.2002L137.115 29H135.611V18.5H137.272V22.3145C137.751 21.7493 138.396 21.4668 139.207 21.4668C140.109 21.4668 140.818 21.8018 141.333 22.4717C141.848 23.1416 142.105 24.0781 142.105 25.2812V25.377ZM140.444 25.2334C140.444 24.4313 140.303 23.8298 140.021 23.4287C139.738 23.0277 139.328 22.8271 138.79 22.8271C138.07 22.8271 137.564 23.1416 137.272 23.7705V26.8193C137.569 27.4619 138.079 27.7832 138.804 27.7832C139.323 27.7832 139.724 27.5895 140.007 27.2021C140.289 26.8148 140.435 26.2292 140.444 25.4453V25.2334ZM147.649 26.9902C147.649 26.694 147.526 26.4684 147.28 26.3135C147.039 26.1585 146.635 26.0218 146.07 25.9033C145.505 25.7848 145.034 25.6344 144.655 25.4521C143.826 25.0511 143.411 24.4701 143.411 23.709C143.411 23.071 143.68 22.5378 144.218 22.1094C144.756 21.681 145.439 21.4668 146.269 21.4668C147.153 21.4668 147.866 21.6855 148.408 22.123C148.955 22.5605 149.229 23.1279 149.229 23.8252H147.567C147.567 23.5062 147.449 23.2419 147.212 23.0322C146.975 22.818 146.66 22.7109 146.269 22.7109C145.904 22.7109 145.605 22.7952 145.373 22.9639C145.145 23.1325 145.031 23.3581 145.031 23.6406C145.031 23.8958 145.138 24.0941 145.353 24.2354C145.567 24.3766 146 24.5202 146.651 24.666C147.303 24.8073 147.813 24.9782 148.183 25.1787C148.556 25.3747 148.832 25.6117 149.01 25.8896C149.192 26.1676 149.283 26.5049 149.283 26.9014C149.283 27.5667 149.007 28.1068 148.456 28.5215C147.905 28.9316 147.182 29.1367 146.289 29.1367C145.683 29.1367 145.143 29.0273 144.669 28.8086C144.195 28.5898 143.826 28.2891 143.562 27.9062C143.297 27.5234 143.165 27.111 143.165 26.6689H144.778C144.801 27.0609 144.949 27.3639 145.223 27.5781C145.496 27.7878 145.858 27.8926 146.31 27.8926C146.747 27.8926 147.08 27.8105 147.308 27.6465C147.535 27.4779 147.649 27.2591 147.649 26.9902ZM155.989 29H154.328V21.6035H155.989V29ZM154.226 19.6826C154.226 19.4274 154.305 19.2155 154.465 19.0469C154.629 18.8783 154.861 18.7939 155.162 18.7939C155.463 18.7939 155.695 18.8783 155.859 19.0469C156.023 19.2155 156.105 19.4274 156.105 19.6826C156.105 19.9333 156.023 20.1429 155.859 20.3115C155.695 20.4756 155.463 20.5576 155.162 20.5576C154.861 20.5576 154.629 20.4756 154.465 20.3115C154.305 20.1429 154.226 19.9333 154.226 19.6826ZM161.95 26.9902C161.95 26.694 161.827 26.4684 161.581 26.3135C161.34 26.1585 160.936 26.0218 160.371 25.9033C159.806 25.7848 159.334 25.6344 158.956 25.4521C158.127 25.0511 157.712 24.4701 157.712 23.709C157.712 23.071 157.981 22.5378 158.519 22.1094C159.056 21.681 159.74 21.4668 160.569 21.4668C161.453 21.4668 162.167 21.6855 162.709 22.123C163.256 22.5605 163.529 23.1279 163.529 23.8252H161.868C161.868 23.5062 161.75 23.2419 161.513 23.0322C161.276 22.818 160.961 22.7109 160.569 22.7109C160.205 22.7109 159.906 22.7952 159.674 22.9639C159.446 23.1325 159.332 23.3581 159.332 23.6406C159.332 23.8958 159.439 24.0941 159.653 24.2354C159.868 24.3766 160.3 24.5202 160.952 24.666C161.604 24.8073 162.114 24.9782 162.483 25.1787C162.857 25.3747 163.133 25.6117 163.311 25.8896C163.493 26.1676 163.584 26.5049 163.584 26.9014C163.584 27.5667 163.308 28.1068 162.757 28.5215C162.205 28.9316 161.483 29.1367 160.59 29.1367C159.984 29.1367 159.444 29.0273 158.97 28.8086C158.496 28.5898 158.127 28.2891 157.862 27.9062C157.598 27.5234 157.466 27.111 157.466 26.6689H159.079C159.102 27.0609 159.25 27.3639 159.523 27.5781C159.797 27.7878 160.159 27.8926 160.61 27.8926C161.048 27.8926 161.381 27.8105 161.608 27.6465C161.836 27.4779 161.95 27.2591 161.95 26.9902ZM170.064 21.6035L170.112 22.458C170.659 21.7972 171.377 21.4668 172.266 21.4668C173.806 21.4668 174.59 22.3486 174.617 24.1123V29H172.956V24.208C172.956 23.7386 172.854 23.3923 172.648 23.1689C172.448 22.9411 172.118 22.8271 171.657 22.8271C170.987 22.8271 170.488 23.1302 170.16 23.7363V29H168.499V21.6035H170.064ZM176.005 25.2334C176.005 24.5088 176.148 23.8571 176.436 23.2783C176.723 22.695 177.126 22.2484 177.646 21.9385C178.165 21.624 178.762 21.4668 179.437 21.4668C180.435 21.4668 181.243 21.7881 181.863 22.4307C182.488 23.0732 182.825 23.9255 182.875 24.9873L182.882 25.377C182.882 26.1061 182.741 26.7578 182.458 27.332C182.18 27.9062 181.779 28.3506 181.255 28.665C180.735 28.9795 180.134 29.1367 179.45 29.1367C178.407 29.1367 177.57 28.7904 176.941 28.0977C176.317 27.4004 176.005 26.473 176.005 25.3154V25.2334ZM177.666 25.377C177.666 26.138 177.823 26.735 178.138 27.168C178.452 27.5964 178.89 27.8105 179.45 27.8105C180.011 27.8105 180.446 27.5918 180.756 27.1543C181.07 26.7168 181.228 26.0765 181.228 25.2334C181.228 24.486 181.066 23.8936 180.742 23.4561C180.423 23.0186 179.988 22.7998 179.437 22.7998C178.894 22.7998 178.464 23.0163 178.145 23.4492C177.826 23.8776 177.666 24.5202 177.666 25.377ZM190.784 26.71L191.96 21.6035H193.58L191.563 29H190.196L188.61 23.9209L187.052 29H185.685L183.661 21.6035H185.281L186.478 26.6553L187.995 21.6035H189.246L190.784 26.71ZM201.995 25.165H200.067V29H198.338V19.0469H201.838C202.986 19.0469 203.873 19.3044 204.497 19.8193C205.121 20.3343 205.434 21.0794 205.434 22.0547C205.434 22.7201 205.272 23.2783 204.948 23.7295C204.629 24.1761 204.183 24.5202 203.608 24.7617L205.844 28.9111V29H203.991L201.995 25.165ZM200.067 23.7773H201.845C202.428 23.7773 202.884 23.6315 203.212 23.3398C203.54 23.0436 203.704 22.6403 203.704 22.1299C203.704 21.5967 203.551 21.1842 203.246 20.8926C202.945 20.6009 202.494 20.4505 201.893 20.4414H200.067V23.7773ZM206.603 25.2334C206.603 24.5088 206.746 23.8571 207.033 23.2783C207.32 22.695 207.724 22.2484 208.243 21.9385C208.763 21.624 209.36 21.4668 210.034 21.4668C211.032 21.4668 211.841 21.7881 212.461 22.4307C213.085 23.0732 213.423 23.9255 213.473 24.9873L213.479 25.377C213.479 26.1061 213.338 26.7578 213.056 27.332C212.778 27.9062 212.377 28.3506 211.853 28.665C211.333 28.9795 210.731 29.1367 210.048 29.1367C209.004 29.1367 208.168 28.7904 207.539 28.0977C206.915 27.4004 206.603 26.473 206.603 25.3154V25.2334ZM208.264 25.377C208.264 26.138 208.421 26.735 208.735 27.168C209.05 27.5964 209.487 27.8105 210.048 27.8105C210.608 27.8105 211.044 27.5918 211.354 27.1543C211.668 26.7168 211.825 26.0765 211.825 25.2334C211.825 24.486 211.663 23.8936 211.34 23.4561C211.021 23.0186 210.586 22.7998 210.034 22.7998C209.492 22.7998 209.061 23.0163 208.742 23.4492C208.423 23.8776 208.264 24.5202 208.264 25.377ZM217.923 27.8105C218.338 27.8105 218.682 27.6898 218.955 27.4482C219.229 27.2067 219.374 26.9082 219.393 26.5527H220.958C220.94 27.013 220.796 27.4437 220.527 27.8447C220.258 28.2412 219.894 28.5557 219.434 28.7881C218.973 29.0205 218.477 29.1367 217.943 29.1367C216.909 29.1367 216.089 28.8018 215.482 28.1318C214.876 27.4619 214.573 26.5368 214.573 25.3564V25.1855C214.573 24.0599 214.874 23.1598 215.476 22.4854C216.077 21.8063 216.897 21.4668 217.937 21.4668C218.816 21.4668 219.532 21.7243 220.083 22.2393C220.639 22.7497 220.931 23.4219 220.958 24.2559H219.393C219.374 23.832 219.229 23.4834 218.955 23.21C218.686 22.9365 218.342 22.7998 217.923 22.7998C217.385 22.7998 216.97 22.9958 216.679 23.3877C216.387 23.7751 216.239 24.3652 216.234 25.1582V25.4248C216.234 26.2269 216.378 26.8262 216.665 27.2227C216.957 27.6146 217.376 27.8105 217.923 27.8105ZM224.615 25.8281L223.877 26.5869V29H222.216V18.5H223.877V24.5566L224.396 23.9072L226.44 21.6035H228.437L225.688 24.6865L228.73 29H226.81L224.615 25.8281ZM232.647 29.1367C231.595 29.1367 230.74 28.8063 230.084 28.1455C229.432 27.4801 229.106 26.596 229.106 25.4932V25.2881C229.106 24.5498 229.248 23.8913 229.53 23.3125C229.817 22.7292 230.218 22.2757 230.733 21.9521C231.248 21.6286 231.823 21.4668 232.456 21.4668C233.463 21.4668 234.24 21.7881 234.787 22.4307C235.339 23.0732 235.614 23.9824 235.614 25.1582V25.8281H230.781C230.831 26.4388 231.034 26.9219 231.39 27.2773C231.75 27.6328 232.201 27.8105 232.743 27.8105C233.504 27.8105 234.124 27.5029 234.603 26.8877L235.498 27.7422C235.202 28.1842 234.805 28.5283 234.309 28.7744C233.816 29.016 233.263 29.1367 232.647 29.1367ZM232.449 22.7998C231.993 22.7998 231.624 22.9593 231.342 23.2783C231.064 23.5973 230.886 24.0417 230.809 24.6113H233.974V24.4883C233.937 23.9323 233.789 23.513 233.529 23.2305C233.27 22.9434 232.91 22.7998 232.449 22.7998ZM238.991 19.8057V21.6035H240.297V22.834H238.991V26.9629C238.991 27.2454 239.046 27.4505 239.155 27.5781C239.269 27.7012 239.47 27.7627 239.757 27.7627C239.948 27.7627 240.142 27.7399 240.338 27.6943V28.9795C239.96 29.0843 239.595 29.1367 239.244 29.1367C237.968 29.1367 237.33 28.4326 237.33 27.0244V22.834H236.113V21.6035H237.33V19.8057H238.991Z" fill="#13101D"/>
<path d="M91.2891 43.8809C91 44.2949 90.5957 44.6055 90.0762 44.8125C89.5605 45.0156 88.959 45.1172 88.2715 45.1172C87.5762 45.1172 86.959 44.9551 86.4199 44.6309C85.8809 44.3027 85.4629 43.8379 85.166 43.2363C84.873 42.6348 84.7227 41.9375 84.7148 41.1445V40.4004C84.7148 39.1152 85.0137 38.1191 85.6113 37.4121C86.2129 36.7051 87.0566 36.3516 88.1426 36.3516C89.0332 36.3516 89.75 36.5801 90.293 37.0371C90.8359 37.4902 91.168 38.1348 91.2891 38.9707H90.1641C89.9531 37.8418 89.2812 37.2773 88.1484 37.2773C87.3945 37.2773 86.8223 37.543 86.4316 38.0742C86.0449 38.6016 85.8496 39.3672 85.8457 40.3711V41.0684C85.8457 42.0254 86.0645 42.7871 86.502 43.3535C86.9395 43.916 87.5312 44.1973 88.2773 44.1973C88.6992 44.1973 89.0684 44.1504 89.3848 44.0566C89.7012 43.9629 89.9629 43.8047 90.1699 43.582V41.666H88.1953V40.752H91.2891V43.8809ZM95.6309 45.1172C94.7715 45.1172 94.0723 44.8359 93.5332 44.2734C92.9941 43.707 92.7246 42.9512 92.7246 42.0059V41.8066C92.7246 41.1777 92.8438 40.6172 93.082 40.125C93.3242 39.6289 93.6602 39.2422 94.0898 38.9648C94.5234 38.6836 94.9922 38.543 95.4961 38.543C96.3203 38.543 96.9609 38.8145 97.418 39.3574C97.875 39.9004 98.1035 40.6777 98.1035 41.6895V42.1406H93.8086C93.8242 42.7656 94.0059 43.2715 94.3535 43.6582C94.7051 44.041 95.1504 44.2324 95.6895 44.2324C96.0723 44.2324 96.3965 44.1543 96.6621 43.998C96.9277 43.8418 97.1602 43.6348 97.3594 43.377L98.0215 43.8926C97.4902 44.709 96.6934 45.1172 95.6309 45.1172ZM95.4961 39.4336C95.0586 39.4336 94.6914 39.5938 94.3945 39.9141C94.0977 40.2305 93.9141 40.6758 93.8438 41.25H97.0195V41.168C96.9883 40.6172 96.8398 40.1914 96.5742 39.8906C96.3086 39.5859 95.9492 39.4336 95.4961 39.4336ZM100.834 37.125V38.6602H102.018V39.498H100.834V43.4297C100.834 43.6836 100.887 43.875 100.992 44.0039C101.098 44.1289 101.277 44.1914 101.531 44.1914C101.656 44.1914 101.828 44.168 102.047 44.1211V45C101.762 45.0781 101.484 45.1172 101.215 45.1172C100.73 45.1172 100.365 44.9707 100.119 44.6777C99.873 44.3848 99.75 43.9688 99.75 43.4297V39.498H98.5957V38.6602H99.75V37.125H100.834ZM111.633 41.9004C111.633 42.8691 111.41 43.6484 110.965 44.2383C110.52 44.8242 109.922 45.1172 109.172 45.1172C108.371 45.1172 107.752 44.834 107.314 44.2676L107.262 45H106.266V36H107.35V39.3574C107.787 38.8145 108.391 38.543 109.16 38.543C109.93 38.543 110.533 38.834 110.971 39.416C111.412 39.998 111.633 40.7949 111.633 41.8066V41.9004ZM110.549 41.7773C110.549 41.0391 110.406 40.4688 110.121 40.0664C109.836 39.6641 109.426 39.4629 108.891 39.4629C108.176 39.4629 107.662 39.7949 107.35 40.459V43.2012C107.682 43.8652 108.199 44.1973 108.902 44.1973C109.422 44.1973 109.826 43.9961 110.115 43.5938C110.404 43.1914 110.549 42.5859 110.549 41.7773ZM115.635 45.1172C114.775 45.1172 114.076 44.8359 113.537 44.2734C112.998 43.707 112.729 42.9512 112.729 42.0059V41.8066C112.729 41.1777 112.848 40.6172 113.086 40.125C113.328 39.6289 113.664 39.2422 114.094 38.9648C114.527 38.6836 114.996 38.543 115.5 38.543C116.324 38.543 116.965 38.8145 117.422 39.3574C117.879 39.9004 118.107 40.6777 118.107 41.6895V42.1406H113.812C113.828 42.7656 114.01 43.2715 114.357 43.6582C114.709 44.041 115.154 44.2324 115.693 44.2324C116.076 44.2324 116.4 44.1543 116.666 43.998C116.932 43.8418 117.164 43.6348 117.363 43.377L118.025 43.8926C117.494 44.709 116.697 45.1172 115.635 45.1172ZM115.5 39.4336C115.062 39.4336 114.695 39.5938 114.398 39.9141C114.102 40.2305 113.918 40.6758 113.848 41.25H117.023V41.168C116.992 40.6172 116.844 40.1914 116.578 39.8906C116.312 39.5859 115.953 39.4336 115.5 39.4336ZM120.838 37.125V38.6602H122.021V39.498H120.838V43.4297C120.838 43.6836 120.891 43.875 120.996 44.0039C121.102 44.1289 121.281 44.1914 121.535 44.1914C121.66 44.1914 121.832 44.168 122.051 44.1211V45C121.766 45.0781 121.488 45.1172 121.219 45.1172C120.734 45.1172 120.369 44.9707 120.123 44.6777C119.877 44.3848 119.754 43.9688 119.754 43.4297V39.498H118.6V38.6602H119.754V37.125H120.838ZM124.764 37.125V38.6602H125.947V39.498H124.764V43.4297C124.764 43.6836 124.816 43.875 124.922 44.0039C125.027 44.1289 125.207 44.1914 125.461 44.1914C125.586 44.1914 125.758 44.168 125.977 44.1211V45C125.691 45.0781 125.414 45.1172 125.145 45.1172C124.66 45.1172 124.295 44.9707 124.049 44.6777C123.803 44.3848 123.68 43.9688 123.68 43.4297V39.498H122.525V38.6602H123.68V37.125H124.764ZM129.85 45.1172C128.99 45.1172 128.291 44.8359 127.752 44.2734C127.213 43.707 126.943 42.9512 126.943 42.0059V41.8066C126.943 41.1777 127.062 40.6172 127.301 40.125C127.543 39.6289 127.879 39.2422 128.309 38.9648C128.742 38.6836 129.211 38.543 129.715 38.543C130.539 38.543 131.18 38.8145 131.637 39.3574C132.094 39.9004 132.322 40.6777 132.322 41.6895V42.1406H128.027C128.043 42.7656 128.225 43.2715 128.572 43.6582C128.924 44.041 129.369 44.2324 129.908 44.2324C130.291 44.2324 130.615 44.1543 130.881 43.998C131.146 43.8418 131.379 43.6348 131.578 43.377L132.24 43.8926C131.709 44.709 130.912 45.1172 129.85 45.1172ZM129.715 39.4336C129.277 39.4336 128.91 39.5938 128.613 39.9141C128.316 40.2305 128.133 40.6758 128.062 41.25H131.238V41.168C131.207 40.6172 131.059 40.1914 130.793 39.8906C130.527 39.5859 130.168 39.4336 129.715 39.4336ZM136.646 39.6328C136.482 39.6055 136.305 39.5918 136.113 39.5918C135.402 39.5918 134.92 39.8945 134.666 40.5V45H133.582V38.6602H134.637L134.654 39.3926C135.01 38.8262 135.514 38.543 136.166 38.543C136.377 38.543 136.537 38.5703 136.646 38.625V39.6328ZM144.539 45C144.477 44.875 144.426 44.6523 144.387 44.332C143.883 44.8555 143.281 45.1172 142.582 45.1172C141.957 45.1172 141.443 44.9414 141.041 44.5898C140.643 44.2344 140.443 43.7852 140.443 43.2422C140.443 42.582 140.693 42.0703 141.193 41.707C141.697 41.3398 142.404 41.1562 143.314 41.1562H144.369V40.6582C144.369 40.2793 144.256 39.9785 144.029 39.7559C143.803 39.5293 143.469 39.416 143.027 39.416C142.641 39.416 142.316 39.5137 142.055 39.709C141.793 39.9043 141.662 40.1406 141.662 40.418H140.572C140.572 40.1016 140.684 39.7969 140.906 39.5039C141.133 39.207 141.438 38.9727 141.82 38.8008C142.207 38.6289 142.631 38.543 143.092 38.543C143.822 38.543 144.395 38.7266 144.809 39.0938C145.223 39.457 145.438 39.959 145.453 40.5996V43.5176C145.453 44.0996 145.527 44.5625 145.676 44.9062V45H144.539ZM142.74 44.1738C143.08 44.1738 143.402 44.0859 143.707 43.9102C144.012 43.7344 144.232 43.5059 144.369 43.2246V41.9238H143.52C142.191 41.9238 141.527 42.3125 141.527 43.0898C141.527 43.4297 141.641 43.6953 141.867 43.8867C142.094 44.0781 142.385 44.1738 142.74 44.1738ZM148.178 38.6602L148.213 39.457C148.697 38.8477 149.33 38.543 150.111 38.543C151.451 38.543 152.127 39.2988 152.139 40.8105V45H151.055V40.8047C151.051 40.3477 150.945 40.0098 150.738 39.791C150.535 39.5723 150.217 39.4629 149.783 39.4629C149.432 39.4629 149.123 39.5566 148.857 39.7441C148.592 39.9316 148.385 40.1777 148.236 40.4824V45H147.152V38.6602H148.178ZM153.51 41.7773C153.51 40.8047 153.74 40.0234 154.201 39.4336C154.662 38.8398 155.266 38.543 156.012 38.543C156.754 38.543 157.342 38.7969 157.775 39.3047V36H158.859V45H157.863L157.811 44.3203C157.377 44.8516 156.773 45.1172 156 45.1172C155.266 45.1172 154.666 44.8164 154.201 44.2148C153.74 43.6133 153.51 42.8281 153.51 41.8594V41.7773ZM154.594 41.9004C154.594 42.6191 154.742 43.1816 155.039 43.5879C155.336 43.9941 155.746 44.1973 156.27 44.1973C156.957 44.1973 157.459 43.8887 157.775 43.2715V40.3594C157.451 39.7617 156.953 39.4629 156.281 39.4629C155.75 39.4629 155.336 39.668 155.039 40.0781C154.742 40.4883 154.594 41.0957 154.594 41.9004ZM164.057 45V39.498H163.055V38.6602H164.057V38.0098C164.057 37.3301 164.238 36.8047 164.602 36.4336C164.965 36.0625 165.479 35.877 166.143 35.877C166.393 35.877 166.641 35.9102 166.887 35.9766L166.828 36.8555C166.645 36.8203 166.449 36.8027 166.242 36.8027C165.891 36.8027 165.619 36.9062 165.428 37.1133C165.236 37.3164 165.141 37.6094 165.141 37.9922V38.6602H166.494V39.498H165.141V45H164.057ZM171.609 45C171.547 44.875 171.496 44.6523 171.457 44.332C170.953 44.8555 170.352 45.1172 169.652 45.1172C169.027 45.1172 168.514 44.9414 168.111 44.5898C167.713 44.2344 167.514 43.7852 167.514 43.2422C167.514 42.582 167.764 42.0703 168.264 41.707C168.768 41.3398 169.475 41.1562 170.385 41.1562H171.439V40.6582C171.439 40.2793 171.326 39.9785 171.1 39.7559C170.873 39.5293 170.539 39.416 170.098 39.416C169.711 39.416 169.387 39.5137 169.125 39.709C168.863 39.9043 168.732 40.1406 168.732 40.418H167.643C167.643 40.1016 167.754 39.7969 167.977 39.5039C168.203 39.207 168.508 38.9727 168.891 38.8008C169.277 38.6289 169.701 38.543 170.162 38.543C170.893 38.543 171.465 38.7266 171.879 39.0938C172.293 39.457 172.508 39.959 172.523 40.5996V43.5176C172.523 44.0996 172.598 44.5625 172.746 44.9062V45H171.609ZM169.811 44.1738C170.15 44.1738 170.473 44.0859 170.777 43.9102C171.082 43.7344 171.303 43.5059 171.439 43.2246V41.9238H170.59C169.262 41.9238 168.598 42.3125 168.598 43.0898C168.598 43.4297 168.711 43.6953 168.938 43.8867C169.164 44.0781 169.455 44.1738 169.811 44.1738ZM177.914 43.3184C177.914 43.0254 177.803 42.7988 177.58 42.6387C177.361 42.4746 176.977 42.334 176.426 42.2168C175.879 42.0996 175.443 41.959 175.119 41.7949C174.799 41.6309 174.561 41.4355 174.404 41.209C174.252 40.9824 174.176 40.7129 174.176 40.4004C174.176 39.8809 174.395 39.4414 174.832 39.082C175.273 38.7227 175.836 38.543 176.52 38.543C177.238 38.543 177.82 38.7285 178.266 39.0996C178.715 39.4707 178.939 39.9453 178.939 40.5234H177.85C177.85 40.2266 177.723 39.9707 177.469 39.7559C177.219 39.541 176.902 39.4336 176.52 39.4336C176.125 39.4336 175.816 39.5195 175.594 39.6914C175.371 39.8633 175.26 40.0879 175.26 40.3652C175.26 40.627 175.363 40.8242 175.57 40.957C175.777 41.0898 176.15 41.2168 176.689 41.3379C177.232 41.459 177.672 41.6035 178.008 41.7715C178.344 41.9395 178.592 42.1426 178.752 42.3809C178.916 42.6152 178.998 42.9023 178.998 43.2422C178.998 43.8086 178.771 44.2637 178.318 44.6074C177.865 44.9473 177.277 45.1172 176.555 45.1172C176.047 45.1172 175.598 45.0273 175.207 44.8477C174.816 44.668 174.51 44.418 174.287 44.0977C174.068 43.7734 173.959 43.4238 173.959 43.0488H175.043C175.062 43.4121 175.207 43.7012 175.477 43.916C175.75 44.127 176.109 44.2324 176.555 44.2324C176.965 44.2324 177.293 44.1504 177.539 43.9863C177.789 43.8184 177.914 43.5957 177.914 43.3184ZM181.881 37.125V38.6602H183.064V39.498H181.881V43.4297C181.881 43.6836 181.934 43.875 182.039 44.0039C182.145 44.1289 182.324 44.1914 182.578 44.1914C182.703 44.1914 182.875 44.168 183.094 44.1211V45C182.809 45.0781 182.531 45.1172 182.262 45.1172C181.777 45.1172 181.412 44.9707 181.166 44.6777C180.92 44.3848 180.797 43.9688 180.797 43.4297V39.498H179.643V38.6602H180.797V37.125H181.881ZM186.967 45.1172C186.107 45.1172 185.408 44.8359 184.869 44.2734C184.33 43.707 184.061 42.9512 184.061 42.0059V41.8066C184.061 41.1777 184.18 40.6172 184.418 40.125C184.66 39.6289 184.996 39.2422 185.426 38.9648C185.859 38.6836 186.328 38.543 186.832 38.543C187.656 38.543 188.297 38.8145 188.754 39.3574C189.211 39.9004 189.439 40.6777 189.439 41.6895V42.1406H185.145C185.16 42.7656 185.342 43.2715 185.689 43.6582C186.041 44.041 186.486 44.2324 187.025 44.2324C187.408 44.2324 187.732 44.1543 187.998 43.998C188.264 43.8418 188.496 43.6348 188.695 43.377L189.357 43.8926C188.826 44.709 188.029 45.1172 186.967 45.1172ZM186.832 39.4336C186.395 39.4336 186.027 39.5938 185.73 39.9141C185.434 40.2305 185.25 40.6758 185.18 41.25H188.355V41.168C188.324 40.6172 188.176 40.1914 187.91 39.8906C187.645 39.5859 187.285 39.4336 186.832 39.4336ZM193.764 39.6328C193.6 39.6055 193.422 39.5918 193.23 39.5918C192.52 39.5918 192.037 39.8945 191.783 40.5V45H190.699V38.6602H191.754L191.771 39.3926C192.127 38.8262 192.631 38.543 193.283 38.543C193.494 38.543 193.654 38.5703 193.764 38.625V39.6328ZM200.373 45.1172C199.514 45.1172 198.814 44.8359 198.275 44.2734C197.736 43.707 197.467 42.9512 197.467 42.0059V41.8066C197.467 41.1777 197.586 40.6172 197.824 40.125C198.066 39.6289 198.402 39.2422 198.832 38.9648C199.266 38.6836 199.734 38.543 200.238 38.543C201.062 38.543 201.703 38.8145 202.16 39.3574C202.617 39.9004 202.846 40.6777 202.846 41.6895V42.1406H198.551C198.566 42.7656 198.748 43.2715 199.096 43.6582C199.447 44.041 199.893 44.2324 200.432 44.2324C200.814 44.2324 201.139 44.1543 201.404 43.998C201.67 43.8418 201.902 43.6348 202.102 43.377L202.764 43.8926C202.232 44.709 201.436 45.1172 200.373 45.1172ZM200.238 39.4336C199.801 39.4336 199.434 39.5938 199.137 39.9141C198.84 40.2305 198.656 40.6758 198.586 41.25H201.762V41.168C201.73 40.6172 201.582 40.1914 201.316 39.8906C201.051 39.5859 200.691 39.4336 200.238 39.4336ZM206.232 40.9746L207.639 38.6602H208.904L206.83 41.7949L208.969 45H207.715L206.25 42.627L204.785 45H203.525L205.664 41.7949L203.59 38.6602H204.844L206.232 40.9746ZM215.414 41.9004C215.414 42.8652 215.193 43.6426 214.752 44.2324C214.311 44.8223 213.713 45.1172 212.959 45.1172C212.189 45.1172 211.584 44.873 211.143 44.3848V47.4375H210.059V38.6602H211.049L211.102 39.3633C211.543 38.8164 212.156 38.543 212.941 38.543C213.703 38.543 214.305 38.8301 214.746 39.4043C215.191 39.9785 215.414 40.7773 215.414 41.8008V41.9004ZM214.33 41.7773C214.33 41.0625 214.178 40.498 213.873 40.084C213.568 39.6699 213.15 39.4629 212.619 39.4629C211.963 39.4629 211.471 39.7539 211.143 40.3359V43.3652C211.467 43.9434 211.963 44.2324 212.631 44.2324C213.15 44.2324 213.562 44.0273 213.867 43.6172C214.176 43.2031 214.33 42.5898 214.33 41.7773ZM219.428 45.1172C218.568 45.1172 217.869 44.8359 217.33 44.2734C216.791 43.707 216.521 42.9512 216.521 42.0059V41.8066C216.521 41.1777 216.641 40.6172 216.879 40.125C217.121 39.6289 217.457 39.2422 217.887 38.9648C218.32 38.6836 218.789 38.543 219.293 38.543C220.117 38.543 220.758 38.8145 221.215 39.3574C221.672 39.9004 221.9 40.6777 221.9 41.6895V42.1406H217.605C217.621 42.7656 217.803 43.2715 218.15 43.6582C218.502 44.041 218.947 44.2324 219.486 44.2324C219.869 44.2324 220.193 44.1543 220.459 43.998C220.725 43.8418 220.957 43.6348 221.156 43.377L221.818 43.8926C221.287 44.709 220.49 45.1172 219.428 45.1172ZM219.293 39.4336C218.855 39.4336 218.488 39.5938 218.191 39.9141C217.895 40.2305 217.711 40.6758 217.641 41.25H220.816V41.168C220.785 40.6172 220.637 40.1914 220.371 39.8906C220.105 39.5859 219.746 39.4336 219.293 39.4336ZM226.225 39.6328C226.061 39.6055 225.883 39.5918 225.691 39.5918C224.98 39.5918 224.498 39.8945 224.244 40.5V45H223.16V38.6602H224.215L224.232 39.3926C224.588 38.8262 225.092 38.543 225.744 38.543C225.955 38.543 226.115 38.5703 226.225 38.625V39.6328ZM228.404 45H227.32V38.6602H228.404V45ZM227.232 36.9785C227.232 36.8027 227.285 36.6543 227.391 36.5332C227.5 36.4121 227.66 36.3516 227.871 36.3516C228.082 36.3516 228.242 36.4121 228.352 36.5332C228.461 36.6543 228.516 36.8027 228.516 36.9785C228.516 37.1543 228.461 37.3008 228.352 37.418C228.242 37.5352 228.082 37.5938 227.871 37.5938C227.66 37.5938 227.5 37.5352 227.391 37.418C227.285 37.3008 227.232 37.1543 227.232 36.9785ZM232.775 45.1172C231.916 45.1172 231.217 44.8359 230.678 44.2734C230.139 43.707 229.869 42.9512 229.869 42.0059V41.8066C229.869 41.1777 229.988 40.6172 230.227 40.125C230.469 39.6289 230.805 39.2422 231.234 38.9648C231.668 38.6836 232.137 38.543 232.641 38.543C233.465 38.543 234.105 38.8145 234.562 39.3574C235.02 39.9004 235.248 40.6777 235.248 41.6895V42.1406H230.953C230.969 42.7656 231.15 43.2715 231.498 43.6582C231.85 44.041 232.295 44.2324 232.834 44.2324C233.217 44.2324 233.541 44.1543 233.807 43.998C234.072 43.8418 234.305 43.6348 234.504 43.377L235.166 43.8926C234.635 44.709 233.838 45.1172 232.775 45.1172ZM232.641 39.4336C232.203 39.4336 231.836 39.5938 231.539 39.9141C231.242 40.2305 231.059 40.6758 230.988 41.25H234.164V41.168C234.133 40.6172 233.984 40.1914 233.719 39.8906C233.453 39.5859 233.094 39.4336 232.641 39.4336ZM237.533 38.6602L237.568 39.457C238.053 38.8477 238.686 38.543 239.467 38.543C240.807 38.543 241.482 39.2988 241.494 40.8105V45H240.41V40.8047C240.406 40.3477 240.301 40.0098 240.094 39.791C239.891 39.5723 239.572 39.4629 239.139 39.4629C238.787 39.4629 238.479 39.5566 238.213 39.7441C237.947 39.9316 237.74 40.1777 237.592 40.4824V45H236.508V38.6602H237.533ZM245.672 44.2324C246.059 44.2324 246.396 44.1152 246.686 43.8809C246.975 43.6465 247.135 43.3535 247.166 43.002H248.191C248.172 43.3652 248.047 43.7109 247.816 44.0391C247.586 44.3672 247.277 44.6289 246.891 44.8242C246.508 45.0195 246.102 45.1172 245.672 45.1172C244.809 45.1172 244.121 44.8301 243.609 44.2559C243.102 43.6777 242.848 42.8887 242.848 41.8887V41.707C242.848 41.0898 242.961 40.541 243.188 40.0605C243.414 39.5801 243.738 39.207 244.16 38.9414C244.586 38.6758 245.088 38.543 245.666 38.543C246.377 38.543 246.967 38.7559 247.436 39.1816C247.908 39.6074 248.16 40.1602 248.191 40.8398H247.166C247.135 40.4297 246.979 40.0938 246.697 39.832C246.42 39.5664 246.076 39.4336 245.666 39.4336C245.115 39.4336 244.688 39.6328 244.383 40.0312C244.082 40.4258 243.932 40.998 243.932 41.748V41.9531C243.932 42.6836 244.082 43.2461 244.383 43.6406C244.684 44.0352 245.113 44.2324 245.672 44.2324ZM252.041 45.1172C251.182 45.1172 250.482 44.8359 249.943 44.2734C249.404 43.707 249.135 42.9512 249.135 42.0059V41.8066C249.135 41.1777 249.254 40.6172 249.492 40.125C249.734 39.6289 250.07 39.2422 250.5 38.9648C250.934 38.6836 251.402 38.543 251.906 38.543C252.73 38.543 253.371 38.8145 253.828 39.3574C254.285 39.9004 254.514 40.6777 254.514 41.6895V42.1406H250.219C250.234 42.7656 250.416 43.2715 250.764 43.6582C251.115 44.041 251.561 44.2324 252.1 44.2324C252.482 44.2324 252.807 44.1543 253.072 43.998C253.338 43.8418 253.57 43.6348 253.77 43.377L254.432 43.8926C253.9 44.709 253.104 45.1172 252.041 45.1172ZM251.906 39.4336C251.469 39.4336 251.102 39.5938 250.805 39.9141C250.508 40.2305 250.324 40.6758 250.254 41.25H253.43V41.168C253.398 40.6172 253.25 40.1914 252.984 39.8906C252.719 39.5859 252.359 39.4336 251.906 39.4336ZM256.986 42.5918H256.008L255.932 36.4688H257.068L256.986 42.5918ZM255.891 44.4551C255.891 44.2793 255.943 44.1328 256.049 44.0156C256.158 43.8945 256.318 43.834 256.529 43.834C256.74 43.834 256.9 43.8945 257.01 44.0156C257.119 44.1328 257.174 44.2793 257.174 44.4551C257.174 44.6309 257.119 44.7773 257.01 44.8945C256.9 45.0078 256.74 45.0645 256.529 45.0645C256.318 45.0645 256.158 45.0078 256.049 44.8945C255.943 44.7773 255.891 44.6309 255.891 44.4551Z" fill="#676574"/>
<path d="M27 27L17 37" stroke="#13101D" stroke-width="1.66667" stroke-linecap="round" stroke-linejoin="round"/>
<path d="M17 27L27 37" stroke="#13101D" stroke-width="1.66667" stroke-linecap="round" stroke-linejoin="round"/>
<path d="M320 63H0V64H320V63Z" fill="#E5E5E7"/>
</g>
<defs>
<clipPath id="clip0_80_3678">
<rect width="360" height="64" fill="white"/>
</clipPath>
</defs>
</svg>
