<svg xmlns="http://www.w3.org/2000/svg" width="491" height="370" viewBox="0 0 491 370">
    <g fill="none" fill-rule="evenodd">
        <g>
            <g>
                <path stroke="#9FB8FC" stroke-dasharray="6 6" stroke-width="4" d="M68.482 158.13c-34.272-32.56 84.376 80.084 143.115 56.124 39.16-15.973 60.854-47.562 65.083-94.766" transform="translate(-115 -473) translate(115 473)"/>
                <g>
                    <path fill="#002F34" d="M0 3.296L247.973 3.296 262.8 17.717 262.8 119.488 0 119.488z" opacity=".08" transform="translate(-115 -473) translate(115 473) translate(202.534)"/>
                    <path fill="#FFF" d="M0 0L247.973 0 262.8 14.421 262.8 116.192 0 116.192z" transform="translate(-115 -473) translate(115 473) translate(202.534)"/>
                    <path fill="#0038C0" fill-rule="nonzero" d="M25.555 38.666c1.418 0 2.546-.315 3.384-.945.838-.63 1.257-1.499 1.257-2.606 0-.996-.343-1.828-1.029-2.496-.685-.668-1.778-1.228-3.278-1.679-.814-.246-1.431-.51-1.85-.79-.419-.282-.629-.63-.629-1.047 0-.445.18-.804.537-1.076.357-.273.858-.41 1.503-.41.668 0 1.186.164 1.555.489.37.325.554.78.554 1.366h2.637c0-.767-.198-1.453-.594-2.056-.395-.604-.95-1.071-1.665-1.402-.715-.331-1.53-.497-2.444-.497-.908 0-1.727.153-2.456.457-.73.305-1.29.728-1.679 1.27-.39.542-.584 1.16-.584 1.85 0 1.33.726 2.388 2.18 3.173.533.287 1.256.579 2.17.875.914.296 1.547.577 1.899.844.351.266.527.649.527 1.147 0 .457-.176.813-.527 1.067-.352.255-.841.383-1.468.383-1.687 0-2.531-.706-2.531-2.118h-2.646c0 .826.213 1.552.637 2.18.425.626 1.042 1.12 1.85 1.48.81.36 1.706.54 2.69.54zm9.114 0c.985 0 1.784-.343 2.4-1.029.052.34.137.624.255.853h2.566v-.15c-.246-.462-.372-1.145-.378-2.047V32.17c0-1.067-.344-1.894-1.033-2.483-.688-.59-1.618-.884-2.79-.884-.774 0-1.47.134-2.092.4-.621.267-1.102.635-1.441 1.103-.34.47-.51.979-.51 1.53h2.54c0-.358.121-.639.365-.844.243-.205.578-.308 1.006-.308.486 0 .842.132 1.068.396.225.263.338.615.338 1.054v.545h-1.169c-1.412.006-2.491.279-3.238.818-.748.539-1.121 1.312-1.121 2.32 0 .82.306 1.5.918 2.04.613.538 1.385.808 2.316.808zm.554-1.943c-.387 0-.691-.102-.914-.307-.223-.205-.334-.466-.334-.782l.009-.15c.082-.879.759-1.318 2.03-1.318h.95V35.8c-.153.28-.388.505-.704.672-.316.167-.662.25-1.037.25zm8.92 1.767v-13.5h-2.548v13.5h2.549zm6.47.176c.79 0 1.511-.151 2.162-.453.65-.302 1.166-.722 1.547-1.261l-1.248-1.398c-.551.71-1.316 1.064-2.294 1.064-.633 0-1.156-.188-1.57-.563-.412-.375-.66-.873-.742-1.494h6.056v-1.037c0-1.506-.374-2.669-1.12-3.49-.748-.82-1.772-1.23-3.073-1.23-.867 0-1.639.204-2.316.611-.676.407-1.2.988-1.568 1.74-.37.753-.554 1.607-.554 2.563v.246c0 1.423.438 2.563 1.314 3.419.876.855 2.011 1.283 3.406 1.283zm1.415-5.836h-3.534c.088-.633.289-1.12.603-1.46.313-.339.722-.509 1.226-.509.539 0 .955.154 1.248.461.293.308.445.743.457 1.306v.202zm7.558 5.836c1.178 0 2.139-.268 2.883-.804.744-.537 1.116-1.238 1.116-2.105 0-1.213-.67-2.066-2.012-2.558-.434-.158-.967-.3-1.6-.426-.633-.126-1.083-.276-1.35-.449-.266-.172-.399-.4-.399-.68 0-.3.117-.546.352-.739.234-.193.565-.29.993-.29.498 0 .864.119 1.098.356.235.237.352.538.352.9h2.54c0-.907-.362-1.646-1.086-2.214-.723-.568-1.688-.853-2.896-.853-1.13 0-2.046.283-2.746.849-.7.565-1.05 1.27-1.05 2.113 0 1.448 1.13 2.409 3.392 2.883.68.14 1.174.3 1.481.48.308.178.462.423.462.733 0 .299-.125.54-.374.725-.249.185-.617.277-1.103.277-.521 0-.938-.12-1.248-.36-.31-.24-.478-.586-.501-1.037h-2.408c0 .574.176 1.108.527 1.604.352.495.837.884 1.455 1.168.618.285 1.325.427 2.122.427zm18.862-.176v-2.118h-5.942v-3.428h5.063V30.88h-5.063v-3.05h5.924v-2.136h-8.56V38.49h8.578zm3.322 0l1.687-2.988 1.697 2.988h2.724l-2.821-4.852 2.707-4.658h-2.716l-1.6 2.84-1.564-2.84H79.16l2.698 4.658-2.822 4.852h2.734zm11.593.176c.79 0 1.511-.151 2.162-.453.65-.302 1.166-.722 1.547-1.261l-1.248-1.398c-.551.71-1.316 1.064-2.294 1.064-.633 0-1.156-.188-1.57-.563-.412-.375-.66-.873-.742-1.494h6.056v-1.037c0-1.506-.374-2.669-1.12-3.49-.748-.82-1.772-1.23-3.073-1.23-.867 0-1.639.204-2.316.611-.676.407-1.2.988-1.568 1.74-.37.753-.554 1.607-.554 2.563v.246c0 1.423.438 2.563 1.314 3.419.876.855 2.011 1.283 3.406 1.283zm1.415-5.836h-3.534c.088-.633.289-1.12.603-1.46.313-.339.722-.509 1.226-.509.539 0 .955.154 1.248.461.293.308.445.743.457 1.306v.202zm7.936 5.836c.727 0 1.39-.148 1.99-.444.602-.296 1.075-.712 1.42-1.248.346-.536.522-1.127.528-1.771h-2.382c-.012.428-.164.77-.457 1.028-.293.258-.674.387-1.143.387-.61 0-1.063-.214-1.362-.642-.299-.427-.448-1.13-.448-2.11v-.263c0-.967.15-1.665.452-2.096.302-.43.749-.646 1.34-.646.481 0 .868.154 1.16.461.294.308.446.708.458 1.2h2.382c-.012-1.125-.377-2.026-1.095-2.702-.717-.677-1.67-1.016-2.86-1.016-1.36 0-2.43.437-3.208 1.31-.78.873-1.17 2.042-1.17 3.507v.167c0 1.523.393 2.717 1.178 3.581.786.865 1.858 1.297 3.217 1.297zm8.482 0c1.107 0 1.974-.381 2.601-1.143l.07.967h2.391v-9.51h-2.549v6.733c-.322.597-.914.896-1.775.896-.902 0-1.354-.495-1.354-1.485V28.98h-2.54v6.232c.012 1.13.286 1.989.822 2.575.536.586 1.314.879 2.334.879zm10.204 0c.527 0 1.04-.076 1.538-.229v-1.925c-.217.041-.466.062-.747.062-.381 0-.639-.076-.774-.229-.134-.152-.202-.404-.202-.755v-4.747h1.626V28.98h-1.626v-2.338h-2.54v2.338h-1.389v1.863h1.39v5.125c.034 1.798.942 2.698 2.724 2.698zm4.262-10.828c.428 0 .772-.123 1.033-.37.26-.246.391-.562.391-.949 0-.38-.129-.694-.386-.94-.258-.246-.604-.37-1.038-.37-.439 0-.786.124-1.041.37-.255.246-.382.56-.382.94 0 .387.13.703.39.95.261.246.606.369 1.033.369zm1.275 10.652v-9.51h-2.549v9.51h2.549zm6.864 0l3.208-9.51h-2.654l-1.767 6.407-1.766-6.407h-2.655l3.208 9.51h2.426zm8.701.176c.791 0 1.512-.151 2.162-.453.65-.302 1.166-.722 1.547-1.261l-1.248-1.398c-.55.71-1.315 1.064-2.294 1.064-.633 0-1.155-.188-1.569-.563-.413-.375-.66-.873-.742-1.494h6.055v-1.037c0-1.506-.373-2.669-1.12-3.49-.747-.82-1.771-1.23-3.072-1.23-.867 0-1.64.204-2.316.611-.677.407-1.2.988-1.569 1.74-.369.753-.553 1.607-.553 2.563v.246c0 1.423.438 2.563 1.314 3.419.875.855 2.01 1.283 3.405 1.283zm1.415-5.836h-3.533c.088-.633.289-1.12.602-1.46.314-.339.722-.509 1.226-.509.54 0 .955.154 1.248.461.293.308.446.743.457 1.306v.202z" transform="translate(-115 -473) translate(115 473) translate(202.534)"/>
                    <path fill="#001443" fill-rule="nonzero" d="M23.926 57.74v-3.182l2.942-5.35H25.59l-2.226 4.283-2.215-4.283h-1.29l2.942 5.35v3.181h1.125zm6.475.117c.57 0 1.075-.137 1.514-.41.44-.274.778-.656 1.014-1.146.236-.49.355-1.044.355-1.661v-.076c0-.993-.267-1.787-.8-2.385-.533-.598-1.232-.897-2.095-.897-.559 0-1.056.135-1.491.405-.436.27-.776.652-1.02 1.148-.244.496-.366 1.055-.366 1.676v.076c0 .984.267 1.775.8 2.373.533.598 1.23.897 2.089.897zm0-.885c-.547 0-.984-.213-1.31-.639-.326-.426-.49-.99-.49-1.693 0-.793.165-1.403.493-1.828.328-.426.76-.639 1.295-.639.547 0 .985.216 1.315.647.33.432.496.996.496 1.69 0 .778-.163 1.383-.487 1.814-.324.432-.762.648-1.312.648zm6.299.885c.816 0 1.435-.248 1.857-.745l.023.627h1.032V51.4h-1.084v4.612c-.274.617-.825.926-1.653.926-.78 0-1.172-.48-1.172-1.442V51.4H34.62v4.125c.004.77.183 1.35.537 1.743.353.392.868.589 1.544.589zm5.642-.118v-4.5c.254-.605.736-.908 1.447-.908.192 0 .37.014.534.041v-1.008c-.11-.054-.27-.082-.48-.082-.653 0-1.157.284-1.513.85l-.017-.732h-1.055v6.34h1.084zm9.158.118c.93 0 1.675-.246 2.236-.736.56-.49.893-1.186.999-2.089h-1.131c-.11.704-.331 1.197-.665 1.48-.334.283-.814.425-1.439.425-.695 0-1.236-.274-1.623-.82-.386-.548-.58-1.284-.58-2.21v-.826c0-.98.204-1.736.613-2.267.408-.532.971-.797 1.69-.797.586 0 1.042.152 1.368.457.326.304.538.797.636 1.476h1.13c-.09-.894-.408-1.594-.954-2.1-.547-.506-1.274-.759-2.18-.759-.684 0-1.285.161-1.805.483-.52.323-.92.785-1.204 1.386-.283.602-.425 1.299-.425 2.092v.82c0 1.211.304 2.178.911 2.9.608.723 1.416 1.085 2.423 1.085zm7.201 0c.57 0 1.076-.137 1.515-.41.44-.274.777-.656 1.014-1.146.236-.49.354-1.044.354-1.661v-.076c0-.993-.266-1.787-.8-2.385-.533-.598-1.23-.897-2.094-.897-.559 0-1.056.135-1.491.405-.436.27-.776.652-1.02 1.148-.244.496-.366 1.055-.366 1.676v.076c0 .984.266 1.775.8 2.373.533.598 1.23.897 2.088.897zm0-.885c-.546 0-.983-.213-1.31-.639-.325-.426-.488-.99-.488-1.693 0-.793.164-1.403.492-1.828.328-.426.76-.639 1.295-.639.547 0 .985.216 1.315.647.33.432.495.996.495 1.69 0 .778-.162 1.383-.486 1.814-.324.432-.762.648-1.313.648zm5.32.767v-4.628c.263-.606.749-.909 1.46-.909.902 0 1.353.461 1.353 1.383v4.154h1.09v-4.207c.043-.406.197-.73.463-.97s.6-.36 1.002-.36c.488 0 .836.113 1.043.337.207.225.31.564.31 1.017v4.183h1.084v-4.248c-.023-1.472-.73-2.209-2.12-2.209-.462 0-.86.094-1.199.282-.338.187-.612.433-.823.738-.32-.68-.924-1.02-1.81-1.02-.79 0-1.417.274-1.881.82l-.03-.702h-1.025v6.34h1.084zm10.524 2.438v-3.053c.442.488 1.047.733 1.817.733.754 0 1.351-.295 1.793-.885.441-.59.662-1.367.662-2.332v-.1c0-1.023-.222-1.822-.665-2.396-.444-.575-1.046-.862-1.808-.862-.785 0-1.398.274-1.84.82l-.053-.702h-.99v8.777h1.084zm1.489-3.205c-.668 0-1.165-.29-1.489-.867v-3.03c.328-.582.82-.873 1.477-.873.531 0 .949.207 1.254.621.304.414.457.979.457 1.694 0 .812-.154 1.425-.46 1.837-.307.412-.72.618-1.24.618zm6.117.885c.699 0 1.3-.262 1.804-.786.04.32.09.543.153.668h1.136v-.093c-.148-.344-.222-.807-.222-1.389v-2.918c-.016-.64-.23-1.144-.645-1.509-.414-.365-.986-.548-1.717-.548-.46 0-.883.086-1.268.258-.385.172-.69.405-.914.7-.225.295-.337.601-.337.917h1.09c0-.277.13-.513.392-.709.262-.195.586-.293.973-.293.441 0 .775.113 1.002.337.227.225.34.527.34.906v.498h-1.055c-.91 0-1.616.182-2.118.548-.502.365-.753.877-.753 1.538 0 .543.2.99.6 1.344.401.354.914.53 1.539.53zm.158-.944c-.356 0-.647-.095-.873-.287-.227-.191-.34-.457-.34-.797 0-.777.664-1.166 1.992-1.166h.85v1.301c-.137.281-.358.51-.662.686-.305.175-.627.263-.967.263zm5.496.826v-4.517c.148-.305.355-.55.621-.738.266-.188.574-.282.926-.282.433 0 .753.11.958.328.205.22.31.557.313 1.014v4.195h1.084V53.55c-.011-1.512-.687-2.268-2.027-2.268-.781 0-1.414.305-1.898.914l-.036-.796h-1.025v6.34h1.084zm5.818 2.561c.86 0 1.487-.527 1.881-1.582l2.55-7.318h-1.161l-1.477 4.752-1.582-4.752h-1.183l2.261 6.27-.24.644c-.133.394-.302.666-.507.814-.205.149-.49.223-.858.223l-.293-.024v.88l.404.075.205.018z" transform="translate(-115 -473) translate(115 473) translate(202.534)"/>
                    <path fill="#F2F4F5" d="M19.772 75.813H207.60399999999998V84.054H19.772zM19.772 92.294H174.65099999999998V100.535H19.772z" transform="translate(-115 -473) translate(115 473) translate(202.534)"/>
                </g>
                <g fill-rule="nonzero">
                    <g transform="translate(-115 -473) translate(115 473) translate(0 120.312) rotate(-20 88.184 14.385)">
                        <path fill="#CAD8FB" d="M68.865 3.151H7.988c-4.203 0-7.61 3.975-7.61 8.879v129.336c0 4.904 3.407 8.879 7.61 8.879h60.877c4.203 0 7.61-3.975 7.61-8.88v-17.757l-22.83-55.79 22.83-55.788c0-4.904-3.407-8.879-7.61-8.879z"/>
                        <path fill="#13624E" d="M82.013 1.296H74.21v144.427h7.804c4.311 0 7.805-3.903 7.805-8.718V10.015c0-4.816-3.494-8.719-7.805-8.719z"/>
                        <path fill="#489481" d="M76.361.619H15.485c-4.203 0-7.61 3.975-7.61 8.879v129.335c0 4.904 3.407 8.88 7.61 8.88H76.36c4.203 0 7.61-3.976 7.61-8.88v-17.757l-22.829-55.79L83.971 9.499c0-4.904-3.407-8.88-7.61-8.88z"/>
                        <path fill="#13624E" d="M53.627 133.027c0-2.156-1.748-3.904-3.903-3.904H41.92c-2.155 0-3.903 1.748-3.903 3.904 0 2.156 1.748 3.903 3.903 3.903h7.804c2.155 0 3.903-1.747 3.903-3.903z"/>
                        <path fill="#489481" d="M48.928 63.671L75.034 118.521 83.638 118.365 83.882 9.275 74.726 9.283z"/>
                        <path fill="#FFFBEF" d="M59.398 9.513l-5.346 6.15c-1.374 1.573-3.263 2.547-5.346 2.547s-3.972-.974-5.341-2.547c-.005 0-5.352-6.15-5.352-6.15h-23.33v109.296h60.486V9.513h-15.77z"/>
                        <ellipse cx="49.192" cy="9.636" fill="#13624E" rx="1.951" ry="1.952"/>
                    </g>
                    <g>
                        <path fill="#AA133D" d="M53.207 5.137H6.615c-3.509 0-6.353 2.845-6.353 6.355l.32 22.173c0 3.51 2.844 6.355 6.353 6.355h7.519L13.3 50.379c-.128 1.163.71 2.21 1.873 2.338.6.066 1.2-.127 1.65-.531L30.338 40.02h23.188c3.51 0 6.354-2.845 6.354-6.355l-.32-22.173c0-3.51-2.845-6.355-6.354-6.355z" opacity=".08" transform="translate(-115 -473) translate(115 473) translate(0 120.312) rotate(-20 183.018 -151.257)"/>
                        <path fill="#FFB130" d="M58.804.598H12.212c-3.509 0-6.353 2.845-6.353 6.355l.32 22.172c0 3.51 2.844 6.355 6.353 6.355h7.518l-1.152 10.36c-.128 1.162.71 2.21 1.873 2.338.6.066 1.2-.127 1.65-.532L35.935 35.48h23.188c3.51 0 6.354-2.845 6.354-6.355l-.32-22.172c0-3.51-2.845-6.355-6.354-6.355z" transform="translate(-115 -473) translate(115 473) translate(0 120.312) rotate(-20 183.018 -151.257)"/>
                    </g>
                </g>
                <path stroke="#9FB8FC" stroke-dasharray="6 6" stroke-width="4" d="M331.876 119.488c-18.547 34.466-17.037 56.03 4.53 64.688 40.368 16.206 51.765 42.988 34.19 80.345M386.66 116.192c-19.916 20.774-24.173 36.98-12.77 48.619 11.405 11.638 35.982 16.17 73.733 13.597" transform="translate(-115 -473) translate(115 473)"/>
                <g fill-rule="nonzero">
                    <path fill="#EAEAEA" d="M15.342 50.495L25.241 41.351 35.139 39.724 65.906 0.043 40.624 8.115 15.342 14.724 10.776 25.021 16.483 32.899z" transform="translate(-115 -473) translate(115 473) translate(424.968 135.969)"/>
                    <path fill="#D5DFF9" d="M65.906.043L10.776 25.02 1.74 19.569c-2.804-1.693-2.072-5.947 1.137-6.605L65.906.043z" transform="translate(-115 -473) translate(115 473) translate(424.968 135.969)"/>
                    <path fill="#265AE3" d="M35.139 39.724L15.342 50.495 22.684 32.207z" transform="translate(-115 -473) translate(115 473) translate(424.968 135.969)"/>
                    <path fill="#D5DFF9" d="M65.906.043l-16.3 43.44c-.791 2.108-3.299 2.98-5.225 1.818l-9.242-5.577-12.455-7.517L65.906.043z" transform="translate(-115 -473) translate(115 473) translate(424.968 135.969)"/>
                    <path fill="#517CE9" d="M65.906 0.043L22.684 32.207 15.342 50.495 10.776 25.021z" transform="translate(-115 -473) translate(115 473) translate(424.968 135.969)"/>
                </g>
                <g fill-rule="nonzero" transform="translate(-115 -473) translate(115 473) rotate(28 -262.882 649.678)">
                    <path fill="#CAD8FB" d="M.457 13.447c0-3.673 2.976-6.65 6.647-6.65H112.44c3.672 0 6.647 2.977 6.647 6.65v105.365c0 3.672-2.975 6.65-6.647 6.65H7.104c-3.671 0-6.647-2.978-6.647-6.65V13.447z"/>
                    <g>
                        <path fill="#FFF" d="M111.983 118.834H6.647c-3.671 0-6.647-2.977-6.647-6.65V24.723h118.63v87.463c0 3.672-2.975 6.65-6.647 6.65z" transform="translate(6.92)"/>
                        <g>
                            <path fill="#F2F4F5" d="M4.943 0H34.601V29.666H4.943z" transform="translate(6.92) translate(40.532 56.365)"/>
                            <path fill="#D8DFE0" d="M19.772 17.953L34.601 29.666 34.601 6.541z" transform="translate(6.92) translate(40.532 56.365)"/>
                            <path fill="#489481" d="M35.836 0h-1.235L19.77 11.713 4.944 0H3.707C1.661 0 0 1.661 0 3.708v22.25c0 2.047 1.66 3.708 3.707 3.708h1.236V6.54l14.829 11.41L34.6 6.538v23.127h1.235c2.047 0 3.708-1.661 3.708-3.708V3.708C39.544 1.661 37.883 0 35.836 0z" transform="translate(6.92) translate(40.532 56.365)"/>
                        </g>
                        <path fill="#489481" d="M118.63 24.551H0V6.65C0 2.977 2.976 0 6.647 0h105.336c3.672 0 6.648 2.977 6.648 6.65V24.55z" transform="translate(6.92)"/>
                    </g>
                    <rect width="8.181" height="8.184" x="15.101" y="8.184" fill="#FF8169" rx="4.091"/>
                    <rect width="8.181" height="8.184" x="31.464" y="8.184" fill="#FFCE32" rx="4.091"/>
                    <rect width="8.181" height="8.184" x="47.827" y="8.184" fill="#16C7BF" rx="4.091"/>
                </g>
            </g>
        </g>
    </g>
</svg>
