<svg xmlns="http://www.w3.org/2000/svg" xmlns:xlink="http://www.w3.org/1999/xlink" width="396" height="369" viewBox="0 0 396 369">
    <defs>
        <path id="08evhcibja" d="M0 0H396V338H0z"/>
        <path id="hzst10wr4c" d="M47.432 0H164.13c16.493 0 22.473 1.717 28.503 4.942 6.03 3.225 10.762 7.957 13.986 13.986 3.225 6.03 4.942 12.01 4.942 28.504v357.027c0 16.494-1.717 22.474-4.942 28.504-3.224 6.03-7.956 10.762-13.986 13.986-6.03 3.225-12.01 4.942-28.503 4.942H47.43c-16.492 0-22.473-1.717-28.503-4.942-6.03-3.224-10.761-7.956-13.986-13.986C1.717 426.933 0 420.953 0 404.459V47.432c0-16.493 1.717-22.474 4.942-28.504 3.225-6.03 7.957-10.761 13.986-13.986C24.958 1.717 30.938 0 47.432 0z"/>
        <path id="7dii8tkcig" d="M45.253 2.94H166.31c14.71 0 20.044 1.53 25.422 4.407 5.378 2.876 9.598 7.096 12.474 12.474 2.876 5.378 4.408 10.712 4.408 25.422v361.405c0 14.71-1.532 20.044-4.408 25.422-2.876 5.378-7.096 9.598-12.474 12.474-5.378 2.877-10.712 4.408-25.422 4.408H45.253c-14.71 0-20.045-1.531-25.422-4.408-5.378-2.876-9.599-7.096-12.475-12.474-2.876-5.378-4.407-10.712-4.407-25.422V45.243c0-14.71 1.531-20.044 4.407-25.422 2.876-5.378 7.097-9.598 12.475-12.474 5.377-2.876 10.712-4.408 25.422-4.408z"/>
        <path id="1iw46rugdj" d="M26.92 0h141.504c9.361 0 12.756.975 16.178 2.805 3.422 1.83 6.108 4.516 7.938 7.938 1.83 3.422 2.805 6.817 2.805 16.178v353.243c0 11.144-1.16 15.186-3.34 19.26-2.178 4.074-5.375 7.271-9.45 9.45-4.073 2.179-8.115 3.339-19.258 3.339H32.049c-11.144 0-15.185-1.16-19.26-3.34-4.074-2.178-7.271-5.375-9.45-9.45C1.16 395.35 0 391.309 0 380.165V26.921c0-9.361.975-12.756 2.805-16.178 1.83-3.422 4.516-6.108 7.938-7.938C14.165.975 17.56 0 26.921 0z"/>
        <filter id="i3xqpyq89e" width="101.9%" height="100.9%" x="-.9%" y="-.4%" filterUnits="objectBoundingBox">
            <feMorphology in="SourceAlpha" radius="2" result="shadowSpreadInner1"/>
            <feGaussianBlur in="shadowSpreadInner1" result="shadowBlurInner1" stdDeviation="1"/>
            <feOffset in="shadowBlurInner1" result="shadowOffsetInner1"/>
            <feComposite in="shadowOffsetInner1" in2="SourceAlpha" k2="-1" k3="1" operator="arithmetic" result="shadowInnerInner1"/>
            <feColorMatrix in="shadowInnerInner1" result="shadowMatrixInner1" values="0 0 0 0 1 0 0 0 0 1 0 0 0 0 1 0 0 0 0.596454327 0"/>
            <feMorphology in="SourceAlpha" radius="1" result="shadowSpreadInner2"/>
            <feGaussianBlur in="shadowSpreadInner2" result="shadowBlurInner2" stdDeviation=".5"/>
            <feOffset in="shadowBlurInner2" result="shadowOffsetInner2"/>
            <feComposite in="shadowOffsetInner2" in2="SourceAlpha" k2="-1" k3="1" operator="arithmetic" result="shadowInnerInner2"/>
            <feColorMatrix in="shadowInnerInner2" result="shadowMatrixInner2" values="0 0 0 0 0 0 0 0 0 0 0 0 0 0 0 0 0 0 0.977682474 0"/>
            <feMerge>
                <feMergeNode in="shadowMatrixInner1"/>
                <feMergeNode in="shadowMatrixInner2"/>
            </feMerge>
        </filter>
        <filter id="3jl8uaym9f" width="102.9%" height="101.3%" x="-1.5%" y="-.7%" filterUnits="objectBoundingBox">
            <feMorphology in="SourceAlpha" operator="dilate" radius=".5" result="shadowSpreadOuter1"/>
            <feOffset in="shadowSpreadOuter1" result="shadowOffsetOuter1"/>
            <feGaussianBlur in="shadowOffsetOuter1" result="shadowBlurOuter1" stdDeviation=".5"/>
            <feColorMatrix in="shadowBlurOuter1" values="0 0 0 0 0 0 0 0 0 0 0 0 0 0 0 0 0 0 1 0"/>
        </filter>
        <filter id="mbt8r6hhji" width="102.7%" height="101.2%" x="-1.3%" y="-.6%" filterUnits="objectBoundingBox">
            <feOffset dy="-1.5" in="SourceAlpha" result="shadowOffsetInner1"/>
            <feComposite in="shadowOffsetInner1" in2="SourceAlpha" k2="-1" k3="1" operator="arithmetic" result="shadowInnerInner1"/>
            <feColorMatrix in="shadowInnerInner1" result="shadowMatrixInner1" values="0 0 0 0 1 0 0 0 0 1 0 0 0 0 1 0 0 0 0.389450393 0"/>
            <feOffset dx="-1.5" in="SourceAlpha" result="shadowOffsetInner2"/>
            <feComposite in="shadowOffsetInner2" in2="SourceAlpha" k2="-1" k3="1" operator="arithmetic" result="shadowInnerInner2"/>
            <feColorMatrix in="shadowInnerInner2" result="shadowMatrixInner2" values="0 0 0 0 1 0 0 0 0 1 0 0 0 0 1 0 0 0 0.362980769 0"/>
            <feMerge>
                <feMergeNode in="shadowMatrixInner1"/>
                <feMergeNode in="shadowMatrixInner2"/>
            </feMerge>
        </filter>
        <radialGradient id="byn36adfah" cx="0%" cy="0%" r="91.969%" fx="0%" fy="0%" gradientTransform="scale(1 .46112) rotate(55.904)">
            <stop offset="0%" stop-color="#FFF"/>
            <stop offset="18.98%" stop-color="#FFF" stop-opacity=".506"/>
            <stop offset="100%" stop-color="#FFF" stop-opacity="0"/>
        </radialGradient>
        <linearGradient id="6345faxc1d" x1="100%" x2=".861%" y1="50%" y2="50%">
            <stop offset="0%" stop-opacity="0"/>
            <stop offset="100%" stop-color="#FFF" stop-opacity=".263"/>
        </linearGradient>
        <rect id="lqecqiymtl" width="195.345" height="357.104" x="0" y="0" rx="13.25"/>
    </defs>
    <g fill="none" fill-rule="evenodd">
        <g>
            <g>
                <g transform="translate(-115 -476) translate(115 476) translate(0 31)">
                    <mask id="w2jxxnhn5b" fill="#fff">
                        <use xlink:href="#08evhcibja"/>
                    </mask>
                    <use fill="#FFF" xlink:href="#08evhcibja"/>
                    <path fill="#EBEBEB" fill-rule="nonzero" d="M339.652 169.112s-5.16.683-2.33 11.918 5.234 17.032 5.234 17.032.368 2.542-1.688 2.454c-2.057-.088-6.23-1.778-7.667.426-1.437 2.205-.213 5.048 2.993 7.958 3.207 2.91 9.996 9.552 10.608 10.147.612.596 1.047 1.845-.361 2.006-1.408.162-11.404-1.072-11.706 3.674-.303 4.747 9.966 11.411 11.057 12.16 1.091.75 1.283 1.33 1.025 1.97-.258.64-3.576-.088-6.428-.316-2.853-.228-6.215 0-6.156 2.756.06 2.755 5.426 9.772 21.186 15.055l7.46 1.977 5.558-5.393c11.19-12.257 12.458-20.986 11.16-23.433-1.297-2.447-4.341-1.014-6.722.58-2.381 1.595-4.932 3.836-5.462 3.395-.531-.44-.671-1.028-.067-2.204.605-1.176 6.332-11.977 3.745-15.989-2.587-4.012-10.726 1.903-12.03 2.447-1.305.544-1.526-.735-1.29-1.572.236-.838 2.948-9.913 4.312-14.013 1.364-4.1 1.143-7.134-1.275-8.406-2.418-1.27-5.16 2.278-6.907 3.351-1.747 1.073-2.669-1.33-2.669-1.33s-.737-6.23-3.737-17.414c-3-11.184-7.961-9.214-7.961-9.214" mask="url(#w2jxxnhn5b)"/>
                    <g mask="url(#w2jxxnhn5b)">
                        <g>
                            <g transform="translate(14.156 -213.822)">
                                <use fill="#060607" xlink:href="#hzst10wr4c"/>
                                <use fill="url(#6345faxc1d)" xlink:href="#hzst10wr4c"/>
                                <use fill="#000" filter="url(#i3xqpyq89e)" xlink:href="#hzst10wr4c"/>
                            </g>
                            <g transform="translate(14.156 -213.822)">
                                <use fill="#000" filter="url(#3jl8uaym9f)" xlink:href="#7dii8tkcig"/>
                                <use fill="#060607" xlink:href="#7dii8tkcig"/>
                                <use fill="url(#byn36adfah)" fill-opacity=".84" xlink:href="#7dii8tkcig"/>
                                <use fill="#000" filter="url(#mbt8r6hhji)" xlink:href="#7dii8tkcig"/>
                            </g>
                            <path fill="#060607" d="M47.464 5.143h116.634c14.71 0 20.045 1.532 25.422 4.408 5.378 2.876 9.599 7.097 12.475 12.475 2.876 5.377 4.407 10.712 4.407 25.422v356.996c0 14.71-1.531 20.044-4.407 25.422-2.876 5.378-7.097 9.598-12.475 12.474-5.377 2.876-10.712 4.408-25.422 4.408H47.464c-14.71 0-20.044-1.532-25.422-4.408-5.378-2.876-9.598-7.096-12.474-12.474-2.876-5.378-4.408-10.712-4.408-25.422V47.448c0-14.71 1.532-20.045 4.408-25.422 2.876-5.378 7.096-9.599 12.474-12.475 5.378-2.876 10.712-4.408 25.422-4.408z" transform="translate(14.156 -213.822)"/>
                            <g transform="translate(14.156 -213.822) translate(8.109 26.452)">
                                <mask id="z4uac8xrjk" fill="#fff">
                                    <use xlink:href="#1iw46rugdj"/>
                                </mask>
                                <use fill="#FFF" xlink:href="#1iw46rugdj"/>
                                <g mask="url(#z4uac8xrjk)">
                                    <g>
                                        <g transform="translate(0 49.965)">
                                            <mask id="a29od84ukm" fill="#fff">
                                                <use xlink:href="#lqecqiymtl"/>
                                            </mask>
                                            <use fill="#FFF" xlink:href="#lqecqiymtl"/>
                                            <g mask="url(#a29od84ukm)">
                                                <g>
                                                    <path fill="#FFF" d="M0 0H195.345V67.363H0z" transform="translate(0 151.77)"/>
                                                    <g>
                                                        <path fill="#000" fill-rule="nonzero" d="M31.21 27.744v-2.282l-.12-3.047 2.046 5.329H34l2.051-5.334-.12 3.052v2.282h1.203v-6.922h-1.56l-1.998 5.305-2.003-5.305h-1.564v6.922h1.201zm8.913.095c.626 0 1.11-.2 1.45-.6l.028.505h1.093V22.6h-1.16v3.694c-.196.402-.576.603-1.14.603-.543 0-.815-.326-.815-.979V22.6H38.42v3.332c0 .618.144 1.09.432 1.417.288.326.711.49 1.271.49zm4.907-.095v-3.727c.194-.378.523-.566.988-.566.604 0 .914.303.93.908v3.385h1.159l-.005-3.528c.067-.228.183-.413.35-.554.167-.14.383-.211.647-.211.33 0 .567.076.71.228.143.152.215.391.215.718v3.347h1.159v-3.38c-.007-.612-.149-1.075-.427-1.388-.278-.314-.702-.471-1.271-.471-.68 0-1.208.263-1.583.789-.255-.526-.727-.79-1.417-.79-.63 0-1.125.212-1.488.633l-.033-.537h-1.092v5.144h1.158zm9.858.095c.627 0 1.119-.236 1.476-.709.358-.472.537-1.107.537-1.906v-.066c0-.837-.18-1.488-.539-1.954-.36-.466-.854-.7-1.483-.7-.566 0-1.016.197-1.35.59v-2.652H52.37v7.302h1.05l.057-.557c.337.435.807.652 1.411.652zm-.29-.942c-.506 0-.862-.223-1.069-.67v-2.12c.204-.437.557-.656 1.059-.656.375 0 .661.14.858.418.197.28.296.697.296 1.255v.148c-.006.545-.108.952-.305 1.221-.197.27-.477.404-.84.404zm4.869.942c.534 0 .985-.192 1.354-.576.038.222.083.382.134.48h1.182v-.08c-.13-.276-.195-.645-.195-1.108v-2.32c-.01-.548-.194-.973-.553-1.276-.36-.303-.841-.454-1.445-.454-.398 0-.758.07-1.08.209-.323.14-.578.332-.766.578-.188.245-.281.51-.281.791h1.159c0-.203.084-.37.252-.501.169-.132.385-.198.649-.198.305 0 .532.08.682.24.15.16.224.374.224.64v.337h-.71c-.76 0-1.345.147-1.753.44-.409.293-.613.714-.613 1.262 0 .434.164.799.491 1.094.328.294.75.442 1.269.442zm.214-.927c-.248 0-.446-.066-.593-.198-.148-.131-.222-.308-.222-.53 0-.272.108-.483.324-.632.216-.149.539-.223.968-.223h.625v.97c-.102.186-.254.335-.455.446-.202.111-.418.167-.647.167zm4.13-5.04c.21 0 .372-.057.487-.173.114-.116.172-.26.172-.435 0-.177-.058-.325-.172-.442-.115-.117-.277-.176-.487-.176-.21 0-.37.059-.484.176-.112.117-.169.265-.169.442 0 .174.057.32.17.435.112.116.274.174.483.174zm.578 5.872V22.6h-1.16v5.144h1.16zm1.426 1.559c.263-.219.479-.497.646-.834.167-.338.252-.675.255-1.01l.005-.833h-1.045v.899c-.003.222-.039.44-.107.654-.068.214-.195.465-.38.753l.626.37zm5.727-1.56v-2.281l-.119-3.047 2.046 5.329h.863l2.051-5.334-.12 3.052v2.282h1.203v-6.922h-1.56l-1.998 5.305-2.003-5.305H70.34v6.922h1.202zm8.833.096c.534 0 .985-.192 1.354-.576.038.222.083.382.134.48h1.183v-.08c-.13-.276-.196-.645-.196-1.108v-2.32c-.01-.548-.194-.973-.553-1.276-.36-.303-.841-.454-1.445-.454-.398 0-.758.07-1.08.209-.323.14-.578.332-.766.578-.188.245-.281.51-.281.791h1.159c0-.203.084-.37.252-.501.169-.132.385-.198.649-.198.305 0 .532.08.682.24.15.16.224.374.224.64v.337h-.71c-.76 0-1.345.147-1.753.44-.409.293-.613.714-.613 1.262 0 .434.164.799.491 1.094.328.294.75.442 1.269.442zm.214-.927c-.248 0-.446-.066-.593-.198-.148-.131-.222-.308-.222-.53 0-.272.108-.483.324-.632.216-.149.54-.223.968-.223h.625v.97c-.102.186-.253.335-.455.446-.202.111-.418.167-.647.167zm4.617.832v-3.675c.229-.412.575-.618 1.04-.618.298 0 .525.074.68.22.153.148.23.4.23.754v3.319h1.16v-3.361c-.016-1.252-.574-1.878-1.675-1.878-.578 0-1.057.219-1.435.656v-2.72h-1.159v7.303h1.159zm5.876.095c.534 0 .985-.192 1.354-.576.038.222.083.382.134.48h1.182v-.08c-.13-.276-.195-.645-.195-1.108v-2.32c-.01-.548-.194-.973-.553-1.276-.36-.303-.841-.454-1.446-.454-.397 0-.757.07-1.08.209-.322.14-.578.332-.765.578-.188.245-.282.51-.282.791h1.16c0-.203.084-.37.252-.501.169-.132.385-.198.649-.198.305 0 .532.08.682.24.15.16.224.374.224.64v.337h-.71c-.76 0-1.345.147-1.753.44-.409.293-.613.714-.613 1.262 0 .434.163.799.491 1.094.327.294.75.442 1.269.442zm.214-.927c-.248 0-.446-.066-.594-.198-.147-.131-.221-.308-.221-.53 0-.272.108-.483.324-.632.216-.149.539-.223.968-.223h.625v.97c-.102.186-.254.335-.456.446-.202.111-.417.167-.646.167zm4.631.832v-3.518c.184-.406.542-.609 1.073-.609.162 0 .32.013.472.038l.005-1.084c-.108-.044-.245-.066-.41-.066-.496 0-.884.223-1.164.67l-.028-.575h-1.107v5.144h1.159zm3.873.095c.534 0 .985-.192 1.354-.576.038.222.083.382.134.48h1.182v-.08c-.13-.276-.195-.645-.195-1.108v-2.32c-.01-.548-.194-.973-.553-1.276-.36-.303-.841-.454-1.445-.454-.398 0-.758.07-1.08.209-.323.14-.579.332-.766.578-.188.245-.282.51-.282.791h1.16c0-.203.084-.37.252-.501.169-.132.385-.198.649-.198.305 0 .532.08.682.24.15.16.224.374.224.64v.337h-.71c-.76 0-1.345.147-1.753.44-.409.293-.613.714-.613 1.262 0 .434.164.799.491 1.094.327.294.75.442 1.269.442zm.214-.927c-.248 0-.446-.066-.594-.198-.147-.131-.221-.308-.221-.53 0-.272.108-.483.324-.632.216-.149.539-.223.968-.223h.625v.97c-.102.186-.254.335-.456.446-.201.111-.417.167-.646.167zm5.418.927c.623 0 1.127-.144 1.512-.43.385-.287.577-.662.577-1.125 0-.276-.063-.51-.189-.703-.125-.194-.317-.36-.577-.497-.259-.138-.616-.257-1.07-.357-.455-.1-.757-.199-.906-.297-.15-.098-.225-.236-.225-.413 0-.197.08-.354.241-.471.16-.117.368-.176.623-.176.273 0 .492.074.658.221.165.147.248.332.248.554h1.159c0-.485-.19-.88-.57-1.184-.38-.304-.879-.456-1.495-.456-.579 0-1.056.149-1.431.447-.375.298-.563.668-.563 1.112 0 .53.29.933.868 1.212.264.127.593.232.987.314.395.083.677.178.847.285.17.108.255.265.255.471 0 .187-.08.338-.238.454-.16.116-.391.173-.697.173-.314 0-.567-.073-.758-.22-.19-.148-.294-.358-.31-.63h-1.126c0 .307.093.594.277.86.184.266.442.475.773.628.33.152.707.228 1.13.228zm4.24-.095v-3.675c.229-.412.575-.618 1.04-.618.298 0 .525.074.679.22.154.148.231.4.231.754v3.319h1.16v-3.361c-.017-1.252-.575-1.878-1.675-1.878-.578 0-1.057.219-1.435.656v-2.72h-1.16v7.303h1.16zm5.909.095c.245 0 .499-.037.763-.11v-.893c-.137.031-.272.047-.406.047-.2 0-.339-.043-.417-.13-.078-.088-.117-.23-.117-.426v-2.871h.911V22.6h-.91v-1.25h-1.16v1.25h-.849v.856h.85v2.914c0 .979.445 1.469 1.335 1.469zm2.775-.095v-3.518c.185-.406.543-.609 1.073-.609.163 0 .32.013.473.038l.004-1.084c-.108-.044-.244-.066-.41-.066-.496 0-.884.223-1.163.67l-.029-.575h-1.106v5.144h1.158zm3.873.095c.534 0 .986-.192 1.354-.576.039.222.083.382.134.48h1.183v-.08c-.13-.276-.196-.645-.196-1.108v-2.32c-.01-.548-.194-.973-.553-1.276-.36-.303-.841-.454-1.445-.454-.398 0-.758.07-1.08.209-.323.14-.578.332-.766.578-.187.245-.281.51-.281.791h1.159c0-.203.084-.37.253-.501.168-.132.384-.198.648-.198.305 0 .533.08.682.24.15.16.224.374.224.64v.337h-.71c-.76 0-1.344.147-1.753.44-.409.293-.613.714-.613 1.262 0 .434.164.799.491 1.094.328.294.75.442 1.269.442zm.215-.927c-.248 0-.446-.066-.594-.198-.148-.131-.222-.308-.222-.53 0-.272.108-.483.324-.632.217-.149.54-.223.969-.223h.624v.97c-.101.186-.253.335-.455.446-.202.111-.417.167-.646.167zm3.638 2.39c.264-.218.48-.496.647-.833.167-.338.252-.675.255-1.01l.005-.833h-1.045v.899c-.003.222-.039.44-.107.654-.069.214-.195.465-.38.753l.625.37zm5.8-1.558v-6.922h-1.202v6.922h1.202zm2.513 0v-3.66c.229-.422.577-.633 1.045-.633.32 0 .552.078.693.235.142.157.213.399.213.725v3.333h1.159v-3.4c-.02-1.226-.566-1.84-1.641-1.84-.62 0-1.12.23-1.502.69l-.034-.594h-1.092v5.144h1.16zm6.1.095c.579 0 1.041-.21 1.388-.628l.057.533h1.05v-7.302h-1.16v2.633c-.337-.38-.779-.57-1.326-.57-.62 0-1.114.24-1.483.72s-.553 1.116-.553 1.909c0 .833.187 1.492.56 1.977.374.485.863.728 1.467.728zm.296-.942c-.372 0-.66-.146-.861-.44-.202-.292-.303-.7-.303-1.223 0-.596.102-1.042.305-1.339.204-.296.493-.444.868-.444.474 0 .817.206 1.03.618v2.196c-.22.422-.566.632-1.04.632zm4.063-5.024c.21 0 .372-.058.486-.174.115-.116.172-.26.172-.435 0-.177-.057-.325-.172-.442-.114-.117-.276-.176-.486-.176-.21 0-.371.059-.484.176-.113.117-.17.265-.17.442 0 .174.057.32.17.435.113.116.274.174.484.174zm.577 5.87V22.6h-1.159v5.144h1.159zm2.857.096c.534 0 .985-.192 1.354-.576.038.222.083.382.134.48h1.182v-.08c-.13-.276-.195-.645-.195-1.108v-2.32c-.01-.548-.194-.973-.553-1.276-.36-.303-.841-.454-1.445-.454-.398 0-.758.07-1.08.209-.323.14-.578.332-.766.578-.188.245-.281.51-.281.791h1.158c0-.203.085-.37.253-.501.169-.132.385-.198.649-.198.305 0 .532.08.682.24.15.16.224.374.224.64v.337h-.71c-.76 0-1.345.147-1.753.44-.409.293-.613.714-.613 1.262 0 .434.164.799.491 1.094.328.294.75.442 1.269.442zm.214-.927c-.248 0-.446-.066-.593-.198-.148-.131-.222-.308-.222-.53 0-.272.108-.483.324-.632.216-.149.539-.223.968-.223h.625v.97c-.102.186-.254.335-.455.446-.202.111-.418.167-.647.167zM30.38 44.13l.653-1.807h2.91l.662 1.806h.94l-2.657-6.921h-.801l-2.652 6.921h.945zm3.29-2.558h-2.36l1.178-3.238 1.182 3.238zm3.553 2.557v-3.665c.121-.247.29-.447.506-.599.216-.152.467-.228.753-.228.353 0 .613.089.78.266.167.178.252.452.255.823v3.403h.883V40.73c-.01-1.226-.56-1.84-1.65-1.84-.636 0-1.151.248-1.546.742l-.028-.646h-.835v5.143h.882zm6.32.095c.629 0 1.12-.215 1.473-.646l.043.551h.81v-7.302h-.881v2.682c-.353-.412-.832-.618-1.436-.618-.607 0-1.098.24-1.474.72-.375.48-.562 1.115-.562 1.904v.066c0 .786.188 1.423.565 1.911.377.488.864.732 1.461.732zm.219-.746c-.426 0-.76-.165-1.002-.494-.241-.33-.362-.786-.362-1.37 0-.652.12-1.145.362-1.478.242-.333.579-.5 1.011-.5.547 0 .953.243 1.217.728v2.363c-.258.5-.667.751-1.226.751zm4.359.651v-3.665c.12-.247.29-.447.505-.599.217-.152.468-.228.754-.228.353 0 .613.089.78.266.167.178.252.452.255.823v3.403h.882V40.73c-.01-1.226-.56-1.84-1.65-1.84-.626 0-1.135.24-1.526.718v-2.78h-.882v7.301h.882zm6.639.095c.864 0 1.513-.33 1.945-.993l-.539-.419c-.162.21-.35.378-.567.504-.216.127-.48.19-.792.19-.438 0-.8-.156-1.085-.468-.284-.312-.433-.722-.446-1.229h3.496v-.366c0-.82-.186-1.451-.558-1.892-.372-.44-.893-.66-1.564-.66-.41 0-.791.113-1.142.34-.352.226-.625.54-.82.94-.196.402-.294.857-.294 1.367v.162c0 .767.22 1.38.658 1.837.439.458 1.008.687 1.708.687zm1.13-3.137h-2.585c.057-.466.207-.828.448-1.086.242-.259.54-.388.897-.388.369 0 .661.123.877.369.217.245.337.591.363 1.038v.067zm2.785 3.042v-3.65c.207-.492.6-.738 1.178-.738.156 0 .3.012.434.034v-.818c-.089-.044-.22-.066-.391-.066-.531 0-.941.23-1.23.689l-.015-.594h-.858v5.143h.882zm2.947-6.009c.172 0 .302-.047.391-.142.09-.095.134-.214.134-.357 0-.142-.044-.263-.134-.361-.089-.098-.219-.147-.39-.147-.172 0-.302.049-.39.147-.087.098-.13.219-.13.361 0 .143.043.262.13.357.088.095.218.142.39.142zm.434 6.01v-5.144h-.882v5.143h.882zm1.383 1.378c.239-.193.437-.45.594-.77.158-.32.236-.64.236-.96v-.69h-.863v.794c-.013.44-.168.868-.467 1.284l.5.342zm5.418-1.379v-2.695l-.09-2.895 2.275 5.59h.7l2.28-5.605-.086 2.91v2.695h.916v-6.921h-1.187l-2.27 5.647-2.27-5.647h-1.183v6.921h.915zm9.147.095c.665 0 1.169-.2 1.512-.603l.02.508h.839v-5.143h-.883v3.74c-.222.502-.67.752-1.344.752-.636 0-.954-.39-.954-1.17v-3.322h-.883v3.346c.004.625.15 1.096.437 1.415.288.318.706.477 1.256.477zm4.588-.095v-3.755c.213-.492.61-.737 1.188-.737.734 0 1.102.374 1.102 1.122v3.37h.887v-3.413c.035-.33.16-.592.376-.787.217-.195.489-.292.816-.292.397 0 .68.091.849.273.168.182.253.457.253.825v3.394h.882v-3.446c-.02-1.195-.595-1.792-1.726-1.792-.376 0-.7.076-.976.228-.275.152-.498.351-.67.599-.26-.552-.752-.827-1.474-.827-.642 0-1.152.221-1.53.665l-.024-.57h-.835v5.143h.882zm10.05.095c.61 0 1.096-.238 1.458-.715.363-.477.544-1.109.544-1.895v-.076c0-.82-.179-1.467-.536-1.94-.358-.471-.85-.707-1.476-.707-.627 0-1.118.22-1.474.66v-2.724h-.882v7.302h.81l.043-.594c.356.46.86.69 1.512.69zm-.22-.746c-.573 0-.994-.27-1.264-.808v-2.225c.254-.539.672-.808 1.254-.808.436 0 .77.163 1.002.49.232.326.348.789.348 1.388 0 .656-.118 1.147-.353 1.473-.235.327-.564.49-.987.49zm4.926.746c.57 0 1.059-.212 1.47-.637.03.26.072.44.123.542h.925v-.076c-.12-.279-.18-.654-.18-1.126v-2.368c-.014-.52-.188-.928-.525-1.224-.338-.296-.803-.444-1.398-.444-.375 0-.72.07-1.032.209-.314.14-.562.329-.744.568-.183.24-.275.487-.275.744h.887c0-.225.107-.417.32-.575.213-.159.477-.238.792-.238.359 0 .63.091.815.273.185.182.277.427.277.735v.404h-.859c-.74 0-1.315.148-1.724.444-.408.297-.613.713-.613 1.248 0 .44.163.804.49 1.091.325.287.743.43 1.251.43zm.129-.765c-.29 0-.526-.078-.71-.233-.185-.155-.277-.37-.277-.646 0-.631.54-.947 1.621-.947h.692v1.056c-.111.228-.291.413-.54.556-.247.143-.51.214-.786.214zm4.116-5.339c.171 0 .302-.047.39-.142.09-.095.134-.214.134-.357 0-.142-.044-.263-.133-.361-.09-.098-.22-.147-.391-.147-.172 0-.301.049-.389.147-.087.098-.131.219-.131.361 0 .143.044.262.131.357.088.095.217.142.389.142zm.434 6.01v-5.144h-.883v5.143h.883zm1.383 1.378c.238-.193.436-.45.594-.77.157-.32.236-.64.236-.96v-.69h-.864v.794c-.012.44-.168.868-.467 1.284l.5.342zm5.484-1.379v-6.921h-.915v6.921h.915zm2.418 0v-3.665c.121-.247.29-.447.506-.599.216-.152.467-.228.753-.228.353 0 .613.089.78.266.167.178.252.452.255.823v3.403h.883V40.73c-.01-1.226-.56-1.84-1.65-1.84-.636 0-1.151.248-1.546.742l-.028-.646h-.835v5.143h.882zm6.32.095c.629 0 1.12-.215 1.473-.646l.043.551h.81v-7.302h-.881v2.682c-.353-.412-.832-.618-1.436-.618-.607 0-1.098.24-1.474.72-.375.48-.562 1.115-.562 1.904v.066c0 .786.188 1.423.565 1.911.377.488.864.732 1.462.732zm.219-.746c-.426 0-.76-.165-1.002-.494-.241-.33-.362-.786-.362-1.37 0-.652.12-1.145.362-1.478.242-.333.579-.5 1.011-.5.547 0 .953.243 1.217.728v2.363c-.258.5-.667.751-1.226.751zm4.001-5.358c.172 0 .302-.047.391-.142.09-.095.134-.214.134-.357 0-.142-.045-.263-.134-.361-.089-.098-.22-.147-.39-.147-.172 0-.302.049-.39.147-.087.098-.13.219-.13.361 0 .143.043.262.13.357.088.095.218.142.39.142zm.434 6.01v-5.144h-.882v5.143h.882zm3.005.094c.569 0 1.059-.212 1.469-.637.031.26.073.44.124.542h.925v-.076c-.12-.279-.181-.654-.181-1.126v-2.368c-.013-.52-.188-.928-.525-1.224-.337-.296-.803-.444-1.397-.444-.375 0-.72.07-1.033.209-.313.14-.561.329-.744.568-.183.24-.274.487-.274.744h.887c0-.225.107-.417.32-.575.213-.159.476-.238.791-.238.36 0 .631.091.816.273.184.182.276.427.276.735v.404h-.858c-.74 0-1.316.148-1.724.444-.409.297-.613.713-.613 1.248 0 .44.163.804.489 1.091.326.287.743.43 1.252.43zm.129-.765c-.29 0-.527-.078-.711-.233-.184-.155-.277-.37-.277-.646 0-.631.54-.947 1.622-.947h.691v1.056c-.11.228-.29.413-.539.556-.248.143-.51.214-.786.214zM33.483 11.666v-.622H30.74V5.898h-.767v5.768h3.51zm2.52.079c.386 0 .729-.092 1.027-.277.298-.185.527-.443.687-.775.16-.331.24-.706.24-1.123V9.52c0-.671-.18-1.209-.542-1.613-.361-.404-.835-.606-1.42-.606-.38 0-.717.091-1.012.274-.295.182-.526.44-.691.776-.166.335-.249.713-.249 1.133v.051c0 .666.18 1.2.543 1.605.361.404.834.606 1.416.606zm0-.598c-.371 0-.668-.144-.889-.432-.221-.288-.332-.67-.332-1.145 0-.536.112-.948.334-1.236.223-.288.516-.432.878-.432.371 0 .669.146.893.438.224.292.336.673.336 1.143 0 .526-.11.934-.33 1.226-.22.292-.517.438-.89.438zm4.602.598c.291 0 .567-.066.828-.198s.47-.31.626-.53c.157-.223.241-.456.255-.702h-.696c-.021.238-.13.436-.326.594-.196.159-.425.238-.687.238-.38 0-.67-.134-.875-.4-.204-.267-.306-.647-.306-1.141v-.139c0-.507.103-.895.308-1.163.206-.268.495-.402.869-.402.278 0 .512.09.701.268.19.178.295.406.316.683h.696c-.022-.46-.192-.833-.511-1.121-.32-.288-.72-.432-1.202-.432-.392 0-.732.09-1.02.27-.287.18-.508.431-.661.756-.154.325-.23.696-.23 1.113v.123c0 .676.172 1.21.518 1.599.345.39.811.584 1.397.584zm3.863 0c.474 0 .882-.177 1.224-.53.026.216.06.366.103.45h.771v-.063c-.1-.232-.15-.545-.15-.938V8.69c-.011-.433-.157-.773-.438-1.02-.28-.247-.67-.37-1.165-.37-.312 0-.599.057-.86.173-.26.117-.468.274-.62.474-.152.2-.228.406-.228.62h.739c0-.188.089-.347.266-.48.178-.132.397-.198.66-.198.3 0 .526.076.68.228.153.152.23.356.23.612v.337h-.715c-.618 0-1.097.123-1.437.37-.34.247-.51.594-.51 1.04 0 .367.135.67.406.91.272.239.62.358 1.044.358zm.107-.638c-.241 0-.438-.064-.592-.194-.154-.13-.23-.309-.23-.539 0-.525.45-.788 1.35-.788h.577v.88c-.093.19-.243.344-.45.463-.206.119-.424.178-.655.178zm4.249.638c.182 0 .37-.026.564-.08v-.593c-.148.031-.265.047-.35.047-.172 0-.294-.043-.365-.129-.072-.085-.108-.214-.108-.386V7.946h.803v-.567h-.803V6.341h-.735V7.38h-.783v.567h.783v2.658c0 .365.083.646.25.844.167.198.415.297.744.297zm1.84-5.087c.143 0 .251-.04.326-.118.074-.08.11-.179.11-.298 0-.118-.036-.219-.11-.3-.075-.083-.183-.123-.326-.123-.143 0-.251.04-.324.122-.073.082-.11.183-.11.301 0 .12.037.218.11.298.073.079.18.118.324.118zm.361 5.008V7.379h-.735v4.287h.735zm2.941.079c.387 0 .73-.092 1.028-.277.298-.185.527-.443.687-.775.16-.331.24-.706.24-1.123V9.52c0-.671-.18-1.209-.542-1.613-.361-.404-.835-.606-1.42-.606-.38 0-.717.091-1.012.274-.296.182-.526.44-.692.776-.165.335-.248.713-.248 1.133v.051c0 .666.18 1.2.542 1.605.362.404.834.606 1.417.606zm0-.598c-.37 0-.667-.144-.888-.432-.221-.288-.332-.67-.332-1.145 0-.536.111-.948.334-1.236.223-.288.515-.432.878-.432.371 0 .669.146.893.438.223.292.335.673.335 1.143 0 .526-.11.934-.33 1.226-.22.292-.516.438-.89.438zm3.613.519V8.61c.1-.206.241-.372.421-.499.18-.126.39-.19.628-.19.294 0 .51.074.65.222.14.148.21.376.213.685v2.837h.735V8.833C60.218 7.811 59.76 7.3 58.85 7.3c-.53 0-.96.206-1.288.618l-.024-.539h-.695v4.287h.735z" opacity=".87" transform="translate(0 151.77) translate(9.767 6.493)"/>
                                                        <g>
                                                            <path d="M0 0H19.535V19.478H0z" transform="translate(0 151.77) translate(9.767 6.493)"/>
                                                            <g transform="translate(0 151.77) translate(9.767 6.493) translate(1.628 1.623)">
                                                                <path d="M0 0L16.279 0 16.279 16.232 0 16.232z"/>
                                                                <path fill="#FE6361" fill-rule="nonzero" d="M8.14 1.353c-2.626 0-4.749 1.99-4.749 4.45 0 3.338 4.748 8.265 4.748 8.265s4.748-4.927 4.748-8.265c0-2.46-2.123-4.45-4.748-4.45zm-3.392 4.45c0-1.755 1.52-3.179 3.391-3.179 1.872 0 3.392 1.424 3.392 3.179 0 1.83-1.954 4.571-3.392 6.281-1.41-1.697-3.391-4.47-3.391-6.281z"/>
                                                                <ellipse cx="8.139" cy="6.087" fill="#FE6361" fill-rule="nonzero" rx="1.696" ry="1.691"/>
                                                            </g>
                                                        </g>
                                                    </g>
                                                    <path fill="#F2F4F5" d="M39.069 66.551H188.834V67.551H39.069z" transform="translate(0 151.77)"/>
                                                </g>
                                            </g>
                                            <g mask="url(#a29od84ukm)">
                                                <g>
                                                    <path fill="#FFF" d="M0 0H195.345V42.203H0z" transform="translate(0 219.132)"/>
                                                    <g>
                                                        <path fill="#000" fill-rule="nonzero" d="M31.21 27.897v-2.282l-.12-3.047 2.046 5.33H34l2.051-5.335-.12 3.052v2.282h1.203v-6.921h-1.56l-1.998 5.305-2.003-5.305h-1.564v6.921h1.201zm9.423.095c.477 0 .898-.109 1.262-.328.364-.218.644-.527.84-.927.195-.399.292-.852.292-1.36l-.004-.27c-.035-.739-.27-1.331-.704-1.778-.434-.447-.999-.67-1.695-.67-.47 0-.887.108-1.25.325-.362.217-.644.528-.844.932-.2.404-.3.858-.3 1.362v.057c0 .805.218 1.45.655 1.932.438.484 1.02.725 1.748.725zm0-.922c-.39 0-.696-.15-.915-.45-.22-.299-.33-.713-.33-1.242 0-.596.112-1.044.334-1.343.223-.3.523-.45.902-.45.384 0 .689.153.913.457.224.304.336.716.336 1.236 0 .586-.109 1.031-.326 1.336-.218.304-.523.456-.914.456zm4.517.827v-3.66c.229-.422.577-.632 1.044-.632.321 0 .553.078.694.235.142.157.212.398.212.725v3.332h1.16v-3.399c-.02-1.226-.567-1.84-1.641-1.84-.62 0-1.121.23-1.503.69l-.033-.594H43.99v5.143h1.159zm5.918.095c.245 0 .5-.036.763-.109v-.894c-.136.032-.272.048-.405.048-.2 0-.34-.044-.417-.13-.078-.088-.117-.23-.117-.426v-2.872h.91v-.855h-.91v-1.25h-1.16v1.25h-.848v.855h.849v2.914c0 .98.445 1.47 1.335 1.47zm2.762-.095v-3.674c.229-.412.575-.618 1.04-.618.298 0 .525.073.679.22.154.148.231.4.231.754v3.318h1.16v-3.36c-.017-1.253-.575-1.878-1.675-1.878-.579 0-1.057.218-1.435.656v-2.72h-1.16v7.302h1.16zm5.513 0v-7.302h-1.16v7.302h1.16zm1.698 2.078c.753 0 1.287-.433 1.602-1.298l2.05-5.923H63.46l-1.05 3.489-1.092-3.49h-1.25l1.813 5.12-.167.443c-.086.25-.203.428-.35.534-.148.107-.369.16-.661.16l-.22-.015v.894c.204.057.39.086.559.086zm10.244-2.078v-.062l-2.223-2.59c.64-.054 1.134-.22 1.484-.497.35-.277.56-.678.629-1.2h.72l.239-.866h-.964c-.047-.32-.152-.599-.314-.836h1.04l.242-.87h-4.492l-.258.97h1.283c.687 0 1.108.245 1.264.736h-2.303l-.244.865h2.566c-.07.241-.209.435-.417.583-.208.147-.49.22-.847.22h-1.206l.004.728 2.428 2.82h1.369zm4.702 0v-6.945h-.148l-2.709.993v.975l1.703-.58v5.557h1.154zm7.082 0v-.922h-3.224l1.698-1.811c.445-.482.766-.912.961-1.29.196-.38.294-.742.294-1.087 0-.596-.195-1.063-.585-1.4-.39-.338-.921-.506-1.595-.506-.467 0-.88.093-1.238.28-.357.187-.632.45-.825.787-.192.337-.288.717-.288 1.138h1.159c0-.396.103-.708.31-.936.206-.228.497-.342.872-.342.315 0 .566.101.752.304.186.203.279.469.279.798 0 .25-.071.5-.213.75-.141.248-.379.558-.713.929L78.4 27.103v.794h4.67zm3.143.095c.763 0 1.332-.252 1.705-.758.374-.505.56-1.256.56-2.25v-1.199c-.009-.966-.2-1.692-.574-2.177-.374-.485-.94-.727-1.7-.727-.767 0-1.336.248-1.71.746-.374.497-.56 1.244-.56 2.239v1.198c.01.967.204 1.696.584 2.19.38.492.945.738 1.695.738zm0-.922c-.388 0-.672-.158-.853-.475-.182-.317-.272-.799-.272-1.445v-1.57c.01-.608.103-1.055.281-1.342.178-.287.456-.43.835-.43.388 0 .67.15.849.454.178.302.267.778.267 1.428v1.564c-.01.624-.104 1.083-.282 1.376-.178.294-.453.44-.825.44zm5.552.922c.763 0 1.33-.252 1.705-.758.373-.505.56-1.256.56-2.25v-1.199c-.01-.966-.201-1.692-.575-2.177-.373-.485-.94-.727-1.7-.727-.766 0-1.336.248-1.71.746-.373.497-.56 1.244-.56 2.239v1.198c.01.967.204 1.696.584 2.19.38.492.945.738 1.696.738zm0-.922c-.388 0-.673-.158-.854-.475-.181-.317-.272-.799-.272-1.445v-1.57c.01-.608.103-1.055.281-1.342.178-.287.457-.43.835-.43.388 0 .67.15.849.454.178.302.267.778.267 1.428v1.564c-.01.624-.103 1.083-.281 1.376-.178.294-.453.44-.825.44zm5.55.922c.764 0 1.332-.252 1.706-.758.373-.505.56-1.256.56-2.25v-1.199c-.01-.966-.2-1.692-.574-2.177-.374-.485-.94-.727-1.7-.727-.767 0-1.337.248-1.71.746-.374.497-.56 1.244-.56 2.239v1.198c.009.967.203 1.696.583 2.19.38.492.946.738 1.696.738zm0-.922c-.387 0-.672-.158-.853-.475-.181-.317-.272-.799-.272-1.445v-1.57c.01-.608.104-1.055.282-1.342.178-.287.456-.43.834-.43.388 0 .671.15.85.454.177.302.266.778.266 1.428v1.564c-.01.624-.103 1.083-.281 1.376-.178.294-.453.44-.825.44zm8.046-1.65v-.931h-2.503v.931h2.503zm6.882 2.477v-.062l-2.222-2.59c.639-.054 1.133-.22 1.483-.497.35-.277.56-.678.63-1.2h.72l.238-.866h-.963c-.048-.32-.153-.599-.315-.836h1.04l.243-.87h-4.493l-.257.97h1.283c.687 0 1.108.245 1.264.736h-2.304l-.243.865h2.566c-.07.241-.21.435-.418.583-.208.147-.49.22-.846.22h-1.207l.005.728 2.428 2.82h1.368zm4.703 0v-6.945h-.148l-2.709.993v.975l1.703-.58v5.557h1.154zm4.769.095c.709 0 1.267-.208 1.674-.625.407-.417.61-.977.61-1.68 0-.713-.183-1.28-.55-1.702-.368-.422-.882-.632-1.543-.632-.404 0-.767.091-1.088.275l.191-1.654h2.766v-.998h-3.73l-.376 3.489.925.228c.172-.161.33-.27.477-.325.146-.056.324-.084.534-.084.385 0 .687.123.906.369.22.245.33.579.33 1 0 .438-.1.783-.299 1.037-.198.253-.476.38-.832.38-.318 0-.575-.09-.772-.269-.198-.179-.318-.436-.363-.772h-1.12c.034.59.26 1.064.679 1.424.418.36.945.54 1.58.54zm5.456 0c.763 0 1.331-.252 1.705-.758.373-.505.56-1.256.56-2.25v-1.199c-.01-.966-.2-1.692-.574-2.177-.374-.485-.94-.727-1.7-.727-.767 0-1.337.248-1.71.746-.374.497-.56 1.244-.56 2.239v1.198c.009.967.203 1.696.583 2.19.38.492.945.738 1.696.738zm0-.922c-.388 0-.673-.158-.854-.475-.181-.317-.272-.799-.272-1.445v-1.57c.01-.608.104-1.055.282-1.342.178-.287.456-.43.834-.43.388 0 .671.15.85.454.177.302.266.778.266 1.428v1.564c-.01.624-.103 1.083-.281 1.376-.178.294-.453.44-.825.44zm5.551.922c.763 0 1.332-.252 1.705-.758.374-.505.56-1.256.56-2.25v-1.199c-.009-.966-.2-1.692-.574-2.177-.374-.485-.94-.727-1.7-.727-.767 0-1.337.248-1.71.746-.374.497-.56 1.244-.56 2.239v1.198c.009.967.204 1.696.584 2.19.38.492.945.738 1.695.738zm0-.922c-.388 0-.672-.158-.854-.475-.18-.317-.271-.799-.271-1.445v-1.57c.01-.608.103-1.055.281-1.342.178-.287.456-.43.835-.43.388 0 .67.15.849.454.178.302.267.778.267 1.428v1.564c-.01.624-.104 1.083-.282 1.376-.178.294-.453.44-.825.44zm5.551.922c.764 0 1.332-.252 1.705-.758.374-.505.56-1.256.56-2.25v-1.199c-.009-.966-.2-1.692-.574-2.177-.373-.485-.94-.727-1.7-.727-.766 0-1.336.248-1.71.746-.373.497-.56 1.244-.56 2.239v1.198c.01.967.204 1.696.584 2.19.38.492.945.738 1.695.738zm0-.922c-.387 0-.672-.158-.853-.475-.181-.317-.272-.799-.272-1.445v-1.57c.01-.608.103-1.055.281-1.342.178-.287.457-.43.835-.43.388 0 .67.15.849.454.178.302.267.778.267 1.428v1.564c-.01.624-.103 1.083-.281 1.376-.179.294-.454.44-.826.44zM31.81 11.745c.612 0 1.1-.14 1.466-.422.366-.281.549-.656.549-1.123 0-.293-.066-.548-.197-.765-.131-.216-.333-.406-.604-.568-.272-.162-.648-.311-1.129-.446-.48-.134-.821-.283-1.021-.445-.2-.163-.3-.362-.3-.597 0-.293.105-.522.315-.687.211-.165.505-.248.88-.248.406 0 .72.1.943.3.222.199.334.473.334.822h.767c0-.32-.086-.614-.257-.884-.17-.27-.412-.48-.723-.634-.311-.153-.666-.23-1.063-.23-.583 0-1.057.15-1.421.446-.364.297-.546.673-.546 1.127 0 .402.149.74.447 1.012.298.274.774.504 1.428.692.522.15.883.303 1.081.457.2.155.298.373.298.656 0 .283-.107.506-.321.67-.215.163-.524.245-.926.245-.432 0-.777-.101-1.036-.303-.258-.202-.387-.477-.387-.826h-.767c0 .335.093.635.28.9.187.263.452.471.797.623.344.152.715.228 1.113.228zm4.204 0c.475 0 .883-.177 1.224-.53.027.216.061.366.104.45h.77v-.063c-.1-.232-.15-.545-.15-.938V8.69c-.01-.433-.157-.773-.437-1.02-.281-.247-.67-.37-1.165-.37-.313 0-.6.057-.86.173-.261.117-.468.274-.62.474-.153.2-.229.406-.229.62h.74c0-.188.088-.347.266-.48.177-.132.397-.198.66-.198.299 0 .525.076.679.228.154.152.23.356.23.612v.337h-.715c-.617 0-1.096.123-1.437.37-.34.247-.51.594-.51 1.04 0 .367.136.67.407.91.272.239.62.358 1.043.358zm.108-.638c-.241 0-.439-.064-.593-.194-.153-.13-.23-.309-.23-.539 0-.525.45-.788 1.351-.788h.577v.88c-.093.19-.243.344-.45.463-.206.119-.425.178-.655.178zm3.791.559V5.58h-.735v6.085h.735zm2.504.079c.474 0 .882-.177 1.224-.53.027.216.061.366.103.45h.771v-.063c-.1-.232-.15-.545-.15-.938V8.69c-.011-.433-.157-.773-.438-1.02-.28-.247-.669-.37-1.164-.37-.313 0-.6.057-.86.173-.262.117-.468.274-.62.474-.153.2-.23.406-.23.62h.74c0-.188.089-.347.266-.48.178-.132.398-.198.66-.198.3 0 .526.076.68.228.153.152.23.356.23.612v.337h-.715c-.618 0-1.096.123-1.437.37-.34.247-.51.594-.51 1.04 0 .367.135.67.407.91.271.239.619.358 1.043.358zm.107-.638c-.24 0-.438-.064-.592-.194-.154-.13-.23-.309-.23-.539 0-.525.45-.788 1.35-.788h.577v.88c-.093.19-.242.344-.449.463-.207.119-.425.178-.656.178zm3.728.559V8.623c.172-.409.5-.614.982-.614.13 0 .25.01.361.028v-.681c-.074-.037-.182-.056-.325-.056-.443 0-.785.192-1.026.575l-.012-.496h-.715v4.287h.735zm2.21 1.731c.583 0 1.008-.357 1.276-1.07l1.728-4.948h-.786l-1.002 3.213-1.073-3.213h-.803l1.534 4.24-.163.435c-.09.267-.204.45-.343.55-.14.101-.334.151-.583.151l-.198-.016v.595l.274.051.139.012z" opacity=".87" transform="translate(0 219.132) translate(9.767 4.87)"/>
                                                        <g>
                                                            <path d="M0 0H19.535V19.478H0z" transform="translate(0 219.132) translate(9.767 4.87)"/>
                                                            <g>
                                                                <path d="M0 0L16.279 0 16.279 16.232 0 16.232z" transform="translate(0 219.132) translate(9.767 4.87) translate(1.628 1.623)"/>
                                                                <path fill="#FE6361" fill-rule="nonzero" d="M8.14 1.353c3.743 0 6.782 3.03 6.782 6.763s-3.039 6.763-6.783 6.763-6.782-3.03-6.782-6.763 3.038-6.763 6.782-6.763zm0 1.352c-2.992 0-5.427 2.428-5.427 5.411 0 2.983 2.435 5.41 5.426 5.41 2.992 0 5.427-2.427 5.427-5.41s-2.435-5.41-5.427-5.41zM10.58 4.87l-.23.792H9.167l.1.14c.157.243.259.527.306.854h1.008l-.23.792h-.763l-.026.193c-.088.5-.315.884-.68 1.152-.412.3-.983.451-1.715.451l2.472 2.87v.06H8.5L5.843 9.079l-.005-.627h1.248l.175-.007c.339-.025.62-.113.843-.267.261-.179.426-.422.497-.73H5.698l.23-.792h2.663l-.04-.132c-.193-.55-.67-.837-1.434-.862h-1.41l.236-.792h4.638z" transform="translate(0 219.132) translate(9.767 4.87) translate(1.628 1.623)"/>
                                                            </g>
                                                        </g>
                                                    </g>
                                                    <path fill="#F2F4F5" d="M0 45.45H195.345V51.131H0z" transform="translate(0 219.132)"/>
                                                </g>
                                            </g>
                                            <g mask="url(#a29od84ukm)">
                                                <g>
                                                    <path fill="#FFF" d="M0 0H195.345V67.363H0z" transform="translate(0 270.263)"/>
                                                    <path fill="#000" fill-rule="nonzero" d="M40.981 34.236v-2.933h2.795v-.96h-2.795v-2.058h3.205v-.97h-4.411v6.921h1.206zm5.723.095c.627 0 1.11-.2 1.45-.598l.029.503h1.092v-5.143h-1.159v3.693c-.197.403-.577.604-1.14.604-.543 0-.815-.326-.815-.98v-3.317H45v3.332c0 .618.145 1.09.432 1.417.288.326.712.49 1.271.49zm4.984-.095v-7.301H50.53v7.301h1.16zm2.495 0v-7.301h-1.16v7.301h1.16zm6.657 0v-5.951h2.165v-.97h-5.508v.97h2.146v5.951h1.197zm3.62-5.87c.21 0 .372-.058.487-.174.114-.116.171-.26.171-.435 0-.178-.057-.325-.171-.442-.115-.117-.277-.176-.487-.176-.21 0-.371.059-.484.176-.113.117-.17.264-.17.442 0 .174.057.32.17.435.113.116.274.173.484.173zm.577 5.87v-5.143h-1.159v5.143h1.16zm2.418 0V30.51c.194-.377.523-.565.987-.565.604 0 .914.302.93.908v3.384h1.16l-.006-3.527c.067-.228.184-.413.351-.554.167-.14.382-.211.646-.211.33 0 .568.076.71.228.144.152.215.391.215.718v3.346h1.16v-3.38c-.007-.611-.15-1.074-.428-1.388-.278-.313-.701-.47-1.27-.47-.68 0-1.209.263-1.584.789-.254-.526-.726-.79-1.416-.79-.63 0-1.126.211-1.488.633l-.034-.537h-1.092v5.143h1.16zm9.615.095c.429 0 .816-.084 1.161-.254.345-.17.62-.408.827-.715l-.624-.595c-.334.428-.767.642-1.297.642-.379 0-.693-.123-.942-.37-.25-.248-.392-.584-.427-1.008h3.372v-.466c0-.818-.192-1.45-.575-1.897-.383-.447-.926-.67-1.629-.67-.442 0-.842.112-1.202.337-.359.225-.638.54-.837.944-.198.404-.298.863-.298 1.376v.143c0 .767.228 1.38.685 1.842.456.46 1.051.691 1.786.691zm.925-3.147h-2.208c.054-.396.179-.705.374-.927.196-.221.452-.332.77-.332.322 0 .573.099.754.297.181.198.285.49.31.877v.085zM41.104 18.238c.554 0 .997-.156 1.33-.468.332-.311.498-.743.498-1.295V12.39h-.767v4.096c-.003.356-.101.634-.296.832-.195.198-.45.297-.765.297-.345 0-.608-.093-.789-.277-.182-.185-.272-.443-.272-.773h-.763c0 .528.16.939.48 1.232.321.293.769.44 1.344.44zm4.777 0c.387 0 .73-.093 1.027-.277.298-.185.528-.444.688-.775.16-.331.24-.706.24-1.123v-.052c0-.67-.18-1.208-.542-1.612-.362-.404-.835-.606-1.421-.606-.379 0-.716.091-1.011.273-.296.183-.526.441-.692.777-.166.335-.248.713-.248 1.133v.051c0 .666.18 1.2.542 1.605.362.404.834.606 1.417.606zm0-.598c-.371 0-.667-.144-.888-.432-.222-.288-.332-.67-.332-1.145 0-.536.111-.948.334-1.236.222-.288.515-.432.878-.432.371 0 .668.146.892.438.224.292.336.673.336 1.143 0 .525-.11.934-.33 1.226-.22.292-.516.438-.89.438zm4.849.598c.508 0 .914-.199 1.216-.596.302-.398.453-.924.453-1.58V16c0-.684-.15-1.223-.447-1.617-.298-.393-.708-.59-1.23-.59s-.932.184-1.228.55v-2.27h-.736v6.086h.676l.036-.496c.297.383.716.575 1.26.575zm-.183-.622c-.477 0-.828-.225-1.053-.674v-1.854c.212-.449.56-.673 1.045-.673.363 0 .641.136.834.408.194.272.29.658.29 1.157 0 .546-.097.956-.294 1.228-.196.272-.47.408-.822.408zm7.046.543v-5.142h1.86v-.626h-4.475v.626h1.856v5.142h.76zm2.794 1.73c.583 0 1.008-.356 1.276-1.069l1.729-4.948h-.787l-1.002 3.213-1.073-3.213h-.803l1.535 4.24-.163.435c-.09.267-.205.45-.344.55-.14.1-.333.151-.582.151l-.2-.016v.594l.275.052.14.012zm4.396-.082v-2.064c.3.33.71.495 1.232.495.511 0 .917-.2 1.216-.598.3-.4.449-.925.449-1.577v-.067c0-.692-.15-1.232-.451-1.62-.3-.389-.71-.583-1.226-.583-.533 0-.949.185-1.248.555l-.036-.476h-.671v5.935h.735zm1.01-2.167c-.454 0-.79-.196-1.01-.587v-2.048c.222-.393.556-.59 1.001-.59.36 0 .644.14.85.42.207.28.31.661.31 1.145 0 .55-.103.963-.311 1.242-.208.278-.488.418-.84.418zm4.605.598c.721 0 1.262-.276 1.622-.828l-.45-.349c-.134.175-.292.315-.472.42-.18.106-.4.159-.66.159-.365 0-.667-.13-.904-.39s-.36-.602-.372-1.025h2.914v-.305c0-.684-.155-1.21-.465-1.576-.31-.367-.745-.551-1.304-.551-.342 0-.659.094-.952.283-.293.19-.52.45-.683.785-.163.334-.245.713-.245 1.139v.134c0 .64.183 1.15.549 1.531.365.382.84.573 1.422.573zm.942-2.615h-2.154c.048-.388.173-.69.374-.905.201-.215.45-.323.747-.323.307 0 .551.102.731.307.18.205.281.493.302.866v.055zm2.02-.919c.15 0 .265-.04.343-.123.078-.082.117-.183.117-.305 0-.126-.039-.232-.117-.317-.078-.084-.193-.126-.344-.126-.15 0-.264.042-.34.126-.075.085-.113.19-.113.317 0 .122.038.223.114.305.075.082.188.123.34.123zm-.005 3.498c.151 0 .266-.04.344-.123.078-.082.117-.183.117-.305 0-.126-.039-.232-.117-.317-.078-.084-.193-.126-.344-.126-.15 0-.264.042-.34.126-.075.085-.113.19-.113.317 0 .122.038.223.114.305.075.082.188.123.34.123z" opacity=".87" transform="translate(0 270.263)"/>
                                                    <path fill="#F2F4F5" d="M39.069 43.826H112.32300000000001V56.812H39.069z" transform="translate(0 270.263)"/>
                                                    <g>
                                                        <path d="M0 0H19.535V19.478H0z" transform="translate(0 270.263) translate(9.767 6.493)"/>
                                                        <g>
                                                            <path d="M0 0L16.279 0 16.279 16.232 0 16.232z" transform="translate(0 270.263) translate(9.767 6.493) translate(1.628 1.623)"/>
                                                            <path fill="#FE6361" fill-rule="nonzero" d="M8.479 5.41H7.46V9.47l3.222 1.927.509-.832-2.713-1.603v-3.55zm3.28-4.186l3.125 2.6-.868 1.039-3.127-2.6.87-1.039zm-7.24 0l.87 1.039-3.126 2.6-.868-1.039 3.124-2.6zm3.62 1.481c-3.37 0-6.104 2.726-6.104 6.087 0 3.362 2.733 6.087 6.104 6.087s6.105-2.725 6.105-6.087c0-3.361-2.734-6.087-6.105-6.087zm0 10.822c-2.618 0-4.748-2.124-4.748-4.735 0-2.61 2.13-4.734 4.748-4.734 2.619 0 4.748 2.124 4.748 4.734 0 2.611-2.13 4.735-4.748 4.735z" transform="translate(0 270.263) translate(9.767 6.493) translate(1.628 1.623)"/>
                                                        </g>
                                                    </g>
                                                    <path fill="#F2F4F5" d="M39.069 66.551H188.834V67.551H39.069z" transform="translate(0 270.263)"/>
                                                </g>
                                            </g>
                                        </g>
                                        <g transform="translate(0 49.965) translate(0 315.713)">
                                            <path fill="#FFF" d="M2.442 3.246H192.559V41.334H2.442z"/>
                                            <path fill="#FFF" d="M0 0H195.345V41.334H0z"/>
                                            <path fill="#F2F4F5" d="M0 0H195.345V1.623H0z"/>
                                            <rect width="82.944" height="25.276" x="100.114" y="9.739" fill="#0038C0" rx="4.298"/>
                                            <path fill="#FFF" fill-rule="nonzero" d="M128.346 26.046l.656-1.88h3.139l.662 1.88h1.469l-3.066-8.075h-1.263l-3.06 8.075h1.463zm3.4-3.012h-2.349l1.174-3.35 1.174 3.35zm4.662 5.32v-2.846c.397.432.926.649 1.586.649.712 0 1.28-.277 1.702-.83.423-.552.635-1.293.635-2.22v-.084c0-.969-.209-1.726-.626-2.27-.418-.546-.993-.819-1.728-.819-.682 0-1.222.24-1.619.721l-.056-.61h-1.246v8.308h1.352zm1.202-3.273c-.556 0-.957-.233-1.202-.699V21.72c.241-.455.638-.682 1.19-.682.446 0 .788.175 1.027.527.24.35.36.826.36 1.425 0 .702-.122 1.227-.365 1.572-.243.346-.58.519-1.01.519zm5.213 3.272v-2.845c.397.432.926.649 1.586.649.712 0 1.28-.277 1.703-.83.423-.552.634-1.293.634-2.22v-.084c0-.969-.209-1.726-.626-2.27-.417-.546-.993-.819-1.728-.819-.682 0-1.222.24-1.619.721l-.055-.61h-1.247v8.308h1.352zm1.202-3.272c-.556 0-.957-.233-1.202-.699V21.72c.242-.455.638-.682 1.191-.682.445 0 .787.175 1.027.527.239.35.359.826.359 1.425 0 .702-.122 1.227-.365 1.572-.243.346-.58.519-1.01.519zm5.303.965v-8.519h-1.352v8.519h1.352zm1.98 2.424c.88 0 1.503-.505 1.87-1.515l2.393-6.91h-1.441l-1.225 4.07-1.274-4.07h-1.457l2.114 5.973-.195.516c-.1.292-.236.5-.409.624-.172.124-.43.186-.77.186l-.256-.017v1.043c.237.066.454.1.65.1z"/>
                                            <g stroke="#FFCE32">
                                                <rect width="84.377" height="27.476" x="10.64" y="8.632" fill="#FFF" stroke-width="2.208" rx="4.298"/>
                                                <rect width="88.794" height="31.892" x="8.431" y="6.423" stroke-opacity=".4" stroke-width="6.625" rx="4.298"/>
                                            </g>
                                            <rect width="81.931" height="24.216" x="11.921" y="10.262" fill="#FFF" stroke="#ABB2C1" stroke-width="1.052" rx="4.298"/>
                                            <path fill="#265AE3" fill-rule="nonzero" d="M37.186 26.15c.924 0 1.664-.241 2.22-.724.556-.483.875-1.155.957-2.016h-1.402c-.074.577-.25.989-.529 1.237-.278.248-.693.371-1.246.371-.605 0-1.064-.229-1.377-.687-.314-.459-.47-1.124-.47-1.997v-.715c.007-.862.175-1.515.503-1.961.329-.446.799-.668 1.41-.668.527 0 .927.128 1.2.385.272.257.442.676.509 1.256h1.402c-.089-.883-.406-1.567-.951-2.052-.546-.484-1.265-.726-2.16-.726-.663 0-1.248.157-1.755.471-.506.314-.895.762-1.165 1.342-.271.58-.407 1.252-.407 2.014v.754c.012.743.15 1.396.418 1.958.267.562.646.995 1.138 1.3.491.305 1.06.458 1.705.458zm6.165 0c.623 0 1.15-.224 1.58-.671.045.259.097.445.156.56h1.38v-.094c-.152-.322-.228-.753-.228-1.293v-2.706c-.011-.64-.227-1.136-.646-1.49-.419-.352-.98-.529-1.686-.529-.463 0-.883.081-1.26.244-.376.163-.674.387-.893.674-.219.286-.328.594-.328.923h1.352c0-.236.098-.431.295-.585.196-.153.449-.23.756-.23.357 0 .622.093.796.28.174.187.262.435.262.746v.394h-.83c-.886 0-1.568.17-2.044.513-.477.342-.715.833-.715 1.472 0 .507.19.932.573 1.276.382.344.875.516 1.48.516zm.25-1.082c-.289 0-.52-.076-.692-.23-.173-.153-.26-.36-.26-.618 0-.318.127-.564.38-.738.251-.174.628-.26 1.129-.26h.729v1.13c-.12.219-.296.393-.532.522-.235.13-.487.194-.754.194zm5.492.97V17.52h-1.352v8.519h1.352zm2.91 0V17.52h-1.352v8.519h1.352zm5.848 0V22.45h3.622v3.589h1.402v-8.075h-1.402v3.36h-3.622v-3.36h-1.408v8.075h1.408zm8.095 0v-3.11h1.57l1.624 3.11h1.508v-.071l-1.82-3.367c.468-.196.832-.476 1.094-.84.261-.364.392-.816.392-1.356 0-.791-.254-1.396-.762-1.814-.508-.417-1.23-.626-2.164-.626h-2.85v8.075h1.408zm1.447-4.236h-1.447v-2.707h1.486c.49.007.858.13 1.105.366.246.237.37.571.37 1.004 0 .414-.134.74-.401.979-.267.238-.638.358-1.113.358z"/>
                                        </g>
                                    </g>
                                </g>
                            </g>
                        </g>
                    </g>
                    <g mask="url(#w2jxxnhn5b)">
                        <g>
                            <path fill="#407BFF" fill-rule="nonzero" d="M30.96 192.388h-5.47v-.551c9.141 0 18.503 0 27.813-.147v.551c-7.46.096-14.971.147-22.343.147zM20.987 192.359c-3.93 0-7.94-.066-11.935-.125v-.551c3.988.059 8.006.103 11.935.125v.55zM.575 191.683H5.042V192.683H.575zM91.112 203.278H119.15299999999999V204.278H91.112zM85.804 203.278H88.089V204.278H85.804zM128.935 170.969H141.68V171.969H128.935zM118.504 170.969H125.684V171.969H118.504z" transform="matrix(-1 0 0 1 369.463 97.726)"/>
                            <path fill="#FFB573" fill-rule="nonzero" d="M81.558 174.68l-19.6 8.612c-.598-.478-4.269-7.018-4.269-7.018l17.33-8.817 6.54 7.223z" transform="matrix(-1 0 0 1 369.463 97.726)"/>
                            <path fill="#407BFF" fill-rule="nonzero" d="M62.658 185.106c-.02-.085.008-.176.074-.235.076-.048.174-.048.25 0 .133.081 3.214 1.962 3.568 3.468.085.282.048.586-.103.838-.142.312-.47.496-.811.456-.62-.044-1.29-.948-1.843-1.962-.456-.819-.836-1.677-1.135-2.565zm3.347 2.94c-.728-.998-1.645-1.845-2.698-2.491.59 1.565 1.702 3.556 2.41 3.674.096 0 .236 0 .39-.272.095-.15.12-.332.067-.5-.036-.135-.088-.266-.155-.39l-.014-.021z" transform="matrix(-1 0 0 1 369.463 97.726)"/>
                            <path fill="#407BFF" fill-rule="nonzero" d="M62.717 184.967c.02-.074.08-.13.155-.147.095 0 2.329-.985 3.685-.434.39.17.694.491.84.89.198.324.133.742-.154.991-.804.64-3.538-.316-4.49-1.028l-.066-.074.03-.198zm3.686-.17c-1.006-.219-2.055-.118-3 .287 1.12.647 3.199 1.235 3.685.823 0-.036.155-.132 0-.477l-.096-.103c-.12-.246-.331-.436-.59-.53z" transform="matrix(-1 0 0 1 369.463 97.726)"/>
                            <path fill="#263238" fill-rule="nonzero" d="M63.476 183.1l-1.283-1.02c-1.434-1.14-2.307-2.84-2.395-4.667l-.103-2.138c-.152-.34-.535-.514-.892-.404l-7.202 1.594c-.738.206-.863 1.823-.826 1.896 1.843 5.004 6.634 15.386 8.315 18.744 1.68 3.358 5.27 2.117 4.873.588-1.784-6.848-1.099-10.125-.325-12.983.159-.537.1-1.115-.162-1.61z" transform="matrix(-1 0 0 1 369.463 97.726)"/>
                            <g opacity=".2">
                                <path fill="#000" fill-rule="nonzero" d="M.398 3.718L6.465.625l6.538 7.26-8.97 3.938-1.549-1.727C1.56 9.068.961 7.789.767 6.422L.398 3.718z" transform="matrix(-1 0 0 1 369.463 97.726) translate(68.555 166.796)"/>
                            </g>
                            <path fill="#407BFF" fill-rule="nonzero" d="M101.786 97.094c-.567 1.473-.96 3.007-1.172 4.57-1.26 8.23-5.064 50.487-6.952 51.472-5.654 2.94-9.354 3.924-21.9 15.085 1.702 3.248 3.287 5.526 4.872 9.354 0 0 22.852-7.899 30.164-15.555 7.52-7.907 16.889-44.029 19.483-53.53 1.475-5.4 3.163-11.844-.147-16.312-1.858-2.535-19.299-9.64-24.348 4.916z" transform="matrix(-1 0 0 1 369.463 97.726)"/>
                            <path fill="#09225C" fill-rule="nonzero" d="M95.029 97.78c-.713 1.586-1.207 3.237-1.474 4.921-1.585 8.864-6.367 54.376-8.74 55.436-7.108 3.166-11.761 4.226-27.536 16.247 2.141 3.498 4.134 5.951 6.127 10.074 0 0 32.758-11.458 41.952-19.705 9.453-8.515 17.207-44.467 20.47-54.7 1.853-5.816 3.975-12.757-.186-17.568-2.336-2.73-24.264-10.383-30.613 5.294z" transform="matrix(-1 0 0 1 369.463 97.726)"/>
                            <path fill="#FFB130" fill-rule="nonzero" d="M162.048 51.06l-15.355 22.044c-.923 1.347-2.302 2.317-3.885 2.733-2.292.573-5.632.735-8.322-2.057-2.425-2.26-4.689-4.686-6.775-7.26-4.137-4.899-8.211-9.86-12.222-14.887-1.592-1.998-3.213-4.07-3.98-6.503-.767-2.432-.53-5.364 1.268-7.186 2.056-2.094 6.715-3.262 9.369-1.998 4.791 2.285 13.195 17.429 18.038 25.57 5.403-4.798 15.48-13.292 15.48-13.292l6.384 2.836z" transform="matrix(-1 0 0 1 369.463 97.726)"/>
                            <path fill="#FFB130" fill-rule="nonzero" d="M127.881 82.7c-.597 4.533-25.8 6.165-30.6 2.204L86.542 48.29c-.7-2.4-.353-4.985.956-7.117 1.309-2.133 3.459-3.617 5.922-4.089.664-.124 1.253-.235 1.755-.345 1.068-.22 1.666-.382 1.393-.404 0 0 .53-.184 1.474-.44 4.45-1.296 9.054-1.986 13.689-2.05 4.21 3.24 7.674 8.816 8.979 12.454 2.786 7.766 2.285 16.503.87 24.497-.793 4.791-2.027 9.499-3.686 14.064-.546 1.47 1.835 1.999 2.38.551 4.424-11.756 6.93-26.364 3.2-38.532-1.591-4.97-4.524-9.41-8.477-12.83 3.774.464 7.312 1.779 9.664 4.608 2.211 2.652 2.66 6.848 3.118 9.214.95 5.033.693 30.295.103 34.829z" transform="matrix(-1 0 0 1 369.463 97.726)"/>
                            <path fill="#407BFF" fill-rule="nonzero" d="M120.244 85.411c-.545 1.47-2.948.911-2.38-.551 1.658-4.565 2.892-9.273 3.685-14.064 1.415-7.994 1.916-16.73-.87-24.497-1.305-3.63-4.77-9.215-8.978-12.455 1.094.006 2.186.074 3.272.206 3.948 3.422 6.876 7.86 8.463 12.83 3.737 12.167 1.209 26.797-3.192 38.531z" transform="matrix(-1 0 0 1 369.463 97.726)"/>
                            <path fill="#09225C" fill-rule="nonzero" d="M127.881 82.7c1.593 7.348 1.414 14.969-.523 22.234l-1.696 6.378s-19.343 9.405-27.54 1.176c-8.197-8.23-.818-27.577-.818-27.577 10.245.566 20.521-.177 30.577-2.211z" transform="matrix(-1 0 0 1 369.463 97.726)"/>
                            <path fill="#000" fill-rule="nonzero" d="M100.031 105.441c2.212.559 22.852 17.84 22.852 17.84l-4.939 14.924-18.746-19.95.833-12.814z" opacity=".4" transform="matrix(-1 0 0 1 369.463 97.726)"/>
                            <path fill="#FFB573" fill-rule="nonzero" d="M162.91 186.576l2.536 21.198c-.634.434-7.607 4.042-7.976 2.021-1.12-6.157-3.435-19.104-3.435-19.104l8.875-4.115z" transform="matrix(-1 0 0 1 369.463 97.726)"/>
                            <path fill="#407BFF" fill-rule="nonzero" d="M166.972 207.091c-.086.026-.18-.003-.236-.073-.047-.074-.047-.169 0-.243.081-.132 1.932-3.226 3.435-3.608.282-.083.585-.048.84.096.312.141.5.461.472.8-.044.618-.936 1.301-1.953 1.86-.813.47-1.67.86-2.558 1.168zm2.949-3.373c-.992.74-1.828 1.666-2.462 2.727 1.555-.618 3.538-1.742 3.62-2.455 0-.095 0-.227-.281-.39-.154-.095-.343-.119-.516-.065-.133.042-.261.096-.383.161l.022.022z" transform="matrix(-1 0 0 1 369.463 97.726)"/>
                            <path fill="#407BFF" fill-rule="nonzero" d="M166.832 207.062c-.077-.018-.137-.078-.155-.155-.037-.095-1.017-2.307-.486-3.673.17-.39.492-.696.892-.845.314-.219.743-.161.987.132.65.793-.265 3.534-.973 4.49l-.066.065-.199-.014zm-.221-3.674c-.205 1.007-.09 2.052.332 2.99.634-1.131 1.186-3.21.737-3.674-.037 0-.126-.154-.472 0l-.103.096c-.237.126-.418.336-.509.588h.015z" transform="matrix(-1 0 0 1 369.463 97.726)"/>
                            <path fill="#263238" fill-rule="nonzero" d="M164.945 206.327l-7.8 3.872c-.339.157-.507.542-.39.897l1.688 7.193c.221.735 1.843.838 1.917.801 4.99-1.91 15.347-6.79 18.694-8.538 3.347-1.749 2.05-5.283.523-4.864-6.848 1.866-10.135 1.227-13.018.492-.536-.163-1.116-.11-1.614.147z" transform="matrix(-1 0 0 1 369.463 97.726)"/>
                            <g opacity=".2">
                                <path fill="#000" fill-rule="nonzero" d="M1.865 11.191L0.715 4.791 9.59 0.683 10.527 9.368z" transform="matrix(-1 0 0 1 369.463 97.726) translate(153.327 185.9)"/>
                            </g>
                            <path fill="#09225C" fill-rule="nonzero" d="M95.955 112.586c4.873 8.844 26.537 25.74 37.27 39.44 8.109 10.317 16.144 45.13 21.415 58.38 4.607-1.275 7.548-4.86 10.224-6.075 0 0-3.288-38.215-5.418-48.6-3.922-19.153-26.375-42.612-48.232-63.439-3.686-3.48-8.956-4.347-14.116-.541-.944.675-5.86 12.25-1.143 20.835z" transform="matrix(-1 0 0 1 369.463 97.726)"/>
                            <path fill="#263238" fill-rule="nonzero" d="M120.244 85.411c-.545 1.47-2.948.911-2.38-.551 1.658-4.565 2.892-9.273 3.685-14.064 1.415-7.994 1.916-16.73-.87-24.497-1.305-3.63-4.77-9.215-8.978-12.455-3.355-2.579-11.058-2.285-13.69 2.05-.92.257-1.474.441-1.474.441.273 0-.324.184-1.393.404 2.362-4.364 7.167-6.837 12.104-6.23 3.221.433 5.116 1.351 7.703 3.54 3.948 3.423 6.876 7.861 8.463 12.83 3.76 12.168 1.23 26.798-3.17 38.532z" transform="matrix(-1 0 0 1 369.463 97.726)"/>
                            <path fill="#888" fill-rule="nonzero" d="M71.046 71.006l43.824-.057c1.318-.002 2.385 1.063 2.384 2.379l-.031 23.86c-.003 2.27-1.85 4.112-4.124 4.115l-40.361.053c-2.275.003-4.116-1.835-4.113-4.105l.031-23.86c.002-1.315 1.072-2.383 2.39-2.385z" transform="matrix(-1 0 0 1 369.463 97.726) rotate(27.04 92.94 86.152)"/>
                            <path fill="#FFF" fill-rule="nonzero" d="M71.046 71.006l43.824-.057c1.318-.002 2.385 1.063 2.384 2.379l-.031 23.86c-.003 2.27-1.85 4.112-4.124 4.115l-40.361.053c-2.275.003-4.116-1.835-4.113-4.105l.031-23.86c.002-1.315 1.072-2.383 2.39-2.385z" opacity=".3" transform="matrix(-1 0 0 1 369.463 97.726) rotate(27.04 92.94 86.152)"/>
                            <path fill="#000" fill-rule="nonzero" d="M118.033 84.985l-38.93-19.802c-1.21-.616-2.694-.14-3.316 1.065l-.406.8c-.839 1.634-.991 3.532-.424 5.277s1.807 3.194 3.446 4.026l30.96 15.754c3.412 1.737 7.59.388 9.333-3.013l.413-.8c.612-1.21.132-2.686-1.076-3.307z" opacity=".2" transform="matrix(-1 0 0 1 369.463 97.726)"/>
                            <path fill="#A7A7A7" fill-rule="nonzero" d="M119.323 82.545l-38.93-19.839c-1.213-.61-2.693-.131-3.316 1.073l-.406.801c-.839 1.633-.991 3.531-.424 5.276.567 1.745 1.807 3.194 3.446 4.026l30.96 15.754c3.413 1.733 7.588.385 9.333-3.012l.413-.801c.593-1.203.115-2.657-1.076-3.278z" transform="matrix(-1 0 0 1 369.463 97.726)"/>
                            <path fill="#ABB2C1" fill-rule="nonzero" d="M119.323 82.545l-38.93-19.839c-1.213-.61-2.693-.131-3.316 1.073l-.406.801c-.839 1.633-.991 3.531-.424 5.276.567 1.745 1.807 3.194 3.446 4.026l30.96 15.754c3.413 1.733 7.588.385 9.333-3.012l.413-.801c.593-1.203.115-2.657-1.076-3.278z" transform="matrix(-1 0 0 1 369.463 97.726)"/>
                            <path fill="#FFF" fill-rule="nonzero" d="M119.323 82.545l-38.93-19.839c-1.213-.61-2.693-.131-3.316 1.073l-.406.801c-.839 1.633-.991 3.531-.424 5.276.567 1.745 1.807 3.194 3.446 4.026l30.96 15.754c3.413 1.733 7.588.385 9.333-3.012l.413-.801c.593-1.203.115-2.657-1.076-3.278z" opacity=".5" transform="matrix(-1 0 0 1 369.463 97.726)"/>
                            <path fill="#407BFF" fill-rule="nonzero" d="M84.029 72.241h.748c1.077-.002 1.951.87 1.952 1.947v.005l-.007 5.85c-.002 1.075-.873 1.946-1.948 1.947l-.748.001c-1.077.001-1.951-.87-1.953-1.947v-.006l.008-5.85c.001-1.074.873-1.945 1.948-1.947z" transform="matrix(-1 0 0 1 369.463 97.726) rotate(27.04 84.401 77.116)"/>
                            <path fill="#407BFF" fill-rule="nonzero" d="M104.985 82.91h.748c1.077-.002 1.951.87 1.953 1.947v.005l-.008 5.85c-.001 1.074-.872 1.945-1.947 1.947h-.749c-1.077.002-1.95-.87-1.952-1.947v-.005l.007-5.85c.002-1.074.873-1.945 1.948-1.947z" transform="matrix(-1 0 0 1 369.463 97.726) rotate(27.03 105.358 87.785)"/>
                            <path fill="#000" fill-rule="nonzero" d="M84.029 72.241h.748c1.077-.002 1.951.87 1.952 1.947v.005l-.007 5.85c-.002 1.075-.873 1.946-1.948 1.947l-.748.001c-1.077.001-1.951-.87-1.953-1.947v-.006l.008-5.85c.001-1.074.873-1.945 1.948-1.947z" opacity=".3" transform="matrix(-1 0 0 1 369.463 97.726) rotate(27.04 84.401 77.116)"/>
                            <path fill="#000" fill-rule="nonzero" d="M104.985 82.91h.748c1.077-.002 1.951.87 1.953 1.947v.005l-.008 5.85c-.001 1.074-.872 1.945-1.947 1.947h-.749c-1.077.002-1.95-.87-1.952-1.947v-.005l.007-5.85c.002-1.074.873-1.945 1.948-1.947z" opacity=".3" transform="matrix(-1 0 0 1 369.463 97.726) rotate(27.03 105.358 87.785)"/>
                            <path fill="#000" fill-rule="nonzero" d="M71.128 92.083s13.792 8.083 18.17 1.183l-3.28 6.393-14.89-7.576z" opacity=".2" transform="matrix(-1 0 0 1 369.463 97.726)"/>
                            <path fill="#FFF" fill-rule="nonzero" d="M98.918 38.062c.317.962 4.173 8.413 6.222 10.977.666-1.01 1.516-1.887 2.506-2.586.594-.393 1.348-.454 1.998-.162 2.69 1.205 4.77 2.322 4.77 2.322.628-1.733 1.542-3.35 2.705-4.783.943-1.007 3.147 1.102 4.422 1.675-.633-3.439-3.59-9.243-6.87-10.948-2.941-1.536-17.78-2.712-15.753 3.505z" transform="matrix(-1 0 0 1 369.463 97.726)"/>
                            <path fill="#717171" fill-rule="nonzero" d="M158.488 47.849l-6.82.28c-.714.043-1.413-.222-1.917-.729-.504-.506-.764-1.205-.714-1.917l.863-18.781c.04-.665.571-1.195 1.238-1.234l8.389-.346c.714-.044 1.413.221 1.917.728s.765 1.206.715 1.917l-.79 17.209c-.096 1.545-1.332 2.776-2.881 2.873z" transform="matrix(-1 0 0 1 369.463 97.726)"/>
                            <path fill="#000" fill-rule="nonzero" d="M158.488 47.849l-6.82.28c-.714.043-1.413-.222-1.917-.729-.504-.506-.764-1.205-.714-1.917l.863-18.781c.04-.665.571-1.195 1.238-1.234l8.389-.346c.714-.044 1.413.221 1.917.728s.765 1.206.715 1.917l-.79 17.209c-.096 1.545-1.332 2.776-2.881 2.873z" opacity=".2" transform="matrix(-1 0 0 1 369.463 97.726)"/>
                            <path fill="#7A7A7A" fill-rule="nonzero" d="M158.87 48.18l-6.818.286c-.714.042-1.411-.224-1.915-.73-.503-.506-.764-1.204-.716-1.915l.862-18.788c.037-.665.571-1.195 1.238-1.227l8.39-.353c.713-.042 1.41.224 1.914.73.504.507.765 1.204.717 1.915l-.789 17.209c-.09 1.547-1.33 2.782-2.882 2.873z" transform="matrix(-1 0 0 1 369.463 97.726)"/>
                            <path fill="#FFF" fill-rule="nonzero" d="M158.804 48.187l-6.678.272c-.73.041-1.444-.23-1.961-.747-.517-.517-.788-1.229-.744-1.957l.862-18.664c.047-.696.606-1.25 1.305-1.293l8.249-.338c.73-.043 1.446.228 1.963.745.517.517.787 1.23.742 1.96l-.789 17.09c-.098 1.58-1.363 2.838-2.949 2.932z" opacity=".5" transform="matrix(-1 0 0 1 369.463 97.726)"/>
                            <path fill="#FFF" fill-rule="nonzero" d="M157.36 37.18c-.034.797-.675 1.436-1.475 1.47-.36.024-.713-.109-.967-.364-.255-.255-.386-.608-.36-.966.041-.795.678-1.43 1.475-1.47.359-.02.709.115.962.369.254.254.386.603.365.961z" transform="matrix(-1 0 0 1 369.463 97.726)"/>
                            <path fill="#FFB573" fill-rule="nonzero" d="M162.173 51.038l1.077-2.204c1.309-2.542.85-5.632-1.143-7.686l-2.396-2.249s-4.047 9.472-3.037 9.59c.501.058.737.977 2.477 2.115.871.64 2.005.802 3.022.434z" transform="matrix(-1 0 0 1 369.463 97.726)"/>
                            <path fill="#FFB573" fill-rule="nonzero" d="M159.711 38.885s-3.177-.632-4.062.448c-.884 1.08-1.474 5.533-1.548 6.12-.147 1.566 2.573 3.02 2.573 3.02l3.037-9.588z" transform="matrix(-1 0 0 1 369.463 97.726)"/>
                            <path fill="#001443" fill-rule="nonzero" d="M102.007 26.944c-2.75-2.123-5.204-4.768-6.406-8.045-1.29-3.498-.862-7.811 1.747-10.442.214-.205.494-.426.774-.323.208.121.355.324.406.558.059.147.11.31.162.463.051.155.118.346.17.522-.345.703-.607 1.442-.782 2.204-.326 1.454-.313 2.962.037 4.41.25 1.087.464 2.064.685 2.975.826 3.512 1.534 5.717 3.207 7.678z" transform="matrix(-1 0 0 1 369.463 97.726)"/>
                            <path fill="#263238" fill-rule="nonzero" d="M102.575 27.378l-.553-.419c-1.674-1.932-2.381-4.195-3.207-7.708-.221-.91-.435-1.888-.685-2.976-.35-1.447-.363-2.955-.037-4.408.174-.763.437-1.502.781-2.205.98 3.123 1.239 6.4 1.673 9.626.265 2.783.949 5.51 2.028 8.09z" transform="matrix(-1 0 0 1 369.463 97.726)"/>
                            <path fill="#FFB573" fill-rule="nonzero" d="M103.127 23.513c.553 3.623 1.04 8.715-.81 11.683-.67 1.017-.652 2.337.044 3.336 1.238 1.705 4.017 4.24 10.276 7.017 1.71-2.292 2.292-4.122 2.359-5.503.05-1.61-.917-3.078-2.418-3.674-3.008-1.264-2.757-3.042-1.961-5.827l-7.49-7.032z" transform="matrix(-1 0 0 1 369.463 97.726)"/>
                            <path fill="#000" fill-rule="nonzero" d="M106.15 26.371l4.423 4.203c-.224.734-.382 1.487-.472 2.249-1.732-.324-4.423-1.925-4.681-3.85.03-.913.28-1.806.73-2.602z" opacity=".2" transform="matrix(-1 0 0 1 369.463 97.726)"/>
                            <path fill="#FFB573" fill-rule="nonzero" d="M118.6 22.822c-.2 4.365-3.694 7.864-8.072 8.083h-.051c-1.643.074-3.277-.28-4.74-1.029-.543-.273-1.06-.592-1.548-.955-.2-.14-.398-.294-.575-.44-.578-.462-1.111-.976-1.592-1.537-1.674-1.932-2.381-4.195-3.207-7.707-.221-.912-.435-1.889-.685-2.976-.35-1.448-.363-2.956-.037-4.409.174-.762.437-1.502.781-2.204.152-.31.324-.61.516-.897 2.104-3.332 6.098-4.967 9.944-4.07 3.222.734 5.522 3.196 7.033 6.297.147.308.287.624.42.94 1.409 3.456 2.028 7.18 1.813 10.904z" transform="matrix(-1 0 0 1 369.463 97.726)"/>
                            <path fill="#263238" fill-rule="nonzero" d="M109.209 16.231c.103.559.472.963.826.911.353-.051.575-.573.486-1.131-.088-.559-.464-.963-.818-.911-.354.051-.553.595-.494 1.131zM115.445 15.188c.096.573.465.963.818.911.354-.051.583-.573.494-1.131-.088-.559-.464-.963-.825-.897-.361.066-.575.559-.487 1.117z" transform="matrix(-1 0 0 1 369.463 97.726)"/>
                            <path fill="#ED893E" fill-rule="nonzero" d="M113.69 16.533c.706 1.19 1.57 2.28 2.566 3.24-.498.512-1.195.78-1.91.735l-.655-3.975z" transform="matrix(-1 0 0 1 369.463 97.726)"/>
                            <path fill="#263238" fill-rule="nonzero" d="M111.708 23.182c.277-.002.553-.027.826-.073.087-.015.149-.095.14-.184-.019-.088-.103-.146-.192-.132-1.39.258-2.82-.163-3.848-1.132-.03-.032-.073-.05-.118-.05s-.087.018-.118.05c-.064.066-.064.17 0 .236.882.858 2.077 1.323 3.31 1.285zM106.496 15.379c.144.005.272-.09.31-.228.45-.99 1.29-1.75 2.322-2.101.176-.057.274-.243.221-.42-.024-.082-.08-.152-.156-.194-.077-.041-.166-.05-.25-.026-1.246.404-2.252 1.334-2.749 2.543-.053.17.043.351.214.404.027.016.057.023.088.022zM116.831 11.948c.155.004.293-.098.332-.248.039-.15-.032-.306-.17-.377-.906-.58-2.046-.657-3.022-.206-.156.076-.224.26-.155.42.038.076.106.135.188.161.082.027.171.018.247-.022.774-.324 1.658-.25 2.366.198.059.052.136.078.214.074z" transform="matrix(-1 0 0 1 369.463 97.726)"/>
                            <path fill="#001443" fill-rule="nonzero" d="M102.31 21c-.274.39-1.298-1.616-1.777-1.697-.573-.096-1.155-.118-1.733-.066-.22-.912-.435-1.889-.685-2.976-.35-1.448-.363-2.956-.037-4.409.175-.762.437-1.502.781-2.204-.051-.177-.103-.353-.17-.522.214-.146.441-.272.679-.375.542-.236 1.138-.322 1.725-.25.887.174 1.636.762 2.012 1.58-2.204 4.615.096 9.692-.796 10.92z" opacity=".2" transform="matrix(-1 0 0 1 369.463 97.726)"/>
                            <path fill="#001443" fill-rule="nonzero" d="M101.904 1.337c-2.385.667-4.449 2.167-5.816 4.225-.804 1.279-1.276 3.197-.369 4.35.737.955 2.057.86 3.17.698l14.396-2.153c1.659-.25 3.42-.55 4.674-1.851 1.122-1.239 1.63-2.912 1.386-4.563.066.455-4.047.69-4.423.668-1.598-.124-3.152-.58-4.563-1.337-2.624-1.374-5.684-.889-8.455-.037z" transform="matrix(-1 0 0 1 369.463 97.726)"/>
                            <path fill="#FFB573" fill-rule="nonzero" d="M97.15 21.867c.624 1.159 1.685 2.023 2.948 2.403 1.673.47 2.513-1.044 2.049-2.66-.427-1.47-1.799-3.439-3.48-3.233-.75.14-1.38.648-1.677 1.35-.297.702-.22 1.506.203 2.14h-.044z" transform="matrix(-1 0 0 1 369.463 97.726)"/>
                            <path fill="#001443" fill-rule="nonzero" d="M103.113 10.052s-.067 1.029-.103 1.969c-.022.802-.581 1.49-1.364 1.675l-4.593 1.095S94.88 11 96.87 10.31c1.99-.69 6.332-1.572 6.244-.257z" transform="matrix(-1 0 0 1 369.463 97.726)"/>
                            <path fill="#FFB573" fill-rule="nonzero" d="M92.085 97.542l5.64 7.848s6.479-3.49 6.928-4.056c0 0-1.636-3.814-4.732-5.438l-2.949-1.256-4.887 2.902z" transform="matrix(-1 0 0 1 369.463 97.726)"/>
                            <path fill="#FFB573" fill-rule="nonzero" d="M96.78 104.14l7.69-3.063 1.945 3.145c.17.279.212.617.115.93-.097.312-.324.567-.623.7l-4.114 1.816c-.888.394-1.93.15-2.55-.595l-2.462-2.932z" transform="matrix(-1 0 0 1 369.463 97.726)"/>
                            <path fill="#FFB130" fill-rule="nonzero" d="M81.942 45.689c-3.51 8.126-7.57 15.393-6.694 23.873.833 8.082 10.608 23.278 16.52 28.884-.921-.411 7.57-4.107 7.57-4.107-.095-2.594-8.89-17.767-11.927-24.153-2.056-4.327 11.92-20.052 10.873-24.982-2.668-12.66-14.005-4.909-16.342.485z" transform="matrix(-1 0 0 1 369.463 97.726)"/>
                        </g>
                    </g>
                </g>
                <path fill="#F0F0F0" fill-rule="nonzero" d="M175.978 42.716l27.947-1.652c.991-.057 1.977.18 2.838.68 9.234 8.118 19.162 2.699 23.584-.5 1.665-1.224 3.638-1.944 5.69-2.078l31.146-1.839c11.681-.687 13.546-17.445 2.292-20.688l-.435-.12c11.608-11.032-16.42-31.198-43.778.628 1.687-10.173-23.96-5.015-31.088 9.148-3.324-8.812-27.085 8.252-18.196 16.421z" transform="translate(-115 -476) translate(115 476)"/>
                <path fill="#F0F0F0" fill-rule="nonzero" d="M313.171 83.144l16.552-.934c.586-.032 1.17.101 1.68.385 5.47 4.588 11.349 1.525 13.967-.283.987-.692 2.155-1.1 3.37-1.175l18.446-1.039c6.918-.389 8.022-9.86 1.357-11.694l-.257-.067c6.874-6.236-9.725-17.634-25.927.355 1-5.75-14.19-2.835-18.411 5.17-1.969-4.98-16.04 4.665-10.777 9.282z" opacity=".529" transform="translate(-115 -476) translate(115 476)"/>
            </g>
        </g>
    </g>
</svg>
