<svg width="55" height="55" viewBox="0 0 55 55" fill="none" xmlns="http://www.w3.org/2000/svg">
<rect width="55" height="55" rx="27.5" fill="#FFE6D5"/>
<path d="M35.5 18.5H19.5C18.9696 18.5 18.4609 18.7107 18.0858 19.0858C17.7107 19.4609 17.5 19.9696 17.5 20.5V24.5C17.5 25.0304 17.7107 25.5391 18.0858 25.9142C18.4609 26.2893 18.9696 26.5 19.5 26.5H35.5C36.0304 26.5 36.5391 26.2893 36.9142 25.9142C37.2893 25.5391 37.5 25.0304 37.5 24.5V20.5C37.5 19.9696 37.2893 19.4609 36.9142 19.0858C36.5391 18.7107 36.0304 18.5 35.5 18.5ZM30.5 23.5H28.5V21.5H30.5V23.5ZM34.5 23.5H32.5V21.5H34.5V23.5ZM35.5 28.5H19.5C18.9696 28.5 18.4609 28.7107 18.0858 29.0858C17.7107 29.4609 17.5 29.9696 17.5 30.5V34.5C17.5 35.0304 17.7107 35.5391 18.0858 35.9142C18.4609 36.2893 18.9696 36.5 19.5 36.5H35.5C36.0304 36.5 36.5391 36.2893 36.9142 35.9142C37.2893 35.5391 37.5 35.0304 37.5 34.5V30.5C37.5 29.9696 37.2893 29.4609 36.9142 29.0858C36.5391 28.7107 36.0304 28.5 35.5 28.5ZM30.5 33.5H28.5V31.5H30.5V33.5ZM34.5 33.5H32.5V31.5H34.5V33.5Z" fill="#FF6600"/>
</svg>
