<svg width="55" height="55" viewBox="0 0 55 55" fill="none" xmlns="http://www.w3.org/2000/svg">
<rect width="55" height="55" rx="27.5" fill="#FFE6D5"/>
<path fill-rule="evenodd" clip-rule="evenodd" d="M27.4 25.2C28.3548 25.2 29.2705 24.8207 29.9456 24.1456C30.6207 23.4705 31 22.5548 31 21.6C31 20.6452 30.6207 19.7295 29.9456 19.0544C29.2705 18.3793 28.3548 18 27.4 18C26.4452 18 25.5295 18.3793 24.8544 19.0544C24.1793 19.7295 23.8 20.6452 23.8 21.6C23.8 22.5548 24.1793 23.4705 24.8544 24.1456C25.5295 24.8207 26.4452 25.2 27.4 25.2ZM19 36C19 34.8969 19.2173 33.8046 19.6394 32.7855C20.0616 31.7663 20.6803 30.8403 21.4603 30.0603C22.2403 29.2803 23.1663 28.6616 24.1855 28.2394C25.2046 27.8173 26.2969 27.6 27.4 27.6C28.5031 27.6 29.5954 27.8173 30.6145 28.2394C31.6337 28.6616 32.5597 29.2803 33.3397 30.0603C34.1197 30.8403 34.7385 31.7663 35.1606 32.7855C35.5827 33.8046 35.8 34.8969 35.8 36H19Z" fill="#FF6600"/>
<path fill-rule="evenodd" clip-rule="evenodd" d="M39 24.6C39.4547 24.6 39.8907 24.4104 40.2122 24.0728C40.5337 23.7352 40.7143 23.2774 40.7143 22.8C40.7143 22.3226 40.5337 21.8648 40.2122 21.5272C39.8907 21.1896 39.4547 21 39 21C38.5453 21 38.1093 21.1896 37.7878 21.5272C37.4663 21.8648 37.2857 22.3226 37.2857 22.8C37.2857 23.2774 37.4663 23.7352 37.7878 24.0728C38.1093 24.4104 38.5453 24.6 39 24.6ZM35 30C35 29.4484 35.1035 28.9023 35.3045 28.3927C35.5055 27.8832 35.8001 27.4202 36.1716 27.0302C36.543 26.6401 36.984 26.3308 37.4693 26.1197C37.9546 25.9086 38.4747 25.8 39 25.8C39.5253 25.8 40.0454 25.9086 40.5307 26.1197C41.016 26.3308 41.457 26.6401 41.8284 27.0302C42.1999 27.4202 42.4945 27.8832 42.6955 28.3927C42.8965 28.9023 43 29.4484 43 30H35Z" fill="#FF6600" fill-opacity="0.4"/>
<path fill-rule="evenodd" clip-rule="evenodd" d="M14 24.6C14.4547 24.6 14.8907 24.4104 15.2122 24.0728C15.5337 23.7352 15.7143 23.2774 15.7143 22.8C15.7143 22.3226 15.5337 21.8648 15.2122 21.5272C14.8907 21.1896 14.4547 21 14 21C13.5453 21 13.1093 21.1896 12.7878 21.5272C12.4663 21.8648 12.2857 22.3226 12.2857 22.8C12.2857 23.2774 12.4663 23.7352 12.7878 24.0728C13.1093 24.4104 13.5453 24.6 14 24.6ZM10 30C10 29.4484 10.1035 28.9023 10.3045 28.3927C10.5055 27.8832 10.8001 27.4202 11.1716 27.0302C11.543 26.6401 11.984 26.3308 12.4693 26.1197C12.9546 25.9086 13.4747 25.8 14 25.8C14.5253 25.8 15.0454 25.9086 15.5307 26.1197C16.016 26.3308 16.457 26.6401 16.8284 27.0302C17.1999 27.4202 17.4945 27.8832 17.6955 28.3927C17.8965 28.9023 18 29.4484 18 30H10Z" fill="#FF6600" fill-opacity="0.4"/>
</svg>
