<svg width="55" height="55" viewBox="0 0 55 55" fill="none" xmlns="http://www.w3.org/2000/svg">
<rect width="55" height="55" rx="27.5" fill="#FFE6D5"/>
<path d="M27.9674 19.4593V17.9349H29.4625C29.9902 17.9349 30.43 17.4951 30.43 16.9674C30.43 16.4397 29.9902 16 29.4625 16H24.5375C24.0098 16 23.57 16.4397 23.57 16.9674C23.57 17.4951 24.0098 17.9349 24.5375 17.9349H26.0326V19.4593C21.5179 19.9283 18 23.7687 18 28.4007C18 33.355 22.0456 37.4007 27 37.4007C31.9544 37.4007 36 33.355 36 28.4007C36 23.7687 32.4821 19.9577 27.9674 19.4593ZM34.0065 27.4625H32.8339C32.3062 27.4625 31.8665 27.9023 31.8665 28.43C31.8665 28.9577 32.3062 29.3974 32.8339 29.3974H34.0065C33.8306 30.6287 33.3616 31.772 32.6287 32.7394L31.7785 31.8892C31.3974 31.5081 30.7818 31.5081 30.43 31.8892C30.0782 32.2704 30.0489 32.886 30.43 33.2378L31.2801 34.0879C30.3127 34.8208 29.1987 35.2899 27.9381 35.4658V34.2638C27.9381 33.7362 27.4984 33.2964 26.9707 33.2964C26.443 33.2964 26.0033 33.7362 26.0033 34.2638V35.4365C24.772 35.2606 23.6287 34.7622 22.6906 34.0293L23.5114 33.2085C23.8925 32.8274 23.8925 32.2117 23.5114 31.8599C23.1303 31.4788 22.5147 31.4788 22.1629 31.8599L21.342 32.6808C20.6384 31.7427 20.1401 30.5993 19.9935 29.3681H21.1368C21.6645 29.3681 22.1042 28.9283 22.1042 28.4007C22.1042 27.873 21.6645 27.4332 21.1368 27.4332H19.9935C20.1694 26.202 20.6678 25.0879 21.3713 24.1498L22.1922 24.9707C22.3681 25.1466 22.6319 25.2638 22.8665 25.2638C23.101 25.2638 23.3648 25.1759 23.5407 24.9707C23.9218 24.5896 23.9218 23.9739 23.5407 23.6222L22.7492 22.8306C23.6873 22.127 24.8306 21.6287 26.0619 21.4528V22.5961C26.0619 23.1238 26.5016 23.5635 27.0293 23.5635C27.557 23.5635 27.9967 23.1238 27.9967 22.5961V21.4528C31.1042 21.8339 33.5668 24.3257 34.0065 27.4625Z" fill="#FF6600"/>
<path d="M27.0877 26.5244C26.5601 26.4951 26.0324 26.671 25.6219 27.0814C24.889 27.8143 24.889 29.0163 25.6219 29.7785C26.3548 30.5114 27.5568 30.5114 28.319 29.7785C28.7294 29.3681 28.9053 28.8404 28.876 28.3127L31.0454 25.3225C31.4851 24.7069 30.7229 23.9446 30.1073 24.3844L27.0877 26.5244Z" fill="#FF6600"/>
</svg>
