<svg width="24" height="22" viewBox="0 0 24 22" fill="none" xmlns="http://www.w3.org/2000/svg">
<g clip-path="url(#clip0)">
<path d="M20.4877 5.70728C22.1487 6.30531 23.1806 7.45295 23.5661 9.17104C23.5865 9.26172 23.5402 9.36956 23.6278 9.44431V10.5901C23.5661 10.8285 23.5143 11.0699 23.4427 11.3046C23.0316 12.6403 22.1829 13.5929 20.8967 14.1623C20.7542 14.2236 20.7116 14.2947 20.7116 14.446C20.7184 15.0103 20.7079 15.5747 20.7042 16.139L19.1006 16.1292L19.1043 13.1703C19.2936 13.1538 19.483 13.1605 19.6742 13.1237C20.0965 13.0449 20.4983 12.8818 20.8553 12.6442C21.2123 12.4067 21.517 12.0996 21.7511 11.7417C21.9852 11.3837 22.1438 10.9823 22.2172 10.5617C22.2907 10.1412 22.2774 9.71016 22.1783 9.29481C22.0191 8.60352 21.6282 7.98649 21.0697 7.54485C20.5111 7.10322 19.8181 6.86319 19.1043 6.86411L19.1006 5.50937C19.5798 5.47077 20.0332 5.58964 20.4877 5.70728Z" fill="#311C4C"/>
<path d="M17.4439 20.3576H17.3286L0.947997 20.3399C0.381789 20.3399 0 19.9618 0 19.4024V9.04116C0 8.93455 4.51728e-07 8.82732 0.00431794 8.7207C0.0189956 8.73717 0.0310599 8.75577 0.0400925 8.77585C0.318879 9.78501 0.946149 10.2648 1.99098 10.2648H8.62758C8.62758 10.8818 8.62758 11.4988 8.63437 12.1164C8.63745 12.5454 8.92302 12.8315 9.35292 12.8376C9.65206 12.8419 9.9512 12.8425 10.2503 12.845C10.2503 15.2487 10.2503 17.6531 10.2429 20.0568C10.2429 20.2682 10.3009 20.3221 10.5112 20.3215C12.7317 20.3141 14.9521 20.3172 17.1725 20.3172C17.2644 20.3172 17.3575 20.3233 17.4488 20.327C17.4506 20.3321 17.4511 20.3376 17.4502 20.3429C17.4493 20.3483 17.4472 20.3533 17.4439 20.3576Z" fill="#5E488D"/>
<path d="M8.62717 10.2621H1.99057C0.945738 10.2621 0.318467 9.78232 0.0396808 8.77316C0.0306482 8.75307 0.0185839 8.73448 0.00390625 8.71801C0.00390625 6.96152 0.00390625 5.20503 0.00390625 3.44855C0.00390625 3.01964 0.312298 2.74759 0.770569 2.74759C2.68383 2.74759 4.59587 2.74759 6.50666 2.74759C6.59857 2.74759 6.6917 2.74269 6.78299 2.74023H8.16767L10.2456 2.75494C10.2456 4.8133 10.2456 6.87166 10.2456 8.93001C9.94647 8.93001 9.64733 8.93001 9.34819 8.93798C8.9331 8.9441 8.63889 9.2327 8.63087 9.64261C8.62717 9.85033 8.62717 10.058 8.62717 10.2621Z" fill="#FACB2D"/>
<path d="M10.2451 8.93197C10.2451 6.87361 10.2451 4.81525 10.2451 2.75689L12.3212 2.74219H13.7065C14.9512 2.74464 16.1956 2.74709 17.4399 2.74954C18.2238 2.74954 19.0072 2.74954 19.7911 2.74954C19.8836 2.74567 19.9759 2.76086 20.0622 2.79415C20.1485 2.82743 20.2269 2.8781 20.2925 2.94296C20.3582 3.00782 20.4096 3.08546 20.4436 3.17102C20.4775 3.25657 20.4933 3.34818 20.4899 3.44009C20.4899 4.19558 20.4899 4.95107 20.4899 5.70718C20.0353 5.59015 19.582 5.47128 19.1052 5.50927C17.5762 5.52459 16.3482 6.14283 15.4286 7.34745C14.7742 8.20527 14.5176 9.19605 14.5398 10.264H11.8703C11.8673 10.0508 11.8654 9.83819 11.8623 9.62558C11.8641 9.53442 11.8473 9.44385 11.8128 9.35935C11.7783 9.27485 11.727 9.19817 11.6618 9.13396C11.5967 9.06975 11.5191 9.01934 11.4337 8.98578C11.3484 8.95222 11.2571 8.9362 11.1654 8.93871L10.2451 8.93197Z" fill="#F9A11C"/>
<path d="M19.1025 16.1289L20.7062 16.1387C20.7062 17.5805 20.7352 19.0228 20.7062 20.4646C20.7028 20.673 20.6573 20.8785 20.5725 21.0692C20.4877 21.2598 20.3653 21.4316 20.2125 21.5744C20.0597 21.7172 19.8797 21.8282 19.683 21.9006C19.4863 21.9731 19.277 22.0057 19.0674 21.9964C19.0674 20.0451 19.0674 18.0937 19.0674 16.1424C19.0787 16.1369 19.0905 16.1324 19.1025 16.1289Z" fill="#F9A11C"/>
<path d="M19.0623 16.1428C19.0623 18.0938 19.0623 20.0451 19.0623 21.9969C18.2654 22.0073 17.5475 21.3602 17.4815 20.5741C17.4753 20.5012 17.4988 20.4203 17.4414 20.356C17.4442 20.351 17.4456 20.3454 17.4456 20.3397C17.4456 20.3341 17.4442 20.3285 17.4414 20.3235C17.4883 20.2463 17.4661 20.1605 17.4661 20.0784C17.4661 18.8464 17.4661 17.6142 17.4661 16.3818C17.4661 16.2997 17.479 16.217 17.4858 16.1367L19.0623 16.1428Z" fill="#FACB2D"/>
<path d="M13.7081 2.74161H12.3228C12.3228 2.35253 12.3111 1.96344 12.3277 1.57742C12.3351 1.39361 12.2722 1.36971 12.1094 1.37155C11.4883 1.3789 10.8672 1.37155 10.2461 1.36787V0.0082284C11.1904 0.0082284 12.1341 -0.0015763 13.0784 0.00332553C13.4219 0.00332553 13.7038 0.30969 13.7063 0.662008C13.7106 1.35623 13.7081 2.04739 13.7081 2.74161Z" fill="#311C4C"/>
<path d="M10.2462 0.00964295V1.3699C9.63249 1.3699 9.01941 1.38215 8.40571 1.37296C8.22067 1.3699 8.15344 1.40115 8.16331 1.60212C8.18243 1.98263 8.16886 2.36436 8.16886 2.74548H6.78418C6.78418 2.08067 6.78418 1.41585 6.78418 0.751656C6.78418 0.287821 7.06482 0.00290384 7.52432 0.00290384C8.43223 -0.000159802 9.3389 0.00474113 10.2462 0.00964295Z" fill="#5E488D"/>
<path d="M19.0627 16.1431L17.4923 16.1345C17.4923 15.594 17.4812 15.0524 17.4923 14.512C17.4979 14.3122 17.4306 14.2056 17.2456 14.1364C16.7421 13.9333 16.2861 13.6294 15.9059 13.2436C15.0751 12.4256 14.6341 11.4208 14.5404 10.2645C14.5182 9.19655 14.7748 8.207 15.4292 7.34795C16.3488 6.14149 17.5768 5.52325 19.1058 5.50977L19.1095 6.86451C19.1068 6.86746 19.1048 6.87096 19.1036 6.87478C19.1025 6.87859 19.1022 6.88262 19.1027 6.88656C18.6875 6.88463 18.276 6.96417 17.8918 7.12063C17.5076 7.27709 17.1583 7.50739 16.8639 7.7983C16.5695 8.08921 16.3358 8.43501 16.1763 8.81586C16.0168 9.19671 15.9346 9.6051 15.9343 10.0176C15.9348 10.43 16.0172 10.8383 16.1768 11.2191C16.3364 11.5998 16.5701 11.9455 16.8644 12.2364C17.1588 12.5272 17.508 12.7575 17.8921 12.9141C18.2762 13.0706 18.6876 13.1503 19.1027 13.1486C19.1021 13.1526 19.1024 13.1566 19.1036 13.1605C19.1048 13.1643 19.1068 13.1678 19.1095 13.1707L19.1058 16.1296C19.091 16.1326 19.0766 16.1372 19.0627 16.1431Z" fill="#5E488D"/>
<path d="M19.1067 6.86328C19.8206 6.86236 20.5136 7.10239 21.0721 7.54402C21.6306 7.98565 22.0215 8.60269 22.1808 9.29397C22.2796 9.7092 22.2926 10.14 22.219 10.5604C22.1455 10.9807 21.9868 11.3819 21.7528 11.7397C21.5187 12.0974 21.214 12.4043 20.8572 12.6417C20.5003 12.8791 20.0987 13.0422 19.6766 13.1211C19.4854 13.1578 19.2961 13.1511 19.1067 13.1676C19.104 13.1647 19.1019 13.1612 19.1008 13.1574C19.0996 13.1536 19.0993 13.1495 19.0999 13.1456V6.8835C19.0996 6.87985 19.1001 6.87618 19.1012 6.8727C19.1024 6.86922 19.1043 6.86602 19.1067 6.86328Z" fill="#311C4C" fill-opacity="0.4"/>
<path d="M14.5373 10.2661C14.6311 11.4223 15.0721 12.4272 15.9029 13.2452C16.2849 13.6314 16.7431 13.9352 17.2487 14.1373C17.4337 14.2084 17.4997 14.3132 17.4954 14.5129C17.4819 15.0534 17.4917 15.595 17.4954 16.1354C17.4886 16.2182 17.4757 16.3009 17.4757 16.3805C17.4757 17.6125 17.4757 18.8447 17.4757 20.0771C17.4757 20.1592 17.4979 20.245 17.451 20.3222C17.3585 20.3222 17.266 20.313 17.1747 20.313C14.9543 20.313 12.7338 20.313 10.5134 20.3173C10.3031 20.3173 10.2445 20.264 10.2451 20.0526C10.2538 17.6489 10.2519 15.2445 10.2525 12.8408C10.5517 12.8408 10.8514 12.8347 11.1506 12.8328C11.5823 12.8328 11.8617 12.5498 11.8636 12.1166L11.8728 10.2637L14.5373 10.2661Z" fill="#311C4C"/>
<path d="M11.8681 10.2649L11.8588 12.1178C11.8588 12.551 11.5776 12.8317 11.1458 12.8341C10.8467 12.8341 10.5469 12.8396 10.2478 12.8421C9.94862 12.8445 9.64948 12.839 9.35034 12.8347C8.91859 12.8286 8.63487 12.5437 8.63179 12.1135C8.62747 11.4959 8.62747 10.8789 8.625 10.2619C8.625 10.056 8.625 9.84951 8.63055 9.64424C8.63857 9.23433 8.93278 8.94573 9.34787 8.93961C9.64701 8.9347 9.94615 8.93409 10.2453 8.93164L11.1631 8.93961C11.255 8.93709 11.3464 8.95316 11.4319 8.98683C11.5173 9.02051 11.595 9.07108 11.6602 9.13549C11.7254 9.1999 11.7767 9.2768 11.8111 9.36152C11.8454 9.44624 11.8621 9.537 11.86 9.62831C11.8631 9.83909 11.865 10.0517 11.8681 10.2649Z" fill="white"/>
<path d="M19.1001 6.88675V13.1488C18.6849 13.1505 18.2735 13.0708 17.8894 12.9143C17.5053 12.7577 17.1561 12.5274 16.8617 12.2366C16.5674 11.9457 16.3337 11.6 16.1741 11.2193C16.0145 10.8385 15.9321 10.4302 15.9316 10.0178C15.9319 9.6053 16.0141 9.1969 16.1736 8.81605C16.3332 8.43521 16.5668 8.0894 16.8612 7.79849C17.1556 7.50758 17.5049 7.27728 17.8891 7.12082C18.2733 6.96436 18.6848 6.88482 19.1001 6.88675Z" fill="white"/>
</g>
<defs>
<clipPath id="clip0">
<rect width="23.6296" height="22" fill="white"/>
</clipPath>
</defs>
</svg>
