<svg width="17" height="16" viewBox="0 0 17 16" fill="none" xmlns="http://www.w3.org/2000/svg">
<path d="M8.16279 15.9945C5.49308 15.9945 2.82352 15.9961 0.154113 15.9994C0.026284 15.9994 -0.000439961 15.9629 5.43611e-06 15.8413C0.00356861 14.0374 5.51761e-06 12.2336 0.00356869 10.4302C-0.000204394 10.0459 0.134739 9.67325 0.383626 9.38051C0.632513 9.08777 0.97864 8.89463 1.35847 8.83654C2.50581 8.64413 3.6536 8.4535 4.80183 8.26465L5.3363 8.82719C5.25925 9.04632 5.18576 9.26635 5.10336 9.48325C5.08839 9.51829 5.08345 9.5568 5.08912 9.59448C5.09478 9.63216 5.11082 9.66752 5.13543 9.6966C5.27217 9.89213 5.39911 10.0948 5.53629 10.2899C5.56059 10.3189 5.57575 10.3545 5.57987 10.3921C5.58399 10.4298 5.57689 10.4678 5.55945 10.5014C5.40579 10.8698 5.26192 11.2421 5.11138 11.6114C5.07875 11.6871 5.07248 11.7717 5.09356 11.8514C5.29177 12.6977 5.48329 13.5439 5.67837 14.3929C5.73449 14.6356 5.79506 14.8775 5.85341 15.1193C5.86625 15.1135 5.8776 15.1049 5.88663 15.0941C5.89566 15.0833 5.90212 15.0706 5.90552 15.057C6.15094 13.9942 6.39546 12.9311 6.64443 11.8692C6.66771 11.7787 6.66018 11.6829 6.62306 11.5971C6.4783 11.2408 6.34157 10.8845 6.1928 10.5335C6.17072 10.4903 6.16187 10.4415 6.16733 10.3933C6.1728 10.345 6.19234 10.2995 6.22354 10.2623C6.35715 10.073 6.48365 9.8752 6.61326 9.68324C6.64354 9.6387 6.67695 9.59906 6.65245 9.53269C6.56649 9.29975 6.48676 9.06369 6.40481 8.82897L6.93929 8.26643L9.91365 8.76483C9.87703 8.9212 9.86205 9.08185 9.86911 9.2423C9.87223 9.53581 9.86911 9.82933 9.86911 10.1228C9.3474 10.1246 8.82554 10.1266 8.30354 10.1286C8.09331 10.1286 8.00111 10.2222 8.00111 10.4346C8.00111 10.7789 8.00468 11.1232 8.00646 11.4675V14.8311V14.9296C8.00646 15.1616 8.01047 15.3937 7.99889 15.6253C7.99087 15.7816 8.03318 15.9045 8.16279 15.9945Z" fill="#F9A11C"/>
<path d="M6.93573 8.2655L6.40125 8.82803C6.21686 8.90954 6.11219 9.08102 5.97412 9.21375C5.89038 9.29392 5.84406 9.29348 5.76032 9.21375C5.62225 9.08013 5.51758 8.90999 5.33319 8.82848L4.80272 8.2655C4.80272 7.9604 4.7996 7.65575 4.80272 7.35065C4.80723 7.31057 4.79915 7.27007 4.77959 7.2348C4.76004 7.19952 4.72998 7.1712 4.6936 7.15379C4.13997 6.82375 3.74713 6.36098 3.56585 5.7343C3.48794 5.48008 3.45537 5.21413 3.46965 4.94863C3.47722 4.83371 3.44025 4.78917 3.32133 4.79719C3.18779 4.80393 3.054 4.80393 2.92047 4.79719C2.78044 4.79531 2.64687 4.738 2.54903 4.63781C2.45118 4.53763 2.39704 4.40274 2.39847 4.26271C2.39847 3.9692 2.62562 3.74382 2.9227 3.72824C3.09551 3.71844 3.27367 3.775 3.44069 3.68949C3.50261 3.60753 3.4407 3.50598 3.48746 3.41779C3.64736 3.10601 3.8028 2.79424 3.95647 2.48246C3.99032 2.41253 4.01927 2.40674 4.07806 2.45663C4.16268 2.52789 4.25399 2.59025 4.34307 2.65706C5.11004 3.22984 5.93804 3.35989 6.83151 2.99466C7.13304 2.87129 7.38024 2.66195 7.63723 2.46954C7.70448 2.41921 7.74279 2.39917 7.78154 2.49359C7.94589 2.89445 8.23629 3.24142 8.28929 3.68949C8.4434 3.78257 8.61176 3.71888 8.77299 3.72913C8.93423 3.73937 9.06562 3.77634 9.17652 3.8917C9.34043 4.06184 9.38051 4.25959 9.29099 4.47294C9.25446 4.56996 9.18906 4.65345 9.1036 4.71215C9.01815 4.77085 8.91675 4.80192 8.81308 4.8012C8.67954 4.80794 8.54575 4.80794 8.41222 4.8012C8.29597 4.79318 8.25589 4.83282 8.26168 4.95041C8.27758 5.28284 8.22325 5.6149 8.10222 5.92494C7.89601 6.46387 7.53033 6.8665 7.03862 7.15735C7.00207 7.17459 6.97184 7.20286 6.95218 7.23817C6.93253 7.27348 6.92444 7.31406 6.92905 7.35421C6.9384 7.65664 6.93573 7.96174 6.93573 8.2655Z" fill="#FACB2D"/>
<path d="M8.00534 11.4677C8.00534 11.1234 8.00045 10.7791 8 10.4348C8 10.2224 8.0922 10.1302 8.30242 10.1288C8.82443 10.1262 9.34629 10.1242 9.868 10.123H10.4025L11.6972 10.1297H15.7134C15.916 10.1297 16.002 10.2188 16.0016 10.4228C16.0016 10.7604 16.0004 11.0983 15.998 11.4365C15.9913 11.445 15.9797 11.4526 15.9784 11.4619C15.8786 12.163 15.2212 12.8271 14.3042 12.7981C13.7171 12.7807 13.1287 12.7981 12.5413 12.7981L12.5333 12.269C12.5333 12.1353 12.531 12.004 12.5386 11.8717C12.5444 11.7683 12.515 11.722 12.4014 11.7251C12.1366 11.7317 11.8715 11.7317 11.6064 11.7251C11.4964 11.7225 11.4643 11.7621 11.4656 11.8686C11.4701 12.1777 11.4656 12.4868 11.4656 12.7959C10.8118 12.7959 10.1579 12.8003 9.50589 12.7959C9.26134 12.7894 9.02273 12.719 8.81374 12.5919C8.36968 12.3402 8.12204 11.951 8.00534 11.4677Z" fill="#FACB2D"/>
<path d="M8.29228 3.68812C8.23928 3.24005 7.94888 2.89308 7.78453 2.49223C7.74578 2.3978 7.70748 2.41785 7.64022 2.46818C7.38323 2.66059 7.13603 2.86903 6.8345 2.9933C5.94103 3.35852 5.11304 3.22847 4.34606 2.65569C4.25698 2.58932 4.1679 2.52652 4.08105 2.45526C4.02226 2.40537 3.99197 2.41072 3.95946 2.48109C3.80579 2.79287 3.65035 3.10776 3.49045 3.41643C3.44591 3.5055 3.5056 3.60616 3.44369 3.68812C3.29849 3.39505 3.15017 3.10331 3.00853 2.80846C2.91793 2.62646 2.86847 2.42675 2.86367 2.2235C2.85886 2.02025 2.89883 1.81844 2.98073 1.63236C3.06264 1.44628 3.18447 1.2805 3.3376 1.14676C3.49073 1.01303 3.6714 0.914621 3.86681 0.85851C3.95094 0.830339 4.02883 0.786178 4.09619 0.728455C4.48057 0.426476 4.88143 0.150329 5.37716 0.0518966C5.85266 -0.0498658 6.34789 -0.00402714 6.79664 0.183287C7.08303 0.303098 7.36541 0.433155 7.64512 0.567664C8.58045 1.01796 8.97463 2.07222 8.57155 3.02938C8.47861 3.2491 8.38552 3.46868 8.29228 3.68812Z" fill="#311C4C"/>
<path d="M12.5423 12.8001C13.1298 12.8001 13.7182 12.7831 14.3052 12.8001C15.2223 12.8277 15.8797 12.1636 15.9794 11.4639C15.9794 11.4545 15.9924 11.4469 15.999 11.4385C15.999 12.601 15.999 13.7637 15.999 14.9268C15.9438 14.9268 15.8881 14.9308 15.8329 14.9308H8.00684V14.8324C8.64833 14.8404 9.28558 14.7273 9.88507 14.4988C10.4744 14.2735 11.0199 13.947 11.497 13.5341C11.6698 13.8138 11.8894 13.9202 12.1419 13.8458C12.4091 13.7679 12.5356 13.5728 12.5365 13.2316C12.537 13.0878 12.5387 12.9439 12.5423 12.8001Z" fill="#311C4C"/>
<path d="M8.00646 14.9298H15.8312C15.8864 14.9298 15.9421 14.9271 15.9973 14.9258C15.9973 15.1868 16 15.4478 16 15.7083C16 15.9114 15.9131 15.9965 15.706 15.9965H8.41267C8.32938 15.9965 8.24653 15.9965 8.16324 15.9965C8.03363 15.9074 7.99132 15.7836 7.99889 15.6273C8.01047 15.3939 8.00468 15.1618 8.00646 14.9298Z" fill="#311C4C"/>
<path d="M10.4002 10.1237H9.86888C9.86888 9.83014 9.86888 9.53662 9.86888 9.2431C9.86182 9.08266 9.87681 8.922 9.91342 8.76564C10.1085 8.39818 10.4118 8.25165 10.8283 8.26011C11.6384 8.27659 12.4495 8.26456 13.2601 8.26501C13.8053 8.26501 14.1344 8.59104 14.1353 9.13175C14.1353 9.46491 14.1353 9.79985 14.1353 10.1312H13.6013C13.6013 9.79851 13.6013 9.4658 13.6013 9.13309C13.6013 8.89213 13.5091 8.79904 13.2717 8.7986C12.4237 8.7986 11.5755 8.7986 10.7272 8.7986C10.6492 8.7986 10.5708 8.79459 10.512 8.86051C10.4096 8.91796 10.4016 9.01506 10.402 9.1175C10.4034 9.45199 10.4002 9.78782 10.4002 10.1237Z" fill="#311C4C"/>
<path d="M11.497 13.5331C11.0199 13.946 10.4744 14.2725 9.88507 14.4978C9.28558 14.7263 8.64833 14.8394 8.00684 14.8314V11.4678C8.12353 11.951 8.37117 12.3403 8.80855 12.5933C9.01754 12.7205 9.25614 12.7908 9.5007 12.7973C10.1545 12.8022 10.8084 12.7973 11.4627 12.7973C11.4925 13.0289 11.4319 13.265 11.4956 13.4948L11.497 13.5331Z" fill="#5E488D"/>
<path d="M5.33426 8.82857C5.51865 8.91008 5.62332 9.08156 5.76139 9.21384C5.84513 9.29401 5.89145 9.29446 5.97518 9.21384C6.11326 9.08022 6.21793 8.90963 6.40232 8.82812C6.48427 9.06285 6.564 9.29891 6.64996 9.53185C6.67446 9.59822 6.64105 9.63652 6.61076 9.6824C6.48115 9.87614 6.35689 10.0739 6.22104 10.2614C6.18912 10.2989 6.16913 10.3452 6.16366 10.3941C6.15818 10.4431 6.16746 10.4926 6.19031 10.5362C6.33907 10.8885 6.47581 11.2457 6.62056 11.5998C6.65769 11.6857 6.66521 11.7814 6.64194 11.872C6.39252 12.9325 6.14844 13.9956 5.90526 15.0583C5.90185 15.072 5.89539 15.0847 5.88636 15.0955C5.87734 15.1063 5.86598 15.1149 5.85315 15.1207C5.7948 14.8788 5.73422 14.637 5.6781 14.3943C5.48302 13.548 5.2915 12.6991 5.0933 11.8528C5.07222 11.7731 5.07849 11.6885 5.11111 11.6127C5.26166 11.2435 5.40552 10.8712 5.55918 10.5028C5.57662 10.4692 5.58373 10.4312 5.57961 10.3935C5.57548 10.3559 5.56032 10.3203 5.53602 10.2913C5.39929 10.0962 5.27235 9.89351 5.13517 9.69799C5.11055 9.6689 5.09452 9.63354 5.08885 9.59586C5.08319 9.55819 5.08812 9.51968 5.1031 9.48464C5.18371 9.26773 5.2572 9.04771 5.33426 8.82857Z" fill="#F9A11C"/>
<path d="M11.4958 13.4949C11.4322 13.2651 11.4927 13.0291 11.4629 12.7974C11.4629 12.4883 11.4687 12.1792 11.4629 11.8701C11.4629 11.7637 11.4936 11.724 11.6036 11.7267C11.8685 11.7332 12.1335 11.7332 12.3987 11.7267C12.5122 11.7236 12.5416 11.7712 12.5359 11.8732C12.5283 12.0069 12.5318 12.1405 12.5305 12.2705C12.5098 12.2949 12.4903 12.3204 12.4722 12.3467C12.2054 12.7787 11.8914 13.1711 11.4958 13.4949Z" fill="white"/>
<path d="M10.5104 8.86035C11.1148 9.03851 11.517 9.41888 11.6845 10.0335C11.6905 10.0657 11.6941 10.0983 11.6952 10.1311L10.4004 10.1244C10.4004 9.78856 10.4004 9.45273 10.4004 9.11735C10.4 9.0149 10.408 8.91781 10.5104 8.86035Z" fill="#BBBBBB"/>
<path d="M11.4961 13.4959C11.8916 13.1721 12.2056 12.7797 12.476 12.3476C12.4941 12.3213 12.5136 12.2959 12.5343 12.2715L12.5423 12.8006C12.5423 12.9445 12.5392 13.0883 12.5388 13.2322C12.5388 13.5734 12.4132 13.7667 12.1441 13.8464C11.8916 13.9199 11.672 13.8134 11.4992 13.5346C11.497 13.5213 11.4965 13.5084 11.4961 13.4959Z" fill="white"/>
</svg>
