<svg width="20" height="22" viewBox="0 0 20 22" fill="none" xmlns="http://www.w3.org/2000/svg">
<g clip-path="url(#clip0)">
<path d="M14.8004 21.97C14.6941 22.0144 14.5815 21.9998 14.4714 21.9998C10.226 21.9998 5.98072 21.9998 1.7354 21.9998C0.960885 21.9998 0.491211 21.5316 0.491211 20.7606V3.50838C0.491211 2.74812 0.963432 2.27993 1.72077 2.2793H5.05367C5.09059 2.78614 5.01676 3.29298 5.10586 3.79982C4.14551 3.79982 3.18579 3.80298 2.22544 3.79538C2.06443 3.79538 2.01097 3.82896 2.01097 4.00065C2.01606 9.42721 2.01606 14.8533 2.01097 20.2791C2.01097 20.4774 2.08925 20.4881 2.24645 20.4875C4.29401 20.4837 6.34114 20.4837 8.38786 20.4875C9.6259 20.4875 10.8637 20.4856 12.1013 20.4818C12.8167 21.3022 13.7108 21.811 14.8004 21.97Z" fill="#5E488D"/>
<path d="M14.8006 21.9704C13.711 21.8133 12.8169 21.3046 12.1003 20.4791C11.4282 19.6301 11.1081 18.6684 11.1597 17.5863C11.1877 17.0059 11.3633 16.463 11.5924 15.934C11.7015 15.7604 11.8099 15.5866 11.9176 15.4126C12.0392 15.2694 12.1557 15.1211 12.2829 14.983C12.8118 14.4078 13.4699 14.0378 14.2068 13.7964C14.7067 13.6846 15.219 13.6376 15.731 13.6564C16.132 13.7406 16.5367 13.804 16.9224 13.9605C17.7494 14.2972 18.4477 14.8866 18.9166 15.6438C19.3855 16.401 19.6009 17.2868 19.5317 18.1736C19.4497 19.1202 19.0465 20.0108 18.3885 20.699C17.7305 21.3872 16.8568 21.8321 15.9111 21.9603C15.5429 22.0101 15.1697 22.0135 14.8006 21.9704ZM14.5912 19.1454C14.5912 19.5313 16.7263 19.9291 16.7219 20.3156C16.7219 20.4423 14.6256 20.4854 14.7643 20.4829C15.1602 20.4753 15.6408 19.993 16.0367 20C16.164 20 16.0373 20.6178 16.0367 20.5C16.0329 19.7275 13.0241 20.2721 13.0279 19.5C13.0279 19.3815 16.0792 17.8296 15.9512 17.8321C15.5554 17.8384 15.1595 17.8391 14.7637 17.8321C14.6249 17.8321 16.5362 17.3708 16.5382 17.5C16.5426 17.8744 16.5382 18.1218 16.5382 18.5L14.5912 19.1454ZM15.3422 16.6873C15.5423 16.6873 15.7345 16.6091 15.8773 16.4695C16.0201 16.33 16.1022 16.1402 16.1059 15.9409C16.1043 15.742 16.025 15.5514 15.8849 15.4096C15.7448 15.2677 15.5547 15.1856 15.3549 15.1807C15.1545 15.1793 14.9617 15.257 14.8186 15.3967C14.6755 15.5364 14.5937 15.7269 14.5912 15.9264C14.593 16.1255 14.6726 16.3161 14.8131 16.4578C14.9537 16.5995 15.1441 16.6811 15.3441 16.6854L15.3422 16.6873Z" fill="#FACB2D"/>
<path d="M15.7311 13.6546C15.2191 13.6358 14.7068 13.6829 14.2069 13.7946C14.2069 10.5424 14.2082 7.29141 14.2108 4.04173C14.2108 3.85166 14.1745 3.78831 13.9689 3.78831C13.0181 3.80098 12.0667 3.79464 11.1152 3.79464C11.1436 3.61796 11.1589 3.43946 11.1611 3.26056C11.156 2.93238 11.1649 2.6042 11.1681 2.27539C12.2771 2.27539 13.3864 2.27539 14.4959 2.27539C15.2596 2.27539 15.7299 2.74358 15.7299 3.49751C15.7312 6.88488 15.7316 10.2706 15.7311 13.6546Z" fill="#311C4C"/>
<path d="M11.1678 2.27766C11.1678 2.60647 11.1557 2.93465 11.1608 3.26283C11.1586 3.44173 11.1433 3.62023 11.1149 3.79691C10.8604 4.34493 10.434 4.57491 9.82301 4.56287C8.68213 4.54006 7.54061 4.54006 6.39846 4.56287C5.7875 4.57491 5.36237 4.3443 5.1059 3.79691C5.0168 3.29324 5.09062 2.78323 5.05371 2.27639C5.07217 1.89626 5.07217 1.89626 5.45338 1.89626C5.76204 1.89626 6.07198 1.88613 6.38 1.90006C6.55311 1.90767 6.59957 1.84494 6.58684 1.68466C6.55172 1.31196 6.65296 0.939169 6.87195 0.634865C7.0584 0.37767 7.32061 0.184601 7.62224 0.0824309C7.92386 -0.0197389 8.24995 -0.0259458 8.55527 0.0646703C8.85993 0.158955 9.12766 0.345102 9.32147 0.597391C9.51527 0.849679 9.62559 1.15565 9.63718 1.47305C9.64673 1.89753 9.64673 1.89753 10.0827 1.89753C10.3595 1.89753 10.6376 1.90893 10.9138 1.89373C11.1048 1.88232 11.1996 1.93047 11.1684 2.13574C11.1631 2.18289 11.1629 2.23047 11.1678 2.27766ZM8.10023 1.99193C8.22403 1.9918 8.34309 1.94455 8.43301 1.85986C8.52294 1.77516 8.57693 1.65944 8.58391 1.5364C8.58484 1.47334 8.57327 1.41071 8.54988 1.35209C8.52649 1.29348 8.49173 1.24002 8.44758 1.19478C8.40344 1.14953 8.35077 1.11339 8.29259 1.08841C8.23441 1.06344 8.17186 1.05012 8.10851 1.04921C7.98467 1.05209 7.86668 1.10221 7.77892 1.18923C7.69115 1.27624 7.64032 1.3935 7.63693 1.51676C7.63829 1.63998 7.68712 1.75797 7.77333 1.84639C7.85954 1.93481 7.97656 1.9869 8.10023 1.99193Z" fill="#F9A11C"/>
<path d="M5.10593 3.79735C5.36049 4.34474 5.78753 4.57535 6.39849 4.56331C7.53937 4.5405 8.68088 4.5405 9.82304 4.56331C10.434 4.57535 10.8591 4.34537 11.115 3.79735C12.0696 3.79735 13.0178 3.80369 13.9686 3.79102C14.1742 3.79102 14.2111 3.85437 14.2105 4.04444C14.2045 7.29666 14.2033 10.5476 14.2067 13.7973C13.4697 14.0387 12.8116 14.4087 12.2828 14.9839C12.1555 15.122 12.039 15.2703 11.9175 15.4135C11.801 15.2285 11.6355 15.167 11.416 15.1721C10.8432 15.1835 10.2749 15.1721 9.70403 15.1765C9.417 15.1765 9.25854 15.3108 9.25408 15.5484C9.24963 15.786 9.41318 15.9336 9.71421 15.9343C10.3404 15.9343 10.9665 15.9343 11.5923 15.9343C11.3632 16.4633 11.1875 17.0062 11.1595 17.5866C11.108 18.6687 11.4281 19.6304 12.1001 20.4793C10.8625 20.4793 9.62469 20.481 8.38665 20.4844C6.33951 20.4844 4.29238 20.4844 2.24524 20.4844C2.08805 20.4844 2.00977 20.4743 2.00977 20.276C2.01613 14.8498 2.01613 9.42369 2.00977 3.99755C2.00977 3.82586 2.06322 3.79102 2.22424 3.79228C3.18841 3.80052 4.14303 3.79735 5.10593 3.79735ZM7.34547 6.07813C6.63905 6.07813 5.93263 6.07813 5.22685 6.06672C5.07984 6.06672 5.06074 6.12564 5.06074 6.24919C5.06413 8.02693 5.06413 9.80446 5.06074 11.5818C5.06074 11.7085 5.08747 11.7617 5.22939 11.7611C7.15009 11.7564 9.07079 11.7564 10.9915 11.7611C11.1073 11.7611 11.1614 11.7395 11.1608 11.6071C11.157 9.81375 11.157 8.02038 11.1608 6.22701C11.1608 6.1003 11.1143 6.06799 10.9947 6.06926C10.2883 6.07623 9.58247 6.07686 8.87605 6.0794L7.34547 6.07813ZM5.46041 15.1734H3.63008C3.32269 15.1734 3.16104 15.3032 3.1585 15.5478C3.15595 15.7923 3.31887 15.9311 3.62053 15.9317H7.25701C7.56504 15.9317 7.72605 15.8018 7.72923 15.5573C7.73241 15.3127 7.56886 15.1772 7.2672 15.1734H5.46041ZM4.1303 13.6566C3.93238 13.6566 3.73445 13.6509 3.53716 13.6566C3.30869 13.6649 3.16231 13.8131 3.15531 14.0266C3.14831 14.2401 3.30169 14.4068 3.54162 14.4118C3.92347 14.4182 4.3032 14.4182 4.6808 14.4118C4.7307 14.4144 4.78059 14.4066 4.82736 14.3891C4.87412 14.3716 4.91675 14.3447 4.95259 14.31C4.98842 14.2753 5.01669 14.2337 5.03563 14.1877C5.05457 14.1416 5.06377 14.0922 5.06265 14.0425C5.06647 13.8195 4.91564 13.6623 4.67571 13.6566C4.49433 13.6516 4.31232 13.6566 4.1303 13.6566ZM10.2183 13.6566H9.62511C9.39982 13.6731 9.25408 13.822 9.25408 14.0368C9.25161 14.0862 9.25943 14.1357 9.27706 14.182C9.29469 14.2283 9.32174 14.2704 9.35652 14.3058C9.3913 14.3412 9.43306 14.3691 9.47917 14.3877C9.52528 14.4062 9.57475 14.4151 9.62448 14.4137C10.0114 14.4213 10.3996 14.4213 10.7866 14.4137C10.8363 14.4151 10.8858 14.4062 10.9319 14.3877C10.978 14.3692 11.0198 14.3414 11.0547 14.3061C11.0896 14.2708 11.1168 14.2287 11.1346 14.1825C11.1524 14.1363 11.1604 14.0869 11.1582 14.0374C11.1605 13.9879 11.1526 13.9384 11.1349 13.892C11.1172 13.8456 11.0902 13.8033 11.0555 13.7677C11.0208 13.7321 10.9792 13.7039 10.9332 13.6849C10.8871 13.666 10.8377 13.6565 10.7878 13.6573C10.5982 13.6503 10.4079 13.6566 10.2183 13.6566ZM4.0883 17.4484H4.68144C4.91055 17.4345 5.05692 17.2932 5.06329 17.0797C5.06838 16.8561 4.91882 16.6964 4.68144 16.692C4.30214 16.6856 3.92262 16.6856 3.54289 16.692C3.49319 16.6894 3.44347 16.697 3.39684 16.7143C3.35021 16.7316 3.30767 16.7583 3.27185 16.7927C3.23603 16.8272 3.20771 16.8685 3.18864 16.9143C3.16958 16.9601 3.16019 17.0093 3.16104 17.0588C3.15531 17.2831 3.30487 17.4389 3.54289 17.4472C3.72427 17.4535 3.90629 17.4484 4.0883 17.4484ZM6.8007 16.6882H6.20756C5.97718 16.7021 5.8308 16.8428 5.82571 17.0556C5.82195 17.1069 5.82918 17.1584 5.84692 17.2067C5.86465 17.255 5.8925 17.299 5.9286 17.3358C5.9647 17.3726 6.00824 17.4013 6.05633 17.4201C6.10442 17.4388 6.15597 17.4472 6.20756 17.4446C6.58687 17.4518 6.96638 17.4518 7.34611 17.4446C7.39571 17.4472 7.44531 17.4397 7.49186 17.4224C7.5384 17.4052 7.58088 17.3786 7.61668 17.3443C7.65248 17.31 7.68083 17.2688 7.69997 17.2232C7.71911 17.1776 7.72864 17.1285 7.72796 17.0791C7.73432 16.8561 7.58349 16.699 7.34611 16.6894C7.16473 16.685 6.98272 16.6901 6.8007 16.6901V16.6882Z" fill="white"/>
<path d="M16.1113 16.5164C16.1113 16.8965 16.1068 17.2734 16.1113 17.651C16.1113 17.7778 16.0775 17.8335 15.9388 17.831C15.5429 17.8234 15.1471 17.824 14.7512 17.831C14.6239 17.831 14.5902 17.7828 14.5909 17.6643C14.5947 16.8923 14.5947 16.12 14.5909 15.3475C14.5909 15.2296 14.622 15.1783 14.7506 15.1802C15.1464 15.1865 15.5423 15.1872 15.9382 15.1802C16.0769 15.1802 16.1132 15.2303 16.1113 15.3595C16.1068 15.7447 16.1113 16.1305 16.1113 16.5164Z" fill="#EAE9E8"/>
<path d="M11.5922 15.9314C10.966 15.9314 10.3399 15.9314 9.71412 15.9314C9.4131 15.9314 9.24954 15.792 9.25399 15.5456C9.25845 15.2991 9.41692 15.1743 9.70394 15.1737C10.2767 15.1737 10.8457 15.1806 11.4159 15.1692C11.6355 15.1642 11.8009 15.2256 11.9174 15.4106C11.8092 15.5846 11.7008 15.7582 11.5922 15.9314Z" fill="#CCCCCB"/>
<path d="M15.3581 18.9745C15.5578 18.9794 15.7478 19.0615 15.8878 19.2034C16.0279 19.3453 16.107 19.5359 16.1084 19.7348C16.1059 19.9343 16.0241 20.1247 15.881 20.2644C15.738 20.4041 15.5451 20.4818 15.3447 20.4805C15.1449 20.4755 14.9548 20.3935 14.8147 20.2516C14.6746 20.1097 14.5953 19.9192 14.5937 19.7202C14.5976 19.521 14.6798 19.3312 14.8227 19.1918C14.9657 19.0523 15.1579 18.9743 15.3581 18.9745Z" fill="#EAE9E8"/>
<path d="M8.10003 1.99154C7.97635 1.98652 7.85934 1.93442 7.77312 1.84601C7.68691 1.75759 7.63808 1.6396 7.63672 1.51638C7.64011 1.39312 7.69094 1.27586 7.77871 1.18885C7.86647 1.10183 7.98447 1.05171 8.1083 1.04883C8.17165 1.04974 8.23421 1.06306 8.29239 1.08803C8.35057 1.11301 8.40323 1.14915 8.44738 1.1944C8.49152 1.23964 8.52629 1.2931 8.54968 1.35171C8.57307 1.41033 8.58463 1.47296 8.58371 1.53602C8.57672 1.65906 8.52273 1.77478 8.43281 1.85948C8.34288 1.94417 8.22382 1.99142 8.10003 1.99154Z" fill="white"/>
<path d="M8.87587 6.07912C9.58229 6.07912 10.2881 6.07913 10.9945 6.06899C11.1141 6.06899 11.1606 6.0975 11.1606 6.22674C11.1568 8.01969 11.1568 9.81305 11.1606 11.6068C11.1606 11.7393 11.1071 11.7614 10.9913 11.7608C9.07061 11.7583 7.14991 11.7583 5.22921 11.7608C5.08729 11.7608 5.05992 11.7095 5.06056 11.5815C5.06395 9.80461 5.06395 8.02708 5.06056 6.24891C5.06056 6.1222 5.07965 6.06455 5.22666 6.06645C5.93245 6.07595 6.63887 6.07532 7.34529 6.07786C7.34529 6.51184 7.34975 6.94645 7.34529 7.38107C7.34529 7.52615 7.3752 7.59711 7.54131 7.59267C7.92316 7.58254 8.30501 7.58254 8.68686 7.59267C8.85296 7.59711 8.88478 7.52615 8.88287 7.38107C8.87078 6.94772 8.87587 6.5112 8.87587 6.07912ZM8.85232 9.48382C9.10689 9.48382 9.36145 9.48762 9.6122 9.48382C9.86295 9.48002 10.0106 9.33557 10.0151 9.11319C10.0195 8.89082 9.86422 8.72863 9.60457 8.72863C9.11368 8.72483 8.623 8.72483 8.13254 8.72863C7.88561 8.72863 7.73414 8.87625 7.72968 9.09862C7.72523 9.33114 7.88115 9.47875 8.14017 9.48509C8.37756 9.48889 8.61494 9.48382 8.85232 9.48382ZM8.50739 9.86395H8.12554C8.10963 9.86395 8.09372 9.86395 8.07844 9.86395C7.98256 9.86886 7.89233 9.91065 7.82679 9.9805C7.76126 10.0504 7.72553 10.1428 7.72714 10.2384C7.72404 10.2858 7.73049 10.3334 7.74611 10.3784C7.76173 10.4233 7.7862 10.4647 7.81808 10.5001C7.84997 10.5355 7.88864 10.5642 7.93181 10.5845C7.97499 10.6049 8.02181 10.6164 8.06953 10.6185C8.34574 10.6305 8.62321 10.6299 8.89687 10.6185C8.9448 10.6181 8.99217 10.6082 9.03619 10.5893C9.08021 10.5704 9.11999 10.5429 9.15319 10.5085C9.1864 10.4741 9.21236 10.4334 9.22954 10.3889C9.24673 10.3444 9.25479 10.2968 9.25326 10.2491C9.25541 10.2 9.24754 10.1509 9.23011 10.1049C9.21269 10.0588 9.18607 10.0168 9.15187 9.98125C9.11768 9.94573 9.07661 9.91747 9.03114 9.89818C8.98567 9.87889 8.93675 9.86897 8.88732 9.86902C8.76068 9.85761 8.63403 9.86331 8.50739 9.86331V9.86395Z" fill="#5E488D"/>
<path d="M5.46016 15.1729H7.26695C7.56861 15.1729 7.73216 15.311 7.72898 15.5568C7.7258 15.8026 7.56479 15.9306 7.25676 15.9312H3.62028C3.31862 15.9312 3.15507 15.7931 3.15825 15.5473C3.16143 15.3015 3.32244 15.1735 3.62983 15.1729H5.46016Z" fill="#CCCCCB"/>
<path d="M8.8756 6.0791C8.8756 6.51308 8.87051 6.9477 8.8756 7.38232C8.8756 7.5274 8.84569 7.59836 8.67958 7.59392C8.29773 7.58379 7.91589 7.58379 7.53404 7.59392C7.36793 7.59836 7.33548 7.5274 7.33803 7.38232C7.34439 6.9477 7.33803 6.51308 7.33803 6.0791H8.8756Z" fill="#311C4C"/>
<path d="M4.13036 13.6568C4.31237 13.6568 4.49439 13.6518 4.67577 13.6568C4.9157 13.6644 5.06653 13.8197 5.06271 14.0427C5.06382 14.0924 5.05462 14.1418 5.03569 14.1878C5.01675 14.2339 4.98848 14.2755 4.95264 14.3102C4.91681 14.3449 4.87418 14.3718 4.82741 14.3893C4.78065 14.4068 4.73076 14.4146 4.68086 14.412C4.29901 14.4192 3.91928 14.4192 3.54167 14.412C3.30175 14.4082 3.15091 14.2498 3.15537 14.0268C3.15982 13.8038 3.30556 13.6651 3.53722 13.6568C3.73451 13.6511 3.93243 13.6568 4.13036 13.6568Z" fill="#CCCCCB"/>
<path d="M10.2185 13.6561C10.4095 13.6561 10.6004 13.6498 10.7881 13.6561C10.8379 13.6554 10.8874 13.6648 10.9334 13.6838C10.9795 13.7028 11.0211 13.7309 11.0558 13.7666C11.0905 13.8022 11.1175 13.8445 11.1352 13.8908C11.1528 13.9372 11.1608 13.9867 11.1585 14.0363C11.1607 14.0857 11.1527 14.1351 11.1348 14.1813C11.117 14.2276 11.0898 14.2697 11.055 14.305C11.0201 14.3403 10.9783 14.368 10.9322 14.3866C10.886 14.4051 10.8366 14.4139 10.7868 14.4126C10.3999 14.4202 10.0117 14.4202 9.62475 14.4126C9.57503 14.414 9.52556 14.4051 9.47945 14.3865C9.43333 14.3679 9.39157 14.3401 9.35679 14.3047C9.32201 14.2693 9.29496 14.2271 9.27733 14.1808C9.2597 14.1345 9.25188 14.0851 9.25435 14.0356C9.25435 13.8221 9.40009 13.6732 9.62539 13.6555H10.2185V13.6561Z" fill="#CCCCCB"/>
<path d="M4.08833 17.4474C3.90631 17.4474 3.7243 17.4525 3.54228 17.4474C3.30236 17.4392 3.1528 17.2833 3.16044 17.0591C3.15958 17.0095 3.16898 16.9603 3.18804 16.9146C3.2071 16.8688 3.23542 16.8274 3.27124 16.793C3.30706 16.7586 3.34961 16.7319 3.39624 16.7146C3.44287 16.6972 3.49258 16.6896 3.54228 16.6923C3.92159 16.6859 4.3011 16.6859 4.68083 16.6923C4.92076 16.6967 5.07032 16.8563 5.06268 17.08C5.05695 17.2935 4.91058 17.4348 4.68083 17.4487H4.08769L4.08833 17.4474Z" fill="#CCCCCB"/>
<path d="M6.80018 16.6898C6.98219 16.6898 7.16421 16.6847 7.34558 16.6898C7.58424 16.6986 7.73507 16.8564 7.72743 17.0794C7.72811 17.1288 7.71858 17.1779 7.69944 17.2235C7.6803 17.2691 7.65196 17.3104 7.61616 17.3446C7.58036 17.3789 7.53787 17.4055 7.49133 17.4227C7.44479 17.44 7.39518 17.4476 7.34558 17.445C6.96628 17.4521 6.58676 17.4521 6.20704 17.445C6.15544 17.4475 6.1039 17.4391 6.05581 17.4204C6.00771 17.4016 5.96417 17.3729 5.92807 17.3361C5.89197 17.2993 5.86413 17.2553 5.84639 17.207C5.82865 17.1587 5.82143 17.1072 5.82519 17.0559C5.83091 16.8431 5.97729 16.7024 6.20704 16.6885H6.80018V16.6898Z" fill="#CCCCCB"/>
<path d="M8.8532 9.48392C8.61582 9.48392 8.37844 9.48709 8.14105 9.48392C7.88203 9.47949 7.72611 9.32997 7.73056 9.09746C7.73502 8.87508 7.88649 8.72999 8.13341 8.72746C8.62388 8.72366 9.11456 8.72366 9.60545 8.72746C9.86511 8.72746 10.0204 8.88141 10.0159 9.11329C10.0115 9.34517 9.86002 9.47885 9.61309 9.48392C9.36616 9.48899 9.10777 9.48392 8.8532 9.48392Z" fill="#311C4C"/>
<path d="M8.5074 9.86386C8.63468 9.86386 8.76197 9.85816 8.88925 9.86386C8.93867 9.86382 8.98759 9.87374 9.03306 9.89303C9.07853 9.91232 9.1196 9.94058 9.1538 9.9761C9.188 10.0116 9.21461 10.0537 9.23203 10.0997C9.24946 10.1458 9.25734 10.1948 9.25519 10.244C9.25706 10.2915 9.24941 10.3389 9.2327 10.3834C9.21598 10.4279 9.19053 10.4686 9.15783 10.5032C9.12513 10.5379 9.08584 10.5656 9.04224 10.585C8.99864 10.6043 8.95161 10.6148 8.90389 10.6159C8.62768 10.6267 8.3502 10.6273 8.07654 10.6159C8.02883 10.6138 7.98201 10.6022 7.93883 10.5819C7.89565 10.5616 7.85699 10.5329 7.8251 10.4975C7.79321 10.4621 7.76874 10.4207 7.75312 10.3757C7.73751 10.3308 7.73106 10.2832 7.73415 10.2358C7.73254 10.1402 7.76827 10.0477 7.83381 9.97788C7.89934 9.90803 7.98957 9.86624 8.08546 9.86133C8.10073 9.86133 8.11664 9.86133 8.13255 9.86133L8.5074 9.86386Z" fill="#311C4C"/>
</g>
<defs>
<clipPath id="clip0">
<rect width="19.0556" height="22" fill="white" transform="translate(0.491211)"/>
</clipPath>
</defs>
</svg>
