<svg xmlns="http://www.w3.org/2000/svg" width="52" height="48" viewBox="0 0 52 48">
    <g fill="none" fill-rule="evenodd">
        <g>
            <g>
                <g>
                    <path d="M0 0H51.379V48H0z" transform="translate(-431.000000, -361.000000) translate(423.000000, 349.000000) translate(8.563177, 12.000000)"/>
                    <g transform="translate(-431.000000, -361.000000) translate(423.000000, 349.000000) translate(8.563177, 12.000000) translate(14.985560, 10.000000)">
                        <path fill="#FFD5CD" fill-rule="nonzero" d="M21.173 13.327c-.084-.083.193.177-4.638-4.337-.251-.234-.63-.304-.957-.178-.328.127-.542.427-.542.758v17.61c0 .453.393.82.878.82h4.683c.418 0 .779-.276.86-.66l1.637-7.664c.496-2.308-.223-4.682-1.921-6.35z"/>
                        <path fill="#FFAA9A" fill-rule="nonzero" d="M18.007 15.803l-2.714-2.535c-.343-.32-.343-.84 0-1.16.343-.32.899-.32 1.242 0l2.714 2.535c.343.32.343.84 0 1.16-.343.32-.899.32-1.242 0z"/>
                        <path fill="#F2F4F5" fill-rule="nonzero" d="M16.742 2.46v23.08c0 1.356-1.182 2.46-2.635 2.46H2.634C1.182 28 0 26.896 0 25.54V2.46C0 1.105 1.182 0 2.634 0h11.473c1.453 0 2.635 1.104 2.635 2.46z"/>
                        <g fill="#2C66FF" fill-rule="nonzero">
                            <path d="M9.624 6.496v1.412c0 .614-.537 1.06-1.129 1.06-2.177 0-4.3-.962-5.88-2.432S0 3.088 0 1.054C0 .47.509 0 1.134 0h1.511c.163 0 .307.097.358.241l.756 2.114c.037.103.02.216-.044.307l-.64.898c.242.476.672.996 1.168 1.454.497.458 1.06.854 1.57 1.08l.961-.598c.097-.06.218-.076.33-.04l2.267.705c.154.048.253.183.253.335z" transform="translate(3.746390, 8.818400)"/>
                        </g>
                        <path fill="#001940" fill-rule="nonzero" d="M14.158 0H2.684C1.232 0 .05 1.104.05 2.46v23.08C.05 26.895 1.232 28 2.684 28h11.474c1.452 0 2.634-1.104 2.634-2.46V2.46c0-1.356-1.182-2.46-2.634-2.46zm.878 22.805H1.806V2.46c0-.452.394-.82.878-.82h11.474c.484 0 .878.368.878.82v20.344z"/>
                        <path fill="#284E52" fill-rule="nonzero" d="M16.792 2.46v23.08c0 1.356-1.182 2.46-2.634 2.46H8.42v-5.195h6.615V2.46c0-.452-.394-.82-.878-.82H8.42V0h5.737c1.452 0 2.634 1.104 2.634 2.46z"/>
                        <ellipse cx="8.742" cy="25.667" fill="#5B787C" rx="1.249" ry="1.167"/>
                        <path fill="#FFD5CD" fill-rule="nonzero" d="M15.061 13.01c-.5-.474-1.192-.763-1.957-.763-1.52 0-2.751 1.148-2.751 2.57 0 .684.283 1.326.798 1.81l3.364 3.281c-.382.272-.824.65-1.256 1.161-1.307 1.547-1.97 3.603-1.97 6.11V28h6.44V15.598l-2.668-2.587z"/>
                    </g>
                </g>
            </g>
        </g>
    </g>
</svg>
