<svg xmlns="http://www.w3.org/2000/svg" width="52" height="52" viewBox="0 0 52 52">
    <g fill="none" fill-rule="evenodd">
        <g>
            <g>
                <g>
                    <path d="M0 0H52V52H0z" transform="translate(-1035.000000, -250.000000) translate(332.000000, 234.000000) translate(703.000000, 16.000000)"/>
                    <g fill-rule="nonzero">
                        <path fill="#001443" d="M12.022 24.311l12.934-12.933c2.115.828 4.61.39 6.32-1.32 1.708-1.707 2.146-4.204 1.318-6.319l-2.983 2.984-2.63-.704-.704-2.63L29.261.407c-2.115-.828-4.611-.39-6.32 1.319-1.708 1.708-2.147 4.205-1.318 6.32L8.689 20.977c-2.275-.959-5.003-.512-6.857 1.342-2.443 2.443-2.443 6.404 0 8.848 2.444 2.443 6.405 2.443 8.848 0 1.854-1.854 2.301-4.581 1.342-6.857zm-7.432 4.1c-.92-.921-.92-2.414 0-3.334.92-.92 2.413-.92 3.333 0 .92.92.92 2.413 0 3.333-.92.92-2.413.921-3.333 0z" transform="translate(-1035.000000, -250.000000) translate(332.000000, 234.000000) translate(703.000000, 16.000000) translate(25.499882, 28.500132) scale(-1, 1) translate(-25.499882, -28.500132) translate(8.999763, 12.000007)"/>
                        <path fill="#596685" d="M10.68 31.168c-2.443 2.443-6.404 2.443-8.848 0L4.59 28.41c.92.921 2.413.92 3.333 0 .92-.92.92-2.412 0-3.333L26.981 6.02l2.63.704 2.983-2.984c.828 2.115.39 4.612-1.319 6.32-1.708 1.708-4.204 2.147-6.32 1.319L12.023 24.31c.96 2.276.512 5.003-1.342 6.857z" transform="translate(-1035.000000, -250.000000) translate(332.000000, 234.000000) translate(703.000000, 16.000000) translate(25.499882, 28.500132) scale(-1, 1) translate(-25.499882, -28.500132) translate(8.999763, 12.000007)"/>
                    </g>
                    <g fill-rule="nonzero">
                        <path fill="#FFD5CD" d="M11.676 26.67c-.083.174-.217.319-.384.416l-5.636 3.278c-.984-.165-1.654-.538-2.11-.969-.962-.909-.968-2.08-.968-2.11l3.278-5.635c.098-.168.242-.302.417-.386 1.513-.723 3.284.221 3.558 1.847 1.634.276 2.569 2.057 1.845 3.56z" transform="translate(-1035.000000, -250.000000) translate(332.000000, 234.000000) translate(703.000000, 16.000000) translate(10.000965, 9.000032)"/>
                        <path fill="#FFAA9A" d="M11.676 26.67c-.083.174-.217.319-.384.416l-5.636 3.278c-.984-.165-1.654-.538-2.11-.969l6.285-6.284c1.634.276 2.569 2.057 1.845 3.56z" transform="translate(-1035.000000, -250.000000) translate(332.000000, 234.000000) translate(703.000000, 16.000000) translate(10.000965, 9.000032)"/>
                        <path fill="#FFCE32" d="M27.443 10.98L11.49 26.935c-.188.187-.435.282-.683.282-.703 0-1.18-.738-.869-1.383.23-.48-.279-1.006-.772-.77-.37.177-.81.102-1.1-.187-.276-.27-.372-.718-.186-1.102.23-.48-.28-1.006-.773-.77-.424.204-.933.072-1.204-.312-.272-.384-.228-.907.105-1.24L21.96 5.499c.377-.377.988-.377 1.365 0l4.117 4.117c.376.377.376.988 0 1.365z" transform="translate(-1035.000000, -250.000000) translate(332.000000, 234.000000) translate(703.000000, 16.000000) translate(10.000965, 9.000032)"/>
                        <path fill="#D9B238" d="M27.443 10.98L11.49 26.935c-.188.187-.435.282-.683.282-.703 0-1.18-.738-.869-1.383.23-.48-.279-1.006-.772-.77-.37.177-.81.102-1.1-.187L25.384 7.557l2.059 2.059c.376.377.376.988 0 1.365z" transform="translate(-1035.000000, -250.000000) translate(332.000000, 234.000000) translate(703.000000, 16.000000) translate(10.000965, 9.000032)"/>
                        <path fill="#FF5636" d="M31.98 6.443l-4.537 4.538-5.482-5.482L26.499.96c1.282-1.281 3.357-1.282 4.64 0l.842.842c1.278 1.279 1.278 3.36 0 4.64z" transform="translate(-1035.000000, -250.000000) translate(332.000000, 234.000000) translate(703.000000, 16.000000) translate(10.000965, 9.000032)"/>
                        <path fill="#D83C3C" d="M31.98 6.443l-4.537 4.538-2.741-2.741 6.858-6.858.42.42c1.28 1.28 1.28 3.362 0 4.641z" transform="translate(-1035.000000, -250.000000) translate(332.000000, 234.000000) translate(703.000000, 16.000000) translate(10.000965, 9.000032)"/>
                        <path fill="#596685" d="M5.656 30.364L1.45 32.81c-.379.22-.857.158-1.167-.152-.31-.31-.372-.79-.152-1.167l2.447-4.207 3.078 3.079z" transform="translate(-1035.000000, -250.000000) translate(332.000000, 234.000000) translate(703.000000, 16.000000) translate(10.000965, 9.000032)"/>
                        <path fill="#001443" d="M5.656 30.364L1.45 32.81c-.379.22-.857.158-1.167-.152l3.834-3.834 1.54 1.539z" transform="translate(-1035.000000, -250.000000) translate(332.000000, 234.000000) translate(703.000000, 16.000000) translate(10.000965, 9.000032)"/>
                    </g>
                </g>
            </g>
        </g>
    </g>
</svg>
