<svg xmlns="http://www.w3.org/2000/svg" width="48" height="34" viewBox="0 0 48 34">
    <g fill="none" fill-rule="evenodd">
        <g fill-rule="nonzero">
            <g>
                <path fill="#001443" d="M10.22 22.803l.452.935s7.179 5.83 13.328 5.83c6.149 0 13.36-5.83 13.36-5.83l.42-.935c-.69-2.063-1.538-4.895-2.132-7.885l-1.314-.74H13.473l-1.121.74c-.595 2.99-1.443 5.822-2.133 7.885z" transform="translate(-154 -967) translate(154 967)"/>
                <path fill="#596685" d="M16.317 14.496l.481-.317h-3.325l-1.121.738c-.595 2.991-1.443 5.823-2.133 7.886l.453.935s1.105.897 2.819 1.987c1.004-3.355 2.029-7.22 2.826-11.229z" transform="translate(-154 -967) translate(154 967)"/>
                <path fill="#596685" d="M47.537 7.825L25.199.275c-.777-.262-1.62-.262-2.398 0L.463 7.825c-.577.195-.627.99-.08 1.257l21.975 10.714c1.036.505 2.248.505 3.284 0L47.617 9.082c.547-.267.497-1.062-.08-1.257z" transform="translate(-154 -967) translate(154 967)"/>
                <path fill="#D8DFE0" d="M42.587 26.798c-.4 0-.724-.324-.724-.724V12.678c0-.344-.232-.645-.565-.732L24.95 7.636c-.387-.102-.617-.499-.515-.885.102-.387.498-.618.885-.516l16.346 4.31c.968.253 1.646 1.13 1.646 2.133v13.396c0 .4-.325.724-.725.724z" transform="translate(-154 -967) translate(154 967)"/>
                <path fill="#AD9039" d="M43.855 27.684H41.32l-.301 4.69c-.025.39.274.719.653.719h1.833c.378 0 .678-.33.653-.719l-.302-4.69z" transform="translate(-154 -967) translate(154 967)"/>
                <path fill="#D9B238" d="M42.668 32.374l.302-4.69h-1.65l-.302 4.69c-.025.39.274.719.653.719h1.65c-.378 0-.678-.33-.653-.719z" transform="translate(-154 -967) translate(154 967)"/>
                <path fill="#FFD75D" d="M43.174 24.313H42c-.585 0-1.063.478-1.063 1.063v2.111c0 .192.156.348.348.348h2.605c.192 0 .348-.156.348-.348v-2.11c0-.586-.479-1.064-1.064-1.064z" transform="translate(-154 -967) translate(154 967)"/>
                <path fill="#FFCE32" d="M42.804 27.487v-2.11c0-.464.301-.86.717-1.005-.109-.038-.225-.06-.347-.06H42c-.585 0-1.063.48-1.063 1.064v2.111c0 .192.156.348.348.348h1.867c-.192 0-.348-.156-.348-.348z" transform="translate(-154 -967) translate(154 967)"/>
                <path fill="#ABB2C1" d="M24.15 4.92c-1.393-.084-2.55 1.02-2.55 2.395v.012c.004.618.522 1.11 1.14 1.11h2.52c.598 0 1.174-.462 1.136-1.24-.058-1.21-1.037-2.204-2.247-2.277z" transform="translate(-154 -967) translate(154 967)"/>
                <path fill="#FFD75D" d="M37.78 22.803c-2.517 2.07-6.611 4.385-11.034 5.81-1.752.565-3.695.58-5.493 0-4.412-1.422-8.505-3.732-11.034-5.81-.242.723-.464 1.352-.65 1.86-.318.871-.044 1.851.686 2.425 4.043 3.177 8.31 4.914 10.998 5.78.887.286 1.814.429 2.747.429.932 0 1.859-.143 2.746-.43 2.688-.865 6.955-2.601 10.999-5.78.73-.573 1.004-1.553.685-2.425-.185-.507-.408-1.136-.65-1.86z" transform="translate(-154 -967) translate(154 967)"/>
                <path fill="#FFCE32" d="M13.654 25.177c-1.32-.785-2.487-1.596-3.435-2.374-.242.723-.464 1.352-.65 1.86-.319.871-.044 1.851.686 2.425.762.599 1.533 1.147 2.3 1.648.357-1.107.727-2.3 1.099-3.56z" transform="translate(-154 -967) translate(154 967)"/>
            </g>
        </g>
    </g>
</svg>
