<svg xmlns="http://www.w3.org/2000/svg" width="49" height="49" viewBox="0 0 49 49">
    <g fill="none" fill-rule="evenodd">
        <g fill-rule="nonzero">
            <g>
                <g>
                    <path fill="#F4F4F4" d="M34.77 48c1.818 0 3.293-1.28 3.293-2.86V9.144h-1.47c-1.128 0-2.043-.794-2.043-1.773L32.25 7l-1.5-2.5c-.426-.17-1.522-4.5-2-4.5H3.357C1.537 0 .063 1.28.063 2.86v42.28c0 1.58 1.475 2.86 3.294 2.86H34.77z" transform="translate(-153 -1054) translate(153 1054) translate(9.75)"/>
                    <path fill="#E4E4E4" d="M36.986 8.305L29.518.837c-.245-.244-.529-.44-.838-.58V7.37c0 .98.794 1.773 1.773 1.773h7.113c-.14-.309-.336-.593-.58-.838z" transform="translate(-153 -1054) translate(153 1054) translate(9.75)"/>
                </g>
                <g transform="translate(-153 -1054) translate(153 1054) translate(0 13.219)">
                    <path fill="#596685" d="M22.086 20.361L25.196 20.361 25.196 26.876 22.086 26.876z" transform="rotate(-45 23.641 23.619)"/>
                    <path fill="#C3C1B9" d="M34.066 30.453l-6.585-6.586c-.377-.377-.99-.377-1.366 0l-2.22 2.22c-.377.377-.377.989 0 1.366l6.585 6.586c.99.99 2.596.99 3.586 0 .99-.99.99-2.596 0-3.586z"/>
                    <circle cx="13.38" cy="13.353" r="13.328" fill="#596685"/>
                    <circle cx="13.38" cy="13.353" r="10.44" fill="#FFF"/>
                    <g>
                        <g>
                            <path fill="#FFAA9A" d="M9.24 2.942c-.263-.033-.46-.255-.461-.52L8.769.014 5.089.03l.01 2.407c.002.265-.194.49-.456.524 0 0-.68 2.322 2.308 2.31C9.94 5.258 9.24 2.942 9.24 2.942z" transform="translate(6.375 6.656) translate(0 8.625)"/>
                            <path fill="#D83C3C" d="M12.458 3.646c-.843-.37-2.435-.606-3.218-.704l-.005.006c-1.175 1.47-3.408 1.476-4.592.013-.782.105-2.372.353-3.212.732C.56 4.086.056 4.945.038 5.847 3.976 9.38 9.954 9.399 13.912 5.9c.016-.998-.539-1.85-1.454-2.254z" transform="translate(6.375 6.656) translate(0 8.625)"/>
                        </g>
                        <g>
                            <path fill="#001443" d="M7.175 1.124c0-.58-.47-1.051-1.05-1.051H2.627C1.222.073.083 1.213.083 2.618V4.51l.87.667h6.795l.869-1.464V2.53c0-.58-.47-1.05-1.051-1.05H7.53c-.196 0-.355-.16-.355-.356z" transform="translate(6.375 6.656) translate(2.625)"/>
                            <path fill="#FFD5CD" d="M8.617 3.714l-1.668-.156c-.707-.067-1.417.098-2.023.47-.517.316-1.111.483-1.717.483H.083v1.51c0 .306.248.554.553.554.095 0 .175.073.181.168C.932 8.594 2.47 10.06 4.35 10.06c1.882 0 3.42-1.47 3.529-3.323.005-.092.082-.163.174-.163h.01c.31 0 .561-.252.56-.562-.006-.833-.006-2.299-.006-2.299z" transform="translate(6.375 6.656) translate(2.625)"/>
                        </g>
                    </g>
                </g>
                <g>
                    <path fill="#C6C6C6" d="M13.248 2.53H.758c-.4 0-.724-.55-.724-1.225C.034.629.358.08.758.08h12.49c.4 0 .725.549.725 1.225s-.325 1.224-.725 1.224z" transform="translate(-153 -1054) translate(153 1054) translate(29.625 15)"/>
                    <path fill="#BCBCBC" d="M13.248 7.978H.758c-.4 0-.724-.548-.724-1.225 0-.676.324-1.224.724-1.224h12.49c.4 0 .725.548.725 1.224 0 .677-.325 1.225-.725 1.225z" transform="translate(-153 -1054) translate(153 1054) translate(29.625 15)"/>
                    <path fill="#BABABA" d="M9.514 13.426H.554c-.287 0-.52-.548-.52-1.224 0-.676.233-1.224.52-1.224h8.96c.287 0 .52.548.52 1.224 0 .676-.233 1.224-.52 1.224z" transform="translate(-153 -1054) translate(153 1054) translate(29.625 15)"/>
                </g>
            </g>
        </g>
    </g>
</svg>
