<svg xmlns="http://www.w3.org/2000/svg" width="44" height="44" viewBox="0 0 44 44">
    <g fill="none" fill-rule="evenodd">
        <g fill-rule="nonzero">
            <g>
                <g>
                    <g transform="translate(-153 -1156) translate(153 1156) translate(28.255 9.474)">
                        <circle cx="7.343" cy="4.399" r="4.363" fill="#FFD5CD"/>
                        <path fill="#FFAA9A" d="M9.513.615c.368.639.579 1.38.579 2.17 0 2.409-1.954 4.362-4.363 4.362-.79 0-1.53-.211-2.17-.579.753 1.31 2.165 2.193 3.784 2.193 2.41 0 4.363-1.953 4.363-4.362 0-1.62-.883-3.032-2.193-3.784z"/>
                        <path fill="#596685" d="M14.672 12.251v7.774c0 .477-.386.864-.863.864H3.94v-4.038H.014v-4.6c0-1.928 1.563-3.49 3.49-3.49h7.678c1.928 0 3.49 1.562 3.49 3.49z"/>
                        <path fill="#ABB2C1" d="M11.182 8.761H9.088c1.928 0 3.49 1.563 3.49 3.49v8.638h1.23c.478 0 .864-.387.864-.864v-7.774c0-1.927-1.562-3.49-3.49-3.49z"/>
                    </g>
                    <g transform="translate(-153 -1156) translate(153 1156) translate(0 9.474)">
                        <circle cx="7.329" cy="4.399" r="4.363" fill="#FFD5CD"/>
                        <path fill="#FFAA9A" d="M9.499.615c.367.639.578 1.38.578 2.17 0 2.409-1.953 4.362-4.362 4.362-.79 0-1.53-.211-2.17-.579.753 1.31 2.165 2.193 3.784 2.193 2.41 0 4.362-1.953 4.362-4.362 0-1.62-.882-3.032-2.192-3.784z"/>
                        <path fill="#001443" d="M14.658 12.251v4.6h-3.926v4.038H.864c-.477 0-.864-.387-.864-.864v-7.774c0-1.928 1.563-3.49 3.49-3.49h7.678c1.928 0 3.49 1.562 3.49 3.49z"/>
                        <path fill="#ABB2C1" d="M11.168 8.761H9.074c1.927 0 3.49 1.563 3.49 3.49v6.91h2.094v-6.91c0-1.927-1.563-3.49-3.49-3.49z"/>
                    </g>
                    <g>
                        <path fill="#FFD5CD" d="M17.188 11.517h-1.396V8.725h1.396c.771 0 1.396.625 1.396 1.396 0 .77-.625 1.396-1.396 1.396z" transform="translate(-153 -1156) translate(153 1156) translate(10.732)"/>
                        <path fill="#D83C3C" d="M13 19.282l3.937 1.056c2.67.715 4.526 3.135 4.526 5.899v4.126H0v-4.126c0-2.764 1.856-5.184 4.526-5.9l3.937-1.055H13z" transform="translate(-153 -1156) translate(153 1156) translate(10.732)"/>
                        <path fill="#FF5636" d="M17.427 20.49c.015.178.023.357.023.537 0 3.233-3.132 7.729-6.718 9.336h10.731v-4.126c0-2.592-1.632-4.88-4.036-5.746z" transform="translate(-153 -1156) translate(153 1156) translate(10.732)"/>
                        <path fill="#ECF4FF" d="M8.463 19.282l-2.671.716.554 2c.338 1.222 1.825 1.687 2.798.875l1.588-1.322v-2.269H8.463zM13 19.282l2.672.716-.554 2c-.339 1.222-1.825 1.687-2.799.875l-1.587-1.322v-2.269H13z" transform="translate(-153 -1156) translate(153 1156) translate(10.732)"/>
                        <path fill="#FFD5CD" d="M10.732 21.55c-1.253 0-2.269-1.015-2.269-2.268V16.49H13v2.792c0 1.253-1.015 2.269-2.268 2.269z" transform="translate(-153 -1156) translate(153 1156) translate(10.732)"/>
                        <path fill="#FFAA9A" d="M8.463 18.271c.708.26 1.472.4 2.269.4.796 0 1.56-.14 2.268-.4v-1.78H8.463v1.78z" transform="translate(-153 -1156) translate(153 1156) translate(10.732)"/>
                        <path fill="#FFD5CD" d="M5.671 6.98v5.06c0 2.795 2.266 5.061 5.06 5.061 2.796 0 5.061-2.266 5.061-5.06V6.98H5.672zM4.275 11.517h1.396V8.725H4.275c-.77 0-1.396.625-1.396 1.396 0 .77.625 1.396 1.396 1.396z" transform="translate(-153 -1156) translate(153 1156) translate(10.732)"/>
                        <path fill="#FFAA9A" d="M14.047 6.98v6.805c0 .95-.262 1.839-.717 2.598 1.475-.884 2.462-2.498 2.462-4.343V6.98h-1.745z" transform="translate(-153 -1156) translate(153 1156) translate(10.732)"/>
                        <path fill="#002F34" d="M4.275 6.37v2.355h6.457c.963 0 1.745-.781 1.745-1.745 0 .964.78 1.745 1.745 1.745h2.792V6.369c0-3.517-2.852-6.369-6.37-6.369-3.517 0-6.369 2.852-6.369 6.37z" transform="translate(-153 -1156) translate(153 1156) translate(10.732)"/>
                    </g>
                </g>
                <g transform="translate(-153 -1156) translate(153 1156) translate(13.918 27.835)">
                    <circle cx="7.546" cy="7.567" r="7.524" fill="#276EF1"/>
                    <path fill="#F6F6F7" d="M6.64 10.758c-.39 0-.78-.149-1.077-.446L4.04 8.788c-.595-.595-.595-1.56 0-2.155.596-.595 1.56-.595 2.156 0l.446.446 2.256-2.256c.595-.595 1.56-.595 2.155 0 .595.595.595 1.56 0 2.155l-3.333 3.334c-.298.297-.688.446-1.078.446z"/>
                </g>
            </g>
        </g>
    </g>
</svg>
