<svg xmlns="http://www.w3.org/2000/svg" width="42" height="36" viewBox="0 0 42 36">
    <g fill="none" fill-rule="evenodd">
        <g fill-rule="nonzero">
            <g>
                <g>
                    <g>
                        <path fill="#E87D15" d="M22.588 2.42L28.639 2.42 28.639 4.84 22.588 4.84z" transform="translate(-1028.000000, -881.000000) translate(332.000000, 854.000000) translate(0.000000, 0.000000) translate(696.000000, 27.036061)"/>
                        <path fill="#D5D5D5" d="M17.345 27.751c0 3.787-3.07 6.857-6.858 6.857-3.787 0-6.857-3.07-6.857-6.857" transform="translate(-1028.000000, -881.000000) translate(332.000000, 854.000000) translate(0.000000, 0.000000) translate(696.000000, 27.036061)"/>
                        <path fill="#001443" d="M10.487 35.818c-4.448 0-8.067-3.618-8.067-8.067h2.42c0 3.114 2.534 5.647 5.647 5.647 3.114 0 5.647-2.533 5.647-5.647h2.42c0 4.449-3.618 8.067-8.067 8.067z" transform="translate(-1028.000000, -881.000000) translate(332.000000, 854.000000) translate(0.000000, 0.000000) translate(696.000000, 27.036061)"/>
                        <path fill="#DFDFDF" d="M39.933 27.84c0 3.788-3.07 6.858-6.857 6.858-3.787 0-6.858-3.07-6.858-6.858" transform="translate(-1028.000000, -881.000000) translate(332.000000, 854.000000) translate(0.000000, 0.000000) translate(696.000000, 27.036061)"/>
                        <path fill="#001443" d="M33.076 35.908c-4.449 0-8.068-3.62-8.068-8.068h2.42c0 3.114 2.534 5.648 5.648 5.648 3.113 0 5.647-2.534 5.647-5.648h2.42c0 4.449-3.619 8.068-8.067 8.068z" transform="translate(-1028.000000, -881.000000) translate(332.000000, 854.000000) translate(0.000000, 0.000000) translate(696.000000, 27.036061)"/>
                        <path fill="#FAB27B" d="M19.41 8.47H12.1v5.633l5.245 1.709 5.647-1.709v-2.05c0-1.975-1.607-3.582-3.583-3.582z" transform="translate(-1028.000000, -881.000000) translate(332.000000, 854.000000) translate(0.000000, 0.000000) translate(696.000000, 27.036061)"/>
                        <path fill="#DF6101" d="M41.143 26.041L41.143 27.841 22.992 27.833 21.648 23.391 22.992 19.361 28.823 19.361 30.149 17.504 27.429 7.261 27.429 4.84 34.783 4.84z" transform="translate(-1028.000000, -881.000000) translate(332.000000, 854.000000) translate(0.000000, 0.000000) translate(696.000000, 27.036061)"/>
                        <path fill="#FAB27B" d="M22.992 14.118L22.992 27.833 20.571 27.832 2.42 27.832 2.42 20.099 7.941 14.118 16.279 14.118z" transform="translate(-1028.000000, -881.000000) translate(332.000000, 854.000000) translate(0.000000, 0.000000) translate(696.000000, 27.036061)"/>
                        <path fill="#D9B238" d="M14.521 0L14.521 8.471 13.293 9.681 14.521 10.891 14.521 14.118 7.261 14.118 6.386 7.059 7.261 0z" transform="translate(-1028.000000, -881.000000) translate(332.000000, 854.000000) translate(0.000000, 0.000000) translate(696.000000, 27.036061)"/>
                        <path fill="#FFCE32" d="M0 0L7.261 0 7.261 14.118 0 14.118z" transform="translate(-1028.000000, -881.000000) translate(332.000000, 854.000000) translate(0.000000, 0.000000) translate(696.000000, 27.036061)"/>
                        <path fill="#816E34" d="M14.521 8.471L14.521 10.891 7.261 10.891 6.854 9.859 7.261 8.471z" transform="translate(-1028.000000, -881.000000) translate(332.000000, 854.000000) translate(0.000000, 0.000000) translate(696.000000, 27.036061)"/>
                        <path fill="#AD9039" d="M0 8.471L7.261 8.471 7.261 10.891 0 10.891z" transform="translate(-1028.000000, -881.000000) translate(332.000000, 854.000000) translate(0.000000, 0.000000) translate(696.000000, 27.036061)"/>
                        <path fill="#F60" d="M13.014 19.765H2.728l-.308.333v7.734h16.135v-2.527c0-3.055-2.486-5.54-5.54-5.54zM41.143 26.041L38.069 15.796 29.039 27.835 41.143 27.84zM27.429 0L33.479 0 33.479 7.261 27.429 7.261z" transform="translate(-1028.000000, -881.000000) translate(332.000000, 854.000000) translate(0.000000, 0.000000) translate(696.000000, 27.036061)"/>
                        <path fill="#E0E0E0" d="M37.156 7.26c1.309 0 2.373-1.064 2.373-2.373V2.374C39.53 1.064 38.465 0 37.156 0h-3.677v7.26h3.677z" transform="translate(-1028.000000, -881.000000) translate(332.000000, 854.000000) translate(0.000000, 0.000000) translate(696.000000, 27.036061)"/>
                        <path fill="#E87D15" d="M0 14.118L14.521 14.118 14.521 16.538 0 16.538z" transform="translate(-1028.000000, -881.000000) translate(332.000000, 854.000000) translate(0.000000, 0.000000) translate(696.000000, 27.036061)"/>
                    </g>
                </g>
            </g>
        </g>
    </g>
</svg>
