<svg width="16" height="16" viewBox="0 0 16 16" fill="none" xmlns="http://www.w3.org/2000/svg">
<path d="M4.28218 11.823L11.2825 11.823C11.5625 11.823 11.8426 11.7141 12.0565 11.5002L14.7788 8.77782C15.2066 8.35002 15.2066 7.64998 14.7788 7.22218L12.0565 4.49982C11.8426 4.28592 11.5625 4.17703 11.2748 4.17703L4.2744 4.17703C3.99438 4.17703 3.71437 4.28592 3.50047 4.49982C3.28657 4.71372 3.17768 4.99374 3.18157 5.27764V10.7224C3.17768 11.0063 3.28657 11.2863 3.50047 11.5002C3.71437 11.7141 4.00216 11.823 4.28218 11.823ZM12.2509 7.41664C12.5737 7.09384 13.0948 7.09384 13.4176 7.41664C13.7404 7.73943 13.7404 8.26057 13.4176 8.58336C13.0948 8.90616 12.5737 8.90616 12.2509 8.58336C11.9281 8.26057 11.9281 7.73943 12.2509 7.41664Z" fill="white"/>
</svg>
