<svg width="19" height="22" viewBox="0 0 19 22" fill="none" xmlns="http://www.w3.org/2000/svg">
<g clip-path="url(#clip0)">
<path d="M14.2674 21.97C14.1615 22.0144 14.0492 21.9998 13.9394 21.9998C9.70645 21.9998 5.4735 21.9998 1.24056 21.9998C0.468305 21.9998 0 21.5316 0 20.7606V3.50838C0 2.74812 0.470844 2.27993 1.22597 2.2793H4.54916C4.58597 2.78614 4.51236 3.29298 4.6012 3.79982C3.64364 3.79982 2.68673 3.80298 1.72918 3.79538C1.56863 3.79538 1.51533 3.82896 1.51533 4.00065C1.52041 9.42721 1.52041 14.8533 1.51533 20.2791C1.51533 20.4774 1.59338 20.4881 1.75012 20.4875C3.79171 20.4837 5.83288 20.4837 7.87362 20.4875C9.10805 20.4875 10.3423 20.4856 11.5763 20.4818C12.2895 21.3022 13.1811 21.811 14.2674 21.97Z" fill="#BFBFBF"/>
<path d="M14.2675 21.9704C13.1811 21.8133 12.2896 21.3046 11.5751 20.4791C10.905 19.6301 10.5858 18.6684 10.6372 17.5863C10.6651 17.0059 10.8402 16.463 11.0687 15.934C11.1774 15.7604 11.2855 15.5866 11.3929 15.4126C11.5141 15.2694 11.6303 15.1211 11.7572 14.983C12.2845 14.4078 12.9406 14.0378 13.6755 13.7964C14.1739 13.6846 14.6847 13.6376 15.1952 13.6564C15.595 13.7406 15.9986 13.804 16.3831 13.9605C17.2077 14.2972 17.904 14.8866 18.3715 15.6438C18.8391 16.401 19.0538 17.2868 18.9848 18.1736C18.903 19.1202 18.5011 20.0108 17.845 20.699C17.1889 21.3872 16.3177 21.8321 15.3748 21.9603C15.0076 22.0101 14.6356 22.0135 14.2675 21.9704ZM14.0587 19.1454C14.0587 19.5313 16.1876 19.9291 16.1832 20.3156C16.1832 20.4423 14.093 20.4854 14.2313 20.4829C14.626 20.4753 15.1053 19.993 15.5 20C15.6269 20 15.5006 20.6178 15.5 20.5C15.4962 19.7275 12.4962 20.2721 12.5 19.5C12.5 19.3815 15.5423 17.8296 15.4148 17.8321C15.0201 17.8384 14.6254 17.8391 14.2307 17.8321C14.0924 17.8321 15.9981 17.3708 16 17.5C16.0044 17.8744 16 18.1218 16 18.5L14.0587 19.1454ZM14.8075 16.6873C15.0071 16.6873 15.1987 16.6091 15.3411 16.4695C15.4835 16.33 15.5653 16.1402 15.569 15.9409C15.5674 15.742 15.4884 15.5514 15.3487 15.4096C15.2089 15.2677 15.0194 15.1856 14.8202 15.1807C14.6204 15.1793 14.4281 15.257 14.2854 15.3967C14.1427 15.5364 14.0612 15.7269 14.0587 15.9264C14.0605 16.1255 14.1399 16.3161 14.28 16.4578C14.4201 16.5995 14.61 16.6811 14.8094 16.6854L14.8075 16.6873Z" fill="#A5A5A5"/>
<path d="M15.1952 13.6546C14.6847 13.6358 14.1739 13.6829 13.6755 13.7946C13.6755 10.5424 13.6767 7.29141 13.6793 4.04173C13.6793 3.85166 13.6431 3.78831 13.4381 3.78831C12.4901 3.80098 11.5414 3.79464 10.5928 3.79464C10.621 3.61796 10.6363 3.43946 10.6385 3.26056C10.6334 2.93238 10.6423 2.6042 10.6454 2.27539C11.7513 2.27539 12.8573 2.27539 13.9636 2.27539C14.725 2.27539 15.194 2.74358 15.194 3.49751C15.1952 6.88488 15.1957 10.2706 15.1952 13.6546Z" fill="#BFBFBF"/>
<path d="M10.6451 2.27766C10.6451 2.60647 10.633 2.93465 10.6381 3.26283C10.6359 3.44173 10.6206 3.62023 10.5924 3.79691C10.3386 4.34493 9.91341 4.57491 9.30423 4.56287C8.16667 4.54006 7.02848 4.54006 5.88966 4.56287C5.28048 4.57491 4.85659 4.3443 4.60086 3.79691C4.51202 3.29324 4.58563 2.78323 4.54883 2.27639C4.56723 1.89626 4.56723 1.89626 4.94733 1.89626C5.2551 1.89626 5.56413 1.88613 5.87125 1.90006C6.04386 1.90767 6.09018 1.84494 6.07749 1.68466C6.04247 1.31196 6.14342 0.939169 6.36177 0.634865C6.54767 0.37767 6.80912 0.184601 7.10986 0.0824309C7.41061 -0.0197389 7.73575 -0.0259458 8.04018 0.0646703C8.34395 0.158955 8.6109 0.345102 8.80414 0.597391C8.99738 0.849679 9.10738 1.15565 9.11894 1.47305C9.12846 1.89753 9.12846 1.89753 9.56313 1.89753C9.83916 1.89753 10.1165 1.90893 10.3919 1.89373C10.5822 1.88232 10.6768 1.93047 10.6457 2.13574C10.6404 2.18289 10.6402 2.23047 10.6451 2.27766ZM7.58647 1.99193C7.7099 1.9918 7.82861 1.94455 7.91828 1.85986C8.00794 1.77516 8.06177 1.65944 8.06874 1.5364C8.06966 1.47334 8.05813 1.41071 8.03481 1.35209C8.01148 1.29348 7.97682 1.24002 7.93281 1.19478C7.88879 1.14953 7.83628 1.11339 7.77827 1.08841C7.72026 1.06344 7.65789 1.05012 7.59472 1.04921C7.47125 1.05209 7.3536 1.10221 7.26609 1.18923C7.17858 1.27624 7.1279 1.3935 7.12451 1.51676C7.12587 1.63998 7.17456 1.75797 7.26052 1.84639C7.34648 1.93481 7.46316 1.9869 7.58647 1.99193Z" fill="#A5A5A5"/>
<path d="M4.60081 3.79735C4.85463 4.34474 5.28042 4.57535 5.8896 4.56331C7.02715 4.5405 8.16534 4.5405 9.30416 4.56331C9.91334 4.57535 10.3372 4.34537 10.5923 3.79735C11.5442 3.79735 12.4897 3.80369 13.4377 3.79102C13.6426 3.79102 13.6794 3.85437 13.6788 4.04444C13.6729 7.29666 13.6716 10.5476 13.675 13.7973C12.9402 14.0387 12.2841 14.4087 11.7567 14.9839C11.6298 15.122 11.5137 15.2703 11.3925 15.4135C11.2764 15.2285 11.1114 15.167 10.8925 15.1721C10.3214 15.1835 9.7547 15.1721 9.1855 15.1765C8.89931 15.1765 8.74131 15.3108 8.73687 15.5484C8.73242 15.786 8.89551 15.9336 9.19565 15.9343C9.82006 15.9343 10.4443 15.9343 11.0682 15.9343C10.8398 16.4633 10.6647 17.0062 10.6367 17.5866C10.5853 18.6687 10.9045 19.6304 11.5746 20.4793C10.3406 20.4793 9.10639 20.481 7.87196 20.4844C5.83079 20.4844 3.78963 20.4844 1.74846 20.4844C1.59172 20.4844 1.51367 20.4743 1.51367 20.276C1.52002 14.8498 1.52002 9.42369 1.51367 3.99755C1.51367 3.82586 1.56697 3.79102 1.72752 3.79228C2.68888 3.80052 3.64072 3.79735 4.60081 3.79735ZM6.83382 6.07813C6.12946 6.07813 5.4251 6.07813 4.72137 6.06672C4.57479 6.06672 4.55575 6.12564 4.55575 6.24919C4.55914 8.02693 4.55914 9.80446 4.55575 11.5818C4.55575 11.7085 4.5824 11.7617 4.72391 11.7611C6.63901 11.7564 8.55411 11.7564 10.4692 11.7611C10.5847 11.7611 10.6386 11.7395 10.638 11.6071C10.6342 9.81375 10.6342 8.02038 10.638 6.22701C10.638 6.1003 10.5917 6.06799 10.4724 6.06926C9.76802 6.07623 9.0643 6.07686 8.35994 6.0794L6.83382 6.07813ZM4.95426 15.1734H3.12926C2.82277 15.1734 2.66159 15.3032 2.65906 15.5478C2.65652 15.7923 2.81896 15.9311 3.11974 15.9317H6.74562C7.05274 15.9317 7.21329 15.8018 7.21646 15.5573C7.21963 15.3127 7.05655 15.1772 6.75577 15.1734H4.95426ZM3.62803 13.6566C3.43068 13.6566 3.23333 13.6509 3.03662 13.6566C2.80881 13.6649 2.66286 13.8131 2.65588 14.0266C2.6489 14.2401 2.80183 14.4068 3.04106 14.4118C3.42179 14.4182 3.80042 14.4182 4.17692 14.4118C4.22668 14.4144 4.27642 14.4066 4.32305 14.3891C4.36967 14.3716 4.41218 14.3447 4.44791 14.31C4.48365 14.2753 4.51183 14.2337 4.53071 14.1877C4.54959 14.1416 4.55877 14.0922 4.55766 14.0425C4.56146 13.8195 4.41107 13.6623 4.17184 13.6566C3.99099 13.6516 3.80951 13.6566 3.62803 13.6566ZM9.69823 13.6566H9.10682C8.88218 13.6731 8.73687 13.822 8.73687 14.0368C8.7344 14.0862 8.7422 14.1357 8.75978 14.182C8.77735 14.2283 8.80433 14.2704 8.83901 14.3058C8.87369 14.3412 8.91533 14.3691 8.9613 14.3877C9.00728 14.4062 9.0566 14.4151 9.10618 14.4137C9.49199 14.4213 9.87908 14.4213 10.2649 14.4137C10.3145 14.4151 10.3638 14.4062 10.4098 14.3877C10.4558 14.3692 10.4975 14.3414 10.5322 14.3061C10.567 14.2708 10.5941 14.2287 10.6119 14.1825C10.6296 14.1363 10.6377 14.0869 10.6355 14.0374C10.6377 13.9879 10.6298 13.9384 10.6122 13.892C10.5946 13.8456 10.5676 13.8033 10.5331 13.7677C10.4985 13.7321 10.4569 13.7039 10.411 13.6849C10.3651 13.666 10.3158 13.6565 10.2662 13.6573C10.0771 13.6503 9.88733 13.6566 9.69823 13.6566ZM3.58615 17.4484H4.17756C4.406 17.4345 4.55195 17.2932 4.55829 17.0797C4.56337 16.8561 4.41425 16.6964 4.17756 16.692C3.79936 16.6856 3.42095 16.6856 3.04233 16.692C2.99277 16.6894 2.9432 16.697 2.8967 16.7143C2.85021 16.7316 2.80779 16.7583 2.77207 16.7927C2.73636 16.8272 2.70812 16.8685 2.68911 16.9143C2.67011 16.9601 2.66074 17.0093 2.66159 17.0588C2.65588 17.2831 2.805 17.4389 3.04233 17.4472C3.22318 17.4535 3.40466 17.4484 3.58615 17.4484ZM6.29064 16.6882H5.69923C5.46952 16.7021 5.32357 16.8428 5.31849 17.0556C5.31474 17.1069 5.32195 17.1584 5.33964 17.2067C5.35732 17.255 5.38508 17.299 5.42108 17.3358C5.45708 17.3726 5.50049 17.4013 5.54844 17.4201C5.59639 17.4388 5.64779 17.4472 5.69923 17.4446C6.07743 17.4518 6.45584 17.4518 6.83446 17.4446C6.88391 17.4472 6.93337 17.4397 6.97978 17.4224C7.02619 17.4052 7.06855 17.3786 7.10424 17.3443C7.13994 17.31 7.1682 17.2688 7.18728 17.2232C7.20637 17.1776 7.21587 17.1285 7.21519 17.0791C7.22154 16.8561 7.07115 16.699 6.83446 16.6894C6.65361 16.685 6.47212 16.6901 6.29064 16.6901V16.6882Z" fill="#EAE9E8"/>
<path d="M15.5741 16.5164C15.5741 16.8965 15.5697 17.2734 15.5741 17.651C15.5741 17.7778 15.5405 17.8335 15.4022 17.831C15.0075 17.8234 14.6128 17.824 14.2181 17.831C14.0912 17.831 14.0575 17.7828 14.0582 17.6643C14.062 16.8923 14.062 16.12 14.0582 15.3475C14.0582 15.2296 14.0893 15.1783 14.2175 15.1802C14.6122 15.1865 15.0069 15.1872 15.4015 15.1802C15.5399 15.1802 15.5761 15.2303 15.5741 15.3595C15.5697 15.7447 15.5741 16.1305 15.5741 16.5164Z" fill="#EAE9E8"/>
<path d="M11.0688 15.9314C10.4444 15.9314 9.82016 15.9314 9.19618 15.9314C8.89603 15.9314 8.73295 15.792 8.73739 15.5456C8.74184 15.2991 8.89984 15.1743 9.18603 15.1737C9.75713 15.1737 10.3244 15.1806 10.893 15.1692C11.1119 15.1642 11.2769 15.2256 11.393 15.4106C11.2852 15.5846 11.1771 15.7582 11.0688 15.9314Z" fill="#CCCCCB"/>
<path d="M14.8231 18.9745C15.0223 18.9794 15.2117 19.0615 15.3514 19.2034C15.491 19.3453 15.5699 19.5359 15.5713 19.7348C15.5688 19.9343 15.4873 20.1247 15.3446 20.2644C15.2019 20.4041 15.0097 20.4818 14.8098 20.4805C14.6106 20.4755 14.4211 20.3935 14.2814 20.2516C14.1416 20.1097 14.0626 19.9192 14.061 19.7202C14.0649 19.521 14.1469 19.3312 14.2894 19.1918C14.4319 19.0523 14.6236 18.9743 14.8231 18.9745Z" fill="#EAE9E8"/>
<path d="M7.58696 1.99154C7.46364 1.98652 7.34697 1.93442 7.26101 1.84601C7.17505 1.75759 7.12636 1.6396 7.125 1.51638C7.12838 1.39312 7.17907 1.27586 7.26658 1.18885C7.35409 1.10183 7.47173 1.05171 7.59521 1.04883C7.65838 1.04974 7.72075 1.06306 7.77876 1.08803C7.83677 1.11301 7.88928 1.14915 7.9333 1.1944C7.97731 1.23964 8.01197 1.2931 8.0353 1.35171C8.05862 1.41033 8.07015 1.47296 8.06923 1.53602C8.06226 1.65906 8.00843 1.77478 7.91877 1.85948C7.8291 1.94417 7.71039 1.99142 7.58696 1.99154Z" fill="white"/>
<path d="M8.36084 6.07912C9.0652 6.07912 9.76893 6.07913 10.4733 6.06899C10.5926 6.06899 10.6389 6.0975 10.6389 6.22674C10.6351 8.01969 10.6351 9.81305 10.6389 11.6068C10.6389 11.7393 10.5856 11.7614 10.4701 11.7608C8.55501 11.7583 6.63991 11.7583 4.72481 11.7608C4.5833 11.7608 4.55602 11.7095 4.55665 11.5815C4.56004 9.80461 4.56004 8.02708 4.55665 6.24891C4.55665 6.1222 4.57569 6.06455 4.72227 6.06645C5.426 6.07595 6.13036 6.07532 6.83472 6.07786C6.83472 6.51184 6.83917 6.94645 6.83472 7.38107C6.83472 7.52615 6.86455 7.59711 7.03017 7.59267C7.41091 7.58254 7.79164 7.58254 8.17238 7.59267C8.338 7.59711 8.36972 7.52615 8.36782 7.38107C8.35576 6.94772 8.36084 6.5112 8.36084 6.07912ZM8.33736 9.48382C8.59119 9.48382 8.84501 9.48762 9.09503 9.48382C9.34504 9.48002 9.49226 9.33557 9.4967 9.11319C9.50115 8.89082 9.34631 8.72863 9.08741 8.72863C8.59795 8.72483 8.10871 8.72483 7.61967 8.72863C7.37346 8.72863 7.22244 8.87625 7.218 9.09862C7.21355 9.33114 7.36902 9.47875 7.62729 9.48509C7.86398 9.48889 8.10067 9.48382 8.33736 9.48382ZM7.99343 9.86395H7.61269C7.59683 9.86395 7.58097 9.86395 7.56574 9.86395C7.47013 9.86886 7.38017 9.91065 7.31482 9.9805C7.24948 10.0504 7.21385 10.1428 7.21546 10.2384C7.21237 10.2858 7.2188 10.3334 7.23438 10.3784C7.24995 10.4233 7.27434 10.4647 7.30614 10.5001C7.33793 10.5355 7.37649 10.5642 7.41954 10.5845C7.46259 10.6049 7.50927 10.6164 7.55685 10.6185C7.83225 10.6305 8.10892 10.6299 8.38178 10.6185C8.42957 10.6181 8.4768 10.6082 8.52069 10.5893C8.56458 10.5704 8.60425 10.5429 8.63736 10.5085C8.67046 10.4741 8.69635 10.4334 8.71348 10.3889C8.73062 10.3444 8.73866 10.2968 8.73713 10.2491C8.73928 10.2 8.73142 10.1509 8.71405 10.1049C8.69668 10.0588 8.67014 10.0168 8.63604 9.98125C8.60194 9.94573 8.56099 9.91747 8.51566 9.89818C8.47032 9.87889 8.42154 9.86897 8.37226 9.86902C8.24598 9.85761 8.11971 9.86331 7.99343 9.86331V9.86395Z" fill="#A8A8A8"/>
<path d="M4.95443 15.1729H6.75595C7.05673 15.1729 7.21981 15.311 7.21663 15.5568C7.21346 15.8026 7.05292 15.9306 6.74579 15.9312H3.11991C2.81913 15.9312 2.65605 15.7931 2.65923 15.5473C2.6624 15.3015 2.82294 15.1735 3.12943 15.1729H4.95443Z" fill="#CCCCCB"/>
<path d="M8.36037 6.0791C8.36037 6.51308 8.3553 6.9477 8.36037 7.38232C8.36037 7.5274 8.33055 7.59836 8.16493 7.59392C7.78419 7.58379 7.40346 7.58379 7.02272 7.59392C6.8571 7.59836 6.82474 7.5274 6.82728 7.38232C6.83363 6.9477 6.82728 6.51308 6.82728 6.0791H8.36037Z" fill="#BFBFBF"/>
<path d="M3.62849 13.6568C3.80998 13.6568 3.99146 13.6518 4.17231 13.6568C4.41154 13.6644 4.56193 13.8197 4.55812 14.0427C4.55924 14.0924 4.55006 14.1418 4.53118 14.1878C4.5123 14.2339 4.48411 14.2755 4.44838 14.3102C4.41265 14.3449 4.37014 14.3718 4.32351 14.3893C4.27689 14.4068 4.22714 14.4146 4.17739 14.412C3.79665 14.4192 3.41803 14.4192 3.04152 14.412C2.8023 14.4082 2.6519 14.2498 2.65635 14.0268C2.66079 13.8038 2.8061 13.6651 3.03708 13.6568C3.2338 13.6511 3.43114 13.6568 3.62849 13.6568Z" fill="#CCCCCB"/>
<path d="M9.69911 13.6561C9.88948 13.6561 10.0798 13.6498 10.267 13.6561C10.3167 13.6554 10.366 13.6648 10.4119 13.6838C10.4578 13.7028 10.4993 13.7309 10.5339 13.7666C10.5685 13.8022 10.5955 13.8445 10.6131 13.8908C10.6307 13.9372 10.6386 13.9867 10.6364 14.0363C10.6386 14.0857 10.6305 14.1351 10.6128 14.1813C10.595 14.2276 10.5679 14.2697 10.5331 14.305C10.4983 14.3403 10.4567 14.368 10.4107 14.3866C10.3647 14.4051 10.3154 14.4139 10.2658 14.4126C9.87996 14.4202 9.49288 14.4202 9.10707 14.4126C9.05749 14.414 9.00816 14.4051 8.96219 14.3865C8.91621 14.3679 8.87457 14.3401 8.83989 14.3047C8.80521 14.2693 8.77824 14.2271 8.76066 14.1808C8.74308 14.1345 8.73528 14.0851 8.73775 14.0356C8.73775 13.8221 8.88307 13.6732 9.1077 13.6555H9.69911V13.6561Z" fill="#CCCCCB"/>
<path d="M3.5866 17.4474C3.40512 17.4474 3.22363 17.4525 3.04215 17.4474C2.80292 17.4392 2.6538 17.2833 2.66141 17.0591C2.66056 17.0095 2.66993 16.9603 2.68893 16.9146C2.70794 16.8688 2.73618 16.8274 2.77189 16.793C2.80761 16.7586 2.85003 16.7319 2.89652 16.7146C2.94302 16.6972 2.99259 16.6896 3.04215 16.6923C3.42034 16.6859 3.79875 16.6859 4.17737 16.6923C4.4166 16.6967 4.56572 16.8563 4.55811 17.08C4.5524 17.2935 4.40645 17.4348 4.17737 17.4487H3.58596L3.5866 17.4474Z" fill="#CCCCCB"/>
<path d="M6.29049 16.6898C6.47198 16.6898 6.65346 16.6847 6.83431 16.6898C7.07227 16.6986 7.22266 16.8564 7.21505 17.0794C7.21573 17.1288 7.20622 17.1779 7.18714 17.2235C7.16805 17.2691 7.13979 17.3104 7.1041 17.3446C7.0684 17.3789 7.02604 17.4055 6.97963 17.4227C6.93323 17.44 6.88376 17.4476 6.83431 17.445C6.45611 17.4521 6.0777 17.4521 5.69908 17.445C5.64764 17.4475 5.59625 17.4391 5.54829 17.4204C5.50034 17.4016 5.45693 17.3729 5.42093 17.3361C5.38494 17.2993 5.35718 17.2553 5.33949 17.207C5.32181 17.1587 5.3146 17.1072 5.31835 17.0559C5.32406 16.8431 5.47001 16.7024 5.69908 16.6885H6.29049V16.6898Z" fill="#CCCCCB"/>
<path d="M8.33723 9.48392C8.10054 9.48392 7.86385 9.48709 7.62716 9.48392C7.36889 9.47949 7.21342 9.32997 7.21787 9.09746C7.22231 8.87508 7.37333 8.72999 7.61954 8.72746C8.10858 8.72366 8.59783 8.72366 9.08729 8.72746C9.34619 8.72746 9.50102 8.88141 9.49658 9.11329C9.49214 9.34517 9.34111 9.47885 9.0949 9.48392C8.84869 9.48899 8.59106 9.48392 8.33723 9.48392Z" fill="#BFBFBF"/>
<path d="M7.99342 9.86386C8.12034 9.86386 8.24725 9.85816 8.37416 9.86386C8.42344 9.86382 8.47222 9.87374 8.51755 9.89303C8.56289 9.91232 8.60384 9.94058 8.63794 9.9761C8.67204 10.0116 8.69857 10.0537 8.71595 10.0997C8.73332 10.1458 8.74118 10.1948 8.73903 10.244C8.7409 10.2915 8.73327 10.3389 8.71661 10.3834C8.69994 10.4279 8.67457 10.4686 8.64196 10.5032C8.60936 10.5379 8.57018 10.5656 8.5267 10.585C8.48323 10.6043 8.43634 10.6148 8.38875 10.6159C8.11336 10.6267 7.83669 10.6273 7.56383 10.6159C7.51625 10.6138 7.46956 10.6022 7.42651 10.5819C7.38346 10.5616 7.34491 10.5329 7.31311 10.4975C7.28132 10.4621 7.25692 10.4207 7.24135 10.3757C7.22578 10.3308 7.21935 10.2832 7.22243 10.2358C7.22082 10.1402 7.25645 10.0477 7.32179 9.97788C7.38714 9.90803 7.4771 9.86624 7.57271 9.86133C7.58794 9.86133 7.6038 9.86133 7.61967 9.86133L7.99342 9.86386Z" fill="#BFBFBF"/>
</g>
<defs>
<clipPath id="clip0">
<rect width="19" height="22" fill="white"/>
</clipPath>
</defs>
</svg>
