<svg width="16" height="15" viewBox="0 0 16 15" fill="none" xmlns="http://www.w3.org/2000/svg">
<g clip-path="url(#clip0)">
<path d="M13.8729 3.89195C14.9975 4.29969 15.6962 5.08218 15.9573 6.2536C15.9711 6.31543 15.9397 6.38896 15.999 6.43993V7.22115C15.9573 7.38367 15.9222 7.54827 15.8737 7.70827C15.5953 8.61901 15.0207 9.2685 14.1497 9.65675C14.0533 9.69853 14.0245 9.74699 14.0245 9.85018C14.029 10.2349 14.022 10.6197 14.0194 11.0045L12.9336 10.9978L12.9361 8.98038C13.0643 8.9691 13.1925 8.9737 13.322 8.94863C13.6079 8.89488 13.88 8.78365 14.1217 8.62168C14.3635 8.45971 14.5698 8.25036 14.7283 8.00631C14.8868 7.76226 14.9942 7.48857 15.0439 7.20181C15.0936 6.91505 15.0847 6.62119 15.0176 6.33799C14.9098 5.86666 14.6451 5.44595 14.2669 5.14484C13.8887 4.84372 13.4195 4.68007 12.9361 4.6807L12.9336 3.75701C13.2581 3.73069 13.5651 3.81174 13.8729 3.89195Z" fill="#333333"/>
<path d="M11.8115 13.8796H11.7334L0.641904 13.8675C0.258516 13.8675 0 13.6097 0 13.2283V6.16381C0 6.09112 3.05872e-07 6.018 0.00292375 5.94531C0.0128622 5.95654 0.0210311 5.96922 0.0271473 5.98291C0.215918 6.67098 0.640653 6.99809 1.34813 6.99809H5.84187C5.84187 7.41878 5.84187 7.83948 5.84647 8.26059C5.84855 8.55303 6.04192 8.74812 6.33301 8.7523C6.53556 8.75523 6.73812 8.75564 6.94067 8.75731C6.94067 10.3962 6.94067 12.0355 6.93566 13.6745C6.93566 13.8186 6.97492 13.8554 7.11733 13.8549C8.62081 13.8499 10.1243 13.852 11.6278 13.852C11.69 13.852 11.7531 13.8562 11.8149 13.8587C11.8161 13.8622 11.8164 13.8659 11.8158 13.8696C11.8152 13.8732 11.8138 13.8766 11.8115 13.8796Z" fill="#7E7E7E"/>
<path d="M5.84188 6.9967H1.34813C0.640659 6.9967 0.215924 6.66958 0.0271532 5.98152C0.0210371 5.96783 0.0128682 5.95515 0.00292969 5.94392C0.00292969 4.74631 0.00292969 3.54871 0.00292969 2.35111C0.00292969 2.05867 0.211747 1.87318 0.522049 1.87318C1.81755 1.87318 3.11222 1.87318 4.40605 1.87318C4.46828 1.87318 4.53134 1.86984 4.59315 1.86816H5.53074L6.93775 1.87819C6.93775 3.28162 6.93775 4.68504 6.93775 6.08847C6.7352 6.08847 6.53265 6.08847 6.33009 6.0939C6.04903 6.09807 5.84981 6.29484 5.84439 6.57433C5.84188 6.71595 5.84188 6.85758 5.84188 6.9967Z" fill="#B1B1B1"/>
<path d="M6.9375 6.09042C6.9375 4.687 6.9375 3.28357 6.9375 1.88014L8.34326 1.87012H9.28126C10.1241 1.87179 10.9667 1.87346 11.8092 1.87513C12.34 1.87513 12.8704 1.87513 13.4012 1.87513C13.4639 1.87249 13.5264 1.88285 13.5848 1.90554C13.6432 1.92824 13.6963 1.96279 13.7408 2.00701C13.7852 2.05123 13.82 2.10417 13.843 2.1625C13.866 2.22083 13.8767 2.28329 13.8744 2.34596C13.8744 2.86107 13.8744 3.37618 13.8744 3.8917C13.5666 3.81191 13.2597 3.73086 12.9368 3.75676C11.9015 3.76721 11.07 4.18874 10.4473 5.01007C10.0042 5.59495 9.83045 6.27048 9.84549 6.99865H8.03797C8.03588 6.85327 8.03463 6.7083 8.03254 6.56334C8.03375 6.50118 8.02234 6.43943 7.999 6.38182C7.97566 6.32421 7.94089 6.27193 7.89677 6.22815C7.85265 6.18436 7.80011 6.14999 7.74233 6.12711C7.68455 6.10423 7.62273 6.09331 7.56061 6.09502L6.9375 6.09042Z" fill="#A6A6A6"/>
<path d="M12.9349 10.9971L14.0208 11.0038C14.0208 11.9868 14.0404 12.9702 14.0208 13.9532C14.0185 14.0953 13.9877 14.2355 13.9303 14.3654C13.8729 14.4954 13.79 14.6125 13.6865 14.7099C13.5831 14.8073 13.4612 14.8829 13.328 14.9323C13.1948 14.9818 13.053 15.004 12.9111 14.9976C12.9111 13.6672 12.9111 12.3367 12.9111 11.0063C12.9188 11.0025 12.9268 10.9995 12.9349 10.9971Z" fill="#D1D1D1"/>
<path d="M12.9071 11.0071C12.9071 12.3373 12.9071 13.6677 12.9071 14.9985C12.3675 15.0056 11.8814 14.5644 11.8367 14.0284C11.8325 13.9787 11.8484 13.9236 11.8096 13.8797C11.8114 13.8763 11.8124 13.8725 11.8124 13.8686C11.8124 13.8647 11.8114 13.8609 11.8096 13.8575C11.8413 13.8049 11.8263 13.7464 11.8263 13.6904C11.8263 12.8504 11.8263 12.0103 11.8263 11.17C11.8263 11.1141 11.835 11.0577 11.8396 11.0029L12.9071 11.0071Z" fill="#E8E8E8"/>
<path d="M9.28169 1.8699H8.34368C8.34368 1.60462 8.33574 1.33933 8.34702 1.07614C8.35203 0.950807 8.30943 0.934515 8.19918 0.935768C7.77862 0.940781 7.35806 0.935768 6.9375 0.933261V0.00623172C7.5769 0.00623172 8.21588 -0.000453299 8.85528 0.00288885C9.0879 0.00288885 9.27876 0.211773 9.28043 0.451991C9.28336 0.925323 9.28169 1.39657 9.28169 1.8699Z" fill="#333333"/>
<path d="M6.93793 0.00621962V0.933668C6.52239 0.933668 6.10726 0.942022 5.69171 0.935756C5.56642 0.933667 5.5209 0.954973 5.52758 1.092C5.54053 1.35144 5.53134 1.61171 5.53134 1.87156H4.59375C4.59375 1.41828 4.59375 0.964999 4.59375 0.512137C4.59375 0.195886 4.78377 0.00162478 5.09491 0.00162478C5.70967 -0.000464069 6.32359 0.00287747 6.93793 0.00621962Z" fill="#7E7E7E"/>
<path d="M12.9077 11.0068L11.8444 11.001C11.8444 10.6325 11.8369 10.2632 11.8444 9.8947C11.8482 9.75851 11.8027 9.68582 11.6774 9.63861C11.3364 9.50014 11.0277 9.29294 10.7703 9.02992C10.2077 8.4722 9.9091 7.78706 9.84562 6.99873C9.83058 6.27055 10.0043 5.59586 10.4474 5.01014C11.0701 4.18756 11.9016 3.76603 12.937 3.75684L12.9395 4.68052C12.9376 4.68253 12.9363 4.68492 12.9355 4.68753C12.9347 4.69013 12.9345 4.69287 12.9349 4.69556C12.6537 4.69424 12.3751 4.74848 12.1149 4.85515C11.8548 4.96183 11.6182 5.11885 11.4189 5.3172C11.2196 5.51555 11.0613 5.75132 10.9533 6.01099C10.8453 6.27066 10.7896 6.54911 10.7895 6.83036C10.7898 7.11157 10.8456 7.38994 10.9537 7.64954C11.0617 7.90913 11.22 8.14484 11.4193 8.34316C11.6186 8.54147 11.855 8.6985 12.1151 8.80524C12.3752 8.91197 12.6538 8.96632 12.9349 8.96517C12.9344 8.96786 12.9346 8.97061 12.9354 8.97322C12.9362 8.97582 12.9376 8.97821 12.9395 8.98021L12.937 10.9976C12.9269 10.9997 12.9171 11.0028 12.9077 11.0068Z" fill="#7E7E7E"/>
<path d="M12.9374 4.67969C13.4208 4.67906 13.89 4.84271 14.2682 5.14383C14.6464 5.44494 14.9111 5.86565 15.0189 6.33698C15.0858 6.62009 15.0946 6.91383 15.0448 7.20044C14.995 7.48705 14.8876 7.76058 14.7291 8.00449C14.5706 8.2484 14.3643 8.45763 14.1227 8.61952C13.8811 8.78141 13.6091 8.8926 13.3233 8.94636C13.1939 8.97143 13.0656 8.96684 12.9374 8.97812C12.9356 8.97612 12.9342 8.97373 12.9334 8.97112C12.9326 8.96852 12.9324 8.96577 12.9328 8.96308V4.69348C12.9326 4.69099 12.9329 4.68848 12.9337 4.68611C12.9345 4.68374 12.9358 4.68155 12.9374 4.67969Z" fill="#7E7E7E"/>
<path d="M9.84382 6.99972C9.9073 7.78805 10.2059 8.47319 10.7685 9.03091C11.0271 9.29426 11.3374 9.50134 11.6797 9.63918C11.805 9.68765 11.8497 9.75908 11.8468 9.89528C11.8376 10.2637 11.8443 10.6331 11.8468 11.0015C11.8422 11.0579 11.8334 11.1143 11.8334 11.1686C11.8334 12.0086 11.8334 12.8488 11.8334 13.689C11.8334 13.745 11.8485 13.8035 11.8167 13.8561C11.7541 13.8561 11.6914 13.8499 11.6296 13.8499C10.1261 13.8499 8.62266 13.8499 7.11917 13.8528C6.97676 13.8528 6.93709 13.8165 6.9375 13.6723C6.94335 12.0334 6.9421 10.3941 6.94251 8.75518C7.14507 8.75518 7.34804 8.75101 7.55059 8.74975C7.84293 8.74975 8.03212 8.55675 8.03338 8.26138L8.03964 6.99805L9.84382 6.99972Z" fill="#AEAEAE"/>
<path d="M8.03577 6.99891L8.02951 8.26224C8.02951 8.5576 7.83906 8.74894 7.54672 8.75061C7.34417 8.75061 7.14119 8.75437 6.93864 8.75605C6.73609 8.75772 6.53354 8.75396 6.33098 8.75103C6.03864 8.74685 5.84653 8.55259 5.84444 8.25932C5.84151 7.83821 5.84151 7.41751 5.83984 6.99682C5.83984 6.85645 5.83984 6.71566 5.8436 6.57571C5.84903 6.29622 6.04824 6.09945 6.32931 6.09527C6.53187 6.09193 6.73442 6.09151 6.93697 6.08984L7.55841 6.09527C7.62064 6.09356 7.68257 6.10452 7.74043 6.12747C7.7983 6.15043 7.8509 6.18492 7.89503 6.22883C7.93917 6.27275 7.97392 6.32518 7.99718 6.38294C8.02044 6.4407 8.03172 6.50259 8.03034 6.56485C8.03243 6.70856 8.03368 6.85353 8.03577 6.99891Z" fill="white"/>
<path d="M12.9325 4.69534V8.96494C12.6514 8.96609 12.3728 8.91175 12.1127 8.80501C11.8527 8.69827 11.6162 8.54125 11.4169 8.34293C11.2176 8.14461 11.0594 7.90891 10.9513 7.64931C10.8432 7.38972 10.7874 7.11134 10.7871 6.83014C10.7873 6.54889 10.843 6.27044 10.951 6.01077C11.059 5.7511 11.2172 5.51532 11.4165 5.31697C11.6159 5.11862 11.8524 4.96161 12.1125 4.85493C12.3727 4.74825 12.6513 4.69402 12.9325 4.69534Z" fill="white"/>
</g>
<defs>
<clipPath id="clip0">
<rect width="16" height="15" fill="white"/>
</clipPath>
</defs>
</svg>
