<svg width="17" height="16" viewBox="0 0 17 16" fill="none" xmlns="http://www.w3.org/2000/svg">
<path d="M8.90932 15.9945C6.2318 15.9945 3.55444 15.9961 0.87722 15.9994C0.749017 15.9994 0.722215 15.9629 0.722662 15.8413C0.726235 14.0374 0.722662 12.2336 0.726235 10.4302C0.722451 10.0459 0.857789 9.67325 1.1074 9.38051C1.35702 9.08777 1.70416 8.89463 2.08509 8.83654C3.23579 8.64413 4.38693 8.4535 5.53852 8.26465L6.07456 8.82719C5.99728 9.04632 5.92358 9.26635 5.84094 9.48325C5.82592 9.51829 5.82097 9.5568 5.82665 9.59448C5.83233 9.63216 5.84842 9.66752 5.8731 9.6966C6.01024 9.89213 6.13755 10.0948 6.27513 10.2899C6.2995 10.3189 6.31471 10.3545 6.31884 10.3921C6.32298 10.4298 6.31585 10.4678 6.29836 10.5014C6.14425 10.8698 5.99997 11.2421 5.84898 11.6114C5.81626 11.6871 5.80997 11.7717 5.83111 11.8514C6.02989 12.6977 6.22197 13.5439 6.41763 14.3929C6.47391 14.6356 6.53466 14.8775 6.59318 15.1193C6.60605 15.1135 6.61744 15.1049 6.6265 15.0941C6.63555 15.0833 6.64203 15.0706 6.64544 15.057C6.89158 13.9942 7.13681 12.9311 7.38652 11.8692C7.40986 11.7787 7.40231 11.6829 7.36508 11.5971C7.2199 11.2408 7.08276 10.8845 6.93357 10.5335C6.91142 10.4903 6.90254 10.4415 6.90802 10.3933C6.9135 10.345 6.93311 10.2995 6.96439 10.2623C7.0984 10.073 7.22526 9.8752 7.35525 9.68324C7.38563 9.6387 7.41913 9.59906 7.39456 9.53269C7.30835 9.29975 7.22839 9.06369 7.14619 8.82897L7.68223 8.26643L10.6653 8.76483C10.6286 8.9212 10.6135 9.08185 10.6206 9.2423C10.6237 9.53581 10.6206 9.82933 10.6206 10.1228C10.0974 10.1246 9.574 10.1266 9.05047 10.1286C8.83963 10.1286 8.74716 10.2222 8.74716 10.4346C8.74716 10.7789 8.75074 11.1232 8.75252 11.4675V14.8311V14.9296C8.75252 15.1616 8.75655 15.3937 8.74493 15.6253C8.73689 15.7816 8.77933 15.9045 8.90932 15.9945Z" fill="#BBBBBB"/>
<path d="M7.67849 8.2655L7.14245 8.82803C6.95751 8.90954 6.85254 9.08102 6.71406 9.21375C6.63008 9.29392 6.58363 9.29348 6.49965 9.21375C6.36117 9.08013 6.2562 8.90999 6.07126 8.82848L5.53924 8.2655C5.53924 7.9604 5.53612 7.65575 5.53924 7.35065C5.54377 7.31057 5.53566 7.27007 5.51604 7.2348C5.49643 7.19952 5.46629 7.1712 5.4298 7.15379C4.87455 6.82375 4.48056 6.36098 4.29876 5.7343C4.22062 5.48008 4.18796 5.21413 4.20227 4.94863C4.20986 4.83371 4.17279 4.78917 4.05352 4.79719C3.91959 4.80393 3.78541 4.80393 3.65149 4.79719C3.51105 4.79531 3.37709 4.738 3.27896 4.63781C3.18083 4.53763 3.12653 4.40274 3.12796 4.26271C3.12796 3.9692 3.35577 3.74382 3.65372 3.72824C3.82704 3.71844 4.00572 3.775 4.17323 3.68949C4.23533 3.60753 4.17323 3.50598 4.22014 3.41779C4.3805 3.10601 4.5364 2.79424 4.69051 2.48246C4.72446 2.41253 4.7535 2.40674 4.81246 2.45663C4.89733 2.52789 4.98891 2.59025 5.07825 2.65706C5.84747 3.22984 6.67788 3.35989 7.57396 2.99466C7.87638 2.87129 8.12429 2.66195 8.38204 2.46954C8.44949 2.41921 8.48791 2.39917 8.52677 2.49359C8.6916 2.89445 8.98285 3.24142 9.03601 3.68949C9.19057 3.78257 9.35942 3.71888 9.52112 3.72913C9.68283 3.73937 9.81461 3.77634 9.92583 3.8917C10.0902 4.06184 10.1304 4.25959 10.0406 4.47294C10.004 4.56996 9.93841 4.65345 9.8527 4.71215C9.767 4.77085 9.6653 4.80192 9.56133 4.8012C9.4274 4.80794 9.29322 4.80794 9.1593 4.8012C9.04271 4.79318 9.00251 4.83282 9.00831 4.95041C9.02426 5.28284 8.96977 5.6149 8.84839 5.92494C8.64157 6.46387 8.27483 6.8665 7.78168 7.15735C7.74502 7.17459 7.7147 7.20286 7.69499 7.23817C7.67528 7.27348 7.66717 7.31406 7.67179 7.35421C7.68117 7.65664 7.67849 7.96174 7.67849 8.2655Z" fill="#DFDFDF"/>
<path d="M8.75145 11.4677C8.75145 11.1234 8.74654 10.7791 8.74609 10.4348C8.74609 10.2224 8.83856 10.1302 9.0494 10.1288C9.57293 10.1262 10.0963 10.1242 10.6196 10.123H11.1556L12.4541 10.1297H16.482C16.6853 10.1297 16.7715 10.2188 16.7711 10.4228C16.7711 10.7604 16.7699 11.0983 16.7675 11.4365C16.7608 11.445 16.7492 11.4526 16.7478 11.4619C16.6478 12.163 15.9884 12.8271 15.0687 12.7981C14.4799 12.7807 13.8898 12.7981 13.3006 12.7981L13.2926 12.269C13.2926 12.1353 13.2904 12.004 13.298 11.8717C13.3038 11.7683 13.2743 11.722 13.1604 11.7251C12.8947 11.7317 12.629 11.7317 12.363 11.7251C12.2527 11.7225 12.2205 11.7621 12.2219 11.8686C12.2263 12.1777 12.2219 12.4868 12.2219 12.7959C11.5661 12.7959 10.9104 12.8003 10.2564 12.7959C10.0111 12.7894 9.77182 12.719 9.56221 12.5919C9.11685 12.3402 8.86849 11.951 8.75145 11.4677Z" fill="#606060"/>
<path d="M9.03863 3.68812C8.98547 3.24005 8.69422 2.89308 8.52939 2.49223C8.49053 2.3978 8.45211 2.41785 8.38466 2.46818C8.12691 2.66059 7.87899 2.86903 7.57658 2.9933C6.6805 3.35852 5.85008 3.22847 5.08087 2.65569C4.99153 2.58932 4.90219 2.52652 4.81508 2.45526C4.75612 2.40537 4.72574 2.41072 4.69313 2.48109C4.53902 2.79287 4.38312 3.10777 4.22276 3.41643C4.17809 3.5055 4.23794 3.60616 4.17585 3.68812C4.03023 3.39505 3.88148 3.10331 3.73943 2.80846C3.64856 2.62646 3.59896 2.42675 3.59414 2.2235C3.58932 2.02025 3.6294 1.81844 3.71155 1.63236C3.79369 1.44628 3.91588 1.2805 4.06946 1.14676C4.22303 1.01303 4.40424 0.914621 4.60022 0.85851C4.68459 0.830339 4.7627 0.786178 4.83027 0.728455C5.21577 0.426476 5.6178 0.150329 6.11498 0.0518966C6.59187 -0.0498658 7.08855 -0.00402715 7.53861 0.183287C7.82584 0.303098 8.10904 0.433155 8.38957 0.567664C9.32764 1.01796 9.72297 2.07222 9.31871 3.02938C9.2255 3.2491 9.13213 3.46868 9.03863 3.68812Z" fill="#9A9A9A"/>
<path d="M13.3017 12.8001C13.8909 12.8001 14.481 12.7831 15.0697 12.8001C15.9895 12.8277 16.6488 12.1636 16.7488 11.4639C16.7488 11.4545 16.7618 11.4469 16.7685 11.4385C16.7685 12.601 16.7685 13.7637 16.7685 14.9268C16.7131 14.9268 16.6573 14.9308 16.6019 14.9308H8.75293V14.8324C9.3963 14.8404 10.0354 14.7273 10.6367 14.4988C11.2277 14.2735 11.7748 13.947 12.2533 13.5341C12.4266 13.8138 12.6468 13.9202 12.9001 13.8458C13.1681 13.7679 13.295 13.5728 13.2959 13.2316C13.2963 13.0878 13.2981 12.9439 13.3017 12.8001Z" fill="#8B8B8B"/>
<path d="M8.75258 14.9298H16.6002C16.6556 14.9298 16.7114 14.9271 16.7668 14.9258C16.7668 15.1868 16.7695 15.4478 16.7695 15.7083C16.7695 15.9114 16.6824 15.9965 16.4747 15.9965H9.15997C9.07644 15.9965 8.99335 15.9965 8.90982 15.9965C8.77983 15.9074 8.7374 15.7836 8.74499 15.6273C8.7566 15.3939 8.7508 15.1618 8.75258 14.9298Z" fill="#8B8B8B"/>
<path d="M11.1528 10.1237H10.6199C10.6199 9.83014 10.6199 9.53662 10.6199 9.2431C10.6128 9.08266 10.6278 8.922 10.6645 8.76564C10.8602 8.39818 11.1644 8.25165 11.5821 8.26011C12.3946 8.27659 13.208 8.26456 14.021 8.26501C14.5678 8.26501 14.8979 8.59104 14.8988 9.13175C14.8988 9.46491 14.8988 9.79985 14.8988 10.1312H14.3632C14.3632 9.79851 14.3632 9.4658 14.3632 9.13309C14.3632 8.89213 14.2707 8.79904 14.0326 8.7986C13.1821 8.7986 12.3315 8.7986 11.4807 8.7986C11.4025 8.7986 11.3239 8.79459 11.2649 8.86051C11.1622 8.91796 11.1541 9.01506 11.1546 9.1175C11.1559 9.45199 11.1528 9.78782 11.1528 10.1237Z" fill="#8B8B8B"/>
<path d="M12.2533 13.5331C11.7748 13.946 11.2277 14.2725 10.6367 14.4978C10.0354 14.7263 9.3963 14.8394 8.75293 14.8314V11.4678C8.86996 11.951 9.11833 12.3403 9.55699 12.5933C9.76659 12.7205 10.0059 12.7908 10.2512 12.7973C10.9069 12.8022 11.5627 12.7973 12.2189 12.7973C12.2488 13.0289 12.188 13.265 12.2519 13.4948L12.2533 13.5331Z" fill="#8B8B8B"/>
<path d="M6.0723 8.82857C6.25724 8.91008 6.36221 9.08156 6.50069 9.21384C6.58467 9.29401 6.63112 9.29446 6.7151 9.21384C6.85358 9.08022 6.95855 8.90963 7.14349 8.82812C7.22568 9.06285 7.30564 9.29891 7.39185 9.53185C7.41642 9.59822 7.38292 9.63652 7.35254 9.6824C7.22255 9.87614 7.09792 10.0739 6.96168 10.2614C6.92966 10.2989 6.90962 10.3452 6.90413 10.3941C6.89863 10.4431 6.90794 10.4926 6.93086 10.5362C7.08006 10.8885 7.21719 11.2457 7.36237 11.5998C7.39961 11.6857 7.40715 11.7814 7.38381 11.872C7.13366 12.9325 6.88887 13.9956 6.64497 15.0583C6.64155 15.072 6.63508 15.0847 6.62602 15.0955C6.61697 15.1063 6.60558 15.1149 6.59271 15.1207C6.53419 14.8788 6.47344 14.637 6.41715 14.3943C6.2215 13.548 6.02942 12.6991 5.83064 11.8528C5.8095 11.7731 5.81579 11.6885 5.84851 11.6127C5.99949 11.2435 6.14377 10.8712 6.29789 10.5028C6.31538 10.4692 6.3225 10.4312 6.31837 10.3935C6.31423 10.3559 6.29903 10.3203 6.27466 10.2913C6.13752 10.0962 6.01021 9.89351 5.87263 9.69799C5.84794 9.6689 5.83186 9.63354 5.82618 9.59586C5.8205 9.55819 5.82545 9.51968 5.84047 9.48464C5.92132 9.26773 5.99502 9.04771 6.0723 8.82857Z" fill="#BBBBBB"/>
<path d="M12.2518 13.4949C12.1879 13.2651 12.2487 13.0291 12.2188 12.7974C12.2188 12.4883 12.2246 12.1792 12.2188 11.8701C12.2188 11.7637 12.2496 11.724 12.3599 11.7267C12.6255 11.7332 12.8913 11.7332 13.1573 11.7267C13.2712 11.7236 13.3007 11.7712 13.2949 11.8732C13.2873 12.0069 13.2908 12.1405 13.2895 12.2705C13.2687 12.2949 13.2492 12.3204 13.231 12.3467C12.9634 12.7787 12.6485 13.1711 12.2518 13.4949Z" fill="#D6D6D6"/>
<path d="M11.2637 8.86035C11.8698 9.03851 12.2732 9.41888 12.4412 10.0335C12.4472 10.0657 12.4508 10.0983 12.4519 10.1311L11.1533 10.1244C11.1533 9.78856 11.1533 9.45273 11.1533 9.11735C11.1529 9.0149 11.1609 8.91781 11.2637 8.86035Z" fill="#BBBBBB"/>
<path d="M12.252 13.4959C12.6486 13.1721 12.9635 12.7797 13.2347 12.3476C13.2529 12.3213 13.2724 12.2959 13.2932 12.2715L13.3012 12.8006C13.3012 12.9445 13.2981 13.0883 13.2977 13.2322C13.2977 13.5734 13.1717 13.7667 12.9019 13.8464C12.6486 13.9199 12.4284 13.8134 12.2551 13.5346C12.2528 13.5213 12.2524 13.5084 12.252 13.4959Z" fill="#D6D6D6"/>
</svg>
