<svg xmlns="http://www.w3.org/2000/svg" width="64" height="64" viewBox="0 0 64 64">
    <g fill="none" fill-rule="evenodd">
        <g>
            <g>
                <g>
                    <path d="M0 0H64V64H0z" transform="translate(-1038.000000, -236.000000) translate(321.000000, 226.000000) translate(717.000000, 10.000000)"/>
                    <g fill-rule="nonzero" transform="translate(-1038.000000, -236.000000) translate(321.000000, 226.000000) translate(717.000000, 10.000000) translate(32.095798, 31.139178) rotate(-19.000000) translate(-32.095798, -31.139178) translate(16.047460, 6.139178)">
                        <path fill="#DFDFDF" d="M27.263 6.689c2.67 0 4.834 2.164 4.834 4.834v33.643c0 2.67-2.165 4.834-4.834 4.834H4.833C2.165 50 0 47.836 0 45.166V11.523c0-2.67 2.164-4.834 4.834-4.834h22.429z"/>
                        <path fill="#BDBDBD" d="M6.767 50H4.834C2.164 50 0 47.835 0 45.166V11.523c0-2.67 2.165-4.834 4.834-4.834h1.933c-2.669 0-4.833 2.164-4.833 4.834v33.643c0 2.67 2.164 4.834 4.833 4.834z"/>
                        <ellipse cx="16.548" cy="20.967" fill="#FFD5CD" rx="3.032" ry="3.532"/>
                        <path fill="#153E42" d="M16.476 19.5c1.674 0 3.104 2.642 3.104.967 0-1.674-1.357-3.032-3.032-3.032-1.674 0-3.032 1.358-3.032 3.032 0 1.675 1.285-.967 2.96-.967z"/>
                        <path fill="#D83C3C" d="M16.048 24.3c-3.275 0-5.93 2.208-5.93 4.931v1.174c0 1.068 1.04 1.933 2.325 1.933h7.21c1.285 0 2.326-.865 2.326-1.933V29.23c0-2.723-2.655-4.93-5.93-4.93z"/>
                        <path fill="#FF5636" d="M15.415 32.338h-2.713c-1.428 0-2.584-.865-2.584-1.933V29.23c0-2.723 2.95-4.93 6.589-4.93.465 0 .918.035 1.356.105-2.988.467-5.232 2.45-5.232 4.825v1.174c0 1.068 1.156 1.933 2.584 1.933z"/>
                        <path fill="#FFF" d="M21.414 9.88c1.094 0 1.982.886 1.982 1.981 0 1.095-.888 1.982-1.982 1.982H10.683c-1.095 0-1.982-.887-1.982-1.982s.887-1.982 1.982-1.982h10.73z"/>
                        <path fill="#BE273D" d="M18.287 10.112V1.934C18.287.866 17.822 0 17.249 0h-1.401c-.574 0-1.038.866-1.038 1.934v8.178c0 .96.778 1.739 1.738 1.739s1.739-.779 1.739-1.739z"/>
                        <g>
                            <path fill="#696969" d="M20.834 2.45H.725C.325 2.45 0 1.902 0 1.225S.325 0 .725 0h20.109c.4 0 .725.548.725 1.225s-.325 1.225-.725 1.225z" transform="translate(5.268882, 38.157100)"/>
                            <path fill="#DF6101" d="M20.834 7.447h-2.997c-.4 0-.725-.548-.725-1.225s.324-1.225.725-1.225h2.997c.4 0 .725.548.725 1.225s-.325 1.225-.725 1.225z" transform="translate(5.268882, 38.157100)"/>
                            <path fill="#696969" d="M14.453 7.447H.725C.325 7.447 0 6.9 0 6.222s.325-1.225.725-1.225h13.728c.4 0 .725.548.725 1.225s-.324 1.225-.725 1.225z" transform="translate(5.268882, 38.157100)"/>
                        </g>
                    </g>
                </g>
            </g>
        </g>
    </g>
</svg>
