<svg xmlns="http://www.w3.org/2000/svg" width="64" height="64" viewBox="0 0 64 64">
    <g fill="none" fill-rule="evenodd">
        <path d="M0 0H64V64H0z"/>
        <g transform="rotate(10 -20.72 113.725)">
            <path fill="#D8DFE0" fill-rule="nonzero" d="M34.688 13.521v32.547c0 1.068-.863 1.932-1.928 1.932H1.927C.862 48 0 47.136 0 46.068V1.932C0 .864.862 0 1.927 0h19.271l13.49 13.521z"/>
            <circle cx="10.326" cy="12.515" r="3.5" fill="#FFCE32"/>
            <path fill="#AEBABB" fill-rule="nonzero" d="M31.797 10.624v35.444c0 1.068-.863 1.932-1.927 1.932h2.89c1.065 0 1.928-.864 1.928-1.932V13.521l-2.891-2.897z"/>
            <path fill="#F2F4F5" fill-rule="nonzero" d="M34.688 13.521H23.124c-1.064 0-1.927-.865-1.927-1.932V0l13.49 13.521z"/>
            <g fill-rule="nonzero">
                <path fill="#284E52" d="M20.292 2.983H1.458c-.8 0-1.448-.649-1.448-1.449S.658.086 1.458.086h18.833c.8 0 1.45.648 1.45 1.448 0 .8-.65 1.449-1.45 1.449zM20.292 8.778H1.458c-.8 0-1.448-.649-1.448-1.449S.658 5.88 1.458 5.88h18.833c.8 0 1.45.649 1.45 1.45 0 .8-.65 1.448-1.45 1.448zM20.292 14.573H1.458c-.8 0-1.448-.649-1.448-1.45 0-.8.648-1.448 1.448-1.448h18.833c.8 0 1.45.649 1.45 1.449s-.65 1.449-1.45 1.449z" transform="translate(6.469 20.438)"/>
                <path fill="#5B787C" d="M12.179 20.367H1.459c-.8 0-1.45-.648-1.45-1.448 0-.8.65-1.45 1.45-1.45h10.72c.8 0 1.448.65 1.448 1.45 0 .8-.648 1.448-1.448 1.448z" transform="translate(6.469 20.438)"/>
            </g>
        </g>
    </g>
</svg>
