<svg width="14" height="12" viewBox="0 0 14 12" fill="none" xmlns="http://www.w3.org/2000/svg">
<path d="M13.1681 5.1368C13.1558 5.05102 13.0963 4.97984 13.0139 4.95247C12.9315 4.92509 12.8412 4.94699 12.7803 5.00836C12.0753 5.71971 11.1315 6.11143 10.1229 6.11143C8.04497 6.11143 6.35444 4.4209 6.35444 2.34275C6.35444 1.64235 6.55269 0.95268 6.92799 0.34856C6.97339 0.275555 6.97384 0.182701 6.92867 0.109239C6.8835 0.0357774 6.80137 -0.00574437 6.71513 0.000643611C3.78442 0.243615 1.42338 2.63979 1.22353 5.57484L1.26026 5.57735C0.489821 6.25037 0 7.23708 0 8.33786C0 10.3572 1.64582 12 3.66875 12C4.22086 12 4.74284 11.8736 5.21282 11.6539C5.85595 11.8814 6.52965 12 7.2191 12C10.5329 12 13.2288 9.30428 13.2288 5.99028C13.2286 5.70077 13.2087 5.42153 13.1681 5.1368ZM0.456284 8.33786C0.456284 6.56657 1.89723 5.12563 3.66875 5.12563C5.4364 5.12563 6.8746 6.56657 6.8746 8.33786C6.8746 10.1055 5.4364 11.5437 3.66875 11.5437C1.89723 11.5437 0.456284 10.1055 0.456284 8.33786ZM7.21887 11.5437C6.7181 11.5437 6.22577 11.4778 5.74941 11.3475C6.7035 10.6857 7.33043 9.5842 7.33043 8.33786C7.33043 6.31516 5.68758 4.66934 3.6683 4.66934C2.95216 4.66934 2.2853 4.87878 1.71996 5.23513C2.04917 2.83873 3.93728 0.900208 6.31931 0.509172C6.04234 1.08295 5.8977 1.70874 5.8977 2.34298C5.8977 4.67254 7.79287 6.56794 10.1224 6.56794C11.0975 6.56794 12.019 6.24124 12.7614 5.64009C12.7687 5.75575 12.7721 5.87233 12.7721 5.99051C12.7723 9.05241 10.281 11.5437 7.21887 11.5437Z" fill="#949494"/>
</svg>
