<svg xmlns="http://www.w3.org/2000/svg" width="64" height="64" viewBox="0 0 64 64">
    <g fill="none" fill-rule="evenodd">
        <g>
            <g>
                <path d="M0 0H64V64H0z" transform="translate(-487 -1136) translate(487 1136)"/>
                <g fill-rule="nonzero" transform="translate(-487 -1136) translate(487 1136) translate(4 9)">
                    <path fill="#00A49F" d="M25.245 21.44c-.08-.06-.096-.172-.038-.253.84-1.162 6.455-9.173 9.716-20.065.03-.097.131-.152.228-.123l14.55 4.31c-4.105 13.86-11.23 23.779-12.247 25.15-.029.039-.072.065-.12.071-.05.007-.099-.005-.138-.035l-5.968-4.534-5.983-4.52z"/>
                    <path fill="#E1E1E1" d="M18.966 42.436l1.478.426c12.053 3.477 25.045.79 34.73-7.182 1.06-.872 1.107-2.478.1-3.411l-.045-.042c-1.026-.952-2.545-1.105-3.73-.385l-4.858 2.956c-4.92 2.992-10.914 3.642-16.36 1.772-2.248-.771-2.672-3.766-.728-5.132l5.053-3.552c.953-.67 1.198-1.977.552-2.946-.49-.736-1.382-1.096-2.246-.907l-13.946 3.06-2.3 2.484V40.12l2.3 2.316z"/>
                    <path fill="#244FDB" d="M12.49 46.875l-11.254.392C.56 47.29 0 46.749 0 46.073v-22.31c0-.676.56-1.217 1.236-1.193l11.254.391c.643.023 1.153.55 1.153 1.194v21.526c0 .644-.51 1.171-1.153 1.194z"/>
                    <path fill="#939393" d="M13.643 45.157h4.06c.698 0 1.264-.566 1.264-1.264v-17.95c0-.698-.566-1.264-1.264-1.264h-4.06v20.478z"/>
                    <path fill="#ECF4FF" d="M9.384 43.391c-.467 0-.845-.378-.845-.845v-2.522c0-.466.379-.845.845-.845.467 0 .845.379.845.845v2.522c0 .467-.378.845-.845.845z"/>
                    <circle cx="43.961" cy="22.254" r="6.478" fill="#FFD75D"/>
                    <path fill="#FFCE32" d="M43.961 15.777c-.543 0-1.07.067-1.574.193 2.817.703 4.905 3.25 4.905 6.284 0 3.035-2.088 5.582-4.905 6.285.504.125 1.031.193 1.574.193 3.578 0 6.478-2.9 6.478-6.478 0-3.577-2.9-6.477-6.478-6.477z"/>
                    <circle cx="29.522" cy="7.523" r="6.478" fill="#FFD75D"/>
                    <path fill="#FFCE32" d="M29.522 1.045c-.543 0-1.07.068-1.573.194 2.817.703 4.904 3.25 4.904 6.284 0 3.035-2.087 5.581-4.904 6.284.504.126 1.03.194 1.573.194C33.1 14 36 11.1 36 7.523s-2.9-6.478-6.478-6.478z"/>
                </g>
            </g>
        </g>
    </g>
</svg>
