<svg width="18" height="18" viewBox="0 0 18 18" fill="none" xmlns="http://www.w3.org/2000/svg">
<path d="M7.875 2.8125C6.87373 2.8125 5.89495 3.10941 5.06243 3.66569C4.2299 4.22196 3.58103 5.01261 3.19786 5.93766C2.81469 6.86272 2.71444 7.88062 2.90978 8.86264C3.10511 9.84467 3.58727 10.7467 4.29527 11.4547C5.00328 12.1627 5.90533 12.6449 6.88736 12.8402C7.86939 13.0356 8.88729 12.9353 9.81234 12.5521C10.7374 12.169 11.528 11.5201 12.0843 10.6876C12.6406 9.85505 12.9375 8.87627 12.9375 7.875C12.936 6.53281 12.4021 5.24604 11.453 4.29697C10.504 3.3479 9.21719 2.81404 7.875 2.8125ZM7.875 12.375C6.98499 12.375 6.11496 12.1111 5.37494 11.6166C4.63491 11.1221 4.05814 10.4193 3.71754 9.59708C3.37695 8.77481 3.28784 7.87001 3.46147 6.99709C3.6351 6.12418 4.06369 5.32236 4.69302 4.69302C5.32236 4.06368 6.12418 3.6351 6.9971 3.46147C7.87001 3.28783 8.77481 3.37695 9.59708 3.71754C10.4193 4.05814 11.1221 4.63491 11.6166 5.37493C12.1111 6.11496 12.375 6.98498 12.375 7.875C12.3736 9.06806 11.8991 10.2119 11.0555 11.0555C10.2119 11.8991 9.06806 12.3736 7.875 12.375Z" fill="#7353DD"/>
<path d="M7.875 2.25C7.91194 2.25001 7.94851 2.24274 7.98264 2.22861C8.01677 2.21448 8.04778 2.19376 8.0739 2.16765C8.10001 2.14153 8.12073 2.11052 8.13486 2.07639C8.14899 2.04226 8.15626 2.00569 8.15625 1.96875V0.28125C8.15625 0.206658 8.12662 0.135121 8.07387 0.0823762C8.02113 0.0296316 7.94959 0 7.875 0C7.80041 0 7.72887 0.0296316 7.67613 0.0823762C7.62338 0.135121 7.59375 0.206658 7.59375 0.28125V1.96875C7.59374 2.00569 7.60101 2.04226 7.61514 2.07639C7.62927 2.11052 7.64999 2.14153 7.6761 2.16765C7.70222 2.19376 7.73323 2.21448 7.76736 2.22861C7.80149 2.24274 7.83806 2.25001 7.875 2.25Z" fill="#7353DD"/>
<path d="M4.67823 2.90083C4.69668 2.93284 4.72127 2.96091 4.75057 2.98342C4.77988 3.00592 4.81333 3.02244 4.84902 3.03202C4.88471 3.04159 4.92194 3.04404 4.95858 3.03923C4.99521 3.03441 5.03054 3.02243 5.06255 3.00395C5.09455 2.98548 5.1226 2.96088 5.14509 2.93156C5.16759 2.90225 5.18408 2.86879 5.19364 2.83309C5.2032 2.7974 5.20563 2.76017 5.2008 2.72353C5.19596 2.6869 5.18396 2.65157 5.16547 2.61958L4.32172 1.15812C4.2844 1.09355 4.22297 1.04644 4.15093 1.02715C4.07889 1.00786 4.00214 1.01797 3.93755 1.05525C3.87295 1.09254 3.82581 1.15394 3.80649 1.22597C3.78716 1.29801 3.79723 1.37476 3.83448 1.43937L4.67823 2.90083Z" fill="#7353DD"/>
<path d="M1.15812 4.32172L2.61958 5.16547C2.65157 5.18396 2.6869 5.19596 2.72353 5.2008C2.76017 5.20563 2.7974 5.2032 2.83309 5.19364C2.86879 5.18408 2.90225 5.16759 2.93156 5.14509C2.96088 5.1226 2.98548 5.09455 3.00395 5.06255C3.02243 5.03054 3.03441 4.99521 3.03923 4.95858C3.04404 4.92194 3.04159 4.88471 3.03202 4.84902C3.02244 4.81333 3.00592 4.77988 2.98342 4.75057C2.96091 4.72127 2.93284 4.69668 2.90083 4.67823L1.43937 3.83448C1.37476 3.79723 1.29801 3.78716 1.22597 3.80649C1.15394 3.82581 1.09254 3.87295 1.05525 3.93755C1.01797 4.00214 1.00786 4.07889 1.02715 4.15093C1.04644 4.22297 1.09355 4.2844 1.15812 4.32172Z" fill="#7353DD"/>
<path d="M2.25 7.875C2.25001 7.83806 2.24274 7.80149 2.22861 7.76736C2.21448 7.73323 2.19376 7.70222 2.16765 7.6761C2.14153 7.64999 2.11052 7.62927 2.07639 7.61514C2.04226 7.60101 2.00569 7.59374 1.96875 7.59375H0.28125C0.206658 7.59375 0.135121 7.62338 0.0823762 7.67613C0.0296316 7.72887 0 7.80041 0 7.875C0 7.94959 0.0296316 8.02113 0.0823762 8.07387C0.135121 8.12662 0.206658 8.15625 0.28125 8.15625H1.96875C2.00569 8.15626 2.04226 8.14899 2.07639 8.13486C2.11052 8.12073 2.14153 8.10001 2.16765 8.0739C2.19376 8.04778 2.21448 8.01677 2.22861 7.98264C2.24274 7.94851 2.25001 7.91194 2.25 7.875Z" fill="#7353DD"/>
<path d="M2.61958 10.5846L1.15812 11.4284C1.09355 11.4657 1.04644 11.5271 1.02715 11.5992C1.00786 11.6712 1.01797 11.748 1.05525 11.8125C1.09254 11.8771 1.15394 11.9243 1.22597 11.9436C1.29801 11.9629 1.37476 11.9529 1.43937 11.9156L2.90083 11.0719C2.93284 11.0534 2.96091 11.0288 2.98342 10.9995C3.00592 10.9702 3.02244 10.9368 3.03202 10.9011C3.04159 10.8654 3.04404 10.8282 3.03923 10.7915C3.03441 10.7549 3.02243 10.7195 3.00395 10.6875C2.98548 10.6555 2.96088 10.6275 2.93156 10.605C2.90225 10.5825 2.86879 10.566 2.83309 10.5564C2.7974 10.5469 2.76017 10.5445 2.72353 10.5493C2.6869 10.5541 2.65157 10.5661 2.61958 10.5846Z" fill="#7353DD"/>
<path d="M5.06247 12.7456C4.99785 12.7084 4.92108 12.6983 4.84903 12.7176C4.77698 12.7369 4.71554 12.784 4.67823 12.8486L3.83448 14.3101C3.79723 14.3747 3.78716 14.4515 3.80649 14.5235C3.82581 14.5955 3.87295 14.6569 3.93755 14.6942C4.00214 14.7315 4.07889 14.7416 4.15093 14.7223C4.22297 14.703 4.2844 14.6559 4.32172 14.5913L5.16547 13.1299C5.18395 13.0979 5.19594 13.0626 5.20076 13.026C5.20559 12.9893 5.20315 12.9521 5.19358 12.9164C5.18402 12.8807 5.16752 12.8473 5.14502 12.818C5.12252 12.7887 5.09447 12.7641 5.06247 12.7456Z" fill="#7353DD"/>
<path d="M7.875 13.5C7.83806 13.5 7.80149 13.5073 7.76736 13.5214C7.73323 13.5355 7.70222 13.5562 7.6761 13.5824C7.64999 13.6085 7.62927 13.6395 7.61514 13.6736C7.60101 13.7077 7.59374 13.7443 7.59375 13.7812V15.4688C7.59375 15.5433 7.62338 15.6149 7.67613 15.6676C7.72887 15.7204 7.80041 15.75 7.875 15.75C7.94959 15.75 8.02113 15.7204 8.07387 15.6676C8.12662 15.6149 8.15625 15.5433 8.15625 15.4688V13.7812C8.15626 13.7443 8.14899 13.7077 8.13486 13.6736C8.12073 13.6395 8.10001 13.6085 8.0739 13.5824C8.04778 13.5562 8.01677 13.5355 7.98264 13.5214C7.94851 13.5073 7.91194 13.5 7.875 13.5Z" fill="#7353DD"/>
<path d="M12.8486 11.0717L14.31 11.9155C14.342 11.934 14.3773 11.946 14.414 11.9508C14.4506 11.9556 14.4878 11.9532 14.5235 11.9436C14.5592 11.9341 14.5927 11.9176 14.622 11.8951C14.6513 11.8726 14.6759 11.8445 14.6944 11.8125C14.7129 11.7805 14.7248 11.7452 14.7297 11.7086C14.7345 11.6719 14.732 11.6347 14.7224 11.599C14.7129 11.5633 14.6964 11.5299 14.6738 11.5006C14.6513 11.4713 14.6233 11.4467 14.5913 11.4282L13.1298 10.5845C13.0652 10.5472 12.9884 10.5372 12.9164 10.5565C12.8444 10.5758 12.783 10.623 12.7457 10.6875C12.7084 10.7521 12.6983 10.8289 12.7176 10.9009C12.7369 10.973 12.784 11.0344 12.8486 11.0717Z" fill="#7353DD"/>
<path d="M13.5 7.875C13.5 7.91194 13.5073 7.94851 13.5214 7.98264C13.5355 8.01677 13.5562 8.04778 13.5824 8.0739C13.6085 8.10001 13.6395 8.12073 13.6736 8.13486C13.7077 8.14899 13.7443 8.15626 13.7812 8.15625H15.4688C15.5433 8.15625 15.6149 8.12662 15.6676 8.07387C15.7204 8.02113 15.75 7.94959 15.75 7.875C15.75 7.80041 15.7204 7.72887 15.6676 7.67613C15.6149 7.62338 15.5433 7.59375 15.4688 7.59375H13.7812C13.7443 7.59374 13.7077 7.60101 13.6736 7.61514C13.6395 7.62927 13.6085 7.64999 13.5824 7.6761C13.5562 7.70222 13.5355 7.73323 13.5214 7.76736C13.5073 7.80149 13.5 7.83806 13.5 7.875Z" fill="#7353DD"/>
<path d="M12.9896 5.2031C13.0389 5.20314 13.0873 5.19016 13.13 5.16547L14.5914 4.32172C14.656 4.2844 14.7031 4.22297 14.7224 4.15093C14.7417 4.07889 14.7316 4.00214 14.6943 3.93755C14.657 3.87295 14.5956 3.82581 14.5236 3.80649C14.4515 3.78716 14.3748 3.79723 14.3102 3.83448L12.8487 4.67823C12.7951 4.70918 12.7531 4.75699 12.7294 4.81423C12.7057 4.87147 12.7016 4.93494 12.7176 4.99477C12.7337 5.05461 12.7691 5.10746 12.8182 5.14513C12.8674 5.1828 12.9277 5.20318 12.9896 5.2031Z" fill="#7353DD"/>
<path d="M10.6876 3.00408C10.7522 3.04134 10.829 3.05142 10.901 3.03211C10.9731 3.0128 11.0345 2.96567 11.0718 2.90108L11.9156 1.43962C11.9341 1.40763 11.9461 1.37231 11.9509 1.33567C11.9557 1.29904 11.9533 1.26181 11.9437 1.22611C11.9342 1.19042 11.9177 1.15696 11.8952 1.12764C11.8727 1.09832 11.8446 1.07372 11.8126 1.05525C11.7806 1.03678 11.7453 1.02479 11.7087 1.01998C11.672 1.01516 11.6348 1.01761 11.5991 1.02719C11.5634 1.03676 11.53 1.05328 11.5007 1.07579C11.4714 1.0983 11.4468 1.12636 11.4283 1.15837L10.5846 2.61983C10.5661 2.65182 10.5541 2.68714 10.5493 2.72376C10.5445 2.76039 10.5469 2.79761 10.5565 2.83329C10.566 2.86898 10.5825 2.90242 10.605 2.93173C10.6275 2.96103 10.6556 2.98562 10.6876 3.00408Z" fill="#7353DD"/>
<path d="M16.3334 13.5768C16.1431 13.2149 15.8577 12.9117 15.508 12.7C15.1582 12.4882 14.7573 12.3759 14.3485 12.375C13.9396 12.3741 13.5383 12.4848 13.1876 12.6951C12.837 12.9054 12.5503 13.2073 12.3585 13.5684C12.1801 13.523 11.9966 13.5 11.8125 13.5C11.2158 13.5 10.6435 13.737 10.2215 14.159C9.79955 14.581 9.5625 15.1532 9.5625 15.75C9.5625 16.3467 9.79955 16.919 10.2215 17.341C10.6435 17.7629 11.2158 18 11.8125 18H15.75C16.2958 17.9999 16.8229 17.8015 17.2333 17.4417C17.6437 17.0819 17.9093 16.5852 17.9806 16.0441C18.052 15.503 17.9243 14.9544 17.6212 14.5005C17.3182 14.0466 16.8605 13.7183 16.3334 13.5768ZM15.75 17.4375H11.8125C11.5647 17.4382 11.3199 17.3843 11.0953 17.2797C10.8707 17.175 10.6719 17.0222 10.513 16.8321C10.3541 16.642 10.239 16.4192 10.1759 16.1796C10.1129 15.94 10.1033 15.6895 10.148 15.4457C10.1927 15.202 10.2905 14.9712 10.4344 14.7695C10.5784 14.5678 10.765 14.4004 10.981 14.279C11.197 14.1576 11.437 14.0852 11.6841 14.067C11.9312 14.0489 12.1793 14.0853 12.4107 14.1739C12.4801 14.2003 12.5571 14.1983 12.6249 14.1682C12.6927 14.138 12.7459 14.0823 12.7727 14.013C12.8931 13.703 13.1025 13.4354 13.3746 13.2441C13.6467 13.0528 13.9693 12.9463 14.3018 12.938C14.6343 12.9297 14.9618 13.02 15.2432 13.1974C15.5245 13.3749 15.747 13.6316 15.8827 13.9353C15.901 13.9762 15.9288 14.0121 15.9638 14.04C15.9989 14.068 16.0401 14.0871 16.084 14.0959C16.4942 14.1787 16.8591 14.411 17.1076 14.7477C17.3562 15.0843 17.4708 15.5014 17.4292 15.9178C17.3876 16.3342 17.1927 16.7204 16.8824 17.0012C16.5721 17.282 16.1685 17.4375 15.75 17.4375Z" fill="#7353DD"/>
</svg>
