<svg xmlns="http://www.w3.org/2000/svg" width="43" height="43" viewBox="0 0 43 43">
    <g fill="none" fill-rule="evenodd">
        <g>
            <g>
                <g>
                    <path d="M0 0H43V43H0z" transform="translate(-1013.000000, -239.000000) translate(404.000000, 239.000000) translate(609.000000, 0.000000)"/>
                    <g fill-rule="nonzero">
                        <g>
                            <path fill="#EFC984" d="M7.628 0H5.814C4.602 0 3.62 1.005 3.62 2.245V4.41l.532.327h3.688V.395L7.63 0z" transform="translate(-1013.000000, -239.000000) translate(404.000000, 239.000000) translate(609.000000, 0.000000) translate(7.000000, 7.000645) translate(14.350245, 5.330801)"/>
                            <path fill="#F2F4F5" d="M11.623 15.082c0-1.227-.791-2.307-1.942-2.653l-3.21-.964.001-.703H5.036l-3.138.942C.773 12.042 0 13.097 0 14.296v5.128h11.623v-4.342z" transform="translate(-1013.000000, -239.000000) translate(404.000000, 239.000000) translate(609.000000, 0.000000) translate(7.000000, 7.000645) translate(14.350245, 5.330801)"/>
                            <path fill="#D8DFE0" d="M13.085 11.704l-3.137-.942H6.234l-.003.924 3.138.942c1.125.338 1.898 1.394 1.898 2.593v4.203h3.716v-5.128c0-1.199-.773-2.254-1.898-2.592z" transform="translate(-1013.000000, -239.000000) translate(404.000000, 239.000000) translate(609.000000, 0.000000) translate(7.000000, 7.000645) translate(14.350245, 5.330801)"/>
                            <path fill="#D83C3C" d="M9.267 19.424L8.114 14.167 6.865 14.167 5.713 19.424z" transform="translate(-1013.000000, -239.000000) translate(404.000000, 239.000000) translate(609.000000, 0.000000) translate(7.000000, 7.000645) translate(14.350245, 5.330801)"/>
                            <g>
                                <path fill="#FFAA9A" d="M5.595 11.408V8.574H2.148v2.834c0 .974 1.723 1.06 1.723 1.06s1.724-.086 1.724-1.06z" transform="translate(-1013.000000, -239.000000) translate(404.000000, 239.000000) translate(609.000000, 0.000000) translate(7.000000, 7.000645) translate(14.350245, 5.330801) translate(3.619401, 0.000000)"/>
                                <path fill="#FFD5CD" d="M4.145 7.427c.053-.241.075-.489.075-.736V2.936c-.665.045-1.336-.04-1.976-.256h-.001c-.453-.154-.92.192-.92.68v.371c0 .375-.298.679-.664.679H0v1.11c0 .283.225.513.502.513.088 0 .159.07.164.16.09 1.459 1.11 2.66 2.462 2.987.5-.454.863-1.063 1.017-1.753z" transform="translate(-1013.000000, -239.000000) translate(404.000000, 239.000000) translate(609.000000, 0.000000) translate(7.000000, 7.000645) translate(14.350245, 5.330801) translate(3.619401, 0.000000)"/>
                                <path fill="#EABC6B" d="M6.79 1.305h-.033c-.178 0-.322-.148-.322-.33C6.435.437 6.008 0 5.481 0H4.01v4.737h3.203l.531-.327V2.28c0-.539-.427-.975-.954-.975z" transform="translate(-1013.000000, -239.000000) translate(404.000000, 239.000000) translate(609.000000, 0.000000) translate(7.000000, 7.000645) translate(14.350245, 5.330801) translate(3.619401, 0.000000)"/>
                                <path fill="#FFD5CD" d="M7.084 4.41c-.366 0-.664-.304-.664-.679V3.36c0-.488-.467-.834-.92-.68-.485.163-.987.251-1.49.265v3.632c0 .243-.022.486-.075.724-.16.716-.549 1.344-1.084 1.797.32.11.664.17 1.02.17 1.706 0 3.1-1.359 3.206-3.075.005-.09.076-.16.164-.16.277 0 .502-.23.502-.513V4.41h-.659z" transform="translate(-1013.000000, -239.000000) translate(404.000000, 239.000000) translate(609.000000, 0.000000) translate(7.000000, 7.000645) translate(14.350245, 5.330801) translate(3.619401, 0.000000)"/>
                            </g>
                            <g fill="#FAFBFB">
                                <path d="M.75.055L.26.28C-.022.41-.09.785.127 1.007L1.488 2.4c.172.171.444.182.629.024l1.066-.91L1.365.123C1.188-.012.952-.038.75.054zM4.926.133l-1.743 1.38 1.002.876c.183.16.456.153.63-.018l1.36-1.355c.223-.222.156-.603-.127-.732l-.5-.228c-.206-.093-.445-.064-.622.077z" transform="translate(-1013.000000, -239.000000) translate(404.000000, 239.000000) translate(609.000000, 0.000000) translate(7.000000, 7.000645) translate(14.350245, 5.330801) translate(4.344995, 10.519084)"/>
                            </g>
                        </g>
                        <path fill="#554A29" d="M25.974 29.376v-5.784h-19v6.379h18.629c.209-.114.354-.338.37-.595z" transform="translate(-1013.000000, -239.000000) translate(404.000000, 239.000000) translate(609.000000, 0.000000) translate(7.000000, 7.000645)"/>
                        <path fill="#554A29" d="M25.618 23.592v5.719c-.023.364-.313.66-.67.66l4.385.028v-6.407h-3.715z" transform="translate(-1013.000000, -239.000000) translate(404.000000, 239.000000) translate(609.000000, 0.000000) translate(7.000000, 7.000645)"/>
                        <g>
                            <path fill="#FFAA9A" d="M6.67 12.127V9.37H3.317v2.756c0 .946 1.677 1.03 1.677 1.03s1.676-.084 1.676-1.03z" transform="translate(-1013.000000, -239.000000) translate(404.000000, 239.000000) translate(609.000000, 0.000000) translate(7.000000, 7.000645) translate(2.291208, 9.769512)"/>
                            <path fill="#002F34" d="M5.073 10.315c.816-.29 1.363-1.077 1.363-1.96 0-.49-.07-.975-.207-1.443-.226-.77-.34-1.569-.34-2.372v-.002C5.887 2.69 4.843 1.095 3.328.328 1.688 1.005.532 2.646.531 4.563v.002c0 .78-.111 1.558-.33 2.306C.067 7.325 0 7.797 0 8.272c0 .86.532 1.624 1.325 1.906.749.266 1.518.448 2.295.546.49-.103.976-.24 1.453-.409z" transform="translate(-1013.000000, -239.000000) translate(404.000000, 239.000000) translate(609.000000, 0.000000) translate(7.000000, 7.000645) translate(2.291208, 9.769512)"/>
                            <path fill="#284E52" d="M9.787 6.87c-.219-.748-.33-1.525-.33-2.306v-.002C9.455 2.042 7.457 0 4.993 0c-.666 0-1.298.15-1.867.419 1.532.722 2.595 2.305 2.595 4.143v.002c0 .78.112 1.558.331 2.306.134.455.202.927.202 1.402 0 .86-.532 1.624-1.325 1.906-.59.21-1.193.367-1.803.472 1.846.32 3.75.162 5.537-.472.793-.282 1.325-1.047 1.325-1.906 0-.475-.068-.947-.202-1.402z" transform="translate(-1013.000000, -239.000000) translate(404.000000, 239.000000) translate(609.000000, 0.000000) translate(7.000000, 7.000645) translate(2.291208, 9.769512)"/>
                        </g>
                        <path fill="#D8DFE0" d="M12.737 6.34V1.327c0-1.221-1.04-1.327-1.756-1.328H3.326c-.717 0-1.299.595-1.299 1.328V6.34c0 .734.582 1.328 1.299 1.328h7.86l.317-.017c.388-.022.756-.207.985-.528.157-.22.25-.49.25-.783z" transform="translate(-1013.000000, -239.000000) translate(404.000000, 239.000000) translate(609.000000, 0.000000) translate(7.000000, 7.000645)"/>
                        <path fill="#D8DFE0" d="M14.746 0h-3.765c.717 0 1.299.595 1.299 1.328V6.34c0 .64-.441 1.173-1.03 1.3-.023.005-.045.015-.064.028H12.4c.05 0 .099.02.134.057l1.944 1.988c.144.148.391.043.391-.166v-1.72c0-.09.06-.169.147-.188.587-.126 1.029-.66 1.029-1.299V1.33C16.045.594 15.463 0 14.746 0z" transform="translate(-1013.000000, -239.000000) translate(404.000000, 239.000000) translate(609.000000, 0.000000) translate(7.000000, 7.000645)"/>
                        <path fill="#D9B238" d="M11.113 25.42c0-1.166-.642-1.729-1.846-1.993l-.68-.133c-.49-.095-.867-.472-.986-.947-.78.136-1.64-.24-1.989-1.131l-.003-.01-3.763.744C.752 22.28 0 23.305 0 24.471v4.275c0 .693.55 1.254 1.228 1.253l9.61-.02.268-.212.007-4.347z" transform="translate(-1013.000000, -239.000000) translate(404.000000, 239.000000) translate(609.000000, 0.000000) translate(7.000000, 7.000645)"/>
                        <path fill="#FFCE32" d="M14.018 29.976c.306-.003.553-.257.553-.57V24.47c0-1.166-.751-2.192-1.845-2.521l-3.765-.733c-.302.768-.982 1.153-1.664 1.156.068.548.472.999 1.014 1.104l.68.133c1.205.264 1.846.827 1.846 1.993v4.376l3.181-.003z" transform="translate(-1013.000000, -239.000000) translate(404.000000, 239.000000) translate(609.000000, 0.000000) translate(7.000000, 7.000645)"/>
                        <path fill="#BE273D" d="M22.88 18.24l-1.002-.877-1.066.91c-.069.06-.15.095-.233.107l.637 1.118h1.248l.63-1.153c-.077-.016-.15-.05-.214-.106z" transform="translate(-1013.000000, -239.000000) translate(404.000000, 239.000000) translate(609.000000, 0.000000) translate(7.000000, 7.000645)"/>
                    </g>
                </g>
            </g>
        </g>
    </g>
</svg>
