<svg xmlns="http://www.w3.org/2000/svg" width="24" height="24" viewBox="0 0 24 24">
    <g fill="none" fill-rule="evenodd">
        <g>
            <g>
                <g>
                    <path d="M0 0L24 0 24 24 0 24z" transform="translate(-1205 -529) translate(889 513) translate(316 16)"/>
                    <path fill="#7F9799" fill-rule="nonzero" stroke="#FAFBFB" stroke-width=".2" d="M9 14.1c1.529 0 3.936.443 5.7 1.324.675.338 1.256.74 1.653 1.209.3.355.494.748.538 1.18L16.9 18v1.9H1.1V18c0-.506.204-.962.547-1.367.397-.469.978-.871 1.654-1.209C5.064 14.543 7.47 14.1 9 14.1zm0 1.8c-1.25 0-2.587.274-3.685.64-1.489.497-2.514 1.174-2.416 1.56h12.205l.005-.058c-.02-.4-1.018-1.033-2.428-1.503C11.583 16.173 10.25 15.9 9 15.9zm9.1-8.8h1.8v3h3v1.8h-3v3h-1.8v-3h-3v-1.8h3v-3zM9 4.1c1.077 0 2.052.436 2.758 1.142S12.9 6.922 12.9 8c0 1.077-.436 2.052-1.142 2.758S10.078 11.9 9 11.9c-1.077 0-2.052-.436-2.758-1.142S5.1 9.078 5.1 8c0-1.077.436-2.052 1.142-2.758S7.922 4.1 9 4.1zm0 1.8c-.578 0-1.103.236-1.483.617-.38.38-.617.905-.617 1.483 0 .578.236 1.103.617 1.483.38.38.905.617 1.483.617.578 0 1.103-.236 1.483-.617.38-.38.617-.905.617-1.483 0-.577-.236-1.103-.617-1.483-.38-.38-.905-.617-1.483-.617z" transform="translate(-1205 -529) translate(889 513) translate(316 16)"/>
                </g>
            </g>
        </g>
    </g>
</svg>
