<svg xmlns="http://www.w3.org/2000/svg" width="327" height="244" viewBox="0 0 327 244">
    <g fill="none" fill-rule="evenodd">
        <g>
            <g fill-rule="nonzero">
                <path fill="#EBEBEB" d="M0 214.178H327V215.178H0zM268.644 220.406H290.30400000000003V221.406H268.644zM85.981 222.624H118.589V223.624H85.981zM248.677 226.483H267.99V227.483H248.677zM34.309 225.384H48.434999999999995V226.384H34.309zM54.256 225.384H79.35V226.384H54.256zM155.351 218.633H216.618V219.633H155.351zM154.998 185.002H28.718c-2.06-.004-3.729-1.675-3.729-3.736V3.703C25.007 1.655 26.67.003 28.717 0h126.281c2.062 0 3.734 1.672 3.734 3.735v177.531c0 2.063-1.672 3.736-3.734 3.736zM28.718.13c-1.97.003-3.565 1.602-3.565 3.572v177.563c0 1.97 1.595 3.569 3.564 3.572h126.281c1.97-.003 3.567-1.6 3.57-3.572V3.703c-.003-1.972-1.6-3.569-3.57-3.572H28.718zM296.465 185.002H170.177c-2.06-.004-3.73-1.674-3.734-3.736V3.703c.021-2.05 1.686-3.7 3.734-3.703h126.288c2.044.007 3.703 1.658 3.721 3.703v177.563c0 2.058-1.664 3.729-3.721 3.736zM170.177.13c-1.97.003-3.567 1.6-3.57 3.572v177.563c.003 1.972 1.6 3.569 3.57 3.572h126.288c1.97-.003 3.567-1.6 3.57-3.572V3.703c-.003-1.972-1.6-3.569-3.57-3.572H170.177z"/>
                <path fill="#E6E6E6" d="M122.86 17.983H194.349V119.82600000000001H122.86z" transform="rotate(180 158.605 68.905)"/>
                <path fill="#F5F5F5" d="M120.127 17.983H191.61599999999999V119.82600000000001H120.127z" transform="rotate(180 155.871 68.905)"/>
                <path fill="#FFF" d="M109.535 38.071L202.207 38.071 202.207 99.737 109.535 99.737z" transform="rotate(90 155.871 68.904)"/>
                <path fill="#E6E6E6" d="M79.742 67.864H172.414V69.93100000000001H79.742z" transform="rotate(90 126.078 68.898)"/>
                <path fill="#F5F5F5" d="M122.161 87.719H189.58800000000002V93.875H122.161z" transform="rotate(180 155.874 90.797)"/>
                <path fill="#F5F5F5" d="M122.161 30.648H189.58800000000002V36.804H122.161z" transform="rotate(180 155.874 33.726)"/>
                <path fill="#E6E6E6" d="M35.787 17.983H107.27600000000001V119.82600000000001H35.787z" transform="rotate(180 71.531 68.905)"/>
                <path fill="#F5F5F5" d="M33.053 17.983H104.542V119.82600000000001H33.053z" transform="rotate(180 68.798 68.905)"/>
                <path fill="#FFF" d="M22.462 38.065H115.134V99.731H22.462z" transform="rotate(90 68.798 68.898)"/>
                <path fill="#E6E6E6" d="M-7.338 67.871L85.334 67.871 85.334 69.938 -7.338 69.938z" transform="rotate(90 38.998 68.904)"/>
                <path fill="#F5F5F5" d="M35.081 87.719H102.50800000000001V93.875H35.081z" transform="rotate(180 68.794 90.797)"/>
                <path fill="#F5F5F5" d="M35.081 30.648H102.50800000000001V36.804H35.081z" transform="rotate(180 68.794 33.726)"/>
                <path fill="#E6E6E6" d="M278.08 152.306c3.676-2.185 6.39-5.888 5.92-14.392-.798-14.215-11.668-15.87-14.127-22.026.899-1.007 1.616-2.163 2.12-3.415 3.616-8.347-4.304-11.409-.27-15.949 2.44-2.747.655-6.417-2.223-8.25-2.877-1.83-4.512-2.295-3.087-5.187 1.524-3.1-2.007-9.479-7.383-8.955-6.017.588-6.07-3.54-10.078-1.93-4.01 1.609.62 5.671-5.344 7.98-1.14.37-2.083 1.184-2.616 2.258-3.819-1.682-8.423-1.963-12.426.569-9.868 6.214-13.524-.857-19.044 5.384-5.52 6.24 5.978 9.23-2.315 18.369-5.533 6.103-1.42 11.945 4.512 15.079-6.54.327-9.607 8.576-7.24 12.004 2.211 3.205.393 4.03-2.772 6.751-3.166 2.721-4.578 7.399-1.197 10.251 5.624 4.71-3.27 9.773 2.498 19.109 8.188 13.188 21.092-9.512 27.468 13.41.83 2.99-.562 10.696 1.655 11.259 4.126 5.338 14.682 3.428 19.842.765.576-.275-.32-4.455.196-4.828 2.021-1.344 3.81-3.008 5.298-4.926 5.598-2.891 9.646 6.719 16.67-1.629 5.886-6.96-.85-12.167 4.323-15.36 3.126-1.962 2.492-5.946.236-8.537-2.257-2.59-3.663-3.493-1.472-5.887.45-.553.745-1.214.857-1.917z"/>
                <path fill="#F0F0F0" d="M225.16 190.144s.47 24.034 18.847 24.034c18.378 0 18.842-24.034 18.842-24.034h-37.69z"/>
                <path fill="#E0E0E0" d="M88.257 173.698H93.66600000000001V183.668H88.257z"/>
                <path fill="#FAFAFA" d="M51.862 135.101H90.036V156.466H51.862z" transform="rotate(180 70.95 145.784)"/>
                <path fill="#F0F0F0" d="M90.043 135.108H95.694V156.473H90.043z"/>
                <path fill="#E6E6E6" d="M116.428 120.487L141.392 120.487 141.392 167.496 116.428 167.496z" transform="rotate(90 128.91 143.991)"/>
                <path fill="#E0E0E0" d="M102.174 134.747L127.138 134.747 127.138 153.236 102.174 153.236z" transform="rotate(90 114.656 143.991)"/>
                <path fill="#F0F0F0" d="M112.455 146.503H125.267V156.47299999999998H112.455z" transform="rotate(180 118.861 151.488)"/>
                <path fill="#E0E0E0" d="M125.267 146.497H130.676V156.467H125.267z"/>
                <path fill="#F0F0F0" d="M127.975 143.658H144.423V156.46699999999998H127.975z" transform="rotate(180 136.199 150.062)"/>
                <path fill="#E0E0E0" d="M144.423 143.664H151.368V156.47299999999998H144.423z"/>
            </g>
            <g fill="#F5F5F5" fill-rule="nonzero" transform="translate(37 228)">
                <ellipse cx="127" cy="8.16" rx="126.928" ry="7.547"/>
            </g>
            <g>
                <path fill="#FFB573" fill-rule="nonzero" d="M17.266 181.436L12.53 180.033 14.511 168.695 19.254 170.091zM58.423 188.455L53.477 188.455 52.244 177.018 57.19 177.018z" transform="translate(165 43)"/>
                <path fill="#263238" fill-rule="nonzero" d="M53.07 187.885H59.1c.202-.004.379.136.42.334l.977 4.392c.049.216-.005.443-.146.614-.141.172-.353.27-.575.264-1.968-.033-3.359-.144-5.8-.144-1.502 0-6.035.157-8.107.157-2.073 0-2.349-2.052-1.503-2.235 3.812-.832 6.685-1.966 7.905-3.08.22-.197.505-.304.8-.302zM12.72 179.496l5.182 1.534c.192.057.32.239.309.439l-.315 4.49c-.01.221-.124.426-.306.555-.182.128-.413.165-.626.1-1.856-.584-4.52-1.495-6.868-2.183-2.749-.813-5.163-1.363-8.384-2.314-1.968-.576-1.902-2.7-1.036-2.621 3.936.288 7.006 1.094 10.797.065.402-.136.833-.158 1.247-.065z" transform="translate(165 43)"/>
                <path fill="#FFB573" fill-rule="nonzero" d="M47.166 37.646c-2.538 1.803-5.084 3.454-7.714 5.067-2.63 1.612-5.294 3.126-8.069 4.548l-1.043.531-.289.144-.479.223c-.324.131-.657.24-.997.328-1.238.305-2.533.305-3.772 0-1.869-.5-3.61-1.393-5.103-2.622-2.55-2.075-4.737-4.558-6.475-7.347l2.867-2.353c2.106 1.863 4.391 3.514 6.822 4.929.952.57 2.006.948 3.103 1.114.25.039.504-.002.728-.118.025-.014.047-.031.066-.052l.033-.033.203-.125.938-.583c2.493-1.566 4.986-3.198 7.465-4.85l7.452-4.935 4.264 6.134z" transform="translate(165 43)"/>
                <path fill="#FFB130" fill-rule="nonzero" d="M26.036 39.626l2.987 11.249C50.69 46.732 54.478 30.756 44.405 30.81c-4.382.023-11.745 4.407-18.369 8.816z" transform="translate(165 43)"/>
                <path fill="#000" fill-rule="nonzero" d="M45.618 36.762c-3.054 2.968-5.296 6.669-6.514 10.748 4.841-1.677 8.318-3.801 10.601-5.957l-4.087-4.791z" opacity=".2" transform="translate(165 43)"/>
                <path fill="#FFB573" fill-rule="nonzero" d="M16.623 37.253l-1.751-4.968-4.186 3.933c.603 1.384 1.767 2.447 3.202 2.923l2.735-1.888zM12.038 30.955L8.777 34.566 10.686 36.211 14.872 32.285z" transform="translate(165 43)"/>
                <path fill="#000" fill-rule="nonzero" d="M14.511 168.695L13.487 174.541 18.23 175.944 19.254 170.097zM57.19 177.018L52.244 177.018 52.88 182.917 57.826 182.917z" opacity=".2" transform="translate(165 43)"/>
                <path fill="#FFB130" fill-rule="nonzero" d="M69.746 34.972c.73.264 1.323.81 1.645 1.515.322.706.346 1.51.067 2.234-1.61 4.266-2.97 8.62-4.074 13.043-.938 3.742-1.672 7.334-2.263 10.598-1.377 7.655-1.968 13.547-2.427 15.507L36.736 72.75c4.848-38.531 8.56-41.841 8.56-41.841 2.12-.132 4.245-.132 6.364 0 .437.026.89.065 1.358.118 3.717.51 7.401 1.233 11.034 2.17.656.17 1.384.36 2.06.563 1.331.413 2.59.839 3.634 1.212z" transform="translate(165 43)"/>
                <path fill="#FFB130" fill-rule="nonzero" d="M65.036 42.26c-.55 4.007.08 8.086 1.817 11.739.164-.74.348-1.481.531-2.229.709-2.811 1.535-5.708 2.506-8.618l-4.854-.891z" opacity=".2" transform="translate(165 43)"/>
                <path fill="#FFB573" fill-rule="nonzero" d="M65.423 20.6l-7.918 4.443c.15 2.89-.328 5.84-4.474 6.004-.912 1.048-1.824 3.52 1.168 5.715l-.656 2.038c5.904-.433 9.269-3.65 10.496-5.578-1.995-2.857-.013-9.215 1.384-12.623z" transform="translate(165 43)"/>
                <path fill="#8F5900" fill-rule="nonzero" d="M45.92 74.716c-.088-.013-.15-.095-.138-.183 2.84-21.97 8.2-37.686 8.253-37.843.033-.083.123-.128.21-.105.085.03.131.123.105.21-.06.157-5.406 15.847-8.246 37.777-.003.044-.025.085-.06.113-.035.027-.08.039-.124.031z" transform="translate(165 43)"/>
                <path fill="#955E02" fill-rule="nonzero" d="M50.348 38.669c1.21-.773 2.502-1.413 3.85-1.907-.708-.754-1.14-4.293-.596-5.932H52.29s-3.005 1.069-1.942 7.839zM58.784 40.773c-.444-1.098-1.181-2.053-2.132-2.76 2.132-.655 5.78-2.477 7.02-5.715.504.413 1.311.99 1.311.99s1.273 4.863-6.199 7.485z" transform="translate(165 43)"/>
                <path fill="#FFF" fill-rule="nonzero" d="M54.953 40.366c-.085.407-.354.734-.597.734s-.38-.334-.302-.74c.08-.406.348-.734.597-.734.25 0 .38.354.302.74z" transform="translate(165 43)"/>
                <path fill="#000" fill-rule="nonzero" d="M62.195 22.415l-4.683 2.621c.044.676.028 1.353-.046 2.026 1.554.078 3.936-1.167 4.434-2.72.213-.62.313-1.272.295-1.927z" opacity=".2" transform="translate(165 43)"/>
                <path fill="#001443" fill-rule="nonzero" d="M57.479 5.813c-3.385.82-4.999 7.747-.761 10.094 8.272-1.862 10.306-12.407.76-10.094z" transform="translate(165 43)"/>
                <path fill="#FFB573" fill-rule="nonzero" d="M68.067 15.028c-1.398 4.7-1.968 7.518-4.953 9.412-4.474 2.845-9.84-.701-9.9-5.722-.032-4.522 2.257-11.45 7.368-12.269 2.289-.376 4.61.459 6.134 2.206 1.525 1.748 2.036 4.159 1.35 6.373z" transform="translate(165 43)"/>
                <path fill="#001443" fill-rule="nonzero" d="M69.005 8.52c-4.809-1.16-6.252 8.94-2.02 11.286 9.767-2.208 7.084-10.086 2.02-11.286z" transform="translate(165 43)"/>
                <path fill="#001443" fill-rule="nonzero" d="M67.844 5.676C62.563 4.693 59.316.433 59.316.433S54.9 3.84 56.16 6.489c1.26 2.647 7.177 5.63 10.017 5.74 0 0-1.312 6.24 4.31 2.727 7.538-4.686 2.329-8.35-2.643-9.28z" transform="translate(165 43)"/>
                <path fill="#001443" fill-rule="nonzero" d="M72.298 12.164c1.333.728 2.363 1.906 2.906 3.323.413-3.69-2.145-3.421-2.906-3.323zM59.958 9.176c-2.394-.736-4.446-2.303-5.786-4.418.538 6.063 4.592 4.804 5.786 4.418z" transform="translate(165 43)"/>
                <path fill="#263238" fill-rule="nonzero" d="M57.61 19.538c1.137.284 2.34.003 3.234-.754.046-.05.046-.127 0-.177-.023-.024-.055-.037-.089-.037-.033 0-.065.013-.088.037-.833.693-1.946.949-2.998.688-.062 0-.115.041-.13.101-.014.06.016.121.07.148v-.006z" transform="translate(165 43)"/>
                <path fill="#FFB573" fill-rule="nonzero" d="M68.5 19.898c-.725.788-1.721 1.273-2.788 1.357-1.345.072-1.562-1.311-.807-2.484.656-1.075 2.204-2.399 3.371-1.907 1.168.491 1.155 2.031.224 3.034z" transform="translate(165 43)"/>
                <path fill="#001443" fill-rule="nonzero" d="M12.031 172.922l8.036 2.373s8.036-27.33 13.028-44.273c1.312-4.49 3.346-10.808 5.753-17.506 3.038-8.441 6.659-17.525 9.584-24.63 3.077-7.485 5.373-12.767 5.373-12.767L36.736 72.75s-14.327 39.128-17.496 53.874c-3.28 15.343-7.209 46.298-7.209 46.298z" transform="translate(165 43)"/>
                <path fill="#000" fill-rule="nonzero" d="M38.848 113.516c3.038-8.441 6.659-17.525 9.584-24.63l-1.312-4.07c-4.9 4.535-8.022 20.049-8.272 28.7z" opacity=".2" transform="translate(165 43)"/>
                <path fill="#001443" fill-rule="nonzero" d="M45.92 74.572s-3.43 42.333-3.444 56.81c0 15.848 8.095 50.395 8.095 50.395h9.06s-3.543-30.568-3.615-46.115c-.079-17.604 6.652-57.787 6.652-57.787L45.92 74.572z" transform="translate(165 43)"/>
                <path fill="#263238" fill-rule="nonzero" d="M49.515 181.967L60.181 181.967 60.181 178.788 48.255 178.578zM11.473 172.961L20.539 175.642 21.91 172.529 11.578 169.462zM60.516 14.688c-.085.386-.367.655-.623.596-.256-.059-.387-.42-.295-.806.091-.387.367-.655.623-.597.256.06.387.42.295.807zM56.127 13.672c-.091.393-.367.655-.623.596-.256-.059-.387-.42-.295-.806.092-.387.367-.655.617-.596.249.059.387.42.301.806z" transform="translate(165 43)"/>
                <path fill="#ED893E" fill-rule="nonzero" d="M57.479 14.19c-.738 1.079-1.621 2.051-2.624 2.89.538.8 1.85.695 1.85.695l.774-3.585z" transform="translate(165 43)"/>
                <path fill="#263238" fill-rule="nonzero" d="M62.208 13.587c-.087-.007-.164-.06-.203-.138-.23-.56-.72-.972-1.312-1.101-.126-.023-.21-.143-.19-.269.02-.128.14-.216.269-.197.735.167 1.346.677 1.64 1.37.051.12 0 .259-.118.315-.028.01-.056.017-.086.02zM54.592 11.725c-.049-.003-.096-.019-.137-.046-.1-.084-.114-.232-.033-.334.467-.606 1.203-.945 1.968-.904.092-.004.177.047.219.128.042.082.032.181-.025.253-.057.073-.15.105-.24.084-.596-.014-1.162.26-1.522.734-.055.069-.143.102-.23.085z" transform="translate(165 43)"/>
                <path fill="#407BFF" fill-rule="nonzero" d="M51.437 188.757c-.337.026-.673-.064-.951-.256-.18-.151-.271-.383-.243-.616 0-.139.075-.267.197-.334.55-.282 2.145.701 2.322.813.04.024.062.071.053.117-.007.047-.04.086-.086.099-.423.105-.856.165-1.292.177zm-.735-1.023c-.05-.011-.101-.011-.15 0-.052.026-.083.08-.08.138-.017.16.044.319.165.426.552.25 1.178.28 1.751.085-.514-.325-1.087-.548-1.686-.655v.006z" transform="translate(165 43)"/>
                <path fill="#407BFF" fill-rule="nonzero" d="M52.703 188.573h-.059c-.512-.275-1.502-1.363-1.397-1.914.04-.175.194-.3.374-.301.18-.027.363.029.498.15.577.466.696 1.895.702 1.967.002.032-.01.064-.032.088-.022.023-.053.037-.086.036v-.026zm-.997-2.005h-.053c-.157 0-.17.085-.17.118-.066.327.564 1.14 1.076 1.527-.037-.562-.24-1.1-.584-1.547-.077-.061-.171-.096-.27-.098zM12.064 180.014c-.807-.072-2.224-.289-2.624-.905-.115-.18-.135-.405-.053-.603.042-.124.147-.216.276-.242.656-.144 2.29 1.376 2.473 1.546.028.042.028.096 0 .138-.012.032-.039.057-.072.066zm-2.316-1.527h-.033c-.05.011-.09.049-.105.098-.068.127-.068.28 0 .406.217.341.984.616 2.08.754-.623-.59-1.555-1.298-1.942-1.258z" transform="translate(165 43)"/>
                <path fill="#407BFF" fill-rule="nonzero" d="M12.064 180.014c-.027.01-.058.01-.085 0-.492-.426-1.312-1.783-1.083-2.294.06-.125.197-.25.512-.19.232.039.437.175.564.373.46.656.21 1.966.197 2.045-.006.04-.034.073-.072.085l-.033-.02zm-.833-2.294c-.052 0-.1.027-.125.072-.144.308.387 1.31.866 1.861.11-.555.043-1.13-.19-1.645-.097-.142-.245-.241-.414-.275-.045-.01-.091-.014-.137-.013z" transform="translate(165 43)"/>
                <path fill="#FFB573" fill-rule="nonzero" d="M70.848 36.31c.38.38.656.655.945.976.288.321.57.655.846.957.55.655 1.089 1.31 1.607 1.966 1.036 1.336 1.997 2.727 2.88 4.168.896 1.465 1.696 2.987 2.394 4.556.723 1.609 1.299 3.28 1.719 4.994l.157.655.151.767c.066.505.132 1.01.151 1.5.044.952.011 1.906-.098 2.852-.21 1.755-.608 3.482-1.188 5.151-1.107 3.173-2.652 6.175-4.592 8.92l-3.28-1.789.709-2.11c.236-.715.433-1.442.656-2.157.398-1.413.724-2.846.977-4.292.247-1.356.372-2.732.374-4.11 0-.62-.053-1.237-.157-1.848-.042-.28-.099-.558-.17-.832l-.112-.38-.158-.466c-.952-2.63-2.233-5.129-3.811-7.439-.8-1.193-1.66-2.366-2.558-3.506-.438-.577-.897-1.14-1.378-1.691l-.656-.813-.656-.74 5.248-5.29z" transform="translate(165 43)"/>
                <path fill="#FFB130" fill-rule="nonzero" d="M63.507 43.46c1.542 4.345 8.239 15.672 10.77 18.103L83 55.041c-3.735-7.287-8.659-18.87-12.558-19.446-5.16-.763-8.276 4.09-6.935 7.865z" transform="translate(165 43)"/>
                <path fill="#FFB573" fill-rule="nonzero" d="M73.177 71.203l-3.707 3.382 5.813 2.464s2.519-3.578.767-5.125l-2.873-.72z" transform="translate(165 43)"/>
                <path fill="#FFB573" fill-rule="nonzero" d="M68.755 78.649L73.656 80.458 75.283 77.049 69.47 74.585z" transform="translate(165 43)"/>
                <path fill="#B77912" d="M73.773 61.563l9.71-7.224c-.124.45-.124.887 0 1.31.124.422.382.86.773 1.317l-9.579 7.087c.141-.61.141-1.11 0-1.5-.141-.388-.443-.719-.904-.99z" transform="translate(165 43)"/>
            </g>
            <g fill-rule="nonzero">
                <path fill="#407BFF" d="M83.038.55L44.692 9.996 42.18 4.644c-.217-.467-.732-.714-1.23-.59L17.2 9.903c-.497.124-.839.581-.817 1.095l.248 5.903L1.31 20.68c-.892.222-1.436 1.125-1.217 2.02l12.64 51.558c.104.43.375.803.753 1.033.378.23.832.3 1.262.193L96.463 55.35c.894-.22 1.442-1.124 1.224-2.02L85.053 1.77C84.831.877 83.93.332 83.038.55z" transform="translate(63 25)"/>
                <path fill="#FFF" d="M83.038.55L44.692 9.996 42.18 4.644c-.217-.467-.732-.714-1.23-.59L17.2 9.903c-.497.124-.839.581-.817 1.095l.248 5.903L1.31 20.68c-.892.222-1.436 1.125-1.217 2.02l12.64 51.558c.104.43.375.803.753 1.033.378.23.832.3 1.262.193L96.463 55.35c.894-.22 1.442-1.124 1.224-2.02L85.053 1.77C84.831.877 83.93.332 83.038.55z" opacity=".5" transform="translate(63 25)"/>
                <path fill="#FFF" d="M19.7 8.861L40.038 8.85 40.036 11.558 19.699 11.57z" transform="translate(63 25) rotate(-13.81 29.868 10.21)"/>
                <path fill="#407BFF" d="M84.183 17.709L42.965 27.86l-2.512-5.352c-.217-.466-.732-.713-1.23-.59l-23.75 5.85c-.496.122-.838.577-.818 1.09l.249 5.902-12.43 3.063c-.895.22-1.442 1.124-1.224 2.02l12.64 51.558c.22.896 1.12 1.445 2.015 1.227l81.723-20.136c.429-.105.798-.377 1.027-.756.228-.38.297-.834.19-1.264L86.21 18.915c-.228-.894-1.136-1.434-2.028-1.206z" transform="translate(63 25)"/>
                <path fill="#FFF" d="M84.183 17.709L42.965 27.86l-2.512-5.352c-.217-.466-.732-.713-1.23-.59l-23.75 5.85c-.496.122-.838.577-.818 1.09l.249 5.902-12.43 3.063c-.895.22-1.442 1.124-1.224 2.02l12.64 51.558c.22.896 1.12 1.445 2.015 1.227l81.723-20.136c.429-.105.798-.377 1.027-.756.228-.38.297-.834.19-1.264L86.21 18.915c-.228-.894-1.136-1.434-2.028-1.206z" opacity=".4" transform="translate(63 25)"/>
                <path fill="#FFF" d="M17.973 26.703L38.31 26.692 38.308 29.4 17.971 29.412z" transform="translate(63 25) rotate(-13.81 28.14 28.052)"/>
                <path fill="#407BFF" d="M85.335 34.814l-44.117 10.86-2.512-5.351c-.217-.466-.732-.714-1.23-.59l-23.737 5.85c-.499.122-.841.581-.817 1.095l.248 5.903-9.559 2.355c-.893.22-1.44 1.123-1.223 2.02l12.66 51.564c.22.896 1.12 1.445 2.015 1.227l81.73-20.135c.43-.104.8-.376 1.03-.755.23-.38.3-.835.193-1.266l-12.64-51.557c-.103-.437-.379-.814-.763-1.043-.385-.23-.846-.294-1.278-.177z" transform="translate(63 25)"/>
                <path fill="#FFF" d="M85.335 34.814l-44.117 10.86-2.512-5.351c-.217-.466-.732-.714-1.23-.59l-23.737 5.85c-.499.122-.841.581-.817 1.095l.248 5.903-9.559 2.355c-.893.22-1.44 1.123-1.223 2.02l12.66 51.564c.22.896 1.12 1.445 2.015 1.227l81.73-20.135c.43-.104.8-.376 1.03-.755.23-.38.3-.835.193-1.266l-12.64-51.557c-.103-.437-.379-.814-.763-1.043-.385-.23-.846-.294-1.278-.177z" opacity=".3" transform="translate(63 25)"/>
                <path fill="#FFF" d="M16.251 44.539L36.588 44.528 36.587 47.236 16.25 47.248z" transform="translate(63 25) rotate(-13.81 26.419 45.888)"/>
                <path fill="#407BFF" d="M118.152 53.29l-48.304 2.459-1.459-5.732c-.127-.499-.586-.839-1.099-.814L42.867 50.45c-.513.025-.937.409-1.014.918l-.87 5.85-6.87.354c-.442.02-.858.217-1.155.546-.297.328-.452.762-.428 1.205l2.695 53.021c.046.922.828 1.632 1.747 1.587l84.065-4.283c.92-.046 1.628-.83 1.584-1.75l-2.696-53.028c-.022-.447-.222-.866-.555-1.163-.334-.298-.773-.448-1.218-.418z" transform="translate(63 25)"/>
                <path fill="#FFF" d="M118.152 53.29l-48.304 2.459-1.459-5.732c-.127-.499-.586-.839-1.099-.814L42.867 50.45c-.513.025-.937.409-1.014.918l-.87 5.85-6.87.354c-.442.02-.858.217-1.155.546-.297.328-.452.762-.428 1.205l2.695 53.021c.046.922.828 1.632 1.747 1.587l84.065-4.283c.92-.046 1.628-.83 1.584-1.75l-2.696-53.028c-.022-.447-.222-.866-.555-1.163-.334-.298-.773-.448-1.218-.418z" opacity=".2" transform="translate(63 25)"/>
                <path fill="#FFF" d="M45.074 51.817L65.408 51.815 65.408 54.523 45.073 54.526z" transform="translate(63 25) rotate(-2.91 55.24 53.17)"/>
                <path fill="#407BFF" d="M87.631 69.07L37.783 81.328l-2.506-5.352c-.235-.459-.76-.689-1.256-.55l-23.75 5.85c-.498.121-.841.58-.817 1.095l.249 5.903-3.815.924c-.894.22-1.44 1.124-1.223 2.02l12.64 51.558c.222.897 1.126 1.446 2.022 1.227l81.716-20.135c.891-.223 1.435-1.126 1.217-2.02L89.633 70.296c-.223-.887-1.113-1.433-2.002-1.226z" transform="translate(63 25)"/>
                <path fill="#FFF" d="M87.631 69.07L37.783 81.328l-2.506-5.352c-.235-.459-.76-.689-1.256-.55l-23.75 5.85c-.498.121-.841.58-.817 1.095l.249 5.903-3.815.924c-.894.22-1.44 1.124-1.223 2.02l12.64 51.558c.222.897 1.126 1.446 2.022 1.227l81.716-20.135c.891-.223 1.435-1.126 1.217-2.02L89.633 70.296c-.223-.887-1.113-1.433-2.002-1.226z" opacity=".1" transform="translate(63 25)"/>
                <path fill="#FFF" d="M12.796 80.224L33.133 80.212 33.131 82.92 12.794 82.932z" transform="translate(63 25) rotate(-13.81 22.963 81.572)"/>
                <path fill="#407BFF" d="M13.463 95.478l82.393-.047c1.408-.001 2.55 1.14 2.552 2.548v.003l-.03 51.323c0 1.408-1.141 2.548-2.548 2.549l-82.393.047c-1.408.001-2.55-1.14-2.552-2.548v-.003l.03-51.323c0-1.408 1.141-2.548 2.548-2.549z" transform="translate(63 25) rotate(-13.81 54.646 123.666)"/>
                <path fill="#407BFF" d="M35.408 100.847l-26.072 6.42c-.31.068-.634-.004-.886-.197s-.407-.488-.422-.806l-.255-6.067c-.024-.514.318-.973.817-1.095l23.75-5.85c.5-.122 1.015.125 1.236.59l2.578 5.49c.136.298.131.641-.013.935-.145.294-.414.507-.733.58z" transform="translate(63 25)"/>
                <path fill="#FFF" d="M11.068 98.059L31.405 98.048 31.403 100.756 11.066 100.768z" transform="translate(63 25) rotate(-13.81 21.235 99.408)"/>
            </g>
            <path fill="#CDCDCD" fill-rule="nonzero" d="M97.67 49.879c10.7-1.199 18.404-10.844 17.207-21.546-1.196-10.7-10.84-18.406-21.542-17.21-10.7 1.195-18.407 10.838-17.213 21.54.573 5.14 3.166 9.843 7.208 13.072 4.04 3.229 9.2 4.72 14.34 4.144z" opacity=".2"/>
            <path fill="#B77912" d="M190.118 82.14l2.305 12.432c.408-.142.722-.228.942-.257.22-.03.547-.03.984 0l-2.116-13.082c-.461.46-.86.763-1.197.908-.336.144-.642.144-.918 0z"/>
        </g>
    </g>
</svg>
