<svg xmlns="http://www.w3.org/2000/svg" width="48" height="48" viewBox="0 0 48 48">
    <g fill="none" fill-rule="evenodd">
        <path d="M0 0H48V48H0z"/>
        <g>
            <path fill="#FFF" d="M2.555 14.373L.775 3.988C.747 3.835.85 3.69 1 3.665l12.263-2.103 2.809-.463c.154-.066.403.011.462.354l3.034 15.15.76 4.431c.026.15-.077.297-.227.323l-11.23 1.926-4.378.751c-.15.025-.296-.078-.323-.228l-1.616-9.433z" transform="translate(12 12)"/>
            <path fill="#FFF" d="M5.99 11.31v9.985c0 .16.131.292.291.292h16.521c.16 0 .29-.132.29-.292V3.51h-2.95c-.284 0-.874.04-.874-.604l-.006-2.88H6.282c-.16 0-.291.13-.291.29V11.31z" transform="translate(12 12)"/>
            <path fill="#D8DFE0" d="M5.99 2.81l-4.989.855c-.15.026-.253.17-.227.323L1.07 5.71l1.486 8.663 1.616 9.433c.027.15.173.253.323.228l4.378-.752 8.007-1.372 1.883-.323h-.986L5.99 2.809z" transform="translate(12 12)"/>
            <path fill="#F2F4F5" d="M23.092 16.604V3.466c0-.084-.036-.098-.165-.224L19.743.205c-.15-.143-.175-.179-.264-.179H6.282c-.16 0-.291.13-.291.29v20.979c0 .16.13.292.29.292h16.52c.16 0 .29-.132.29-.292v-4.691z" transform="translate(12 12)"/>
            <path fill="#AEBABB" d="M5.99 2.81l-1.168.2v19.358c0 .161.13.292.29.292h7.392l4.375-.75 1.883-.323H6.28c-.16 0-.29-.132-.29-.292V2.809z" transform="translate(12 12)"/>
            <path fill="#D8DFE0" d="M23.092 16.604V3.511c0-.157-.052-.158-.165-.269L19.743.205c-.15-.143-.175-.179-.264-.179h-3.448c3.948 5.286 4.173 14.814 1.243 20.761-.135.277-.276.542-.423.8H22.802c.16 0 .29-.132.29-.292v-4.691z" transform="translate(12 12)"/>
            <path fill="#FFF" d="M19.268 2.907c0 .644.59.604.874.604h2.95v-.045c0-.084-.036-.098-.165-.224L19.743.205c-.15-.143-.175-.179-.264-.179h-.217l.006 2.88z" transform="translate(12 12)"/>
            <path fill="#7F9799" d="M22.927 3.242L19.743.205c-.15-.143-.175-.179-.264-.179h-.217l.006 2.88c0 .645.59.605.874.605h2.95v-.045c0-.084-.036-.098-.165-.224z" transform="translate(12 12)"/>
            <path fill="#7F9799" fill-rule="nonzero" d="M20.468 6.376H8.779c-.226 0-.409-.183-.409-.409 0-.225.183-.409.41-.409h11.688c.226 0 .409.184.409.41 0 .225-.183.408-.41.408zM20.468 9.282H8.779c-.226 0-.409-.183-.409-.41 0-.225.183-.408.41-.408h11.688c.226 0 .409.183.409.409 0 .226-.183.409-.41.409zM20.468 12.187H8.779c-.226 0-.409-.183-.409-.41 0-.225.183-.408.41-.408h11.688c.226 0 .409.183.409.409 0 .226-.183.409-.41.409zM20.468 15.092H8.779c-.226 0-.409-.183-.409-.409 0-.226.183-.409.41-.409h11.688c.226 0 .409.183.409.41 0 .225-.183.408-.41.408zM20.468 17.997H8.779c-.226 0-.409-.183-.409-.409 0-.225.183-.409.41-.409h11.688c.226 0 .409.184.409.41 0 .225-.183.408-.41.408z" transform="translate(12 12)"/>
        </g>
    </g>
</svg>
