<svg xmlns="http://www.w3.org/2000/svg" width="64" height="64" viewBox="0 0 64 64">
    <g fill="none" fill-rule="evenodd">
        <g fill-rule="nonzero">
            <g>
                <g transform="translate(-1037 -176) translate(889 96) translate(148 80)">
                    <path fill="#AEBABB" d="M61.793 6.62C63.012 6.62 64 7.61 64 8.829v52.965c-.004 1.217-.99 2.203-2.207 2.207H2.207C.99 63.996.004 63.01 0 61.793V8.828C.004 7.61.99 6.624 2.207 6.62h59.586z"/>
                    <path fill="#D8DFE0" d="M58.483 50.759v5.517c0 1.219-.988 2.207-2.207 2.207H7.724c-1.219 0-2.207-.988-2.207-2.207v-5.517h52.966zM58.483 5.517v6.62H5.517v-6.62c.004-1.217.99-2.203 2.207-2.207h48.552c1.217.004 2.203.99 2.207 2.207z"/>
                    <path fill="#FAFBFB" d="M58.483 12.138v38.62c-.004 1.218-.99 2.204-2.207 2.208H7.724c-1.217-.004-2.203-.99-2.207-2.207V12.138h52.966z"/>
                    <g fill="#AEBABB" transform="translate(13.241)">
                        <rect width="4.414" height="7.724" rx="2.207"/>
                        <rect width="4.414" height="7.724" x="33.103" rx="2.207"/>
                    </g>
                    <circle cx="32" cy="32" r="15.448" fill="#D8DFE0"/>
                    <path fill="#FAFBFB" d="M39.073 35.937c.837.87.823 2.251-.031 3.105-.854.854-2.234.868-3.105.031L32 35.147l-3.937 3.926c-.87.837-2.251.823-3.105-.031-.854-.854-.868-2.234-.031-3.105L28.853 32l-3.926-3.937c-.837-.87-.823-2.251.031-3.105.854-.854 2.234-.868 3.105-.031L32 28.853l3.937-3.926c.87-.837 2.251-.823 3.105.031.854.854.868 2.234.031 3.105L35.147 32l3.926 3.937z"/>
                </g>
            </g>
        </g>
    </g>
</svg>
