<svg xmlns="http://www.w3.org/2000/svg" width="180" height="180" viewBox="0 0 180 180">
    <g fill="none" fill-rule="evenodd">
        <circle cx="90" cy="90" r="90" fill="#98B5F6" opacity=".11"/>
        <g fill-rule="nonzero">
            <path fill="#648BF5" d="M159.84 143.04l-19.92-19.92c-2.52-2.52-6.36-2.64-9.12-.72l-7.08-7.08c12.36-16.44 11.16-39.96-3.84-54.96-16.44-16.44-43.08-16.44-59.52 0-16.44 16.44-16.44 43.08 0 59.52 15 15 38.52 16.2 54.96 3.84l7.08 7.08c-1.92 2.88-1.68 6.6.72 9.12l19.92 19.92c2.88 2.88 7.44 2.88 10.32 0l6.48-6.48c2.88-2.76 2.88-7.44 0-10.32zm-91.2-31.56c-11.76-11.76-11.76-30.96 0-42.72C80.4 57 99.6 57 111.36 68.76c11.76 11.76 11.76 30.96 0 42.72-11.76 11.76-30.84 11.76-42.72 0z"/>
            <path fill="#D2D8DC" d="M103.12 77.44a4.925 4.925 0 0 0-6.96 0l-5.88 5.88-5.88-5.88a4.925 4.925 0 0 0-6.96 0 4.925 4.925 0 0 0 0 6.96l5.88 5.88-5.88 5.88a4.925 4.925 0 0 0 0 6.96c.96.96 2.16 1.44 3.48 1.44 1.32 0 2.52-.48 3.48-1.44l5.88-5.88 5.88 5.88a5.01 5.01 0 0 0 3.48 1.44c1.2 0 2.52-.48 3.48-1.44a4.925 4.925 0 0 0 0-6.96l-5.88-5.88 5.88-5.88a4.925 4.925 0 0 0 0-6.96z"/>
        </g>
    </g>
</svg>
