<svg xmlns="http://www.w3.org/2000/svg" width="150" height="150" viewBox="0 0 150 150">
    <g fill="none" fill-rule="evenodd">
        <circle cx="75" cy="75" r="75" fill="#98B5F6" opacity=".11"/>
        <g fill-rule="nonzero">
            <path fill="#D2D8DC" d="M46.122 97.486H29.883a3.441 3.441 0 0 0-3.437 3.438v9.464a3.44 3.44 0 0 0 3.437 3.436h6.92v3.076H32.32a1.199 1.199 0 1 0 0 2.4h11.214a1.199 1.199 0 1 0 0-2.4h-4.33v-3.076h6.92a3.44 3.44 0 0 0 3.436-3.436v-9.464a3.444 3.444 0 0 0-3.438-3.438zm1.035 12.248H28.845v-8.81c0-.572.466-1.038 1.037-1.038H46.12c.572 0 1.036.467 1.036 1.038v8.81h.001zM83.692 97.486H67.455a3.441 3.441 0 0 0-3.437 3.438v9.464a3.44 3.44 0 0 0 3.437 3.436h6.92v3.076H69.89a1.199 1.199 0 1 0 0 2.4h11.212a1.2 1.2 0 1 0 0-2.4h-4.329v-3.076h6.918a3.441 3.441 0 0 0 3.438-3.436v-9.464a3.442 3.442 0 0 0-3.438-3.438zm1.038 12.248H66.418v-8.81c0-.572.466-1.038 1.037-1.038h16.237a1.04 1.04 0 0 1 1.038 1.038v8.81zM121.266 97.486h-16.239a3.441 3.441 0 0 0-3.435 3.438v9.464a3.44 3.44 0 0 0 3.435 3.436h6.92v3.076h-4.481a1.199 1.199 0 1 0 0 2.4h11.212a1.199 1.199 0 1 0 0-2.4h-4.33v-3.076h6.919a3.441 3.441 0 0 0 3.438-3.436v-9.464a3.443 3.443 0 0 0-3.44-3.438zm1.038 12.248h-18.312v-8.81c0-.572.464-1.038 1.035-1.038h16.237a1.04 1.04 0 0 1 1.038 1.038v8.81h.002zM37.922 94.988c.664 0 1.2-.537 1.2-1.2v-2.4a1.199 1.199 0 1 0-2.4 0v2.4c0 .663.536 1.2 1.2 1.2zM37.922 89.068c.664 0 1.2-.536 1.2-1.2v-1.2h1.2a1.199 1.199 0 1 0 0-2.4h-2.4c-.664 0-1.2.536-1.2 1.2v2.4a1.2 1.2 0 0 0 1.2 1.2zM74.335 92.145v1.2a1.199 1.199 0 1 0 2.4 0v-1.2a1.199 1.199 0 1 0-2.4 0zM76.735 78.792v-1.2a1.199 1.199 0 1 0-2.4 0v1.2a1.199 1.199 0 1 0 2.4 0zM113.146 90.188c-.663 0-1.2.536-1.2 1.2v2.4a1.199 1.199 0 1 0 2.4 0v-2.4a1.2 1.2 0 0 0-1.2-1.2zM68.46 85.468c0-.664-.537-1.2-1.2-1.2h-3.49a1.199 1.199 0 1 0 0 2.4h3.49a1.2 1.2 0 0 0 1.2-1.2zM87.22 84.268h-3.49a1.199 1.199 0 1 0 0 2.4h3.49a1.199 1.199 0 1 0 0-2.4zM49.701 84.268h-4.69a1.199 1.199 0 1 0 0 2.4h4.69a1.199 1.199 0 1 0 0-2.4zM107.176 85.468c0-.664-.536-1.2-1.2-1.2h-4.69a1.199 1.199 0 1 0 0 2.4h4.69a1.2 1.2 0 0 0 1.2-1.2zM59.082 84.268h-4.69a1.199 1.199 0 1 0 0 2.4h4.69a1.199 1.199 0 1 0 0-2.4zM96.6 84.268h-4.69a1.199 1.199 0 1 0 0 2.4h4.69a1.199 1.199 0 1 0 0-2.4zM110.667 86.668h1.28v1.2a1.199 1.199 0 1 0 2.4 0v-2.4c0-.664-.537-1.2-1.2-1.2-.015 0-.026.007-.04.01-.015-.003-.025-.01-.04-.01h-2.4a1.199 1.199 0 1 0 0 2.4z"/>
            <path fill="#648BF5" d="M97.86 31.073H53.29a2.225 2.225 0 0 0-2.226 2.225v8.713c0 1.227.994 2.225 2.225 2.225h.841v1.327h-.84a2.225 2.225 0 0 0-2.226 2.225V56.5c0 1.228.994 2.225 2.225 2.225h.841v1.326h-.84a2.226 2.226 0 0 0-2.226 2.226v8.712c0 1.227.994 2.225 2.225 2.225h44.572a2.225 2.225 0 0 0 2.225-2.225v-8.712a2.226 2.226 0 0 0-2.225-2.226h-1.547v-1.326h1.547a2.225 2.225 0 0 0 2.225-2.225v-8.712a2.225 2.225 0 0 0-2.225-2.225h-1.547v-1.327h1.547a2.225 2.225 0 0 0 2.225-2.225v-8.713a2.226 2.226 0 0 0-2.225-2.225zm-42.008 7.231h8.9a1.482 1.482 0 0 1 0 2.963h-8.9a1.48 1.48 0 0 1 0-2.963zm0 14.49h8.9a1.482 1.482 0 0 1 0 2.964h-8.9a1.48 1.48 0 0 1 0-2.964zm8.9 17.454h-8.9a1.481 1.481 0 0 1 0-2.964h8.9a1.481 1.481 0 0 1 0 2.964zm27.962-10.195H57.73v-1.327h34.984v1.327zm0-14.489H57.73v-1.328h34.984v1.328z"/>
            <path fill="#FD8E7D" d="M70.65 90.414a1.197 1.197 0 0 0 1.698 0l3.25-3.25 3.248 3.25a1.197 1.197 0 0 0 1.696 0c.47-.469.47-1.227 0-1.696l-3.248-3.25 3.248-3.25a1.199 1.199 0 1 0-1.696-1.696l-3.249 3.25-3.25-3.25a1.199 1.199 0 1 0-1.696 1.696l3.25 3.25-3.25 3.25a1.2 1.2 0 0 0 0 1.696z"/>
        </g>
    </g>
</svg>
