<svg xmlns="http://www.w3.org/2000/svg" width="48" height="48" viewBox="0 0 48 48">
    <g fill="none" fill-rule="evenodd">
        <path d="M0 0H48V48H0z"/>
        <path fill="#C8F8F6" d="M44 23.92c0 11.003-8.919 19.922-19.92 19.922-11.003 0-19.922-8.919-19.922-19.921C4.158 12.919 13.077 4 24.08 4 35.081 4 44 12.919 44 23.92"/>
        <path fill="#E9FCFB" d="M44 23.92c0 11.003-8.919 19.922-19.92 19.922-11.003 0-19.922-8.919-19.922-19.921C4.158 12.919 13.077 4 24.08 4 35.081 4 44 12.919 44 23.92"/>
        <g fill-rule="nonzero">
            <path fill="#FFD75D" d="M19.916.062h9.436c.69 0 1.25.56 1.25 1.25v5.633c0 .69-.56 1.25-1.25 1.25h-.06c-.262 0-.473.211-.473.473v1.581c0 .248-.289.385-.48.227l-2.65-2.174c-.085-.07-.191-.107-.3-.107h-5.473c-.69 0-1.25-.56-1.25-1.25V1.312c0-.69.56-1.25 1.25-1.25z" transform="translate(4 8)"/>
            <path fill="#D9B238" d="M31.04 20.255H8.7c-.837 0-1.7.583-1.7-.255l.184-1.983h25.373L33 21c0 .838-1.122-.745-1.96-.745z" transform="translate(4 8)"/>
            <path fill="#AD9039" d="M15.762 20.255c.332.982 1.005 1.806 1.878 2.33.572.345.934.953.934 1.621L18.5 36h2.488l.074-11.727c0-.685.377-1.304.97-1.646.907-.523 1.607-1.364 1.947-2.372h-8.217z" transform="translate(4 8)"/>
            <path fill="#00A49F" d="M8.912 26.645H.947c-.522 0-.945-.424-.945-.946v-1.292h9.855v1.292c0 .522-.423.946-.945.946z" transform="translate(4 8)"/>
            <path fill="#2C7B78" d="M1.116 20.255v-6.839c0-1.105.439-2.164 1.22-2.945 1.123-1.125 3.03-.853 3.712.583l1.612 2.805-.324 6.396" transform="translate(4 8)"/>
            <path fill="#153E42" d="M12.764 35.331h-1.283c-.243 0-.448-.179-.48-.42L9.585 24.405H3.556c-1.347 0-2.44-1.092-2.44-2.44v-1.709h9.228c1.604 0 2.904 1.3 2.904 2.904v11.688c0 .268-.217.484-.484.484z" transform="translate(4 8)"/>
            <path fill="#2E6360" d="M4.388 15.015l2.796 3.002h6.871c0-1.249-.902-2.314-2.134-2.519l-3.669-.61-2.205-3.834c-.878-.37-1.84-.389-2.372.085-.773.688-.761 2.533.713 3.876z" transform="translate(4 8)"/>
            <g>
                <path fill="#FFEEEA" d="M5.716 2.859v1.468c0 1.58-1.279 2.858-2.857 2.858-.956 0-1.802-.469-2.321-1.189-.125-.171-.23-.358-.314-.557C.081 5.1 0 4.721 0 4.327V2.859C0 1.28 1.28 0 2.86 0c.788 0 1.503.32 2.02.837.297.296.528.658.671 1.061.108.3.166.624.166.96z" transform="translate(4 8) translate(1 3)"/>
                <path fill="#002F34" d="M5.55 1.898l-.063-.012-2.611 1.127c-.143.061-.252.184-.296.334l-.107.358S2.268 5.405.765 5.93c-.078.027-.154.05-.227.067-.125-.171-.23-.358-.314-.556C.081 5.098 0 4.722 0 4.327V2.859C0 1.28 1.28 0 2.859 0c.788 0 1.503.32 2.02.837.297.296.528.658.671 1.061z" transform="translate(4 8) translate(1 3)"/>
            </g>
            <g transform="translate(4 8) translate(33 1)">
                <circle cx="4.832" cy="1.559" r="1.559" fill="#002F34"/>
                <path fill="#FFEEEA" d="M5.512 4.191v1.416c0 .53-.15 1.026-.41 1.446-.484.786-1.353 1.31-2.345 1.31C1.234 8.363 0 7.13 0 5.607V4.19c0-.238.03-.468.087-.689.125-.485.378-.918.72-1.26.5-.499 1.189-.807 1.95-.807 1.522 0 2.755 1.233 2.755 2.756z"/>
                <path fill="#002F34" d="M5.512 4.191v1.416c0 .53-.15 1.026-.41 1.446-.25-.05-.518-.145-.78-.309-.978-.606-1.83-1.705-1.83-1.705l-.104-.346c-.042-.145-.147-.263-.285-.322L.087 3.502c.125-.485.378-.918.72-1.26.5-.499 1.19-.807 1.95-.807 1.522 0 2.755 1.233 2.755 2.756z"/>
            </g>
            <path fill="#00A49F" d="M31.09 26.645h7.964c.523 0 .946-.424.946-.946v-1.292h-9.855v1.292c0 .522.423.946.945.946z" transform="translate(4 8)"/>
            <path fill="#FFAA9A" d="M38.886 20.255v-6.839c0-1.105-.439-2.164-1.22-2.945-1.123-1.125-3.03-.853-3.712.583l-1.612 2.805.324 6.396" transform="translate(4 8)"/>
            <path fill="#153E42" d="M27.238 35.331h1.283c.243 0 .448-.179.48-.42l1.416-10.507h6.029c1.347 0 2.44-1.092 2.44-2.44v-1.709h-9.229c-1.603 0-2.903 1.3-2.903 2.904v11.688c0 .268.217.484.484.484z" transform="translate(4 8)"/>
            <path fill="#FF8169" d="M35.614 15.015l-2.796 3.002h-6.871c0-1.249.902-2.314 2.134-2.519l3.669-.61 2.355-4.097c.232-.061 1.271-.313 1.926.234.816.682.877 2.477-.417 3.99z" transform="translate(4 8)"/>
        </g>
    </g>
</svg>
