<svg xmlns="http://www.w3.org/2000/svg" width="24" height="24" viewBox="0 0 24 24">
    <g fill="none" fill-rule="evenodd">
        <path d="M0 0L24 0 24 24 0 24z"/>
        <path fill="#284E52" fill-rule="nonzero" d="M12 8.364C9.99 8.364 8.364 9.99 8.364 12c0 2.01 1.627 3.636 3.636 3.636 2.01 0 3.636-1.627 3.636-3.636 0-2.01-1.627-3.636-3.636-3.636zm8.127 2.727C19.71 7.3 16.7 4.29 12.91 3.873V2h-1.818v1.873C7.3 4.29 4.29 7.3 3.873 11.09H2v1.818h1.873c.418 3.791 3.427 6.8 7.218 7.218V22h1.818v-1.873c3.791-.418 6.8-3.427 7.218-7.218H22v-1.818h-1.873zM12 18.364c-3.518 0-6.364-2.846-6.364-6.364S8.482 5.636 12 5.636 18.364 8.482 18.364 12 15.518 18.364 12 18.364z"/>
    </g>
</svg>
