<svg xmlns="http://www.w3.org/2000/svg" width="16" height="16" viewBox="0 0 16 16">
    <g fill="none" fill-rule="evenodd">
        <path d="M0 0H16V16H0z" transform="rotate(180 8 8)"/>
        <path fill="#2C7B78" d="M8 1.333c3.676 0 6.667 2.991 6.667 6.667 0 3.676-2.991 6.667-6.667 6.667-3.676 0-6.667-2.991-6.667-6.667 0-3.676 2.991-6.667 6.667-6.667zm0 1.334C5.06 2.667 2.667 5.059 2.667 8c0 2.94 2.392 5.333 5.333 5.333 2.94 0 5.333-2.392 5.333-5.333 0-2.94-2.392-5.333-5.333-5.333zM8 10c.368 0 .667.299.667.667 0 .368-.299.666-.667.666-.368 0-.667-.298-.667-.666 0-.368.299-.667.667-.667zm0-5.333l.667.666v3.334L8 9.333l-.667-.666V5.333L8 4.667z" transform="rotate(180 8 8)"/>
    </g>
</svg>
