<svg xmlns="http://www.w3.org/2000/svg" width="24" height="24" viewBox="0 0 24 24">
    <g fill="none" fill-rule="evenodd">
        <path d="M0 0H24V24H0z"/>
        <g>
            <path fill="#284E52" d="M8.969.01c.155-.03.316.012.438.112.123.102.193.252.193.411v1.6h6.933c.265 0 .485.194.527.447l.007.086v10.667c0 .294-.24.533-.534.533H9.6v1.6c0 .127-.045.249-.126.345l-.067.066c-.096.08-.218.123-.34.123-.032 0-.066-.004-.098-.01l-8.534-1.6C.182 14.343 0 14.122 0 13.866V2.133c0-.257.182-.477.435-.524zM16 3.2H9.6v1.066h1.6c.265 0 .485.194.526.447l.007.087c0 .294-.239.533-.533.533H9.6v1.066h1.6c.265 0 .485.194.526.448l.007.086c0 .294-.239.533-.533.533H9.6v1.066l1.6.001c.265 0 .485.194.526.447l.007.086c0 .295-.239.534-.533.534H9.6v1.066h1.6c.265 0 .485.194.526.447l.007.087c0 .294-.239.533-.533.533H9.6v1.066H16V3.2zm-1.6 7.466c.294 0 .533.24.533.534 0 .294-.239.533-.533.533h-1.067c-.294 0-.533-.239-.533-.533 0-.295.239-.534.533-.534zm0-2.133c.294 0 .533.239.533.533 0 .295-.239.534-.533.534h-1.067c-.294 0-.533-.24-.533-.534 0-.294.239-.533.533-.533zm0-2.133c.294 0 .533.239.533.533 0 .294-.239.533-.533.533h-1.067c-.294 0-.533-.239-.533-.533 0-.294.239-.533.533-.533zm0-2.134c.294 0 .533.24.533.534 0 .294-.239.533-.533.533h-1.067c-.294 0-.533-.239-.533-.533 0-.295.239-.534.533-.534z" transform="translate(3 4)"/>
            <path fill="#284E52" d="M8.533 14.823L1.067 13.424 1.067 2.576 8.533 1.176z" transform="translate(3 4)"/>
            <path fill="#FFF" d="M6.512 5.006c.181-.232.516-.276.749-.093.232.18.274.515.093.749L5.648 7.854l1.687 1.928c.173.197.175.485.017.682l-.067.07c-.102.089-.227.132-.352.132-.148 0-.295-.062-.4-.182L4.98 8.71l-1.36 1.75c-.084.108-.202.175-.327.197l-.094.008c-.114 0-.23-.036-.327-.112-.233-.18-.275-.516-.094-.748l1.487-1.913-1.467-1.676c-.173-.196-.174-.484-.016-.682l.066-.07c.22-.194.557-.173.753.05l1.33 1.52z" transform="translate(3 4)"/>
        </g>
    </g>
</svg>
