<svg xmlns="http://www.w3.org/2000/svg" width="15" height="15" viewBox="0 0 15 15">
    <g fill="#4A90E2" fill-rule="nonzero">
        <path d="M14.517 1.73H9.23v1.722h1.748v1.172H9.231v1.145h1.73v1.154h-1.73v1.154h1.73V9.23h-1.73v1.154h1.73v1.153h-1.73v1.731h5.286a.494.494 0 0 0 .483-.502V2.233a.494.494 0 0 0-.483-.502zm-.67 9.808h-2.309v-1.153h2.308v1.153zm0-2.307h-2.309V8.077h2.308V9.23zm0-2.308h-2.309V5.77h2.308v1.154zm0-2.308h-2.309V3.462h2.308v1.153zM0 1.667v11.667L8.654 15V0L0 1.667zm5.474 8.764L4.467 8.528a1.688 1.688 0 0 1-.118-.392h-.016c-.019.09-.064.226-.135.408l-1.01 1.887H1.62l1.863-2.922-1.704-2.922H3.38l.835 1.752c.065.139.123.303.175.493h.017c.032-.114.094-.284.183-.51l.929-1.735h1.466L5.233 7.484l1.801 2.946h-1.56z"/>
    </g>
</svg>
