<svg xmlns="http://www.w3.org/2000/svg" width="72" height="20" viewBox="0 0 72 20">
    <g fill="none" fill-rule="evenodd" transform="translate(1 1)">
        <rect width="70" height="18" stroke="#FFCB0F" rx="9"/>
        <path fill="#000" fill-rule="nonzero" d="M21.48 13l.67-1.88h3.2l.67 1.88h1.5l-2.89-7.68h-1.71L20.03 13h1.45zm3.46-3.02h-2.38l1.18-3.3h.02l1.18 3.3zm7.45 3.13c1.39 0 2.38-.63 2.99-1.66l-1.05-.64c-.39.72-1.01 1.16-1.88 1.16-1.55 0-2.23-1.32-2.23-2.82 0-1.51.7-2.8 2.19-2.8.86 0 1.47.44 1.87 1.19l1.07-.68c-.61-1.04-1.63-1.65-2.98-1.65-2.3 0-3.6 1.71-3.6 3.96 0 2.26 1.31 3.94 3.62 3.94zm8.23-.11V6.48h2.54V5.32h-6.5v1.16h2.54V13h1.42zm5.83 0V5.32h-1.42V13h1.42zm6.13 0l2.75-7.68h-1.47l-2.04 6h-.02l-2.06-6h-1.51L50.99 13h1.59zm9.75 0v-1.15h-3.81V9.7h3.26V8.56h-3.26V6.47h3.74V5.32h-5.15V13h5.22z"/>
        <g>
            <path d="M0 0H14V14H0z" transform="translate(4 2)"/>
            <path fill="#FFDB57" stroke="#FFCB0F" stroke-linecap="round" stroke-linejoin="round" stroke-width="1.152" d="M2.625 8.05L7 8.05 6.514 12.25 11.375 5.95 7 5.95 7.486 1.75z" transform="translate(4 2)"/>
        </g>
    </g>
</svg>
