<svg xmlns="http://www.w3.org/2000/svg" width="48" height="48" viewBox="0 0 48 48">
    <g fill="none" fill-rule="evenodd">
        <path d="M0 0H48V48H0z"/>
        <path fill="#E9FCFB" d="M44 23.92c0 11.003-8.919 19.922-19.92 19.922-11.003 0-19.922-8.919-19.922-19.921C4.158 12.919 13.077 4 24.08 4 35.081 4 44 12.919 44 23.92"/>
        <g fill-rule="nonzero">
            <path fill="#00A49F" d="M24 4.138c0-.914-.741-1.655-1.655-1.655H1.655C.741 2.483 0 3.223 0 4.138v3.31h24v-3.31z" transform="translate(1 6)"/>
            <path fill="#2E6360" d="M22.345 2.483H20.69c.914 0 1.655.74 1.655 1.655v3.31H24v-3.31c0-.914-.741-1.655-1.655-1.655z" transform="translate(1 6)"/>
            <g fill="#002F34">
                <path d="M15.31 4.966c.686 0 1.242-.556 1.242-1.242V1.241C16.552.556 15.996 0 15.31 0c-.685 0-1.241.556-1.241 1.241v2.483c0 .686.556 1.242 1.241 1.242zM1.241 4.966c.686 0 1.242-.556 1.242-1.242V1.241C2.483.556 1.927 0 1.24 0 .556 0 0 .556 0 1.241v2.483c0 .686.556 1.242 1.241 1.242z" transform="translate(1 6) translate(3.724)"/>
            </g>
            <path fill="#F2F4F5" d="M0 7.448v14.897C0 23.259.741 24 1.655 24h20.69c.914 0 1.655-.741 1.655-1.655V7.448H0z" transform="translate(1 6)"/>
            <path fill="#D8DFE0" d="M22.345 7.448V20.69c0 .914-.741 1.655-1.655 1.655H0C0 23.259.741 24 1.655 24h20.69c.914 0 1.655-.741 1.655-1.655V7.448h-1.655z" transform="translate(1 6)"/>
        </g>
        <g fill-rule="nonzero">
            <path fill="#EAEAEA" d="M7.278 23.949L11.975 19.612 16.671 18.841 31.267 0.02 19.273 3.849 7.278 6.983 5.112 11.867 7.82 15.604z" transform="translate(14 18)"/>
            <path fill="#FFD75D" d="M31.267.02L5.112 11.867.826 9.281c-1.33-.802-.983-2.82.539-3.132L31.267.02z" transform="translate(14 18)"/>
            <path fill="#AD9039" d="M16.671 18.841L7.278 23.949 10.762 15.275z" transform="translate(14 18)"/>
            <path fill="#FFD75D" d="M31.267.02l-7.733 20.604c-.375 1-1.565 1.413-2.479.862l-4.384-2.645-5.91-3.566L31.268.02z" transform="translate(14 18)"/>
            <path fill="#D9B238" d="M31.267 0.02L10.762 15.275 7.278 23.949 5.112 11.867z" transform="translate(14 18)"/>
        </g>
    </g>
</svg>
