<svg xmlns="http://www.w3.org/2000/svg" width="32" height="32" viewBox="0 0 32 32">
    <g fill="none" fill-rule="evenodd">
        <path d="M0 0H32V32H0z"/>
        <g>
            <path fill="#AEBABB" fill-rule="nonzero" d="M21.595 24.09H1.576c-.86 0-1.556-.696-1.556-1.556v-2.166l23.132-4.203v6.369c0 .86-.697 1.557-1.557 1.557z" transform="translate(4 4)"/>
            <path fill="#F2F4F5" fill-rule="nonzero" d="M17.36 22.534H1.579c-.861 0-1.56-.698-1.56-1.56V1.638C.02.775.719.077 1.58.077h20.014c.861 0 1.56.698 1.56 1.56v15.105c0 .413-.944.81-1.236 1.102L18.463 21.3c-.293.292-.69 1.235-1.103 1.235z" transform="translate(4 4)"/>
            <path fill="#D8DFE0" fill-rule="nonzero" d="M17.353 22.534c.413 0 .81-.164 1.102-.457l4.24-4.24c.293-.292.457-.689.457-1.103v-.631c0 .705-.572 1.277-1.277 1.277h-2.599c-.705 0-1.277.572-1.277 1.278v2.598c0 .706-.572 1.278-1.278 1.278h.632z" transform="translate(4 4)"/>
            <path fill="#2C7B78" fill-rule="nonzero" d="M23.152 1.634v4.005H.02V1.634C.02.774.717.077 1.577.077h20.018c.86 0 1.557.697 1.557 1.557z" transform="translate(4 4)"/>
            <g>
                <path fill="#16C7BF" fill-rule="nonzero" d="M2.244 9.678c.204 0 .37.166.37.37v1.854c0 .205-.166.37-.37.37H.39c-.205 0-.37-.165-.37-.37V10.05c0-.205.165-.371.37-.371h1.854zm5.289 0c.204 0 .37.166.37.37v1.854c0 .205-.166.37-.37.37H5.679c-.204 0-.37-.165-.37-.37V10.05c0-.205.166-.371.37-.371h1.854zm5.289 0c.205 0 .37.166.37.37v1.854c0 .205-.165.37-.37.37h-1.854c-.204 0-.37-.165-.37-.37V10.05c0-.205.166-.371.37-.371h1.854zm5.289-4.7c.205 0 .37.167.37.372v1.853c0 .205-.165.37-.37.37h-1.854c-.204 0-.37-.165-.37-.37V5.35c0-.205.166-.371.37-.371h1.854zM2.244 4.864c.204 0 .37.166.37.371v1.853c0 .205-.166.371-.37.371H.39c-.205 0-.37-.166-.37-.37V5.233c0-.205.165-.37.37-.37h1.854zm5.289 0c.204 0 .37.166.37.371v1.853c0 .205-.166.371-.37.371H5.679c-.204 0-.37-.166-.37-.37V5.233c0-.205.166-.37.37-.37h1.854zm5.289 0c.205 0 .37.166.37.371v1.853c0 .205-.165.371-.37.371h-1.854c-.204 0-.37-.166-.37-.37V5.233c0-.205.166-.37.37-.37h1.854zM2.244.05c.204 0 .37.166.37.37v1.854c0 .205-.166.37-.37.37H.39c-.205 0-.37-.165-.37-.37V.419C.02.215.185.05.39.05h1.854zm5.289 0c.204 0 .37.166.37.37v1.854c0 .205-.166.37-.37.37H5.679c-.204 0-.37-.165-.37-.37V.419c0-.204.166-.37.37-.37h1.854zm5.289 0c.205 0 .37.166.37.37v1.854c0 .205-.165.37-.37.37h-1.854c-.204 0-.37-.165-.37-.37V.419c0-.204.166-.37.37-.37h1.854zm5.289 0c.205 0 .37.166.37.37v1.854c0 .205-.165.37-.37.37h-1.854c-.204 0-.37-.165-.37-.37V.419c0-.204.166-.37.37-.37h1.854z" transform="translate(4 4) translate(2.335 7.925)"/>
            </g>
        </g>
    </g>
</svg>
