<svg xmlns="http://www.w3.org/2000/svg" width="24" height="24" viewBox="0 0 24 24">
    <g fill="none" fill-rule="evenodd">
        <path d="M0 0H24V24H0z"/>
        <path fill="#284E52" stroke="#284E52" stroke-width=".96" d="M19.158 4L18.779 4.379 18.776 4.376 12 11.152 5.224 4.376 5.221 4.378 4.843 4 4 4 4 4.843 4.379 5.221 4.376 5.224 11.152 12 4.376 18.776 4.379 18.779 4 19.157 4 20 4.843 20 5.221 19.622 5.224 19.624 12 12.848 18.776 19.624 18.779 19.621 19.158 20 20 20 20 19.157 19.621 18.778 19.624 18.776 12.848 12 19.624 5.224 19.621 5.222 20 4.843 20 4z"/>
    </g>
</svg>
