<svg xmlns="http://www.w3.org/2000/svg" width="32" height="32" viewBox="0 0 32 32">
    <g fill="none" fill-rule="evenodd">
        <path d="M0 0H32V32H0z"/>
        <g fill-rule="nonzero">
            <path fill="#D8DFE0" d="M15.466 6.368L15.466 12.321 12.798 20.571 0 20.571 0 1 10.287 1z" transform="translate(6 6)"/>
            <path fill="#FFF" d="M16.466 5.368L16.466 11.321 13.798 19.571 1 19.571 1 0 11.287 0z" transform="translate(6 6)"/>
            <path fill="#FFF" d="M16.466 5.368L16.466 11.321 13.798 19.571 8.733 19.571 8.733 0 11.287 0z" transform="translate(6 6)"/>
            <path fill="#D8DFE0" d="M16.466 5.368L11.287 5.368 11.287 0z" transform="translate(6 6)"/>
            <path fill="#5B787C" d="M3.849 7.755L13.61 7.755 13.61 8.939 3.849 8.939z" transform="translate(6 6)"/>
            <g fill="#5B787C">
                <path d="M.007.018L4.891.018 4.891 1.203.007 1.203zM.007 7.124L4.891 7.124 4.891 8.308.007 8.308zM.007 4.755L6.861 4.755 6.861 5.939.007 5.939z" transform="translate(6 6) translate(3.842 5.368)"/>
            </g>
        </g>
        <g fill-rule="nonzero">
            <path fill="#FFCE32" d="M6 0C2.692 0 0 2.692 0 6s2.692 6 6 6 6-2.692 6-6-2.692-6-6-6z" transform="translate(16 16)"/>
            <path fill="#816E34" d="M5.25 8.25L3.75 8.25 3.75 3.75 5.25 3.75zM8.25 8.25L6.75 8.25 6.75 3.75 8.25 3.75z" transform="translate(16 16)"/>
        </g>
    </g>
</svg>
