<svg xmlns="http://www.w3.org/2000/svg" width="24" height="24" viewBox="0 0 24 24">
    <g fill="none" fill-rule="evenodd">
        <path d="M0 0H24V24H0z"/>
        <path fill="#C8F8F6" fill-rule="nonzero" d="M12 0C5.376 0 0 5.376 0 12s5.376 12 12 12 12-5.376 12-12S18.624 0 12 0z"/>
        <path fill="#2C7B78" fill-rule="nonzero" d="M12.904 14.044l.035-.536c.065-.574.32-1.075.765-1.503l.712-.677c.557-.539.946-1.03 1.169-1.472.223-.442.334-.913.334-1.41 0-1.096-.343-1.945-1.028-2.545C14.205 5.3 13.24 5 11.999 5c-1.23 0-2.202.316-2.914.95C8.374 6.581 8.012 7.457 8 8.576h2.549c.012-.469.148-.836.409-1.103.26-.266.607-.4 1.041-.4.914 0 1.371.495 1.371 1.486 0 .328-.088.64-.264.936-.175.296-.528.68-1.059 1.151-.53.472-.895.95-1.094 1.437-.2.486-.299 1.14-.299 1.96h2.25zm-1.08 4.034c.427 0 .771-.126 1.032-.378.26-.252.391-.571.391-.958 0-.392-.133-.716-.4-.971-.266-.255-.608-.382-1.024-.382-.416 0-.757.127-1.024.382-.266.255-.4.579-.4.971 0 .387.13.706.392.958.26.252.605.378 1.032.378z"/>
    </g>
</svg>
