<svg xmlns="http://www.w3.org/2000/svg" xmlns:xlink="http://www.w3.org/1999/xlink" width="40" height="40" viewBox="0 0 40 40">
    <defs>
        <path id="br6bb2sxva" d="M0 0L40 0 40 40 0 40z"/>
    </defs>
    <g fill="none" fill-rule="evenodd">
        <mask id="tbvlboa7ub" fill="#fff">
            <use xlink:href="#br6bb2sxva"/>
        </mask>
        <g mask="url(#tbvlboa7ub)">
            <g fill-rule="nonzero">
                <g>
                    <path fill="#FFD75D" d="M12.657 0H2.531C1.14 0 .013 1.14.013 2.531L0 22.783c0 1.392 1.126 2.531 2.519 2.531h15.2c1.393 0 2.532-1.139 2.532-2.531V7.594l-.198-3.79c-.11-2.118-1.857-3.782-3.978-3.79L12.657 0z" transform="translate(-3 -7) rotate(-20 20.765 2.69)"/>
                    <path fill="#D9B238" d="M18.057 9.3L1.856 9.3 1.856 8.287 18.057 8.287zM11.982 12.337L1.856 12.337 1.856 11.325 11.982 11.325zM18.057 6.262L1.856 6.262 1.856 5.249 18.057 5.249z" transform="translate(-3 -7) rotate(-20 20.765 2.69)"/>
                </g>
                <g transform="translate(-3 -7) rotate(-19 58.83 -38.782)">
                    <path fill="#2B4D66" d="M10.131 8.823L8.823 10.13c-.127.127-.333.127-.46 0l-.83-.83L9.3 7.532l.831.83c.127.127.127.333 0 .46z"/>
                    <path fill="#4A80AA" d="M9.255 9.257L10.755 9.257 10.755 10.757 9.255 10.757z" transform="rotate(-45 10.005 10.007)"/>
                    <path fill="#407093" d="M15.905 14.597l-1.308 1.308c-.127.127-.333.127-.46 0L9.883 11.65c-.127-.127-.127-.333 0-.46l1.309-1.308c.126-.127.332-.127.459 0l4.254 4.254c.127.127.127.333 0 .46z"/>
                    <path fill="#365E7D" d="M15.905 14.597l-.36.36-4.713-4.714.36-.36c.126-.127.332-.127.459 0l4.254 4.254c.127.127.127.333 0 .46z"/>
                    <circle cx="4.999" cy="4.999" r="4.999" fill="#407093"/>
                    <path fill="#365E7D" d="M8.023 1.018c.638.84 1.017 1.887 1.017 3.023 0 2.761-2.238 5-4.999 5-1.136 0-2.184-.38-3.023-1.018.913 1.2 2.356 1.976 3.981 1.976 2.761 0 5-2.239 5-5 0-1.625-.776-3.068-1.976-3.981z"/>
                    <circle cx="4.999" cy="4.999" r="3.666" fill="#E4F6FF"/>
                    <path fill="#D3EFFB" d="M7.213 2.077c.467.615.744 1.382.744 2.214 0 2.025-1.641 3.666-3.666 3.666-.832 0-1.599-.277-2.214-.744.67.882 1.73 1.452 2.922 1.452 2.025 0 3.666-1.641 3.666-3.666 0-1.193-.57-2.252-1.452-2.922z"/>
                </g>
                <g>
                    <path fill="#FFE48D" d="M12.657 0H2.531C1.14 0 .013 1.14.013 2.531L0 22.783c0 1.392 1.126 2.531 2.519 2.531h15.2c1.393 0 2.532-1.139 2.532-2.531V7.594L12.657 0z" transform="translate(-3 -7) rotate(10 -176.919 121.813)"/>
                    <path fill="#FFCE32" d="M18.226 14.682L2.025 14.682 2.025 13.67 18.226 13.67zM18.226 11.645L2.025 11.645 2.025 10.632 18.226 10.632z" transform="translate(-3 -7) rotate(10 -176.919 121.813)"/>
                    <path fill="#FFF6D9" d="M12.657 7.594L12.657 0 20.251 7.594z" transform="translate(-3 -7) rotate(10 -176.919 121.813)"/>
                </g>
            </g>
        </g>
    </g>
</svg>
