<svg xmlns="http://www.w3.org/2000/svg" width="24" height="24" viewBox="0 0 24 24">
    <g fill="none" fill-rule="evenodd">
        <path d="M0 0L24 0 24 24 0 24z" transform="matrix(-1 0 0 1 24 0)"/>
        <path fill="#284E52" d="M12 5c3.866 0 7 3.134 7 7s-3.134 7-7 7c-1.38 0-2.66-.401-3.745-1.089L5 19l1.082-3.255C5.4 14.658 5 13.38 5 12c0-3.866 3.133-7 7-7zm0 1.4c-3.091 0-5.6 2.507-5.6 5.6 0 1.206.378 2.32 1.023 3.227L6.75 17.25l2.023-.673c.91.645 2.02 1.023 3.226 1.023 3.095 0 5.6-2.506 5.602-5.6 0-3.093-2.507-5.6-5.602-5.6zM9.8 8.494l.054.006h.33c.107 0 .252-.042.386.316l.48 1.307c.044.091.072.197.01.308l-.189.286-.273.297c-.085.081-.183.175-.085.348.085.183.435.763.925 1.247.638.617 1.198.817 1.365.909.17.1.272.086.377-.027l.568-.658c.132-.174.245-.133.406-.079l1.172.619c.172.09.286.137.318.208.042.084.027.43-.146.829-.141.39-.869.767-1.19.784-.039.001-.073.006-.106.011l-.099.019c-.219.037-.543.036-1.866-.542-1.744-.763-2.793-2.625-2.877-2.745-.085-.117-.673-.964-.645-1.825.034-.856.484-1.26.664-1.431.17-.18.359-.203.475-.18z" transform="matrix(-1 0 0 1 24 0)"/>
    </g>
</svg>
