<svg xmlns="http://www.w3.org/2000/svg" width="16" height="16" viewBox="0 0 16 16">
    <g fill="none" fill-rule="evenodd">
        <path d="M0 0H16V16H0z"/>
        <path fill="#94F2ED" fill-rule="nonzero" d="M8.938 5H1.374C.619 5 0 5.643 0 6.429v7.142C0 14.357.619 15 1.375 15h8.25c.756 0 1.375-.643 1.375-1.429V6.43C11 5.476 10.312 5 8.937 5zm-.813-1.429C8.125 1.6 9.665 0 11.563 0 13.46 0 15 1.6 15 3.571h-1.375c0-1.185-.921-2.142-2.063-2.142-1.14 0-2.062.957-2.062 2.142V5H8.062l.063-1.429z"/>
    </g>
</svg>
