<svg xmlns="http://www.w3.org/2000/svg" width="16" height="16" viewBox="0 0 16 16">
    <g fill="none" fill-rule="evenodd">
        <path d="M0 0H16V16H0z"/>
        <path fill="#00A49F" fill-rule="nonzero" d="M12.5 5.333h-.75V3.81C11.75 1.707 10.07 0 8 0 5.93 0 4.25 1.707 4.25 3.81v1.523H3.5c-.825 0-1.5.686-1.5 1.524v7.62C2 15.313 2.675 16 3.5 16h9c.825 0 1.5-.686 1.5-1.524V6.857c0-.838-.675-1.524-1.5-1.524zm-2.175 0h-4.65V3.81c0-1.303 1.043-2.362 2.325-2.362 1.283 0 2.325 1.059 2.325 2.362v1.523z"/>
    </g>
</svg>
