<svg xmlns="http://www.w3.org/2000/svg" width="48" height="48" viewBox="0 0 48 48">
    <g fill="none" fill-rule="evenodd">
        <path d="M0 0H48V48H0z"/>
        <g>
            <path d="M0 0H24V24H0z" transform="translate(12 10)"/>
            <path fill="#00A49F" stroke="#00A49F" d="M16.474 7L16.237 7.237 16.235 7.235 12 11.47 7.765 7.235 7.763 7.237 7.527 7 7 7 7 7.527 7.237 7.763 7.235 7.765 11.47 12 7.235 16.235 7.237 16.237 7 16.473 7 17 7.527 17 7.763 16.764 7.765 16.765 12 12.53 16.235 16.765 16.237 16.763 16.474 17 17 17 17 16.473 16.763 16.236 16.765 16.235 12.53 12 16.765 7.765 16.763 7.763 17 7.527 17 7z" transform="translate(12 10)"/>
        </g>
    </g>
</svg>
