<svg xmlns="http://www.w3.org/2000/svg" xmlns:xlink="http://www.w3.org/1999/xlink" width="200" height="200" viewBox="0 0 200 200">
    <defs>
        <path id="90modw7xba" d="M72 144c-39.765 0-72-32.235-72-72S32.235 0 72 0s72 32.235 72 72-32.235 72-72 72z"/>
        <path id="yljrhacbjc" d="M72 144c-39.765 0-72-32.235-72-72S32.235 0 72 0s72 32.235 72 72-32.235 72-72 72z"/>
        <path id="osmd982r6e" d="M72 144c-39.765 0-72-32.235-72-72S32.235 0 72 0s72 32.235 72 72-32.235 72-72 72z"/>
        <path id="bw05u3vw4g" d="M66.963 65v-7.173h-.982V65h.982zm2.339 0v-2.74c0-.341.022-.604.066-.788.044-.184.139-.362.285-.535.183-.214.394-.358.635-.43.134-.042.304-.063.513-.063.41 0 .693.163.85.489.094.195.141.452.141.771V65h.894v-3.354c0-.528-.072-.933-.215-1.216-.26-.518-.762-.777-1.504-.777-.339 0-.646.067-.923.2-.277.134-.539.354-.786.66v-.742h-.835V65h.879zm5.913.083c.127 0 .245-.007.354-.02.109-.013.214-.034.315-.063v-.693c-.065.006-.122.01-.171.012l-.137.002c-.16 0-.273-.018-.342-.053-.123-.062-.185-.184-.185-.367v-3.413h.835v-.717h-.835v-1.46h-.889v1.46h-.708v.717h.708v3.462c0 .335.073.608.22.818.146.21.425.315.835.315zm3.589.103c.267 0 .506-.026.717-.079.394-.09.725-.267.992-.527.16-.15.303-.343.432-.579.128-.236.204-.45.227-.642h-.864c-.065.231-.176.435-.332.61-.274.303-.64.455-1.099.455-.492 0-.855-.16-1.089-.481-.234-.32-.36-.746-.376-1.277h3.833c0-.527-.026-.911-.078-1.152-.059-.352-.176-.66-.352-.923-.182-.277-.447-.502-.795-.676-.349-.175-.708-.262-1.08-.262-.735 0-1.331.262-1.787.786-.455.525-.683 1.207-.683 2.046 0 .853.226 1.516.678 1.99.453.474 1.005.71 1.656.71zm1.538-3.218h-2.905c.016-.45.16-.82.434-1.111.274-.291.612-.437 1.016-.437.563 0 .965.212 1.206.635.13.228.213.532.249.913zM83.228 65v-3.008c0-.37.118-.699.356-.984.238-.285.578-.427 1.02-.427.053 0 .1.002.145.005.043.003.091.01.144.02v-.928l-.2-.02c-.04-.003-.067-.005-.084-.005-.348 0-.656.126-.922.379-.267.252-.435.466-.503.642v-.903h-.835V65h.879zm4.702 0l1.972-5.23h-.962l-1.46 4.258-1.396-4.257h-1.02L86.991 65h.938zm3.618-6.177v-.996h-.894v.996h.894zm0 6.177v-5.205h-.894V65h.894zm3.369.186c.267 0 .506-.026.718-.079.394-.09.724-.267.991-.527.16-.15.304-.343.432-.579.129-.236.204-.45.227-.642h-.864c-.065.231-.176.435-.332.61-.274.303-.64.455-1.099.455-.491 0-.854-.16-1.089-.481-.234-.32-.36-.746-.376-1.277h3.833c0-.527-.026-.911-.078-1.152-.058-.352-.176-.66-.351-.923-.183-.277-.448-.502-.796-.676-.348-.175-.708-.262-1.08-.262-.735 0-1.33.262-1.786.786-.456.525-.684 1.207-.684 2.046 0 .853.226 1.516.679 1.99.452.474 1.004.71 1.655.71zm1.538-3.218H93.55c.016-.45.16-.82.434-1.111.274-.291.612-.437 1.016-.437.563 0 .965.212 1.206.635.13.228.213.532.25.913zM100.303 65l1.03-4.048L102.397 65h.914l1.518-5.23h-.879l-1.07 4.097-1.025-4.096h-.986l-1.02 4.12-1.006-4.12h-.962L99.39 65h.913zm10.879 0v-6.318h2.417v-.855h-5.82v.855h2.416V65h.987zm4.072.19c.863 0 1.499-.275 1.91-.825.41-.55.614-1.247.614-2.09 0-.872-.232-1.533-.698-1.982-.465-.45-1.035-.674-1.709-.674-.752 0-1.35.26-1.797.781-.446.521-.669 1.221-.669 2.1 0 .82.212 1.474.635 1.96.423.487.995.73 1.714.73zm.083-.756c-.53 0-.918-.186-1.162-.557-.244-.371-.366-.835-.366-1.392 0-.58.122-1.074.366-1.484.244-.41.635-.615 1.172-.615.605 0 1.032.24 1.279.722.156.306.234.704.234 1.192 0 .54-.108 1.03-.324 1.472-.217.441-.616.662-1.2.662zm5.268.752c.362 0 .682-.072.962-.215.28-.144.523-.376.728-.699V65h.79v-7.197h-.844v2.641c-.198-.244-.376-.415-.532-.512-.27-.17-.605-.254-1.006-.254-.723 0-1.278.279-1.667.837-.39.558-.584 1.218-.584 1.98 0 .814.213 1.466.64 1.956.426.49.93.735 1.513.735zm.274-.767c-.524 0-.905-.189-1.143-.566-.237-.378-.356-.847-.356-1.407 0-.657.137-1.155.412-1.494.276-.338.634-.508 1.077-.508.397 0 .73.159 1.001.476.27.318.405.807.405 1.468 0 .654-.13 1.156-.393 1.506-.262.35-.596.525-1.003.525zm4.912.757c.404 0 .773-.086 1.108-.259.336-.173.593-.376.772-.61.03.208.08.37.151.483.137.215.357.322.66.322.123 0 .22-.005.292-.014.072-.01.176-.035.313-.074v-.649c-.055.01-.108.017-.156.022-.05.005-.093.007-.132.007-.12 0-.2-.027-.237-.083-.037-.055-.056-.128-.056-.22V61.09c0-.495-.19-.86-.571-1.094-.385-.234-.884-.351-1.5-.351-.53 0-.996.126-1.398.378-.402.252-.612.7-.628 1.345h.82c.033-.27.103-.473.21-.61.193-.248.518-.371.977-.371.397 0 .702.067.916.202.213.135.32.353.32.652 0 .147-.02.259-.06.337-.068.143-.203.228-.404.254l-1.402.176c-.491.062-.889.226-1.191.493-.303.267-.454.643-.454 1.128 0 .443.153.811.461 1.106.308.294.704.442 1.189.442zm.205-.747c-.254 0-.474-.074-.66-.22-.185-.147-.277-.347-.277-.6 0-.336.135-.58.405-.733.16-.091.399-.158.718-.2l.532-.069c.163-.02.329-.052.498-.097.17-.046.308-.103.415-.171v.708c0 .54-.244.93-.732 1.167-.29.143-.59.215-.899.215zm4.414 2.715c.508 0 .866-.147 1.074-.44.209-.293.567-1.107 1.075-2.441.214-.567.481-1.3.8-2.198.427-1.194.702-1.96.826-2.294h-.972l-1.411 4.257-1.402-4.257h-.996l1.934 5.38c-.046.118-.119.297-.22.537-.1.241-.16.375-.176.4-.052.079-.116.145-.192.199-.077.053-.197.08-.36.08-.051 0-.112-.005-.18-.014-.068-.01-.18-.036-.332-.079v.801c.098.026.18.044.247.054.066.01.161.015.285.015z"/>
    </defs>
    <g fill="none" fill-rule="evenodd">
        <g>
            <path d="M0 0L200 0 200 200 0 200z"/>
            <g>
                <g fill="#FFF4E1" fill-rule="nonzero">
                    <path d="M72 144c-39.765 0-72-32.235-72-72S32.235 0 72 0s72 32.235 72 72-32.235 72-72 72z" transform="translate(28 28)"/>
                </g>
                <g transform="translate(28 28)">
                    <mask id="l9h1j5z7zb" fill="#fff">
                        <use xlink:href="#90modw7xba"/>
                    </mask>
                    <g mask="url(#l9h1j5z7zb)">
                        <g>
                            <path fill="#A6FAE2" fill-rule="nonzero" d="M58.074 29.098c0 16.003-12.973 28.976-28.976 28.976S.122 45.1.122 29.098 13.095.122 29.098.122s28.976 12.973 28.976 28.976" transform="translate(62 72)"/>
                            <path stroke="#06976D" stroke-width=".974" d="M29.098 20.723V79.99m0-31.787l6.45-6.45m-6.207-12.911l3.322-3.322m-3.565 13.06l-6.182-6.182" transform="translate(62 72)"/>
                        </g>
                    </g>
                </g>
                <g transform="translate(28 28)">
                    <mask id="5nlhuzj7rd" fill="#fff">
                        <use xlink:href="#yljrhacbjc"/>
                    </mask>
                    <g mask="url(#5nlhuzj7rd)">
                        <g>
                            <path fill="#84CCB7" fill-rule="nonzero" d="M25.063 37.874c0 8.34-5.443 12.993-12.532 12.993C5.443 50.867 0 46.214 0 37.874 0 20.315 7.998.073 12.531.073s12.532 20.242 12.532 37.801" transform="translate(110 74)"/>
                            <path stroke="#FFF" stroke-linecap="square" d="M12.595 25.47v38.492m.086-18.101l4.435-4.435M12.16 37.41l-3.629-3.629m4.219-2.056l2.77-2.771" transform="translate(110 74)"/>
                        </g>
                    </g>
                </g>
                <g transform="translate(28 28)">
                    <mask id="wmuq7d8pqf" fill="#fff">
                        <use xlink:href="#osmd982r6e"/>
                    </mask>
                    <g mask="url(#wmuq7d8pqf)">
                        <g>
                            <g>
                                <path fill="#19141E" fill-rule="nonzero" d="M37.076 14.155c0 4.37-2.81 7.913-6.277 7.913-3.466 0-6.276-3.543-6.276-7.913s2.81-7.914 6.276-7.914c3.467 0 6.277 3.543 6.277 7.914" transform="translate(-7 39) translate(24)"/>
                                <path fill="#E576C6" fill-rule="nonzero" d="M22.223 45.503l-.262-9.09s11.02.88 13.377-.347c0 0 2.88-14.877-.556-23.116l-.07-.32-23.254-2.727-1.303 13.374c-.785-2.316-7.249-4.941-8.939-1.625-3.662 7.185 9.433 12.023 9.433 12.023l-1.33 11.937" transform="translate(-7 39) translate(24)"/>
                                <path fill="#000" fill-rule="nonzero" d="M21.961 36.414L14.53 34.817 21.925 39.824z" opacity=".399" transform="translate(-7 39) translate(24)"/>
                                <path fill="#405FD3" fill-rule="nonzero" d="M27.901 23.107L30.468 29.399 27.391 29.438z" transform="translate(-7 39) translate(24)"/>
                                <path fill="#0D0B6D" fill-rule="nonzero" d="M25.162 23.349c.153.848-.408 1.659-1.253 1.812-.846.153-1.655-.41-1.808-1.257-.153-.847.408-1.658 1.254-1.811.845-.153 1.654.409 1.807 1.256m8.628 0c.154.848-.408 1.659-1.253 1.812-.845.153-1.655-.41-1.807-1.257-.153-.847.408-1.658 1.253-1.811.846-.153 1.655.409 1.808 1.256" transform="translate(-7 39) translate(24)"/>
                                <path fill="#2F2F3D" fill-rule="nonzero" d="M11.881 25.56c-2.205-3.782-5.395-4.936-6.826-5.274-.572-1.654-1.007-3.573-1.313-5.613-.82-5.462 3.142-10.445 6.342-11.875 3.24-1.448 8.825-3.454 17-.73 5.497 1.832 9.01-2.555 12.245-.682 5.527 3.203.386 17.224-13.629 13.662-10.024-2.548-10.282-1.909-10.368-.057-.278 5.987-1.21 9.509-3.45 10.569h-.001z" transform="translate(-7 39) translate(24)"/>
                                <g>
                                    <path fill="#FFF" fill-rule="nonzero" d="M.625.673s.99 1.799 3.125 1.755" transform="translate(-7 39) translate(24) translate(23 29)"/>
                                    <path stroke="#252535" stroke-width="1.219" d="M.625.673s.99 1.799 3.125 1.755" transform="translate(-7 39) translate(24) translate(23 29)"/>
                                </g>
                                <path stroke="#252535" stroke-width="1.219" d="M27.155 23.425c0 1.97-1.594 3.566-3.56 3.566-1.964 0-3.558-1.597-3.558-3.566 0-1.97 1.594-3.567 3.559-3.567s3.559 1.597 3.559 3.567h0zm8.961 0c0 1.97-1.594 3.566-3.559 3.566s-3.559-1.597-3.559-3.566c0-1.97 1.594-3.567 3.56-3.567 1.964 0 3.558 1.597 3.558 3.567h0zm-7.408.165H27.17m-7.133-.165h-8.791" transform="translate(-7 39) translate(24)"/>
                            </g>
                            <g>
                                <path fill="#E576C6" fill-rule="nonzero" d="M87.131 26.327c-3.365 6.606-15.175 28.292-23.595 24.833-6.304-2.59-13.851-24.062-13.851-24.062l12.268-7.3 5.512 14.755L78.72 22.325c-.382-2.423-.688-5.59.074-6.706 1.297-1.901 7.86-7.757 7.86-7.757l1.195 9.922.209-.837c0-.046.01-.097.034-.151l.007-.016.484-1.936c-.203-.102-.286-.248-.199-.45.072-.164.227-.344.444-.532l1.65-6.61s.54.24 1.334.601c1.277-.263 5.9 2.88 5.97 2.927.942.609-1.297 10.657-3.115 12.524-1.294 1.327-5.32 2.472-7.536 3.023zM11.975 71.133l.752 1.426s.68 1.166 1.392 3.2c.712 2.034.416 3.279 1.956 6.474 1.749 3.627-1.378 2.132-2.5.548-.875-1.236-.776-2.906-1.91-3.654-.38.606-1.25 1.474-1.734 6.707-.087.939.339 3.983.339 3.983.009.913.126 2.815-.913 3.105-.257.072-.592-.212-.592-.212s.1 1.19-.96 1.427c-.418.093-1.247-2.477-1.247-2.477s-.126 1.305-.919 1.45c-.224.041-2.87-7.406-2.87-7.406l.16 1.682.351 1.723s-.028.927-.773 1.091c-.296.066-.863-1.481-1.395-3.3-.828-2.832-.81-4.96-.567-7.075.294-2.557.163-3.416 1.3-6.55.137-.376.32-.806.524-1.249C1.744 66.636-.015 50.859.2 46.016c.262-5.876 6.486-18.917 6.486-18.917l12.637 7.064-6.965 12.691-.383 24.279zm30.233-58.44c-7.32-.431-10.407-4.98-11.112-6.21 4.645-.321 5.13-.274 11.316.367 2.509.26 4.269.793 5.973 1.26.368 1.252.893 4.994-6.177 4.582v.001z" transform="translate(-7 39) translate(0 37)"/>
                                <path fill="#FF8169" fill-rule="nonzero" d="M31.174 6.576c.016.063.073.156.138.262.066.106.066.072.387.545.321.474.797.946 1.515 1.679.595.607 1.418 1.202 2.225 1.653.919.513 1.82.856 2.399 1.1.522.22.962.334 1.388.435 1.202.286 2.138.374 4.047.474.231.012 1.573-.087 1.809-.134.336-.067.638-.128 1.018-.231.38-.104 1.326-.545 1.952-1.323.266-.33.518-1.414.44-2.213-.077-.798-.426-.8-.107-.713 5.6 1.524 10.892 4.667 13.986 10.24.25.45.478.882.685 1.3l.044-.01 4.985 11.462-7.048 4.107-1.537 33.79-40.558-8.726-.68-24.678-12.819-9.586s6.045-12.123 16.389-16.947c3.344-1.561 6.411-2.298 9.264-2.58.234-.023.05-.016.078.094z" transform="translate(-7 39) translate(0 37)"/>
                                <path stroke="#000" stroke-width="1.524" d="M18.262 35.594L21.513 37.794 29.33 28.718" opacity=".201" transform="translate(-7 39) translate(0 37)"/>
                                <path fill="#5E93D1" fill-rule="nonzero" d="M92.502 19.551L91.935 22.321 82.763 22.321 87.089 0.261 96.262 0.261 94.582 8.827 92.778 7.993 92.217 7.838 91.774 7.862 91.583 7.992 91.583 8.529 93.543 11.341 92.043 11.993 89.736 13.2 89.069 13.66 88.811 13.899 88.6 14.087 88.465 14.249 88.385 14.394 88.35 14.582 88.384 14.665 88.424 14.729 88.483 14.787 89.239 15.053 90.965 14.582 92.67 14.582 90.394 15.053 88.894 15.948 88.384 16.428 88.096 16.779 88.096 17.101 88.6 17.327 91.774 16.964 90.724 17.534 90.026 17.964 89.388 18.294 88.894 18.929 88.894 19.242 89.069 19.426 89.512 19.662 91.551 19.662 92.501 19.55z" transform="translate(-7 39) translate(0 37)"/>
                                <path fill="#020101" fill-rule="nonzero" d="M82.761 22.321h-1.517L85.57.261h1.518l-4.327 22.06zm5.907-19.499c-.127.645-.503 1.114-.84 1.048-.337-.065-.507-.64-.38-1.285.127-.645.503-1.114.84-1.048.336.065.506.641.38 1.285" transform="translate(-7 39) translate(0 37)"/>
                            </g>
                        </g>
                    </g>
                </g>
            </g>
            <g fill="#000" fill-rule="nonzero" transform="translate(56 49)">
                <rect width="128" height="40" rx="4"/>
            </g>
            <rect width="127" height="39" x="56.5" y="49.5" fill="#FFF" fill-rule="nonzero" stroke="#E1E1E1" rx="4"/>
            <g fill-rule="nonzero">
                <path fill="#596685" d="M8 0L4 8l4 8c4.418 0 8-3.582 8-8s-3.582-8-8-8z" transform="translate(159 61)"/>
                <path fill="#ABB2C1" d="M0 8c0 4.418 3.582 8 8 8V0C3.582 0 0 3.582 0 8z" transform="translate(159 61)"/>
                <path fill="#F2F4F5" d="M8 1.875L4.937 8 8 14.125c3.383 0 6.125-2.742 6.125-6.125S11.383 1.875 8 1.875z" transform="translate(159 61)"/>
                <path fill="#F2F4F5" d="M1.875 8c0 3.383 2.742 6.125 6.125 6.125V1.875C4.617 1.875 1.875 4.617 1.875 8z" transform="translate(159 61)"/>
                <path fill="#002F34" d="M9.326 8.663L8 7.337 7.375 7.337 8 8.663 8.663 9.326z" transform="translate(159 61)"/>
                <path fill="#002F34" d="M5.337 4.674L4.674 5.337 8 8.663 8 7.337z" transform="translate(159 61)"/>
                <path fill="#284E52" d="M10.674 4.663L8 7.337 7.375 8.663 8 8.663 11.337 5.326z" transform="translate(159 61)"/>
                <path fill="#284E52" d="M6.674 8.663L7.337 9.326 8 8.663 8 7.337z" transform="translate(159 61)"/>
                <path fill="#276EF1" d="M8.469 2.813L8 2.813 7.688 3.281 8 3.75 8.469 3.75z" transform="translate(159 61)"/>
                <path fill="#276EF1" d="M7.531 2.813H8v.937h-.469v-.937zm.938 9.437H8l-.312.469.312.469h.469v-.938z" transform="translate(159 61)"/>
                <path fill="#276EF1" d="M7.531 12.25L8 12.25 8 13.188 7.531 13.188z" transform="translate(159 61)"/>
                <path fill="#276EF1" d="M2.813 7.53L3.749 7.53 3.749 8.469 2.813 8.469z" transform="translate(159 61) rotate(-90 3.281 8)"/>
                <path fill="#276EF1" d="M12.25 7.531L13.188 7.531 13.188 8.469 12.25 8.469z" transform="translate(159 61) rotate(-90 12.719 8)"/>
            </g>
            <g fill="#001443" fill-rule="nonzero">
                <use xlink:href="#bw05u3vw4g"/>
                <use xlink:href="#bw05u3vw4g"/>
            </g>
            <rect width="75" height="3" x="66" y="71" fill="#D4D4D4" fill-rule="nonzero" rx="1.5"/>
            <rect width="56" height="3" x="66" y="78" fill="#D4D4D4" fill-rule="nonzero" rx="1.5"/>
            <g>
                <g>
                    <path fill="#001443" fill-rule="nonzero" d="M37.076 14.155c0 4.37-2.81 7.913-6.277 7.913-3.466 0-6.276-3.543-6.276-7.913s2.81-7.914 6.276-7.914c3.467 0 6.277 3.543 6.277 7.914" transform="translate(21 67) translate(24)"/>
                    <path fill="#FFCDA0" fill-rule="nonzero" d="M22.223 45.503l-.262-9.09s11.02.88 13.377-.347c0 0 2.88-14.877-.556-23.116l-.07-.32-23.254-2.727-1.303 13.374c-.785-2.316-7.249-4.941-8.939-1.625-3.662 7.185 9.433 12.023 9.433 12.023l-1.33 11.937" transform="translate(21 67) translate(24)"/>
                    <path fill="#000" fill-rule="nonzero" d="M21.961 36.414L14.53 34.817 21.925 39.824z" opacity=".399" transform="translate(21 67) translate(24)"/>
                    <path fill="#E0654D" fill-rule="nonzero" d="M27.901 23.107L30.468 29.399 27.391 29.438z" transform="translate(21 67) translate(24)"/>
                    <path fill="#001443" fill-rule="nonzero" d="M25.162 23.349c.153.848-.408 1.659-1.253 1.812-.846.153-1.655-.41-1.808-1.257-.153-.847.408-1.658 1.254-1.811.845-.153 1.654.409 1.807 1.256m8.628 0c.154.848-.408 1.659-1.253 1.812-.845.153-1.655-.41-1.807-1.257-.153-.847.408-1.658 1.253-1.811.846-.153 1.655.409 1.808 1.256M11.881 25.56c-2.205-3.782-5.395-4.936-6.826-5.274-.572-1.654-1.007-3.573-1.313-5.613-.82-5.462 3.142-10.445 6.342-11.875 3.24-1.448 8.825-3.454 17-.73 5.497 1.832 9.01-2.555 12.245-.682 5.527 3.203.386 17.224-13.629 13.662-10.024-2.548-10.282-1.909-10.368-.057-.278 5.987-1.21 9.509-3.45 10.569h-.001z" transform="translate(21 67) translate(24)"/>
                    <g stroke="#001443" stroke-width=".5">
                        <path d="M.625.673s.99 1.799 3.125 1.755M.625.673s.99 1.799 3.125 1.755" transform="translate(21 67) translate(24) translate(24 30)"/>
                    </g>
                </g>
                <g>
                    <path fill="#FFCDA0" fill-rule="nonzero" d="M87.131 26.327c-3.365 6.606-15.175 28.292-23.595 24.833-6.304-2.59-13.851-24.062-13.851-24.062l12.268-7.3 5.512 14.755L78.72 22.325c-.382-2.423-.688-5.59.074-6.706 1.297-1.901 7.86-7.757 7.86-7.757l1.195 9.922.209-.837c0-.046.01-.097.034-.151l.007-.016.484-1.936c-.203-.102-.286-.248-.199-.45.072-.164.227-.344.444-.532l1.65-6.61s.54.24 1.334.601c1.277-.263 5.9 2.88 5.97 2.927.942.609-1.297 10.657-3.115 12.524-1.294 1.327-5.32 2.472-7.536 3.023zM11.975 71.133l.752 1.426s.68 1.166 1.392 3.2c.712 2.034.416 3.279 1.956 6.474 1.749 3.627-1.378 2.132-2.5.548-.875-1.236-.776-2.906-1.91-3.654-.38.606-1.25 1.474-1.734 6.707-.087.939.339 3.983.339 3.983.009.913.126 2.815-.913 3.105-.257.072-.592-.212-.592-.212s.1 1.19-.96 1.427c-.418.093-1.247-2.477-1.247-2.477s-.126 1.305-.919 1.45c-.224.041-2.87-7.406-2.87-7.406l.16 1.682.351 1.723s-.028.927-.773 1.091c-.296.066-.863-1.481-1.395-3.3-.828-2.832-.81-4.96-.567-7.075.294-2.557.163-3.416 1.3-6.55.137-.376.32-.806.524-1.249C1.744 66.636-.015 50.859.2 46.016c.262-5.876 6.486-18.917 6.486-18.917l12.637 7.064-6.965 12.691-.383 24.279zm30.233-58.44c-7.32-.431-10.407-4.98-11.112-6.21 4.645-.321 5.13-.274 11.316.367 2.509.26 4.269.793 5.973 1.26.368 1.252.893 4.994-6.177 4.582v.001z" transform="translate(21 67) translate(0 37)"/>
                    <path fill="#FF8169" fill-rule="nonzero" d="M31.174 6.576c.016.063.073.156.138.262.066.106.066.072.387.545.321.474.797.946 1.515 1.679.595.607 1.418 1.202 2.225 1.653.919.513 1.82.856 2.399 1.1.522.22.962.334 1.388.435 1.202.286 2.138.374 4.047.474.231.012 1.573-.087 1.809-.134.336-.067.638-.128 1.018-.231.38-.104 1.326-.545 1.952-1.323.266-.33.518-1.414.44-2.213-.077-.798-.426-.8-.107-.713 5.6 1.524 10.892 4.667 13.986 10.24.25.45.478.882.685 1.3l.044-.01 4.985 11.462-7.132 4.156L59.5 58.5 30 29.5l-8.332 9.102L18 36.5l.262-.905-12.819-9.586s6.045-12.123 16.389-16.947c3.344-1.561 6.411-2.298 9.264-2.58.234-.023.05-.016.078.094z" transform="translate(21 67) translate(0 37)"/>
                    <path stroke="#000" stroke-width="1.524" d="M18.262 35.594L21.513 37.794 29.33 28.718" opacity=".201" transform="translate(21 67) translate(0 37)"/>
                    <path fill="#002F34" fill-rule="nonzero" d="M92.502 19.551L91.935 22.321 82.763 22.321 87.089 0.261 96.262 0.261 94.582 8.827 92.778 7.993 92.217 7.838 91.774 7.862 91.583 7.992 91.583 8.529 93.543 11.341 92.043 11.993 89.736 13.2 89.069 13.66 88.811 13.899 88.6 14.087 88.465 14.249 88.385 14.394 88.35 14.582 88.384 14.665 88.424 14.729 88.483 14.787 89.239 15.053 90.965 14.582 92.67 14.582 90.394 15.053 88.894 15.948 88.384 16.428 88.096 16.779 88.096 17.101 88.6 17.327 91.774 16.964 90.724 17.534 90.026 17.964 89.388 18.294 88.894 18.929 88.894 19.242 89.069 19.426 89.512 19.662 91.551 19.662 92.501 19.55z" transform="translate(21 67) translate(0 37)"/>
                    <path fill="#284E52" fill-rule="nonzero" d="M82.761 22.321L81.244 22.321 85.57 0.261 87.088 0.261z" transform="translate(21 67) translate(0 37)"/>
                    <path fill="#FFF" fill-rule="nonzero" d="M88.668 2.822c-.127.645-.503 1.114-.84 1.048-.337-.065-.507-.64-.38-1.285.127-.645.503-1.114.84-1.048.336.065.506.641.38 1.285" transform="translate(21 67) translate(0 37)"/>
                </g>
            </g>
        </g>
    </g>
</svg>
