<svg xmlns="http://www.w3.org/2000/svg" xmlns:xlink="http://www.w3.org/1999/xlink" width="200" height="200" viewBox="0 0 200 200">
    <defs>
        <path id="ydx3cvegha" d="M1.96 6.117c.61 0 1.045-.33 1.3-.99.155-.397.232-.852.232-1.365 0-.455-.065-.834-.194-1.137-.232-.55-.654-.826-1.265-.826-.453 0-.796.144-1.028.433-.233.29-.35.624-.35 1.005 0 .397.119.721.354.973s.555.378.96.378c.199 0 .385-.038.557-.113.173-.075.318-.205.436-.391-.075.643-.2 1.069-.378 1.279-.178.21-.393.315-.645.315-.135 0-.256-.03-.363-.088-.21-.111-.322-.313-.337-.604H.706c0 .325.106.594.319.809.213.215.524.322.935.322zm.079-1.992c-.291 0-.503-.08-.636-.242-.133-.16-.2-.378-.2-.652 0-.289.076-.52.228-.692.151-.173.356-.26.614-.26.24 0 .438.076.593.227.155.152.233.382.233.69 0 .344-.087.585-.26.722-.172.138-.363.207-.572.207zm3.017-.583v-.639h-.612v.639h.612zm0 2.458v-.639h-.612V6h.612zm2.01.114c.559 0 .961-.267 1.207-.802.17-.374.255-.845.255-1.416 0-.601-.094-1.075-.281-1.42-.242-.448-.635-.671-1.178-.671-.604 0-1.02.318-1.251.955-.123.342-.185.75-.185 1.227 0 .616.103 1.106.308 1.471.246.438.621.656 1.125.656zm-.003-.48c-.34 0-.58-.198-.72-.595-.092-.26-.138-.603-.138-1.031 0-.569.071-.999.215-1.29.144-.293.37-.439.681-.439.338 0 .566.154.683.462.117.307.176.7.176 1.176 0 .66-.081 1.111-.244 1.354-.162.242-.38.363-.653.363zm3.34.48c.559 0 .96-.267 1.207-.802.17-.374.255-.845.255-1.416 0-.601-.094-1.075-.281-1.42-.243-.448-.635-.671-1.178-.671-.604 0-1.02.318-1.251.955-.123.342-.185.75-.185 1.227 0 .616.103 1.106.308 1.471.246.438.621.656 1.125.656zm-.003-.48c-.34 0-.58-.198-.72-.595-.092-.26-.138-.603-.138-1.031 0-.569.071-.999.215-1.29.143-.293.37-.439.681-.439.338 0 .566.154.683.462.117.307.175.7.175 1.176 0 .66-.08 1.111-.243 1.354-.162.242-.38.363-.653.363zm2.95.471c.242 0 .464-.051.665-.155.201-.103.356-.225.463-.366.018.125.048.222.091.29.082.129.214.193.395.193.075 0 .133-.003.176-.008.043-.006.106-.02.188-.044v-.39c-.033.006-.065.01-.094.013-.03.003-.056.005-.08.005-.071 0-.119-.017-.141-.05-.023-.033-.034-.077-.034-.132V3.653c0-.297-.114-.515-.343-.656-.23-.14-.53-.21-.9-.21-.317 0-.597.075-.838.226-.242.152-.367.42-.377.807h.492c.02-.162.062-.284.126-.366.116-.148.31-.223.586-.223.238 0 .422.041.55.122.127.081.191.211.191.391 0 .088-.011.155-.035.202-.04.086-.122.137-.243.153l-.84.105c-.296.037-.534.136-.716.296-.181.16-.272.386-.272.677 0 .265.092.487.277.663.184.177.422.265.713.265zm.123-.448c-.152 0-.284-.044-.395-.132-.112-.088-.167-.208-.167-.36 0-.201.08-.348.243-.44.096-.054.24-.094.43-.12l.32-.04c.098-.012.197-.032.299-.06.101-.026.184-.06.249-.102v.425c0 .324-.147.558-.44.7-.174.086-.353.13-.539.13zM16.371 6V4.336c0-.404.081-.684.244-.838.163-.154.345-.231.544-.231.219 0 .368.073.448.22.05.097.076.252.076.465V6h.536V4.175c0-.324.075-.556.224-.695.15-.138.328-.208.535-.208.15 0 .278.04.382.118.105.078.157.221.157.43V6h.548V3.911c0-.277-.041-.498-.123-.662-.152-.305-.44-.457-.861-.457-.198 0-.375.04-.534.122-.158.08-.295.205-.413.373-.07-.137-.148-.24-.234-.31-.152-.123-.354-.185-.604-.185-.22 0-.417.06-.591.179-.102.07-.215.182-.34.337v-.446h-.522V6h.528z"/>
        <path id="to72vq3hlb" d="M2.131 6V1.822h-.416c-.074.324-.187.53-.337.617-.15.087-.416.149-.797.186v.404h.988V6h.562zm2.833.114c.559 0 .961-.267 1.207-.802.17-.374.255-.845.255-1.416 0-.601-.094-1.075-.281-1.42-.242-.448-.635-.671-1.178-.671-.604 0-1.02.318-1.251.955-.123.342-.185.75-.185 1.227 0 .616.103 1.106.308 1.471.246.438.621.656 1.125.656zm-.003-.48c-.34 0-.58-.198-.72-.595-.092-.26-.138-.603-.138-1.031 0-.569.071-.999.215-1.29.144-.293.37-.439.681-.439.338 0 .566.154.683.462.117.307.176.7.176 1.176 0 .66-.081 1.111-.244 1.354-.162.242-.38.363-.653.363zm2.997-2.092v-.639h-.612v.639h.612zm0 2.458v-.639h-.612V6h.612zm2.01.114c.559 0 .96-.267 1.207-.802.17-.374.255-.845.255-1.416 0-.601-.094-1.075-.281-1.42-.243-.448-.635-.671-1.178-.671-.604 0-1.02.318-1.251.955-.123.342-.185.75-.185 1.227 0 .616.103 1.106.308 1.471.246.438.621.656 1.125.656zm-.003-.48c-.34 0-.58-.198-.72-.595-.092-.26-.138-.603-.138-1.031 0-.569.071-.999.215-1.29.143-.293.37-.439.681-.439.338 0 .566.154.683.462.117.307.175.7.175 1.176 0 .66-.08 1.111-.243 1.354-.162.242-.38.363-.653.363zm3.34.48c.558 0 .96-.267 1.207-.802.17-.374.255-.845.255-1.416 0-.601-.094-1.075-.281-1.42-.243-.448-.635-.671-1.178-.671-.604 0-1.02.318-1.251.955-.123.342-.185.75-.185 1.227 0 .616.103 1.106.308 1.471.246.438.62.656 1.125.656zm-.003-.48c-.34 0-.58-.198-.72-.595-.093-.26-.138-.603-.138-1.031 0-.569.071-.999.215-1.29.143-.293.37-.439.681-.439.338 0 .565.154.683.462.117.307.175.7.175 1.176 0 .66-.08 1.111-.243 1.354-.162.242-.38.363-.653.363zm2.95.471c.242 0 .464-.051.665-.155.201-.103.356-.225.463-.366.018.125.048.222.09.29.083.129.215.193.396.193.075 0 .133-.003.176-.008.043-.006.106-.02.188-.044v-.39c-.034.006-.065.01-.094.013-.03.003-.056.005-.08.005-.071 0-.119-.017-.141-.05-.023-.033-.034-.077-.034-.132V3.653c0-.297-.114-.515-.343-.656-.23-.14-.53-.21-.9-.21-.318 0-.597.075-.839.226-.24.152-.366.42-.376.807h.492c.02-.162.062-.284.126-.366.115-.148.31-.223.586-.223.238 0 .422.041.55.122.127.081.191.211.191.391 0 .088-.011.155-.035.202-.04.086-.122.137-.243.153l-.84.105c-.296.037-.534.136-.716.296-.181.16-.272.386-.272.677 0 .265.092.487.277.663.184.177.422.265.713.265zm.123-.448c-.152 0-.284-.044-.395-.132-.112-.088-.167-.208-.167-.36 0-.201.08-.348.243-.44.096-.054.24-.094.43-.12l.32-.04c.097-.012.197-.032.299-.06.101-.026.184-.06.249-.102v.425c0 .324-.147.558-.44.7-.174.086-.353.13-.539.13zM19.273 6V4.336c0-.404.081-.684.244-.838.163-.154.344-.231.544-.231.218 0 .368.073.448.22.05.097.076.252.076.465V6h.536V4.175c0-.324.075-.556.224-.695.15-.138.328-.208.535-.208.15 0 .278.04.382.118.105.078.157.221.157.43V6h.548V3.911c0-.277-.041-.498-.123-.662-.152-.305-.44-.457-.861-.457-.198 0-.375.04-.534.122-.158.08-.296.205-.413.373-.07-.137-.148-.24-.234-.31-.152-.123-.354-.185-.604-.185-.22 0-.418.06-.591.179-.102.07-.215.182-.34.337v-.446h-.522V6h.528z"/>
        <path id="r26yl53i9c" d="M3.067 6v-.498H.777c.05-.207.173-.396.369-.565.109-.096.26-.197.45-.302l.402-.223c.354-.197.599-.365.735-.504.237-.238.355-.525.355-.861 0-.318-.11-.608-.333-.867-.221-.26-.572-.39-1.053-.39-.578 0-.981.203-1.21.61-.129.23-.196.528-.202.893h.536c.008-.26.049-.463.123-.61.139-.273.389-.41.75-.41.244 0 .44.072.586.216.147.143.22.337.22.581 0 .21-.08.395-.24.557-.102.103-.279.228-.53.375l-.563.325c-.377.219-.63.462-.76.73-.13.267-.205.582-.224.943h2.88zm1.829.114c.484 0 .858-.126 1.122-.378.263-.252.395-.578.395-.978 0-.25-.062-.462-.186-.634-.124-.173-.296-.29-.517-.35.137-.057.248-.135.334-.235.139-.16.208-.37.208-.627 0-.361-.117-.637-.352-.828-.234-.19-.565-.285-.993-.285-.54 0-.919.195-1.134.586-.125.219-.187.484-.187.797h.521c.01-.239.052-.422.126-.551.135-.235.378-.352.73-.352.197 0 .37.057.518.17.149.114.223.275.223.484 0 .28-.111.476-.334.586-.127.062-.289.093-.486.093-.043 0-.083 0-.12-.003-.037-.002-.083-.005-.138-.011v.465l.11-.004.107-.001c.314 0 .56.057.737.172.176.116.265.318.265.607 0 .234-.084.426-.252.574-.168.149-.39.223-.668.223-.358 0-.605-.11-.741-.331-.079-.123-.13-.32-.153-.592h-.55c0 .39.111.722.335.995.224.272.583.408 1.08.408zm4.716 0c.559 0 .938-.183 1.137-.55.107-.202.161-.484.161-.847v-3.02h-.577v2.867c0 .364-.03.61-.088.742-.096.213-.299.319-.61.319-.22 0-.383-.06-.487-.177-.105-.118-.157-.295-.157-.53v-.307h-.548v.308c0 .447.115.758.343.933.229.175.504.262.826.262zm3.15-.029c.287 0 .531-.082.732-.246.102-.082.187-.183.255-.302L13.743 6h.498V2.862h-.527v1.541c0 .307-.036.548-.109.724-.132.328-.382.492-.75.492-.255 0-.43-.094-.524-.281-.05-.102-.076-.233-.076-.393V2.862h-.54v2.133c0 .268.045.482.133.642.162.299.466.448.914.448zM15.592 6V4.356c0-.205.013-.362.04-.473.026-.11.083-.217.17-.32.11-.13.237-.215.382-.258.08-.026.182-.038.307-.038.246 0 .416.097.51.293.057.117.085.271.085.462V6h.536V3.987c0-.316-.043-.56-.129-.73-.156-.31-.457-.465-.902-.465-.203 0-.388.04-.554.12-.166.08-.323.212-.472.396v-.446h-.5V6h.527zm4.034.111c.16 0 .304-.015.43-.047.237-.054.435-.16.595-.316.096-.09.182-.206.26-.347.077-.142.122-.27.136-.385h-.519c-.039.138-.105.26-.199.366-.164.181-.384.272-.66.272-.294 0-.512-.096-.652-.288-.141-.193-.216-.448-.226-.766h2.3c0-.317-.016-.547-.047-.692-.035-.21-.106-.395-.211-.554-.11-.166-.269-.3-.478-.405-.209-.105-.424-.157-.647-.157-.441 0-.799.157-1.072.472-.274.314-.41.723-.41 1.227 0 .512.135.91.407 1.194.271.284.602.426.993.426zm.923-1.93h-1.743c.01-.27.096-.492.26-.667.164-.175.368-.262.61-.262.338 0 .579.127.723.38.079.138.128.32.15.549z"/>
    </defs>
    <g fill="none" fill-rule="evenodd">
        <g>
            <path d="M0 0L200 0 200 200 0 200z"/>
            <g fill-rule="nonzero">
                <path fill="#F6F6F7" d="M72 144c-39.765 0-72-32.235-72-72S32.235 0 72 0s72 32.235 72 72-32.235 72-72 72z" transform="translate(28 28)"/>
                <g transform="translate(28 28) translate(16)">
                    <path fill="#FFD5CD" d="M97.97 108.523c-.604-2.221-.817-4.533-.63-6.828l1.617-16.307c.55-6.65-.465-13.313-3.41-19.3-7.605-15.474-5.86-16.597-6.097-31.952 0-3.137-2.542-5.68-5.68-5.68-3.136 0-5.68 2.543-5.68 5.68 0 62.446.117 57.864-.269 59.695v8.177c0 6.89-5.605 12.495-12.494 12.495H34.234c4.777 6.642 11.312 11.844 18.896 14.994.046.02.093.038.14.06 5.86 2.473 9.94 7.766 11.034 13.893 14.673-1.837 27.943-8.186 38.38-17.615l-4.714-17.312z"/>
                    <path fill="#FFB573" d="M97.97 108.523c-.604-2.221-.817-4.533-.63-6.828l1.617-16.307c.55-6.65-.465-13.313-3.41-19.3-7.605-15.474-5.86-16.597-6.097-31.952 0-3.137-2.542-5.68-5.68-5.68-3.136 0-5.68 2.543-5.68 5.68 0 62.446.117 57.864-.269 59.695v8.177c0 6.89-5.605 12.495-12.494 12.495H34.234c4.777 6.642 11.312 11.844 18.896 14.994.046.02.093.038.14.06 5.86 2.473 9.94 7.766 11.034 13.893 14.673-1.837 27.943-8.186 38.38-17.615l-4.714-17.312zM13.137 28.655l-1.73-1.603c-2.667-2.472-6.871-2.312-9.342.356-2.47 2.666-2.31 6.87.356 9.341l10.716 9.93V28.655z"/>
                    <path fill="#001443" d="M65.596 0H25.339c-6.89 0-12.494 5.605-12.494 12.495v89.781c0 6.89 5.604 12.495 12.494 12.495h40.257c6.89 0 12.494-5.604 12.494-12.495V12.495C78.09 5.605 72.485 0 65.596 0z"/>
                    <path fill="#002853" d="M28.173 102.276V12.495C28.173 5.605 33.777 0 40.667 0H25.339c-6.89 0-12.494 5.605-12.494 12.495v89.781c0 6.89 5.604 12.495 12.494 12.495h15.328c-6.89 0-12.494-5.605-12.494-12.495z"/>
                    <path fill="#F2F4F5" d="M71.167 102.276c0 3.078-2.494 5.572-5.571 5.572H25.339c-3.078 0-5.573-2.495-5.573-5.572V12.495c0-3.078 2.495-5.573 5.573-5.573h3.07c1.152 0 2.084.934 2.084 2.086v1.322c0 1.774 1.452 3.225 3.226 3.225h23.496c1.774 0 3.225-1.451 3.225-3.225V9.008c0-1.152.934-2.086 2.085-2.086h3.07c3.078 0 5.572 2.495 5.572 5.573v89.781z"/>
                    <rect width="44" height="12" x="23.5" y="37.5" fill="#FFF" stroke="#8490A8" rx="2"/>
                    <g transform="translate(32 40)">
                        <use fill="#000" xlink:href="#ydx3cvegha"/>
                        <use fill="#001443" xlink:href="#ydx3cvegha"/>
                    </g>
                    <rect width="44" height="12" x="23.5" y="54.5" fill="#FFF" stroke="#8490A8" rx="2"/>
                    <g fill="#001443" transform="translate(30 57)">
                        <use xlink:href="#to72vq3hlb"/>
                        <use xlink:href="#to72vq3hlb"/>
                    </g>
                    <rect width="44" height="12" x="23.5" y="71.5" fill="#276EF1" rx="2"/>
                    <text fill="#FFF" font-family="Helvetica" font-size="8" transform="translate(29 73)">
                        <tspan x="0" y="8">11:00am</tspan>
                    </text>
                    <g transform="translate(23 25)">
                        <use fill="#000" xlink:href="#r26yl53i9c"/>
                        <use fill="#001443" xlink:href="#r26yl53i9c"/>
                    </g>
                    <path fill="#596685" d="M52.55 8.94h-6.903c-1.114 0-2.018-.904-2.018-2.018 0-1.114.904-2.017 2.018-2.017h6.902c1.116 0 2.019.903 2.019 2.017 0 1.114-.903 2.019-2.019 2.019l.001-.001zm-13.983 0c-1.128 0-2.018-.924-2.018-2.018 0-1 .736-1.81 1.625-1.977.258-.054.527-.054.788 0 .907.17 1.622.995 1.622 1.977 0 1.102-.892 2.018-2.017 2.018z"/>
                    <path fill="#FFC896" d="M22.757 63.519c-2.173 2.345-5.838 2.486-8.185.31L4.87 54.84c-2.347-2.174-2.486-5.839-.312-8.185 2.174-2.347 5.84-2.487 8.185-.312l9.703 8.99c2.345 2.174 2.486 5.839.31 8.186h.001zm0 31.597c-2.173 2.347-5.838 2.487-8.185.312l-9.702-8.99c-2.347-2.174-2.486-5.839-.312-8.186 2.174-2.345 5.84-2.486 8.185-.312l9.703 8.99c2.345 2.175 2.486 5.84.31 8.186h.001zm0-15.799c-2.173 2.347-5.838 2.486-8.185.312l-9.702-8.99c-2.347-2.173-2.486-5.838-.312-8.185 2.174-2.347 5.84-2.486 8.185-.312l9.703 8.99c2.345 2.174 2.486 5.838.31 8.185h.001z"/>
                </g>
            </g>
        </g>
    </g>
</svg>
