<svg xmlns="http://www.w3.org/2000/svg" xmlns:xlink="http://www.w3.org/1999/xlink" width="200" height="200" viewBox="0 0 200 200">
    <defs>
        <path id="2vqtrmo36a" d="M72 144c-39.765 0-72-32.235-72-72S32.235 0 72 0s72 32.235 72 72-32.235 72-72 72z"/>
        <path id="7d2dgm09ic" d="M72 144c-39.765 0-72-32.235-72-72S32.235 0 72 0s72 32.235 72 72-32.235 72-72 72z"/>
        <path id="txeykn97ae" d="M72 144c-39.765 0-72-32.235-72-72S32.235 0 72 0s72 32.235 72 72-32.235 72-72 72z"/>
        <path id="m29pm120fg" d="M1.831 8V.89H.894V8h.937zm2.476 0V4.235c.123-.254.296-.459.517-.615.222-.156.479-.234.772-.234.361 0 .627.09.798.273.17.182.258.464.261.845V8h.904V4.509c-.01-1.26-.573-1.89-1.69-1.89-.65 0-1.178.254-1.582.762l-.03-.664h-.854V8h.904zm6.157.098c.224 0 .456-.033.693-.098v-.732c-.182.039-.325.058-.43.058-.211 0-.36-.053-.449-.159-.088-.105-.132-.264-.132-.476V3.415h.987v-.698h-.987v-1.28h-.903v1.28h-.962v.698h.962v3.276c0 .45.103.796.308 1.04.205.245.51.367.913.367zm3.916 0c.885 0 1.55-.34 1.992-1.02l-.552-.43c-.166.214-.36.387-.58.517-.222.13-.492.195-.811.195-.45 0-.82-.16-1.111-.48-.291-.321-.444-.742-.457-1.263h3.58v-.376c0-.843-.191-1.49-.572-1.943-.38-.453-.915-.679-1.601-.679-.42 0-.81.117-1.17.35-.36.232-.64.554-.84.966-.2.412-.3.88-.3 1.404v.166c0 .788.225 1.417.674 1.887.45.47 1.032.706 1.748.706zm1.157-3.223h-2.646c.058-.479.211-.85.459-1.116.247-.265.553-.398.918-.398.377 0 .677.126.898.379.221.252.345.608.371 1.067v.068zM18.39 8V4.25c.211-.505.613-.757 1.206-.757.16 0 .307.012.444.034v-.84c-.091-.045-.225-.068-.4-.068-.544 0-.964.236-1.26.708l-.015-.61h-.879V8h.904zm4.648 0l1.895-5.283h-.923L22.7 6.774l-1.343-4.057h-.922L22.349 8h.688zm3.3-6.172c.177 0 .31-.049.401-.146.091-.098.137-.22.137-.367 0-.146-.046-.27-.137-.37-.09-.102-.224-.152-.4-.152-.176 0-.309.05-.398.151-.09.101-.134.225-.134.371 0 .147.044.269.134.367.09.097.222.146.398.146zM26.783 8V2.717h-.903V8h.903zm3.638.098c.885 0 1.55-.34 1.992-1.02l-.552-.43c-.166.214-.36.387-.58.517-.222.13-.492.195-.811.195-.45 0-.82-.16-1.111-.48-.291-.321-.444-.742-.457-1.263h3.58v-.376c0-.843-.191-1.49-.572-1.943-.38-.453-.915-.679-1.601-.679-.42 0-.81.117-1.17.35-.36.232-.64.554-.84.966-.2.412-.3.88-.3 1.404v.166c0 .788.225 1.417.674 1.887.45.47 1.032.706 1.748.706zm1.157-3.223h-2.646c.058-.479.211-.85.459-1.116.247-.265.553-.398.918-.398.377 0 .677.126.898.379.221.252.345.608.371 1.067v.068zM35.317 8l1.25-4.004L37.852 8h.732l1.538-5.283h-.903l-1.016 4.038-1.255-4.038h-.727l-1.23 3.955-1.04-3.955h-.9L34.586 8h.732zm7.666.098c.603 0 1.093-.143 1.47-.428.378-.284.567-.663.567-1.135 0-.283-.068-.523-.203-.72-.135-.197-.343-.365-.623-.505-.28-.14-.645-.26-1.096-.362-.45-.1-.762-.206-.935-.317-.172-.11-.259-.275-.259-.493 0-.231.093-.419.279-.562.185-.143.442-.215.771-.215.32 0 .584.09.794.269.21.179.315.392.315.64h.908c0-.482-.187-.878-.56-1.187-.372-.31-.858-.464-1.457-.464-.57 0-1.037.15-1.404.45-.366.299-.549.665-.549 1.098 0 .26.064.485.193.674.128.189.327.351.596.488.268.137.631.254 1.088.352.458.097.778.214.962.349.184.135.276.324.276.569 0 .23-.103.415-.31.554-.207.138-.48.207-.823.207-.37 0-.67-.088-.896-.266-.226-.177-.347-.417-.363-.72h-.904c0 .313.092.603.276.872.184.268.439.477.764.627.326.15.7.225 1.123.225zm7.857 0c.475 0 .896-.114 1.262-.342.366-.228.648-.546.845-.955.197-.408.295-.87.295-1.384v-.063c0-.827-.222-1.49-.666-1.988-.445-.498-1.027-.747-1.746-.747-.465 0-.88.112-1.243.337-.363.225-.646.544-.85.957-.203.413-.304.879-.304 1.397v.063c0 .82.222 1.48.666 1.978.444.498 1.025.747 1.74.747zm0-.738c-.456 0-.82-.177-1.091-.532-.272-.355-.408-.825-.408-1.411 0-.66.137-1.169.41-1.523.273-.355.633-.533 1.08-.533.455 0 .82.18 1.095.54.275.36.413.83.413 1.409 0 .647-.135 1.151-.405 1.51-.27.36-.635.54-1.094.54zm4.438 2.671V7.487c.368.407.873.61 1.514.61.628 0 1.126-.245 1.494-.737.368-.491.552-1.139.552-1.943v-.083c0-.853-.185-1.519-.554-1.997-.37-.479-.872-.718-1.507-.718-.654 0-1.165.228-1.533.684l-.044-.586h-.825v7.314h.903zm1.24-2.67c-.556 0-.97-.242-1.24-.723V4.113c.274-.485.684-.727 1.23-.727.443 0 .792.172 1.046.517.254.345.38.816.38 1.411 0 .678-.127 1.188-.383 1.531-.255.344-.6.515-1.032.515zm5.66.737c.885 0 1.55-.34 1.992-1.02l-.552-.43c-.166.214-.36.387-.58.517-.222.13-.492.195-.811.195-.45 0-.82-.16-1.111-.48-.292-.321-.444-.742-.457-1.263h3.58v-.376c0-.843-.191-1.49-.572-1.943-.38-.453-.915-.679-1.602-.679-.42 0-.81.117-1.169.35-.36.232-.64.554-.84.966-.2.412-.3.88-.3 1.404v.166c0 .788.224 1.417.674 1.887.449.47 1.032.706 1.748.706zm1.157-3.223h-2.647c.06-.479.212-.85.46-1.116.247-.265.553-.398.917-.398.378 0 .678.126.899.379.221.252.345.608.371 1.067v.068zM66.187 8V4.235c.123-.254.296-.459.517-.615.221-.156.479-.234.772-.234.36 0 .627.09.798.273.17.182.258.464.261.845V8h.903V4.509c-.01-1.26-.572-1.89-1.689-1.89-.651 0-1.178.254-1.582.762l-.03-.664h-.854V8h.904z"/>
        <path id="rpv9txesnh" d="M1.587 20v-3.765c.124-.254.296-.459.517-.615.222-.156.479-.234.772-.234.361 0 .627.09.798.273.171.182.258.464.262.845V20h.903v-3.491c-.01-1.26-.573-1.89-1.69-1.89-.65 0-1.178.254-1.582.762l-.029-.664H.684V20h.903zm6.782.098c.475 0 .896-.114 1.262-.342.367-.228.648-.546.845-.955.197-.408.295-.87.295-1.384v-.063c0-.827-.222-1.49-.666-1.988-.444-.498-1.026-.747-1.746-.747-.465 0-.88.112-1.242.337-.363.225-.646.544-.85.957-.203.413-.305.879-.305 1.397v.063c0 .82.222 1.48.666 1.978.445.498 1.025.747 1.741.747zm0-.738c-.456 0-.82-.177-1.091-.532-.272-.355-.408-.825-.408-1.411 0-.66.137-1.169.41-1.523.274-.355.633-.533 1.08-.533.455 0 .82.18 1.096.54.275.36.412.83.412 1.409 0 .647-.135 1.151-.405 1.51-.27.36-.635.54-1.094.54zm5.327.64l1.25-4.004L16.23 20h.733l1.538-5.283h-.903l-1.016 4.038-1.255-4.038H14.6l-1.23 3.955-1.04-3.955h-.9L12.965 20h.732zm6.734-2.007l.068-5.102h-.947l.063 5.102h.816zm-.381 2.06c.176 0 .31-.047.4-.143.091-.096.137-.218.137-.364 0-.147-.046-.27-.137-.369-.09-.099-.224-.149-.4-.149-.176 0-.309.05-.398.15-.09.099-.134.221-.134.368 0 .146.044.268.134.364.09.096.222.144.398.144z"/>
    </defs>
    <g fill="none" fill-rule="evenodd">
        <g>
            <path d="M0 0L200 0 200 200 0 200z"/>
            <g>
                <g fill="#B7F1E1" fill-rule="nonzero">
                    <path d="M72 144c-39.765 0-72-32.235-72-72S32.235 0 72 0s72 32.235 72 72-32.235 72-72 72z" transform="translate(28 28)"/>
                </g>
                <g transform="translate(28 28)">
                    <mask id="5qv3xrv76b" fill="#fff">
                        <use xlink:href="#2vqtrmo36a"/>
                    </mask>
                    <g mask="url(#5qv3xrv76b)">
                        <g>
                            <path fill="#C8F8F6" fill-rule="nonzero" d="M58.074 29.098c0 16.003-12.973 28.976-28.976 28.976S.122 45.1.122 29.098 13.095.122 29.098.122s28.976 12.973 28.976 28.976" transform="translate(62 72)"/>
                            <path stroke="#5CECE4" stroke-width=".974" d="M29.098 20.723V79.99m0-31.787l6.45-6.45m-6.207-12.911l3.322-3.322m-3.565 13.06l-6.182-6.182" transform="translate(62 72)"/>
                        </g>
                    </g>
                </g>
                <g transform="translate(28 28)">
                    <mask id="jspjp82dvd" fill="#fff">
                        <use xlink:href="#7d2dgm09ic"/>
                    </mask>
                    <g mask="url(#jspjp82dvd)">
                        <g>
                            <path fill="#94F2ED" fill-rule="nonzero" d="M25.063 37.874c0 8.34-5.443 12.993-12.532 12.993C5.443 50.867 0 46.214 0 37.874 0 20.315 7.998.073 12.531.073s12.532 20.242 12.532 37.801" transform="translate(110 74)"/>
                            <path stroke="#FFF" stroke-linecap="square" d="M12.595 25.47v38.492m.086-18.101l4.435-4.435M12.16 37.41l-3.629-3.629m4.219-2.056l2.77-2.771" transform="translate(110 74)"/>
                        </g>
                    </g>
                </g>
                <g transform="translate(28 28)">
                    <mask id="b1o9wqow5f" fill="#fff">
                        <use xlink:href="#txeykn97ae"/>
                    </mask>
                    <g mask="url(#b1o9wqow5f)">
                        <g>
                            <g>
                                <path fill="#19141E" fill-rule="nonzero" d="M17.477 14.155c0 4.37-2.81 7.913-6.277 7.913-3.466 0-6.276-3.543-6.276-7.913s2.81-7.914 6.276-7.914c3.467 0 6.277 3.543 6.277 7.914" transform="translate(48 39) translate(32) matrix(-1 0 0 1 22.401 0)"/>
                                <path fill="#E576C6" fill-rule="nonzero" d="M27.185 45.503l-.262-9.09s11.02.88 13.377-.347c0 0 2.88-14.877-.556-23.116l-.07-.32L16.42 9.903l-1.303 13.374c-.785-2.316-7.249-4.941-8.939-1.625-3.662 7.185 9.433 12.023 9.433 12.023l-1.33 11.937" transform="translate(48 39) translate(32) matrix(-1 0 0 1 46.962 0)"/>
                                <path fill="#000" fill-rule="nonzero" d="M27.47 36.414L20.039 34.817 27.434 39.824z" opacity=".399" transform="translate(48 39) translate(32) matrix(-1 0 0 1 47.509 0)"/>
                                <path fill="#405FD3" fill-rule="nonzero" d="M12.042 23.107L14.609 29.399 11.532 29.438z" transform="translate(48 39) translate(32) matrix(-1 0 0 1 26.141 0)"/>
                                <path fill="#0D0B6D" fill-rule="nonzero" d="M11.27 23.349c.154.848-.407 1.659-1.252 1.812-.846.153-1.655-.41-1.808-1.257-.153-.847.408-1.658 1.254-1.811.845-.153 1.654.409 1.807 1.256m8.628 0c.154.848-.408 1.659-1.253 1.812-.845.153-1.655-.41-1.807-1.257-.153-.847.408-1.658 1.253-1.811.846-.153 1.655.409 1.808 1.256" transform="translate(48 39) translate(32) matrix(-1 0 0 1 28.109 0)"/>
                                <path fill="#2F2F3D" fill-rule="nonzero" d="M8.74 25.56c-2.206-3.782-5.396-4.936-6.827-5.274C1.341 18.632.906 16.713.6 14.673-.22 9.211 3.742 4.228 6.942 2.798c3.24-1.448 8.825-3.454 17-.73 5.497 1.832 9.01-2.555 12.245-.682 5.527 3.203.386 17.224-13.629 13.662-10.024-2.548-10.282-1.909-10.368-.057-.278 5.987-1.21 9.509-3.45 10.569z" transform="translate(48 39) translate(32) matrix(-1 0 0 1 38.858 0)"/>
                                <g>
                                    <path fill="#FFF" fill-rule="nonzero" d="M.25.673s.99 1.799 3.125 1.755" transform="translate(48 39) translate(32) translate(15 29) matrix(-1 0 0 1 3.625 0)"/>
                                    <path stroke="#252535" stroke-width="1.219" d="M3.375.673S2.385 2.472.25 2.428" transform="translate(48 39) translate(32) translate(15 29)"/>
                                </g>
                                <path stroke="#252535" stroke-width="1.219" d="M14.845 23.425c0 1.97 1.594 3.566 3.56 3.566 1.964 0 3.558-1.597 3.558-3.566 0-1.97-1.594-3.567-3.559-3.567s-3.559 1.597-3.559 3.567h0zm-8.961 0c0 1.97 1.594 3.566 3.559 3.566s3.559-1.597 3.559-3.566c0-1.97-1.594-3.567-3.56-3.567-1.964 0-3.558 1.597-3.558 3.567h0zm7.408.165h1.538m7.133-.165h8.791" transform="translate(48 39) translate(32)"/>
                            </g>
                            <g>
                                <path fill="#E576C6" fill-rule="nonzero" d="M86.944 26.327C83.58 32.933 71.77 54.619 63.35 51.16 57.045 48.57 49.5 27.098 49.5 27.098l12.267-7.3 5.512 14.755 11.255-12.228c-.382-2.423-.688-5.59.074-6.706 1.297-1.901 7.86-7.757 7.86-7.757l1.195 9.922.21-.837c0-.046.01-.097.033-.151l.007-.016.484-1.936c-.203-.102-.286-.248-.199-.45.072-.164.227-.344.444-.532l1.65-6.61s.54.24 1.334.601c1.277-.263 5.9 2.88 5.97 2.927.942.609-1.297 10.657-3.115 12.524-1.294 1.327-5.32 2.472-7.536 3.023zM11.788 71.133l.752 1.426s.68 1.166 1.392 3.2c.712 2.034.416 3.279 1.956 6.474 1.75 3.627-1.378 2.132-2.5.548-.875-1.236-.776-2.906-1.91-3.654-.38.606-1.25 1.474-1.734 6.707-.087.939.34 3.983.34 3.983.008.913.125 2.815-.914 3.105-.257.072-.592-.212-.592-.212s.1 1.19-.96 1.427c-.418.093-1.247-2.477-1.247-2.477s-.126 1.305-.919 1.45c-.224.041-2.87-7.406-2.87-7.406l.16 1.682.351 1.723s-.028.927-.773 1.091c-.296.066-.863-1.481-1.395-3.3-.828-2.832-.81-4.96-.567-7.075.294-2.557.163-3.416 1.3-6.55.137-.376.32-.806.524-1.249-.625-5.39-2.384-21.167-2.169-26.01C.275 40.14 6.5 27.099 6.5 27.099l12.637 7.064-6.965 12.691-.383 24.279zm30.233-58.44c-7.32-.431-10.407-4.98-11.112-6.21 4.645-.321 5.13-.274 11.316.367 2.51.26 4.27.793 5.973 1.26.368 1.252.893 4.994-6.177 4.582v.001z" transform="translate(48 39) translate(0 37) matrix(-1 0 0 1 97.813 0)"/>
                                <path fill="#ED5B5B" fill-rule="nonzero" d="M55.646 6.576c.016.063.073.156.138.262.066.106.066.072.387.545.321.474.797.946 1.515 1.679.595.607 1.418 1.202 2.225 1.653.919.513 1.82.856 2.399 1.1.522.22.962.334 1.388.435 1.202.286 2.138.374 4.047.474.231.012 1.573-.087 1.809-.134.336-.067.638-.128 1.018-.231.38-.104 1.326-.545 1.952-1.323.266-.33.518-1.414.44-2.213-.077-.798-.426-.8-.107-.713 5.6 1.524 10.892 4.667 13.986 10.24.25.45.478.882.685 1.3l.044-.01 4.985 11.462-7.048 4.107-1.537 33.79-40.558-8.726-.68-24.678-12.819-9.586S35.96 13.886 46.304 9.062c3.344-1.561 6.411-2.298 9.264-2.58.234-.023.05-.016.078.094z" transform="translate(48 39) translate(0 37) matrix(-1 0 0 1 122.472 0)"/>
                                <path stroke="#000" stroke-width="1.524" d="M68.67 35.594L71.921 37.794 79.738 28.718" opacity=".201" transform="translate(48 39) translate(0 37) matrix(-1 0 0 1 148.408 0)"/>
                                <path fill="#5E93D1" fill-rule="nonzero" d="M11.477 19.551L10.91 22.321 1.738 22.321 6.064 0.261 15.237 0.261 13.557 8.827 11.753 7.993 11.192 7.838 10.749 7.862 10.558 7.992 10.558 8.529 12.518 11.341 11.018 11.993 8.711 13.2 8.044 13.66 7.786 13.899 7.575 14.087 7.44 14.249 7.36 14.394 7.325 14.582 7.359 14.665 7.399 14.729 7.458 14.787 8.214 15.053 9.94 14.582 11.645 14.582 9.369 15.053 7.869 15.948 7.359 16.428 7.071 16.779 7.071 17.101 7.575 17.327 10.749 16.964 9.699 17.534 9.001 17.964 8.363 18.294 7.869 18.929 7.869 19.242 8.044 19.426 8.487 19.662 10.526 19.662 11.476 19.55z" transform="translate(48 39) translate(0 37) matrix(-1 0 0 1 16.975 0)"/>
                                <path fill="#020101" fill-rule="nonzero" d="M10.807 22.321H9.29L13.616.261h1.518l-4.327 22.06zm5.907-19.499c-.127.645-.503 1.114-.84 1.048-.337-.065-.507-.64-.38-1.285.127-.645.503-1.114.84-1.048.336.065.506.641.38 1.285" transform="translate(48 39) translate(0 37) matrix(-1 0 0 1 26.046 0)"/>
                            </g>
                        </g>
                    </g>
                </g>
            </g>
            <g fill-rule="nonzero" transform="translate(16 44)">
                <g fill="#000">
                    <rect width="128" height="55" rx="4"/>
                </g>
                <rect width="127" height="54" x=".5" y=".5" fill="#FFF" stroke="#D8DFE0" rx="4"/>
                <g fill="#001443">
                    <g transform="translate(33 9)">
                        <use xlink:href="#m29pm120fg"/>
                        <use xlink:href="#m29pm120fg"/>
                    </g>
                    <g transform="translate(33 9)">
                        <use xlink:href="#rpv9txesnh"/>
                        <use xlink:href="#rpv9txesnh"/>
                    </g>
                </g>
                <g>
                    <path fill="#276EF1" d="M16 2.759c0-.61-.494-1.104-1.103-1.104H1.103C.494 1.655 0 2.15 0 2.76v2.207h16V2.759z" transform="translate(9 11)"/>
                    <path fill="#0038C0" d="M14.897 1.655h-1.104c.61 0 1.104.494 1.104 1.104v2.207H16V2.759c0-.61-.494-1.104-1.103-1.104z" transform="translate(9 11)"/>
                    <path fill="#002F34" d="M10.69 3.31c.457 0 .827-.37.827-.827V.828c0-.457-.37-.828-.827-.828-.457 0-.828.37-.828.828v1.655c0 .457.37.827.828.827zm-9.379 0c.457 0 .827-.37.827-.827V.828C2.138.37 1.768 0 1.311 0 .853 0 .483.37.483.828v1.655c0 .457.37.827.828.827z" transform="translate(9 11) translate(2)"/>
                    <path fill="#F2F4F5" d="M0 4.966v9.93C0 15.507.494 16 1.103 16h13.794c.609 0 1.103-.494 1.103-1.103V4.966H0z" transform="translate(9 11)"/>
                    <path fill="#D8DFE0" d="M14.897 4.966v8.827c0 .61-.494 1.104-1.104 1.104H0C0 15.506.494 16 1.103 16h13.794c.609 0 1.103-.494 1.103-1.103V4.966h-1.103z" transform="translate(9 11)"/>
                </g>
                <rect width="75" height="3" x="9" y="36" fill="#D9D9D9" rx="1.5"/>
                <rect width="56" height="3" x="9" y="43" fill="#D9D9D9" rx="1.5"/>
            </g>
            <g>
                <g>
                    <path fill="#284E52" fill-rule="nonzero" d="M17.477 14.155c0 4.37-2.81 7.913-6.277 7.913-3.466 0-6.276-3.543-6.276-7.913s2.81-7.914 6.276-7.914c3.467 0 6.277 3.543 6.277 7.914" transform="translate(76 67) translate(32) matrix(-1 0 0 1 22.401 0)"/>
                    <path fill="#FFCA9B" fill-rule="nonzero" d="M27.185 45.503l-.262-9.09s11.02.88 13.377-.347c0 0 2.88-14.877-.556-23.116l-.07-.32L16.42 9.903l-1.303 13.374c-.785-2.316-7.249-4.941-8.939-1.625-3.662 7.185 9.433 12.023 9.433 12.023l-1.33 11.937" transform="translate(76 67) translate(32) matrix(-1 0 0 1 46.962 0)"/>
                    <path fill="#000" fill-rule="nonzero" d="M27.47 36.414L20.039 34.817 27.434 39.824z" opacity=".399" transform="translate(76 67) translate(32) matrix(-1 0 0 1 47.509 0)"/>
                    <path fill="#A1584A" fill-rule="nonzero" d="M12.042 23.107L14.609 29.399 11.532 29.438z" transform="translate(76 67) translate(32) matrix(-1 0 0 1 26.141 0)"/>
                    <path fill="#001443" fill-rule="nonzero" d="M11.27 23.349c.154.848-.407 1.659-1.252 1.812-.846.153-1.655-.41-1.808-1.257-.153-.847.408-1.658 1.254-1.811.845-.153 1.654.409 1.807 1.256m8.628 0c.154.848-.408 1.659-1.253 1.812-.845.153-1.655-.41-1.807-1.257-.153-.847.408-1.658 1.253-1.811.846-.153 1.655.409 1.808 1.256" transform="translate(76 67) translate(32) matrix(-1 0 0 1 28.109 0)"/>
                    <path fill="#001443" fill-rule="nonzero" d="M8.74 25.56c-2.206-3.782-5.396-4.936-6.827-5.274C1.341 18.632.906 16.713.6 14.673-.22 9.211 3.742 4.228 6.942 2.798c3.24-1.448 8.825-3.454 17-.73 5.497 1.832 9.01-2.555 12.245-.682 5.527 3.203.386 17.224-13.629 13.662-10.024-2.548-10.282-1.909-10.368-.057-.278 5.987-1.21 9.509-3.45 10.569z" transform="translate(76 67) translate(32) matrix(-1 0 0 1 38.858 0)"/>
                    <g>
                        <path fill="#FFF" fill-rule="nonzero" d="M.25.673s.99 1.799 3.125 1.755" transform="translate(76 67) translate(32) translate(15 29) matrix(-1 0 0 1 3.625 0)"/>
                        <path stroke="#001443" d="M.25.673s.99 1.799 3.125 1.755" transform="translate(76 67) translate(32) translate(15 29) matrix(-1 0 0 1 3.625 0)"/>
                    </g>
                </g>
                <g>
                    <path fill="#FFCA9B" fill-rule="nonzero" d="M86.944 26.327C83.58 32.933 71.77 54.619 63.35 51.16 57.045 48.57 49.5 27.098 49.5 27.098l12.267-7.3 5.512 14.755 11.255-12.228c-.382-2.423-.688-5.59.074-6.706 1.297-1.901 7.86-7.757 7.86-7.757l1.195 9.922.21-.837c0-.046.01-.097.033-.151l.007-.016.484-1.936c-.203-.102-.286-.248-.199-.45.072-.164.227-.344.444-.532l1.65-6.61s.54.24 1.334.601c1.277-.263 5.9 2.88 5.97 2.927.942.609-1.297 10.657-3.115 12.524-1.294 1.327-5.32 2.472-7.536 3.023zM11.788 71.133l.752 1.426s.68 1.166 1.392 3.2c.712 2.034.416 3.279 1.956 6.474 1.75 3.627-1.378 2.132-2.5.548-.875-1.236-.776-2.906-1.91-3.654-.38.606-1.25 1.474-1.734 6.707-.087.939.34 3.983.34 3.983.008.913.125 2.815-.914 3.105-.257.072-.592-.212-.592-.212s.1 1.19-.96 1.427c-.418.093-1.247-2.477-1.247-2.477s-.126 1.305-.919 1.45c-.224.041-2.87-7.406-2.87-7.406l.16 1.682.351 1.723s-.028.927-.773 1.091c-.296.066-.863-1.481-1.395-3.3-.828-2.832-.81-4.96-.567-7.075.294-2.557.163-3.416 1.3-6.55.137-.376.32-.806.524-1.249-.625-5.39-2.384-21.167-2.169-26.01C.275 40.14 6.5 27.099 6.5 27.099l12.637 7.064-6.965 12.691-.383 24.279zm30.233-58.44c-7.32-.431-10.407-4.98-11.112-6.21 4.645-.321 5.13-.274 11.316.367 2.51.26 4.27.793 5.973 1.26.368 1.252.893 4.994-6.177 4.582v.001z" transform="translate(76 67) translate(0 37) matrix(-1 0 0 1 97.813 0)"/>
                    <path fill="#ED5B5B" fill-rule="nonzero" d="M55.646 6.576c.016.063.073.156.138.262.066.106.066.072.387.545.321.474.797.946 1.515 1.679.595.607 1.418 1.202 2.225 1.653.919.513 1.82.856 2.399 1.1.522.22.962.334 1.388.435 1.202.286 2.138.374 4.047.474.231.012 1.573-.087 1.809-.134.336-.067.638-.128 1.018-.231.38-.104 1.326-.545 1.952-1.323.266-.33.518-1.414.44-2.213-.077-.798-.426-.8-.107-.713 5.6 1.524 10.892 4.667 13.986 10.24.25.45.478.882.685 1.3l.044-.01 4.985 11.462-7.132 4.156L83.972 58.5l-29.5-29-8.332 9.102-3.668-2.102.262-.905-12.819-9.586S35.96 13.886 46.304 9.062c3.344-1.561 6.411-2.298 9.264-2.58.234-.023.05-.016.078.094z" transform="translate(76 67) translate(0 37) matrix(-1 0 0 1 122.472 0)"/>
                    <path stroke="#000" stroke-width="1.524" d="M68.67 35.594L71.921 37.794 79.738 28.718" opacity=".201" transform="translate(76 67) translate(0 37) matrix(-1 0 0 1 148.408 0)"/>
                    <path fill="#001443" fill-rule="nonzero" d="M11.477 19.551L10.91 22.321 1.738 22.321 6.064 0.261 15.237 0.261 13.557 8.827 11.753 7.993 11.192 7.838 10.749 7.862 10.558 7.992 10.558 8.529 12.518 11.341 11.018 11.993 8.711 13.2 8.044 13.66 7.786 13.899 7.575 14.087 7.44 14.249 7.36 14.394 7.325 14.582 7.359 14.665 7.399 14.729 7.458 14.787 8.214 15.053 9.94 14.582 11.645 14.582 9.369 15.053 7.869 15.948 7.359 16.428 7.071 16.779 7.071 17.101 7.575 17.327 10.749 16.964 9.699 17.534 9.001 17.964 8.363 18.294 7.869 18.929 7.869 19.242 8.044 19.426 8.487 19.662 10.526 19.662 11.476 19.55z" transform="translate(76 67) translate(0 37) matrix(-1 0 0 1 16.975 0)"/>
                    <path fill="#596685" fill-rule="nonzero" d="M12.429 22.321L10.912 22.321 15.238 0.261 16.756 0.261z" transform="translate(76 67) translate(0 37) matrix(-1 0 0 1 27.668 0)"/>
                    <path fill="#FFF" fill-rule="nonzero" d="M10.553 2.822c-.127.645-.503 1.114-.84 1.048-.337-.065-.507-.64-.38-1.285.127-.645.503-1.114.84-1.048.336.065.506.641.38 1.285" transform="translate(76 67) translate(0 37) matrix(-1 0 0 1 19.885 0)"/>
                </g>
            </g>
        </g>
    </g>
</svg>
