<svg xmlns="http://www.w3.org/2000/svg" width="20" height="20" viewBox="0 0 20 20">
    <g fill="none" fill-rule="evenodd">
        <path d="M0 0L20 0 20 20 0 20z"/>
        <path fill="#00A49F" fill-rule="nonzero" d="M17.167 14.083c-1.042 0-2.042-.166-2.975-.475-.084-.025-.175-.041-.259-.041-.216 0-.425.083-.591.241l-1.834 1.834c-2.358-1.2-4.291-3.125-5.491-5.492L7.85 8.308c.233-.216.3-.541.208-.833-.308-.933-.475-1.933-.475-2.975 0-.458-.375-.833-.833-.833H3.833c-.458 0-.833.375-.833.833 0 7.825 6.342 14.167 14.167 14.167.458 0 .833-.375.833-.834v-2.916c0-.459-.375-.834-.833-.834zm0-9.583v-.417c0-1.15-.934-2.083-2.084-2.083S13 2.933 13 4.083V4.5c-.458 0-.833.375-.833.833v3.334c0 .458.375.833.833.833h4.167c.458 0 .833-.375.833-.833V5.333c0-.458-.375-.833-.833-.833zm-.834 0h-2.5v-.417c0-.691.559-1.25 1.25-1.25.692 0 1.25.559 1.25 1.25V4.5z"/>
        <path fill="#FFF" fill-rule="nonzero" d="M4.692 5.333h1.25c.058.734.183 1.459.375 2.15l-1 1.009c-.334-1.009-.55-2.059-.625-3.159zM16.333 16.975c-1.1-.075-2.166-.292-3.166-.633l1-1c.708.2 1.433.325 2.166.375v1.258z"/>
    </g>
</svg>
