<svg xmlns="http://www.w3.org/2000/svg" xmlns:xlink="http://www.w3.org/1999/xlink" width="20" height="18" viewBox="0 0 20 18">
    <defs>
        <path id="1czc4d2gna" d="M13.631 0l1.026 3.086h4.574l.769.771V17.23l-.77.771H.77L0 17.229V3.857l.77-.771h4.573L6.37 0h7.262zm-1.108 1.543H7.477L6.452 4.629H1.539v11.828h16.923V4.63h-4.914l-1.025-3.086zM10 5.143c2.686 0 4.872 2.192 4.872 4.886S12.686 14.914 10 14.914s-4.872-2.191-4.872-4.885S7.314 5.143 10 5.143zm0 1.543c-1.838 0-3.333 1.5-3.333 3.343S8.162 13.37 10 13.37s3.333-1.5 3.333-3.342c0-1.844-1.495-3.343-3.333-3.343z"/>
    </defs>
    <g fill="none" fill-rule="evenodd">
        <mask id="1nlerm010b" fill="#fff">
            <use xlink:href="#1czc4d2gna"/>
        </mask>
        <path fill="#5B787C" d="M-5 -5L25 -5 25 23 -5 23z" mask="url(#1nlerm010b)"/>
    </g>
</svg>
