<svg xmlns="http://www.w3.org/2000/svg" width="48" height="48" viewBox="0 0 48 48">
    <g fill="none" fill-rule="evenodd">
        <path d="M0 0H48V48H0z"/>
        <path fill="#E9FCFB" d="M44 23.92c0 11.003-8.919 19.922-19.92 19.922-11.003 0-19.922-8.919-19.922-19.921C4.158 12.919 13.077 4 24.08 4 35.081 4 44 12.919 44 23.92"/>
        <g fill-rule="nonzero" transform="translate(0 12)">
            <path fill="#5B787C" d="M38.461 27.826H1.114C.499 27.826 0 27.327 0 26.712v-1.747c0-.615.499-1.114 1.114-1.114H38.46c.615 0 1.114.499 1.114 1.114v1.747c0 .615-.499 1.114-1.114 1.114z"/>
            <path fill="#406367" d="M38.46 23.85h-2.389c.616 0 1.115.5 1.115 1.114v1.749c0 .615-.499 1.113-1.115 1.113h2.39c.615 0 1.114-.498 1.114-1.113v-1.75c0-.614-.5-1.112-1.115-1.112z"/>
            <path fill="#002F34" d="M35.316 23.85H4.26c-.878 0-1.59-.711-1.59-1.59L2.667 1.592c0-.879.712-1.591 1.59-1.591L35.316 0c.88 0 1.592.712 1.592 1.591V22.26c0 .879-.712 1.591-1.59 1.591z"/>
            <path fill="#16C7BF" d="M19.787 11.922H5.057V2.686c0-.176.142-.319.318-.319h14.412v9.555z"/>
            <path fill="#2C7B78" d="M34.518 11.925h-14.73v-9.54H34.2c.176 0 .318.143.318.318v9.222z"/>
            <path fill="#94F2ED" d="M19.787 21.478H5.375c-.176 0-.319-.143-.319-.319v-9.237h14.731v9.556z"/>
            <path fill="#FFD75D" d="M34.2 21.466H19.787v-9.54h14.731v9.222c0 .175-.142.318-.318.318z"/>
            <path fill="#002F34" d="M36.907 22.26c0 .878-.712 1.59-1.592 1.59h-2.389c.88 0 1.593-.712 1.593-1.59l-.001-20.67c0-.877-.71-1.588-1.589-1.59h2.385c.88 0 1.593.712 1.593 1.59v20.67z"/>
            <path fill="#406367" d="M22.318 25.759h-5.061c-.493 0-.894-.4-.894-.894v-1.014h6.848v1.014c0 .494-.4.894-.893.894z"/>
            <circle cx="12.422" cy="6.71" r="1.593" fill="#FFAA9A"/>
            <path fill="#FFF" d="M13.014 11.886H9.83v-1.99c0-.88 1.713-1.593 2.593-1.593.88 0 2.593.713 2.593 1.592v1.991h-2z"/>
            <circle cx="27.076" cy="6.71" r="1.593" fill="#FFD5CD"/>
            <path fill="#00A49F" d="M28.669 11.886h-4.185v-1.99c0-.88 1.713-1.593 2.592-1.593.88 0 2.593.713 2.593 1.592v1.991h-1z"/>
            <circle cx="12.422" cy="16.302" r="1.593" fill="#FFD5CD"/>
            <path fill="#00A49F" d="M14.014 21.478H9.83v-1.991c0-.88 1.713-1.593 2.593-1.593.88 0 2.593.713 2.593 1.593v1.99h-1z"/>
            <circle cx="27.076" cy="16.302" r="1.593" fill="#FFF"/>
            <path fill="#FF8169" d="M28.669 21.478h-4.185v-1.991c0-.88 1.713-1.593 2.592-1.593.88 0 2.593.713 2.593 1.593v1.99h-1z"/>
        </g>
    </g>
</svg>
