<svg xmlns="http://www.w3.org/2000/svg" xmlns:xlink="http://www.w3.org/1999/xlink" width="64" height="64" viewBox="0 0 64 64">
    <defs>
        <path id="prefix__a" d="M58.667 31.895c0 14.669-11.892 26.56-26.562 26.56-14.669 0-26.56-11.891-26.56-26.56 0-14.67 11.891-26.562 26.56-26.562 14.67 0 26.562 11.892 26.562 26.562"/>
    </defs>
    <g fill="none" fill-rule="evenodd">
        <path d="M0 0H64V64H0z"/>
        <mask id="prefix__b" fill="#fff">
            <use xlink:href="#prefix__a"/>
        </mask>
        <use fill="#E9FCFB" xlink:href="#prefix__a"/>
        <g mask="url(#prefix__b)">
            <g fill-rule="nonzero">
                <path fill="#FFEDB2" d="M38.989 3.678h3.678v36.046c0 1.625-1.318 2.943-2.943 2.943H2.943C1.318 42.667 0 41.349 0 39.724V3.678h38.988z" transform="translate(20 9.333)"/>
                <path fill="#FFFBEF" d="M40.322 3.678H44v36.046c0 1.625-1.318 2.943-2.943 2.943H4.276c-1.625 0-2.943-1.318-2.943-2.943V3.678h38.988z" transform="translate(20 9.333)"/>
                <path fill="#FFCE32" d="M1.333 3.678L44 3.678 44 11.77 1.333 11.77z" transform="translate(20 9.333)"/>
                <g>
                    <path fill="#284E52" d="M1.471 7.356C.658 7.356 0 6.698 0 5.886V1.47C0 .658.658 0 1.471 0c.813 0 1.472.658 1.472 1.471v4.414c0 .813-.659 1.471-1.472 1.471z" transform="translate(20 9.333) translate(5.011)"/>
                    <path fill="#454A6D" d="M33.84 7.356c-.814 0-1.472-.658-1.472-1.47V1.47c0-.813.658-1.471 1.471-1.471.813 0 1.471.658 1.471 1.471v4.414c0 .813-.658 1.471-1.47 1.471z" transform="translate(20 9.333) translate(5.011)"/>
                </g>
                <path fill="#00A49F" d="M14.161 14.713L20.046 14.713 20.046 20.598 14.161 20.598zM4.276 14.713L10.161 14.713 10.161 20.598 4.276 20.598z" transform="translate(20 9.333)"/>
                <path fill="#FFE48D" d="M24.046 14.713L29.931 14.713 29.931 20.598 24.046 20.598zM33.931 14.713L39.816 14.713 39.816 20.598 33.931 20.598z" transform="translate(20 9.333)"/>
                <path fill="#00A49F" d="M4.276 24.598L10.161 24.598 10.161 30.483 4.276 30.483z" transform="translate(20 9.333)"/>
                <path fill="#FFE48D" d="M14.161 24.598L20.046 24.598 20.046 30.483 14.161 30.483zM24.046 24.598L29.931 24.598 29.931 30.483 24.046 30.483zM33.931 24.598L39.816 24.598 39.816 30.483 33.931 30.483zM35.172 33.839L41.057 33.839 41.057 39.724 35.172 39.724zM4.276 34.483L10.161 34.483 10.161 40.368 4.276 40.368zM14.161 34.483L20.046 34.483 20.046 40.368 14.161 40.368zM24.046 34.483L29.931 34.483 29.931 40.368 24.046 40.368z" transform="translate(20 9.333)"/>
            </g>
        </g>
    </g>
</svg>
