<svg xmlns="http://www.w3.org/2000/svg" xmlns:xlink="http://www.w3.org/1999/xlink" width="48" height="48" viewBox="0 0 48 48">
    <defs>
        <path id="prefix__a" d="M44 23.92c0 11.003-8.919 19.922-19.92 19.922-11.003 0-19.922-8.919-19.922-19.921C4.158 12.919 13.077 4 24.08 4 35.081 4 44 12.919 44 23.92"/>
    </defs>
    <g fill="none" fill-rule="evenodd">
        <path d="M0 0H48V48H0z"/>
        <mask id="prefix__b" fill="#fff">
            <use xlink:href="#prefix__a"/>
        </mask>
        <use fill="#E9FCFB" xlink:href="#prefix__a"/>
        <g mask="url(#prefix__b)">
            <g fill-rule="nonzero">
                <path fill="#FFEDB2" d="M29.241 2.759H32v27.034C32 31.012 31.012 32 29.793 32H2.207C.988 32 0 31.012 0 29.793V2.76h29.241z" transform="translate(15 7)"/>
                <path fill="#FFFBEF" d="M30.241 2.759H33v27.034C33 31.012 32.012 32 30.793 32H3.207C1.988 32 1 31.012 1 29.793V2.76h29.241z" transform="translate(15 7)"/>
                <path fill="#FFCE32" d="M1 2.759L33 2.759 33 8.828 1 8.828z" transform="translate(15 7)"/>
                <g>
                    <path fill="#284E52" d="M1.103 5.517C.493 5.517 0 5.023 0 4.414v-3.31C0 .493.494 0 1.103 0c.61 0 1.104.494 1.104 1.103v3.31c0 .61-.494 1.104-1.104 1.104z" transform="translate(15 7) translate(3.759)"/>
                    <path fill="#454A6D" d="M25.38 5.517c-.61 0-1.104-.494-1.104-1.103v-3.31c0-.61.494-1.104 1.103-1.104.61 0 1.104.494 1.104 1.103v3.31c0 .61-.494 1.104-1.104 1.104z" transform="translate(15 7) translate(3.759)"/>
                </g>
                <path fill="#00A49F" d="M10.621 11.034L15.034 11.034 15.034 15.448 10.621 15.448zM3.207 11.034L7.621 11.034 7.621 15.448 3.207 15.448z" transform="translate(15 7)"/>
                <path fill="#FFE48D" d="M18.034 11.034L22.448 11.034 22.448 15.448 18.034 15.448zM25.448 11.034L29.862 11.034 29.862 15.448 25.448 15.448z" transform="translate(15 7)"/>
                <path fill="#00A49F" d="M3.207 18.448L7.621 18.448 7.621 22.862 3.207 22.862z" transform="translate(15 7)"/>
                <path fill="#FFE48D" d="M10.621 18.448L15.034 18.448 15.034 22.862 10.621 22.862zM18.034 18.448L22.448 18.448 22.448 22.862 18.034 22.862zM25.448 18.448L29.862 18.448 29.862 22.862 25.448 22.862zM26.379 25.379L30.793 25.379 30.793 29.793 26.379 29.793zM3.207 25.862L7.621 25.862 7.621 30.276 3.207 30.276zM10.621 25.862L15.034 25.862 15.034 30.276 10.621 30.276zM18.034 25.862L22.448 25.862 22.448 30.276 18.034 30.276z" transform="translate(15 7)"/>
            </g>
        </g>
    </g>
</svg>
