<svg xmlns="http://www.w3.org/2000/svg" xmlns:xlink="http://www.w3.org/1999/xlink" width="64" height="64" viewBox="0 0 64 64">
    <defs>
        <path id="prefix__a" d="M53.123 26.561c0 14.67-11.892 26.562-26.562 26.562C11.891 53.123 0 41.23 0 26.56 0 11.891 11.892 0 26.561 0c14.67 0 26.562 11.892 26.562 26.561"/>
    </defs>
    <g fill="none" fill-rule="evenodd">
        <path d="M0 0H64V64H0z"/>
        <path fill="#C8F8F6" d="M58.667 31.895c0 14.669-11.892 26.56-26.562 26.56-14.669 0-26.56-11.891-26.56-26.56 0-14.67 11.891-26.562 26.56-26.562 14.67 0 26.562 11.892 26.562 26.562"/>
        <g transform="translate(5.544 5.333)">
            <mask id="prefix__b" fill="#fff">
                <use xlink:href="#prefix__a"/>
            </mask>
            <use fill="#E9FCFB" xlink:href="#prefix__a"/>
            <g fill-rule="nonzero" mask="url(#prefix__b)">
                <g>
                    <path fill="#153E42" d="M16.485 49.455c-.536 0-.97-.435-.97-.97v-.97c-.002-1.606-1.303-2.907-2.909-2.909h-.97c-2.676-.003-4.845-2.172-4.848-4.848v-2.91c0-.535.434-.97.97-.97.535 0 .97.435.97.97v2.91c.001 1.605 1.302 2.907 2.908 2.909h.97c2.677.003 4.846 2.172 4.849 4.848v.97c0 .535-.435.97-.97.97z" transform="rotate(-30 35.573 6.12)"/>
                    <path fill="#2C7B78" d="M7.758 0h3.878c1.071 0 1.94.868 1.94 1.94v5.818c0 1.07-.869 1.939-1.94 1.939H7.758V0zM7.758 27.152h3.878c1.071 0 1.94.868 1.94 1.939v5.818c0 1.071-.869 1.94-1.94 1.94H7.758v-9.697z" transform="rotate(-30 35.573 6.12)"/>
                    <path fill="#00A49F" d="M5.818 9.697v17.455h3.879v9.696h-1.94C3.474 36.848 0 33.375 0 29.091V7.758C0 3.473 3.473 0 7.758 0h1.939v9.697H5.818z" transform="rotate(-30 35.573 6.12)"/>
                </g>
            </g>
        </g>
        <g fill-rule="nonzero" transform="translate(26.667 14.667)">
            <path fill="#FFD75D" d="M25.6 18.963V2.37C25.6 1.061 24.558 0 23.273 0H5.818C4.533 0 3.491 1.061 3.491 2.37v4.741H0l3.49 2.963v8.889c0 1.31 1.043 2.37 2.328 2.37h17.455c1.285 0 2.327-1.06 2.327-2.37z"/>
            <circle cx="14.933" cy="9.6" r="3.2" fill="#FFF"/>
            <path fill="#FF8169" d="M18.21 21.333H9.6v-4.74c0-2.095 3.524-3.793 5.333-3.793 1.81 0 5.334 1.698 5.334 3.793v4.74h-2.058z"/>
        </g>
    </g>
</svg>
