<svg xmlns="http://www.w3.org/2000/svg" xmlns:xlink="http://www.w3.org/1999/xlink" width="48" height="48" viewBox="0 0 48 48">
    <defs>
        <path id="prefix__a" d="M39.842 19.92c0 11.003-8.919 19.922-19.921 19.922C8.919 39.842 0 30.923 0 19.92 0 8.919 8.919 0 19.92 0c11.003 0 19.922 8.919 19.922 19.92"/>
    </defs>
    <g fill="none" fill-rule="evenodd">
        <path d="M0 0H48V48H0z"/>
        <path fill="#C8F8F6" d="M44 23.92c0 11.003-8.919 19.922-19.92 19.922-11.003 0-19.922-8.919-19.922-19.921C4.158 12.919 13.077 4 24.08 4 35.081 4 44 12.919 44 23.92"/>
        <g transform="translate(4.158 4)">
            <mask id="prefix__b" fill="#fff">
                <use xlink:href="#prefix__a"/>
            </mask>
            <use fill="#E9FCFB" xlink:href="#prefix__a"/>
            <g fill-rule="nonzero" mask="url(#prefix__b)">
                <g>
                    <path fill="#153E42" d="M12.364 37.09c-.402 0-.728-.325-.728-.726v-.728c-.001-1.204-.977-2.18-2.181-2.181h-.728c-2.007-.003-3.634-1.63-3.636-3.637v-2.182c0-.401.326-.727.727-.727.402 0 .727.326.727.727v2.182c.002 1.205.978 2.18 2.182 2.182h.728c2.007.002 3.634 1.629 3.636 3.636v.728c0 .401-.326.727-.727.727z" transform="rotate(-30 26.68 4.59)"/>
                    <path fill="#2C7B78" d="M5.818 0h2.91c.803 0 1.454.651 1.454 1.455v4.363c0 .804-.651 1.455-1.455 1.455H5.818V0zM5.818 20.364h2.91c.803 0 1.454.65 1.454 1.454v4.364c0 .803-.651 1.454-1.455 1.454H5.818v-7.272z" transform="rotate(-30 26.68 4.59)"/>
                    <path fill="#00A49F" d="M4.364 7.273v13.09h2.909v7.273H5.818C2.605 27.636 0 25.031 0 21.818v-16C0 2.605 2.605 0 5.818 0h1.455v7.273h-2.91z" transform="rotate(-30 26.68 4.59)"/>
                </g>
            </g>
        </g>
        <g fill-rule="nonzero" transform="translate(20 11)">
            <path fill="#FFD75D" d="M19.2 14.222V1.778C19.2.796 18.419 0 17.455 0H4.364C3.4 0 2.618.796 2.618 1.778v3.555H0l2.618 2.223v6.666c0 .982.782 1.778 1.746 1.778h13.09c.965 0 1.746-.796 1.746-1.778z"/>
            <circle cx="11.2" cy="7.2" r="2.4" fill="#FFF"/>
            <path fill="#FF8169" d="M13.657 16H7.2v-3.556c0-1.57 2.643-2.844 4-2.844 1.357 0 4 1.274 4 2.844V16h-1.543z"/>
        </g>
    </g>
</svg>
