<svg xmlns="http://www.w3.org/2000/svg" width="18" height="18" viewBox="0 0 18 18">
    <g fill="none" fill-rule="evenodd">
        <g fill="#001443">
            <g>
                <g>
                    <g>
                        <path d="M8.629 14.325c-3.141 0-5.697-2.555-5.697-5.696 0-3.141 2.556-5.697 5.697-5.697 3.14 0 5.696 2.556 5.696 5.697 0 3.14-2.555 5.696-5.696 5.696zm9.016 2.431l.003-.003-3.673-3.672c1.008-1.208 1.616-2.76 1.616-4.452 0-3.84-3.123-6.962-6.962-6.962-3.84 0-6.962 3.123-6.962 6.962 0 3.839 3.123 6.962 6.962 6.962 1.692 0 3.244-.608 4.452-1.615l3.672 3.672.003-.003.689.688h.888v-.888l-.688-.689z" transform="translate(-743 -103) translate(539 88) translate(187) translate(16 14)"/>
                    </g>
                </g>
            </g>
        </g>
    </g>
</svg>
