<svg xmlns="http://www.w3.org/2000/svg" width="24" height="24" viewBox="0 0 24 24">
    <g fill="none" fill-rule="evenodd">
        <path d="M0 0H24V24H0z"/>
        <path fill="#284E52" d="M8 15.343c1.255 0 2.313.87 2.643 2.053l10.611.008.746.777-.755.766-10.6-.008C10.318 20.126 9.258 21 8 21s-2.319-.875-2.645-2.063l-2.6.006L2 18.18l.745-.772 2.611-.006c.327-1.187 1.387-2.06 2.644-2.06zm0 1.543c-.689 0-1.25.576-1.25 1.285 0 .71.561 1.286 1.25 1.286s1.25-.576 1.25-1.286c0-.709-.561-1.285-1.25-1.285zm8-7.715c1.257 0 2.317.873 2.644 2.06l2.61.006.746.772-.755.762-2.6-.006c-.326 1.189-1.387 2.064-2.645 2.064-1.259 0-2.32-.876-2.646-2.066l-10.6.008L2 12.01l.745-.772 10.611-.008C13.686 10.043 14.745 9.17 16 9.17zm0 1.543c-.689 0-1.25.577-1.25 1.286 0 .71.561 1.286 1.25 1.286s1.25-.577 1.25-1.286c0-.71-.561-1.286-1.25-1.286zM8 3c1.256 0 2.316.872 2.643 2.058l10.611.008.746.772-.755.762-10.6-.008C10.32 7.782 9.26 8.657 8 8.657c-1.258 0-2.319-.875-2.645-2.063l-2.6.006L2 5.838l.745-.772 2.611-.006C5.683 3.873 6.743 3 8 3zm0 1.543c-.689 0-1.25.576-1.25 1.286 0 .709.561 1.285 1.25 1.285s1.25-.576 1.25-1.285c0-.71-.561-1.286-1.25-1.286z"/>
    </g>
</svg>
