<svg xmlns="http://www.w3.org/2000/svg" width="40" height="41" viewBox="0 0 40 41">
    <g fill="none">
        <path fill="#FFE48D" d="M40 20c0 4.852-1.728 9.3-4.602 12.763l-6.95-2.08c-5.511-1.65-11.385-1.65-16.896 0l-6.95 2.081c-.868-1.046-1.632-2.183-2.275-3.394C1.05 26.967.248 24.272.05 21.41.016 20.946 0 20.475 0 20c0-3.61.957-6.998 2.631-9.922C6.078 4.057 12.566 0 20 0c7.434 0 13.922 4.057 17.369 10.078 1.014 1.771 1.765 3.713 2.199 5.77.27 1.279.418 2.6.431 3.955L40 20z"/>
        <path fill="#FFE48D" d="M40 20c0 3.716-1.013 7.195-2.78 10.176-.54.912-1.149 1.776-1.822 2.587l-6.95-2.08c-5.511-1.65-11.385-1.65-16.896 0l-6.95 2.081c-.654-.789-1.25-1.63-1.779-2.514C1.03 27.252 0 23.746 0 20c0-3.61.957-6.998 2.631-9.922 1.402 2.449 3.307 4.572 5.572 6.23 3.308 2.42 7.385 3.848 11.797 3.848 4.412 0 8.49-1.428 11.797-3.848 2.265-1.658 4.17-3.781 5.572-6.23C39.043 13.002 40 16.39 40 20z"/>
        <g>
            <path fill="#FFF" d="M16.953.05H4.798C4.02.05 3.39.682 3.39 1.46v8.823h13.564l.864-.52c3.876-2.331 3.363-8.103-.864-9.712z" transform="translate(3.047 9.766)"/>
            <path fill="#EBF1FF" d="M29.108.05H16.953v10.233h13.564V1.46c0-.778-.63-1.41-1.41-1.41z" transform="translate(3.047 9.766)"/>
            <g>
                <path fill="#3A77FF" d="M32.352 11.905v4.607c-3.67 4.422-9.205 7.238-15.399 7.238-6.194 0-11.73-2.816-15.398-7.236v-4.61L3.54 10.38c7.908-6.084 18.92-6.084 26.829 0l1.984 1.526z" transform="translate(3.047 9.766) translate(0 6.484)"/>
                <path fill="#2A52AD" d="M32.352 11.905v4.607c-3.67 4.422-9.205 7.238-15.399 7.238V11.905c4.145-4.405 11.133-4.44 15.322-.08l.077.08z" transform="translate(3.047 9.766) translate(0 6.484)"/>
                <path fill="#3A77FF" d="M16.953 11.905H1.555L.15 2.63C-.237 1.35.723.058 2.062.058h14.891l.102.053c4.808 2.49 4.748 9.387-.102 11.794z" transform="translate(3.047 9.766) translate(0 6.484)"/>
                <path fill="#3162CD" d="M33.757 2.631l-1.405 9.274H16.953V.058h14.893c1.339 0 2.297 1.292 1.911 2.573z" transform="translate(3.047 9.766) translate(0 6.484)"/>
                <g>
                    <path fill="#FFF" d="M4.654 16.26c-2.56 0-4.64-2.081-4.64-4.64h2.348c0 1.264 1.028 2.292 2.292 2.292 1.263 0 2.291-1.028 2.291-2.292 0-1.263-1.028-2.291-2.291-2.291v-2.35c1.263 0 2.291-1.027 2.291-2.29 0-1.264-1.028-2.292-2.291-2.292-1.264 0-2.292 1.028-2.292 2.291H.013c0-2.558 2.082-4.64 4.64-4.64 2.56 0 4.64 2.082 4.64 4.64 0 1.377-.602 2.616-1.557 3.466.955.85 1.558 2.09 1.558 3.466 0 2.559-2.082 4.64-4.64 4.64z" transform="translate(3.047 9.766) translate(0 6.484) translate(7.578 3.75)"/>
                    <path fill="#EBF1FF" d="M15.452 16.26L13.103 16.26 13.103 2.397 11.38 2.397 11.38 0.048 15.452 0.048z" transform="translate(3.047 9.766) translate(0 6.484) translate(7.578 3.75)"/>
                </g>
            </g>
        </g>
    </g>
</svg>
