<svg width="14" height="16" viewBox="0 0 14 16" fill="none" xmlns="http://www.w3.org/2000/svg">
<path fill-rule="evenodd" clip-rule="evenodd" d="M8.65606 0.423828H9.21906L9.22406 0.991828V2.69683H13.7691V15.5758H10.3601V12.9238H8.84506V15.5758H5.43606V2.69583H8.08806V1.56083H1.26906V15.5768H0.133057V0.423828H8.65606ZM12.6331 3.83383H6.57306V14.4388H7.70906V11.7878H11.4971V14.4388H12.6331V3.83383ZM3.92106 11.7878V13.3028H2.40606V11.7878H3.92106ZM9.22306 9.51383V11.0288H7.70906V9.51483H9.22306V9.51383ZM11.4961 9.51383V11.0288H9.98106V9.51483H11.4971L11.4961 9.51383ZM3.92006 9.51383V11.0288H2.40606V9.51483H3.92106L3.92006 9.51383ZM9.22306 7.24183V8.75683H7.70906V7.24183H9.22306ZM11.4961 7.24183V8.75683H9.98106V7.24183H11.4971H11.4961ZM3.92006 7.24183V8.75683H2.40606V7.24183H3.92106H3.92006ZM3.92006 4.96883V6.48483H2.40606V4.96883H3.92106H3.92006ZM9.22306 4.96883V6.48483H7.70906V4.96883H9.22306ZM11.4961 4.96883V6.48483H9.98106V4.96883H11.4971H11.4961ZM3.92106 2.69683V4.21183H2.40606V2.69683H3.92106V2.69683Z" fill="#676574"/>
</svg>
