<svg xmlns="http://www.w3.org/2000/svg" width="12" height="11" viewBox="0 0 12 11">
    <g fill="none" fill-rule="evenodd">
        <g fill="#FF8A33" fill-rule="nonzero" stroke="#FF8A33" stroke-width=".2">
            <g>
                <g>
                    <g>
                        <g>
                            <path d="M5.667 7.273c.09 0 .173.04.236.105.06.07.097.16.097.258 0 .099-.037.19-.097.259C5.84 7.96 5.757 8 5.667 8h-4C1.223 8 .8 7.807.487 7.47.177 7.126 0 6.664 0 6.181V1.818C0 1.335.177.873.487.531.8.193 1.223 0 1.667 0h6.666c.444 0 .867.193 1.18.53.31.343.487.805.487 1.288v4c0 .098-.037.19-.097.258-.063.066-.146.106-.236.106s-.174-.04-.237-.106c-.06-.069-.097-.16-.097-.258v-4c0-.29-.106-.567-.293-.77-.187-.204-.44-.32-.707-.32H1.667c-.267 0-.52.116-.707.32-.187.203-.293.48-.293.77v4.364c0 .29.106.567.293.77.187.204.44.32.707.32h4z" transform="translate(-719 -178) translate(690.002 146.002) translate(18.998 20.998) translate(11 7) translate(0 5)"/>
                            <path d="M9.517 1.038c.08-.042.17-.05.257-.021.083.032.153.096.19.177.04.085.047.18.02.272-.03.089-.09.163-.167.202L5.747 3.83c-.004 0-.007.004-.01.004-.23.113-.484.17-.737.166-.253.003-.507-.053-.737-.166-.003 0-.006-.004-.01-.004L.183 1.668c-.077-.039-.137-.113-.167-.202-.027-.092-.02-.187.02-.272.037-.081.107-.145.19-.177.087-.028.177-.021.257.021L4.55 3.193c.14.07.293.103.45.1.157.003.31-.03.45-.1l4.067-2.155zM8.112 8.487l1.002-.774c.074-.057.112-.132.112-.213 0-.081-.038-.156-.112-.213l-1.002-.774C8.042 6.456 8 6.381 8 6.3c0-.081.043-.156.112-.213.074-.054.17-.087.275-.087.104 0 .201.033.275.087l.998.777s0 0 0 0c.22.168.34.396.34.636s-.12.468-.34.636c0 0 0 0 0 0l-.998.777c-.074.054-.17.087-.275.087-.105 0-.201-.033-.275-.087C8.042 8.856 8 8.781 8 8.7c0-.081.043-.156.112-.213z" transform="translate(-719 -178) translate(690.002 146.002) translate(18.998 20.998) translate(11 7) translate(0 5)"/>
                            <path d="M7.3 8c-.081 0-.156-.055-.213-.145C7.033 7.76 7 7.635 7 7.5c0-.135.033-.26.087-.355.057-.09.132-.145.213-.145h2.4c.081 0 .156.055.213.145.054.095.087.22.087.355 0 .135-.033.26-.087.355-.057.09-.132.145-.213.145H7.3z" transform="translate(-719 -178) translate(690.002 146.002) translate(18.998 20.998) translate(11 7) translate(0 5)"/>
                        </g>
                    </g>
                </g>
            </g>
        </g>
    </g>
</svg>
