<svg xmlns="http://www.w3.org/2000/svg" xmlns:xlink="http://www.w3.org/1999/xlink" width="40" height="40" viewBox="0 0 40 40">
    <defs>
        <path id="bcdvt10x1c" d="M26 6.4c.652 1.244 1.14 4.133 1.467 8.667H0C.326 10.533.815 7.644 1.467 6.4c.977-1.867 5.066-4 12.266-6.4 7.2 2.4 11.29 4.533 12.267 6.4z"/>
        <path id="7p6ftc2xwe" d="M8.024 3.294C8.557.961 6.028-.83 3.424.399-2.71 3.294.939 7.333 3.206 7.067 5.472 6.8 7.49 5.627 8.024 3.294z"/>
        <circle id="5pu4rug7ia" cx="20" cy="20" r="20"/>
    </defs>
    <g fill="none" fill-rule="evenodd">
        <g>
            <g transform="translate(-364 -451) translate(364 451)">
                <mask id="6ypn6rzurb" fill="#fff">
                    <use xlink:href="#5pu4rug7ia"/>
                </mask>
                <use fill="#EEF4FE" fill-rule="nonzero" xlink:href="#5pu4rug7ia"/>
                <g mask="url(#6ypn6rzurb)">
                    <g transform="translate(6.267 26)">
                        <mask id="50ce9lg37d" fill="#fff">
                            <use xlink:href="#bcdvt10x1c"/>
                        </mask>
                        <use fill="#E3464D" fill-rule="nonzero" xlink:href="#bcdvt10x1c"/>
                        <path fill="#FFF" fill-rule="nonzero" d="M.4 13.067c.442 0 .8.358.8.8 0 .441-.358.8-.8.8-.442 0-.8-.359-.8-.8 0-.442.358-.8.8-.8zm5.333 0c.442 0 .8.358.8.8 0 .441-.358.8-.8.8-.441 0-.8-.359-.8-.8 0-.442.359-.8.8-.8zm5.334 0c.441 0 .8.358.8.8 0 .441-.359.8-.8.8-.442 0-.8-.359-.8-.8 0-.442.358-.8.8-.8zm5.333 0c.442 0 .8.358.8.8 0 .441-.358.8-.8.8-.442 0-.8-.359-.8-.8 0-.442.358-.8.8-.8zm5.333 0c.442 0 .8.358.8.8 0 .441-.358.8-.8.8-.441 0-.8-.359-.8-.8 0-.442.359-.8.8-.8zm5.334 0c.441 0 .8.358.8.8 0 .441-.359.8-.8.8-.442 0-.8-.359-.8-.8 0-.442.358-.8.8-.8zm-24-2.667c.441 0 .8.358.8.8 0 .442-.359.8-.8.8-.442 0-.8-.358-.8-.8 0-.442.358-.8.8-.8zm5.333 0c.442 0 .8.358.8.8 0 .442-.358.8-.8.8-.442 0-.8-.358-.8-.8 0-.442.358-.8.8-.8zm5.333 0c.442 0 .8.358.8.8 0 .442-.358.8-.8.8-.441 0-.8-.358-.8-.8 0-.442.359-.8.8-.8zm5.334 0c.441 0 .8.358.8.8 0 .442-.359.8-.8.8-.442 0-.8-.358-.8-.8 0-.442.358-.8.8-.8zm5.333 0c.442 0 .8.358.8.8 0 .442-.358.8-.8.8-.442 0-.8-.358-.8-.8 0-.442.358-.8.8-.8zM.4 7.733c.442 0 .8.359.8.8 0 .442-.358.8-.8.8-.442 0-.8-.358-.8-.8 0-.441.358-.8.8-.8zm5.333 0c.442 0 .8.359.8.8 0 .442-.358.8-.8.8-.441 0-.8-.358-.8-.8 0-.441.359-.8.8-.8zm5.334 0c.441 0 .8.359.8.8 0 .442-.359.8-.8.8-.442 0-.8-.358-.8-.8 0-.441.358-.8.8-.8zm5.333 0c.442 0 .8.359.8.8 0 .442-.358.8-.8.8-.442 0-.8-.358-.8-.8 0-.441.358-.8.8-.8zm5.333 0c.442 0 .8.359.8.8 0 .442-.358.8-.8.8-.441 0-.8-.358-.8-.8 0-.441.359-.8.8-.8zm5.334 0c.441 0 .8.359.8.8 0 .442-.359.8-.8.8-.442 0-.8-.358-.8-.8 0-.441.358-.8.8-.8zm-24-2.666c.441 0 .8.358.8.8 0 .441-.359.8-.8.8-.442 0-.8-.359-.8-.8 0-.442.358-.8.8-.8zm5.333 0c.442 0 .8.358.8.8 0 .441-.358.8-.8.8-.442 0-.8-.359-.8-.8 0-.442.358-.8.8-.8zm5.333 0c.442 0 .8.358.8.8 0 .441-.358.8-.8.8-.441 0-.8-.359-.8-.8 0-.442.359-.8.8-.8zm5.334 0c.441 0 .8.358.8.8 0 .441-.359.8-.8.8-.442 0-.8-.359-.8-.8 0-.442.358-.8.8-.8zm5.333 0c.442 0 .8.358.8.8 0 .441-.358.8-.8.8-.442 0-.8-.359-.8-.8 0-.442.358-.8.8-.8zM.4 2.4c.442 0 .8.358.8.8 0 .442-.358.8-.8.8-.442 0-.8-.358-.8-.8 0-.442.358-.8.8-.8zm5.333 0c.442 0 .8.358.8.8 0 .442-.358.8-.8.8-.441 0-.8-.358-.8-.8 0-.442.359-.8.8-.8zm16 0c.442 0 .8.358.8.8 0 .442-.358.8-.8.8-.441 0-.8-.358-.8-.8 0-.442.359-.8.8-.8zm5.334 0c.441 0 .8.358.8.8 0 .442-.359.8-.8.8-.442 0-.8-.358-.8-.8 0-.442.358-.8.8-.8z" mask="url(#50ce9lg37d)"/>
                    </g>
                </g>
                <g mask="url(#6ypn6rzurb)">
                    <g transform="translate(21.333 3.733)">
                        <mask id="6g8cwk8ytf" fill="#fff">
                            <use xlink:href="#7p6ftc2xwe"/>
                        </mask>
                        <use fill="#001443" transform="matrix(-1 0 0 1 8.14 0)" xlink:href="#7p6ftc2xwe"/>
                        <path fill="#E0713F" d="M2.333 3.667C5.356 5.622 7.244 6.067 8 5c.117.668-.42 2.555-1.267 2.533-1.686-.044-3.153-1.332-4.4-3.866z" mask="url(#6g8cwk8ytf)" opacity=".6" style="mix-blend-mode:multiply"/>
                    </g>
                </g>
                <path fill="#001443" d="M22.933 21.733c-2.864 1.376-3.282 1.303-9.6-3.866-9.533-7.8-.533-14.934 9.134-11.134 10.466 4.6 6.96 11.881.466 15z" mask="url(#6ypn6rzurb)"/>
                <path fill="#E88C54" d="M23.2 27.2c-.978 1.6-5.422 1.6-6.4 0v-2.667c-.29.009-.534.009-.733 0-3.119-.133-4.161-5.15-3.672-10.168.359-3.675 3.472 1.368 8.538-2.165-.2 3.867 1.467 3.467 2.2 3 3.334-1.533 3.362 4.752.067 4.267V27.2z" mask="url(#6ypn6rzurb)"/>
                <path fill="#B0683C" fill-rule="nonzero" d="M16.787 24.455c1.203-.047 2.72-.666 4.552-1.856-.92 1.8-2.45 2.819-4.594 3.055l.042-1.2z" mask="url(#6ypn6rzurb)" transform="rotate(-2 19.042 24.127)"/>
                <path fill="#FFF" fill-rule="nonzero" d="M23.2 26.861V26c.245 0 .945.578 1.305 1.067 1.423 1.933-.156 3.666-1.443 3.666-1.625 0-2.702-1.357-3.062-2.01-.36.653-1.437 2.01-3.062 2.01-1.287 0-2.866-1.733-1.443-3.666.36-.49 1.06-1.067 1.305-1.067v.861c0 1.02 2.232 1.492 3.196 1.536.912-.044 3.204-.516 3.204-1.536z" mask="url(#6ypn6rzurb)"/>
                <path fill="#001443" d="M23.653 9.524c2.133 5.333.933 7.933-.734 11.066-1.11 2.09-.978 4.111.4 6.067-1.6-1.022-2.4-2.667-2.4-4.933 0-3.4 2.4-5.534.4-8.334s.2-9.2 2.334-3.866z" mask="url(#6ypn6rzurb)" transform="matrix(-1 0 0 1 45.331 0)"/>
            </g>
        </g>
    </g>
</svg>