<svg xmlns="http://www.w3.org/2000/svg" xmlns:xlink="http://www.w3.org/1999/xlink" width="40" height="40" viewBox="0 0 40 40">
    <defs>
        <circle id="omy5hb9yza" cx="20" cy="20" r="20"/>
    </defs>
    <g fill="none" fill-rule="evenodd">
        <g>
            <g transform="translate(-534 -451) matrix(-1 0 0 1 574 451)">
                <mask id="4bmbgku15b" fill="#fff">
                    <use xlink:href="#omy5hb9yza"/>
                </mask>
                <use fill="#FEF2F2" fill-rule="nonzero" transform="matrix(-1 0 0 1 40 0)" xlink:href="#omy5hb9yza"/>
                <path fill="#045C42" d="M32.267 31.333c.652 1.245 1.14 4.134 1.466 8.667H6.267c.326-4.533.814-7.422 1.466-8.667.978-1.866 5.067-4 12.267-6.4 7.2 2.4 11.289 4.534 12.267 6.4z" mask="url(#4bmbgku15b)" transform="matrix(-1 0 0 1 40 0)"/>
                <path fill="#001443" d="M30.426 23.388L8.764 20.77c-1.067-5.669.2-9.24 3.8-10.715C14.23 4.6 20.71 5.044 22.546 5.488c6.25 1.514 8.876 7.48 7.88 17.9z" mask="url(#4bmbgku15b)" transform="matrix(-1 0 0 1 39.03 0)"/>
                <path fill="#FAB68B" d="M14.04 26.533v-8c-3.336-.05-2.685-5.83.667-4.066.6.266 2.133-.467 1.6-2.267 3.6 2.667 8.617-2.013 8.933.867.624 5.668-.582 10.327-3.78 10.327-.315 0-.62.01-1.02-.06v3.2c-1.044.622-2.088.933-3.132.933s-2.133-.311-3.268-.934z" mask="url(#4bmbgku15b)" transform="matrix(-1 0 0 1 37.24 0)"/>
                <path fill="#E88C54" d="M21.467 23.333V24.4c-1.467 0-3.556-.956-4.667-2.867 1.333.89 2.889 1.49 4.667 1.8z" mask="url(#4bmbgku15b)" transform="matrix(-1 0 0 1 38.267 0)"/>
                <path fill="#FFF" d="M19.996 27.33c.912-.044 3.204-.516 3.204-1.535v-.862c.245 0 .945.578 1.305 1.067 1.423 1.933-.156 3.667-1.443 3.667-1.625 0-2.702-1.358-3.062-2.011-.36.653-1.437 2.01-3.062 2.01-1.287 0-2.866-1.733-1.443-3.666.36-.489 1.06-1.067 1.305-1.067v.862c0 1.02 2.232 1.491 3.196 1.535z" mask="url(#4bmbgku15b)" transform="matrix(-1 0 0 1 40 0)"/>
            </g>
        </g>
    </g>
</svg>
