<svg xmlns="http://www.w3.org/2000/svg" xmlns:xlink="http://www.w3.org/1999/xlink" width="40" height="40" viewBox="0 0 40 40">
    <defs>
        <circle id="2hzwru9yha" cx="20" cy="20" r="20"/>
    </defs>
    <g fill="none" fill-rule="evenodd">
        <g>
            <g transform="translate(-194 -451) translate(194 451)">
                <mask id="y8w3tstwqb" fill="#fff">
                    <use xlink:href="#2hzwru9yha"/>
                </mask>
                <use fill="#F3F4F6" fill-rule="nonzero" xlink:href="#2hzwru9yha"/>
                <path fill="#001443" d="M6.835 21.267c-1.081-3.592-1.748-9.734 2.8-13.934C13.111 4.123 22.502 3.8 25.77 10.8c.545 1.169-.2 3-1.667 2.933-.577-.026-.933 1.8-1.267 2.934.467 4.6 4.625 4.685 6.734 8.2 2.6 4.333-.6 10.733-8.267 10.733S9.24 29.254 6.835 21.267z" mask="url(#y8w3tstwqb)" transform="matrix(-1 0 0 1 36.502 0)"/>
                <path fill="#AA1028" d="M32.267 31.733c.652 1.245 1.14 4.134 1.466 8.667H6.267c.326-4.533.814-7.422 1.466-8.667.978-1.866 5.067-4 12.267-6.4 7.2 2.4 11.289 4.534 12.267 6.4z" mask="url(#y8w3tstwqb)"/>
                <path fill="#FFD7B9" d="M23.2 26.933c-1.135.623-2.224.934-3.268.934-1.044 0-2.088-.311-3.132-.934V24c-.399.071-.705.06-1.019.06-3.198 0-4.404-4.659-3.781-10.327.4 0 1.333 0 2.667-1.866-.334 2.6 3.533 2.2 5 .133-.734 2.467 1.2 4.133 2.866 3.133 3.269-1.96 4.003 4.017.667 4.067v7.733z" mask="url(#y8w3tstwqb)"/>
                <path fill="#FAB68B" fill-rule="nonzero" d="M16.8 24c1.778-.311 3.333-.911 4.667-1.8-1.111 1.911-2.667 2.867-4.667 2.867V24z" mask="url(#y8w3tstwqb)"/>
                <path fill="#FFF" d="M20.004 27.73c.964-.044 3.196-.516 3.196-1.535v-.862c.245 0 .945.578 1.305 1.067 1.423 1.933-.156 3.667-1.443 3.667-1.625 0-2.702-1.358-3.062-2.011-.36.653-1.437 2.01-3.062 2.01-1.287 0-2.866-1.733-1.443-3.666.36-.489 1.06-1.067 1.305-1.067v.862c0 1.02 2.292 1.491 3.204 1.535z" mask="url(#y8w3tstwqb)"/>
            </g>
        </g>
    </g>
</svg>
