<svg xmlns="http://www.w3.org/2000/svg" width="48" height="48" viewBox="0 0 48 48">
    <g fill="none" fill-rule="evenodd">
        <g>
            <g>
                <g transform="translate(-296 -604) translate(8 584) translate(288 20)">
                    <path d="M0 0H48V48H0z"/>
                    <circle cx="24" cy="24" r="20" fill="#F6F6F6"/>
                    <g>
                        <path d="M0 0L24 0 24 24 0 24z" transform="translate(12 12)"/>
                        <path fill="#276EF1" fill-rule="nonzero" d="M6.54 5c.06.89.21 1.76.45 2.59l-1.2 1.2c-.41-1.2-.67-2.47-.76-3.79h1.51m9.86 12.02c.85.24 1.72.39 2.6.45v1.49c-1.32-.09-2.59-.35-3.8-.75l1.2-1.19M7.5 3H4c-.55 0-1 .45-1 1 0 9.39 7.61 17 17 17 .55 0 1-.45 1-1v-3.49c0-.55-.45-1-1-1-1.24 0-2.45-.2-3.57-.57-.1-.04-.21-.05-.31-.05-.26 0-.51.1-.71.29l-2.2 2.2c-2.83-1.45-5.15-3.76-6.59-6.59l2.2-2.2c.28-.28.36-.67.25-1.02C8.7 6.45 8.5 5.25 8.5 4c0-.55-.45-1-1-1z" transform="translate(12 12)"/>
                        <path fill="#FFF" fill-rule="nonzero" d="M6.54 5c.06.89.21 1.76.45 2.59l-1.2 1.2c-.41-1.2-.67-2.47-.76-3.79h1.51M16.4 17.02c.85.24 1.72.39 2.6.45v1.49c-1.32-.09-2.59-.35-3.8-.75l1.2-1.19" transform="translate(12 12)"/>
                    </g>
                    <g>
                        <path d="M0 0H16V16H0z" transform="translate(30)"/>
                        <path fill="#276EF1" fill-rule="nonzero" d="M8.938 5H1.374C.619 5 0 5.643 0 6.429v7.142C0 14.357.619 15 1.375 15h8.25c.756 0 1.375-.643 1.375-1.429V6.43C11 5.476 10.312 5 8.937 5zm-.813-1.429C8.125 1.6 9.665 0 11.563 0 13.46 0 15 1.6 15 3.571h-1.375c0-1.185-.921-2.142-2.063-2.142-1.14 0-2.062.957-2.062 2.142V5H8.062l.063-1.429z" transform="translate(30)"/>
                    </g>
                </g>
            </g>
        </g>
    </g>
</svg>
