<svg xmlns="http://www.w3.org/2000/svg" width="20" height="20" viewBox="0 0 20 20">
    <g fill="none" fill-rule="evenodd">
        <g fill="#001443">
            <g>
                <g>
                    <path d="M10.354 17.19c-3.769 0-6.835-3.066-6.835-6.836 0-3.769 3.066-6.835 6.835-6.835 3.77 0 6.836 3.066 6.836 6.835 0 3.77-3.066 6.836-6.836 6.836zm10.82 2.917l.004-.003-4.408-4.407c1.21-1.45 1.939-3.312 1.939-5.343C18.709 5.748 14.96 2 10.354 2 5.748 2 2 5.748 2 10.354c0 4.607 3.748 8.355 8.354 8.355 2.03 0 3.893-.73 5.343-1.938l4.407 4.407.003-.004.827.826H22v-1.066l-.826-.827z" transform="translate(-318 -70) translate(0 56) translate(316 12)"/>
                </g>
            </g>
        </g>
    </g>
</svg>
