<svg xmlns="http://www.w3.org/2000/svg" width="24" height="24" viewBox="0 0 24 24">
    <g fill="none" fill-rule="evenodd">
        <g>
            <g>
                <path d="M0 0H24V24H0z" transform="translate(-925 -181) translate(925 181)"/>
                <path fill="#6F737F" d="M12 6c2.764 0 5 2.191 5 4.9 0 3.675-5 9.1-5 9.1s-5-5.425-5-9.1C7 8.191 9.236 6 12 6zm0 1.4c-1.971 0-3.571 1.568-3.571 3.5 0 1.995 2.085 5.047 3.571 6.916 1.514-1.883 3.571-4.9 3.571-6.916 0-1.932-1.6-3.5-3.571-3.5zm0 1.75c.986 0 1.786.784 1.786 1.75s-.8 1.75-1.786 1.75-1.786-.784-1.786-1.75.8-1.75 1.786-1.75z" transform="translate(-925 -181) translate(925 181)"/>
            </g>
        </g>
    </g>
</svg>
