<svg xmlns="http://www.w3.org/2000/svg" width="184" height="171" viewBox="0 0 184 171">
    <g fill="none" fill-rule="evenodd">
        <g fill-rule="nonzero">
            <g>
                <g>
                    <g opacity=".732">
                        <g>
                            <path fill="#EBEBEB" d="M145.992 1c-25.3 0-25.345 36 0 36 25.344 0 25.344-36 0-36z" transform="translate(-162 -172) translate(24 160) translate(138 12)"/>
                            <path fill="#DBDBDB" d="M161 22.387C159.655 28.606 154.55 34 145.686 34c-20.93 0-20.9-30 0-30h.408c-19.666.362-19.568 28.774.386 28.774 8.14.022 12.991-4.757 14.52-10.387z" transform="translate(-162 -172) translate(24 160) translate(138 12)"/>
                            <path fill="#DBDBDB" d="M146.308 8c.356-.013.657.258.68.61v1.022c1.801.12 3.534.737 5 1.783.253.179.392.33.392.587-.027.374-.352.658-.73.637-.185.006-.365-.058-.505-.179-1.226-.925-2.685-1.497-4.218-1.655v7.132c4.274.816 6.073 2.292 6.073 4.767 0 2.7-2.502 4.61-6.013 4.716v1.985c-.04.34-.33.595-.675.595-.345 0-.635-.256-.675-.595v-2.012c-2.319-.147-4.532-1.013-6.327-2.475-.188-.116-.304-.318-.31-.537.033-.36.338-.636.703-.637.185-.005.365.059.504.179 1.528 1.337 3.45 2.15 5.48 2.32v-7.26c-4.217-.84-5.956-2.242-5.956-4.79 0-2.549 2.47-4.538 5.901-4.611V8.61c.023-.35.321-.62.676-.61zm-.62 9.685V10.71c-2.724.05-4.523 1.526-4.523 3.364 0 1.751.897 2.82 4.523 3.612zm1.235 1.554v7.054c2.812-.05 4.625-1.527 4.625-3.465.014-1.779-.972-2.851-4.625-3.59z" transform="translate(-162 -172) translate(24 160) translate(138 12)"/>
                            <path fill="#EBEBEB" d="M31.495 0c-19.31 0-19.343 27 0 27 19.342 0 19.338-27 0-27z" transform="translate(-162 -172) translate(24 160) translate(138 12)"/>
                            <path fill="#DBDBDB" d="M43 16.486C42.003 21.045 38.213 25 31.637 25c-15.527 0-15.505-22 0-22h.303c-14.589.266-14.518 21.103.289 21.103 6.024.005 9.623-3.48 10.771-7.617z" transform="translate(-162 -172) translate(24 160) translate(138 12)"/>
                            <path fill="#DBDBDB" d="M31.223 5c.254-.007.468.19.482.446v.74c1.287.086 2.524.535 3.57 1.296.181.133.283.24.283.445-.03.264-.258.459-.521.446-.133.005-.263-.042-.363-.13-.876-.67-1.919-1.087-3.013-1.202v5.185c3.053.593 4.339 1.648 4.339 3.461 0 1.965-1.768 3.35-4.295 3.426v1.444c-.024.251-.234.443-.484.443-.25 0-.46-.192-.484-.443v-1.462c-1.653-.102-3.233-.725-4.516-1.782-.135-.084-.218-.232-.221-.392.031-.255.248-.447.504-.445.133-.003.262.044.362.134 1.093.966 2.466 1.55 3.915 1.666v-5.293c-3.013-.61-4.26-1.63-4.26-3.479 0-1.849 1.768-3.297 4.216-3.354v-.704c.017-.257.232-.454.486-.446zm-.442 7.039V6.983c-1.948.04-3.234 1.113-3.234 2.445 0 1.274.645 2.036 3.234 2.61zm.884 1.131v5.106c2.01-.036 3.314-1.11 3.314-2.517-.004-1.274-.707-2.054-3.318-2.589h.004zM8.667 90.21c-13.741 2.496-10.112 23.077 3.655 20.58 13.768-2.496 10.112-23.077-3.655-20.58z" transform="translate(-162 -172) translate(24 160) translate(138 12)"/>
                            <path fill="#EBEBEB" d="M10.581 89.192c-13.72 2.38-9.914 23 3.824 20.616 13.739-2.384 9.933-23-3.824-20.616z" transform="translate(-162 -172) translate(24 160) translate(138 12)"/>
                            <path fill="#DBDBDB" d="M21 99.92c-.072 3.61-2.231 7.105-6.947 7.924-11.132 1.942-14.218-14.867-3.1-16.809l.218-.035c-10.409 2.034-7.435 17.94 3.168 16.087 4.34-.753 6.43-3.865 6.661-7.167z" transform="translate(-162 -172) translate(24 160) translate(138 12)"/>
                            <path fill="#DBDBDB" d="M10.875 93.005c.196-.032.383.098.422.294l.107.6c.98-.1 1.967.1 2.834.57.154.084.242.159.27.309.018.153-.053.304-.183.387-.13.083-.295.083-.426.001-.728-.423-1.563-.621-2.402-.57l.744 4.21c2.35.07 3.452.753 3.717 2.222.278 1.586-.841 2.952-2.69 3.345l.204 1.17c.035.132-.007.273-.109.364-.101.091-.245.118-.372.069-.127-.05-.216-.167-.23-.303l-.214-1.183c-1.262.13-2.532-.17-3.605-.852-.114-.052-.195-.157-.219-.28-.029-.207.105-.4.307-.445.098-.02.2 0 .283.056.922.635 2.033.932 3.146.842l-.762-4.285c-2.323-.089-3.387-.748-3.657-2.245s.837-2.906 2.644-3.275l-.102-.562c-.02-.097-.001-.199.054-.282.055-.082.141-.14.239-.157zm.687 5.754l-.734-4.094C9.392 94.96 8.593 96 8.784 97.08c.19 1.081.776 1.563 2.778 1.68zm.818.795l.734 4.13c1.482-.294 2.295-1.337 2.096-2.479-.2-1.033-.818-1.567-2.83-1.65zM167.729 48.26c-17.01 3.075-12.52 28.555 4.53 25.484 17.05-3.072 12.506-28.574-4.53-25.485z" transform="translate(-162 -172) translate(24 160) translate(138 12)"/>
                            <path fill="#EBEBEB" d="M169.224 48.237c-16.336 2.945-11.821 28.48 4.537 25.526 16.359-2.954 11.84-28.48-4.537-25.526z" transform="translate(-162 -172) translate(24 160) translate(138 12)"/>
                            <path fill="#DBDBDB" d="M182 62.015c-.087 4.467-2.755 8.778-8.582 9.792-13.752 2.403-17.563-18.368-3.83-20.762l.272-.045c-12.88 2.51-9.183 22.16 3.926 19.873 5.349-.933 7.93-4.78 8.214-8.858z" transform="translate(-162 -172) translate(24 160) translate(138 12)"/>
                            <path fill="#DBDBDB" d="M172.294 54c.242.04.414.243.395.472l-.085.698c1.207.223 2.315.777 3.183 1.59.15.103.23.272.21.445-.016.118-.083.225-.186.297-.102.072-.23.103-.357.085-.125-.012-.24-.07-.32-.16-.719-.714-1.647-1.216-2.669-1.444l-.62 4.888c2.78.888 3.857 2 3.637 3.71-.233 1.853-2.063 2.982-4.418 2.795l-.171 1.364c-.086.176-.284.28-.489.257-.205-.022-.372-.165-.412-.354l.176-1.382c-1.557-.284-2.967-1.044-4.008-2.16-.115-.1-.173-.245-.157-.39.034-.24.267-.41.524-.383.125.012.24.07.32.16.875 1.01 2.094 1.712 3.455 1.99l.629-4.98c-2.74-.89-3.78-1.978-3.56-3.724.219-1.747 2.044-2.933 4.337-2.733l.085-.662c.037-.228.254-.392.5-.378zm-1.249 6.6l.6-4.773c-1.82-.164-3.15.72-3.307 1.978-.153 1.186.357 1.986 2.707 2.795zm.691 1.155l-.61 4.826c1.878.169 3.227-.711 3.394-2.04.152-1.204-.41-2.013-2.784-2.786z" transform="translate(-162 -172) translate(24 160) translate(138 12)"/>
                        </g>
                    </g>
                    <g transform="translate(-162 -172) translate(24 160) translate(138 12) translate(58 74)">
                        <path fill="#E87D15" d="M44.125 49.373S7.401 71.01 7.401 91.51h73.46c-.006-20.5-36.736-42.137-36.736-42.137z" opacity=".2"/>
                        <path fill="#E87D15" d="M44.125 75.188s-33.91 8.383-33.91 16.322h67.822c0-7.939-33.912-16.322-33.912-16.322z" opacity=".2"/>
                        <path fill="#FFF" d="M48.583 55.347c6.896 6.767 20.299 21.761 20.299 36.163h-9.19c0-14.402-7.336-29.396-11.109-36.163z" opacity=".3"/>
                        <path fill="#E87D15" d="M44.125 49.373S7.401 27.736 7.401 7.236h73.46c-.006 20.5-36.736 42.137-36.736 42.137z" opacity=".2"/>
                        <path fill="#E87D15" d="M44.125 47.398s-18.75-8.976-18.75-17.503H62.88c0 8.512-18.755 17.503-18.755 17.503z" opacity=".2"/>
                        <path fill="#FFF" d="M40.123 43.399c-6.891-6.767-20.279-21.762-20.279-36.163h9.19c-.02 14.401 7.3 29.396 11.089 36.163zM48.583 43.399c6.896-6.767 19.964-23.497 20.299-36.163h-2.449c-1.15 15.443-12.393 29.615-17.85 36.163z" opacity=".3"/>
                        <path fill="#E87D15" d="M71.705 0H75.868V1H71.705zM90 6.852h-.5C89.498 3.346 86.652.504 83.14.499h-4.393V0h4.393C86.927.008 89.995 3.072 90 6.852z"/>
                        <rect width="88.251" height="10.981" y="1.745" fill="#E87D15" rx="5.49"/>
                        <rect width="88.251" height="10.981" y="86.019" fill="#E87D15" rx="5.49"/>
                    </g>
                    <g>
                        <path fill="#FF8B7B" d="M11.134 111.821L7.728 108.817 13.535 99.958 16.942 102.958z" transform="translate(-162 -172) translate(24 160) translate(138 12) translate(26 3)"/>
                        <path fill="#263238" d="M8.431 106.91l4.33 2.995c.075.046.128.12.148.205.02.085.005.175-.042.249l-2.17 3.553c-.26.372-.772.468-1.15.215-1.508-1.063-2.065-1.582-3.869-3.03-1.782-1.391-3.493-2.872-5.124-4.436-1.336-1.378.075-2.71.784-2.236 1.673 1.128 4.581 2.37 6.264 2.27.293-.022.585.053.83.215z" transform="translate(-162 -172) translate(24 160) translate(138 12) translate(26 3)"/>
                        <path fill="#000" d="M16.937 102.963L13.53 99.958 10.737 104.225 14.229 107.105z" opacity=".2" transform="translate(-162 -172) translate(24 160) translate(138 12) translate(26 3)"/>
                        <path fill="#263238" d="M51.59 58.711S28.733 57.16 25.9 64.855c-6.446 17.497-14.83 36.057-14.83 36.057l6.737 4.846s14.242-21.635 18.588-35.523c8.791 2.12 24.687 3.932 29.806-1.907 4.37-4.99 1.1-9.617 1.1-9.617H51.59z" transform="translate(-162 -172) translate(24 160) translate(138 12) translate(26 3)"/>
                        <path fill="#000" d="M32.013 72.31c-.533 2.137-1.341 8.255-1.844 12.312 1.11-2.136 2.165-4.301 3.115-6.417l-1.271-5.894z" opacity=".3" transform="translate(-162 -172) translate(24 160) translate(138 12) translate(26 3)"/>
                        <path fill="#E87D15" d="M17.374 107.948L9.732 102 11.295 98.666 19.835 105.149zM6.598 106.636c.354.23.73.421 1.125.574.04.014.084.004.114-.026s.04-.074.027-.114c-.066-.17-.638-1.662-1.236-1.807-.14-.031-.286.01-.387.11-.171.135-.257.35-.226.564.101.296.309.545.583.699zm.97.274c-.79-.339-1.282-.713-1.337-.998-.018-.141.044-.281.16-.364.048-.05.12-.072.186-.055.322.08.739.824.99 1.417z" transform="translate(-162 -172) translate(24 160) translate(138 12) translate(26 3)"/>
                        <path fill="#E87D15" d="M7.698 107.195c.016.005.034.005.05 0 .038.004.076-.011.1-.04.036-.04.89-1.083.764-1.727-.033-.167-.143-.309-.296-.384-.159-.099-.364-.08-.503.045-.381.354-.366 1.552-.14 2.046.003.022.012.042.025.06zm.557-1.912c.074.049.125.124.141.21.075.38-.332 1.033-.598 1.392-.14-.499-.095-1.387.151-1.617.05-.044.12-.09.266 0l.04.015z" transform="translate(-162 -172) translate(24 160) translate(138 12) translate(26 3)"/>
                        <path fill="#FF8B7B" d="M41.166 117.056L36.77 117.93 35.957 106.237 40.423 106.376z" transform="translate(-162 -172) translate(24 160) translate(138 12) translate(26 3)"/>
                        <path fill="#263238" d="M36.173 116.333l5.023-2.101c.083-.041.18-.046.267-.015.087.03.158.095.196.18l1.919 3.832c.182.431-.016.929-.447 1.118-1.759.704-2.633.948-4.838 1.876-1.357.57-5.024 2.216-6.983 2.7-1.96.484-2.402-1.467-1.608-1.846 1.879-.899 4.994-3.638 5.833-5.15.143-.261.366-.47.638-.594z" transform="translate(-162 -172) translate(24 160) translate(138 12) translate(26 3)"/>
                        <path fill="#E87D15" d="M34.922 117.77c.396-.18.771-.4 1.12-.659.035-.027.053-.071.045-.115-.012-.042-.047-.075-.09-.084-.181-.04-1.809-.365-2.266.074-.106.102-.15.252-.115.395.022.22.163.41.366.499.316.08.651.04.94-.11zm.768-.689c-.728.5-1.326.714-1.622.6-.135-.062-.224-.193-.231-.34-.02-.07-.001-.144.05-.195.246-.234 1.15-.175 1.803-.065z" transform="translate(-162 -172) translate(24 160) translate(138 12) translate(26 3)"/>
                        <path fill="#E87D15" d="M36.017 117.126c.017-.009.032-.02.045-.035.017-.033.017-.072 0-.105 0-.055-.462-1.372-1.095-1.617-.165-.065-.352-.048-.502.045-.182.08-.282.276-.242.47.1.499 1.16 1.172 1.719 1.247.024.008.051.006.075-.005zm-1.372-1.542c.084-.035.178-.035.262 0 .376.145.723.858.894 1.288-.502-.165-1.271-.68-1.336-1.028 0-.065 0-.15.135-.23l.045-.03z" transform="translate(-162 -172) translate(24 160) translate(138 12) translate(26 3)"/>
                        <path fill="#000" d="M40.428 106.381L35.957 106.237 36.384 112.345 40.835 112.265z" opacity=".2" transform="translate(-162 -172) translate(24 160) translate(138 12) translate(26 3)"/>
                        <path fill="#263238" d="M62.693 58.711s-32.654 3.07-31.479 12.836c1.718 14.088 2.974 38.757 2.974 38.757l8.325.324s3.124-21.689 1.296-36.117c8.455 0 26.822.445 30.052-3.897 3.833-5.15 2.06-11.903 2.06-11.903H62.693z" transform="translate(-162 -172) translate(24 160) translate(138 12) translate(26 3)"/>
                        <path fill="#E87D15" d="M43.432 111.137L33.44 110.643 33.083 106.326 44.04 107.075zM55.444 30.11c-.07.893-.15 1.687-.261 2.52-.11.834-.216 1.647-.347 2.47-.241 1.643-.573 3.275-.944 4.916-.372 1.642-.83 3.28-1.402 4.931-.582 1.738-1.344 3.41-2.276 4.99-.556.93-1.232 1.784-2.01 2.541-.205.191-.422.371-.647.539-.206.17-.412.314-.623.46-.402.28-.82.539-1.251.773-1.593.86-3.279 1.542-5.024 2.03-.829.255-1.663.46-2.512.645-.849.184-1.658.344-2.512.474-1.662.27-3.34.437-5.024.499-.858.036-1.611-.563-1.763-1.403-.152-.84.343-1.663 1.16-1.926l.066-.025c2.946-.926 5.836-2.019 8.656-3.274 1.296-.583 2.537-1.28 3.707-2.086.267-.19.503-.384.744-.579.11-.095.226-.19.321-.29.09-.079.173-.164.252-.254.333-.4.62-.837.854-1.302.61-1.23 1.099-2.515 1.462-3.838.406-1.402.758-2.865 1.05-4.352.29-1.487.552-2.994.798-4.521.246-1.527.432-3.084.603-4.532v-.085c.262-1.818 1.919-3.109 3.759-2.927 1.84.182 3.208 1.772 3.104 3.606h.06z" transform="translate(-162 -172) translate(24 160) translate(138 12) translate(26 3)"/>
                        <path fill="#FF8B7B" d="M30.777 53.67l-2.512.155 2.01 4.592s4.345-.095 4.255-2.221l-.784-.998c-.725-.906-1.805-1.462-2.969-1.527zM25.512 54.205L27.682 58.427 30.27 58.427 28.26 53.835z" transform="translate(-162 -172) translate(24 160) translate(138 12) translate(26 3)"/>
                        <path fill="#E87D15" d="M55.082 23.034l4.858-.999 3.869-.554c.552-.09 1.114-.114 1.672-.074 3.04.273 5.59 2.391 6.4 5.315.97 3.493 1.845 7.78 2.513 11.578.934 5.275 1.416 13.2 1.507 20.406H52.887c-.503-13.05-3.296-21.46-4.245-26.674-.588-3.237 1.076-6.464 4.064-7.88l2.376-1.118z" transform="translate(-162 -172) translate(24 160) translate(138 12) translate(26 3)"/>
                        <path fill="#F5F5F5" d="M52.887 25.903c.055 2.146.502 9.797 2.818 14.143.407-4.072 5.275-16.469 5.275-16.469l-8.093 2.326z" transform="translate(-162 -172) translate(24 160) translate(138 12) translate(26 3)"/>
                        <path fill="#000" d="M74.921 41.883c0-.08 0-.155-.03-.24l-.045-.359c-.025-.195-.05-.39-.076-.574l-.075-.534-.075-.499c0-.14-.045-.284-.066-.42-.05-.318-.1-.628-.155-.932-.166-.934-.342-1.902-.533-2.875v-.08c-.19-.998-.387-1.961-.598-2.934v-.065c-.085-.42-.175-.829-.27-1.243l-.106-.459-.181-.793-.151-.62-.03-.129c-.201-.818-.407-1.622-.618-2.38L68.42 24.92c.402 1.532.784 3.219 1.146 4.946-.418.217-.803.49-1.146.813-.834.739-.803 2.31.03 4.172 2.31 5.323 3.587 11.03 3.768 16.824.106 2.35.171 4.73.201 7.041h3.517c-.1-5.724-.422-11.892-1.015-16.833z" opacity=".3" transform="translate(-162 -172) translate(24 160) translate(138 12) translate(26 3)"/>
                        <path fill="#FF8B7B" d="M58.132 13.417l-1.975 2.994-2.682 4.067c.345.35.626.757.829 1.203.502.998.894 1.717-1.181 3.12-.442.299-.457.773-.357 1.297.12.639.503 1.307 2.733.913 2.156-.412 4.123-1.496 5.617-3.094.743-.744.573-1.298-.146-2.066-2.03-2.171-2.637-5.64-2.838-8.434z" transform="translate(-162 -172) translate(24 160) translate(138 12) translate(26 3)"/>
                        <path fill="#263238" d="M53.39 27.086l1.42.888 2.312-.973c-.545-.546-1.247-.91-2.01-1.043-.664.219-1.258.608-1.723 1.128z" transform="translate(-162 -172) translate(24 160) translate(138 12) translate(26 3)"/>
                        <path fill="#FFF" d="M55.087 25.958c1.06.434 1.593 1.412 2.075 2.54 0 0 5.08-3.823 5.185-6.343-.272-.858-1.543-.709-1.543-.709s-1.547 2.665-5.717 4.512zM55.087 25.958c-1.015.408-1.66 1.409-1.607 2.495 0 0-2.261-2.635-.422-4.626.499-.26 1.029-.456 1.577-.584 0 0-.553 1.098.452 2.715z" transform="translate(-162 -172) translate(24 160) translate(138 12) translate(26 3)"/>
                        <path fill="#263238" d="M55.258 27.56h-.648c-.211.36-.502 5.04-.618 7.53.31 1.455.767 2.874 1.362 4.238-.002.016-.002.033 0 .05.035.08.07.154.11.23.07.149.14.299.221.438.232-1.546.593-3.07 1.08-4.556-.663-2.885-1.507-7.93-1.507-7.93z" transform="translate(-162 -172) translate(24 160) translate(138 12) translate(26 3)"/>
                        <path fill="#000" d="M54.138 19.475l1.648-2.9c.03.07.07.155.11.235.145.362.262.734.352 1.113.301 1.293-.704 3.13-1.814 3.993-.045-.08-.085-.165-.13-.25-.198-.419-.453-.809-.76-1.158l-.064-.05.658-.983z" opacity=".2" transform="translate(-162 -172) translate(24 160) translate(138 12) translate(26 3)"/>
                        <path fill="#263238" d="M46.11 13.247c-.397-1.772 2.441-4.222 2.441-4.222l-3.36-1.163c-1.518 1.083-.533 4.172.919 5.385z" transform="translate(-162 -172) translate(24 160) translate(138 12) translate(26 3)"/>
                        <path fill="#FF8B7B" d="M57.433 8.127c.794 4.431 1.508 6.986-.17 9.816-1.072 1.894-3.113 3.04-5.299 2.978-2.186-.063-4.156-1.325-5.116-3.277-1.884-3.653-2.863-10.281.97-13.19 1.653-1.325 3.891-1.674 5.873-.916 1.982.757 3.408 2.505 3.742 4.589z" transform="translate(-162 -172) translate(24 160) translate(138 12) translate(26 3)"/>
                        <path fill="#263238" d="M57.494 12.608l-2.11-.574V9.34s-2.668-1.497-2.256-3.368c.204-1.052.492-2.087.859-3.094 0 0 4.23-.27 5.526.269-.336.361-.7.695-1.09.998 1.014.697 1.884 1.582 2.562 2.605-.53.117-1.025.355-1.447.694 0 0 .553 3.698-2.044 5.165z" transform="translate(-162 -172) translate(24 160) translate(138 12) translate(26 3)"/>
                        <path fill="#263238" d="M52.64.002c1.553.968.654 2.745.654 2.745l4.154.085c-.22-1.303-3.823-2.895-4.807-2.83z" transform="translate(-162 -172) translate(24 160) translate(138 12) translate(26 3)"/>
                        <path fill="#263238" d="M54.263 6.879c-.296.828-3.662 1.846-6.732 1.946-1.53-.033-3.044-.316-4.48-.838.433-.442.943-.802 1.506-1.063-1.853-.454-4.2-2.071-4.848-3.389 1.354-.48 2.816-.574 4.22-.27-.928-.778-1.502-1.895-1.592-3.098 0 0 7.857 3.094 10.881 1.811 3.286-1.397 5.783 1.223 3.623 3.22-2.16 1.995-2.578 1.681-2.578 1.681z" transform="translate(-162 -172) translate(24 160) translate(138 12) translate(26 3)"/>
                        <path fill="#FF8B7B" d="M59.835 11.336c.042.977-.278 1.936-.9 2.694-.813.964-2.08.195-2.37-.998-.262-1.083.08-2.754 1.15-3.273 1.07-.52 2.064.364 2.12 1.577z" transform="translate(-162 -172) translate(24 160) translate(138 12) translate(26 3)"/>
                        <path fill="#263238" d="M50.641 12.249c.11.35 0 .694-.2.778-.202.085-.503-.134-.619-.499-.115-.364 0-.693.201-.778.201-.085.503.13.618.499zM46.748 13.646c.11.345 0 .694-.201.774-.201.08-.503-.13-.618-.5-.116-.369 0-.693.2-.773.202-.08.503.15.619.5z" transform="translate(-162 -172) translate(24 160) translate(138 12) translate(26 3)"/>
                        <path fill="#A02724" d="M48.08 13.462c.015 1.032-.106 2.063-.363 3.064.517.109 1.055-.018 1.467-.345l-1.105-2.72z" transform="translate(-162 -172) translate(24 160) translate(138 12) translate(26 3)"/>
                        <path fill="#263238" d="M50.46 17.514c.815-.272 1.485-.858 1.86-1.627.02-.055-.007-.117-.061-.14-.026-.011-.056-.012-.082-.002-.027.01-.048.031-.059.057-.413.837-1.195 1.434-2.115 1.617-.028.006-.053.023-.068.048-.015.024-.02.054-.012.082.012.056.069.092.125.08.14-.03.278-.068.412-.115zM51.505 10.203c.031-.019.057-.044.076-.075.032-.047.043-.105.032-.16-.011-.055-.045-.104-.093-.135-.573-.38-1.299-.456-1.939-.2-.108.052-.154.18-.103.288.052.107.18.153.289.102.5-.193 1.063-.13 1.507.17.069.047.159.051.231.01zM45.974 11.545c.01-.034.01-.07 0-.105-.046-.108-.172-.16-.281-.114-.643.247-1.118.798-1.266 1.467-.003.107.074.2.18.217.106.017.21-.045.242-.147.127-.521.502-.948 1.005-1.143.068-.033.114-.1.12-.175z" transform="translate(-162 -172) translate(24 160) translate(138 12) translate(26 3)"/>
                        <path fill="#E87D15" d="M70.812 24.576c.552.678 1.035 1.292 1.507 1.946.472.654.964 1.302 1.427 1.966.94 1.323 1.813 2.695 2.667 4.093.854 1.397 1.648 2.854 2.361 4.396.775 1.6 1.389 3.272 1.834 4.99.25 1 .382 2.025.392 3.055-.012 1.03-.161 2.053-.442 3.044-.5 1.726-1.23 3.377-2.17 4.911-.432.734-.9 1.437-1.387 2.116s-1.005 1.338-1.507 1.971c-1.049 1.275-2.189 2.472-3.411 3.584-.632.559-1.58.58-2.235.048-.657-.53-.827-1.457-.403-2.184l.045-.075c1.56-2.515 2.924-5.144 4.08-7.865.518-1.227.896-2.508 1.125-3.818.084-.527.106-1.06.065-1.592-.06-.526-.175-1.045-.341-1.547-.435-1.276-.981-2.512-1.633-3.693-.668-1.253-1.422-2.496-2.225-3.758-.804-1.263-1.648-2.496-2.512-3.708l-1.322-1.827c-.442-.594-.904-1.228-1.32-1.771l-.031-.04c-1.18-1.486-.923-3.64.573-4.811 1.495-1.172 3.663-.917 4.843.569h.02zM22.945 61.391l42.742-1.921c.273-.018.54.075.743.258.202.183.32.439.328.71L21.97 62.434c-.012-.267.084-.528.268-.724.183-.196.438-.311.707-.319z" transform="translate(-162 -172) translate(24 160) translate(138 12) translate(26 3)"/>
                        <g fill="#FFF" opacity=".6">
                            <path d="M.976 1.924L43.718.002c.273-.018.54.076.742.258.202.183.32.44.328.71L.001 2.967c-.012-.268.084-.529.267-.725.184-.196.438-.31.708-.318z" transform="translate(-162 -172) translate(24 160) translate(138 12) translate(26 3) translate(21.97 59.468)"/>
                        </g>
                        <path fill="#E87D15" d="M16.143 41.693l30.409-1.367c.4.005.753.259.884.634l5.838 18.4c.063.154.045.33-.048.469-.094.138-.252.22-.42.22l-30.409 1.367c-.397-.004-.75-.255-.879-.629l-5.837-18.405c-.064-.153-.046-.328.046-.466.093-.139.249-.222.416-.223z" transform="translate(-162 -172) translate(24 160) translate(138 12) translate(26 3)"/>
                        <path fill="#FFF" d="M16.143 41.693l30.409-1.367c.4.005.753.259.884.634l5.838 18.4c.063.154.045.33-.048.469-.094.138-.252.22-.42.22l-30.409 1.367c-.397-.004-.75-.255-.879-.629l-5.837-18.405c-.064-.153-.046-.328.046-.466.093-.139.249-.222.416-.223z" opacity=".6" transform="translate(-162 -172) translate(24 160) translate(138 12) translate(26 3)"/>
                        <path fill="#E87D15" d="M47.446 40.955l5.838 18.4c.066.155.049.332-.045.472-.094.14-.253.223-.423.222L46.562 40.32c.4.005.753.259.884.634zM54.45 59.974l11.237-.5c.273-.017.54.076.743.259.202.183.32.439.328.71l-13.283.594c-.018-.27.076-.537.26-.737.183-.201.441-.319.714-.326z" opacity=".5" transform="translate(-162 -172) translate(24 160) translate(138 12) translate(26 3)"/>
                        <path fill="#FF8B7B" d="M68.646 58.302l-2.873.414 2.944 4.068s4.677-.744 4.134-2.805l-1.004-.829c-.898-.72-2.061-1.027-3.2-.848z" transform="translate(-162 -172) translate(24 160) translate(138 12) translate(26 3)"/>
                        <path fill="#FF8B7B" d="M62.256 59.934L65.858 63.053 68.717 62.784 65.773 58.716z" transform="translate(-162 -172) translate(24 160) translate(138 12) translate(26 3)"/>
                    </g>
                </g>
            </g>
        </g>
    </g>
</svg>
