<svg xmlns="http://www.w3.org/2000/svg" width="20" height="20" viewBox="0 0 20 20">
    <g fill="none" fill-rule="evenodd">
        <g>
            <g>
                <g>
                    <g>
                        <path d="M0 0H20V20H0z" transform="translate(-866 -530) translate(539 415) translate(314 101) translate(13 14)"/>
                        <path fill="#FF8A33" d="M18.667 4.667C18.667 3.75 17.917 3 17 3H3.667C2.75 3 2 3.75 2 4.667v10c0 .916.75 1.666 1.667 1.666H17c.917 0 1.667-.75 1.667-1.666v-10zm-1.667 0l-6.667 4.166-6.666-4.166H17zm0 10H3.667V6.333l6.666 4.167L17 6.333v8.334z" transform="translate(-866 -530) translate(539 415) translate(314 101) translate(13 14)"/>
                    </g>
                </g>
            </g>
        </g>
    </g>
</svg>
