<svg xmlns="http://www.w3.org/2000/svg" xmlns:xlink="http://www.w3.org/1999/xlink" width="40" height="40" viewBox="0 0 40 40">
    <defs>
        <path id="00086r1fvd" d="M11.6 18.638v.057c.016 1.216 1.038 2.13 3.067 2.743-2.445 1.778-4.89 3.2-7.334 3.2S2.444 23.216 0 21.438c2.015-.613 3.037-1.529 3.066-2.746l-.003-1.105v-.282c-.146.02-.135.008 0-.03-.005-1.522-.011-3.57-.02-5.65-1.911-2.477-1.21-5.38-.61-5.308C3.166 6.406 9.527.37 10.747.06c1.22-.309 4.319.689 4.852 3.472.533 2.784.756 9.8-1.267 12.6-.575.797-1.482 1.11-2.72.936-.001.582-.004.909-.013 1.569z"/>
        <path id="rbuwhi28mf" d="M30 4.974c.846 1.721 1.513 4.565 2 8.534H0c.487-3.969 1.154-6.813 2-8.534.846-1.72 3.74-3.378 8.68-4.973C12.108 2.934 19.948 2.934 21.316 0 26.26 1.596 29.154 3.254 30 4.974z"/>
        <filter id="ckhrdmt9ec" width="268.4%" height="218.5%" x="-84.2%" y="-59.3%" filterUnits="objectBoundingBox">
            <feOffset dy="3" in="SourceAlpha" result="shadowOffsetOuter1"/>
            <feGaussianBlur in="shadowOffsetOuter1" result="shadowBlurOuter1" stdDeviation="2.5"/>
            <feColorMatrix in="shadowBlurOuter1" result="shadowMatrixOuter1" values="0 0 0 0 0 0 0 0 0 0 0 0 0 0 0.145098039 0 0 0 0.04 0"/>
            <feMerge>
                <feMergeNode in="shadowMatrixOuter1"/>
                <feMergeNode in="SourceGraphic"/>
            </feMerge>
        </filter>
        <circle id="67hjl6uoba" cx="20" cy="20" r="20"/>
    </defs>
    <g fill="none" fill-rule="evenodd">
        <g>
            <g transform="translate(-874 -451) translate(874 451)">
                <mask id="qml2qdru3b" fill="#fff">
                    <use xlink:href="#67hjl6uoba"/>
                </mask>
                <use fill="#FCF6EB" fill-rule="nonzero" xlink:href="#67hjl6uoba"/>
                <g mask="url(#qml2qdru3b)">
                    <g>
                        <g filter="url(#ckhrdmt9ec)" transform="translate(8.867 4.4) matrix(-1 0 0 1 19.133 0)">
                            <g transform="translate(.667 2.133)">
                                <mask id="06fxvwwpve" fill="#fff">
                                    <use xlink:href="#00086r1fvd"/>
                                </mask>
                                <use fill="#FAB68B" xlink:href="#00086r1fvd"/>
                                <path fill="#E88C54" fill-rule="nonzero" d="M11.6 17.067c-1.956-.223-3.556-.756-4.8-1.6 1.346 1.788 2.946 2.854 4.8 3.2v-1.6z" mask="url(#06fxvwwpve)"/>
                            </g>
                            <path fill="#001443" d="M2.733 13.8c-.918-2.21-4.6-6.709-1.426-9.509C2.373-.909 8.267-.333 12.2.867c2.644.806 4.64 2.4 5.067 1.2 2.666 2.224 1.33 4.4-.427 5.024-1.596.567-4.294 1.133-8.88.6-.82-.095-.649 2.415-1.087 2.686-.657.407-1.166-2.153-2.968-1.384-1.8.768-.732 4.332 1.202 4.332.666 0 1 1.833-.8 2.7-1.307.642-.977-.79-1.574-2.225z"/>
                        </g>
                    </g>
                </g>
                <g mask="url(#qml2qdru3b)">
                    <g transform="translate(4 27.067)">
                        <mask id="05tt2jkkmg" fill="#fff">
                            <use xlink:href="#rbuwhi28mf"/>
                        </mask>
                        <use fill="#2A68CB" xlink:href="#rbuwhi28mf"/>
                        <path fill="#B0DCFF" d="M33.333 9.733V10.8H-1.333V9.733h34.666zm0-2.666v1.066H-1.333V7.067h34.666zm0-2.667v1.067H-1.333V4.4h34.666z" mask="url(#05tt2jkkmg)"/>
                    </g>
                </g>
            </g>
        </g>
    </g>
</svg>