<svg xmlns="http://www.w3.org/2000/svg" xmlns:xlink="http://www.w3.org/1999/xlink" width="40" height="40" viewBox="0 0 40 40">
    <defs>
        <circle id="qxhz1utzba" cx="20" cy="20" r="20"/>
    </defs>
    <g fill="none" fill-rule="evenodd">
        <g>
            <g transform="translate(-704 -451) translate(704 451)">
                <mask id="v89nt2iarb" fill="#fff">
                    <use xlink:href="#qxhz1utzba"/>
                </mask>
                <use fill="#EBF9F5" fill-rule="nonzero" transform="matrix(-1 0 0 1 40 0)" xlink:href="#qxhz1utzba"/>
                <path fill="#B0683C" d="M24.133 23.2v1.6c0 1.422 1.023 2.444 3.067 3.067-2.356 1.777-4.756 2.666-7.2 2.666s-4.844-.889-7.2-2.666c2.06-.623 3.083-1.645 3.067-3.067-.024-2.133-.008-3.386-.024-7.042-1.911-2.477-1.789-4.139-.744-5.308 2.334-2.611 6.679-3.472 13.034-2.583.593 6.399.216 10.532-1.133 12.4-.578.8-1.533 1.11-2.867.933z" mask="url(#v89nt2iarb)"/>
                <path fill="#894D28" d="M24.133 23.2c-1.955-.222-3.51-.756-4.666-1.6.977 1.644 2.533 2.711 4.666 3.2v-1.6z" style="mix-blend-mode:multiply" mask="url(#v89nt2iarb)"/>
                <path fill="#FFB130" fill-rule="nonzero" d="M34 31.908c.846 1.72 1.513 4.565 2 8.533H4c.487-3.969 1.154-6.813 2-8.533.846-1.72 3.74-3.378 8.68-4.974 1.428 2.933 9.268 2.933 10.636 0 4.943 1.595 7.838 3.253 8.684 4.974z" mask="url(#v89nt2iarb)"/>
                <path fill="#FFF" fill-rule="nonzero" d="M20 36.533c.295 0 .533.24.533.534 0 .294-.238.533-.533.533-.295 0-.533-.239-.533-.533 0-.295.238-.534.533-.534zm0-2.666c.295 0 .533.238.533.533 0 .295-.238.533-.533.533-.295 0-.533-.238-.533-.533 0-.295.238-.533.533-.533zm0-2.667c.295 0 .533.239.533.533 0 .295-.238.534-.533.534-.295 0-.533-.24-.533-.534 0-.294.238-.533.533-.533z" mask="url(#v89nt2iarb)"/>
                <path fill="#001443" d="M17.487 13.761c-.424-.364-.939-.61-1.667-.23-1.727.896-.42 4.336 1.113 4.336.4 0 .6 1.256-1.182 2.133 0-1.4-2.133-4.866-2.32-8.023-2.146-.799-1.613-3.997-.139-3.997-.236-2.932 4.46-4.446 6.277-2.764 1.849-2.216 6.516-1.082 6.797.84 3.21-1.713 5.319 3.211 2.314 5.122-1.236.787-4.129 1.086-8.304 1.086-.63 0-.983.157-.807.936.341 1.51-.45 2.461-2.082.561z" mask="url(#v89nt2iarb)"/>
            </g>
        </g>
    </g>
</svg>
