<svg xmlns="http://www.w3.org/2000/svg" xmlns:xlink="http://www.w3.org/1999/xlink" width="40" height="40" viewBox="0 0 40 40">
    <defs>
        <circle id="jta4fopova" cx="20" cy="20" r="20"/>
    </defs>
    <g fill="none" fill-rule="evenodd">
        <g>
            <g transform="translate(-1214 -451) translate(1214 451)">
                <mask id="rd11lnb89b" fill="#fff">
                    <use xlink:href="#jta4fopova"/>
                </mask>
                <use fill="#F3F4F6" fill-rule="nonzero" xlink:href="#jta4fopova"/>
                <path fill="#FFD7B9" d="M24.267 23.467v3c0 .577-8.534.383-8.534-.45 0-.784.016-4.337 0-7.992-1.91-2.477-1.91-4.025-.4-5.625 1.008-1.067 5.097-1.867 12.267-2.4.538 5.174.85 8.463.933 9.867.051.846.6 3.6-1.533 3.6h-2.733z" mask="url(#rd11lnb89b)"/>
                <path fill="#FAB68B" fill-rule="nonzero" d="M24.264 23.21c-1.956-.222-3.6-.759-4.93-1.61.71 1.689 2.354 2.762 4.93 3.22v-1.61z" style="mix-blend-mode:multiply" mask="url(#rd11lnb89b)"/>
                <path fill="#7F5919" fill-rule="nonzero" d="M34 32.441c.846 1.72 1.513 4.565 2 8.533H4c.487-3.968 1.154-6.813 2-8.533.562-1.143 3.451-2.814 8.667-5.014.104-1.006.281-1.581.533-1.725.378-.216 9.15-.216 9.6 0 .3.144.478.719.533 1.724C30.55 29.629 33.44 31.3 34 32.44z" mask="url(#rd11lnb89b)"/>
                <path fill="#001443" d="M17.47 14.027c-.425-.364-.94-.609-1.668-.23-1.727.897-.58 4.354 1.351 4.287.667-.023.361 1.305-1.42 2.183 0-1.4-2.133-4.867-2.32-8.023-2.146-.8-1.613-3.998-.139-3.998-.235-2.932 4.46-4.446 6.277-2.764 1.849-2.215 6.516-1.082 6.797.84 3.21-1.713 5.319 3.211 2.314 5.122-1.236.787-4.129 1.086-8.304 1.086-2.003 0-.851 4.69-.225 6.203.8 1.934 5.267 2.2 6.667 2 1.093-.156 1.667-.6 1.733-.866 1 2.666-.266 4.266-2.266 4.266-3.4 0-6.8-1-7.334-3.466-.424-1.963-.4-5.132-1.464-6.64z" mask="url(#rd11lnb89b)"/>
            </g>
        </g>
    </g>
</svg>