<svg xmlns="http://www.w3.org/2000/svg" width="24" height="24" viewBox="0 0 24 24">
    <g fill="none" fill-rule="evenodd">
        <g>
            <g>
                <g>
                    <path d="M0 0H24V24H0z" transform="translate(-926 -228) translate(539 160) translate(387 68)"/>
                    <path fill="#6F737F" d="M12 5c-3.864 0-7 3.136-7 7s3.136 7 7 7 7-3.136 7-7-3.136-7-7-7zm0 12.6c-3.087 0-5.6-2.513-5.6-5.6 0-3.087 2.513-5.6 5.6-5.6 3.087 0 5.6 2.513 5.6 5.6 0 3.087-2.513 5.6-5.6 5.6z" transform="translate(-926 -228) translate(539 160) translate(387 68)"/>
                    <path fill="#6F737F" d="M13.605 16.531v-.07l-2.888-3.352c.855 0 1.523-.175 2.004-.527.48-.352.756-.875.826-1.57h.89l.27-.926h-1.178c-.066-.457-.224-.844-.474-1.16h1.383L14.707 8h-5.42l-.275.926h1.646c.961.031 1.535.418 1.723 1.16H9.27l-.27.926h3.393c-.082.36-.276.643-.58.852-.305.21-.702.316-1.19.32H9.164l.006.732 3.105 3.615h1.33z" transform="translate(-926 -228) translate(539 160) translate(387 68)"/>
                </g>
            </g>
        </g>
    </g>
</svg>
