<svg xmlns="http://www.w3.org/2000/svg" width="20" height="20" viewBox="0 0 20 20">
    <g fill="none" fill-rule="evenodd">
        <g>
            <g>
                <g>
                    <g>
                        <path d="M0 0L20 0 20 20 0 20z" transform="translate(-744 -345) translate(539 227) translate(195 104) translate(10 14)"/>
                        <path fill="#FF8A33" fill-rule="nonzero" d="M5.45 4.167c.05.741.175 1.466.375 2.158l-1 1c-.342-1-.558-2.058-.633-3.158H5.45m8.217 10.016c.708.2 1.433.325 2.166.375V15.8c-1.1-.075-2.158-.292-3.166-.625l1-.992M6.25 2.5H3.333c-.458 0-.833.375-.833.833C2.5 11.158 8.842 17.5 16.667 17.5c.458 0 .833-.375.833-.833v-2.909c0-.458-.375-.833-.833-.833-1.034 0-2.042-.167-2.975-.475-.084-.033-.175-.042-.259-.042-.216 0-.425.084-.591.242l-1.834 1.833C8.65 13.275 6.717 11.35 5.517 8.992L7.35 7.158c.233-.233.3-.558.208-.85-.308-.933-.475-1.933-.475-2.975 0-.458-.375-.833-.833-.833z" transform="translate(-744 -345) translate(539 227) translate(195 104) translate(10 14)"/>
                        <g fill="#FF8A33">
                            <path d="M8 .75C8 .338 7.64 0 7.2 0H.8C.36 0 0 .338 0 .75v4.5c0 .412.36.75.8.75h6.4c.44 0 .8-.338.8-.75V.75zm-.8 0L4 2.625.8.75h6.4zm0 4.5H.8V1.5L4 3.375 7.2 1.5v3.75z" transform="translate(-744 -345) translate(539 227) translate(195 104) translate(10 14) translate(10 4)"/>
                        </g>
                        <path fill="#4727AD" fill-rule="nonzero" d="M5.45 4.167c.05.741.175 1.466.375 2.158l-1 1c-.342-1-.558-2.058-.633-3.158H5.45M13.667 14.183c.708.2 1.433.325 2.166.375V15.8c-1.1-.075-2.158-.292-3.166-.625l1-.992" transform="translate(-744 -345) translate(539 227) translate(195 104) translate(10 14)"/>
                    </g>
                </g>
            </g>
        </g>
    </g>
</svg>
