<svg xmlns="http://www.w3.org/2000/svg" width="20" height="20" viewBox="0 0 20 20">
    <g fill="none" fill-rule="evenodd" opacity=".48">
        <g>
            <g>
                <g>
                    <path d="M0 0L20 0 20 20 0 20z" transform="translate(-560 -751) translate(550 737) translate(10 14)"/>
                    <g fill-rule="nonzero">
                        <path fill="#FFF" d="M11.667 15L1.667 15 1.667 1.667 7.5 1.667 7.5 5.833 11.667 5.833z" transform="translate(-560 -751) translate(550 737) translate(10 14) translate(3.333 1.667)"/>
                        <path fill="#596685" d="M8.333 0H1.667C.75 0 0 .75 0 1.667V15c0 .917.742 1.667 1.658 1.667h10.009c.916 0 1.666-.75 1.666-1.667V5l-5-5zm3.334 15h-10V1.667H7.5v4.166h4.167V15z" transform="translate(-560 -751) translate(550 737) translate(10 14) translate(3.333 1.667)"/>
                        <path fill="#596685" stroke="#596685" stroke-width=".5" d="M4.84 13.382c.283 0 .535-.052.755-.156.22-.104.392-.251.514-.44.122-.19.189-.409.2-.656h0-.852c-.006.202-.061.349-.166.442-.104.092-.254.139-.451.139-.233 0-.397-.082-.492-.244-.095-.163-.143-.434-.143-.813h0v-.252c.005-.35.057-.604.156-.764.1-.16.256-.24.469-.24.21 0 .366.048.469.142.102.095.157.25.163.467h.855c-.036-.4-.185-.712-.447-.939-.262-.227-.609-.34-1.04-.34-.3 0-.563.07-.791.213-.228.142-.403.344-.524.605-.121.262-.182.566-.182.915h0v.176c0 .555.135.984.403 1.289.269.304.637.456 1.104.456zm4.39-.049l1.196-3.554h-.957l-.708 2.588-.706-2.588h-.95l1.187 3.554h.937z" transform="translate(-560 -751) translate(550 737) translate(10 14) translate(3.333 1.667)"/>
                    </g>
                </g>
            </g>
        </g>
    </g>
</svg>
