<svg xmlns="http://www.w3.org/2000/svg" width="20" height="20" viewBox="0 0 20 20">
    <g fill="none" fill-rule="evenodd">
        <g>
            <g>
                <g>
                    <g>
                        <path d="M0 0L20 0 20 20 0 20z" transform="translate(-597 -719) translate(539 603) translate(48 102) translate(10 14)"/>
                        <g fill-rule="nonzero">
                            <g>
                                <path fill="#FFF" d="M10 13.333L0 13.333 0 0 5.833 0 5.833 4.167 10 4.167z" transform="translate(-597 -719) translate(539 603) translate(48 102) translate(10 14) translate(3.333 1.667) translate(1.667 1.667)"/>
                                <path fill="#FF8A33" d="M3.173 11.715c.283 0 .535-.052.756-.156.22-.104.391-.25.514-.44.122-.19.188-.409.2-.656H3.79c-.007.202-.062.35-.166.442-.104.093-.255.14-.452.14-.233 0-.397-.082-.492-.245-.095-.163-.143-.434-.143-.813v-.251c.005-.35.057-.605.156-.765.1-.16.256-.239.47-.239.21 0 .365.047.468.142.103.094.157.25.164.466h.854c-.036-.399-.185-.712-.447-.939-.262-.227-.608-.34-1.04-.34-.3 0-.563.07-.79.213-.229.143-.403.345-.524.606-.122.261-.182.566-.182.914v.176c0 .555.134.985.402 1.289.27.304.637.456 1.104.456zm4.39-.048l1.196-3.555h-.957L7.094 10.7 6.39 8.112h-.95l1.186 3.555h.938z" transform="translate(-597 -719) translate(539 603) translate(48 102) translate(10 14) translate(3.333 1.667) translate(1.667 1.667)"/>
                            </g>
                            <path fill="#FF8A33" d="M8.333 0H1.667C.75 0 0 .75 0 1.667V15c0 .917.742 1.667 1.658 1.667h10.009c.916 0 1.666-.75 1.666-1.667V5l-5-5zm3.334 15h-10V1.667H7.5v4.166h4.167V15z" transform="translate(-597 -719) translate(539 603) translate(48 102) translate(10 14) translate(3.333 1.667)"/>
                        </g>
                    </g>
                </g>
            </g>
        </g>
    </g>
</svg>
