<svg xmlns="http://www.w3.org/2000/svg" width="24" height="24" viewBox="0 0 24 24">
    <g fill="none" fill-rule="evenodd">
        <g>
            <g>
                <g>
                    <g>
                        <path d="M0 0L24 0 24 24 0 24z" transform="translate(-312 -618) translate(8 480) translate(296 130) translate(8 8)"/>
                        <g fill-rule="nonzero">
                            <path fill="#FFF" d="M14 18L2 18 2 2 9 2 9 7 14 7z" transform="translate(-312 -618) translate(8 480) translate(296 130) translate(8 8) translate(4 2)"/>
                            <path fill="#FF8A33" d="M10 0H2C.9 0 0 .9 0 2v16c0 1.1.89 2 1.99 2H14c1.1 0 2-.9 2-2V6l-6-6zm4 18H2V2h7v5h5v11z" transform="translate(-312 -618) translate(8 480) translate(296 130) translate(8 8) translate(4 2)"/>
                            <path fill="#FF8A33" d="M5.808 16.059c.34 0 .642-.063.906-.188.265-.125.47-.301.617-.529.147-.227.227-.49.24-.786H6.55c-.008.242-.074.419-.2.53-.124.111-.305.167-.541.167-.28 0-.476-.098-.59-.293-.115-.195-.172-.52-.172-.976v-.301c.006-.42.068-.726.187-.917.12-.192.307-.287.563-.287.252 0 .44.056.562.17.123.113.189.3.197.559H7.58c-.043-.479-.222-.854-.536-1.126-.315-.273-.73-.41-1.248-.41-.36 0-.676.086-.95.257-.273.171-.482.413-.628.727-.145.313-.218.679-.218 1.097v.21c0 .667.161 1.183.483 1.548.323.365.764.548 1.325.548zM11.075 16l1.436-4.266h-1.148l-.85 3.106-.847-3.106h-1.14L9.95 16h1.125z" transform="translate(-312 -618) translate(8 480) translate(296 130) translate(8 8) translate(4 2)"/>
                        </g>
                    </g>
                </g>
            </g>
        </g>
    </g>
</svg>
