<svg xmlns="http://www.w3.org/2000/svg" width="14" height="17" viewBox="0 0 14 17">
    <g fill="none" fill-rule="evenodd">
        <g fill-rule="nonzero" stroke="#001443">
            <path d="M1066.126 964.5l4.707 4.707V979c0 .32-.131.612-.343.824-.181.18-.42.303-.688.335l-.135.008h-10.009c-.32 0-.608-.131-.817-.341-.18-.182-.302-.423-.333-.69l-.008-.136v-13.333c0-.321.132-.613.343-.824.181-.181.421-.304.688-.335l.136-.008h6.46zm-.126.667h-6.833V979.5h11v-10.167H1066v-4.166zm1.5 11v.666h-5.667v-.666h5.667zm0-3.334v.667h-5.667v-.667h5.667z" transform="translate(-1058 -964)"/>
        </g>
    </g>
</svg>
