<svg xmlns="http://www.w3.org/2000/svg" width="24" height="24" viewBox="0 0 24 24">
    <g fill="none" fill-rule="evenodd">
        <path d="M0 0H24V24H0z"/>
        <g>
            <path d="M0 0L20 0 20 20 0 20z" transform="translate(2 2)"/>
            <path fill="#00A49F" d="M6.667 13.333h6.666V15H6.667v-1.667zm0-3.333h6.666v1.667H6.667V10zm5-8.333H5c-.917 0-1.667.75-1.667 1.666v13.334c0 .916.742 1.666 1.659 1.666H15c.917 0 1.667-.75 1.667-1.666v-10l-5-5zm3.333 15H5V3.333h5.833V7.5H15v9.167z" transform="translate(2 2)"/>
        </g>
    </g>
</svg>
