<svg xmlns="http://www.w3.org/2000/svg" width="16" height="14" viewBox="0 0 16 14">
    <g fill="none" fill-rule="evenodd">
        <g fill-rule="nonzero" stroke="#001443">
            <path d="M1004.806 972.056l2.75 7.333-1.106-2.083h-3.991l-.778 2.083 2.43-7.333.32-.001-1.819 4.862h3.692l-1.819-4.862h.321zm-6.445-5.556l.389 1.389h4.861v.389h-1.91c-.507 1.844-1.475 3.582-2.894 5.045h0l1.856 1.878-.145.388-1.962-1.963-3.473 3.472-.276-.276 3.523-3.474c-.795-.818-1.453-1.721-1.966-2.681h.286c.419.764.93 1.492 1.534 2.161.122.134.246.265.372.393.127-.128.25-.259.371-.393 1.21-1.345 2.05-2.912 2.51-4.557h0-7.937v-.382h4.861V966.5z" transform="translate(-993 -966)"/>
        </g>
    </g>
</svg>
