<svg xmlns="http://www.w3.org/2000/svg" width="19" height="19" viewBox="0 0 19 19">
    <g fill="none" fill-rule="evenodd">
        <g fill-rule="nonzero" stroke="#001443">
            <path d="M1091.513 961.5l.287.015c1.126.086 2.227.56 3.089 1.422.704.708 1.15 1.574 1.336 2.482.196.953.107 1.953-.267 2.865l-.11.247 7.808 7.807-1.916 2.385-8.296-7.827c-.97.437-2.052.546-3.076.326-.891-.191-1.738-.633-2.43-1.325-.863-.859-1.336-1.959-1.423-3.084-.067-.86.092-1.734.476-2.526l.136-.26 3.106 3.105 1.893-1.879-3.117-3.125c.69-.386 1.45-.594 2.216-.624l.288-.003zm2.909 1.915c-1.158-1.146-2.782-1.503-4.25-1.061h0l2.897 2.897-2.826 2.827-2.897-2.897-.06.22c-.345 1.404.032 2.944 1.13 4.03.98.981 2.331 1.37 3.616 1.182.533-.075 1.05-.252 1.53-.536h0l7.95 7.95 1.436-1.453-7.93-7.93.138-.234c.216-.395.364-.817.438-1.259.236-1.308-.152-2.716-1.172-3.736z" transform="translate(-1086 -961)"/>
        </g>
    </g>
</svg>
