<svg xmlns="http://www.w3.org/2000/svg" xmlns:xlink="http://www.w3.org/1999/xlink" width="208" height="194" viewBox="0 0 208 194">
    <defs>
        <linearGradient id="xvy0z24vkc" x1="7.862%" x2="78.574%" y1="21.837%" y2="92.249%">
            <stop offset="0%" stop-color="#DFE9F2"/>
            <stop offset="39.1%" stop-color="#D6E0E9"/>
            <stop offset="100%" stop-color="#BFC8D1"/>
        </linearGradient>
        <linearGradient id="9umeswvn6d" x1="23.642%" x2="66.333%" y1="9.396%" y2="96.776%">
            <stop offset="0%" stop-color="#2ECC75"/>
            <stop offset="100%" stop-color="#0B964A"/>
        </linearGradient>
        <rect id="s98hr0oq4a" width="64.219" height="12.179" x="0" y="0" rx="1"/>
    </defs>
    <g fill="none" fill-rule="evenodd">
        <g>
            <g>
                <g>
                    <path fill="#EBEBEB" fill-rule="nonzero" d="M26.792 146.219c2.326-1.279 5.064-1.442 7.648-.99 1.387.245 2.833.687 3.777 1.798.944 1.11 1.125 3.058.04 4.015-.646.567-1.545.654-2.38.64-2.024-.025-4.27-.405-5.873.893-.904.736-1.536 1.967-2.639 2.328-1.102.36-2.295-.323-2.864-1.356-.527-1.078-.643-2.33-.325-3.496.263-1.641 1.23-3.058 2.616-3.832z" opacity=".233" transform="translate(-144 -143) translate(17 111) translate(127 32)"/>
                    <path fill="#EBEBEB" fill-rule="nonzero" d="M21.361 136.614c1.444 2.176 4.25 1.454 5.55.126 1.303-1.328 1.834-3.256 2.352-5.098 1.142-4.201 2.292-8.606 1.444-12.884-.204-1.298-.743-2.51-1.558-3.504-.838-.997-2.115-1.446-3.35-1.177-1.413.392-2.293 1.86-2.93 3.251-1.87 4.114-2.85 8.616-2.869 13.18 0 2.123.23 4.361 1.375 6.106M16.488 137.934c1.555-1.883 1.851-4.64 1.16-6.987-.691-2.347-2.274-4.365-4.056-6.003-2.123-1.927-4.595-3.411-7.276-4.37-1.036-.425-2.15-.618-3.265-.566-1.127.07-2.147.702-2.729 1.69-.764 1.488-.031 3.293.76 4.763 1.396 2.599 2.991 5.08 4.77 7.423 1.432 1.879 3.07 3.735 5.248 4.583 2.178.85 4.442.752 5.597-.793" opacity=".232" transform="translate(-144 -143) translate(17 111) translate(127 32)"/>
                    <path fill="#E0E0E0" fill-rule="nonzero" d="M21.053 167c.076-.309.12-.624.13-.942.07-.68.155-1.539.257-2.559.129-1.261.323-2.515.582-3.757.346-1.514.814-2.998 1.398-4.438.572-1.436 1.345-2.786 2.296-4.01.778-.998 1.77-1.813 2.907-2.385.769-.378 1.595-.63 2.445-.749.315-.011.628-.057.932-.138-.32-.03-.644-.03-.964 0-.883.067-1.746.29-2.548.657-1.197.554-2.246 1.375-3.065 2.398-.994 1.243-1.796 2.624-2.38 4.098-.599 1.46-1.066 2.967-1.398 4.507-.246 1.257-.415 2.527-.508 3.804-.084 1.088-.112 1.97-.13 2.577-.017.313-.002.627.046.937z" transform="translate(-144 -143) translate(17 111) translate(127 32)"/>
                    <path fill="#E0E0E0" fill-rule="nonzero" d="M21.18 166c.03-.157.039-.318.028-.477v-1.294c0-1.127 0-2.75.056-4.775.097-4.016.43-8.337 1.079-14.43.615-5.73 1.435-12.414 2.314-16.736.186-.983.375-1.871.551-2.65.176-.778.31-1.432.463-1.99l.255-1.204c.042-.144.066-.293.074-.444-.067.135-.119.277-.153.425-.092.325-.213.735-.36 1.241-.149.507-.316 1.165-.487 1.958-.171.793-.403 1.662-.606 2.645-1.079 5.128-1.888 10.311-2.426 15.528-.649 6.107-.926 11.665-.968 15.69 0 2.015 0 3.643.07 4.775.032.53.055.955.078 1.294-.007.149.004.298.033.444z" transform="translate(-144 -143) translate(17 111) translate(127 32)"/>
                    <path fill="#E0E0E0" fill-rule="nonzero" d="M21.971 155c.039-.434.039-.871 0-1.306-.054-.84-.179-2.053-.433-3.543-.308-1.74-.722-3.461-1.24-5.158-.609-2.086-1.388-4.126-2.33-6.103-1.623-3.645-3.946-6.987-6.858-9.864-.503-.493-1.04-.955-1.608-1.384-.25-.193-.468-.387-.687-.54l-.623-.396c-.375-.266-.773-.502-1.19-.706-.07.083 1.683 1.038 3.894 3.23 2.816 2.896 5.078 6.216 6.688 9.817.924 1.964 1.706 3.983 2.34 6.043.608 1.896.997 3.64 1.32 5.107.324 1.467.464 2.676.563 3.507.018.435.073.869.164 1.296z" transform="translate(-144 -143) translate(17 111) translate(127 32)"/>
                    <path fill="#E0E0E0" fill-rule="nonzero" d="M11 173L12.071 188 30.929 188 32 173zM9 168H34V173H9z" opacity=".295" transform="translate(-144 -143) translate(17 111) translate(127 32)"/>
                    <path fill="#EBEBEB" fill-rule="nonzero" d="M9 187L9 189 10.193 189 34 189 34 187z" opacity=".356" transform="translate(-144 -143) translate(17 111) translate(127 32)"/>
                    <path fill="#E0E0E0" fill-rule="nonzero" d="M12.127 192L11 189 33 189 31.687 192z" opacity=".295" transform="translate(-144 -143) translate(17 111) translate(127 32)"/>
                    <path fill="#F5F5F5" fill-rule="nonzero" d="M31 177.975s0 .046-.084.129l-.277.363-1.082 1.381-.046.06-.047-.065-2.656-3.608h.155l-2.619 3.64-.08.111-.093-.106-3.096-3.622h.178l-.173.212-2.773 3.415-.09.115-.084-.12-2.618-3.636h.155l-3.223 3.609-.056.064-.047-.074c-.421-.7-.759-1.26-1.007-1.666l-.257-.46c-.032-.05-.059-.102-.08-.157 0 0 .042.042.108.139l.285.428 1.059 1.634h-.098c.824-.949 1.901-2.187 3.166-3.65l.08-.093.074.102 2.637 3.618h-.178l2.769-3.42.168-.208.09-.11.088.106 3.092 3.632h-.174l2.642-3.623.075-.106.08.106 2.594 3.65h-.093c.468-.557.852-.999 1.124-1.325l.304-.341c.066-.092.103-.129.108-.124zM32 173.5c0 .14-4.7.25-10.498.25-5.798 0-10.502-.11-10.502-.25s4.7-.25 10.502-.25c5.803 0 10.498.08 10.498.25zM33 188.495c0 .14-5.146.25-11.5.25s-11.5-.11-11.5-.25 5.15-.24 11.5-.24 11.5.11 11.5.24z" transform="translate(-144 -143) translate(17 111) translate(127 32)"/>
                    <g fill="#263238" fill-rule="nonzero">
                        <path d="M206.719.66c0 .07-46.214.13-103.214.13S.28.73.28.66 46.486.53 103.505.53c57.018 0 103.214.06 103.214.13z" transform="translate(-144 -143) translate(17 111) translate(127 32) translate(1 191)"/>
                    </g>
                    <g transform="translate(-144 -143) translate(17 111) translate(127 32) translate(73 14)">
                        <path fill="#281666" fill-rule="nonzero" d="M75.73 178l-62.234-.277c-3.599-.016-7.043-1.42-9.575-3.9C1.39 171.34-.02 167.983 0 164.492L.656 13.098c.016-3.49 1.46-6.83 4.015-9.286C7.226 1.356 10.681-.016 14.28 0l62.24.282c3.596.02 7.038 1.425 9.566 3.907 2.53 2.482 3.937 5.838 3.915 9.328l-.661 151.394c-.039 7.258-6.128 13.114-13.608 13.089z"/>
                        <path fill="#FAFAFA" fill-rule="nonzero" d="M76.35 5.415l-12.038-.054c-.794.013-1.549.331-2.1.884-.55.553-.851 1.296-.836 2.064v2.115c.026 1.599-1.287 2.916-2.937 2.949l-23.47-.109c-.793-.02-1.544-.345-2.09-.902-.545-.557-.84-1.301-.818-2.069V8.178c.04-1.6-1.262-2.929-2.913-2.975h-4.236l-10.534-.05c-2.513-.011-4.928.946-6.713 2.66-1.785 1.714-2.795 4.044-2.806 6.479l-.64 147.19c-.02 5.065 4.2 9.188 9.43 9.21l61.972.282c5.233.02 9.494-4.07 9.52-9.14l.64-147.189c.015-2.436-.97-4.777-2.74-6.509-1.768-1.73-4.176-2.71-6.69-2.72z"/>
                        <g transform="translate(12.188 62.3)">
                            <mask id="iahs1c79rb" fill="#fff">
                                <use xlink:href="#s98hr0oq4a"/>
                            </mask>
                            <use fill="#FFF" stroke="#ADACB6" stroke-width=".6" xlink:href="#s98hr0oq4a"/>
                            <path fill="#7353DD" d="M0 11.242H64.688V12.242H0z" mask="url(#iahs1c79rb)"/>
                            <circle cx="9.609" cy="6.324" r="1" fill="#000" mask="url(#iahs1c79rb)"/>
                            <circle cx="36.328" cy="6.324" r="1" fill="#000" mask="url(#iahs1c79rb)"/>
                            <circle cx="18.516" cy="6.324" r="1" fill="#000" mask="url(#iahs1c79rb)"/>
                            <circle cx="45.234" cy="6.324" r="1" fill="#000" mask="url(#iahs1c79rb)"/>
                            <circle cx="27.891" cy="6.324" r="1" fill="#000" mask="url(#iahs1c79rb)"/>
                            <circle cx="54.609" cy="6.324" r="1" fill="#000" mask="url(#iahs1c79rb)"/>
                        </g>
                        <rect width="63.281" height="12.179" x="13.125" y="85.253" fill="#281666" fill-rule="nonzero" rx="4"/>
                        <path fill="#FFF" fill-rule="nonzero" d="M24.879 93.216l1.236-3.33h-.48l-.953 2.747-.947-2.747h-.479l1.234 3.33h.389zm2.644.046c.415 0 .726-.16.933-.478l-.258-.202c-.078.1-.169.182-.273.243-.103.06-.23.091-.38.091-.21 0-.384-.075-.52-.225-.137-.15-.208-.347-.214-.591h1.677v-.176c0-.395-.089-.699-.267-.91-.179-.213-.43-.319-.751-.319-.197 0-.38.055-.548.164-.169.109-.3.26-.394.453-.094.193-.14.412-.14.657v.078c0 .369.105.664.315.884.21.22.484.33.82.33zm.542-1.51h-1.24c.027-.224.099-.398.215-.523.116-.124.259-.186.43-.186.177 0 .317.059.421.177.104.118.162.285.174.5v.032zm1.337 1.464v-1.757c.099-.236.287-.354.565-.354.075 0 .144.005.208.016v-.394c-.042-.021-.105-.032-.187-.032-.255 0-.452.11-.59.332l-.008-.286h-.412v2.475h.424zm1.414-2.891c.083 0 .145-.023.188-.069.043-.046.064-.103.064-.171 0-.069-.021-.127-.064-.174-.043-.048-.105-.071-.188-.071-.082 0-.144.023-.186.07-.042.048-.063.106-.063.175 0 .068.02.125.063.171.042.046.104.069.186.069zm.208 2.89v-2.474h-.423v2.475h.423zm1.31 0v-2.147h.528v-.327h-.528v-.26c0-.15.037-.265.112-.345.075-.08.18-.12.318-.12.08 0 .157.007.229.02l.023-.343c-.096-.025-.193-.038-.29-.038-.26 0-.461.072-.603.217-.142.145-.213.35-.213.615v.254h-.391v.327h.391v2.148h.424zm1.105 1c.336 0 .58-.206.735-.617l.996-2.857h-.454l-.576 1.855-.618-1.855h-.463l.884 2.447-.094.252c-.052.154-.118.26-.198.318-.08.058-.192.087-.335.087l-.115-.01v.344l.158.03.08.006zm3.774-1v-1.303H38c.376 0 .666-.087.868-.262.202-.174.303-.423.303-.747 0-.306-.103-.552-.31-.738-.207-.186-.492-.28-.857-.28h-1.229v3.33h.44zm.79-1.662h-.79v-1.306h.815c.218.005.39.066.515.185.125.12.188.278.188.476 0 .209-.063.369-.188.48-.125.11-.305.165-.54.165zm2.085 1.663v-1.764c.058-.119.14-.215.243-.288.104-.073.224-.11.361-.11.17 0 .295.043.375.128.08.086.12.218.122.396v1.638h.424V91.58c-.005-.59-.269-.885-.792-.885-.301 0-.545.115-.733.346v-1.338h-.423v3.513h.423zm3.175.046c.223 0 .42-.054.591-.16.172-.107.304-.256.396-.448.093-.191.139-.407.139-.648v-.03c0-.387-.104-.697-.313-.93-.208-.234-.48-.35-.818-.35-.218 0-.412.052-.582.157-.17.105-.303.255-.399.448-.095.194-.143.412-.143.655v.03c0 .384.105.692.313.926.208.233.48.35.816.35zm0-.346c-.214 0-.384-.083-.512-.25-.127-.165-.19-.386-.19-.66 0-.31.063-.548.191-.714.129-.166.297-.25.506-.25.214 0 .385.085.514.254.129.168.193.388.193.66 0 .303-.063.539-.19.707-.126.169-.297.253-.512.253zm2.08.3v-1.764c.058-.119.14-.215.243-.288.104-.073.224-.11.362-.11.169 0 .294.043.374.128.08.086.12.218.122.396v1.638h.424V91.58c-.005-.59-.269-.885-.792-.885-.305 0-.553.12-.742.357l-.014-.311h-.4v2.475h.423zm3.19.046c.416 0 .727-.16.935-.478l-.259-.202c-.078.1-.168.182-.272.243-.104.06-.23.091-.38.091-.21 0-.384-.075-.52-.225-.137-.15-.209-.347-.215-.591H49.5v-.176c0-.395-.09-.699-.268-.91-.179-.213-.429-.319-.75-.319-.198 0-.38.055-.549.164-.168.109-.3.26-.394.453-.093.193-.14.412-.14.657v.078c0 .369.105.664.316.884.21.22.483.33.819.33zm.543-1.51h-1.24c.027-.224.099-.398.215-.523.116-.124.26-.186.43-.186.177 0 .318.059.421.177.104.118.162.285.174.5v.032zm2.497 1.464v-1.764c.058-.119.14-.215.243-.288.104-.073.224-.11.362-.11.17 0 .294.043.374.128.08.086.12.218.122.396v1.638h.424V91.58c-.005-.59-.269-.885-.792-.885-.305 0-.552.12-.742.357l-.013-.311h-.4v2.475h.422zm2.967.046c.319 0 .56-.097.725-.29l.01.244h.402V90.74h-.423v1.8c-.107.241-.322.361-.646.361-.305 0-.457-.187-.457-.562V90.74h-.424v1.61c.002.3.072.527.21.68.138.154.339.23.603.23zm2.202-.046v-1.807c.102-.236.292-.355.57-.355.352 0 .528.18.528.54v1.622h.426v-1.642c.017-.159.077-.285.18-.379.105-.094.235-.14.392-.14.19 0 .327.043.408.13.08.089.12.22.12.398v1.633h.424v-1.658c-.009-.575-.285-.863-.828-.863-.18 0-.336.037-.468.11-.132.073-.24.17-.322.288-.125-.265-.36-.398-.707-.398-.308 0-.553.107-.735.32l-.011-.274h-.4v2.475h.423zm4.822.046c.293 0 .527-.115.7-.345.175-.23.261-.533.261-.911v-.037c0-.395-.085-.706-.257-.933-.172-.227-.408-.34-.708-.34-.301 0-.537.105-.708.317v-1.31h-.423v3.513h.389l.02-.286c.172.221.413.332.726.332zm-.105-.36c-.275 0-.477-.13-.607-.388v-1.07c.122-.26.323-.39.602-.39.21 0 .37.079.481.236.111.157.167.38.167.668 0 .315-.056.552-.17.709-.112.157-.27.235-.473.235zm2.627.36c.415 0 .727-.16.934-.478l-.258-.202c-.078.1-.169.182-.273.243-.103.06-.23.091-.38.091-.21 0-.384-.075-.52-.225-.137-.15-.208-.347-.214-.591h1.677v-.176c0-.395-.089-.699-.267-.91-.179-.213-.43-.319-.751-.319-.197 0-.38.055-.548.164-.169.109-.3.26-.394.453-.094.193-.14.412-.14.657v.078c0 .369.104.664.315.884.21.22.484.33.82.33zm.543-1.51h-1.24c.027-.224.099-.398.215-.523.115-.124.259-.186.43-.186.177 0 .317.059.421.177.104.118.162.285.174.5v.032zm1.337 1.464v-1.757c.099-.236.287-.354.565-.354.075 0 .144.005.208.016v-.394c-.043-.021-.105-.032-.187-.032-.255 0-.452.11-.591.332l-.007-.286h-.412v2.475h.424z"/>
                        <path fill="#13101D" fill-rule="nonzero" d="M36.775 54.337v-.36h-1.677v-1.18h1.444v-.359h-1.444v-1.07h1.654v-.361h-2.094v3.33h2.117zm.904 0v-1.764c.058-.119.14-.215.243-.288.104-.073.224-.11.362-.11.17 0 .294.043.374.129.08.085.12.217.122.395v1.638h.424V52.7c-.005-.59-.269-.885-.792-.885-.305 0-.553.12-.742.357l-.013-.31h-.401v2.474h.423zm2.887.046c.105 0 .213-.016.325-.046v-.343c-.086.018-.153.027-.202.027-.099 0-.17-.025-.21-.074-.042-.05-.062-.124-.062-.223v-1.535h.462v-.327h-.462v-.6h-.424v.6h-.45v.327h.45v1.535c0 .21.049.373.145.487.096.114.238.172.428.172zm1.835 0c.415 0 .727-.16.934-.478l-.259-.202c-.077.1-.168.182-.272.243-.104.06-.23.091-.38.091-.21 0-.384-.075-.52-.225-.137-.15-.208-.347-.215-.591h1.678v-.176c0-.395-.09-.699-.268-.91-.178-.213-.428-.319-.75-.319-.197 0-.38.055-.549.164-.168.109-.3.26-.393.453-.094.193-.141.412-.141.657v.078c0 .37.105.664.316.884.21.22.484.33.82.33zm.543-1.51h-1.24c.027-.224.098-.398.214-.523.116-.124.26-.186.43-.186.178 0 .318.06.422.177.104.118.162.285.174.5v.032zm1.336 1.464V52.58c.1-.236.288-.354.566-.354.075 0 .144.005.208.016v-.394c-.043-.021-.105-.032-.188-.032-.254 0-.451.11-.59.332l-.007-.286h-.412v2.475h.423zm3.617.046c.268 0 .503-.064.705-.193.201-.128.357-.313.467-.556.11-.244.164-.528.164-.855v-.21c0-.325-.055-.61-.164-.854-.11-.245-.267-.432-.47-.56-.204-.13-.44-.194-.707-.194-.262 0-.495.065-.7.195-.203.13-.36.319-.472.564-.111.246-.167.529-.167.849v.24c.003.314.06.59.173.83.112.238.27.421.473.55.203.13.435.194.698.194zm0-.373c-.283 0-.504-.11-.665-.328-.161-.22-.242-.52-.242-.903v-.244c.005-.376.087-.669.246-.88.16-.211.378-.317.656-.317.285 0 .508.106.666.317.159.211.238.514.238.91v.246c-.004.386-.084.682-.24.889-.156.206-.375.31-.66.31zm3.227.327v-2.969h1.071v-.361h-2.577v.361h1.069v2.969h.437zm2.005 0v-1.304h.785c.377 0 .666-.087.869-.262.202-.174.303-.423.303-.747 0-.306-.103-.552-.31-.738-.207-.186-.493-.28-.857-.28h-1.23v3.33h.44zm.79-1.663h-.79v-1.306h.815c.218.005.39.066.515.185.125.12.187.278.187.476 0 .209-.062.369-.187.48-.125.11-.305.165-.54.165z"/>
                    </g>
                    <g fill-rule="nonzero">
                        <path fill="#FFBE9D" d="M2.178 5.434v.141c.112.672.93 3.518 1.322 3.542.39.023 1.326-.47 1.289-.864-.038-.395-1.14-3.556-1.14-3.556s-.21-.47-1.085-.371c-.544.08-.386 1.108-.386 1.108z" transform="translate(-144 -143) translate(17 111) translate(127 32) translate(12 7)"/>
                        <path fill="#FFBE9D" d="M3.593 3.927c-.013.046-.013.094 0 .14.116.677.93 3.519 1.321 3.547.391.028 1.331-.47 1.294-.864-.037-.395-1.15-3.547-1.15-3.547s-.209-.47-1.084-.37c-.54.07-.381 1.094-.381 1.094z" transform="translate(-144 -143) translate(17 111) translate(127 32) translate(12 7)"/>
                        <path fill="#FFBE9D" d="M5.12 2.95v.14c.11.672.93 3.519 1.32 3.542.392.024 1.332-.47 1.294-.864-.037-.395-1.154-3.546-1.154-3.546s-.204-.47-1.084-.371c-.54.07-.377 1.099-.377 1.099z" transform="translate(-144 -143) translate(17 111) translate(127 32) translate(12 7)"/>
                        <path fill="#FFBE9D" d="M6.632 2c-.013.047-.013.096 0 .142.111.676.93 3.518 1.321 3.546.391.028 1.331-.47 1.294-.864-.037-.395-1.15-3.546-1.15-3.546S7.888.808 7.008.902C6.473.977 6.632 2 6.632 2z" transform="translate(-144 -143) translate(17 111) translate(127 32) translate(12 7)"/>
                        <path fill="#EB996E" d="M4.584 7.417c-.23-.427-.403-.882-.517-1.353-.17-.44-.286-.899-.344-1.367.23.427.403.881.517 1.353.17.44.285.898.344 1.367zM6.255 6.956c-.293-.62-.53-1.267-.708-1.93-.236-.646-.412-1.313-.526-1.992.29.623.525 1.27.703 1.935.234.646.411 1.31.53 1.987z" transform="translate(-144 -143) translate(17 111) translate(127 32) translate(12 7)"/>
                        <g fill="#EB996E" opacity=".78">
                            <path d="M1.396 3.988C1.1 3.368.864 2.722.69 2.058.452 1.41.276.744.163.065.453.689.688 1.336.866 2c.233.645.41 1.31.53 1.987z" transform="translate(-144 -143) translate(17 111) translate(127 32) translate(12 7) translate(6.515 2.348)"/>
                        </g>
                        <path fill="#FFBE9D" d="M3.69 10.892c-.046-.169-1.53-5.932-1.53-5.932h7.213c.27.47.758 5.082.758 5.082l-.358 1.513s-4.98 2.23-5.12 2.24c-.139.01-.963-2.903-.963-2.903z" transform="translate(-144 -143) translate(17 111) translate(127 32) translate(12 7)"/>
                        <path fill="#FFBE9D" d="M8.6 10.263l.87-2.278c.381-1.001.364-2.111-.046-3.1l-.312-.756-5.491 1.878s1.037 1.88 2.466 1.062L4.858 8.976 8.6 10.263z" transform="translate(-144 -143) translate(17 111) translate(127 32) translate(12 7)"/>
                        <path fill="#EB996E" d="M5.291 9.197c.028 0 0-.277.15-.724.188-.622.597-1.152 1.149-1.489l.526-.314-.6.103-1.397.244h.028c-.601.008-1.154-.331-1.424-.873-.016-.042-.03-.084-.042-.127l-.093.155c1.573-.47 2.988-.897 3.993-1.273.498-.188.903-.348 1.173-.47.148-.05.288-.123.414-.216-.56.138-1.111.308-1.652.507-1.01.325-2.43.733-4.007 1.189l-.121.037.028.122c.014.063.035.125.06.184.14.339.392.62.712.793.29.146.608.226.931.235h.028l1.396-.272-.074-.211c-.585.379-1 .974-1.154 1.658-.076.24-.084.497-.024.742z" transform="translate(-144 -143) translate(17 111) translate(127 32) translate(12 7)"/>
                        <path fill="#EB996E" d="M4.267 6.721c-.05 0 0 .292-.111.667-.062.21-.25.355-.466.362-.257-.046-.472-.224-.567-.47-.266-.592-.536-1.141-.694-1.53-.158-.39-.228-.658-.27-.65-.031.241 0 .485.089.71.176.546.387 1.08.633 1.597.15.338.476.56.842.578.311-.017.573-.242.638-.55.042-.179.042-.365 0-.545-.047-.108-.075-.173-.094-.169z" transform="translate(-144 -143) translate(17 111) translate(127 32) translate(12 7)"/>
                        <path fill="#263238" d="M47.747 53.827c-.046 0-.349-.892-1.052-2.254-.398-.796-.943-1.509-1.605-2.1-.395-.335-.845-.596-1.331-.77-.53-.181-1.078-.302-1.634-.362-1.144-.145-2.29-.22-3.257-.643-1.42-.636-2.4-1.987-2.569-3.546-.016-.166-.016-.333 0-.498 0-.118 0-.174.023-.174.024 0 0 .24.08.662.095.594.307 1.162.623 1.672.46.76 1.143 1.354 1.955 1.7.93.39 2.029.47 3.187.606.574.063 1.14.19 1.685.38.51.188.984.466 1.396.823.676.617 1.225 1.362 1.615 2.193.268.549.503 1.114.703 1.691.08.2.14.408.181.62z" transform="translate(-144 -143) translate(17 111) translate(127 32) translate(12 7)"/>
                        <path fill="#361D87" d="M27.852 25.542c3.252-1.54 7.116-.799 9.582 1.837 1.178 1.315 1.95 3.024 3.388 4.044 1.769 1.244 4.1 1.146 6.255 1.212 2.155.065 4.589.512 5.761 2.348.545.855.726 1.879 1.02 2.86.293.982.767 1.973 1.656 2.452.694.288 1.433.447 2.183.47.74.099 1.54.338 1.936.977-1.005 2.94-2.538 5.668-4.524 8.046l-1.512-.785c.037.602.079 1.208.116 1.814-1.374.772-2.604 1.782-3.634 2.982-.931-1.146-1.862-2.294-2.793-3.443-.819-1-1.68-2.038-2.848-2.583-1.084-.507-2.327-.536-3.504-.672s-2.443-.437-3.258-1.32c-.656-.718-.93-1.719-1.503-2.508-.81-1.084-2.122-1.664-3.462-1.531" transform="translate(-144 -143) translate(17 111) translate(127 32) translate(12 7)"/>
                        <path fill="#E87D15" d="M33.535 41.042c-.214.94.465 1.879 1.307 2.255.876.333 1.814.465 2.746.385.934-.082 1.873.061 2.741.418 1.396.695 2.048 2.348 3.258 3.311 1.155.917 2.706 1.144 4.071.596 1.366-.548 2.34-1.787 2.556-3.254-1.472 1.137-3.514 1.148-4.998.028-1.131-.893-1.774-2.377-3.063-3.006-1.289-.63-2.792-.22-4.188-.099-1.396.122-3.15-.282-3.57-1.648l-.302.051-.558.963z" transform="translate(-144 -143) translate(17 111) translate(127 32) translate(12 7)"/>
                        <g fill="#000" opacity=".3">
                            <path d="M.363 2.56c-.07.108.977.94.973.812 0 0 .707-.399.819-.798.139-.427.063-.895-.205-1.254C1.434 1.07 1.056.6.92.038H.605L.363 2.56" transform="translate(-144 -143) translate(17 111) translate(127 32) translate(12 7) translate(33.507 39.924)"/>
                        </g>
                        <path fill="#FAFAFA" d="M36.704 41.639c.03.345-.007.692-.107 1.024-.065.339-.163.671-.293.99.036-.341.102-.679.195-1.01.135-.549.186-1.004.205-1.004zM41.074 41.47c-.295.342-.566.704-.81 1.085-.209.401-.377.823-.503 1.258-.006-.135.012-.27.056-.399.077-.318.2-.623.363-.906.164-.283.36-.545.587-.78.09-.1.193-.187.307-.258zM44.913 44.678c-.067.128-.153.246-.256.347-.229.262-.485.498-.763.705-.277.208-.575.386-.889.53-.124.072-.26.12-.4.146.425-.228.836-.48 1.233-.756.378-.302.737-.626 1.075-.972zM47.9 47.862c-.027 0 .029-.512.033-1.137-.021-.378-.021-.758 0-1.136.07.374.096.756.08 1.136.021.383-.017.766-.112 1.137z" transform="translate(-144 -143) translate(17 111) translate(127 32) translate(12 7)"/>
                        <path fill="#FFBE9D" d="M62.816 128.866L79.89 122.384 77.512 114.761 59.037 119.078z" transform="translate(-144 -143) translate(17 111) translate(127 32) translate(12 7)"/>
                        <path fill="#DF6101" d="M77.661 123.3l.503-.15s6.017 7.571 7.664 7.167l-5.221-17.092-5.584 1.987c2.001 2.181 2.964 5.133 2.638 8.088z" transform="translate(-144 -143) translate(17 111) translate(127 32) translate(12 7)"/>
                        <g fill="#FFF" opacity=".6">
                            <path d="M.121.836C.123.465.398.153.763.108c.37-.014.687.266.722.639.001.395-.295.727-.685.765-.353 0-.744-.394-.674-.746" transform="translate(-144 -143) translate(17 111) translate(127 32) translate(12 7) translate(77.252 115.545)"/>
                        </g>
                        <g fill="#FFF" opacity=".6">
                            <path d="M1.494.028L.158.498 5.65 16.702s.563.658 1.065.41L1.494.027z" transform="translate(-144 -143) translate(17 111) translate(127 32) translate(12 7) translate(79.113 113.197)"/>
                        </g>
                        <path fill="#263238" d="M78.229 123.192c.084-.028 0-.47.135-.94.135-.469.419-.821.363-.887-.056-.066-.493.207-.656.808-.163.601.111 1.061.158 1.02zM79.513 124.756c.084 0 .117-.408.377-.803.261-.395.61-.587.582-.672-.028-.084-.512 0-.833.508-.321.507-.205.99-.126.967zM81.947 125.113c0-.08-.465-.07-.837.287-.373.357-.466.803-.373.817.093.014.252-.305.573-.592.32-.286.656-.427.637-.512z" transform="translate(-144 -143) translate(17 111) translate(127 32) translate(12 7)"/>
                        <path fill="#FFBE9D" d="M23.408 162.576L28.388 180.293 36.108 178.537 33.381 159.594z" transform="translate(-144 -143) translate(17 111) translate(127 32) translate(12 7)"/>
                        <path fill="#DF6101" d="M27.666 177.973l.107.521s-7.976 5.42-7.71 7.111l17.306-3.832-1.498-5.763c-2.322 1.826-5.317 2.543-8.205 1.963z" transform="translate(-144 -143) translate(17 111) translate(127 32) translate(12 7)"/>
                        <g fill="#FFF" opacity=".6">
                            <path d="M1.015.244c.368.031.654.337.665.71-.02.371-.32.664-.689.671C.601 1.594.3 1.268.293.874c.053-.39.405-.665.791-.62" transform="translate(-144 -143) translate(17 111) translate(127 32) translate(12 7) translate(33.507 178.015)"/>
                        </g>
                        <g fill="#FFF" opacity=".6">
                            <path d="M17.358 1.41L16.995.022.54 4.227s-.698.512-.466 1.038L17.358 1.41z" transform="translate(-144 -143) translate(17 111) translate(127 32) translate(12 7) translate(20.011 180.364)"/>
                        </g>
                        <path fill="#263238" d="M27.727 178.555c0 .085.465.033.93.212.466.178.773.47.848.441.074-.028-.163-.516-.745-.723-.582-.207-1.07 0-1.033.07zM26.06 179.715c0 .09.396.15.764.47.368.32.53.658.614.634.084-.023.033-.516-.432-.873-.466-.357-.945-.31-.945-.23zM25.521 182.14c.08 0 .102-.47-.214-.875-.317-.403-.754-.516-.773-.436-.018.08.275.272.536.62.26.347.363.7.451.69z" transform="translate(-144 -143) translate(17 111) translate(127 32) translate(12 7)"/>
                        <path fill="#1A0F44" d="M14.427 87.176s-.638 33.818 2.647 56.673l7.558 24.772 10.238-2.085s-3.927-25.65-4.477-36.12c-.549-10.47-.162-48.848-.162-48.848l-15.804 5.608z" transform="translate(-144 -143) translate(17 111) translate(127 32) translate(12 7)"/>
                        <path fill="#1A0F44" d="M21.22 84.137l9.932 38.67c.973 3.792 3.432 7.023 6.811 8.949 3.38 1.927 7.39 2.384 11.11 1.267l22.678-6.806-3.258-9.864-21.216 3.589-2.843-22.315s-3.947-16.665-9.205-16.66c-1.136 0-14.008 3.17-14.008 3.17z" transform="translate(-144 -143) translate(17 111) translate(127 32) translate(12 7)"/>
                        <path fill="#FFBE9D" d="M9.68 11.202l-.042 2.1s-.842 16.233-.796 18.66c.047 2.43 8.116 16.36 8.116 16.36l-4.923 8.14L.912 36.265C.455 35.44.271 34.49.386 33.55l2.658-21.577.07-.569" transform="translate(-144 -143) translate(17 111) translate(127 32) translate(12 7)"/>
                        <path fill="#DF6101" d="M8.926 32.456l8.66 11.569c1.634 2.18 4.445 3.414 6.944 4.457 6.212.305 13.751-.521 16.846 4.575.522.852.655 1.888.368 2.846-1.34 4.439-5.77 19.216-5.938 21.104 0 0 1.931 2.01 1.498 3.25-.433 1.24-2.075.71-2.075.71l-20.43 6.105s-.93-.47-.833-1.155c.383-1.519.873-3.009 1.466-4.457 1.181-3.129 1.331-6.558.428-9.78-.385-1.281-.696-2.585-.93-3.903l-.503-7.365c-2.84-4.767-9.192-11.742-12.45-21.46l6.949-6.496z" transform="translate(-144 -143) translate(17 111) translate(127 32) translate(12 7)"/>
                        <path fill="#FFBE9D" d="M35.14 33.691c.239-1.931-.308-3.878-1.515-5.396-1.208-1.518-2.973-2.477-4.893-2.659-3.797-.366-7.176 2.49-7.748 6.299-.498 3.34-.931 6.712-.931 7.933.046 3.692 2.187 5.129 3.057 5.561.31.115.632.197.959.244.005.01.005.02 0 .029l-.814 4.227c-.368 2.776 1.168 5.256 3.913 5.66 2.746.404 4.915-1.729 5.334-4.51l2.638-17.388z" transform="translate(-144 -143) translate(17 111) translate(127 32) translate(12 7)"/>
                        <path fill="#263238" d="M21.617 34.095c.06.085.544-.178 1.163-.084.619.094 1.028.47 1.103.404.074-.066 0-.174-.19-.348-.24-.228-.545-.375-.871-.418-.32-.049-.646.007-.93.16-.22.117-.308.244-.275.286zM27.127 35.298c.06.084.544-.174 1.163-.08.619.094 1.024.47 1.103.404.079-.066 0-.179-.19-.352-.241-.227-.545-.373-.871-.418-.32-.045-.644.011-.93.16-.22.121-.308.248-.275.286zM24.981 38.252c-.31-.15-.64-.26-.977-.329-.158-.042-.303-.094-.312-.206.009-.17.069-.335.172-.47l.642-1.146c.585-.965 1.091-1.977 1.513-3.025-.657.919-1.242 1.888-1.75 2.898-.214.404-.423.784-.623 1.156-.127.178-.188.396-.173.615.033.119.117.217.228.268.084.036.171.063.261.08.331.098.674.152 1.02.16z" transform="translate(-144 -143) translate(17 111) translate(127 32) translate(12 7)"/>
                        <path fill="#EB996E" d="M24.116 45.678s2.359.55 5.612-.827c0 0-1.396 3.053-5.831 1.968l.219-1.141z" transform="translate(-144 -143) translate(17 111) translate(127 32) translate(12 7)"/>
                        <path fill="#FF725E" d="M25.028 39.797c.283-.269.684-.372 1.06-.272.27.062.503.232.648.47.137.24.115.54-.056.756-.238.197-.57.23-.843.084-.278-.146-.525-.348-.726-.591-.06-.062-.11-.134-.148-.212-.034-.079-.02-.17.037-.235" transform="translate(-144 -143) translate(17 111) translate(127 32) translate(12 7)"/>
                        <path fill="#263238" d="M26.745 38.952c-.102 0-.2.658-.847 1.057-.647.399-1.35.216-1.368.31-.019.094.14.155.465.206.393.066.796-.012 1.136-.22.328-.197.567-.516.665-.888.042-.282-.005-.46-.051-.465zM27.55 33.264c.037.178.67.188 1.396.385.726.197 1.27.47 1.396.343.051-.066-.028-.24-.237-.442-.287-.25-.628-.429-.996-.52-.364-.102-.747-.113-1.117-.034-.302.07-.456.183-.442.268zM22.24 32.165c.089.16.54.075 1.052.145.512.07.93.235 1.056.1.051-.067 0-.217-.167-.381-.229-.201-.513-.326-.815-.357-.303-.042-.61.016-.88.164-.204.103-.283.254-.246.329z" transform="translate(-144 -143) translate(17 111) translate(127 32) translate(12 7)"/>
                        <path fill="#DF6101" d="M22.105 73.46c-1.365 0-2.673-.55-3.634-1.528-.962-.978-1.496-2.303-1.485-3.68.086-2.174.407-4.332.959-6.435l7.911 1.77 2.094-3.494s4.412-8.652 8.591-9.22c3.77-.517 5.864 2.212 5.068 5.998-.796 3.786-6.376 11.141-11.169 14.128-2.507 1.566-5.387 2.416-8.335 2.462z" transform="translate(-144 -143) translate(17 111) translate(127 32) translate(12 7)"/>
                        <path fill="#263238" d="M37.141 64.503c-.045.102-.101.198-.167.287-.121.188-.303.45-.545.79-.681.957-1.426 1.867-2.229 2.723-1.184 1.284-2.537 2.398-4.02 3.312-1.826 1.129-3.882 1.826-6.013 2.038-1.106.096-2.22.026-3.304-.206-1.025-.198-1.985-.65-2.793-1.316-.709-.638-1.223-1.467-1.48-2.39-.223-.794-.308-1.62-.25-2.443.1-1.178.352-2.339.748-3.452.135-.395.247-.695.322-.902.033-.107.077-.21.13-.31-.017.11-.045.22-.084.324-.07.235-.163.54-.274.94-.361 1.111-.588 2.262-.675 3.428-.04.803.054 1.606.279 2.377.25.882.746 1.672 1.429 2.278.785.633 1.712 1.063 2.699 1.254 1.062.221 2.15.286 3.23.193 2.095-.208 4.117-.887 5.919-1.987 1.474-.898 2.824-1.988 4.016-3.241.807-.843 1.567-1.73 2.276-2.658l.577-.761c.061-.1.131-.192.21-.278z" transform="translate(-144 -143) translate(17 111) translate(127 32) translate(12 7)"/>
                        <path fill="#263238" d="M37.965 64.743c-.185.475-.52.874-.954 1.137-.393.332-.884.523-1.396.545 0-.07.6-.282 1.238-.747.637-.465 1.052-.977 1.112-.935zM25.19 66.852c-.088-.53-.064-1.072.07-1.592.049-.535.208-1.053.466-1.522-.034.528-.118 1.052-.252 1.564-.044.525-.14 1.044-.283 1.55z" transform="translate(-144 -143) translate(17 111) translate(127 32) translate(12 7)"/>
                        <path fill="#263238" d="M26.624 67.402c-.788-1.1-1.141-2.457-.991-3.805.07 0 .102.888.377 1.935.274 1.048.68 1.837.614 1.87z" transform="translate(-144 -143) translate(17 111) translate(127 32) translate(12 7)"/>
                        <path fill="#263238" d="M30.877 55.424c-.196.438-.428.86-.693 1.259-.465.76-1.094 1.804-1.81 2.945-.717 1.141-1.396 2.175-1.862 2.912-.248.412-.528.803-.837 1.17.193-.439.424-.86.688-1.26.466-.765 1.094-1.807 1.815-2.949.722-1.141 1.396-2.174 1.862-2.912.246-.411.526-.801.837-1.165zM15.748 69.515c-.095-.146-.172-.304-.228-.47-.18-.46-.336-.93-.465-1.409-.868-3.143-.856-6.468.032-9.605.129-.478.284-.949.466-1.409.06-.164.137-.32.228-.47.042 0-.233.733-.535 1.926-.788 3.12-.801 6.39-.038 9.516.307 1.207.582 1.921.54 1.921zM31.729 75.772c-.099.167-.214.325-.344.47-.333.42-.69.82-1.07 1.197-.56.566-1.157 1.094-1.788 1.578-.777.587-1.595 1.118-2.448 1.588-.862.453-1.754.843-2.67 1.17-.75.258-1.517.465-2.295.62-.522.11-1.05.186-1.582.23-.195.022-.392.022-.587 0 0-.048.829-.118 2.132-.419.764-.177 1.517-.398 2.257-.662 1.81-.652 3.514-1.57 5.058-2.724.63-.472 1.23-.98 1.801-1.522.987-.902 1.499-1.555 1.536-1.526zM34.675 74.09c.335.469.605.983.8 1.527.268.513.462 1.061.577 1.63-.336-.47-.605-.986-.8-1.532-.265-.512-.46-1.06-.577-1.625z" transform="translate(-144 -143) translate(17 111) translate(127 32) translate(12 7)"/>
                        <path fill="#455A64" d="M30.612 120.712c-.065 0-1.61-6.345-3.453-14.204-1.843-7.858-3.285-14.24-3.22-14.255.065-.014 1.61 6.341 3.453 14.2 1.843 7.857 3.285 14.26 3.22 14.26zM39.72 84.146c-.079.114-.173.215-.28.3-.277.254-.576.482-.893.682-2.144 1.352-4.833 1.473-7.088.32-.327-.171-.638-.371-.93-.597-.21-.16-.312-.263-.303-.277.01-.014.465.328 1.326.718 2.223 1.032 4.803.915 6.925-.314.786-.46 1.21-.87 1.242-.832zM25.344 99.162c-.17-.097-.32-.226-.442-.38-.354-.401-.643-.856-.856-1.348-.305-.725-.565-1.469-.777-2.226l-.843-2.748c-.595-1.959-1.117-3.73-1.484-5.017-.168-.605-.312-1.117-.424-1.526-.062-.186-.103-.378-.12-.573.087.174.157.357.209.545.135.399.302.906.498 1.503.41 1.273.958 3.039 1.554 4.993.288.977.568 1.907.824 2.757.201.753.443 1.495.726 2.221.269.664.653 1.273 1.135 1.8zM22.44 86.04c-.028 0 .093-.231.428-.212.19.015.363.12.466.282.123.224.092.504-.08.695-.158.203-.427.283-.67.197-.182-.08-.314-.245-.353-.442-.07-.333.13-.47.14-.47.009 0-.07.18 0 .414.05.125.146.225.27.277.15.04.31-.016.404-.14.107-.115.137-.283.075-.428-.068-.118-.184-.2-.317-.226-.2-.032-.34.08-.363.052zM23.734 88.157s.033-.06.149-.084c.163-.021.327.036.442.155.18.195.2.49.051.71-.176.269-.513.381-.814.272-.287-.105-.496-.359-.545-.663-.049-.236 0-.482.135-.68.089-.144.247-.229.414-.222.126 0 .154.094.145.1-.01.004-.06 0-.145 0-.118.032-.218.114-.274.225-.092.18-.106.39-.04.58.066.191.206.346.389.43.199.078.425.01.549-.165.11-.137.11-.333 0-.47-.075-.098-.185-.162-.307-.178-.103-.01-.149.01-.149-.01zM16.544 87.434c.155.299.249.627.275.963.108.807.04 1.628-.2 2.405-.24.778-.643 1.494-1.183 2.1-.21.262-.47.478-.767.633-.028-.032.26-.277.637-.746.482-.614.848-1.31 1.08-2.058.23-.748.319-1.534.26-2.315-.042-.583-.144-.968-.102-.982zM47.873 119.627c-.532.706-1.126 1.363-1.773 1.963-.594.658-1.247 1.259-1.95 1.795.533-.707 1.128-1.364 1.778-1.964.592-.657 1.243-1.257 1.945-1.794z" transform="translate(-144 -143) translate(17 111) translate(127 32) translate(12 7)"/>
                        <path fill="#455A64" d="M46.31 123.958c.154-1.287.467-2.549.93-3.758-.034.65-.148 1.291-.34 1.912-.119.638-.318 1.258-.59 1.846z" transform="translate(-144 -143) translate(17 111) translate(127 32) translate(12 7)"/>
                        <g fill="#000" opacity=".3">
                            <path d="M.465 2.527c.363 1.346 1.272 2.476 2.504 3.11 1.236.618 2.622.864 3.993.709 3.51-.376 6.527-2.678 7.841-5.984-2.075 1.456-4.37 2.818-6.854 3.424-2.566.66-5.287.26-7.558-1.113" transform="translate(-144 -143) translate(17 111) translate(127 32) translate(12 7) translate(17.684 69.515)"/>
                        </g>
                        <path fill="#FFBE9D" d="M32.045 50.85l1.546-1.41c.113-.141.285-.221.465-.216.233.033.326.32.335.554.018.639-.252 1.25-.735 1.663" transform="translate(-144 -143) translate(17 111) translate(127 32) translate(12 7)"/>
                        <path fill="#EB996E" d="M33.637 51.427c-.028-.028.2-.22.4-.63.117-.236.19-.492.214-.755.024-.148.024-.299 0-.447-.032-.145-.116-.263-.223-.267-.107-.005-.237.094-.358.206l-.363.324-.624.54c-.358.301-.591.47-.614.47-.024 0 .172-.244.498-.578l.59-.577.354-.338c.134-.162.328-.26.536-.273.123.01.237.073.311.174.06.085.103.18.126.282.033.174.033.352 0 .526-.036.287-.13.564-.28.812-.274.404-.553.555-.567.531z" transform="translate(-144 -143) translate(17 111) translate(127 32) translate(12 7)"/>
                        <path fill="#FFBE9D" d="M25.088 52.329l-6.897 9.591 7.642 1.668 3.127-8.798 5.394.695 3.43-1.09-2.942-2.672-4.309-1.273c-2.026-.601-4.207.152-5.445 1.879z" transform="translate(-144 -143) translate(17 111) translate(127 32) translate(12 7)"/>
                        <path fill="#EB996E" d="M34.842 51.723c-.076-.005-.151-.02-.223-.047l-.624-.178c-.54-.16-1.321-.395-2.294-.663-.525-.148-1.058-.269-1.596-.361-.617-.095-1.245-.095-1.862 0-.672.102-1.31.364-1.861.765-.577.46-1.073 1.017-1.466 1.644-1.385 2.255-2.905 4.423-4.551 6.491-.638.79-1.173 1.41-1.555 1.837-.186.211-.335.371-.465.47-.048.058-.102.11-.163.155.163-.244.341-.476.535-.696.354-.441.87-1.08 1.49-1.878 1.604-2.095 3.101-4.27 4.486-6.52.408-.651.924-1.226 1.526-1.7.585-.42 1.262-.692 1.973-.794.636-.099 1.282-.099 1.918 0 .544.1 1.082.233 1.61.4.968.286 1.745.549 2.275.737l.61.22c.083.032.162.071.237.118z" transform="translate(-144 -143) translate(17 111) translate(127 32) translate(12 7)"/>
                        <path fill="#EB996E" d="M29.137 54.137c-.067.435-.184.86-.35 1.268-.09.43-.229.847-.413 1.245-.014-.898.253-1.777.763-2.513zM34.68 55.424c-.98.128-1.974.116-2.951-.037-.814-.09-1.531-.277-2.034-.17-.27.06-.528.167-.763.315-.032 0 .177-.343.73-.47.555-.126 1.304 0 2.095.095 1.605.16 2.918.178 2.922.267z" transform="translate(-144 -143) translate(17 111) translate(127 32) translate(12 7)"/>
                        <path fill="#FFBE9D" d="M36.104 51.084c-.276.398-.276.927 0 1.325.465.662.833.704.833.704l-.177.752 1.093.4.526-1.593-2.275-1.588z" transform="translate(-144 -143) translate(17 111) translate(127 32) translate(12 7)"/>
                        <path fill="#EB996E" d="M36.104 51.084c.226.102.442.228.642.376.41.263 1.005.648 1.698 1.123l.07.047-.028.08-.516 1.592-.038.122-.116-.042-1.089-.4-.102-.037.028-.099c.06-.263.12-.512.181-.751l.093.136c-.193-.057-.368-.164-.507-.31-.122-.116-.232-.244-.33-.38-.18-.224-.274-.507-.261-.794 0-.249.101-.486.28-.658-.081.212-.13.435-.145.662.008.25.103.49.27.677.097.123.204.238.32.342.114.11.251.192.401.24l.117.028-.024.108c-.056.24-.111.493-.167.752l-.075-.136 1.094.39-.154.075.53-1.588.047.127c-.647-.47-1.186-.87-1.582-1.17-.223-.157-.436-.328-.637-.512z" transform="translate(-144 -143) translate(17 111) translate(127 32) translate(12 7)"/>
                        <path fill="#FAFAFA" d="M39.868 62.174c-.28-.258-.53-.548-.744-.864l.06.037c-.493-.075-1.121-.188-1.805-.32-.98-.144-1.947-.37-2.89-.676.987.067 1.967.213 2.932.437.688.132 1.312.263 1.8.371h.038v.028c.244.302.449.633.61.987z" transform="translate(-144 -143) translate(17 111) translate(127 32) translate(12 7)"/>
                        <path fill="#263238" d="M37.984 81.201c-1.586-.249-3.157-.578-4.71-.986-1.57-.33-3.124-.739-4.654-1.226 1.587.248 3.16.577 4.715.986 1.569.329 3.12.738 4.649 1.226z" transform="translate(-144 -143) translate(17 111) translate(127 32) translate(12 7)"/>
                        <path fill="#FAFAFA" d="M59.042 73.954s-.038.131-.2.305c-.237.232-.531.395-.852.47-.484.124-.995.081-1.452-.122-.55-.253-1.018-.659-1.35-1.17-.343-.496-.567-1.068-.651-1.667-.068-.494-.002-.997.19-1.456.128-.307.324-.58.573-.799.177-.155.293-.207.303-.192-.31.298-.554.658-.717 1.056-.159.434-.204.902-.13 1.358.087.568.3 1.109.623 1.583.307.474.737.854 1.243 1.099.412.196.875.252 1.321.16.419-.097.8-.314 1.099-.625z" transform="translate(-144 -143) translate(17 111) translate(127 32) translate(12 7)"/>
                        <path fill="#361D87" d="M24.688 25.96c-2.038.536-4.617 2.654-3.658 5.702 2.504-.62 4.766-2.447 6.8-4.049.432 2.349.725 3.51 1.898 5.68.465.83 4.263 4.198 4.803 4.461.54.263.823-2.297.32-3.288 0 .014-2.387-10.54-10.163-8.506z" transform="translate(-144 -143) translate(17 111) translate(127 32) translate(12 7)"/>
                        <path fill="#E87D15" d="M24.688 25.96c2.612.385 5.004 1.692 6.753 3.687 1.695 2.22 2.786 4.85 3.164 7.628 2.238-2.85 1.396-8.036-.93-10.333-2.328-2.297-6.162-2.55-8.996-.987" transform="translate(-144 -143) translate(17 111) translate(127 32) translate(12 7)"/>
                        <path fill="#263238" d="M49.674 30.807c.051.076.09.16.111.25.069.255.069.524 0 .78-.11.406-.343.768-.665 1.037-.432.34-.932.578-1.466.7-.633.157-1.277.269-1.927.333-.751.085-1.512.048-2.252-.108-.83-.176-1.595-.577-2.215-1.16-.617-.663-1.061-1.47-1.294-2.348-.226-.855-.503-1.696-.828-2.518-.324-.744-.842-1.385-1.499-1.855-1.146-.774-2.497-1.181-3.876-1.17-.935 0-1.868.068-2.793.207l-.758.103c-.088.01-.177.01-.265 0 .082-.034.168-.058.256-.07l.754-.146c.92-.18 1.854-.275 2.792-.286 1.42-.034 2.818.369 4.007 1.155.693.49 1.24 1.163 1.582 1.945.336.828.619 1.676.847 2.54.22.847.641 1.626 1.228 2.27.587.554 1.313.938 2.1 1.108 1.358.24 2.752.18 4.085-.174.515-.104 1-.32 1.424-.634.31-.247.539-.582.656-.963.1-.324.099-.672-.004-.996z" transform="translate(-144 -143) translate(17 111) translate(127 32) translate(12 7)"/>
                        <path fill="#361D87" d="M31.617 34.288c-.066 1.618.38 3.216 1.275 4.56.931 1.292 2.616 2.124 4.166 1.753l-1.224-1.353c.953.504 2.106.434 2.992-.183-2.9-.75-5.363-2.676-6.808-5.322" transform="translate(-144 -143) translate(17 111) translate(127 32) translate(12 7)"/>
                        <path fill="#263238" d="M32.837 29.196c.248.306.453.644.61 1.006.423.85.746 1.746.963 2.672.22.923.334 1.869.34 2.818.022.394-.009.79-.094 1.175-.05-1.326-.205-2.646-.465-3.946-.355-1.275-.808-2.52-1.354-3.725z" transform="translate(-144 -143) translate(17 111) translate(127 32) translate(12 7)"/>
                        <path fill="#263238" d="M34.745 30.108c.119.314.19.645.214.981.114.803.169 1.613.163 2.424 0 .81-.06 1.618-.177 2.419-.029.336-.102.666-.219.981-.074 0 .154-1.526.154-3.405 0-1.879-.21-3.391-.135-3.4z" transform="translate(-144 -143) translate(17 111) translate(127 32) translate(12 7)"/>
                        <path fill="#FAFAFA" d="M34.382 27.853c-.172.055-.348.096-.526.122-.326.066-.773.17-1.257.315-.484.145-.93.3-1.224.423-.164.075-.333.138-.507.187.145-.102.301-.187.465-.253.398-.183.807-.34 1.224-.47.417-.125.842-.222 1.27-.291.184-.027.37-.038.555-.033zM31.887 25.702c-.193.046-.389.082-.586.108-.474.089-.94.213-1.396.37-.452.158-.892.348-1.317.57-.171.103-.348.195-.53.276 0 0 .041-.042.125-.098.084-.057.214-.146.372-.24.42-.24.86-.442 1.317-.601.454-.159.921-.274 1.396-.343.145-.023.291-.039.438-.047.125-.005.181-.005.181.005zM27.69 25.02c0 .029-.54.212-1.206.47-.284.113-.562.24-.833.38-.108.069-.221.127-.34.175.333-.288.72-.507 1.136-.644.335-.136.647-.24.87-.31.12-.04.246-.064.373-.07zM33.753 31.568c-.15.085-.32.132-.493.137-.17.03-.345.023-.512-.024.164-.046.333-.071.503-.075.165-.037.334-.05.502-.038zM34.866 32.362c-.104.047-.218.066-.33.056-.187 0-.336 0-.336-.037 0-.038.15-.052.33-.056.182-.005.331.009.336.037zM35.778 31.409c-.138.029-.281.029-.42 0-.139 0-.277-.03-.404-.09.136-.034.278-.034.414 0 .142-.002.282.029.41.09z" transform="translate(-144 -143) translate(17 111) translate(127 32) translate(12 7)"/>
                        <g fill="#000" opacity=".3">
                            <path d="M1.14 6.576C1.221 4.66.938 2.747.307.939.191.722.18.462.275.235.385.117.54.055.7.065c.16.01.307.091.402.222.178.278.263.608.242.939.003-.214.116-.411.298-.521.799 1.848.624 3.978-.466 5.669" transform="translate(-144 -143) translate(17 111) translate(127 32) translate(12 7) translate(33.507 30.53)"/>
                        </g>
                        <path fill="#263238" d="M3.326 2.98l9.622-.036c1.237-.005 2.244.994 2.248 2.231v.017l-.009 2.434c-.005 1.23-1 2.227-2.231 2.232l-9.622.037C2.097 9.899 1.09 8.9 1.086 7.663v-.017l.009-2.434c.005-1.23 1-2.226 2.231-2.231z" transform="translate(-144 -143) translate(17 111) translate(127 32) translate(12 7) rotate(-27.99 8.14 6.42)"/>
                        <path fill="#FAFAFA" d="M15.106 5.406l-.433-.826c-.063-.113-.204-.153-.316-.09l-.15.08c-.11.06-.248.02-.311-.09l-.866-1.61c-.057-.116-.011-.256.103-.315l.149-.08c.111-.058.156-.195.102-.31l-.135-.286-.381-.724C12.677.8 12.238.663 11.88.85L1.55 6.393c-.172.09-.3.247-.357.434-.057.187-.038.389.054.561l2.239 4.256c.09.173.245.303.43.36.185.058.385.038.556-.055l10.331-5.547c.172-.09.3-.247.358-.434.056-.187.037-.39-.055-.562z" transform="translate(-144 -143) translate(17 111) translate(127 32) translate(12 7)"/>
                        <g fill="#FFF" opacity=".2">
                            <path d="M.642.922C.762.806.784.62.693.48.67.433.633.394.591.366.493.277.344.277.246.366.182.449.154.556.17.659c.002.11.048.215.129.289.088.06.204.06.293 0L.64.922z" transform="translate(-144 -143) translate(17 111) translate(127 32) translate(12 7) translate(10.704 5.167)"/>
                        </g>
                        <path fill="#FFBE9D" d="M8.163 13.292l1.889-1.55c.827-.672 1.364-1.642 1.499-2.705l.083-.803-5.654-1.16s-.53 1.733 1.606 2.165c-1.895.827-2.602 2.56-3.118 4.434l3.695-.38z" transform="translate(-144 -143) translate(17 111) translate(127 32) translate(12 7)"/>
                        <path fill="#EB996E" d="M5.826 10.7c.028 0 .15-.235.494-.555.472-.44 1.088-.691 1.73-.704h.61l-.572-.211-1.321-.47h.027c-.536-.292-.857-.87-.823-1.484.005-.046.015-.092.028-.137l-.163.09c1.591.399 3.034.732 4.09.939.526.09.931.155 1.252.188.154.026.312.026.466 0-.552-.161-1.11-.293-1.676-.395-1.042-.23-2.47-.591-4.062-.99l-.121-.034-.038.123c-.02.059-.034.12-.042.183-.04.367.048.737.247 1.047.18.282.422.519.707.69l1.331.47.038-.216c-.693.028-1.348.328-1.825.836-.176.174-.306.391-.377.63z" transform="translate(-144 -143) translate(17 111) translate(127 32) translate(12 7)"/>
                    </g>
                    <g fill-rule="nonzero">
                        <path fill="#E87D15" d="M34.067 66.42c1.156-6.23-1.063-12.611-5.817-16.725 0 0-1.351-.501-1.235 1.031.07.918-.797 2.214-1.52 1.651-1.253-.979-.857-2.975-1.398-4.484-.629-1.769-2.484-2.71-4.194-3.462-3.133-1.395-6.316-2.743-9.681-3.363-3.366-.62-6.955-.473-10.026 1.074.746 1.523 1.49 3.044 2.232 4.564.131.404.415.738.79.928.375.19.809.22 1.205.084l4.074-.302c.592-.043 1.361.028 1.529.6.196.653-.573 1.14-1.203 1.367L4.55 50.94c1.422 2.086 3.376 3.739 5.654 4.782 2.27 1.032 4.627 1.853 7.043 2.455.744.284 1.552.347 2.33.18 1.245-.407 2.107-1.987 3.403-1.793-.15 1.466-.871 2.81-2.004 3.732 5.038 2.005 8.553 4.46 13.05 6.148" transform="translate(-144 -143) translate(17 111) translate(127 32) translate(146 87)"/>
                        <path fill="#263238" d="M38.388 89.122s0-.042-.037-.132l-.084-.393c-.075-.36-.182-.865-.312-1.508-.266-1.33-.639-3.221-1.1-5.558-.229-1.173-.466-2.46-.75-3.836-.131-.69-.271-1.419-.416-2.142l-.214-1.117c-.056-.383-.107-.77-.163-1.163-.466-3.112-1.026-6.584-2.522-9.895-1.496-3.31-3.934-5.864-6.24-7.955-2.083-1.835-4.304-3.502-6.643-4.985-1.985-1.287-3.635-2.252-4.773-2.933l-1.305-.785-.34-.208c-.075-.047-.112-.076-.107-.08l.121.057.35.189 1.328.742c1.151.658 2.82 1.604 4.82 2.871 2.359 1.47 4.598 3.13 6.697 4.962 1.235 1.089 2.388 2.27 3.45 3.533 1.145 1.362 2.109 2.87 2.866 4.488 1.51 3.354 2.06 6.849 2.517 9.966.056.392.107.776.158 1.159.052.383.145.752.21 1.12l.406 2.138c.256 1.382.498 2.668.717 3.846.43 2.336.779 4.256 1.026 5.571.112.644.2 1.15.266 1.514.028.165.046.293.065.397.008.045.011.091.01.137z" transform="translate(-144 -143) translate(17 111) translate(127 32) translate(146 87)"/>
                        <path fill="#E87D15" d="M46.293 31.822c-1.1 1.636-4.171.842-4.362-1.13-.192-1.973 2.67-3.359 4.064-1.964.487-5.789-.095-11.62-1.715-17.192-.32 1.143-.86 2.21-1.59 3.14-.787.875-2.055 1.42-3.15.998-1.478-.563-1.916-2.62-1.301-4.096.615-1.475 1.948-2.497 3.22-3.448-2.06-3.923-5.625-6.808-9.853-7.974-1.64 2.696-3.304 5.444-4.04 8.514-.737 3.07-.406 6.583 1.617 8.986.862 1.022 2 1.821 2.666 2.985.666 1.163.62 2.946-.555 3.57-1.398.738-2.941-.652-3.729-2.02-.787-1.366-1.584-3.055-3.127-3.31-.932 10.916 4.637 22.15 13.838 27.905l-.158-.15c3.653-4.35 6.43-9.382 8.175-14.814zm-7.085-12.09c.82-.766 1.8-1.335 2.867-1.664.44-.169.935-.036 1.235.33.282.37.396.846.312 1.306-.086.456-.273.885-.545 1.258-.407.638-.98 1.15-1.655 1.48-.685.327-1.477.327-2.162 0-.485-.222-.816-.691-.867-1.23.05-.589.347-1.128.815-1.48z" transform="translate(-144 -143) translate(17 111) translate(127 32) translate(146 87)"/>
                        <path fill="#263238" d="M40.42 89.122c-.006-.056-.006-.113 0-.17 0-.128 0-.293-.023-.506 0-.473-.042-1.112-.075-1.94-.065-1.702-.158-4.133-.28-7.136-.26-6.026-.675-14.346-1.346-23.521-.671-9.176-1.44-17.472-2.088-23.465-.313-2.998-.606-5.42-.807-7.094l-.219-1.93-.051-.501c-.005-.058-.005-.117 0-.175.02.055.032.112.037.17 0 .123.042.289.075.501.06.473.149 1.098.26 1.92.23 1.675.546 4.092.882 7.095.694 5.988 1.505 14.284 2.162 23.464.658 9.18 1.059 17.5 1.278 23.53.107 3.018.172 5.454.205 7.143 0 .832 0 1.485.023 1.944v.501c-.004.058-.015.115-.033.17z" transform="translate(-144 -143) translate(17 111) translate(127 32) translate(146 87)"/>
                        <path fill="#455A64" d="M23.016 78.977L27.356 97.655 50.097 97.655 54.907 78.977z" transform="translate(-144 -143) translate(17 111) translate(127 32) translate(146 87)"/>
                        <path fill="#455A64" d="M30.166 93.73c0 .354 1.762 11.062 1.762 11.062h13.834l1.524-11.063h-17.12z" transform="translate(-144 -143) translate(17 111) translate(127 32) translate(146 87)"/>
                        <path fill="#263238" d="M49.467 97.57c0 .066-4.964.123-11.084.123-6.12 0-11.083-.057-11.083-.123 0-.067 4.959-.123 11.083-.123 6.125 0 11.084.052 11.084.123zM51.835 90.04c0 .066-5.854.123-13.05.123-7.197 0-13.075-.057-13.075-.123s5.854-.123 13.074-.123 13.051.052 13.051.123zM50.805 92.641c0 .066-5.51.123-12.305.123-6.796 0-12.305-.057-12.305-.123s5.51-.123 12.305-.123c6.796 0 12.305.052 12.305.123zM50.735 95.243c0 .066-5.313.123-11.862.123s-11.867-.057-11.867-.123c0-.067 5.313-.123 11.867-.123 6.553 0 11.862.052 11.862.123zM52.492 87.5c0 .066-6.115.123-13.656.123-7.542 0-13.667-.043-13.667-.123s6.116-.128 13.662-.128c7.546 0 13.661.071 13.661.128zM52.93 85.433c0 .066-6.227.123-13.913.123s-13.913-.057-13.913-.123 6.227-.123 13.913-.123 13.914.052 13.914.123z" transform="translate(-144 -143) translate(17 111) translate(127 32) translate(146 87)"/>
                    </g>
                    <g>
                        <path fill="url(#xvy0z24vkc)" fill-rule="nonzero" d="M23.066 3.926C20.526 1.396 17.148 0 13.554 0 6.143 0 .11 6.004.107 13.384c0 2.256.571 4.478 1.656 6.446l-1.74 6.323c-.062.231.002.478.172.648.128.129.3.199.478.199.057 0 .114-.007.17-.022l6.518-1.702c1.902.984 4.035 1.503 6.187 1.504 7.417 0 13.449-6.005 13.452-13.385.001-3.577-1.396-6.94-3.934-9.47z" transform="translate(-144 -143) translate(17 111) translate(127 32) translate(35)"/>
                        <path fill="url(#9umeswvn6d)" fill-rule="nonzero" d="M21.074 5.831c-2.022-1.989-4.71-3.085-7.57-3.085-5.905 0-10.708 4.72-10.71 10.52-.002 1.988.564 3.924 1.636 5.6l.255.398-1.082 3.882 4.053-1.044.391.228c1.643.96 3.528 1.466 5.45 1.467h.004c5.901 0 10.704-4.72 10.706-10.522 0-2.811-1.111-5.455-3.133-7.444z" transform="translate(-144 -143) translate(17 111) translate(127 32) translate(35)"/>
                        <path fill="#000" fill-rule="nonzero" d="M16.74 19.678c-.675 0-1.597-.17-3.45-.889-2.075-.806-4.114-2.557-5.74-4.93l-.052-.075c-.436-.572-1.446-2.074-1.446-3.671 0-1.723.873-2.64 1.246-3.031l.058-.061c.515-.555 1.12-.614 1.357-.614.25.002.463 0 .647.008.443.017.949.143 1.313.94.17.373.458 1.072.684 1.62.144.352.262.638.298.714.199.39.209.779.024 1.144l-.044.089c-.087.175-.177.356-.369.576l-.16.188c-.11.132-.22.263-.318.364.264.428.818 1.24 1.58 1.91.946.828 1.756 1.174 2.19 1.36.087.037.159.069.215.095.275-.313.727-.848.883-1.077.523-.772 1.273-.504 1.52-.415.385.137 2.253 1.052 2.271 1.06l.173.084c.284.135.552.263.72.54.268.44.12 1.383-.13 2.072-.363 1.004-1.918 1.873-2.75 1.946l-.153.016c-.18.02-.362.037-.568.037zM8.82 7.742c-.094 0-.26-.039-.465.18l-.068.073c-.307.322-.88.923-.88 2.118 0 1.23.9 2.508 1.175 2.87l.091.13c1.475 2.151 3.292 3.726 5.114 4.434 2.295.891 2.885.824 3.361.768l.189-.02c.413-.036 1.439-.635 1.594-1.064.142-.39.187-.725.195-.917l-.097-.045-.192-.093c-.432-.213-1.885-.912-2.123-.998-.3.406-.856 1.045-1.003 1.211-.276.312-.765.607-1.512.237-.045-.022-.106-.048-.182-.08-.468-.201-1.444-.619-2.552-1.59-.996-.875-1.677-1.938-1.924-2.355-.302-.508-.219-.998.248-1.456.081-.08.174-.194.27-.307l.177-.21c.08-.09.11-.15.181-.294l.024-.047c-.063-.136-.189-.44-.34-.81-.22-.532-.5-1.212-.665-1.573-.044-.097-.077-.144-.093-.164.003.01-.02.01-.04.01-.15-.008-.315-.008-.482-.008z" opacity=".05" transform="translate(-144 -143) translate(17 111) translate(127 32) translate(35)"/>
                        <path fill="#000" fill-rule="nonzero" d="M16.672 19.678c-.563 0-1.434-.15-3.26-.883C11.435 18 9.49 16.265 7.93 13.91l-.058-.086c-.41-.558-1.356-2.01-1.356-3.533 0-1.616.794-2.48 1.134-2.848l.059-.066c.416-.463.9-.513 1.088-.513.25.002.444 0 .62.009.327.013.703.084 1 .755.165.376.446 1.082.665 1.635.15.377.27.68.301.744.055.112.225.458.026.866l-.044.092c-.084.173-.155.323-.316.514l-.162.196c-.115.143-.23.285-.33.386-.143.146-.143.146-.086.246.218.382.82 1.356 1.691 2.148.967.878 1.795 1.244 2.239 1.44.095.043.172.077.229.107.195.099.215.078.284-.002.192-.222.777-.925.974-1.226.368-.563.844-.387 1.1-.292.337.125 2.023.975 2.195 1.062l.174.087c.253.125.453.223.567.417.17.289.1 1.087-.156 1.819-.325.93-1.762 1.694-2.415 1.754l-.16.018c-.154.019-.318.039-.522.039zM8.892 7.543H8.84c-.122 0-.396.021-.64.293l-.065.07c-.31.337-.953 1.037-.953 2.385 0 1.318.853 2.622 1.22 3.121l.08.118c1.485 2.244 3.322 3.888 5.173 4.633 2.333.938 2.96.863 3.46.803l.177-.02c.462-.042 1.632-.687 1.848-1.306.222-.632.231-1.16.197-1.273.005.004-.154-.067-.27-.124l-.183-.092c-.415-.212-1.868-.937-2.122-1.031-.24-.089-.24-.09-.32.03-.232.354-.878 1.125-1.026 1.297-.427.498-.921.243-1.084.16-.048-.025-.114-.053-.195-.089-.445-.197-1.37-.607-2.417-1.558-.942-.856-1.588-1.902-1.823-2.312-.317-.552.04-.914.191-1.068.087-.088.187-.212.287-.337l.17-.208c.106-.126.15-.218.224-.37l.046-.098c.033-.066.039-.128-.026-.26-.035-.07-.163-.392-.322-.792-.217-.544-.493-1.24-.657-1.61-.152-.346-.242-.35-.42-.357-.154-.005-.325-.005-.498-.005z" opacity=".07" transform="translate(-144 -143) translate(17 111) translate(127 32) translate(35)"/>
                        <path fill="#FFF" d="M10.297 7.875c-.24-.526-.493-.536-.722-.546-.187-.008-.4-.007-.614-.007-.214 0-.561.08-.855.395-.294.316-1.123 1.08-1.123 2.632 0 1.553 1.149 3.054 1.31 3.265.16.21 2.218 3.499 5.478 4.764 2.708 1.052 3.26.843 3.848.79.588-.052 1.898-.763 2.165-1.5.267-.737.267-1.369.187-1.5-.08-.132-.294-.21-.615-.37-.32-.158-1.897-.92-2.191-1.026-.294-.105-.508-.158-.722.158-.214.316-.828 1.027-1.016 1.237-.187.211-.374.238-.695.08-.32-.159-1.353-.492-2.578-1.567-.954-.836-1.597-1.87-1.784-2.185-.188-.316-.02-.487.14-.645.144-.141.32-.368.481-.552.16-.185.214-.316.32-.527.108-.21.054-.395-.026-.553-.08-.158-.703-1.719-.988-2.343z" transform="translate(-144 -143) translate(17 111) translate(127 32) translate(35)"/>
                    </g>
                </g>
            </g>
        </g>
    </g>
</svg>
