<svg xmlns="http://www.w3.org/2000/svg" width="64" height="64" viewBox="0 0 64 64">
    <g fill="none" fill-rule="evenodd">
        <path d="M0 0H64V64H0z"/>
        <g fill-rule="nonzero" transform="translate(11 8)">
            <path fill="#7F9799" d="M21.094 8.432c-.4 0-.725-.325-.725-.725V1.495c0-.4.325-.724.725-.724.4 0 .724.324.724.724v6.212c0 .4-.324.725-.724.725z"/>
            <path fill="#AD9039" d="M5.173 5.896L7.834 5.896 7.834 13.923 5.173 13.923z" transform="rotate(-45 6.503 9.91)"/>
            <path fill="#AD9039" d="M34.355 5.901L37.015 5.901 37.015 13.928 34.355 13.928z" transform="rotate(-135 35.685 9.915)"/>
            <path fill="#5B787C" d="M10.636 48c-.109 0-.22-.01-.33-.03-1.03-.18-1.718-1.163-1.537-2.193l1.519-8.61c.181-1.03 1.164-1.717 2.193-1.536 1.03.182 1.718 1.164 1.536 2.194l-1.518 8.61c-.162.919-.961 1.565-1.863 1.565zM30.737 48c-.901 0-1.7-.646-1.862-1.565l-1.518-8.61c-.182-1.03.506-2.012 1.536-2.194 1.03-.181 2.012.506 2.193 1.536l1.519 8.61c.181 1.03-.507 2.012-1.537 2.194-.11.02-.221.029-.33.029z"/>
            <circle cx="21.094" cy="24.069" r="18.356" fill="#284E52"/>
            <circle cx="21.094" cy="24.069" r="14.087" fill="#D8DFE0"/>
            <path fill="#002F34" d="M16.608 31.033c-.321 0-.645-.107-.913-.325-.62-.505-.715-1.417-.21-2.038l4.16-5.115v-8.788c0-.8.649-1.448 1.449-1.448s1.449.648 1.449 1.448v9.303c0 .332-.115.655-.325.914l-4.485 5.514c-.287.352-.704.535-1.125.535z"/>
            <path fill="#FFCE32" d="M8.967 6.58l-5.79 5.791c-.265.265-.694.265-.959 0l-.779-.779c-1.863-1.863-1.863-4.885 0-6.749 1.864-1.863 4.886-1.863 6.75 0l.778.779c.265.265.265.694 0 .958zM33.22 6.58l5.791 5.791c.265.265.694.265.958 0l.78-.779c1.863-1.863 1.863-4.885 0-6.749-1.864-1.863-4.886-1.863-6.75 0l-.779.779c-.264.265-.264.694 0 .958z"/>
            <path fill="#AEBABB" d="M23.253 2.99h-4.319c-.825 0-1.495-.67-1.495-1.495C17.44.669 18.11 0 18.934 0h4.32c.825 0 1.494.67 1.494 1.495 0 .826-.67 1.495-1.495 1.495zM21.094 9.982c-.462 0-.919.023-1.37.067 7.129.69 12.72 6.715 12.72 14.02 0 7.306-5.591 13.33-12.72 14.02.451.045.908.068 1.37.068 7.767 0 14.087-6.32 14.087-14.088 0-7.767-6.32-14.087-14.087-14.087z"/>
        </g>
    </g>
</svg>
