<svg xmlns="http://www.w3.org/2000/svg" width="64" height="64" viewBox="0 0 64 64">
    <g fill="none" fill-rule="evenodd">
        <g>
            <g>
                <path d="M0 0H64V64H0z" transform="translate(-300 -952) translate(300 952)"/>
                <g fill-rule="nonzero">
                    <path fill="#001443" d="M14.572 29.468L30.25 13.791c2.563 1.004 5.589.472 7.66-1.599 2.07-2.07 2.602-5.096 1.598-7.66L35.892 8.15l-3.187-.853-.854-3.187L35.468.492c-2.564-1.004-5.59-.472-7.66 1.599-2.071 2.07-2.603 5.096-1.599 7.66L10.532 25.428c-2.758-1.162-6.064-.62-8.31 1.626-2.962 2.962-2.962 7.764 0 10.725 2.96 2.962 7.762 2.962 10.724 0 2.247-2.247 2.789-5.553 1.626-8.31zm-9.009 4.969c-1.116-1.116-1.115-2.925 0-4.04 1.116-1.116 2.925-1.116 4.04 0 1.117 1.115 1.117 2.924 0 4.04-1.115 1.115-2.924 1.116-4.04 0z" transform="translate(-300 -952) translate(300 952) matrix(-1 0 0 1 51 15)"/>
                    <path fill="#596685" d="M12.946 37.78c-2.962 2.96-7.763 2.96-10.725 0l3.342-3.343c1.116 1.116 2.925 1.115 4.04 0 1.117-1.116 1.117-2.925 0-4.04L32.706 7.295l3.187.853 3.616-3.617c1.004 2.564.472 5.59-1.598 7.66-2.071 2.071-5.097 2.603-7.66 1.6L14.572 29.467c1.163 2.758.62 6.064-1.626 8.311z" transform="translate(-300 -952) translate(300 952) matrix(-1 0 0 1 51 15)"/>
                </g>
                <g fill-rule="nonzero">
                    <path fill="#FFD5CD" d="M14.154 32.328c-.101.21-.263.386-.465.503l-6.832 3.974c-1.193-.2-2.005-.652-2.557-1.174-1.167-1.102-1.174-2.521-1.174-2.557l3.973-6.832c.119-.203.294-.366.506-.467 1.834-.877 3.98.268 4.312 2.238 1.981.335 3.114 2.494 2.237 4.315z" transform="translate(-300 -952) translate(300 952) translate(12 12)"/>
                    <path fill="#FFAA9A" d="M14.154 32.328c-.101.21-.263.386-.465.503l-6.832 3.974c-1.193-.2-2.005-.652-2.557-1.174l7.617-7.618c1.981.335 3.114 2.494 2.237 4.315z" transform="translate(-300 -952) translate(300 952) translate(12 12)"/>
                    <path fill="#FFCE32" d="M33.265 13.31L13.928 32.647c-.227.226-.526.343-.827.343-.852 0-1.431-.895-1.054-1.678.279-.581-.338-1.219-.936-.932-.448.214-.982.123-1.333-.228-.335-.327-.45-.87-.226-1.335.279-.582-.338-1.219-.936-.932-.514.246-1.13.086-1.46-.38-.33-.465-.276-1.1.127-1.503L26.62 6.665c.457-.456 1.198-.456 1.655 0l4.99 4.99c.456.457.456 1.198 0 1.655z" transform="translate(-300 -952) translate(300 952) translate(12 12)"/>
                    <path fill="#D9B238" d="M33.265 13.31L13.928 32.647c-.227.226-.526.343-.827.343-.852 0-1.431-.895-1.054-1.678.279-.581-.338-1.219-.936-.932-.448.214-.982.123-1.333-.228L30.77 9.16l2.495 2.496c.456.456.456 1.197 0 1.654z" transform="translate(-300 -952) translate(300 952) translate(12 12)"/>
                    <path fill="#FF5636" d="M38.765 7.81l-5.5 5.5-6.645-6.645 5.5-5.5c1.555-1.553 4.07-1.554 5.626 0l1.02 1.02c1.55 1.55 1.55 4.074 0 5.625z" transform="translate(-300 -952) translate(300 952) translate(12 12)"/>
                    <path fill="#D83C3C" d="M38.765 7.81l-5.5 5.5-3.322-3.322 8.313-8.313.51.51c1.55 1.55 1.55 4.074 0 5.625z" transform="translate(-300 -952) translate(300 952) translate(12 12)"/>
                    <path fill="#596685" d="M6.857 36.805L1.76 39.77c-.46.266-1.04.192-1.415-.184s-.451-.957-.184-1.415l2.966-5.099 3.731 3.732z" transform="translate(-300 -952) translate(300 952) translate(12 12)"/>
                    <path fill="#001443" d="M6.857 36.805L1.76 39.77c-.46.266-1.04.192-1.415-.184l4.648-4.648 1.865 1.866z" transform="translate(-300 -952) translate(300 952) translate(12 12)"/>
                </g>
            </g>
        </g>
    </g>
</svg>
