<svg xmlns="http://www.w3.org/2000/svg" width="64" height="64" viewBox="0 0 64 64">
    <g fill="none" fill-rule="evenodd">
        <g>
            <g>
                <path d="M0 0H64V64H0z" transform="translate(-477 -952) translate(477 952)"/>
                <g fill-rule="nonzero" transform="translate(-477 -952) translate(477 952) rotate(-19 42.427 -19.806)">
                    <path fill="#E0E0E0" d="M27.287 6.689c2.67 0 4.834 2.164 4.834 4.834v33.643c0 2.67-2.164 4.834-4.834 4.834H4.858c-2.67 0-4.834-2.164-4.834-4.834V11.523c0-2.67 2.164-4.834 4.834-4.834h22.429z"/>
                    <path fill="#BDBDBD" d="M6.792 50H4.858c-2.67 0-4.834-2.165-4.834-4.834V11.523c0-2.67 2.165-4.834 4.834-4.834h1.934c-2.67 0-4.834 2.164-4.834 4.834v33.643c0 2.67 2.164 4.834 4.834 4.834z"/>
                    <ellipse cx="16.573" cy="20.967" fill="#FFD5CD" rx="3.032" ry="3.532"/>
                    <path fill="#153E42" d="M16.5 19.5c1.675 0 3.105 2.642 3.105.967 0-1.674-1.358-3.032-3.032-3.032-1.675 0-3.033 1.358-3.033 3.032 0 1.675 1.285-.967 2.96-.967z"/>
                    <path fill="#D83C3C" d="M16.073 24.3c-3.276 0-5.931 2.208-5.931 4.931v1.174c0 1.068 1.04 1.933 2.325 1.933h7.21c1.285 0 2.326-.865 2.326-1.933V29.23c0-2.723-2.655-4.93-5.93-4.93z"/>
                    <path fill="#FF5636" d="M15.44 32.338h-2.714c-1.428 0-2.584-.865-2.584-1.933V29.23c0-2.723 2.95-4.93 6.589-4.93.465 0 .919.035 1.357.105-2.989.467-5.233 2.45-5.233 4.825v1.174c0 1.068 1.156 1.933 2.584 1.933z"/>
                    <path fill="#FFF" d="M21.438 9.88c1.095 0 1.982.886 1.982 1.981 0 1.095-.887 1.982-1.982 1.982H10.707c-1.095 0-1.982-.887-1.982-1.982s.887-1.982 1.982-1.982h10.731z"/>
                    <path fill="#BE273D" d="M18.311 10.112V1.934C18.311.866 17.846 0 17.273 0h-1.401c-.573 0-1.038.866-1.038 1.934v8.178c0 .96.778 1.739 1.739 1.739.96 0 1.738-.779 1.738-1.739z"/>
                    <g>
                        <path fill="#001443" d="M20.906 2.45H.798c-.4 0-.725-.548-.725-1.225S.397 0 .798 0h20.108c.4 0 .725.548.725 1.225s-.324 1.225-.725 1.225z" transform="translate(5.22 38.157)"/>
                        <path fill="#3166FF" d="M20.906 7.447H17.91c-.4 0-.725-.548-.725-1.225s.325-1.225.725-1.225h2.997c.4 0 .725.548.725 1.225s-.324 1.225-.725 1.225z" transform="translate(5.22 38.157)"/>
                        <path fill="#001443" d="M14.526 7.447H.798c-.4 0-.725-.548-.725-1.225s.324-1.225.725-1.225h13.728c.4 0 .725.548.725 1.225s-.325 1.225-.725 1.225z" transform="translate(5.22 38.157)"/>
                    </g>
                </g>
            </g>
        </g>
    </g>
</svg>
