<svg xmlns="http://www.w3.org/2000/svg" width="42" height="36" viewBox="0 0 42 36">
    <g fill="none" fill-rule="evenodd">
        <g fill-rule="nonzero">
            <g>
                <path fill="#FF415B" d="M22.588 2.456L28.639 2.456 28.639 4.876 22.588 4.876z" transform="translate(-311 -1067) translate(311 1067)"/>
                <path fill="#D5D5D5" d="M17.345 27.787c0 3.787-3.07 6.857-6.858 6.857-3.787 0-6.857-3.07-6.857-6.857" transform="translate(-311 -1067) translate(311 1067)"/>
                <path fill="#001443" d="M10.487 35.855c-4.448 0-8.067-3.62-8.067-8.068h2.42c0 3.114 2.534 5.647 5.647 5.647 3.114 0 5.647-2.533 5.647-5.647h2.42c0 4.449-3.618 8.068-8.067 8.068z" transform="translate(-311 -1067) translate(311 1067)"/>
                <path fill="#DFDFDF" d="M39.933 27.877c0 3.787-3.07 6.857-6.857 6.857-3.787 0-6.858-3.07-6.858-6.857" transform="translate(-311 -1067) translate(311 1067)"/>
                <path fill="#001443" d="M33.076 35.944c-4.449 0-8.068-3.62-8.068-8.067h2.42c0 3.113 2.534 5.647 5.648 5.647 3.113 0 5.647-2.534 5.647-5.647h2.42c0 4.448-3.619 8.067-8.067 8.067z" transform="translate(-311 -1067) translate(311 1067)"/>
                <path fill="#FF415B" d="M19.41 8.507H12.1v5.633l5.245 1.708 5.647-1.708v-2.05c0-1.976-1.607-3.583-3.583-3.583z" transform="translate(-311 -1067) translate(311 1067)"/>
                <path fill="#D83C3C" d="M41.143 26.077L41.143 27.877 22.992 27.869 21.648 23.427 22.992 19.397 28.823 19.397 30.149 17.54 27.429 7.297 27.429 4.876 34.783 4.876z" transform="translate(-311 -1067) translate(311 1067)"/>
                <path fill="#FF5636" d="M22.992 14.154L22.992 27.869 20.571 27.868 2.42 27.868 2.42 20.135 7.941 14.154 16.279 14.154z" transform="translate(-311 -1067) translate(311 1067)"/>
                <path fill="#D9B238" d="M14.521 0.036L14.521 8.507 13.293 9.717 14.521 10.927 14.521 14.154 7.261 14.154 6.386 7.095 7.261 0.036z" transform="translate(-311 -1067) translate(311 1067)"/>
                <path fill="#FFCE32" d="M0 0.036L7.261 0.036 7.261 14.154 0 14.154z" transform="translate(-311 -1067) translate(311 1067)"/>
                <path fill="#816E34" d="M14.521 8.507L14.521 10.927 7.261 10.927 6.854 9.895 7.261 8.507z" transform="translate(-311 -1067) translate(311 1067)"/>
                <path fill="#AD9039" d="M0 8.507L7.261 8.507 7.261 10.927 0 10.927z" transform="translate(-311 -1067) translate(311 1067)"/>
                <path fill="#D83C3C" d="M13.014 19.8H2.728l-.308.334v7.734h16.135v-2.527c0-3.055-2.486-5.54-5.54-5.54z" transform="translate(-311 -1067) translate(311 1067)"/>
                <path fill="#BE273D" d="M41.143 26.077L38.069 15.832 29.039 27.872 41.143 27.877zM27.429.036L33.479.036 33.479 7.297 27.429 7.297z" transform="translate(-311 -1067) translate(311 1067)"/>
                <path fill="#E0E0E0" d="M37.156 7.297c1.309 0 2.373-1.065 2.373-2.374V2.41c0-1.31-1.064-2.374-2.373-2.374h-3.677v7.26h3.677z" transform="translate(-311 -1067) translate(311 1067)"/>
                <path fill="#FF415B" d="M0 14.154L14.521 14.154 14.521 16.574 0 16.574z" transform="translate(-311 -1067) translate(311 1067)"/>
            </g>
        </g>
    </g>
</svg>
