<svg xmlns="http://www.w3.org/2000/svg" width="64" height="64" viewBox="0 0 64 64">
    <g fill="none" fill-rule="evenodd">
        <path d="M0 0H64V64H0z"/>
        <g fill-rule="nonzero">
            <g>
                <path fill="#EFC984" d="M11.484.085H8.763C6.944.085 5.47 1.56 5.47 3.377v3.176l.797.48H11.8V.664l-.316-.579z" transform="translate(10 10) translate(21.484 7.734)"/>
                <path fill="#F2F4F5" d="M17.475 22.205c0-1.8-1.186-3.384-2.913-3.89L9.746 16.9l.004-1.031H7.596L2.888 17.25C1.2 17.746.04 19.294.04 21.053v7.52h17.434v-6.368z" transform="translate(10 10) translate(21.484 7.734)"/>
                <path fill="#D8DFE0" d="M19.67 17.25l-4.707-1.381h-5.57l-.005 1.356 4.706 1.382c1.688.495 2.847 2.043 2.847 3.802v6.165h5.575v-7.521c0-1.759-1.16-3.307-2.847-3.802z" transform="translate(10 10) translate(21.484 7.734)"/>
                <path fill="#D83C3C" d="M13.941 28.574L12.212 20.864 10.339 20.864 8.61 28.574z" transform="translate(10 10) translate(21.484 7.734)"/>
                <g>
                    <path fill="#FFAA9A" d="M8.449 16.817V12.66H3.278v4.156c0 1.428 2.585 1.555 2.585 1.555s2.586-.127 2.586-1.555z" transform="translate(10 10) translate(21.484 7.734) translate(5.414)"/>
                    <path fill="#FFD5CD" d="M6.273 10.978c.08-.354.113-.717.113-1.08V4.391c-.997.067-2.004-.058-2.964-.375l-.002-.001c-.68-.225-1.38.282-1.38.998v.545c0 .55-.446.995-.996.995H.056v1.628c0 .416.337.753.753.753.131 0 .238.103.246.234.135 2.14 1.666 3.9 3.693 4.381.75-.666 1.294-1.559 1.525-2.57z" transform="translate(10 10) translate(21.484 7.734) translate(5.414)"/>
                    <path fill="#EABC6B" d="M10.24 1.999h-.048c-.267 0-.483-.217-.483-.483 0-.79-.64-1.43-1.43-1.43h-2.21v6.947h4.805l.796-.48V3.43c0-.79-.64-1.43-1.43-1.43z" transform="translate(10 10) translate(21.484 7.734) translate(5.414)"/>
                    <path fill="#FFD5CD" d="M10.682 6.553c-.55 0-.995-.446-.995-.995v-.545c0-.716-.701-1.223-1.38-.998-.728.24-1.482.37-2.237.39V9.73c0 .357-.032.714-.111 1.062-.24 1.051-.824 1.971-1.627 2.636.482.161.996.25 1.531.25 2.558 0 4.65-1.994 4.808-4.511.008-.131.115-.234.247-.234.415 0 .753-.337.753-.753V6.553h-.989z" transform="translate(10 10) translate(21.484 7.734) translate(5.414)"/>
                </g>
                <g fill="#FAFBFB">
                    <path d="M1.153.125l-.737.33c-.42.189-.522.74-.196 1.066l2.04 2.043c.258.251.665.267.942.036l1.6-1.336L2.074.226c-.266-.199-.62-.238-.922-.101zM7.416.24L4.801 2.263l1.503 1.285c.276.235.685.223.946-.028l2.04-1.987c.334-.325.234-.883-.19-1.073L8.348.127C8.04-.01 7.682.033 7.416.239z" transform="translate(10 10) translate(21.484 7.734) translate(6.531 15.469)"/>
                </g>
            </g>
            <path fill="#554A29" d="M38.96 43.085v-8.483H10.46v9.356h27.943c.313-.167.532-.495.556-.873z" transform="translate(10 10)"/>
            <path fill="#554A29" d="M38.426 34.602v8.388c-.034.535-.468.968-1.003.968L44 44v-9.398h-5.574z" transform="translate(10 10)"/>
            <g>
                <path fill="#FFAA9A" d="M10.09 17.85v-4.042H5.061v4.042c0 1.388 2.515 1.512 2.515 1.512s2.514-.124 2.514-1.512z" transform="translate(10 10) translate(3.352 14.266)"/>
                <path fill="#002F34" d="M7.694 15.193c1.225-.425 2.046-1.58 2.045-2.876 0-.716-.105-1.43-.31-2.116-.339-1.128-.51-2.3-.511-3.479v-.003C8.917 4.011 7.352 1.67 5.078.546 2.62 1.536.884 3.943.883 6.755v.003c0 1.145-.168 2.284-.497 3.381-.2.668-.302 1.36-.302 2.057 0 1.26.798 2.382 1.988 2.795 1.123.39 2.277.657 3.442.802.736-.152 1.464-.352 2.18-.6z" transform="translate(10 10) translate(3.352 14.266)"/>
                <path fill="#284E52" d="M14.766 10.14c-.329-1.098-.496-2.237-.496-3.382v-.003C14.269 3.059 11.272.064 7.577.064c-1 0-1.948.22-2.8.614 2.296 1.06 3.891 3.381 3.892 6.077v.003c0 1.145.167 2.284.496 3.382.2.667.302 1.36.302 2.056 0 1.26-.797 2.382-1.987 2.795-.885.308-1.79.539-2.704.693 2.768.469 5.625.238 8.305-.693 1.19-.413 1.988-1.535 1.987-2.795 0-.696-.102-1.39-.302-2.056z" transform="translate(10 10) translate(3.352 14.266)"/>
            </g>
            <path fill="#D8DFE0" d="M19.106 9.298v-7.35c0-1.79-1.56-1.946-2.634-1.947H4.989C3.913 0 3.04.873 3.04 1.949v7.35c0 1.075.872 1.947 1.948 1.947h11.79l.476-.025c.581-.032 1.133-.304 1.476-.774.236-.322.375-.719.375-1.149z" transform="translate(10 10)"/>
            <path fill="#D8DFE0" d="M22.12 0h-5.648c1.076 0 1.948.873 1.948 1.949v7.35c0 .937-.662 1.719-1.544 1.905-.036.008-.068.023-.097.042h1.822c.075 0 .147.03.2.083l2.916 2.916c.217.217.587.063.587-.243V11.48c0-.132.09-.249.22-.276.881-.186 1.543-.968 1.543-1.906v-7.35c0-1.075-.872-1.947-1.948-1.947z" transform="translate(10 10)"/>
            <path fill="#D9B238" d="M16.669 37.284c0-1.71-.962-2.536-2.768-2.924l-1.021-.194c-.734-.14-1.3-.693-1.478-1.39-1.17.2-2.46-.352-2.983-1.658l-.006-.015-5.645 1.092C1.128 32.676 0 34.182 0 35.892v6.269c0 1.017.825 1.84 1.842 1.838l14.414-.03.404-.31.009-6.375z" transform="translate(10 10)"/>
            <path fill="#FFCE32" d="M21.027 43.965c.46-.004.83-.377.83-.836v-7.237c0-1.71-1.127-3.216-2.769-3.698l-5.646-1.075c-.453 1.126-1.473 1.691-2.497 1.696.103.803.709 1.465 1.522 1.62l1.02.194c1.807.388 2.769 1.213 2.769 2.924v6.417l4.771-.005z" transform="translate(10 10)"/>
            <path fill="#BE273D" d="M34.32 26.752l-1.503-1.285-1.6 1.336c-.102.086-.223.137-.348.156l.955 1.64h1.873l.944-1.692c-.116-.023-.226-.074-.32-.155z" transform="translate(10 10)"/>
        </g>
    </g>
</svg>
