<svg xmlns="http://www.w3.org/2000/svg" width="64" height="64" viewBox="0 0 64 64">
    <g fill="none" fill-rule="evenodd">
        <g>
            <g>
                <g>
                    <path d="M0 0H64V64H0z" transform="translate(-684 -242) translate(192 242) translate(492)"/>
                    <g transform="translate(-684 -242) translate(192 242) translate(492) translate(15 8)">
                        <path fill="#FFD5CD" fill-rule="nonzero" d="M33.909 22.845c-.135-.142.31.305-7.428-7.433-.402-.402-1.007-.522-1.533-.305-.525.218-.868.73-.868 1.3v30.187c0 .776.63 1.406 1.406 1.406h7.5c.671 0 1.248-.474 1.38-1.131l2.62-13.14c.794-3.955-.357-8.026-3.077-10.884z"/>
                        <path fill="#FFAA9A" fill-rule="nonzero" d="M28.84 27.092l-4.348-4.348c-.55-.549-.55-1.44 0-1.988.55-.55 1.44-.55 1.989 0l4.347 4.347c.55.55.55 1.44 0 1.989-.55.549-1.44.549-1.989 0z"/>
                        <path fill="#F2F4F5" fill-rule="nonzero" d="M26.813 4.219V43.78c0 2.326-1.893 4.219-4.22 4.219H4.22C1.893 48 0 46.107 0 43.781V4.22C0 1.893 1.893 0 4.219 0h18.375c2.326 0 4.218 1.893 4.218 4.219z"/>
                        <g fill="#276EF1" fill-rule="nonzero">
                            <path d="M15.412 11.253v2.42c0 1.054-.86 1.816-1.807 1.816-3.486 0-6.887-1.648-9.417-4.167C1.658 8.802 0 5.41 0 1.924 0 .923.815.117 1.816.117h2.42c.261 0 .492.167.574.414l1.21 3.623c.06.177.034.372-.07.527L4.924 6.22C5.313 7.037 6 7.928 6.796 8.714c.795.784 1.697 1.463 2.513 1.851l1.54-1.026c.156-.103.35-.13.527-.07l3.631 1.21c.247.082.405.313.405.574z" transform="translate(6 15)"/>
                        </g>
                        <path fill="#001443" fill-rule="nonzero" d="M22.674 0H4.299C1.973 0 .08 1.893.08 4.219V43.78C.08 46.107 1.973 48 4.3 48h18.375c2.326 0 4.219-1.893 4.219-4.219V4.22C26.893 1.893 25 0 22.673 0zm1.406 39.094H2.893V4.219c0-.776.63-1.407 1.406-1.407h18.375c.775 0 1.406.631 1.406 1.407v34.875z"/>
                        <path fill="#001443" fill-rule="nonzero" d="M26.893 4.219V43.78C26.893 46.107 25 48 22.673 48h-9.187v-8.906H24.08V4.219c0-.776-.63-1.407-1.406-1.407h-9.188V0h9.188C25 0 26.893 1.893 26.893 4.219z"/>
                        <circle cx="14" cy="44" r="2" fill="#596685"/>
                        <path fill="#FFD5CD" fill-rule="nonzero" d="M24.12 22.304c-.801-.813-1.908-1.31-3.134-1.31-2.433 0-4.406 1.969-4.406 4.407 0 1.171.454 2.273 1.279 3.104l5.387 5.623c-.611.466-1.32 1.113-2.012 1.99-2.093 2.653-3.154 6.177-3.154 10.476V48h10.313V26.74l-4.272-4.436z"/>
                    </g>
                </g>
            </g>
        </g>
    </g>
</svg>
