<svg xmlns="http://www.w3.org/2000/svg" width="32" height="32" viewBox="0 0 32 32">
    <g fill="none" fill-rule="evenodd">
        <g>
            <g>
                <g>
                    <g>
                        <path d="M0 0H32V32H0z" transform="translate(-24 -509) translate(8 445) translate(0 56) translate(16 8)"/>
                        <g>
                            <path d="M0 0L24 0 24 24 0 24z" transform="translate(-24 -509) translate(8 445) translate(0 56) translate(16 8) translate(4 4)"/>
                            <path fill="#002F34" fill-rule="nonzero" d="M21.758 16.445c-2.541-2.451-5.975-3.961-9.758-3.961-3.783 0-7.217 1.51-9.758 3.961-.15.153-.242.365-.242.603 0 .237.092.45.242.602l2.066 2.104c.15.153.359.246.592.246.225 0 .433-.093.583-.238.659-.627 1.409-1.153 2.217-1.569.275-.136.467-.424.467-.764V14.8c1.208-.407 2.5-.619 3.833-.619 1.333 0 2.625.212 3.833.611v2.63c0 .33.192.628.467.764.817.415 1.558.95 2.217 1.569.15.153.358.238.583.238.233 0 .442-.094.592-.247l2.066-2.103c.15-.153.242-.365.242-.603 0-.229-.092-.44-.242-.594zm-2.125-8.831l-1.175-1.196-2.966 3.011 1.175 1.197s2.875-2.987 2.966-3.012zM12.833 4h-1.666v4.242h1.666V4zm-5.5 6.626l1.175-1.197L5.55 6.41 4.367 7.614c.091.025 2.966 3.012 2.966 3.012z" transform="translate(-24 -509) translate(8 445) translate(0 56) translate(16 8) translate(4 4)"/>
                        </g>
                    </g>
                </g>
            </g>
        </g>
    </g>
</svg>
