<svg xmlns="http://www.w3.org/2000/svg" width="32" height="32" viewBox="0 0 32 32">
    <g fill="none" fill-rule="evenodd">
        <g>
            <g>
                <g>
                    <g>
                        <path d="M0 0H32V32H0z" transform="translate(-24 -701) translate(8 445) translate(0 248) translate(16 8)"/>
                        <g>
                            <path d="M0 0L20.16 0 20.16 20.16 0 20.16z" transform="translate(-24 -701) translate(8 445) translate(0 248) translate(16 8) translate(6 6)"/>
                            <path fill="#002F34" fill-rule="nonzero" d="M13.852 13.02v-1.47l-2.092 2.1 2.092 2.1v-1.47h4.628v-1.26h-4.628zm2.536 3.57H11.76v1.26h4.628v1.47l2.092-2.1-2.092-2.1v1.47zM7.98 4.62c.924 0 1.68-.756 1.68-1.68 0-.924-.756-1.68-1.68-1.68-.924 0-1.68.756-1.68 1.68 0 .924.756 1.68 1.68 1.68zM4.83 7.476L2.52 19.32h1.764l1.47-6.72 1.806 1.68v5.04h1.68v-6.342l-1.722-1.722.504-2.52c1.092 1.344 2.73 2.184 4.578 2.184V9.24c-1.554 0-2.898-.84-3.654-2.058l-.798-1.344c-.294-.504-.84-.798-1.428-.798-.21 0-.42.042-.63.126L1.68 6.972v3.948h1.68V8.106l1.47-.63" transform="translate(-24 -701) translate(8 445) translate(0 248) translate(16 8) translate(6 6)"/>
                        </g>
                    </g>
                </g>
            </g>
        </g>
    </g>
</svg>
