<svg xmlns="http://www.w3.org/2000/svg" width="169" height="110" viewBox="0 0 169 110">
    <g fill="none" fill-rule="evenodd">
        <g fill-rule="nonzero">
            <g>
                <g fill="#F5F5F5" opacity=".251" transform="translate(-814.000000, -333.000000) translate(814.000000, 333.000000) translate(0.000000, 100.000000)">
                    <ellipse cx="84.5" cy="5" rx="84.5" ry="5"/>
                </g>
                <g>
                    <path fill="#E87D15" d="M1.156 29.164c-.097 0-.178-.073-.187-.168L0 17.465c-.005-.097.068-.181.166-.19.102-.008.191.067.2.168l.97 11.531c.007.101-.069.19-.17.199l-.01-.009zM1.732 36.013c-.097 0-.178-.072-.187-.168l-.293-3.49c-.004-.048.011-.097.043-.134.032-.038.078-.06.128-.064.049-.005.098.01.136.042.038.032.061.077.064.126l.293 3.49c.007.1-.069.19-.17.198h-.014z" transform="translate(-814.000000, -333.000000) translate(814.000000, 333.000000) translate(31.000000, 0.000000)"/>
                    <path fill="#FFF" d="M99.886 68.827H9.8c-2.35-.046-4.293-1.823-4.525-4.138L.201 4.32c-.11-1.067.246-2.129.978-2.92C1.91.61 2.949.167 4.032.182h90.082c2.35.046 4.295 1.823 4.529 4.138l5.074 60.362c.111 1.067-.244 2.13-.976 2.923-.732.792-1.77 1.237-2.855 1.223z" transform="translate(-814.000000, -333.000000) translate(814.000000, 333.000000) translate(31.000000, 0.000000)"/>
                    <path fill="#E87D15" d="M99.886 69H9.8c-2.442-.04-4.464-1.888-4.7-4.293L.027 4.34C-.077 3.227.298 2.121 1.06 1.296 1.82.464 2.9-.007 4.032 0h90.082c2.453.039 4.48 1.901 4.704 4.319l5.07 60.362c.113 1.113-.26 2.221-1.024 3.046-.764.825-1.847 1.288-2.978 1.273zM4.032.362C2.996.346 2.002.77 1.302 1.526c-.7.756-1.038 1.773-.93 2.793l5.073 60.357c.224 2.23 2.1 3.94 4.363 3.978h90.078c1.034.015 2.025-.408 2.723-1.162.699-.754 1.038-1.768.934-2.785L98.468 4.34C98.247 2.11 96.37.398 94.106.362H4.032z" transform="translate(-814.000000, -333.000000) translate(814.000000, 333.000000) translate(31.000000, 0.000000)"/>
                    <path fill="#E87D15" d="M94.114.19H4.032C2.95.175 1.914.617 1.182 1.406.451 2.194.094 3.254.201 4.319h98.442C98.405 2.007 96.461.235 94.114.19z" transform="translate(-814.000000, -333.000000) translate(814.000000, 333.000000) translate(31.000000, 0.000000)"/>
                    <path fill="#FFF" d="M6.139 2.259c.025.23-.051.46-.209.63-.157.172-.382.268-.616.264-.507-.01-.926-.395-.977-.894-.024-.23.053-.46.21-.63.158-.17.381-.267.615-.264.508.007.93.392.977.894zM9.804 2.259c.025.23-.051.46-.209.63-.158.172-.382.268-.616.264-.5-.02-.91-.4-.96-.894-.023-.23.053-.46.21-.63.158-.17.382-.267.615-.264.502.015.914.399.96.894zM13.469 2.259c.025.23-.051.46-.209.63-.158.172-.382.268-.616.264-.507-.01-.926-.395-.977-.894-.024-.23.053-.46.21-.63.158-.17.381-.267.614-.264.51.007.931.392.978.894z" transform="translate(-814.000000, -333.000000) translate(814.000000, 333.000000) translate(31.000000, 0.000000)"/>
                    <path fill="#F0F0F0" d="M92.068 60.915H16.309c-1.868-.035-3.414-1.447-3.6-3.287l-3.56-42.08c-.086-.85.199-1.694.782-2.322.584-.628 1.41-.98 2.273-.966h75.772c1.867.035 3.414 1.447 3.599 3.287l3.538 42.103c.08.844-.207 1.681-.788 2.304-.58.622-1.4.972-2.257.961z" transform="translate(-814.000000, -333.000000) translate(814.000000, 333.000000) translate(31.000000, 0.000000)"/>
                    <path fill="#263238" d="M68.63 19.611L45.157 47.587c-1.5 1.787-1.95 4.22-1.184 6.416.765 2.196 2.633 3.838 4.928 4.33l38.088 8.148c2.428.522 4.948-.326 6.552-2.204 1.603-1.878 2.029-4.478 1.106-6.761l-14.603-36.13c-.878-2.181-2.853-3.742-5.196-4.106-2.343-.365-4.707.522-6.218 2.331zM16.379 23.532L8.203 45.346c-.498 1.354-.26 2.865.63 4.005.892 1.139 2.31 1.747 3.759 1.61l23.878-2.32c1.548-.15 2.89-1.126 3.495-2.544.605-1.418.377-3.05-.593-4.253L23.665 22.366c-.955-1.18-2.478-1.76-3.986-1.519-1.509.242-2.77 1.267-3.3 2.685z" opacity=".1" transform="translate(-814.000000, -333.000000) translate(814.000000, 333.000000) translate(31.000000, 0.000000)"/>
                    <path fill="#E87D15" d="M76.728 12.567L54.782 44.094c-1.394 2.002-1.636 4.578-.639 6.8.997 2.223 3.09 3.772 5.525 4.091l40.34 5.316c2.586.341 5.15-.756 6.67-2.855 1.52-2.098 1.747-4.854.59-7.168L88.875 13.423c-1.11-2.222-3.328-3.695-5.826-3.87-2.498-.177-4.903.97-6.32 3.014z" transform="translate(-814.000000, -333.000000) translate(814.000000, 333.000000) translate(31.000000, 0.000000)"/>
                    <path fill="#FFF" d="M60.624 52.17c-1.48-.2-2.76-1.119-3.412-2.45-.673-1.26-.595-2.786.205-3.972L79.42 14.126c.811-1.15 2.216-1.74 3.617-1.52 1.48.198 2.761 1.118 3.411 2.449l18.43 36.946c.673 1.261.594 2.786-.205 3.973-.81 1.154-2.216 1.746-3.617 1.525l-40.432-5.33z" transform="translate(-814.000000, -333.000000) translate(814.000000, 333.000000) translate(31.000000, 0.000000)"/>
                    <path fill="#E87D15" d="M81.165 23.783l2.57.337c1.663.232 2.885 1.663 2.84 3.325l-.175 3.317c-.004.12-.017.24-.039.358l-1.828 9.998c-.272 1.433-1.648 2.39-3.102 2.16-1.528-.216-2.706-1.445-2.84-2.968l-.738-10.33c-.008-.12-.008-.239 0-.358l.17-3.321c.038-.763.402-1.474 1.002-1.955.6-.481 1.378-.686 2.14-.563zM80.96 46.05l.698.09c1.488.209 2.583 1.489 2.544 2.976-.031.686-.357 1.325-.894 1.758-.538.433-1.236.619-1.92.51l-.699-.096c-1.488-.206-2.582-1.484-2.543-2.97.03-.687.354-1.327.892-1.76.538-.434 1.237-.619 1.922-.508zM24.817 17.387l-6.025 22.617c-.37 1.397.012 2.884 1.011 3.936.999 1.053 2.474 1.524 3.906 1.246l23.372-4.513c1.51-.298 2.739-1.383 3.209-2.834.47-1.452.109-3.041-.944-4.153l-17.33-18.117c-1.059-1.113-2.645-1.57-4.141-1.192-1.497.378-2.668 1.53-3.058 3.01z" transform="translate(-814.000000, -333.000000) translate(814.000000, 333.000000) translate(31.000000, 0.000000)"/>
                    <path fill="#FFF" d="M23.66 43.364c-.871.156-1.764-.14-2.364-.786-.62-.623-.867-1.519-.654-2.367l6.038-22.677c.214-.809.88-1.423 1.71-1.576.873-.155 1.765.143 2.365.79l17.39 18.138c.621.622.87 1.518.66 2.367-.216.807-.882 1.42-1.71 1.572L23.66 43.364z" transform="translate(-814.000000, -333.000000) translate(814.000000, 333.000000) translate(31.000000, 0.000000)"/>
                    <path fill="#E87D15" d="M29.525 22.859l1.487-.29c.995-.158 1.951.45 2.217 1.413l.532 1.973c.02.073.036.146.048.22l.947 6.215c.153.87-.43 1.702-1.31 1.861-.91.15-1.805-.35-2.146-1.2l-2.417-5.908c-.03-.069-.054-.14-.074-.212l-.55-1.978c-.144-.444-.088-.93.154-1.33.242-.402.647-.68 1.112-.764zm4.21 13.077l.406-.078c.892-.153 1.754.395 1.985 1.261.124.394.073.821-.14 1.175-.213.355-.568.603-.977.682l-.406.078c-.89.153-1.752-.392-1.985-1.257-.124-.394-.074-.822.14-1.177.212-.355.568-.604.977-.684z" transform="translate(-814.000000, -333.000000) translate(814.000000, 333.000000) translate(31.000000, 0.000000)"/>
                </g>
            </g>
        </g>
    </g>
</svg>
