<svg xmlns="http://www.w3.org/2000/svg" width="24" height="24" viewBox="0 0 24 24">
    <g fill="none" fill-rule="evenodd">
        <g>
            <g>
                <g>
                    <g>
                        <path d="M0 0L24 0 24 24 0 24z" transform="translate(-504.000000, -297.000000) translate(492.000000, 285.000000) translate(12.000000, 12.000000) translate(12.000000, 12.000000) scale(-1, 1) translate(-12.000000, -12.000000)"/>
                        <g fill="#FF9518" fill-rule="nonzero" stroke="#FF9518" stroke-width=".6">
                            <path d="M13.993 2.916c0-.431-.337-.782-.751-.782H9.33V1.08C9.33.485 8.865 0 8.294 0H5.707C5.135 0 4.67.485 4.67 1.08v1.054H.759c-.415 0-.751.35-.751.781L0 6.64c0 .12.066.23.17.283.16.081.323.155.488.23v5.065c0 .432.337.783.75.783h11.183c.414 0 .75-.351.75-.783V7.075c.17-.081.336-.165.498-.254.1-.055.161-.162.161-.28l-.007-3.625zm-8.72-1.835c0-.25.195-.452.434-.452h2.587c.234 0 .433.207.433.452v1.053H5.273V1.08zm7.466 11.136c0 .082-.07.154-.148.154H1.41c-.08 0-.147-.07-.147-.154V7.401c1.313.503 2.78.804 4.38.897v.436c0 .317.248.574.551.574h1.614c.303 0 .55-.257.55-.574v-.44c1.621-.104 3.09-.422 4.381-.95v4.873h0zM6.246 8.68V7.635h1.508V8.68H6.246zM8.357 7.66v-.08c0-.316-.246-.574-.55-.574H6.193c-.303 0-.55.258-.55.575v.086C3.753 7.554 2.058 7.144.604 6.44l.007-3.524c0-.083.068-.153.148-.153h12.483c.08 0 .147.07.147.154l.007 3.434c-1.42.745-3.114 1.183-5.039 1.31z" transform="translate(-504.000000, -297.000000) translate(492.000000, 285.000000) translate(12.000000, 12.000000) translate(12.000000, 12.000000) scale(-1, 1) translate(-12.000000, -12.000000) translate(5.000000, 4.000000)"/>
                        </g>
                    </g>
                </g>
            </g>
        </g>
    </g>
</svg>
