<svg xmlns="http://www.w3.org/2000/svg" width="20" height="20" viewBox="0 0 20 20">
    <g fill="none" fill-rule="evenodd">
        <g>
            <g>
                <g>
                    <g>
                        <path d="M0 0L20 0 20 20 0 20z" transform="translate(-945 -288) translate(929 88) translate(0 184) translate(16 16)"/>
                        <path fill="#8490A8" fill-rule="nonzero" d="M16.667 12.917c-1.042 0-2.042-.167-2.975-.475-.084-.025-.175-.042-.259-.042-.216 0-.425.083-.591.242l-1.834 1.833c-2.358-1.2-4.291-3.125-5.491-5.492L7.35 7.142c.233-.217.3-.542.208-.834-.308-.933-.475-1.933-.475-2.975 0-.458-.375-.833-.833-.833H3.333c-.458 0-.833.375-.833.833C2.5 11.158 8.842 17.5 16.667 17.5c.458 0 .833-.375.833-.833V13.75c0-.458-.375-.833-.833-.833zM4.192 4.167h1.25c.058.733.183 1.458.375 2.15l-1 1.008c-.334-1.008-.55-2.058-.625-3.158zm11.641 11.641c-1.1-.075-2.166-.291-3.166-.633l1-1c.708.2 1.433.325 2.166.375v1.258zm.834-12.475v-.416c0-1.15-.934-2.084-2.084-2.084S12.5 1.767 12.5 2.917v.416c-.458 0-.833.375-.833.834V7.5c0 .458.375.833.833.833h4.167c.458 0 .833-.375.833-.833V4.167c0-.459-.375-.834-.833-.834zm-.834 0h-2.5v-.416c0-.692.559-1.25 1.25-1.25.692 0 1.25.558 1.25 1.25v.416z" transform="translate(-945 -288) translate(929 88) translate(0 184) translate(16 16)"/>
                    </g>
                </g>
            </g>
        </g>
    </g>
</svg>

