<svg xmlns="http://www.w3.org/2000/svg" width="24" height="24" viewBox="0 0 24 24">
    <g fill="none" fill-rule="evenodd">
        <path d="M0 0H24V24H0z"/>
        <g>
            <path fill="#AEBABB" fill-rule="nonzero" d="M16.197 18.068H1.182c-.645 0-1.167-.523-1.167-1.167v-1.625l17.35-3.153v4.778c0 .644-.524 1.167-1.168 1.167z" transform="translate(3 3)"/>
            <path fill="#F2F4F5" fill-rule="nonzero" d="M13.02 16.9H1.184c-.646 0-1.17-.523-1.17-1.17V1.228c0-.646.524-1.17 1.17-1.17h15.01c.647 0 1.17.524 1.17 1.17v11.33c0 .31-.707.607-.926.826l-2.591 2.591c-.22.22-.517.927-.827.927z" transform="translate(3 3)"/>
            <path fill="#D8DFE0" fill-rule="nonzero" d="M13.014 16.9c.31 0 .608-.123.828-.342l3.18-3.18c.219-.22.342-.517.342-.827v-.474c0 .53-.429.958-.958.958h-1.949c-.529 0-.958.43-.958.959v1.948c0 .53-.429.959-.958.959h.473zM17.364 1.225V4.23H.014V1.225C.015.581.539.058 1.183.058h15.014c.645 0 1.168.523 1.168 1.167z" transform="translate(3 3)"/>
            <g>
                <path fill="#D8DFE0" fill-rule="nonzero" d="M1.683 7.258c.153 0 .278.125.278.278v1.39c0 .154-.125.279-.278.279H.293c-.154 0-.278-.125-.278-.278v-1.39c0-.154.124-.279.278-.279h1.39zm3.967 0c.153 0 .278.125.278.278v1.39c0 .154-.125.279-.278.279H4.26c-.154 0-.279-.125-.279-.278v-1.39c0-.154.125-.279.278-.279h1.39zm3.966 0c.154 0 .278.125.278.278v1.39c0 .154-.124.279-.278.279h-1.39c-.153 0-.278-.125-.278-.278v-1.39c0-.154.125-.279.278-.279h1.39zm3.967-3.524c.154 0 .278.125.278.278v1.39c0 .154-.124.278-.278.278h-1.39c-.153 0-.278-.124-.278-.278v-1.39c0-.153.125-.278.278-.278h1.39zm-11.9-.087c.153 0 .278.125.278.279v1.39c0 .153-.125.278-.278.278H.293c-.154 0-.278-.125-.278-.278v-1.39c0-.154.124-.279.278-.279h1.39zm3.967 0c.153 0 .278.125.278.279v1.39c0 .153-.125.278-.278.278H4.26c-.154 0-.279-.125-.279-.278v-1.39c0-.154.125-.279.278-.279h1.39zm3.966 0c.154 0 .278.125.278.279v1.39c0 .153-.124.278-.278.278h-1.39c-.153 0-.278-.125-.278-.278v-1.39c0-.154.125-.279.278-.279h1.39zM1.683.037c.153 0 .278.124.278.278v1.39c0 .153-.125.278-.278.278H.293c-.154 0-.278-.125-.278-.278V.315C.015.16.139.037.293.037h1.39zm3.967 0c.153 0 .278.124.278.278v1.39c0 .153-.125.278-.278.278H4.26c-.154 0-.279-.125-.279-.278V.315c0-.154.125-.278.278-.278h1.39zm3.966 0c.154 0 .278.124.278.278v1.39c0 .153-.124.278-.278.278h-1.39c-.153 0-.278-.125-.278-.278V.315c0-.154.125-.278.278-.278h1.39zm3.967 0c.154 0 .278.124.278.278v1.39c0 .153-.124.278-.278.278h-1.39c-.153 0-.278-.125-.278-.278V.315c0-.154.125-.278.278-.278h1.39z" transform="translate(3 3) translate(1.752 5.944)"/>
            </g>
        </g>
    </g>
</svg>
