<svg xmlns="http://www.w3.org/2000/svg" width="169" height="126" viewBox="0 0 169 126">
    <g fill="none" fill-rule="evenodd">
        <g fill-rule="nonzero">
            <g>
                <g fill="#F5F5F5" opacity=".251" transform="translate(-814.000000, -317.000000) translate(814.000000, 317.000000) translate(0.000000, 116.000000)">
                    <ellipse cx="84.5" cy="5" rx="84.5" ry="5"/>
                </g>
                <g opacity=".689">
                    <path fill="#E87D15" d="M1.156 29.164c-.097 0-.178-.073-.187-.168L0 17.465c-.005-.097.068-.181.166-.19.102-.008.191.067.2.168l.97 11.531c.007.101-.069.19-.17.199l-.01-.009zM1.732 36.013c-.097 0-.178-.072-.187-.168l-.293-3.49c-.004-.048.011-.097.043-.134.032-.038.078-.06.128-.064.049-.005.098.01.136.042.038.032.061.077.064.126l.293 3.49c.007.1-.069.19-.17.198h-.014z" transform="translate(-814.000000, -317.000000) translate(814.000000, 317.000000) translate(31.000000, 16.000000)"/>
                    <path fill="#FFF" d="M99.886 68.827H9.8c-2.35-.046-4.293-1.823-4.525-4.138L.201 4.32c-.11-1.067.246-2.129.978-2.92C1.91.61 2.949.167 4.032.182h90.082c2.35.046 4.295 1.823 4.529 4.138l5.074 60.362c.111 1.067-.244 2.13-.976 2.923-.732.792-1.77 1.237-2.855 1.223z" transform="translate(-814.000000, -317.000000) translate(814.000000, 317.000000) translate(31.000000, 16.000000)"/>
                    <path fill="#E87D15" d="M99.886 69H9.8c-2.442-.04-4.464-1.888-4.7-4.293L.027 4.34C-.077 3.227.298 2.121 1.06 1.296 1.82.464 2.9-.007 4.032 0h90.082c2.453.039 4.48 1.901 4.704 4.319l5.07 60.362c.113 1.113-.26 2.221-1.024 3.046-.764.825-1.847 1.288-2.978 1.273zM4.032.362C2.996.346 2.002.77 1.302 1.526c-.7.756-1.038 1.773-.93 2.793l5.073 60.357c.224 2.23 2.1 3.94 4.363 3.978h90.078c1.034.015 2.025-.408 2.723-1.162.699-.754 1.038-1.768.934-2.785L98.468 4.34C98.247 2.11 96.37.398 94.106.362H4.032z" transform="translate(-814.000000, -317.000000) translate(814.000000, 317.000000) translate(31.000000, 16.000000)"/>
                    <path fill="#E87D15" d="M94.114.19H4.032C2.95.175 1.914.617 1.182 1.406.451 2.194.094 3.254.201 4.319h98.442C98.405 2.007 96.461.235 94.114.19z" transform="translate(-814.000000, -317.000000) translate(814.000000, 317.000000) translate(31.000000, 16.000000)"/>
                    <path fill="#FFF" d="M6.139 2.259c.025.23-.051.46-.209.63-.157.172-.382.268-.616.264-.507-.01-.926-.395-.977-.894-.024-.23.053-.46.21-.63.158-.17.381-.267.615-.264.508.007.93.392.977.894zM9.804 2.259c.025.23-.051.46-.209.63-.158.172-.382.268-.616.264-.5-.02-.91-.4-.96-.894-.023-.23.053-.46.21-.63.158-.17.382-.267.615-.264.502.015.914.399.96.894zM13.469 2.259c.025.23-.051.46-.209.63-.158.172-.382.268-.616.264-.507-.01-.926-.395-.977-.894-.024-.23.053-.46.21-.63.158-.17.381-.267.614-.264.51.007.931.392.978.894z" transform="translate(-814.000000, -317.000000) translate(814.000000, 317.000000) translate(31.000000, 16.000000)"/>
                </g>
                <g>
                    <path fill="#E87D15" d="M1.156 29.164c-.097 0-.178-.073-.187-.168L0 17.465c-.005-.097.068-.181.166-.19.102-.008.191.067.2.168l.97 11.531c.007.101-.069.19-.17.199l-.01-.009zM1.732 36.013c-.097 0-.178-.072-.187-.168l-.293-3.49c-.004-.048.011-.097.043-.134.032-.038.078-.06.128-.064.049-.005.098.01.136.042.038.032.061.077.064.126l.293 3.49c.007.1-.069.19-.17.198h-.014z" transform="translate(-814.000000, -317.000000) translate(814.000000, 317.000000) translate(51.000000, 0.000000)"/>
                    <path fill="#FFF" d="M99.886 68.827H9.8c-2.35-.046-4.293-1.823-4.525-4.138L.201 4.32c-.11-1.067.246-2.129.978-2.92C1.91.61 2.949.167 4.032.182h90.082c2.35.046 4.295 1.823 4.529 4.138l5.074 60.362c.111 1.067-.244 2.13-.976 2.923-.732.792-1.77 1.237-2.855 1.223z" transform="translate(-814.000000, -317.000000) translate(814.000000, 317.000000) translate(51.000000, 0.000000)"/>
                    <path fill="#E87D15" d="M99.886 69H9.8c-2.442-.04-4.464-1.888-4.7-4.293L.027 4.34C-.077 3.227.298 2.121 1.06 1.296 1.82.464 2.9-.007 4.032 0h90.082c2.453.039 4.48 1.901 4.704 4.319l5.07 60.362c.113 1.113-.26 2.221-1.024 3.046-.764.825-1.847 1.288-2.978 1.273zM4.032.362C2.996.346 2.002.77 1.302 1.526c-.7.756-1.038 1.773-.93 2.793l5.073 60.357c.224 2.23 2.1 3.94 4.363 3.978h90.078c1.034.015 2.025-.408 2.723-1.162.699-.754 1.038-1.768.934-2.785L98.468 4.34C98.247 2.11 96.37.398 94.106.362H4.032z" transform="translate(-814.000000, -317.000000) translate(814.000000, 317.000000) translate(51.000000, 0.000000)"/>
                    <path fill="#E87D15" d="M94.114.19H4.032C2.95.175 1.914.617 1.182 1.406.451 2.194.094 3.254.201 4.319h98.442C98.405 2.007 96.461.235 94.114.19z" transform="translate(-814.000000, -317.000000) translate(814.000000, 317.000000) translate(51.000000, 0.000000)"/>
                    <path fill="#FFF" d="M6.139 2.259c.025.23-.051.46-.209.63-.157.172-.382.268-.616.264-.507-.01-.926-.395-.977-.894-.024-.23.053-.46.21-.63.158-.17.381-.267.615-.264.508.007.93.392.977.894zM9.804 2.259c.025.23-.051.46-.209.63-.158.172-.382.268-.616.264-.5-.02-.91-.4-.96-.894-.023-.23.053-.46.21-.63.158-.17.382-.267.615-.264.502.015.914.399.96.894zM13.469 2.259c.025.23-.051.46-.209.63-.158.172-.382.268-.616.264-.507-.01-.926-.395-.977-.894-.024-.23.053-.46.21-.63.158-.17.381-.267.614-.264.51.007.931.392.978.894z" transform="translate(-814.000000, -317.000000) translate(814.000000, 317.000000) translate(51.000000, 0.000000)"/>
                </g>
            </g>
        </g>
    </g>
</svg>
