<svg width="15" height="15" xmlns="http://www.w3.org/2000/svg">
    <g fill="#FF9518" fill-rule="nonzero">
        <path d="M13.28 0H5.017c-.947 0-1.72.773-1.72 1.72v1.577H1.72C.773 3.297 0 4.069 0 5.016v8.265C0 14.227.773 15 1.72 15h8.264c.947 0 1.72-.773 1.72-1.72v-1.577h1.577c.946 0 1.719-.772 1.719-1.719V1.72C15 .773 14.227 0 13.28 0zm-2.554 13.265a.74.74 0 0 1-.742.741H1.735a.74.74 0 0 1-.741-.741V5a.74.74 0 0 1 .741-.741H10a.74.74 0 0 1 .741.741v8.265h-.015zm3.296-3.28a.74.74 0 0 1-.741.74h-1.578V5c0-.946-.772-1.72-1.719-1.72h-5.71V1.704a.74.74 0 0 1 .742-.74h8.265a.74.74 0 0 1 .741.74v8.281z"/>
        <path d="M8.524 8.523h-2.04V6.477A.479.479 0 0 0 6.007 6a.479.479 0 0 0-.476.477v2.046H3.476A.479.479 0 0 0 3 9c0 .262.215.477.476.477h2.04v2.046c0 .262.215.477.476.477s.476-.215.476-.477V9.477h2.056C8.785 9.477 9 9.262 9 9a.479.479 0 0 0-.476-.477z"/>
    </g>
</svg>
