<svg xmlns="http://www.w3.org/2000/svg" width="24" height="24" viewBox="0 0 24 24">
    <g fill="none" fill-rule="evenodd">
        <g>
            <g>
                <g>
                    <g>
                        <path d="M0 0L24 0 24 24 0 24z" transform="translate(-251 -473) translate(235 337) translate(0 128) translate(16 8)"/>
                        <path fill="#284E52" fill-rule="nonzero" d="M20 4H4c-1.1 0-1.99.9-1.99 2L2 18c0 1.1.9 2 2 2h16c1.1 0 2-.9 2-2V6c0-1.1-.9-2-2-2zm0 4l-8 5-8-5V6l8 5 8-5v2z" transform="translate(-251 -473) translate(235 337) translate(0 128) translate(16 8)"/>
                    </g>
                </g>
            </g>
        </g>
    </g>
</svg>
