<svg xmlns="http://www.w3.org/2000/svg" width="24" height="24" viewBox="0 0 24 24">
    <g fill="none" fill-rule="evenodd">
        <g>
            <g>
                <g>
                    <g>
                        <path d="M0 0H24V24H0z" transform="translate(-251 -353) translate(235 337) translate(0 8) translate(16 8)"/>
                        <path fill="#4267B2" fill-rule="nonzero" d="M22 12c0-5.52-4.48-10-10-10S2 6.48 2 12c0 4.84 3.44 8.87 8 9.8V15H8v-3h2V9.5C10 7.57 11.57 6 13.5 6H16v3h-2c-.55 0-1 .45-1 1v2h3v3h-3v6.95c5.05-.5 9-4.76 9-9.95z" transform="translate(-251 -353) translate(235 337) translate(0 8) translate(16 8)"/>
                    </g>
                </g>
            </g>
        </g>
    </g>
</svg>
