<svg xmlns="http://www.w3.org/2000/svg" width="24" height="24" viewBox="0 0 24 24">
    <g fill="none" fill-rule="evenodd">
        <g>
            <g>
                <g>
                    <g>
                        <path d="M0 0H24V24H0z" transform="translate(-176 -1084) translate(156 948) translate(16 132) translate(4 4)"/>
                        <g fill-rule="nonzero">
                            <path fill="#FEDB41" d="M11.16 5.614c0 1.266-.413 2.46-1.196 3.451-.93 1.18-.739 3.321-.774 3.321 0 0-1.243 2.246-3.609 2.246-2.366 0-3.602-2.246-3.602-2.246-.036-.926.087-2.204-.804-3.35C.402 8.044-.004 6.85.002 5.589.016 2.528 2.501.02 5.541 0c3.217 0 5.619 2.61 5.619 5.614z" transform="translate(-176 -1084) translate(156 948) translate(16 132) translate(4 4) translate(6.75 3)"/>
                            <path fill="#FFD75D" d="M11.158 5.614c0 1.266-.413 2.46-1.195 3.451-.93 1.18-.74 3.321-.775 3.321 0 0-1.243 2.246-3.609 2.246-2.366 0-3.602-2.246-3.602-2.246-.036-.926.087-2.204-.804-3.35C.4 8.044-.006 6.85 0 5.589.014 2.528 2.499.02 5.539 0c3.217 0 5.619 2.61 5.619 5.614z" transform="translate(-176 -1084) translate(156 948) translate(16 132) translate(4 4) translate(6.75 3)"/>
                            <path fill="#FFCE32" d="M5.581 0v14.632c2.366 0 3.61-2.246 3.61-2.246.032 0-.152-2.147.773-3.32.783-.993 1.196-2.186 1.196-3.452C11.16 2.518 8.652 0 5.58 0z" transform="translate(-176 -1084) translate(156 948) translate(16 132) translate(4 4) translate(6.75 3)"/>
                            <path fill="#FFF" d="M3.75 2.625L3.75 6.75 5.1 6.75 5.1 10.125 8.25 5.625 6.45 5.625 7.8 2.625z" transform="translate(-176 -1084) translate(156 948) translate(16 132) translate(4 4) translate(6.75 3)"/>
                            <path fill="#284E52" d="M9.19 12.386H1.98c.033.885.158 2.19.324 3.247.141 1.1 1.073 2.286 3.267 2.332h.022c.92-.02 1.68-.24 2.258-.657.573-.414.922-.993 1.009-1.675.141-.899.303-2.273.331-3.247z" transform="translate(-176 -1084) translate(156 948) translate(16 132) translate(4 4) translate(6.75 3)"/>
                            <path fill="#153E42" d="M2.167 14.632c.039.321.088.693.136 1.001.141 1.1 1.073 2.286 3.267 2.332h.022c.92-.02 1.68-.24 2.258-.657.573-.414.922-.993 1.009-1.675.034-.214.088-.597.139-1.001H2.167z" transform="translate(-176 -1084) translate(156 948) translate(16 132) translate(4 4) translate(6.75 3)"/>
                        </g>
                    </g>
                </g>
            </g>
        </g>
    </g>
</svg>
