<svg xmlns="http://www.w3.org/2000/svg" xmlns:xlink="http://www.w3.org/1999/xlink" width="328" height="125" viewBox="0 0 328 125">
    <defs>
        <linearGradient id="rlqnagautc" x1="35.086%" x2="100%" y1="50%" y2="50%">
            <stop offset="0%" stop-color="#FF8169" stop-opacity="0"/>
            <stop offset="100%" stop-color="#FFAA9A"/>
        </linearGradient>
        <path id="nuzwdvu5ga" d="M0 0H328V125H0z"/>
    </defs>
    <g fill="none" fill-rule="evenodd">
        <g>
            <g transform="translate(-16 -104) translate(16 104)">
                <mask id="vv6ntrsglb" fill="#fff">
                    <use xlink:href="#nuzwdvu5ga"/>
                </mask>
                <use fill="#FFF" xlink:href="#nuzwdvu5ga"/>
                <path fill="#F2F4F5" d="M64 41H264V89H64z" mask="url(#vv6ntrsglb)"/>
                <path fill="#D8DFE0" d="M72 57H160V65H72z" mask="url(#vv6ntrsglb)"/>
                <path fill="#D8DFE0" d="M72 69H144V77H72z" mask="url(#vv6ntrsglb)" opacity=".48"/>
                <path fill="#F2F4F5" d="M64 97H264V145H64z" mask="url(#vv6ntrsglb)"/>
                <path fill="#D8DFE0" d="M72 105H160V113H72zM72 117H144V125H72z" mask="url(#vv6ntrsglb)" opacity=".48"/>
                <path fill="#002F34" fill-opacity=".04" d="M44 16L46 14 281.5 14 284 16 284 76 282 78 45.5 78 44 76z" mask="url(#vv6ntrsglb)"/>
                <path fill="#FFF" stroke="#FFE48D" d="M281.675 7.5l2.825 2.26v60.447l-2.293 2.293H45.25l-1.75-2.333V9.793L45.793 7.5h235.882z" mask="url(#vv6ntrsglb)"/>
                <path fill="#FFFBEF" d="M281.5 8L284 10 284 70 282 72 156.5 72z" mask="url(#vv6ntrsglb)"/>
                <g mask="url(#vv6ntrsglb)">
                    <g>
                        <path fill="#FF5636" d="M0 1.684L2.269 0 59 0 59 14.316 56.731 16 0 16z" transform="translate(216 18)"/>
                        <path fill="#FFF" fill-rule="nonzero" d="M8.644 12l.816-2.28h2.844l.828 2.28h1.764l-3.144-8.304H10L7 12h1.644zm3.144-3.696H9.976l.9-2.496.912 2.496zm7.668 3.852c1.2 0 2.112-.468 2.748-1.092L21.232 9.9c-.348.3-.936.696-1.776.696-1.56 0-2.604-1.176-2.604-2.748 0-1.56.972-2.76 2.58-2.76.768 0 1.38.336 1.764.672l.984-1.248c-.66-.588-1.572-.972-2.76-.972-2.592 0-4.32 1.884-4.32 4.32 0 2.448 1.68 4.296 4.356 4.296zM25.744 12V5.256h1.512v-1.56h-4.692v1.56h1.512V12h1.668zm3.936 0V3.696h-1.668V12h1.668zm5.412 0l3.132-8.304h-1.776L34.24 9.9l-2.196-6.204h-1.872L33.292 12h1.8zm7.464 0v-1.56h-2.172V8.52h2.076V6.984h-2.076V5.256h2.136v-1.56h-3.804V12h3.84zM47 4L47 8.95 48.5 8.95 48.5 13 52 7.6 50 7.6 51.5 4z" transform="translate(216 18)"/>
                    </g>
                </g>
                <path fill="#F2F4F5" d="M56 38H144V46H56z" mask="url(#vv6ntrsglb)"/>
                <path fill="#002F34" fill-rule="nonzero" d="M60.634 30.156c1.2 0 2.112-.468 2.748-1.092L62.41 27.9c-.348.3-.936.696-1.776.696-1.56 0-2.604-1.176-2.604-2.748 0-1.56.972-2.76 2.58-2.76.768 0 1.38.336 1.764.672l.984-1.248c-.66-.588-1.572-.972-2.76-.972-2.592 0-4.32 1.884-4.32 4.32 0 2.448 1.68 4.296 4.356 4.296zm5.34-.084c.756 0 1.176-.336 1.344-.552V30h1.596v-6.42h-1.608v4.02c0 .612-.312 1.032-.888 1.032-.576 0-.828-.396-.828-1.02V23.58h-1.608v4.224c0 1.308.564 2.268 1.992 2.268zm5.916.012c1.26 0 2.34-.684 2.34-1.992 0-1.164-.504-1.668-1.536-1.98-.324-.096-.588-.144-.876-.228-.384-.108-.564-.288-.564-.6 0-.324.252-.54.636-.54.492 0 .72.288.732.78h1.476c-.012-1.344-.816-2.028-2.172-2.028-1.284 0-2.196.792-2.196 1.872 0 .972.444 1.572 1.332 1.896.348.132.624.192.972.288.444.12.636.288.636.66 0 .372-.336.576-.756.576-.624 0-.78-.408-.78-.864h-1.536c-.036 1.116.516 2.16 2.292 2.16zm5.004-.024c.552 0 .84-.084.876-.084v-1.368h-.372c-.456 0-.612-.204-.612-.684v-2.988h.984V23.58h-.984v-1.008h-1.608v1.008h-.6v1.356h.6v3.444c0 1.068.504 1.68 1.716 1.68zm4.716.048c1.98 0 3.36-1.44 3.36-3.324 0-1.896-1.332-3.312-3.36-3.312-1.932 0-3.348 1.428-3.348 3.336 0 1.896 1.344 3.3 3.348 3.3zm.012-1.452c-1.032 0-1.752-.78-1.752-1.86s.684-1.872 1.74-1.872c1.032 0 1.752.804 1.752 1.872s-.684 1.86-1.74 1.86zM87.274 30v-4.02c0-.636.3-1.044.876-1.044.564 0 .852.408.852 1.02V30h1.608v-4.044c0-.576.288-1.02.864-1.02.576 0 .864.396.864 1.02V30h1.608v-4.236c0-1.236-.576-2.256-2.16-2.256-.84 0-1.32.36-1.608.696-.288-.408-.768-.696-1.524-.696-.816 0-1.212.348-1.38.552v-.48h-1.608V30h1.608zm10.632.108c1.56 0 2.424-.864 2.808-1.668l-1.188-.72c-.336.528-.804.96-1.62.96-.912 0-1.512-.516-1.596-1.368h4.584c.024-.276.024-.504.024-.66 0-1.92-1.212-3.18-3.144-3.18-1.86 0-3.156 1.416-3.156 3.336 0 2.04 1.344 3.3 3.288 3.3zM99.25 26.1h-2.904c.084-.732.6-1.272 1.416-1.272.876 0 1.416.552 1.488 1.272zm3.936 3.9v-3.912c0-.552.216-.852.84-.852h.408v-1.68c-.66 0-1.02.216-1.248.54v-.516h-1.608V30h1.608zm6.204.156c1.608 0 2.736-.996 2.736-2.58 0-1.176-.6-1.872-1.596-2.316-.456-.204-.852-.348-1.248-.516-.54-.228-.78-.516-.78-.948 0-.468.312-.828.888-.828.612 0 .936.444.936 1.056h1.536c.06-1.356-.6-2.484-2.472-2.484-1.56 0-2.544.984-2.544 2.34 0 .996.432 1.752 1.236 2.172.48.276.972.42 1.44.636.54.228.888.516.888 1.068 0 .624-.432.96-1.02.96-.816 0-1.092-.6-1.08-1.272h-1.584c-.06 1.284.468 2.712 2.664 2.712zm5.508-.072c.744 0 1.176-.3 1.356-.492V30h1.344v-4.044c0-1.428-.576-2.448-2.424-2.448-1.512 0-2.244.804-2.28 2.016h1.5c0-.36.18-.744.78-.744.6 0 .84.396.84.948v.324c-.168-.108-.564-.264-1.14-.264-1.332 0-2.208.912-2.208 2.112 0 1.332.948 2.184 2.232 2.184zm.216-1.272c-.552 0-.936-.384-.936-.924 0-.516.372-.912.924-.912.54 0 .936.372.936.912s-.396.924-.924.924zM120.118 30v-8.772h-1.608V30h1.608zm3.984.108c1.56 0 2.424-.864 2.808-1.668l-1.188-.72c-.336.528-.804.96-1.62.96-.912 0-1.512-.516-1.596-1.368h4.584c.024-.276.024-.504.024-.66 0-1.92-1.212-3.18-3.144-3.18-1.86 0-3.156 1.416-3.156 3.336 0 2.04 1.344 3.3 3.288 3.3zm1.344-4.008h-2.904c.084-.732.6-1.272 1.416-1.272.876 0 1.416.552 1.488 1.272zm4.368 3.984c1.26 0 2.34-.684 2.34-1.992 0-1.164-.504-1.668-1.536-1.98-.324-.096-.588-.144-.876-.228-.384-.108-.564-.288-.564-.6 0-.324.252-.54.636-.54.492 0 .72.288.732.78h1.476c-.012-1.344-.816-2.028-2.172-2.028-1.284 0-2.196.792-2.196 1.872 0 .972.444 1.572 1.332 1.896.348.132.624.192.972.288.444.12.636.288.636.66 0 .372-.336.576-.756.576-.624 0-.78-.408-.78-.864h-1.536c-.036 1.116.516 2.16 2.292 2.16zm8.748-.084v-1.56h-2.172v-1.92h2.076v-1.536h-2.076v-1.728h2.136v-1.56h-3.804V30h3.84zm2.112 0l1.464-2.016L143.59 30h1.8l-2.316-3.324 2.196-3.096h-1.764l-1.296 1.824-1.296-1.824h-1.86l2.208 3.144L138.934 30h1.74zm8.22.108c1.56 0 2.424-.864 2.808-1.668l-1.188-.72c-.336.528-.804.96-1.62.96-.912 0-1.512-.516-1.596-1.368h4.584c.024-.276.024-.504.024-.66 0-1.92-1.212-3.18-3.144-3.18-1.86 0-3.156 1.416-3.156 3.336 0 2.04 1.344 3.3 3.288 3.3zm1.344-4.008h-2.904c.084-.732.6-1.272 1.416-1.272.876 0 1.416.552 1.488 1.272zm5.412 4.008c1.104 0 1.86-.492 2.244-.9l-.888-1.08c-.288.24-.696.528-1.344.528-.924 0-1.728-.708-1.728-1.86 0-1.068.66-1.872 1.716-1.872.636 0 1.056.276 1.32.528l.924-1.116c-.384-.396-1.092-.864-2.256-.864-1.92 0-3.312 1.464-3.312 3.336 0 1.86 1.296 3.3 3.324 3.3zm4.74-.036c.756 0 1.176-.336 1.344-.552V30h1.596v-6.42h-1.608v4.02c0 .612-.312 1.032-.888 1.032-.576 0-.828-.396-.828-1.02V23.58h-1.608v4.224c0 1.308.564 2.268 1.992 2.268zm5.868-.012c.552 0 .84-.084.876-.084v-1.368h-.372c-.456 0-.612-.204-.612-.684v-2.988h.984V23.58h-.984v-1.008h-1.608v1.008h-.6v1.356h.6v3.444c0 1.068.504 1.68 1.716 1.68zm2.412-6.888c.54 0 .96-.42.96-.948 0-.54-.42-.972-.96-.972-.528 0-.96.432-.96.972 0 .528.432.948.96.948zm.804 6.828v-6.42h-1.608V30h1.608zm4.536 0l2.268-6.42h-1.668l-1.452 4.404-1.452-4.404h-1.776l2.316 6.42h1.764zm5.772.108c1.56 0 2.424-.864 2.808-1.668l-1.188-.72c-.336.528-.804.96-1.62.96-.912 0-1.512-.516-1.596-1.368h4.584c.024-.276.024-.504.024-.66 0-1.92-1.212-3.18-3.144-3.18-1.86 0-3.156 1.416-3.156 3.336 0 2.04 1.344 3.3 3.288 3.3zm1.344-4.008h-2.904c.084-.732.6-1.272 1.416-1.272.876 0 1.416.552 1.488 1.272z" mask="url(#vv6ntrsglb)"/>
                <path fill="#F2F4F5" d="M56 52H128V60H56z" mask="url(#vv6ntrsglb)"/>
                <path fill="#FF8169" d="M41 59L41 62.414 42.502 63.684 48.783 69 42.502 74.315 42.502 74.314 41 75.586 41 79 43.853 79 54 69.415 54 68.587 43.853 59z" mask="url(#vv6ntrsglb)" transform="rotate(-90 47.5 69)"/>
                <path fill="#FFAA9A" d="M41 69L41 72.414 42.502 73.684 48.783 79 42.502 84.315 42.502 84.314 41 85.586 41 89 43.853 89 54 79.415 54 78.587 43.853 69z" mask="url(#vv6ntrsglb)" transform="rotate(-90 47.5 79)"/>
                <path fill="url(#rlqnagautc)" d="M41 79L41 82.414 41 95.586 41 99 43.853 99 54 89.415 54 88.587 43.853 79z" mask="url(#vv6ntrsglb)" transform="rotate(-90 47.5 89)"/>
                <path fill="url(#rlqnagautc)" d="M284 56L284 59.414 284 72.586 284 76 286.853 76 297 66.415 297 65.587 286.853 56z" mask="url(#vv6ntrsglb)" transform="rotate(-90 290.5 66)"/>
                <path fill="#FF8169" d="M284 35L284 38.414 285.502 39.684 291.783 45 285.502 50.315 285.502 50.315 284 51.586 284 55 286.853 55 297 45.414 297 44.587 286.853 35z" mask="url(#vv6ntrsglb)" transform="rotate(-90 290.5 45)"/>
                <path fill="#FFAA9A" d="M284 45L284 48.414 285.502 49.684 291.783 55 285.502 60.315 285.502 60.315 284 61.586 284 65 286.853 65 297 55.414 297 54.587 286.853 45z" mask="url(#vv6ntrsglb)" transform="rotate(-90 290.5 55)"/>
                <path fill="#FFD75D" d="M258 66H260V76H258z" mask="url(#vv6ntrsglb)"/>
                <path fill="#FFE48D" d="M262 70H264V80H262z" mask="url(#vv6ntrsglb)"/>
                <path fill="#FFD75D" d="M32 16H34V26H32z" mask="url(#vv6ntrsglb)"/>
                <path fill="#FFE48D" d="M36 20H38V30H36z" mask="url(#vv6ntrsglb)"/>
                <path fill="#FFD75D" d="M122 80H124V90H122z" mask="url(#vv6ntrsglb)"/>
                <path fill="#FFE48D" d="M126 84H128V94H126z" mask="url(#vv6ntrsglb)"/>
                <path fill="#FFD75D" d="M266 11H270V15H266z" mask="url(#vv6ntrsglb)" transform="rotate(45 268 13)"/>
                <path fill="#FFD75D" d="M250 5H254V9H250z" mask="url(#vv6ntrsglb)" transform="rotate(45 252 7)"/>
                <path fill="#FFF" stroke="#FFD75D" d="M259 15H263V19H259z" mask="url(#vv6ntrsglb)" transform="rotate(45 261 17)"/>
                <path fill="#FFF" stroke="#FFD75D" d="M222 33H226V37H222z" mask="url(#vv6ntrsglb)" transform="rotate(45 224 35)"/>
                <path fill="#FFF" stroke="#FFD75D" d="M289 23H293V27H289z" mask="url(#vv6ntrsglb)" transform="rotate(45 291 25)"/>
                <path fill="#F2F4F5" d="M44 123H284V125H44z" mask="url(#vv6ntrsglb)"/>
            </g>
        </g>
    </g>
</svg>
