<svg xmlns="http://www.w3.org/2000/svg" width="32" height="32" viewBox="0 0 32 32">
    <g fill="none" fill-rule="evenodd">
        <path d="M0 0H32V32H0z"/>
        <g fill-rule="nonzero">
            <path fill="#FEDB41" d="M14.88 7.485c0 1.688-.551 3.28-1.594 4.602-1.24 1.572-.986 4.428-1.033 4.428 0 0-1.657 2.994-4.812 2.994-3.154 0-4.802-2.994-4.802-2.994-.048-1.234.116-2.94-1.072-4.466C.536 10.724-.005 9.134.003 7.45.02 3.37 3.335.03 7.388 0c4.29 0 7.492 3.479 7.492 7.485z" transform="translate(9 4)"/>
            <path fill="#FFD75D" d="M14.877 7.485c0 1.688-.55 3.28-1.594 4.602-1.24 1.572-.986 4.428-1.032 4.428 0 0-1.658 2.994-4.812 2.994-3.155 0-4.803-2.994-4.803-2.994-.048-1.234.116-2.94-1.071-4.466C.533 10.724-.007 9.134 0 7.45.019 3.37 3.332.03 7.385 0c4.29 0 7.492 3.479 7.492 7.485z" transform="translate(9 4)"/>
            <path fill="#FFCE32" d="M7.441 0v19.509c3.155 0 4.812-2.994 4.812-2.994.044 0-.201-2.863 1.033-4.428 1.043-1.323 1.594-2.914 1.594-4.602C14.88 3.357 11.536 0 7.44 0z" transform="translate(9 4)"/>
            <path fill="#FFF" d="M5 3.5L5 9 6.8 9 6.8 13.5 11 7.5 8.6 7.5 10.4 3.5z" transform="translate(9 4)"/>
            <path fill="#284E52" d="M12.254 16.515H2.639c.044 1.18.21 2.92.432 4.33.188 1.465 1.43 3.047 4.356 3.108h.029c1.227-.025 2.24-.32 3.01-.876.764-.552 1.23-1.324 1.346-2.232.189-1.2.404-3.032.442-4.33z" transform="translate(9 4)"/>
            <path fill="#153E42" d="M2.89 19.509c.05.429.116.924.18 1.336.19 1.465 1.431 3.047 4.357 3.108h.029c1.227-.025 2.24-.32 3.01-.876.764-.552 1.23-1.324 1.346-2.233.045-.285.118-.796.185-1.335H2.89z" transform="translate(9 4)"/>
        </g>
    </g>
</svg>
