<svg xmlns="http://www.w3.org/2000/svg" width="32" height="32" viewBox="0 0 32 32">
    <g fill="none" fill-rule="evenodd">
        <path d="M0 0H32V32H0z"/>
        <g fill-rule="nonzero">
            <path fill="#284E52" d="M5.389 4.418l-1.3-1.303c-.301-.302-.703-.468-1.13-.468-.426 0-.827.166-1.129.468l-.942.944c-.62.622-.62 1.633 0 2.255l1.303 1.305c.127.127.294.191.461.191.167 0 .334-.063.46-.19.256-.255 2.021-2.026 2.276-2.28.255-.254.255-.667 0-.922z" transform="translate(6 5)"/>
            <path fill="#5B787C" d="M10 .13c-.36 0-.652.292-.652.653V2.87c0 .36.292.652.652.652.36 0 .652-.292.652-.652V.783c0-.36-.292-.653-.652-.653z" transform="translate(6 5)"/>
            <path fill="#BE273D" d="M11.609 0H8.39c-.36 0-.652.292-.652.652 0 .36.292.652.652.652h3.218c.36 0 .652-.292.652-.652 0-.36-.292-.652-.652-.652z" transform="translate(6 5)"/>
            <path fill="#D83C3C" d="M10 0H8.391c-.36 0-.652.292-.652.652 0 .36.292.652.652.652H10V0z" transform="translate(6 5)"/>
            <path fill="#BE273D" d="M17.072 5.157c-1.89-1.893-4.4-2.935-7.072-2.935-2.671 0-5.183 1.042-7.072 2.935C1.04 7.05 0 9.565 0 12.241c0 2.676 1.04 5.192 2.928 7.085 1.89 1.892 4.4 2.935 7.072 2.935 2.671 0 5.183-1.043 7.072-2.935C18.96 17.433 20 14.917 20 12.24s-1.04-5.191-2.928-7.084z" transform="translate(6 5)"/>
            <path fill="#D83C3C" d="M10 2.222c-2.671 0-5.183 1.042-7.072 2.935C1.04 7.05 0 9.565 0 12.241c0 2.676 1.04 5.192 2.928 7.085 1.89 1.892 4.4 2.935 7.072 2.935V2.222z" transform="translate(6 5)"/>
            <path fill="#FFF" d="M10 4.719c-4.14 0-7.508 3.375-7.508 7.522 0 4.148 3.368 7.523 7.508 7.523 4.14 0 7.508-3.375 7.508-7.523 0-4.147-3.368-7.522-7.508-7.522z" transform="translate(6 5)"/>
            <g>
                <path fill="#284E52" d="M7.522 1.652c.36 0 .652-.292.652-.652V.052C7.959.034 7.74.023 7.522.023c-.22 0-.437.01-.652.03V1c0 .36.292.652.652.652zM7.522 13.44c-.36 0-.652.291-.652.651v.949c.215.018.432.028.652.028.22 0 .437-.01.652-.028v-.949c0-.36-.292-.652-.652-.652zM15.001 6.894h-.934c-.36 0-.652.292-.652.652 0 .36.292.652.652.652h.934c.019-.215.029-.432.029-.652 0-.22-.01-.437-.029-.652zM1.628 7.546c0-.36-.292-.652-.652-.652H.042c-.018.215-.028.432-.028.652 0 .22.01.437.028.652h.934c.36 0 .652-.292.652-.652z" transform="translate(6 5) translate(2.478 4.696)"/>
                <path fill="#002F34" d="M9.13 7.17h-.92V4.531c0-.36-.292-.652-.652-.652-.36 0-.652.292-.652.652v3.29c0 .36.292.652.652.652H9.13c.36 0 .653-.292.653-.652 0-.36-.292-.653-.653-.653z" transform="translate(6 5) translate(2.478 4.696)"/>
            </g>
        </g>
    </g>
</svg>
