<svg xmlns="http://www.w3.org/2000/svg" xmlns:xlink="http://www.w3.org/1999/xlink" width="155" height="134" viewBox="0 0 155 134">
    <defs>
        <path id="nt6hyo7nqa" d="M8.644 41.744L8.942 0S1.694 4.443 3.04 10.456c.647 2.885 1.71 4.817-.285 7.22C.762 20.08-.172 21.638.027 24.441c.2 2.803 3.414 3.726 3.015 6.929-.4 3.203-2.445 5.58-2.082 7.526.83 4.446 4.59 6.207 4.59 6.207l3.094-3.36z"/>
        <path id="pwn1y60ysc" d="M9.472 45.741L9.798 0S1.856 4.868 3.333 11.458c.708 3.161 1.873 5.278-.314 7.911S-.189 23.71.029 26.781c.22 3.072 3.741 4.084 3.304 7.593-.438 3.51-2.68 6.114-2.282 8.247.908 4.873 5.03 6.802 5.03 6.802l3.391-3.682z"/>
        <path id="ob5r8gtf6e" d="M11.352 54.717V0S2.15 5.64 3.86 13.276c.82 3.66 2.171 6.114-.362 9.164S-.22 27.47.034 31.03c.254 3.56 4.334 4.73 3.827 8.797-.507 4.066-4.418 7.776-2.643 9.554 1.774 1.78 5.827 7.879 5.827 7.879l4.307-2.543z"/>
    </defs>
    <g fill="none" fill-rule="evenodd">
        <g>
            <g>
                <g>
                    <g>
                        <g opacity=".201">
                            <g>
                                <path fill="#425AC2" fill-rule="nonzero" d="M8.644 41.744L8.942 0S1.694 4.443 3.04 10.456c.647 2.885 1.71 4.817-.285 7.22C.762 20.08-.172 21.638.027 24.441c.2 2.803 3.414 3.726 3.015 6.929-.4 3.203-2.445 5.58-2.082 7.526.83 4.446 4.59 6.207 4.59 6.207l3.094-3.36z" transform="translate(-79 -124) translate(79 124) translate(0 13) translate(61.873 .037) translate(82.899 54.543)"/>
                                <g transform="translate(-79 -124) translate(79 124) translate(0 13) translate(61.873 .037) translate(82.899 54.543)">
                                    <mask id="gx26bbz1ub" fill="#fff">
                                        <use xlink:href="#nt6hyo7nqa"/>
                                    </mask>
                                    <g mask="url(#gx26bbz1ub)">
                                        <g>
                                            <g>
                                                <path fill="#8EA8DD" fill-rule="nonzero" d="M0 0H9.886V1H0z" transform="translate(4.398 8.564) translate(1.695 .208)"/>
                                            </g>
                                            <g>
                                                <path fill="#8EA8DD" fill-rule="nonzero" d="M0 0H9.886V1H0z" transform="translate(4.398 8.564) translate(.1 14.283)"/>
                                            </g>
                                            <g>
                                                <path fill="#8EA8DD" fill-rule="nonzero" d="M0 0H9.886V1H0z" transform="translate(4.398 8.564) translate(.738 29.637)"/>
                                            </g>
                                        </g>
                                    </g>
                                </g>
                            </g>
                        </g>
                        <g opacity=".201">
                            <g>
                                <path fill="#425AC2" fill-rule="nonzero" d="M9.472 45.741L9.798 0S1.856 4.868 3.333 11.458c.708 3.161 1.873 5.278-.314 7.911S-.189 23.71.029 26.781c.22 3.072 3.741 4.084 3.304 7.593-.438 3.51-2.68 6.114-2.282 8.247.908 4.873 5.03 6.802 5.03 6.802l3.391-3.682z" transform="translate(-79 -124) translate(79 124) translate(0 13) translate(61.873 .037) translate(54.777 50.224)"/>
                                <g transform="translate(-79 -124) translate(79 124) translate(0 13) translate(61.873 .037) translate(54.777 50.224)">
                                    <mask id="wh925pccod" fill="#fff">
                                        <use xlink:href="#pwn1y60ysc"/>
                                    </mask>
                                    <g mask="url(#wh925pccod)">
                                        <g>
                                            <g>
                                                <path fill="#8EA8DD" fill-rule="nonzero" d="M0 0H10.833V1H0z" transform="translate(5.433 9.602) translate(1.243 .028)"/>
                                            </g>
                                            <g>
                                                <path fill="#8EA8DD" fill-rule="nonzero" d="M0 0H10.833V1H0z" transform="translate(5.433 9.602) translate(.195 32.275)"/>
                                            </g>
                                        </g>
                                    </g>
                                </g>
                            </g>
                        </g>
                        <g fill="#425AC2" fill-rule="nonzero" opacity=".201">
                            <path d="M11.352 54.717V0S2.15 5.64 3.86 13.276c.82 3.66 2.171 6.114-.362 9.164S-.22 27.47.034 31.03c.254 3.56 4.334 4.73 3.827 8.797-.507 4.066-4.418 7.776-2.643 9.554 1.774 1.78 5.827 7.879 5.827 7.879l4.307-2.543z" transform="translate(-79 -124) translate(79 124) translate(0 13) translate(61.873 .037) translate(68.23 42.387)"/>
                        </g>
                        <g fill="#0E24A5" fill-rule="nonzero" opacity=".201">
                            <path d="M0 0L19.818 0 16.043 21.771 3.775 21.771z" transform="translate(-79 -124) translate(79 124) translate(0 13) translate(61.873 .037) translate(72.204 95.824)"/>
                        </g>
                        <g fill="#D6EBF7" fill-rule="nonzero">
                            <g>
                                <path d="M38.437 54.783c0-9.13 20.84-5.618 27.307-31.605C70.97 2.186 65.046 0 65.046 0H3.262s-6.328 2.292-.7 23.178c7.001 25.987 27.307 22.474 27.307 31.605 0 11.94-19.605 5.619-27.307 31.606-6.148 20.739.7 23.178.7 23.178h61.782s5.924-2.186.698-23.178c-5.765-23.177-27.305-19.665-27.305-31.606z" transform="translate(-79 -124) translate(79 124) translate(0 13) translate(61.873 .037) translate(5.932 4.08)"/>
                            </g>
                        </g>
                        <g fill="#052C49" fill-rule="nonzero">
                            <path d="M73.069 15.784H6.572c-3.629 0-6.571-2.504-6.571-5.59V5.59C.001 2.502 2.944 0 6.572 0H73.07c3.63 0 6.571 2.503 6.571 5.59v4.604c.001 3.085-2.941 5.59-6.571 5.59z" transform="translate(-79 -124) translate(79 124) translate(0 13) translate(61.873 .037) translate(.06 .178)"/>
                        </g>
                        <g fill="#63ACD9" fill-rule="nonzero">
                            <path d="M.13 31.51c-.798-2.24 2.312-13.635 3.268-15.714C4.354 13.716 27.076-.16 28.83 0c1.754.16 23.399 11.596 26.11 16.394 2.71 4.797 3.229 15.114 3.229 15.114H.129z" transform="translate(-79 -124) translate(79 124) translate(0 13) translate(61.873 .037) translate(10.892 71.496)"/>
                        </g>
                        <g fill="#052C49" fill-rule="nonzero">
                            <path d="M73.069 15.783H6.572c-3.629 0-6.571-2.502-6.571-5.59V5.59C.001 2.5 2.944 0 6.572 0H73.07c3.63 0 6.571 2.502 6.571 5.59v4.604c.001 3.086-2.941 5.589-6.571 5.589z" transform="translate(-79 -124) translate(79 124) translate(0 13) translate(61.873 .037) translate(.06 102.092)"/>
                        </g>
                        <g fill="#63ACD9" fill-rule="nonzero">
                            <path d="M17.317 13.626c-1.075 0-9.327-4.558-13.99-7.916C-1.338 2.353-.263.912 1.531.312c1.793-.599 33.603-.358 34.92.96 1.316 1.32-6.1 5.757-9.327 8.036-2.364 1.668-7.775 4.318-9.808 4.318z" transform="translate(-79 -124) translate(79 124) translate(0 13) translate(61.873 .037) translate(22.803 38.758)"/>
                        </g>
                        <g transform="translate(-79 -124) translate(79 124) translate(0 13) translate(61.873 .037) translate(68.23 42.387)">
                            <mask id="9pf2ytu4pf" fill="#fff">
                                <use xlink:href="#ob5r8gtf6e"/>
                            </mask>
                            <g mask="url(#9pf2ytu4pf)">
                                <g>
                                    <g>
                                        <path fill="#8EA8DD" fill-rule="nonzero" d="M0 0H9.886V1H0z" transform="translate(4.657 12.197) translate(2.551 .254)"/>
                                    </g>
                                    <g>
                                        <path fill="#8EA8DD" fill-rule="nonzero" d="M0 0H9.886V1H0z" transform="translate(4.657 12.197) translate(0 17.368)"/>
                                    </g>
                                    <g>
                                        <path fill="#8EA8DD" fill-rule="nonzero" d="M0 0H9.886V1H0z" transform="translate(4.657 12.197) translate(2.551 34.641)"/>
                                    </g>
                                </g>
                            </g>
                        </g>
                    </g>
                    <g>
                        <g fill="#E5E7EA" fill-rule="nonzero">
                            <g>
                                <path d="M41.063 36.636v.263c0 2.197-1.7 3.977-3.793 3.977H7.552c-4.583 0-8.111-4.412-7.479-9.355L3.43 3.98C3.719 1.697 5.509 0 7.625 0h8.807c2.115 0 3.905 1.697 4.197 3.979l3.354 27.542c.026.197.044.394.055.589l.018-.003s.62 4.529 6.39 4.529h10.617zM9.426 71.9c0 1.405-1.135 2.544-2.535 2.544-1.4 0-2.536-1.139-2.536-2.543 0-1.405 1.135-2.543 2.536-2.543.672 0 1.317.268 1.793.745.475.476.742 1.123.742 1.798" transform="translate(-79 -124) translate(79 124) translate(0 13) translate(.13 19.464) translate(.052 24.113) translate(20.844)"/>
                                <path d="M32.567 72.411H7.507c-.964 0-1.746-.783-1.746-1.75s.782-1.751 1.745-1.751h25.06c.965 0 1.746.784 1.746 1.75 0 .968-.781 1.751-1.745 1.751" transform="translate(-79 -124) translate(79 124) translate(0 13) translate(.13 19.464) translate(.052 24.113) translate(20.844)"/>
                                <path d="M18.751 71.579L21.322 71.579 21.322 40.77 18.751 40.77z" transform="translate(-79 -124) translate(79 124) translate(0 13) translate(.13 19.464) translate(.052 24.113) translate(20.844)"/>
                                <path d="M28.849 40.77L20.037 44.796 11.224 40.77zM20.231 72.411H16.98c-.964 0-1.745-.783-1.745-1.75s.781-1.751 1.745-1.751h3.252c.964 0 1.746.784 1.746 1.75 0 .968-.782 1.751-1.746 1.751" transform="translate(-79 -124) translate(79 124) translate(0 13) translate(.13 19.464) translate(.052 24.113) translate(20.844)"/>
                                <path d="M18.097 71.9c0 1.405-1.135 2.544-2.535 2.544-1.4 0-2.536-1.139-2.536-2.543 0-1.405 1.136-2.543 2.536-2.543.672 0 1.317.268 1.793.745.475.476.742 1.123.742 1.798M35.885 71.9c0 1.405-1.135 2.544-2.536 2.544-1.4 0-2.535-1.139-2.535-2.543 0-1.405 1.135-2.543 2.535-2.543.673 0 1.318.268 1.793.745.476.476.743 1.123.743 1.798" transform="translate(-79 -124) translate(79 124) translate(0 13) translate(.13 19.464) translate(.052 24.113) translate(20.844)"/>
                            </g>
                            <g>
                                <path d="M14.884 5.267c0 2.909-1.763 5.267-3.938 5.267-2.175 0-3.938-2.36-3.938-5.267C7.008 2.359 8.771 0 10.946 0c2.175 0 3.938 2.358 3.938 5.267" transform="translate(-79 -124) translate(79 124) translate(0 13) translate(.13 19.464) translate(.052 24.113) translate(0 32.045)"/>
                                <path stroke="#DCEEFF" stroke-width="1.4" d="M10.975 32.929L10.975 5.534" transform="translate(-79 -124) translate(79 124) translate(0 13) translate(.13 19.464) translate(.052 24.113) translate(0 32.045)"/>
                                <path d="M6.734 13.004c1.86 1.865 2.237 4.511.842 5.91-1.394 1.4-4.032 1.021-5.892-.844-1.861-1.866-2.237-4.512-.842-5.91 1.394-1.4 4.033-1.022 5.892.844M20.013 16.836c1.5 1.505 1.094 4.35-.906 6.355-2 2.006-4.834 2.412-6.335.908" transform="translate(-79 -124) translate(79 124) translate(0 13) translate(.13 19.464) translate(.052 24.113) translate(0 32.045)"/>
                                <path stroke="#DCEEFF" stroke-width="1.4" d="M17.992 19.485L11.092 26.427M15.998 12.848L10.956 17.846M5.72 23.82L10.988 29.164M3.904 15.266L10.946 22.414" transform="translate(-79 -124) translate(79 124) translate(0 13) translate(.13 19.464) translate(.052 24.113) translate(0 32.045)"/>
                                <path d="M13.087 42.338H8.865c-3.254-.01-5.89-2.652-5.9-5.916v-5.567h16.02v5.567c-.01 3.264-2.645 5.908-5.9 5.917" transform="translate(-79 -124) translate(79 124) translate(0 13) translate(.13 19.464) translate(.052 24.113) translate(0 32.045)"/>
                                <path stroke="#DCEEFF" stroke-width="5.4" d="M18.985 33.949L2.966 33.949" transform="translate(-79 -124) translate(79 124) translate(0 13) translate(.13 19.464) translate(.052 24.113) translate(0 32.045)"/>
                                <path stroke="#DCEEFF" stroke-width="1.4" d="M18.985 37.053L2.966 37.053" transform="translate(-79 -124) translate(79 124) translate(0 13) translate(.13 19.464) translate(.052 24.113) translate(0 32.045)"/>
                            </g>
                        </g>
                        <g>
                            <g>
                                <path fill="#19141E" fill-rule="nonzero" d="M10.763 4.823c-5.964.835-3.465 7.724-1.79 11.445 1.967 4.366.245 7.294.245 7.294L0 20.278c3.383-4.316-.353-6.72.567-11.865.825-4.616 5.303-6.699 8.133-6.6 1.212.032 2.401.334 3.483.882.035.017.068.036.1.057C14.034.959 16.44-.035 18.943 0c5.5 0 10.44 4.353 10.44 10.132s-4.458 10.464-9.957 10.464c-5.5 0-9.958-4.685-9.958-10.464-.02-1.85.426-3.676 1.295-5.309z" transform="translate(-79 -124) translate(79 124) translate(0 13) translate(.13 19.464) translate(20.422) translate(.79)"/>
                                <path fill="#CF3E83" fill-rule="nonzero" d="M20.398 20.873s-2.045.06-2.916-.417l2.808 1.768.108-1.351z" transform="translate(-79 -124) translate(79 124) translate(0 13) translate(.13 19.464) translate(20.422) translate(.79)"/>
                                <g fill="#FFEDAA" fill-rule="nonzero">
                                    <path d="M15.676 5.517c-.306 2.38-1.102 5.734-3.066 7.044-1.042.694-2.94.78-4.558.686l-.37 4.609-5.277-2.18s.507-5.086.727-7.035C2.07 7.676.262 7.229.26 5.59c-.019-.419.14-.825.434-1.12.296-.296.701-.453 1.118-.434 1.638-.001 1.404 1.969 1.404 1.969.196.076.414.077.61.002C5.446 5.94 9.959 5.258 13.027 0c.358 1.77 1.102 3.977 2.65 5.517z" transform="translate(-79 -124) translate(79 124) translate(0 13) translate(.13 19.464) translate(20.422) translate(.79) translate(12.346 7.624)"/>
                                </g>
                                <path fill="#E4BB31" fill-rule="nonzero" d="M24.844 13.626L26.014 16.472 24.657 16.444z" transform="translate(-79 -124) translate(79 124) translate(0 13) translate(.13 19.464) translate(20.422) translate(.79)"/>
                                <path fill="#0D0B6D" fill-rule="nonzero" d="M23.598 13.75c-.03.568-.363 1.012-.745.989-.382-.023-.668-.501-.639-1.07.03-.568.363-1.011.745-.99.382.021.668.501.639 1.07M27.186 13.659c-.03.568-.362 1.012-.745.99-.382-.023-.667-.502-.639-1.07.028-.569.363-1.012.745-.99.382.02.668.5.639 1.069" transform="translate(-79 -124) translate(79 124) translate(0 13) translate(.13 19.464) translate(20.422) translate(.79)"/>
                                <path stroke="#1C295E" d="M24.323 17.808s-.884.286-1.77-.703" transform="translate(-79 -124) translate(79 124) translate(0 13) translate(.13 19.464) translate(20.422) translate(.79)"/>
                                <path fill="#000" fill-rule="nonzero" d="M20.395 20.873s-2.045.06-2.917-.417l2.808 1.768.109-1.351z" opacity=".403" transform="translate(-79 -124) translate(79 124) translate(0 13) translate(.13 19.464) translate(20.422) translate(.79)"/>
                            </g>
                            <g>
                                <path fill="#C83820" fill-rule="nonzero" d="M12.968 26.76l-1.092-.015.003-.054c.376.026.74.049 1.09.07" transform="translate(-79 -124) translate(79 124) translate(0 13) translate(.13 19.464) translate(20.422) translate(0 19.988)"/>
                                <g fill="#FF7861" fill-rule="nonzero">
                                    <path d="M35.237 38.64l-3.607.453-5.812-9.115-.212-3.03-8.851-.132-3.778-.055h-.008c-.35-.021-.713-.043-1.09-.07C7.12 26.358.528 25.429.076 22.859-.746 18.205 5.463 9.172 6.197 8.125l.069-.1c1.04-1.49 2.088-2.65 3.065-3.267 1.607-1.014 3.48-1.522 5.377-1.46L15.161 0l6.91.956-.376 2.742c2.03.195 3.41.593 4.702 1.783 4.149 3.82 4.454 18.127 4.454 18.127l4.386 15.031z" transform="translate(-79 -124) translate(79 124) translate(0 13) translate(.13 19.464) translate(20.422) translate(0 19.988)"/>
                                </g>
                                <path fill="#C83820" fill-rule="nonzero" d="M16.754 26.816v.063s-1.584.005-3.777-.119l3.777.056z" transform="translate(-79 -124) translate(79 124) translate(0 13) translate(.13 19.464) translate(20.422) translate(0 19.988)"/>
                                <path stroke="#000" stroke-width="3" d="M25.479 26.91c.507-6.462 4.02-7.83 1.489-15.078" opacity=".201" transform="translate(-79 -124) translate(79 124) translate(0 13) translate(.13 19.464) translate(20.422) translate(0 19.988)"/>
                                <path fill="#18181C" fill-rule="nonzero" d="M31.453 34.907L18.26 33.381c-.206-.023-.392-.136-.507-.308-.116-.173-.15-.387-.094-.587l5.214-18.478c.094-.334.417-.55.761-.51l13.196 1.526c.206.024.39.137.505.309.115.172.149.386.093.586l-5.214 18.478c-.094.334-.416.55-.76.51" transform="translate(-79 -124) translate(79 124) translate(0 13) translate(.13 19.464) translate(20.422) translate(0 19.988)"/>
                                <path fill="#FCBDA4" fill-rule="nonzero" d="M19.736 28.002l.076.02c1.023.303 2.1.381 3.156.231.838-.11 1.56-.253 1.551-.388-.023-.339-.43-.415-.43-.415l-.781.038-.754-.044s3.46-.657 3.46-.759c-.01-.358-.578-.503-.578-.503s1.19-.19 1.176-.38c-.032-.482-.564-.518-.564-.518s.148-.128.133-.246c-.059-.476-.906-.555-1.308-.613-.595-.002-1.19-.042-1.78-.12-.727-.162-1.436-.4-2.114-.711l2.68-9.496c.094-.334.416-.55.76-.51l13.196 1.526c.205.024.39.137.505.31.115.172.149.386.092.586L33 34.487c-.095.334-.416.55-.76.51l-13.195-1.525c-.206-.023-.391-.136-.507-.308-.115-.173-.15-.388-.093-.588l1.292-4.574z" transform="translate(-79 -124) translate(79 124) translate(0 13) translate(.13 19.464) translate(20.422) translate(0 19.988)"/>
                                <g fill="#FFEDAA" fill-rule="nonzero">
                                    <path d="M20.707 24.31s-.818.694-1.157.682c-3.201-.11-3.03-1.734-2.954-1.938.17-.458 1.024.065 1.024.065s-1.642-3.343-1.247-5.683l3.453-.434c.83.979 1.839 2.196 1.986 2.486.255.502.727 2.993.705 3.485-.023.492-1.494 2.702-1.494 2.702-.912-.222-.316-1.364-.316-1.364zM4.465 6.379l-.223-.06c-.944-.248-1.365-.294-2.579-.957C1.075 5.02.52 4.628 0 4.188L.875.941 2.08.528C2.57.353 3.074.22 3.586.133 4.179.023 4.759.066 5.37 0l-.348 1.28c-.043.05-.082.104-.118.16.026.022.052.047.082.074.25.23.724.636 2.759 1.146.59.078 1.184.118 1.78.12.402.059 1.249.137 1.307.613.015.118-.133.246-.133.246s.531.037.564.519c.014.19-1.176.38-1.176.38s.57.145.579.503c0 .102-3.46.758-3.46.758l.753.045.783-.038s.407.076.43.415c.008.134-.713.278-1.551.388-.355.048-.713.073-1.071.074-.706-.005-1.408-.107-2.087-.304z" transform="translate(-79 -124) translate(79 124) translate(0 13) translate(.13 19.464) translate(20.422) translate(0 19.988) translate(15.347 21.644)"/>
                                </g>
                                <path stroke="#000" stroke-width="3" d="M33.621 40.302s.45 1.702 1.991 2.232c.54.185.405 2.374 1.726 2.113" opacity=".148" transform="translate(-79 -124) translate(79 124) translate(0 13) translate(.13 19.464) translate(20.422) translate(0 19.988)"/>
                                <path fill="#020101" fill-rule="nonzero" d="M25 15.31c-.104.327-.326.548-.496.494-.17-.055-.224-.363-.119-.69.105-.328.326-.55.496-.496.17.054.223.364.119.691" transform="translate(-79 -124) translate(79 124) translate(0 13) translate(.13 19.464) translate(20.422) translate(0 19.988)"/>
                                <path stroke="#000" stroke-width="3" d="M11.708 13.114L8.377 18.646 16.658 21.933" opacity=".2" transform="translate(-79 -124) translate(79 124) translate(0 13) translate(.13 19.464) translate(20.422) translate(0 19.988)"/>
                            </g>
                            <g fill-rule="nonzero">
                                <g fill="#D6D6D6">
                                    <path d="M.53 14.942l3.586 1.67-.408 3.573s7.594 1.999 10.45 4.968L0 25.177l.53-10.235zM16.487.593L20.411 0l1.63 3.218S29.503.675 33.533 1.576L21.825 9.37 16.487.593z" transform="translate(-79 -124) translate(79 124) translate(0 13) translate(.13 19.464) translate(20.422) translate(11.545 38.549) translate(27.308 34.7)"/>
                                </g>
                                <g fill="#FFEDAA">
                                    <path d="M0 19.71l.116-4.326 3.761 1.5-.032 2.967L0 19.709zM16.605.832L20.582 0l1.61 2.502-3.298 2.016-2.29-3.685z" transform="translate(-79 -124) translate(79 124) translate(0 13) translate(.13 19.464) translate(20.422) translate(11.545 38.549) translate(27.55 35.157)"/>
                                </g>
                                <g fill="#054549">
                                    <path d="M37.113 31.744L35.166 52.94h-9.018l.4-30.778-17.212.118c-4.91 0-9.66-4.23-9.319-9.146l.536-5.004L26.838.342c4.867-1.104 6.554.355 9.708 5.988l13.93 28.64-7.652 5.13-5.711-8.356z" transform="translate(-79 -124) translate(79 124) translate(0 13) translate(.13 19.464) translate(20.422) translate(11.545 38.549)"/>
                                </g>
                                <g fill="#18181C" opacity=".15">
                                    <path d="M19.698 0L0 12.329l17.212-.12-.4 30.78h9.018l3.091-33.66C29.684 3.203 25.863 0 19.698 0" transform="translate(-79 -124) translate(79 124) translate(0 13) translate(.13 19.464) translate(20.422) translate(11.545 38.549) translate(9.336 9.954)"/>
                                </g>
                            </g>
                        </g>
                    </g>
                </g>
                <g fill-rule="nonzero">
                    <path fill="#C57C00" d="M11 5c0 .094-.002.187-.008.28-.003.077-.009.153-.018.229-.016.166-.041.331-.074.495-.015.078-.032.154-.05.23-.078.311-.186.615-.322.905-.034.078-.072.155-.111.23-.094.176-.199.348-.313.512-.052.079-.109.155-.169.229-.134.176-.28.342-.44.495-.082.082-.165.157-.25.23-.2.173-.416.328-.642.465-.136.084-.277.16-.422.228-.648.312-1.355.473-2.07.472H5V0h1.11c.776 0 1.54.188 2.229.55.135.069.266.145.392.23.226.145.44.311.638.495.082.072.16.15.235.229.253.264.476.555.667.868.044.074.089.15.13.227.16.298.29.613.386.938.022.076.044.152.063.23.061.245.104.496.126.748.009.076.014.152.018.23.004.084.006.17.006.255z" transform="translate(-79 -124) translate(79 124) translate(137 39)"/>
                    <g fill="#9D6500">
                        <path d="M3.824 4.514c-.004.074-.009.146-.017.218H2.56v-.218h1.264zM3.74 5.205c-.014.074-.03.146-.046.219H2.162v-.219h1.577zM3.4 6.288c-.031.074-.066.148-.102.219H1.79v-.219H3.4zM3.013 6.996c-.048.076-.1.149-.154.219H1.293v-.219h1.72zM2.457 7.688c-.074.077-.15.15-.228.218H.763v-.218h1.694zM1.643 8.35c-.124.08-.253.154-.385.219H0V8.35h1.643zM3.825 4.002h-1.35v-.218h1.333c.009.072.014.145.017.218zM3.693 3.07H2.322v-.22h1.315c.02.073.04.145.056.22zM3.283 1.955H1.908V1.74h1.257c.04.07.081.142.118.216zM2.557.91h-1.53V.691h1.315c.075.069.146.143.215.219zM1.76.218H.277V0h1.125c.123.065.242.138.358.218z" transform="translate(-79 -124) translate(79 124) translate(137 39) translate(7 1)"/>
                    </g>
                    <path fill="#FFC400" d="M10 5c0 2.022-1.218 3.845-3.086 4.62-1.869.773-4.02.345-5.45-1.085C.035 7.105-.392 4.955.382 3.087 1.155 1.218 2.978 0 5 0c1.325 0 2.597.527 3.535 1.464C9.473 2.402 10 3.674 10 5z" transform="translate(-79 -124) translate(79 124) translate(137 39)"/>
                    <path fill="#FFAC00" d="M9 5c0 2.21-1.79 4-4 4S1 7.21 1 5s1.79-4 4-4c1.06 0 2.078.421 2.828 1.172C8.578 2.922 9 3.939 9 5z" transform="translate(-79 -124) translate(79 124) translate(137 39)"/>
                    <path fill="#BB6A00" d="M5.34 8.666c-1.577 0-3.007-.925-3.654-2.364C1.04 4.863 1.298 3.18 2.346 2 1.232 2.988.76 4.511 1.116 5.955s1.484 2.572 2.929 2.928C5.49 9.24 7.012 8.766 8 7.653c-.732.654-1.679 1.014-2.66 1.013z" transform="translate(-79 -124) translate(79 124) translate(137 39)"/>
                </g>
                <g fill-rule="nonzero">
                    <path fill="#C57C00" d="M21.118 9.521c0 .18-.004.356-.014.533-.008.148-.018.292-.036.436-.032.316-.08.63-.144.941-.028.148-.06.292-.097.436-.15.593-.36 1.17-.623 1.722-.065.147-.139.294-.215.435-.182.336-.385.661-.606.973-.102.15-.21.296-.326.435-.26.336-.545.65-.853.942-.159.155-.32.299-.484.435-.39.33-.806.625-1.244.885-.264.16-.537.305-.817.434-1.255.592-2.625.898-4.011.896H9.497V.02h2.15c1.502-.002 2.982.357 4.317 1.046.261.13.515.276.76.435.438.277.851.592 1.236.942.158.136.308.284.455.435.49.5.922 1.054 1.29 1.65.086.14.173.284.251.432.31.566.562 1.164.75 1.783.042.143.085.287.121.435.12.467.201.943.244 1.423.018.144.028.288.036.435.007.162.011.324.011.485z" transform="translate(-79 -124) translate(79 124) translate(133)"/>
                    <g fill="#9D6500">
                        <path d="M8.115 8.988c-.007.147-.018.291-.036.435H5.433v-.435h2.682zM7.935 10.364c-.028.148-.06.292-.096.436H4.588v-.436h3.347zM7.215 12.522c-.064.147-.138.294-.215.435H3.8v-.435h3.416zM6.394 13.931c-.1.15-.21.296-.326.435H2.745v-.435h3.65zM5.215 15.308c-.158.155-.319.299-.484.435H1.62v-.435h3.595zM3.487 16.628c-.264.16-.536.305-.817.434H0v-.434h3.487zM8.119 7.97H5.253v-.435h2.828c.02.144.03.287.038.435zM7.839 6.112H4.927v-.434h2.79c.042.143.086.286.122.434zM6.968 3.893H4.05v-.43h2.667c.085.14.172.283.25.43zM5.426 1.812H2.18v-.435H4.97c.158.136.309.284.455.435zM3.735.435H.588V0h2.387c.262.13.515.275.76.435z" transform="translate(-79 -124) translate(79 124) translate(133) translate(12.989 1.066)"/>
                    </g>
                    <path fill="#FFC400" d="M18.968 9.521c0 3.843-2.307 7.308-5.847 8.78-3.54 1.47-7.615.658-10.325-2.06C.086 13.525-.724 9.438.742 5.887 2.208 2.336 5.663.02 9.495.02c2.512 0 4.922 1 6.699 2.783C17.97 4.584 18.968 7 18.968 9.52z" transform="translate(-79 -124) translate(79 124) translate(133)"/>
                    <path fill="#FFAC00" d="M17.358 9.521c0 4.355-3.52 7.886-7.862 7.886-4.343 0-7.863-3.53-7.863-7.886 0-4.355 3.52-7.886 7.863-7.886 2.085 0 4.085.83 5.56 2.31 1.474 1.479 2.302 3.485 2.302 5.576z" transform="translate(-79 -124) translate(79 124) translate(133)"/>
                    <path fill="#BB6A00" d="M10.153 16.748c-3.096 0-5.904-1.82-7.172-4.653-1.27-2.832-.763-6.147 1.293-8.468C2.091 5.57 1.162 8.57 1.862 11.413c.7 2.844 2.914 5.063 5.75 5.765 2.834.701 5.823-.231 7.762-2.422-1.437 1.285-3.296 1.994-5.221 1.992z" transform="translate(-79 -124) translate(79 124) translate(133)"/>
                </g>
            </g>
        </g>
    </g>
</svg>
