<svg xmlns="http://www.w3.org/2000/svg" xmlns:xlink="http://www.w3.org/1999/xlink" width="201" height="172" viewBox="0 0 201 172">
    <defs>
        <path id="jll7oq757a" d="M0.049 0.224L13.769 0.224 13.769 11.815 0.049 11.815z"/>
        <path id="h4dy0g3spc" d="M0 171L200.764 171 200.764 0.224 0 0.224z"/>
        <path id="vz9vx6kxhe" d="M20.608 2.373c-3.284.149-8.321 4.081-11.262 7.764-2.94 3.683-6.49 6.29-7.177 10.225-.688 3.934-.155 5.407.057 8.91.212 3.501-2.03 14.657-2.03 14.657s1.776-5.296 3.006-8.307C4.64 32.102 9.4 16.475 14.49 12.556 19.581 8.636 32.745.246 32.745.246c-2.195.775-8.853 1.98-12.137 2.127"/>
        <path id="35crib2ejh" d="M19.798 4.814c-1.394.483-2.8.97-4.08 1.735-1.562.934-2.882 2.25-4.178 3.556-3.764 3.793-6.886 8.22-8.417 13.39-1.203 4.062-1.32 2.128-2.471 5.991-.53 1.779-.663 3.66-.53 5.496 2.806-6.503 6.693-12.528 11.432-17.718 1.14-1.25 2.338-2.457 3.7-3.434.862-.619 1.784-1.14 2.63-1.78.935-.708 1.766-1.552 2.592-2.392L29.744.242c-4.1 1.418-5.847 3.156-9.946 4.572"/>
        <path id="8iphjrvv0k" d="M11.162 12.66c.295.766.477 1.605 1.012 2.228.318.37.737.635 1.11.947 1.85 1.543 2.455 4.075 3.715 6.122 1.698 2.755 4.535 4.56 6.324 7.244 1.488 2.232 2.342 4.98 3.397 7.417.42-3.113-.337-6.17-1.122-9.165l-1.271-4.855c-.202-.77-.405-1.543-.737-2.266-.41-.894-1.007-1.69-1.632-2.45-1-1.217-2.082-2.365-3.225-3.45-.78-.742-1.596-1.463-2.205-2.348-.436-.633-.756-1.336-1.169-1.983-1.47-2.303-3.978-3.707-6.383-5.017L.164.282C1.796 5.636 9.141 7.44 11.162 12.661"/>
        <path id="t7wbsss8xn" d="M8.122 8.856c-1.782 2.399-3.625 4.941-4.129 8.068-.141.878-.172 1.783-.34 2.653-.235 1.22-.732 2.34-1.187 3.467-.665 1.65-1.25 3.348-1.728 5.088-.3 1.088-.558 2.203-.6 3.352-.035.931.074 1.867.182 2.796L1 40.15c.422 3.62.892 7.298 2.508 10.573.055-3.11-.204-6.485.344-9.54.66-3.673 2.66-6.79 3.203-10.506.403-2.76-.007-5.798 1.153-8.233.235-.493.531-.952.69-1.486.267-.9.112-1.9.096-2.862C8.883 11.526 15.183 6.63 14.649.068L8.122 8.856"/>
        <path id="gde0kjxlhq" d="M10.783.665c-2.493.527-5.079 1.151-7.026 2.777C2.02 4.891.987 6.977 0 9c5.069-2.754 10.53-4.802 16.172-6.067 2.239-.502 6.493-.796 8.733-.372-2.595-.95-7.544-.688-9.183-1.327-.544-.212-1.048-.524-1.607-.695-.39-.12-.792-.166-1.197-.166-.712 0-1.435.144-2.135.292"/>
        <path id="opasu156ut" d="M.403 1.358c1.503.41 3.108.333 4.645.612 2.787.506 5.22 2.175 6.99 4.247 1.769 2.072 2.936 4.533 3.907 7.022 3.923 10.056 4.891 16.981 5.825 27.648-.142-1.629.333-3.7.41-5.375.076-1.641.293-3.284.41-4.924.283-4 .44-8.017.134-12.02-.347-4.556-1.288-5.161-2.226-9.645-.354-1.693-.735-3.444-1.806-4.852-1.123-1.476-2.895-2.414-4.717-3.036C11.95.345 9.795 0 7.64 0 5.16 0 2.684.454.403 1.358"/>
        <path id="mkk60ofduw" d="M8.203.91c-1.039.189-2.133.094-3.217 0C3.362.768 1.762.626.414 1.438c4.355.545 8.118 3.13 11.68 5.635.387.271.778.547 1.085.904 1.556 1.808 3.773 10.718 4.686 12.817-.068-3.785-1.552-13.492-2.55-17.141C15.027 2.602 13.297 1.019 12.3.53c-.35-.172-.716-.237-1.093-.237-.972 0-2.01.437-3.005.617"/>
        <path id="n9d3y464gz" d="M9.498.341C8.307.807 7.49 1.913 6.373 2.533c-1.145.636-2.539.727-3.668 1.39C.616 5.148.057 7.896.084 10.307c.042 3.782.994 7.642.002 11.295 1.796-1.342 1.605-4 2.037-6.193.869-4.415 4.837-7.645 9.051-9.286 1.396-.543 2.85-.96 4.16-1.686 1.261-.7 4.959-2.94 7.515-1.816C21.42.454 18.999.647 17.289.841c-.525.059-.985.119-1.326.109-1.695-.047-3.41-.861-5.045-.861-.48 0-.956.07-1.42.252"/>
        <path id="akub631aaC" d="M11.788.936c-2.241.783-5.027.1-5.027.1-1.214 1.558-2.95 2.436-4.183 3.987C.173 8.046-.61 15.875 1.322 20.918c.13-1.074 1.601-4.975 2.368-5.777 1.169-1.223 2.972-4.638 4.33-5.573 3.113-2.144 8.606-4.689 13.27-4.676 2.057.005-1.226-1.029-2.238-2.336-.754-.975-3.316-2.393-4.408-2.464-.052-.003-.103-.005-.155-.005-.934 0-1.804.535-2.7.849"/>
        <path id="rmpweu1opF" d="M5.582 2C3.967 2.951 2.343 3.902.558 3.96c5.07.015 9.502 3.254 14.353 4.69 4.895 1.451 9.03 4.39 12.687 8.205-1.572-3.802-3.4-7.73-6.149-10.725-1.882-2.051-4.3-3.387-6.67-4.687C13.669.836 12.53.218 11.308.073c-.198-.024-.393-.036-.587-.036C8.905.037 7.248 1.02 5.58 2M.3 3.961c.086.002.172 0 .258-.002H.52c-.073 0-.147 0-.22.002"/>
        <path id="u1g07lrpxI" d="M0.265 0.032L2.444 0.032 2.444 3.946 0.265 3.946z"/>
        <path id="03z3hew3mK" d="M0 171L200.764 171 200.764 0.224 0 0.224z"/>
        <linearGradient id="synpvci41f" x1="67.509%" x2="26.288%" y1="55.794%" y2="42.153%">
            <stop offset="0%" stop-color="#00C3B6"/>
            <stop offset="100%" stop-color="#A3F4C3"/>
        </linearGradient>
        <linearGradient id="b6ip35elmi" x1="74.248%" x2="23.862%" y1="56.84%" y2="42.592%">
            <stop offset="0%" stop-color="#005D72"/>
            <stop offset="100%" stop-color="#2B93A3"/>
        </linearGradient>
        <linearGradient id="aj7sc9lz9l" x1="76.952%" x2="23.047%" y1="50.003%" y2="49.996%">
            <stop offset="0%" stop-color="#00C3B6"/>
            <stop offset="100%" stop-color="#A3F4C3"/>
        </linearGradient>
        <linearGradient id="mjll4a7ppo" x1="43.704%" x2="58.127%" y1="60.454%" y2="39.638%">
            <stop offset="0%" stop-color="#00C3B6"/>
            <stop offset="100%" stop-color="#A3F4C3"/>
        </linearGradient>
        <linearGradient id="8xmkv237xr" x1="100.001%" x2="0%" y1="49.996%" y2="49.996%">
            <stop offset="0%" stop-color="#00C3B6"/>
            <stop offset="100%" stop-color="#A3F4C3"/>
        </linearGradient>
        <linearGradient id="uvr16av90u" x1="63.069%" x2="46.907%" y1="108.7%" y2="2.451%">
            <stop offset="0%" stop-color="#005D72"/>
            <stop offset="100%" stop-color="#2B93A3"/>
        </linearGradient>
        <linearGradient id="uw2h7vt43x" x1="100.001%" x2=".001%" y1="50%" y2="50%">
            <stop offset="0%" stop-color="#005D72"/>
            <stop offset="100%" stop-color="#2B93A3"/>
        </linearGradient>
        <linearGradient id="l7a0amiy7A" x1="100.001%" x2=".001%" y1="49.999%" y2="49.999%">
            <stop offset="0%" stop-color="#00C3B6"/>
            <stop offset="100%" stop-color="#A3F4C3"/>
        </linearGradient>
        <linearGradient id="nkrucgayaD" x1="101.899%" x2="-1.817%" y1="43.328%" y2="53.675%">
            <stop offset="0%" stop-color="#005D72"/>
            <stop offset="100%" stop-color="#2B93A3"/>
        </linearGradient>
        <linearGradient id="dsx2k7wkuG" x1="96.486%" x2="2.393%" y1="48.353%" y2="53.919%">
            <stop offset="0%" stop-color="#00C3B6"/>
            <stop offset="100%" stop-color="#A3F4C3"/>
        </linearGradient>
    </defs>
    <g fill="none" fill-rule="evenodd">
        <g>
            <g>
                <g transform="translate(-80 -184) translate(80 184)">
                    <path fill="#B38367" d="M153.48 170.787H51.724c-2.442 0-4.421-1.986-4.421-4.437V19.907c0-2.451 1.98-4.437 4.421-4.437h101.758c2.442 0 4.422 1.986 4.422 4.437V166.35c0 2.45-1.98 4.437-4.422 4.437"/>
                    <path fill="#C7C7C7" d="M150.384 167.079H54.821c-.761 0-1.378-.619-1.378-1.382V28.322c0-.764.617-1.382 1.378-1.382h95.563c.76 0 1.377.618 1.377 1.382v137.375c0 .763-.616 1.382-1.377 1.382"/>
                    <path fill="#FFF" d="M150.384 164.275H54.821c-.761 0-1.378-.62-1.378-1.383V25.518c0-.764.617-1.382 1.378-1.382h95.563c.76 0 1.377.618 1.377 1.382v137.374c0 .764-.616 1.383-1.377 1.383"/>
                    <path fill="#C7C7C7" d="M125.106 15.468l1.926 10.619c.267 1.47-.86 2.826-2.354 2.826H80.523c-1.49 0-2.617-1.357-2.35-2.826l1.925-10.619h45.008z"/>
                    <path fill="#FEB200" d="M124.68 26.94H80.525c-1.49 0-2.617-1.355-2.35-2.827l2.659-14.666c.207-1.14 1.196-1.969 2.35-1.969h38.838c1.155 0 2.144.829 2.35 1.969l2.66 14.666c.267 1.472-.86 2.827-2.35 2.827"/>
                    <path fill="#C7C7C7" d="M125.123 13.59H80.082l-1.909 10.523c-.267 1.472.86 2.827 2.351 2.827h44.156c1.49 0 2.618-1.355 2.35-2.827l-1.907-10.523z"/>
                    <path fill="#C7C7C7" d="M131.028 30.396H74.177c-1.16 0-2.1-.943-2.1-2.107v-9.803c0-1.163.94-2.106 2.1-2.106h56.85c1.16 0 2.1.943 2.1 2.106v9.803c0 1.164-.94 2.107-2.1 2.107"/>
                    <path fill="#FEB200" d="M131.028 28.913H74.177c-1.16 0-2.1-.943-2.1-2.107v-9.803c0-1.163.94-2.106 2.1-2.106h56.85c1.16 0 2.1.943 2.1 2.106v9.803c0 1.164-.94 2.107-2.1 2.107"/>
                    <g transform="translate(95.693)">
                        <mask id="wshxve7gab" fill="#fff">
                            <use xlink:href="#jll7oq757a"/>
                        </mask>
                        <path fill="#FEB200" d="M6.909 3.805c1.01 0 1.83.822 1.83 1.837 0 1.014-.82 1.836-1.83 1.836-1.01 0-1.83-.822-1.83-1.836 0-1.015.82-1.837 1.83-1.837zm6.86 8.01V7.108c0-3.802-3.072-6.884-6.86-6.884C3.12.224.049 3.306.049 7.108v4.707h13.72z" mask="url(#wshxve7gab)"/>
                    </g>
                    <mask id="r1xhon5hqd" fill="#fff">
                        <use xlink:href="#h4dy0g3spc"/>
                    </mask>
                    <path fill="#CFDEEE" d="M80.997 43.798L125.521 43.798 125.521 36.46 80.997 36.46z" mask="url(#r1xhon5hqd)"/>
                </g>
                <g transform="translate(-80 -184) translate(80 184) translate(32 114)">
                    <mask id="s84pvy6aeg" fill="#fff">
                        <use xlink:href="#vz9vx6kxhe"/>
                    </mask>
                    <path fill="url(#synpvci41f)" d="M20.608 2.373c-3.284.149-8.321 4.081-11.262 7.764-2.94 3.683-6.49 6.29-7.177 10.225-.688 3.934-.155 5.407.057 8.91.212 3.501-2.03 14.657-2.03 14.657s1.776-5.296 3.006-8.307C4.64 32.102 9.4 16.475 14.49 12.556 19.581 8.636 32.745.246 32.745.246c-2.195.775-8.853 1.98-12.137 2.127" mask="url(#s84pvy6aeg)"/>
                </g>
                <g transform="translate(-80 -184) translate(80 184) translate(35 115)">
                    <mask id="brwon9mcej" fill="#fff">
                        <use xlink:href="#35crib2ejh"/>
                    </mask>
                    <path fill="url(#b6ip35elmi)" d="M19.798 4.814c-1.394.483-2.8.97-4.08 1.735-1.562.934-2.882 2.25-4.178 3.556-3.764 3.793-6.886 8.22-8.417 13.39-1.203 4.062-1.32 2.128-2.471 5.991-.53 1.779-.663 3.66-.53 5.496 2.806-6.503 6.693-12.528 11.432-17.718 1.14-1.25 2.338-2.457 3.7-3.434.862-.619 1.784-1.14 2.63-1.78.935-.708 1.766-1.552 2.592-2.392L29.744.242c-4.1 1.418-5.847 3.156-9.946 4.572" mask="url(#brwon9mcej)"/>
                </g>
                <g transform="translate(-80 -184) translate(80 184) translate(6 121)">
                    <mask id="j9g1fejy0m" fill="#fff">
                        <use xlink:href="#8iphjrvv0k"/>
                    </mask>
                    <path fill="url(#aj7sc9lz9l)" d="M11.162 12.66c.295.766.477 1.605 1.012 2.228.318.37.737.635 1.11.947 1.85 1.543 2.455 4.075 3.715 6.122 1.698 2.755 4.535 4.56 6.324 7.244 1.488 2.232 2.342 4.98 3.397 7.417.42-3.113-.337-6.17-1.122-9.165l-1.271-4.855c-.202-.77-.405-1.543-.737-2.266-.41-.894-1.007-1.69-1.632-2.45-1-1.217-2.082-2.365-3.225-3.45-.78-.742-1.596-1.463-2.205-2.348-.436-.633-.756-1.336-1.169-1.983-1.47-2.303-3.978-3.707-6.383-5.017L.164.282C1.796 5.636 9.141 7.44 11.162 12.661" mask="url(#j9g1fejy0m)"/>
                </g>
                <g transform="translate(-80 -184) translate(80 184) translate(32 97)">
                    <mask id="x7lh51v3wp" fill="#fff">
                        <use xlink:href="#t7wbsss8xn"/>
                    </mask>
                    <path fill="url(#mjll4a7ppo)" d="M8.122 8.856c-1.782 2.399-3.625 4.941-4.129 8.068-.141.878-.172 1.783-.34 2.653-.235 1.22-.732 2.34-1.187 3.467-.665 1.65-1.25 3.348-1.728 5.088-.3 1.088-.558 2.203-.6 3.352-.035.931.074 1.867.182 2.796L1 40.15c.422 3.62.892 7.298 2.508 10.573.055-3.11-.204-6.485.344-9.54.66-3.673 2.66-6.79 3.203-10.506.403-2.76-.007-5.798 1.153-8.233.235-.493.531-.952.69-1.486.267-.9.112-1.9.096-2.862C8.883 11.526 15.183 6.63 14.649.068L8.122 8.856" mask="url(#x7lh51v3wp)"/>
                </g>
                <g transform="translate(-80 -184) translate(80 184) translate(0 116)">
                    <mask id="1676qjjmfs" fill="#fff">
                        <use xlink:href="#gde0kjxlhq"/>
                    </mask>
                    <path fill="url(#8xmkv237xr)" d="M10.783.665c-2.493.527-5.079 1.151-7.026 2.777C2.02 4.891.987 6.977 0 9c5.069-2.754 10.53-4.802 16.172-6.067 2.239-.502 6.493-.796 8.733-.372-2.595-.95-7.544-.688-9.183-1.327-.544-.212-1.048-.524-1.607-.695-.39-.12-.792-.166-1.197-.166-.712 0-1.435.144-2.135.292" mask="url(#1676qjjmfs)"/>
                </g>
                <g transform="translate(-80 -184) translate(80 184) translate(13 118)">
                    <mask id="3sc0ki5lav" fill="#fff">
                        <use xlink:href="#opasu156ut"/>
                    </mask>
                    <path fill="url(#uvr16av90u)" d="M.403 1.358c1.503.41 3.108.333 4.645.612 2.787.506 5.22 2.175 6.99 4.247 1.769 2.072 2.936 4.533 3.907 7.022 3.923 10.056 4.891 16.981 5.825 27.648-.142-1.629.333-3.7.41-5.375.076-1.641.293-3.284.41-4.924.283-4 .44-8.017.134-12.02-.347-4.556-1.288-5.161-2.226-9.645-.354-1.693-.735-3.444-1.806-4.852-1.123-1.476-2.895-2.414-4.717-3.036C11.95.345 9.795 0 7.64 0 5.16 0 2.684.454.403 1.358" mask="url(#3sc0ki5lav)"/>
                </g>
                <g transform="translate(-80 -184) translate(80 184) translate(17 137)">
                    <mask id="r31e6s7c5y" fill="#fff">
                        <use xlink:href="#mkk60ofduw"/>
                    </mask>
                    <path fill="url(#uw2h7vt43x)" d="M8.203.91c-1.039.189-2.133.094-3.217 0C3.362.768 1.762.626.414 1.438c4.355.545 8.118 3.13 11.68 5.635.387.271.778.547 1.085.904 1.556 1.808 3.773 10.718 4.686 12.817-.068-3.785-1.552-13.492-2.55-17.141C15.027 2.602 13.297 1.019 12.3.53c-.35-.172-.716-.237-1.093-.237-.972 0-2.01.437-3.005.617" mask="url(#r31e6s7c5y)"/>
                </g>
                <g transform="translate(-80 -184) translate(80 184) translate(7 136)">
                    <mask id="pjnz7fw6kB" fill="#fff">
                        <use xlink:href="#n9d3y464gz"/>
                    </mask>
                    <path fill="url(#l7a0amiy7A)" d="M9.498.341C8.307.807 7.49 1.913 6.373 2.533c-1.145.636-2.539.727-3.668 1.39C.616 5.148.057 7.896.084 10.307c.042 3.782.994 7.642.002 11.295 1.796-1.342 1.605-4 2.037-6.193.869-4.415 4.837-7.645 9.051-9.286 1.396-.543 2.85-.96 4.16-1.686 1.261-.7 4.959-2.94 7.515-1.816C21.42.454 18.999.647 17.289.841c-.525.059-.985.119-1.326.109-1.695-.047-3.41-.861-5.045-.861-.48 0-.956.07-1.42.252" mask="url(#pjnz7fw6kB)"/>
                </g>
                <g transform="translate(-80 -184) translate(80 184) translate(34 138)">
                    <mask id="dlxzoarpuE" fill="#fff">
                        <use xlink:href="#akub631aaC"/>
                    </mask>
                    <path fill="url(#nkrucgayaD)" d="M11.788.936c-2.241.783-5.027.1-5.027.1-1.214 1.558-2.95 2.436-4.183 3.987C.173 8.046-.61 15.875 1.322 20.918c.13-1.074 1.601-4.975 2.368-5.777 1.169-1.223 2.972-4.638 4.33-5.573 3.113-2.144 8.606-4.689 13.27-4.676 2.057.005-1.226-1.029-2.238-2.336-.754-.975-3.316-2.393-4.408-2.464-.052-.003-.103-.005-.155-.005-.934 0-1.804.535-2.7.849" mask="url(#dlxzoarpuE)"/>
                </g>
                <g transform="translate(-80 -184) translate(80 184) translate(40 136)">
                    <mask id="m5w04un2wH" fill="#fff">
                        <use xlink:href="#rmpweu1opF"/>
                    </mask>
                    <path fill="url(#dsx2k7wkuG)" d="M5.582 2C3.967 2.951 2.343 3.902.558 3.96c5.07.015 9.502 3.254 14.353 4.69 4.895 1.451 9.03 4.39 12.687 8.205-1.572-3.802-3.4-7.73-6.149-10.725-1.882-2.051-4.3-3.387-6.67-4.687C13.669.836 12.53.218 11.308.073c-.198-.024-.393-.036-.587-.036C8.905.037 7.248 1.02 5.58 2M.3 3.961c.086.002.172 0 .258-.002H.52c-.073 0-.147 0-.22.002" mask="url(#m5w04un2wH)"/>
                </g>
                <g transform="translate(-80 -184) translate(80 184)">
                    <path fill="#D1D3D4" d="M39.83 170.84H28.58c-.28 0-.522-.201-.574-.478l-3.158-16.915c-.067-.36.208-.694.574-.694h17.565c.365 0 .641.333.574.694l-3.159 16.915c-.051.277-.292.477-.573.477"/>
                    <path fill="#133A50" d="M197.677 87.319c-.842-.378-.09-2.38-.932-2.77-.066.154-2.033 2.942-2.082 3.07 0 0-1.321 2.358-2.698 4.342-1.378 1.984-4.824 6.936-4.824 6.936s-.624.756.707 2.006c1.33 1.252 2.118.743 2.118.743s8.55-9.483 9.895-11.057c.278-.326.788-1.847.838-2.116-.97-.473-2.038-.711-3.022-1.154"/>
                    <g transform="translate(163.859 167.054)">
                        <mask id="jliltramuJ" fill="#fff">
                            <use xlink:href="#u1g07lrpxI"/>
                        </mask>
                        <path fill="#1EADF9" d="M1.355 3.946c-.272 0-.503-.198-.546-.467L.265.032h2.18L1.9 3.48c-.042.269-.274.467-.545.467" mask="url(#jliltramuJ)"/>
                    </g>
                    <path fill="#F7D8BA" d="M166.88 156.636L163.601 156.636 164.824 167.743 165.657 167.743z"/>
                    <path fill="#F8ECD5" d="M163.601 156.636L161.649 160.702 164.265 167.743 164.824 167.743z"/>
                    <path fill="#DEB995" d="M168.832 160.702L166.88 156.636 165.657 167.743 166.217 167.743z"/>
                    <path fill="#1EADF9" d="M166.88 110.48h-3.279v48.577c0 .909.734 1.645 1.64 1.645.905 0 1.64-.736 1.64-1.645V110.48z"/>
                    <path fill="#3FB9F9" d="M163.601 110.48h-1.952v50.222c1.078 0 1.952-.877 1.952-1.958V110.48z"/>
                    <path fill="#008ED8" d="M168.832 110.48h-1.952v48.264c0 1.081.874 1.958 1.952 1.958V110.48z"/>
                    <mask id="4uy4npl1mL" fill="#fff">
                        <use xlink:href="#03z3hew3mK"/>
                    </mask>
                    <path fill="#FFC755" d="M163.601 110.48L166.88 110.48 166.88 105.59 163.601 105.59z" mask="url(#4uy4npl1mL)"/>
                    <path fill="#FDD952" d="M161.649 110.48L163.601 110.48 163.601 105.59 161.649 105.59z" mask="url(#4uy4npl1mL)"/>
                    <path fill="#DEAD4A" d="M166.88 110.48L168.832 110.48 168.832 105.59 166.88 105.59z" mask="url(#4uy4npl1mL)"/>
                    <path fill="#DE7CAC" d="M163.601 105.59L163.601 97.703 166.88 97.704 166.88 105.59z" mask="url(#4uy4npl1mL)"/>
                    <path fill="#E3A4BC" d="M161.65 105.59v-5.928c0-1.082.873-1.959 1.951-1.959v7.887h-1.952z" mask="url(#4uy4npl1mL)"/>
                    <path fill="#C13A76" d="M166.88 105.59v-7.886c1.078 0 1.952.876 1.952 1.958v5.928h-1.952z" mask="url(#4uy4npl1mL)"/>
                    <path fill="#FEDBAD" d="M167.033 93.733s-1.843 1.256-2.574 1.664c-.73.408-2.152 1.264-2.396 1.59-.244.326-1.056 1.793-1.015 2.12.04.325-.002 1.67-.002 1.67.185.081.448.081.672-.123.224-.203.325-.855.325-.855s.337-.877.392-.998c.055-.123 1.557-.72 1.74-.72 0 0-.508.597-.61.72-.1.121-.324.672-.405.835-.082.163.122.244.304.326.183.082.833-.388 1.178-.673.345-.285 1.3-.55 1.645-.774.345-.224.487-.886.832-1.238.346-.352 1.24-1.452 2.174-2.063.934-.612 2.755-1.264 3.895-2.018l-6.155.537z" mask="url(#4uy4npl1mL)"/>
                    <path fill="#1C295E" d="M190.861 54.113c-.519-.369-3.155-.847-4.918.018-3.372 1.656-2.367 7.19-2.289 8.45.08 1.261-1.279 3.384-1.403 4.868-.125 1.483.174 2.054 1.137 3.597.286.457.3 1.185.3 1.185s1.397-1.71 1.905-4.234c.508-2.522.99-1.875 2.532-4.55s2.006-6.885 2.006-6.885l.73-2.449z" mask="url(#4uy4npl1mL)"/>
                    <path fill="#1C295E" d="M188.038 55.68l2.823-1.567s2.29-.083 3.407 2.063c1.116 2.146.39 5.03.473 7.254.082 2.223 2.229 4.8 2.017 6.432-.211 1.631-3.091 3.369-3.091 3.369l-6.367-3.535s1.126-3.43.764-7.24c-.363-3.808-.026-6.775-.026-6.775" mask="url(#4uy4npl1mL)"/>
                    <path fill="#FEDBAD" d="M185.77 56.022c-.218.817-1.096 3.193-1.312 4.75-.216 1.558-.28 4.154.684 4.965.964.813 2.957.434 4.433-.016s1.916-1.416 2.282-2.307c.366-.891.504-3.339.35-5.117-.155-1.78-1.192-2.591-2.45-2.957-1.257-.366-3.987.682-3.987.682" mask="url(#4uy4npl1mL)"/>
                    <path fill="#FEDBAD" d="M189.79 63.008s-.119 3.56.722 5.181c.58 1.12 2.684 1.482 2.684 1.482s.267 3.18-1.631 6.378c-1.899 3.2-8.34 4.726-8.34 4.726s-1.424-2.49-2.267-5.325c-.843-2.836-.453-4.782-.453-4.782s3.022-1.068 3.847-1.438c2.005-.897 1.57-4.154 1.57-4.154l3.869-2.068z" mask="url(#4uy4npl1mL)"/>
                    <path fill="#1C295E" d="M189.628 55.285c-.867-.006-1.757 1.394-3.348 2.095-1.591.7-2.472.704-2.472.704l.928-2.805s2.133-1.042 3.536-.774c1.402.267 1.356.78 1.356.78" mask="url(#4uy4npl1mL)"/>
                    <path fill="#753B32" d="M191.497 69.027c-.587.3-.437 2.637-.434 4.567 0 0 1.123-2.213 2.503-3.349.914-.752-.454-3.658-.454-3.658l-1.615 2.44z" mask="url(#4uy4npl1mL)"/>
                    <path fill="#FEDBAD" d="M185.707 102.751c.522 5.417 2.055 19.398 2.925 24.466.872 5.067 1.951 25.863 2.126 28.485.174 2.62-.175 9.262-.871 10.31-.697 1.049-1.744 4.2-1.744 4.2l5.433.411s-.507-4.087.19-10.378c.696-6.291 2.39-16.865 1.694-25.384-.697-8.518.87-19.57 1.393-25.053.522-5.484-1.648-12.3-1.648-12.3l-9.498 5.243z" mask="url(#4uy4npl1mL)"/>
                    <path fill="#FEDBAD" d="M178.058 102.751c.522 5.417-.08 19.398.79 24.466.871 5.067 2.439 25.863 2.613 28.485.174 2.62-.174 9.262-.87 10.31-.698 1.049-4.228 4.2-4.228 4.2l3.257-.527 2.52-1.265 2.329.737s-.697-2.62 0-8.912c.696-6.291 2.018-14.333 1.644-25.384-.29-8.542 2.568-19.57 3.09-25.053.523-5.484 0-12.3 0-12.3l-11.145 5.243z" mask="url(#4uy4npl1mL)"/>
                    <path fill="#FEC4AD" d="M178.981 87.627L196.243 83.446 196.243 70.578 191.01 68.689 182.925 69.4 181.285 70.692z" mask="url(#4uy4npl1mL)"/>
                    <path fill="#E9F2F4" d="M192.599 71.148L191.4 68.609 187.709 69.623 184.414 68.609 183.423 68.855 182.444 72.991 184.992 87.955 191.349 77.214z" mask="url(#4uy4npl1mL)"/>
                    <path fill="#501313" d="M175.78 86.312s-2.548 3.011-4.927 4.68c-2.379 1.668-5.111 3.66-5.111 3.66 1.031.741 2.75 3.49 2.75 3.49s6.85-4.538 8.724-5.648c2.034-1.206 3.677-3.407 3.677-3.407l-.478-5.641-4.636 2.866z" mask="url(#4uy4npl1mL)"/>
                    <path fill="#501313" d="M174.468 88.944c.149-1.092 1.334-4.887 2.199-9.295.55-2.8 1.06-5.601 1.84-6.866.782-1.266 2.07-2.693 2.07-2.693l1.158 6.6s-.893 8.376-2.166 10.298c-.436.659-1.765 1.15-2.192 1.592-.103-.502-2.394 2.286-2.909.364M178.04 100.315c-.231.91-.49 1.867-.78 2.88-2.706 9.452 1.277 24.517 1.277 24.517 3.074 1.123 3.88 1.675 9.299 1.121 2.45-.25 4.515-.4 7.588-1.523 0 0 2.174-4.427 2.136-18.577-.008-2.937-.54-5.695-1.108-8.418H178.04z" mask="url(#4uy4npl1mL)"/>
                    <path fill="#671818" d="M179.213 85.923c.664 2.798-1.644 13.586-1.996 16.045 0 0 3.648 1.812 7.805 1.63 10.564-.463 12.538-.143 12.538-.143-.428-2.927-2.68-13.687-1.857-16.929 1.036-4.076 2.542-8.998 2.542-8.998s-.5-5.937-.835-6.975l-5.53-1.836-7.317 14.59-2.396-14.174-1.59.957c-.336 1.037-1.386 5.21-2.065 7.44-.33 1.084-.67 2.577-.395 4.487.195 1.344.694 2.215 1.096 3.906" mask="url(#4uy4npl1mL)"/>
                    <path fill="#501313" d="M191.4 68.609l1.8.602-.748 4.343-1.734-.374-.01 2.577c-3.338 1.427-6.272 7.689-6.272 7.689s2.24-6.4 3.288-8.396c2.766-5.274 3.676-6.441 3.676-6.441" mask="url(#4uy4npl1mL)"/>
                    <path fill="#501313" d="M183.712 68.783l-1.545.35-1.274 3.597 1.394-.192-.938 2.866c1.873 1.742 3.187 8.041 3.187 8.041s-.224-5.413-.492-8.544c-.452-5.25-.332-6.118-.332-6.118" mask="url(#4uy4npl1mL)"/>
                    <path fill="#AEBFDE" d="M186.592 69.252s-.548-.232-1.186-1.424l-.992.78 1.189 3.478.989-2.834zM186.592 69.252s2.77-.232 3.686-1.424l1.122.78-3.206 3.411-1.602-2.767z" mask="url(#4uy4npl1mL)"/>
                    <path fill="#133A50" d="M189.958 165.575c.87-.175 1.18.175 1.963.7.784.523 1.654.523 1.654.523v3.825h-6.055l2.438-5.048zM180.59 166.012s.088.818 1.394 1.187c1.307.37 2.195-.713 2.195-.713l.29 4.074h-1.675l-.217-1.176-1.166 1.24h-7.263l3.769-1.878 2.673-2.734z" mask="url(#4uy4npl1mL)"/>
                    <path fill="#1C295E" d="M189.628 55.285c.444.072.568 2.223.499 3.41-.07 1.186 1.603 2.29.572 4.815-1.03 2.525-1.168 5.047-2.488 7.795s1.295 3.49 1.763 4.525c0 0 .94-2.587 2.062-3.504 2.672-2.183 1.81-4.498 1.81-4.498s-1.374-3.064-1.086-4.844c.29-1.78.87-4.486-.392-6.26-1.263-1.775-2.74-1.439-2.74-1.439" mask="url(#4uy4npl1mL)"/>
                    <path fill="#E4BB31" fill-rule="nonzero" d="M186.138 60.835L187 62.835 186 62.816z" mask="url(#4uy4npl1mL)" transform="matrix(-1 0 0 1 373 0)"/>
                    <path fill="#0D0B6D" fill-rule="nonzero" d="M188.998 60.593c-.02.275-.26.49-.536.48-.276-.011-.482-.243-.46-.52.02-.275.26-.49.536-.48.275.01.482.243.46.52" mask="url(#4uy4npl1mL)" transform="matrix(-1 0 0 1 377 0)"/>
                    <path fill="#0D0B6D" fill-rule="nonzero" d="M185.999 60.52c-.022.275-.262.49-.537.48-.276-.011-.48-.243-.46-.52.02-.275.26-.49.536-.48.275.01.482.243.46.52" mask="url(#4uy4npl1mL)" transform="matrix(-1 0 0 1 371 0)"/>
                    <path stroke="#1C295E" stroke-width=".25" d="M187.617 64.565s-.616.25-1.617-.545" mask="url(#4uy4npl1mL)" transform="matrix(-1 0 0 1 373.617 0)"/>
                    <path fill="#FEDBAD" d="M190.8 61.102s.885-.801 1.4-.615c.516.186.472.983.007 1.595-.466.612-1.99.834-1.99.834l.583-1.814z" mask="url(#4uy4npl1mL)"/>
                    <path fill="#501313" d="M196.549 70.553c2.58-.06 3.415 5.387 3.784 9.087.37 3.7.533 6.144.366 8.832-.13 2.07-4.456 5.28-4.456 5.28-.09-2.415.014-5.439.014-5.439-.668-2.325-.588-5.871-2.484-10.03-.782-1.717-.966-7.642 2.776-7.73" mask="url(#4uy4npl1mL)"/>
                </g>
            </g>
        </g>
    </g>
</svg>
