<svg xmlns="http://www.w3.org/2000/svg" xmlns:xlink="http://www.w3.org/1999/xlink" width="161" height="129" viewBox="0 0 161 129">
    <defs>
        <path id="byhnra2kca" d="M8.236 39.595L8.519 0S1.614 4.214 2.897 9.918c.616 2.736 1.63 4.569-.271 6.848-1.9 2.28-2.79 3.758-2.6 6.417.19 2.658 3.253 3.534 2.872 6.572-.38 3.038-2.33 5.292-1.983 7.138.79 4.218 4.373 5.888 4.373 5.888l2.948-3.186z"/>
        <path id="sscyvakd3c" d="M9.025 43.386L9.335 0s-7.567 4.618-6.16 10.868c.675 2.998 1.785 5.007-.299 7.504C.793 20.869-.18 22.49.028 25.402c.208 2.914 3.564 3.874 3.147 7.202-.417 3.329-2.553 5.8-2.174 7.823.865 4.622 4.793 6.451 4.793 6.451l3.23-3.492z"/>
        <path id="jultvprv4e" d="M10.816 51.9V0S2.049 5.349 3.678 12.592c.781 3.472 2.068 5.8-.345 8.693C.92 24.178-.21 26.056.033 29.433c.242 3.376 4.129 4.486 3.645 8.343-.483 3.857-4.208 7.376-2.518 9.063 1.69 1.687 5.552 7.472 5.552 7.472l4.104-2.41z"/>
    </defs>
    <g fill="none" fill-rule="evenodd">
        <g>
            <g>
                <g>
                    <g opacity=".201">
                        <g>
                            <path fill="#425AC2" fill-rule="nonzero" d="M8.236 39.595L8.519 0S1.614 4.214 2.897 9.918c.616 2.736 1.63 4.569-.271 6.848-1.9 2.28-2.79 3.758-2.6 6.417.19 2.658 3.253 3.534 2.872 6.572-.38 3.038-2.33 5.292-1.983 7.138.79 4.218 4.373 5.888 4.373 5.888l2.948-3.186z" transform="translate(-92 -119) translate(92 119) translate(67 17) translate(78.984 51.735)"/>
                            <g transform="translate(-92 -119) translate(92 119) translate(67 17) translate(78.984 51.735)">
                                <mask id="f8qof3gltb" fill="#fff">
                                    <use xlink:href="#byhnra2kca"/>
                                </mask>
                                <g mask="url(#f8qof3gltb)">
                                    <g>
                                        <g>
                                            <path fill="#8EA8DD" fill-rule="nonzero" d="M0 0H9.419V1H0z" transform="translate(4.19 8.123) translate(1.615 .197)"/>
                                        </g>
                                        <g>
                                            <path fill="#8EA8DD" fill-rule="nonzero" d="M0 0H9.419V1H0z" transform="translate(4.19 8.123) translate(.096 13.548)"/>
                                        </g>
                                        <g>
                                            <path fill="#8EA8DD" fill-rule="nonzero" d="M0 0H9.419V1H0z" transform="translate(4.19 8.123) translate(.703 28.111)"/>
                                        </g>
                                    </g>
                                </g>
                            </g>
                        </g>
                    </g>
                    <g opacity=".201">
                        <g>
                            <path fill="#425AC2" fill-rule="nonzero" d="M9.025 43.386L9.335 0s-7.567 4.618-6.16 10.868c.675 2.998 1.785 5.007-.299 7.504C.793 20.869-.18 22.49.028 25.402c.208 2.914 3.564 3.874 3.147 7.202-.417 3.329-2.553 5.8-2.174 7.823.865 4.622 4.793 6.451 4.793 6.451l3.23-3.492z" transform="translate(-92 -119) translate(92 119) translate(67 17) translate(52.19 47.638)"/>
                            <g transform="translate(-92 -119) translate(92 119) translate(67 17) translate(52.19 47.638)">
                                <mask id="uwuhz5hbzd" fill="#fff">
                                    <use xlink:href="#sscyvakd3c"/>
                                </mask>
                                <g mask="url(#uwuhz5hbzd)">
                                    <g>
                                        <g>
                                            <path fill="#8EA8DD" fill-rule="nonzero" d="M0 0H10.321V1H0z" transform="translate(5.176 9.108) translate(1.184 .027)"/>
                                        </g>
                                        <g>
                                            <path fill="#8EA8DD" fill-rule="nonzero" d="M0 0H10.321V1H0z" transform="translate(5.176 9.108) translate(.186 30.613)"/>
                                        </g>
                                    </g>
                                </g>
                            </g>
                        </g>
                    </g>
                    <g fill="#425AC2" fill-rule="nonzero" opacity=".201">
                        <path d="M10.816 51.9V0S2.049 5.349 3.678 12.592c.781 3.472 2.068 5.8-.345 8.693C.92 24.178-.21 26.056.033 29.433c.242 3.376 4.129 4.486 3.645 8.343-.483 3.857-4.208 7.376-2.518 9.063 1.69 1.687 5.552 7.472 5.552 7.472l4.104-2.41z" transform="translate(-92 -119) translate(92 119) translate(67 17) translate(65.008 40.205)"/>
                    </g>
                    <g fill="#0E24A5" fill-rule="nonzero" opacity=".201">
                        <path d="M0 0L18.882 0 15.285 20.65 3.596 20.65z" transform="translate(-92 -119) translate(92 119) translate(67 17) translate(68.794 90.89)"/>
                    </g>
                    <g fill="#F5F0D1" fill-rule="nonzero">
                        <g>
                            <path d="M36.622 51.962c0-8.66 19.855-5.328 26.017-29.978C67.619 2.074 61.973 0 61.973 0H3.108s-6.03 2.174-.667 21.984c6.67 24.65 26.017 21.317 26.017 29.978 0 11.326-18.68 5.33-26.017 29.98-5.857 19.67.667 21.983.667 21.983h58.864s5.645-2.073.665-21.984c-5.493-21.984-26.015-18.653-26.015-29.979z" transform="translate(-92 -119) translate(92 119) translate(67 17) translate(5.652 3.87)"/>
                        </g>
                    </g>
                    <g fill="#5C5313" fill-rule="nonzero">
                        <path d="M69.618 14.971H6.262c-3.458 0-6.261-2.375-6.261-5.302V5.302C.001 2.372 2.805 0 6.262 0h63.356c3.459 0 6.26 2.374 6.26 5.302V9.67c.002 2.926-2.802 5.302-6.26 5.302z" transform="translate(-92 -119) translate(92 119) translate(67 17) translate(.058 .168)"/>
                    </g>
                    <g fill="#E5BB30" fill-rule="nonzero">
                        <path d="M.123 29.887c-.76-2.124 2.203-12.933 3.115-14.905.91-1.972 22.56-15.133 24.23-14.98C29.14.152 49.762 11 52.345 15.55c2.582 4.55 3.076 14.335 3.076 14.335H.123z" transform="translate(-92 -119) translate(92 119) translate(67 17) translate(10.378 67.814)"/>
                    </g>
                    <g fill="#5C5313" fill-rule="nonzero">
                        <path d="M69.618 14.97H6.262C2.804 14.97.001 12.597.001 9.67V5.302C.001 2.372 2.805 0 6.262 0h63.356c3.459 0 6.26 2.373 6.26 5.302v4.367c.002 2.927-2.802 5.301-6.26 5.301z" transform="translate(-92 -119) translate(92 119) translate(67 17) translate(.058 96.835)"/>
                    </g>
                    <g fill="#E5BB30" fill-rule="nonzero">
                        <path d="M16.5 12.924c-1.026 0-8.887-4.323-13.33-7.508C-1.275 2.231-.25.865 1.46.296c1.708-.568 32.016-.34 33.27.911 1.254 1.251-5.81 5.46-8.886 7.622-2.253 1.582-7.408 4.095-9.345 4.095z" transform="translate(-92 -119) translate(92 119) translate(67 17) translate(21.726 36.762)"/>
                    </g>
                    <g transform="translate(-92 -119) translate(92 119) translate(67 17) translate(65.008 40.205)">
                        <mask id="5zzt0t9ngf" fill="#fff">
                            <use xlink:href="#jultvprv4e"/>
                        </mask>
                        <g mask="url(#5zzt0t9ngf)">
                            <g>
                                <g>
                                    <path fill="#8EA8DD" fill-rule="nonzero" d="M0 0H9.419V1H0z" transform="translate(4.437 11.57) translate(2.431 .24)"/>
                                </g>
                                <g>
                                    <path fill="#8EA8DD" fill-rule="nonzero" d="M0 0H9.419V1H0z" transform="translate(4.437 11.57) translate(0 16.473)"/>
                                </g>
                                <g>
                                    <path fill="#8EA8DD" fill-rule="nonzero" d="M0 0H9.419V1H0z" transform="translate(4.437 11.57) translate(2.431 32.858)"/>
                                </g>
                            </g>
                        </g>
                    </g>
                </g>
                <g>
                    <g fill="#E5E7EA" fill-rule="nonzero">
                        <g>
                            <path d="M39.103 34.83v.25c0 2.088-1.618 3.78-3.613 3.78H7.192c-4.365 0-7.724-4.194-7.122-8.893L3.265 3.782C3.542 1.614 5.246 0 7.26 0h8.387c2.013 0 3.718 1.614 3.996 3.782l3.194 26.185c.025.187.042.374.052.56l.017-.003s.592 4.305 6.086 4.305h10.11zM8.976 68.356c0 1.335-1.08 2.417-2.414 2.417s-2.415-1.082-2.415-2.417c0-1.336 1.081-2.418 2.415-2.418.64 0 1.254.254 1.707.708.453.453.707 1.068.707 1.71" transform="translate(-92 -119) translate(92 119) translate(28 35) translate(.05 22.924) translate(.849)"/>
                            <path d="M31.012 68.84H7.148c-.918 0-1.662-.744-1.662-1.664 0-.919.744-1.664 1.662-1.664h23.864c.918 0 1.662.745 1.662 1.664 0 .92-.744 1.665-1.662 1.665" transform="translate(-92 -119) translate(92 119) translate(28 35) translate(.05 22.924) translate(.849)"/>
                            <path d="M17.855 68.049L20.305 68.049 20.305 38.76 17.855 38.76z" transform="translate(-92 -119) translate(92 119) translate(28 35) translate(.05 22.924) translate(.849)"/>
                            <path d="M27.472 38.76L19.08 42.587 10.689 38.76zM19.265 68.84H16.17c-.918 0-1.662-.744-1.662-1.664 0-.919.744-1.664 1.662-1.664h3.096c.918 0 1.662.745 1.662 1.664 0 .92-.744 1.665-1.662 1.665" transform="translate(-92 -119) translate(92 119) translate(28 35) translate(.05 22.924) translate(.849)"/>
                            <path d="M17.233 68.356c0 1.335-1.08 2.417-2.414 2.417-1.333 0-2.414-1.082-2.414-2.417 0-1.336 1.08-2.418 2.414-2.418.64 0 1.254.254 1.707.708.453.453.707 1.068.707 1.71M34.172 68.356c0 1.335-1.081 2.417-2.415 2.417-1.333 0-2.414-1.082-2.414-2.417 0-1.336 1.081-2.418 2.414-2.418.64 0 1.255.254 1.708.708.452.453.707 1.068.707 1.71" transform="translate(-92 -119) translate(92 119) translate(28 35) translate(.05 22.924) translate(.849)"/>
                        </g>
                    </g>
                    <g>
                        <g>
                            <path fill="#19141E" fill-rule="nonzero" d="M10.249 4.585c-5.679.794-3.3 7.343-1.704 10.88 1.873 4.152.233 6.935.233 6.935L0 19.278c3.222-4.103-.336-6.388.54-11.28.785-4.388 5.05-6.368 7.745-6.275 1.154.031 2.286.318 3.317.839.033.016.064.034.095.054C13.364.912 15.657-.034 18.038 0c5.238 0 9.943 4.138 9.943 9.632s-4.246 9.949-9.483 9.949-9.482-4.454-9.482-9.949c-.019-1.76.405-3.495 1.233-5.047z" transform="translate(-92 -119) translate(92 119) translate(28 35) translate(.447) translate(.753)"/>
                            <path fill="#CF3E83" fill-rule="nonzero" d="M19.425 19.843s-1.948.058-2.778-.396l2.674 1.681.104-1.285z" transform="translate(-92 -119) translate(92 119) translate(28 35) translate(.447) translate(.753)"/>
                            <g fill="#FFEDAA" fill-rule="nonzero">
                                <path d="M14.928 5.245c-.292 2.263-1.05 5.451-2.92 6.696-.992.66-2.8.742-4.34.653l-.352 4.382-5.026-2.073s.483-4.836.693-6.688C1.97 7.298.249 6.873.246 5.315.23 4.917.38 4.53.66 4.25c.282-.28.668-.43 1.065-.412 1.56-.001 1.337 1.872 1.337 1.872.186.072.393.073.58.002C5.186 5.647 9.483 4.999 12.405 0c.341 1.683 1.05 3.78 2.523 5.245z" transform="translate(-92 -119) translate(92 119) translate(28 35) translate(.447) translate(.753) translate(11.756 7.248)"/>
                            </g>
                            <path fill="#E4BB31" fill-rule="nonzero" d="M23.658 12.954L24.772 15.66 23.479 15.634z" transform="translate(-92 -119) translate(92 119) translate(28 35) translate(.447) translate(.753)"/>
                            <path fill="#0D0B6D" fill-rule="nonzero" d="M22.471 13.071c-.027.541-.345.963-.709.941-.364-.021-.636-.476-.608-1.017.028-.54.345-.961.709-.941.364.02.636.476.608 1.017M25.888 12.985c-.028.54-.345.962-.71.94-.363-.02-.634-.475-.608-1.016.027-.54.346-.962.71-.941.363.02.636.476.608 1.016" transform="translate(-92 -119) translate(92 119) translate(28 35) translate(.447) translate(.753)"/>
                            <path stroke="#1C295E" d="M23.162 16.93s-.842.272-1.686-.668" transform="translate(-92 -119) translate(92 119) translate(28 35) translate(.447) translate(.753)"/>
                            <path fill="#000" fill-rule="nonzero" d="M19.421 19.843s-1.947.058-2.777-.396l2.674 1.681.103-1.285z" opacity=".403" transform="translate(-92 -119) translate(92 119) translate(28 35) translate(.447) translate(.753)"/>
                        </g>
                        <g>
                            <path fill="#C83820" fill-rule="nonzero" d="M12.35 25.441l-1.041-.015.003-.051c.358.024.705.046 1.037.066" transform="translate(-92 -119) translate(92 119) translate(28 35) translate(.447) translate(0 19.003)"/>
                            <g fill="#FF7861" fill-rule="nonzero">
                                <path d="M33.555 36.734l-3.435.431-5.534-8.665-.202-2.88-8.43-.126-3.596-.053h-.008c-.333-.02-.68-.04-1.038-.066-4.532-.317-10.81-1.2-11.241-3.643-.782-4.425 5.131-13.012 5.83-14.007l.066-.095c.99-1.418 1.988-2.52 2.918-3.107 1.53-.964 3.314-1.447 5.121-1.387L14.437 0l6.581.91-.358 2.606c1.932.185 3.246.564 4.477 1.694 3.95 3.632 4.24 17.234 4.24 17.234l4.178 14.29z" transform="translate(-92 -119) translate(92 119) translate(28 35) translate(.447) translate(0 19.003)"/>
                            </g>
                            <path fill="#C83820" fill-rule="nonzero" d="M15.954 25.494v.06s-1.508.004-3.597-.113l3.597.053z" transform="translate(-92 -119) translate(92 119) translate(28 35) translate(.447) translate(0 19.003)"/>
                            <path stroke="#000" stroke-width="3" d="M24.263 25.583c.483-6.143 3.827-7.443 1.417-14.334" opacity=".201" transform="translate(-92 -119) translate(92 119) translate(28 35) translate(.447) translate(0 19.003)"/>
                            <path fill="#18181C" fill-rule="nonzero" d="M29.952 33.186l-12.565-1.45c-.196-.023-.373-.13-.483-.294-.11-.164-.142-.368-.089-.558l4.965-17.567c.09-.318.397-.523.725-.485l12.566 1.451c.196.023.371.13.48.294.11.164.143.367.09.557l-4.966 17.567c-.09.317-.396.523-.723.485" transform="translate(-92 -119) translate(92 119) translate(28 35) translate(.447) translate(0 19.003)"/>
                            <path fill="#FCBDA4" fill-rule="nonzero" d="M18.793 26.621l.073.02c.975.287 2 .362 3.006.22.798-.106 1.484-.242 1.477-.37-.022-.322-.41-.395-.41-.395l-.744.037-.717-.043s3.295-.624 3.295-.72c-.01-.34-.551-.479-.551-.479s1.133-.18 1.12-.36c-.031-.46-.537-.494-.537-.494s.14-.121.126-.234c-.056-.452-.862-.527-1.245-.582-.567-.002-1.133-.04-1.695-.115-.693-.154-1.368-.38-2.013-.676l2.551-9.027c.09-.317.396-.523.724-.485l12.566 1.451c.196.023.371.13.48.294.11.164.143.367.09.557l-4.966 17.567c-.09.317-.396.523-.723.485l-12.565-1.45c-.196-.022-.373-.13-.483-.294-.11-.164-.142-.368-.089-.558l1.23-4.349z" transform="translate(-92 -119) translate(92 119) translate(28 35) translate(.447) translate(0 19.003)"/>
                            <g fill="#FFEDAA" fill-rule="nonzero">
                                <path d="M19.718 23.112s-.778.66-1.102.648c-3.048-.104-2.884-1.65-2.812-1.843.162-.435.975.062.975.062s-1.564-3.178-1.188-5.403l3.288-.413c.79.93 1.752 2.088 1.892 2.364.243.478.692 2.845.671 3.313-.021.468-1.422 2.57-1.422 2.57-.87-.213-.302-1.298-.302-1.298zM4.252 6.064c-.074-.021-.145-.04-.213-.057-.899-.236-1.3-.28-2.455-.91C1.024 4.772.494 4.4 0 3.981L.833.895 1.982.502C2.448.335 2.927.21 3.415.126 3.98.022 4.53.063 5.115 0l-.332 1.216c-.04.049-.078.1-.112.154.025.02.05.043.077.07.239.217.69.604 2.628 1.089.562.074 1.128.112 1.694.114.384.056 1.19.13 1.246.583.014.112-.127.233-.127.233s.506.035.537.494c.013.18-1.12.36-1.12.36s.542.139.551.48c0 .096-3.294.72-3.294.72l.717.042.745-.036s.388.073.41.395c.007.128-.679.264-1.477.369-.338.046-.679.07-1.02.07-.672-.004-1.34-.101-1.987-.289z" transform="translate(-92 -119) translate(92 119) translate(28 35) translate(.447) translate(0 19.003) translate(14.615 20.577)"/>
                            </g>
                            <path stroke="#000" stroke-width="3" d="M32.016 38.315s.428 1.618 1.896 2.122c.513.176.385 2.257 1.643 2.008" opacity=".148" transform="translate(-92 -119) translate(92 119) translate(28 35) translate(.447) translate(0 19.003)"/>
                            <path fill="#020101" fill-rule="nonzero" d="M23.806 14.555c-.099.31-.31.522-.472.47-.161-.052-.213-.346-.113-.657.1-.31.31-.522.472-.47.161.05.212.345.113.656" transform="translate(-92 -119) translate(92 119) translate(28 35) translate(.447) translate(0 19.003)"/>
                            <path stroke="#000" stroke-width="3" d="M11.149 12.467L7.977 17.727 15.863 20.851" opacity=".2" transform="translate(-92 -119) translate(92 119) translate(28 35) translate(.447) translate(0 19.003)"/>
                        </g>
                        <g fill-rule="nonzero">
                            <g fill="#D6D6D6">
                                <path d="M.505 14.205l3.414 1.587-.388 3.398s7.232 1.9 9.95 4.722L0 23.936l.505-9.731zM15.7.564L19.437 0l1.552 3.06S28.095.64 31.932 1.497l-11.149 7.41L15.7.564z" transform="translate(-92 -119) translate(92 119) translate(28 35) translate(.447) translate(10.994 36.648) translate(26.004 32.99)"/>
                            </g>
                            <g fill="#FFEDAA">
                                <path d="M0 18.737l.11-4.111 3.582 1.425-.03 2.82L0 18.738zM15.812.792L19.599 0l1.534 2.379-3.14 1.917L15.811.792z" transform="translate(-92 -119) translate(92 119) translate(28 35) translate(.447) translate(10.994 36.648) translate(26.236 33.424)"/>
                            </g>
                            <g fill="#054549">
                                <path d="M35.34 30.178l-1.853 20.153H24.9l.38-29.261-16.39.113c-4.675 0-9.198-4.022-8.874-8.695l.51-4.758L25.557.325c4.634-1.05 6.24.337 9.245 5.692l13.264 27.228-7.286 4.877-5.44-7.944z" transform="translate(-92 -119) translate(92 119) translate(28 35) translate(.447) translate(10.994 36.648)"/>
                            </g>
                            <g fill="#18181C" opacity=".15">
                                <path d="M18.758 0L0 11.72l16.39-.112-.38 29.26h8.587L27.54 8.87C28.267 3.045 24.628 0 18.758 0" transform="translate(-92 -119) translate(92 119) translate(28 35) translate(.447) translate(10.994 36.648) translate(8.89 9.463)"/>
                            </g>
                        </g>
                    </g>
                </g>
                <path fill="#E5BB30" fill-rule="nonzero" d="M114 0L113.25 2.25 111 2.25 112.875 3.75 112.125 6 114 4.5 115.875 6 115.125 3.75 117 2.25 114.75 2.25zM155 35L153.5 39.5 149 39.5 152.75 42.5 151.25 47 155 44 158.75 47 157.25 42.5 161 39.5 156.501 39.5zM54 3L52.5 7.5 48 7.5 51.75 10.5 50.25 15 54 12 57.75 15 56.25 10.5 60 7.5 55.501 7.5zM6 63L4.5 67.5 0 67.5 3.75 70.5 2.25 75 6 72 9.75 75 8.25 70.5 12 67.5 7.501 67.5z" transform="translate(-92 -119) translate(92 119)"/>
            </g>
        </g>
    </g>
</svg>
