<svg xmlns="http://www.w3.org/2000/svg" xmlns:xlink="http://www.w3.org/1999/xlink" width="444" height="250" viewBox="0 0 444 250">
    <defs>
        <path id="kigcw8v0ia" d="M0 0H444V250H0z"/>
        <path id="vu2zkxhmxc" d="M7.72 37.279L7.986 0s-6.473 3.967-5.27 9.338c.577 2.576 1.527 4.301-.254 6.448C.68 17.932-.153 19.324.024 21.826c.178 2.503 3.05 3.328 2.693 6.188-.357 2.86-2.184 4.983-1.86 6.721.741 3.971 4.1 5.543 4.1 5.543l2.763-3z"/>
        <path id="km5kwytafe" d="M8.46 40.849L8.75 0S1.657 4.348 2.976 10.232c.633 2.823 1.673 4.714-.28 7.065s-2.865 3.877-2.67 6.62c.196 2.742 3.341 3.646 2.95 6.78-.39 3.134-2.393 5.46-2.038 7.365.812 4.352 4.493 6.074 4.493 6.074l3.029-3.287z"/>
        <path id="l6jlyyaykg" d="M2.216 30.572h17.638l2.202-26.208c.094-1.123-.285-2.233-1.045-3.062C20.251.472 19.18 0 18.057 0H4.013C2.89 0 1.819.473 1.059 1.3c-.76.83-1.139 1.94-1.044 3.063l2.201 26.208z"/>
        <path id="6a61jazw7i" d="M10.138 48.864V0s-8.217 5.036-6.69 11.855c.732 3.27 1.938 5.461-.324 8.185S-.196 24.532.031 27.71c.227 3.179 3.87 4.224 3.417 7.855-.453 3.632-3.945 6.945-2.36 8.533 1.584 1.589 5.204 7.036 5.204 7.036l3.846-2.27z"/>
    </defs>
    <g fill="none" fill-rule="evenodd">
        <g>
            <g transform="translate(42 -51) translate(-42 51)">
                <mask id="x1sa5ygxeb" fill="#fff">
                    <use xlink:href="#kigcw8v0ia"/>
                </mask>
                <g mask="url(#x1sa5ygxeb)">
                    <g>
                        <g>
                            <g opacity=".201">
                                <g>
                                    <path fill="#425AC2" fill-rule="nonzero" d="M7.72 37.279L7.986 0s-6.473 3.967-5.27 9.338c.577 2.576 1.527 4.301-.254 6.448C.68 17.932-.153 19.324.024 21.826c.178 2.503 3.05 3.328 2.693 6.188-.357 2.86-2.184 4.983-1.86 6.721.741 3.971 4.1 5.543 4.1 5.543l2.763-3z" transform="translate(156 48) translate(12.707 .033) translate(92.06 108.27)"/>
                                    <g transform="translate(156 48) translate(12.707 .033) translate(92.06 108.27)">
                                        <mask id="483dc5vqkd" fill="#fff">
                                            <use xlink:href="#vu2zkxhmxc"/>
                                        </mask>
                                        <g mask="url(#483dc5vqkd)">
                                            <g>
                                                <g>
                                                    <path fill="#8EA8DD" fill-rule="nonzero" d="M0 0H8.829V1H0z" transform="translate(3.928 7.648) translate(1.513 .186)"/>
                                                </g>
                                                <g>
                                                    <path fill="#8EA8DD" fill-rule="nonzero" d="M0 0H8.829V1H0z" transform="translate(3.928 7.648) translate(.09 12.755)"/>
                                                </g>
                                                <g>
                                                    <path fill="#8EA8DD" fill-rule="nonzero" d="M0 0H8.829V1H0z" transform="translate(3.928 7.648) translate(.659 26.467)"/>
                                                </g>
                                            </g>
                                        </g>
                                    </g>
                                </g>
                            </g>
                            <g opacity=".201">
                                <g>
                                    <path fill="#425AC2" fill-rule="nonzero" d="M8.46 40.849L8.75 0S1.657 4.348 2.976 10.232c.633 2.823 1.673 4.714-.28 7.065s-2.865 3.877-2.67 6.62c.196 2.742 3.341 3.646 2.95 6.78-.39 3.134-2.393 5.46-2.038 7.365.812 4.352 4.493 6.074 4.493 6.074l3.029-3.287z" transform="translate(156 48) translate(12.707 .033) translate(66.944 104.413)"/>
                                    <g transform="translate(156 48) translate(12.707 .033) translate(66.944 104.413)">
                                        <mask id="pbmpsu7pgf" fill="#fff">
                                            <use xlink:href="#km5kwytafe"/>
                                        </mask>
                                        <g mask="url(#pbmpsu7pgf)">
                                            <g>
                                                <g>
                                                    <path fill="#8EA8DD" fill-rule="nonzero" d="M0 0H9.675V1H0z" transform="translate(4.852 8.575) translate(1.11 .025)"/>
                                                </g>
                                                <g>
                                                    <path fill="#8EA8DD" fill-rule="nonzero" d="M0 0H9.675V1H0z" transform="translate(4.852 8.575) translate(.174 28.823)"/>
                                                </g>
                                            </g>
                                        </g>
                                    </g>
                                </g>
                            </g>
                            <g fill="#425AC2" fill-rule="nonzero" opacity=".201">
                                <path d="M10.138 48.864V0s-8.217 5.036-6.69 11.855c.732 3.27 1.938 5.461-.324 8.185S-.196 24.532.031 27.71c.227 3.179 3.87 4.224 3.417 7.855-.453 3.632-3.945 6.945-2.36 8.533 1.584 1.589 5.204 7.036 5.204 7.036l3.846-2.27z" transform="translate(156 48) translate(12.707 .033) translate(78.96 97.415)"/>
                            </g>
                            <g fill="#E5E7EA" fill-rule="nonzero">
                                <path d="M21.746 7.694c0 4.25-2.576 7.695-5.754 7.695-3.177 0-5.753-3.445-5.753-7.695S12.815 0 15.992 0c3.178 0 5.754 3.445 5.754 7.694" transform="translate(156 48) translate(12.707 .033) translate(.127 100.202)"/>
                                <path stroke="#DCEEFF" stroke-width="5.4" d="M16.035 48.107L16.035 8.085" transform="translate(156 48) translate(12.707 .033) translate(.127 100.202)"/>
                                <path d="M9.84 18.997c2.716 2.725 3.267 6.59 1.23 8.635-2.038 2.044-5.893 1.492-8.61-1.234-2.717-2.725-3.267-6.59-1.23-8.635 2.038-2.043 5.892-1.491 8.61 1.234M29.239 24.596c2.19 2.198 1.599 6.354-1.323 9.284-2.92 2.93-7.065 3.524-9.256 1.326" transform="translate(156 48) translate(12.707 .033) translate(.127 100.202)"/>
                                <path stroke="#DCEEFF" stroke-width="5.4" d="M26.287 28.467L16.206 38.607M23.374 18.769L16.007 26.072M8.357 34.799L16.053 42.606M5.704 22.303L15.992 32.745" transform="translate(156 48) translate(12.707 .033) translate(.127 100.202)"/>
                                <path d="M19.121 61.852h-6.169c-4.754-.013-8.605-3.874-8.619-8.643v-8.132h23.404v8.132c-.013 4.768-3.863 8.629-8.616 8.643" transform="translate(156 48) translate(12.707 .033) translate(.127 100.202)"/>
                                <path stroke="#DCEEFF" stroke-width="5.4" d="M27.737 49.597L4.333 49.597M27.737 54.131L4.333 54.131" transform="translate(156 48) translate(12.707 .033) translate(.127 100.202)"/>
                            </g>
                            <g fill="#0E24A5" fill-rule="nonzero" opacity=".201">
                                <path d="M0 0L17.699 0 14.328 19.442 3.371 19.442z" transform="translate(156 48) translate(12.707 .033) translate(82.509 145.135)"/>
                            </g>
                            <g fill="#A6D9D7" fill-rule="nonzero">
                                <g>
                                    <path d="M34.328 48.923c0-8.154 18.612-5.017 24.388-28.224C63.384 1.952 58.092 0 58.092 0H2.913S-2.739 2.046 2.288 20.7c6.253 23.207 24.388 20.07 24.388 28.224 0 10.663-17.51 5.018-24.388 28.225-5.49 18.52.625 20.699.625 20.699h55.178s5.291-1.953.624-20.699c-5.15-20.698-24.387-17.562-24.387-28.225z" transform="translate(156 48) translate(12.707 .033) translate(23.321 63.205)"/>
                                </g>
                            </g>
                            <g fill="#054549" fill-rule="nonzero">
                                <path d="M65.258 14.095H5.87C2.629 14.095 0 11.86 0 9.103V4.992C0 2.234 2.63 0 5.87 0h59.388c3.242 0 5.87 2.235 5.87 4.992v4.111c0 2.756-2.628 4.992-5.87 4.992z" transform="translate(156 48) translate(12.707 .033) translate(18.077 59.72)"/>
                            </g>
                            <g fill="#054549" fill-rule="nonzero">
                                <path d="M23.636 0H0v5.69c0 3.079 1.928 4.465 4.999 4.465h18.076c3.071 0 6.12-1.386 6.12-4.466v-.112c0-1.48-.585-2.898-1.628-3.944C26.525.588 25.111 0 23.637 0z" transform="translate(156 48) translate(12.707 .033) translate(45.933 49.685)"/>
                            </g>
                            <g fill="#054549" fill-rule="nonzero">
                                <g>
                                    <path d="M8.225 1.637L11.041 33.7H6.76S.762 14.45.077 7.581C-.608.712 3.506.001 3.506.001l4.72 1.636z" transform="translate(156 48) translate(12.707 .033) translate(66.657 52.878)"/>
                                </g>
                            </g>
                            <g fill="#054549" fill-rule="nonzero">
                                <path d="M8.424 1.24l2.911 32.498h-4.28S.758 12.88.073 6.008C-.612-.864 3.8.038 3.8.038L8.424 1.24z" transform="translate(156 48) translate(12.707 .033) translate(52.835 52.84)"/>
                            </g>
                            <g fill="#FE958E" fill-rule="nonzero">
                                <path d="M4.195 0H0v3.227h8.509c.561 0 .754-1.265.263-1.538L4.195 0z" transform="translate(156 48) translate(12.707 .033) translate(73.417 86.578)"/>
                            </g>
                            <g fill="#FE958E" fill-rule="nonzero">
                                <path d="M4.196 0H0v3.227h8.509c.562 0 .755-1.265.264-1.538L4.196 0z" transform="translate(156 48) translate(12.707 .033) translate(59.974 86.578)"/>
                            </g>
                            <g fill="#FF7861" fill-rule="nonzero">
                                <path d="M2.216 30.572h17.638l2.202-26.208c.094-1.123-.285-2.233-1.045-3.062C20.251.472 19.18 0 18.057 0H4.013C2.89 0 1.819.473 1.059 1.3c-.76.83-1.139 1.94-1.044 3.063l2.201 26.208z" transform="translate(156 48) translate(12.707 .033) translate(43.722 19.331)"/>
                            </g>
                            <g fill="#FFEDAA" fill-rule="nonzero">
                                <path d="M1.542 6.87h2.74c.85 0 1.54-.779 1.54-1.742V1.742C5.822.78 5.132 0 4.282 0h-2.74C.69 0 0 .78 0 1.742v3.386C0 6.091.69 6.87 1.542 6.87z" transform="translate(156 48) translate(12.707 .033) translate(52.103 14.093)"/>
                            </g>
                            <g>
                                <g fill="#FFEDAA" fill-rule="nonzero">
                                    <path d="M13.21 11.99c-1.1 3.734-4.215 3.163-7.939 2.059-2.419-.706-4.276-2.656-4.87-5.111-.592-2.456.17-5.042 1.998-6.78C4.228.42 6.844-.204 9.257.522 12.98 1.626 14.31 8.254 13.21 11.99z" transform="translate(156 48) translate(12.707 .033) translate(48.377 2.098)"/>
                                </g>
                                <g>
                                    <path fill="#E4BB31" fill-rule="nonzero" d="M2.501 0.969L3.569 3.567 2.33 3.542z" transform="translate(156 48) translate(12.707 .033) translate(48.377 2.098) translate(8.318 6.49)"/>
                                    <path fill="#0D0B6D" fill-rule="nonzero" d="M1.364 1.082c-.027.519-.33.924-.68.903-.348-.02-.61-.457-.583-.976C.128.491.432.086.781.105c.348.02.61.458.583.977M4.639 1c-.027.518-.331.923-.68.902-.349-.02-.61-.457-.583-.976.026-.519.33-.923.68-.904.348.02.61.458.583.977" transform="translate(156 48) translate(12.707 .033) translate(48.377 2.098) translate(8.318 6.49)"/>
                                    <path stroke="#1C295E" stroke-width=".5" d="M2.027 4.786s-.809.261-1.618-.641" transform="translate(156 48) translate(12.707 .033) translate(48.377 2.098) translate(8.318 6.49)"/>
                                </g>
                            </g>
                            <g fill="#FF7861" fill-rule="nonzero">
                                <path d="M3.325 0L11.698 14.438 5.185 17.21 0 8.665z" transform="translate(156 48) translate(12.707 .033) translate(62.05 21.736)"/>
                            </g>
                            <g fill="#FF7861" fill-rule="nonzero">
                                <path d="M10.297.727C2.091 7.885.22 17.363.22 17.363c-.51 1.095-.118 2.842 1.027 3.221l15.99 8.005 2.226-3.778-11.194-8.55 8.223-8.892-.427-7.285s-4.54-.428-5.768.643z" transform="translate(156 48) translate(12.707 .033) translate(33.518 19.273)"/>
                            </g>
                            <g transform="translate(156 48) translate(12.707 .033) translate(43.722 19.331)">
                                <mask id="1cot7cjcch" fill="#fff">
                                    <use xlink:href="#l6jlyyaykg"/>
                                </mask>
                                <g mask="url(#1cot7cjcch)">
                                    <g>
                                        <g>
                                            <path fill="#8EA8DD" fill-rule="nonzero" d="M5.212 -1.292L5.541 -1.293 5.522 11.826 5.193 11.826z" transform="translate(-3.566 16.123) translate(2.943 .143) rotate(-45.729 5.367 5.267)"/>
                                        </g>
                                        <g>
                                            <path fill="#8EA8DD" fill-rule="nonzero" d="M5.852 -2.53L6.181 -2.53 6.166 9.613 5.837 9.613z" transform="translate(-3.566 16.123) translate(.144 6.775) rotate(-62.262 6.01 3.541)"/>
                                        </g>
                                    </g>
                                </g>
                            </g>
                            <g fill="#CCC" fill-rule="nonzero">
                                <path d="M0 0H27.532V2.34H0z" transform="translate(156 48) translate(12.707 .033) translate(50.206 47.748)"/>
                            </g>
                            <g fill="#FFEDAA" fill-rule="nonzero">
                                <path d="M0 3.092h7.022L7.535 0h-5.3C1.242 0 .395.72.231 1.702L0 3.092z" transform="translate(156 48) translate(12.707 .033) translate(50.46 44.724)"/>
                            </g>
                            <g fill="#CCC" fill-rule="nonzero">
                                <path d="M0 13.729L22.107 13.729 25.14 0 3.033 0z" transform="translate(156 48) translate(12.707 .033) translate(55.61 34.116)"/>
                            </g>
                            <g fill="#8EA8DD" fill-rule="nonzero">
                                <path d="M0 1.46c0 .806.652 1.46 1.456 1.46.804 0 1.455-.654 1.455-1.46C2.911.654 2.26 0 1.456 0S0 .654 0 1.46z" transform="translate(156 48) translate(12.707 .033) translate(67.158 39.89)"/>
                            </g>
                            <g fill="#009E97" fill-rule="nonzero">
                                <path d="M1.116 28.139c-.713-2 .07-7.72 2.919-14.033S25.182-.142 26.748.001c1.567.143 20.898 10.356 23.319 14.64 2.42 4.284 2.884 13.497 2.884 13.497H1.116z" transform="translate(156 48) translate(12.707 .033) translate(26.75 123.409)"/>
                            </g>
                            <g fill="#054549" fill-rule="nonzero">
                                <path d="M65.258 14.094H5.87C2.629 14.094 0 11.86 0 9.104V4.991C0 2.234 2.63 0 5.87 0h59.388c3.242 0 5.87 2.235 5.87 4.992v4.111c0 2.757-2.628 4.991-5.87 4.991z" transform="translate(156 48) translate(12.707 .033) translate(18.077 150.732)"/>
                            </g>
                            <g fill="#009E97" fill-rule="nonzero">
                                <path d="M15.466 12.168c-.96 0-8.33-4.07-12.495-7.068C-1.194 2.1-.234.814 1.368.279c1.602-.535 30.012-.32 31.187.858 1.176 1.178-5.447 5.14-8.33 7.175-2.111 1.49-6.943 3.856-8.759 3.856z" transform="translate(156 48) translate(12.707 .033) translate(38.388 94.173)"/>
                            </g>
                            <g fill="#03053F" fill-rule="nonzero">
                                <path d="M2.59 14.577c.402.368 1.976-.147 1.015-1.286C2.43 11.9 1.362 9.49 3.285 9.06c1.923-.43 1.388 1.874 2.243 1.874s.107-3.053.427-4.767c.32-1.714 4.7-1.5 6.835-1.82 2.136-.32 2.403-4.928-3.096-4.286C5.989.494 3.286 1.614.937 5.151c-1.78 2.674-.91 7.07 1.654 9.426z" transform="translate(156 48) translate(12.707 .033) translate(48.113 .013)"/>
                            </g>
                            <g transform="translate(156 48) translate(12.707 .033) translate(78.96 97.415)">
                                <mask id="8r9z2jv0aj" fill="#fff">
                                    <use xlink:href="#6a61jazw7i"/>
                                </mask>
                                <g mask="url(#8r9z2jv0aj)">
                                    <g>
                                        <g>
                                            <path fill="#8EA8DD" fill-rule="nonzero" d="M0 0H8.829V1H0z" transform="translate(4.16 10.893) translate(2.279 .227)"/>
                                        </g>
                                        <g>
                                            <path fill="#8EA8DD" fill-rule="nonzero" d="M0 0H8.829V1H0z" transform="translate(4.16 10.893) translate(0 15.51)"/>
                                        </g>
                                        <g>
                                            <path fill="#8EA8DD" fill-rule="nonzero" d="M0 0H8.829V1H0z" transform="translate(4.16 10.893) translate(2.279 30.936)"/>
                                        </g>
                                    </g>
                                </g>
                            </g>
                        </g>
                        <g fill-rule="nonzero">
                            <path fill="#C57C00" d="M22.389 10.093c0 .19-.005.378-.016.565-.008.156-.019.308-.038.46-.033.336-.084.67-.152 1-.03.156-.065.308-.103.461-.16.629-.382 1.24-.661 1.825-.07.157-.148.313-.228.462-.193.357-.407.701-.642 1.032-.108.16-.223.314-.347.462-.275.356-.577.69-.904.998-.168.164-.338.317-.513.461-.413.35-.854.663-1.319.938-.28.17-.569.324-.866.461-1.33.628-2.782.952-4.252.95h-2.28V.02h2.28c1.592-.001 3.16.38 4.575 1.11.278.138.547.292.806.46.465.295.904.63 1.31 1 .168.144.328.3.484.46.518.532.977 1.119 1.368 1.75.09.149.183.301.266.458.33.6.595 1.234.794 1.89.046.152.09.305.13.461.126.496.212 1 .257 1.51.02.152.03.304.038.46.008.172.013.344.013.515z" transform="translate(156 48) translate(112.93 51.109)"/>
                            <g fill="#9D6500">
                                <path d="M8.603 9.529c-.007.156-.019.309-.038.461H5.76V9.53h2.843zM8.413 10.988c-.03.157-.064.31-.102.462H4.864v-.462h3.549zM7.65 13.275c-.07.157-.149.313-.229.462H4.028v-.462h3.621zM6.78 14.77c-.108.16-.224.313-.347.46H2.91v-.46h3.87zM5.529 16.23c-.168.163-.338.316-.513.46H1.717v-.46H5.53zM3.697 17.628c-.28.17-.569.324-.866.461H0v-.46h3.697zM8.607 8.45H5.57v-.461h2.998c.02.152.031.305.039.46zM8.31 6.48H5.225v-.462h2.957c.045.153.09.305.128.462zM7.387 4.128H4.294v-.457h2.827c.09.148.183.3.266.457zM5.753 1.921H2.31V1.46h2.96c.168.144.327.301.483.461zM3.96.461H.622V0h2.531c.277.138.546.292.805.461z" transform="translate(156 48) translate(112.93 51.109) translate(13.769 1.129)"/>
                            </g>
                            <path fill="#FFC400" d="M20.109 10.093c0 4.074-2.447 7.747-6.2 9.306-3.752 1.56-8.072.698-10.944-2.183C.093 14.335-.767 10.002.788 6.238 2.342 2.474 6.004.02 10.066.02c2.664 0 5.218 1.061 7.101 2.95 1.884 1.89 2.942 4.451 2.942 7.123z" transform="translate(156 48) translate(112.93 51.109)"/>
                            <path fill="#FFAC00" d="M18.402 10.093c0 4.617-3.733 8.36-8.336 8.36-4.604 0-8.336-3.743-8.336-8.36 0-4.618 3.732-8.36 8.336-8.36 2.21 0 4.331.88 5.894 2.448 1.564 1.568 2.442 3.695 2.442 5.912z" transform="translate(156 48) translate(112.93 51.109)"/>
                            <path fill="#BB6A00" d="M10.763 17.755c-3.282 0-6.26-1.93-7.605-4.933C1.813 9.82 2.35 6.305 4.53 3.844c-2.315 2.062-3.299 5.24-2.556 8.254.742 3.014 3.089 5.367 6.094 6.11 3.005.745 6.174-.243 8.229-2.565-1.523 1.362-3.494 2.114-5.534 2.112z" transform="translate(156 48) translate(112.93 51.109)"/>
                        </g>
                        <g fill-rule="nonzero">
                            <path fill="#C57C00" d="M12.64 5.701c0 .107-.003.213-.01.318-.004.089-.01.175-.02.26-.02.19-.048.378-.087.564-.017.088-.036.174-.057.26-.09.355-.216.7-.373 1.03-.039.088-.084.176-.129.26-.109.202-.23.396-.362.583-.06.09-.126.177-.195.26-.155.2-.326.39-.51.563-.095.093-.191.179-.29.26-.232.197-.481.374-.744.53-.157.095-.32.182-.488.26-.75.353-1.57.536-2.399.535H5.689V.019h1.287c.898 0 1.783.214 2.581.626.156.078.308.165.454.26.263.166.51.355.74.564.094.081.184.17.272.26.293.3.551.63.772.987.05.084.103.17.15.258.185.339.336.696.448 1.066.025.086.05.172.073.26.071.28.12.564.145.851.011.086.017.172.022.26.004.098.006.194.006.29z" transform="translate(156 48) translate(100.221 13.333)"/>
                            <g fill="#9D6500">
                                <path d="M4.853 5.375c-.004.088-.01.174-.021.26H3.249v-.26h1.604zM4.746 6.199c-.017.088-.036.174-.058.26H2.744v-.26h2.002zM4.315 7.489c-.038.088-.083.176-.128.26H2.272v-.26h2.043zM3.824 8.332c-.06.09-.126.176-.195.26H1.642v-.26h2.182zM3.119 9.155c-.095.093-.191.179-.29.26H.97v-.26h2.15zM2.086 9.944c-.158.096-.321.183-.489.26H0v-.26h2.086zM4.855 4.767H3.142v-.26h1.69c.012.085.02.171.023.26zM4.688 3.655h-1.74v-.26h1.667c.026.086.052.172.073.26zM4.167 2.329H2.422V2.07h1.595c.051.082.103.17.15.258zM3.245 1.083H1.303v-.26h1.67c.095.082.183.17.272.26zM2.233.26H.351V0H1.78c.156.078.308.165.454.26z" transform="translate(156 48) translate(100.221 13.333) translate(7.778 .645)"/>
                            </g>
                            <path fill="#FFC400" d="M11.354 5.702c0 2.298-1.38 4.37-3.497 5.25-2.117.88-4.554.393-6.174-1.232S-.422 5.651.455 3.528C1.33 1.404 3.397.02 5.689.02c1.502 0 2.943.598 4.005 1.664 1.063 1.066 1.66 2.51 1.66 4.018z" transform="translate(156 48) translate(100.221 13.333)"/>
                            <path fill="#FFAC00" d="M10.39 5.702c0 2.605-2.105 4.716-4.701 4.716-2.597 0-4.702-2.112-4.702-4.716C.987 3.097 3.092.986 5.689.986c1.247 0 2.443.497 3.325 1.381.882.885 1.377 2.084 1.377 3.335z" transform="translate(156 48) translate(100.221 13.333)"/>
                            <path fill="#BB6A00" d="M6.082 10.024c-1.852 0-3.531-1.089-4.29-2.783-.759-1.693-.456-3.676.774-5.064C1.26 3.34.706 5.133 1.126 6.833c.418 1.7 1.741 3.027 3.436 3.447 1.695.42 3.483-.138 4.642-1.447-.86.769-1.971 1.193-3.122 1.191z" transform="translate(156 48) translate(100.221 13.333)"/>
                        </g>
                        <g fill-rule="nonzero">
                            <path fill="#C57C00" d="M12.64 5.701c0 .107-.003.213-.01.318-.004.089-.01.175-.02.26-.02.19-.048.378-.087.564-.017.088-.036.174-.057.26-.09.355-.216.7-.373 1.03-.039.088-.084.176-.129.26-.109.202-.23.396-.362.583-.06.09-.126.177-.195.26-.155.2-.326.39-.51.563-.095.093-.191.179-.29.26-.232.197-.481.374-.744.53-.157.095-.32.182-.488.26-.75.353-1.57.536-2.399.535H5.689V.019h1.287c.898 0 1.783.214 2.581.626.156.078.308.165.454.26.263.166.51.355.74.564.094.081.184.17.272.26.293.3.551.63.772.987.05.084.103.17.15.258.185.339.336.696.448 1.066.025.086.05.172.073.26.071.28.12.564.145.851.011.086.017.172.022.26.004.098.006.194.006.29z" transform="translate(156 48) translate(.171 65.478)"/>
                            <g fill="#9D6500">
                                <path d="M4.853 5.375c-.004.088-.01.174-.021.26H3.249v-.26h1.604zM4.746 6.199c-.017.088-.036.174-.058.26H2.744v-.26h2.002zM4.315 7.489c-.038.088-.083.176-.128.26H2.272v-.26h2.043zM3.824 8.332c-.06.09-.126.176-.195.26H1.642v-.26h2.182zM3.119 9.155c-.095.093-.191.179-.29.26H.97v-.26h2.15zM2.086 9.944c-.158.096-.321.183-.489.26H0v-.26h2.086zM4.855 4.767H3.142v-.26h1.69c.012.085.02.171.023.26zM4.688 3.655h-1.74v-.26h1.667c.026.086.052.172.073.26zM4.167 2.329H2.422V2.07h1.595c.051.082.103.17.15.258zM3.245 1.083H1.303v-.26h1.67c.095.082.183.17.272.26zM2.233.26H.351V0H1.78c.156.078.308.165.454.26z" transform="translate(156 48) translate(.171 65.478) translate(7.778 .645)"/>
                            </g>
                            <path fill="#FFC400" d="M11.354 5.702c0 2.298-1.38 4.37-3.497 5.25-2.117.88-4.554.393-6.174-1.232S-.422 5.651.455 3.528C1.33 1.404 3.397.02 5.689.02c1.502 0 2.943.598 4.005 1.664 1.063 1.066 1.66 2.51 1.66 4.018z" transform="translate(156 48) translate(.171 65.478)"/>
                            <path fill="#FFAC00" d="M10.39 5.702c0 2.605-2.105 4.716-4.701 4.716-2.597 0-4.702-2.112-4.702-4.716C.987 3.097 3.092.986 5.689.986c1.247 0 2.443.497 3.325 1.381.882.885 1.377 2.084 1.377 3.335z" transform="translate(156 48) translate(.171 65.478)"/>
                            <path fill="#BB6A00" d="M6.082 10.024c-1.852 0-3.531-1.089-4.29-2.783-.759-1.693-.456-3.676.774-5.064C1.26 3.34.706 5.133 1.126 6.833c.418 1.7 1.741 3.027 3.436 3.447 1.695.42 3.483-.138 4.642-1.447-.86.769-1.971 1.193-3.122 1.191z" transform="translate(156 48) translate(.171 65.478)"/>
                        </g>
                        <g fill-rule="nonzero">
                            <path fill="#C57C00" d="M21.118 9.521c0 .18-.004.356-.014.533-.008.148-.018.292-.036.436-.032.316-.08.63-.144.941-.028.148-.06.292-.097.436-.15.593-.36 1.17-.623 1.722-.065.147-.139.294-.215.435-.182.336-.385.661-.606.973-.102.15-.21.296-.326.435-.26.336-.545.65-.853.942-.159.155-.32.299-.484.435-.39.33-.806.625-1.244.885-.264.16-.537.305-.817.434-1.255.592-2.625.898-4.011.896H9.497V.02h2.15c1.502-.002 2.982.357 4.317 1.046.261.13.515.276.76.435.438.277.851.592 1.236.942.158.136.308.284.455.435.49.5.922 1.054 1.29 1.65.086.14.173.284.251.432.31.566.562 1.164.75 1.783.042.143.085.287.121.435.12.467.201.943.244 1.423.018.144.028.288.036.435.007.162.011.324.011.485z" transform="translate(156 48) translate(12.719 24.689)"/>
                            <g fill="#9D6500">
                                <path d="M8.115 8.988c-.007.147-.018.291-.036.435H5.433v-.435h2.682zM7.935 10.364c-.028.148-.06.292-.096.436H4.588v-.436h3.347zM7.215 12.522c-.064.147-.138.294-.215.435H3.8v-.435h3.416zM6.394 13.931c-.1.15-.21.296-.326.435H2.745v-.435h3.65zM5.215 15.308c-.158.155-.319.299-.484.435H1.62v-.435h3.595zM3.487 16.628c-.264.16-.536.305-.817.434H0v-.434h3.487zM8.119 7.97H5.253v-.435h2.828c.02.144.03.287.038.435zM7.839 6.112H4.927v-.434h2.79c.042.143.086.286.122.434zM6.968 3.893H4.05v-.43h2.667c.085.14.172.283.25.43zM5.426 1.812H2.18v-.435H4.97c.158.136.309.284.455.435zM3.735.435H.588V0h2.387c.262.13.515.275.76.435z" transform="translate(156 48) translate(12.719 24.689) translate(12.989 1.066)"/>
                            </g>
                            <path fill="#FFC400" d="M18.968 9.521c0 3.843-2.307 7.308-5.847 8.78-3.54 1.47-7.615.658-10.325-2.06C.086 13.525-.724 9.438.742 5.887 2.208 2.336 5.663.02 9.495.02c2.512 0 4.922 1 6.699 2.783C17.97 4.584 18.968 7 18.968 9.52z" transform="translate(156 48) translate(12.719 24.689)"/>
                            <path fill="#FFAC00" d="M17.358 9.521c0 4.355-3.52 7.886-7.862 7.886-4.343 0-7.863-3.53-7.863-7.886 0-4.355 3.52-7.886 7.863-7.886 2.085 0 4.085.83 5.56 2.31 1.474 1.479 2.302 3.485 2.302 5.576z" transform="translate(156 48) translate(12.719 24.689)"/>
                            <path fill="#BB6A00" d="M10.153 16.748c-3.096 0-5.904-1.82-7.172-4.653-1.27-2.832-.763-6.147 1.293-8.468C2.091 5.57 1.162 8.57 1.862 11.413c.7 2.844 2.914 5.063 5.75 5.765 2.834.701 5.823-.231 7.762-2.422-1.437 1.285-3.296 1.994-5.221 1.992z" transform="translate(156 48) translate(12.719 24.689)"/>
                        </g>
                    </g>
                </g>
            </g>
        </g>
    </g>
</svg>
