<svg xmlns="http://www.w3.org/2000/svg" width="286" height="213" viewBox="0 0 286 213">
    <g fill="none" fill-rule="evenodd">
        <g fill-rule="nonzero">
            <g>
                <g>
                    <path fill="#E0E0E0" d="M0 187.356H286V188.356H0zM49.141 193.416H68.44V194.416H49.141zM33.491 193.485H44.942V194.485H33.491zM119.165 190.418H173.385V191.418H119.165zM78.684 197.474H95.97V198.474H78.684zM191.62 192.386H236.619V193.386H191.62zM135.564 161.834H25.117c-1.802-.004-3.26-1.466-3.26-3.268V3.239C21.871 1.448 23.325.003 25.116 0h110.447c1.804 0 3.266 1.463 3.266 3.268v155.298c0 1.805-1.462 3.268-3.266 3.268zM25.117.114c-1.723.004-3.118 1.402-3.118 3.125v155.327c0 1.723 1.395 3.121 3.118 3.124h110.447c1.724-.003 3.12-1.4 3.123-3.124V3.239c-.003-1.724-1.4-3.121-3.123-3.125H25.117zM259.293 161.834H148.84c-1.802-.004-3.263-1.465-3.266-3.268V3.239c.019-1.792 1.475-3.236 3.266-3.239h110.453c1.789.006 3.24 1.45 3.255 3.239v155.327c0 1.8-1.455 3.261-3.255 3.268zM148.84.114c-1.723.004-3.12 1.4-3.123 3.125v155.327c.003 1.724 1.4 3.121 3.123 3.124h110.453c1.724-.003 3.12-1.4 3.123-3.124V3.239c-.003-1.724-1.4-3.121-3.123-3.125H148.84z" transform="translate(-383 -160) translate(383 160)"/>
                    <path fill="#F0F0F0" d="M104.218 55.188L101.742 61.964 104.218 61.964 119.416 55.188z" transform="translate(-383 -160) translate(383 160)"/>
                    <path fill="#E0E0E0" d="M101.742 55.188L101.742 61.964 116.934 55.188zM70.79 185.502H49.954c-.969.02-1.836-.597-2.138-1.518-.3-.92.035-1.93.828-2.488l.337.458c-.563.421-.794 1.156-.573 1.823.22.668.843 1.12 1.546 1.124H70.79c2.658-.003 4.813-2.158 4.816-4.818v-61.695c.003-2.895 2.346-5.241 5.24-5.248h6.234v.573h-6.235c-2.577.006-4.664 2.096-4.667 4.675v61.723c-.006 2.975-2.415 5.385-5.388 5.391zM102.868 114.319H140.397V187.356H102.868z" transform="translate(-383 -160) translate(383 160)"/>
                    <path fill="#EBEBEB" d="M138.716 114.319H141.811V187.356H138.716z" transform="translate(-383 -160) translate(383 160)"/>
                    <path fill="#EBEBEB" d="M68.142 114.319H142.765V119.795H68.142z" transform="translate(-383 -160) translate(383 160) rotate(180 105.454 117.057)"/>
                    <path fill="#E0E0E0" d="M30.167 114.319H67.696V187.356H30.167z" transform="translate(-383 -160) translate(383 160)"/>
                    <path fill="#EBEBEB" d="M66.009 114.319H69.104V187.356H66.009z" transform="translate(-383 -160) translate(383 160)"/>
                    <path fill="#E0E0E0" d="M56.073 92.516L91.045 92.516 96.113 113.175 61.141 113.175zM61.141 113.175L61.284 114.319 96.256 114.319 96.119 113.175z" transform="translate(-383 -160) translate(383 160)"/>
                    <path fill="#F0F0F0" d="M57.154 92.516L92.126 92.516 97.194 113.175 62.222 113.175z" transform="translate(-383 -160) translate(383 160)"/>
                    <path fill="#FAFAFA" d="M62.96 112.231L58.355 93.461 91.383 93.461 95.987 112.231z" transform="translate(-383 -160) translate(383 160)"/>
                    <path fill="#F0F0F0" d="M71.334 113.175L71.471 114.319 109.984 114.319 109.841 113.175zM44.084 109.112s-5.148-8.876 1.996-15.943c0 0 1.86 1.219 1.83 2.861-.028 1.642-1.99 2.049-1.572 3.434.417 1.384 2.288 2.7 1.064 3.828-1.224 1.127.194 2.129.114 3.514-.08 1.384-3.432 2.306-3.432 2.306z" transform="translate(-383 -160) translate(383 160)"/>
                    <path fill="#F0F0F0" d="M44.473 109.924s2.088-10.048-6.915-14.5c0 0-1.385 1.745-.841 3.284.543 1.54 2.54 1.31 2.568 2.741.029 1.43-1.316 3.28.2 3.966 1.516.687.48 2.083.995 3.365s3.993 1.144 3.993 1.144z" transform="translate(-383 -160) translate(383 160)"/>
                    <path fill="#E0E0E0" d="M36.608 107.698s.172 6.621 6.732 6.621c6.561 0 6.716-6.62 6.716-6.62H36.608z" transform="translate(-383 -160) translate(383 160)"/>
                    <path fill="#EBEBEB" d="M129.123 187.356h-1.304l-3.735-18.404-.652-3.221-4.073-20.03h-15.61l-8.46 41.655h-1.304l8.62-42.45c.058-.298.32-.512.624-.51h16.65c.304-.002.566.212.624.51l3.575 17.614.658 3.222 4.387 21.614z" transform="translate(-383 -160) translate(383 160)"/>
                    <path fill="#EBEBEB" d="M154.183 187.356h-1.31l-8.46-41.677h-15.604l-4.073 20.063-.652 3.21-3.735 18.404h-1.304l4.387-21.625.646-3.21 3.581-17.615c.058-.298.32-.512.623-.51h16.651c.304 0 .567.213.63.51l8.62 42.45z" transform="translate(-383 -160) translate(383 160)"/>
                    <path fill="#E6E6E6" d="M115.71 145.038h28.68c5.473-.005 9.938-4.386 10.05-9.86l1.07-43.606c.03-1.963-.727-3.857-2.103-5.257-1.376-1.4-3.256-2.19-5.219-2.194H130.21c-3.725.002-6.857 2.798-7.281 6.501l-7.22 54.416z" transform="translate(-383 -160) translate(383 160)"/>
                    <path fill="#E6E6E6" d="M99.356 139.538h30.562c.79 0 1.43.641 1.43 1.431v.137c0 2.172-1.759 3.932-3.93 3.932H99.357v-5.5z" transform="translate(-383 -160) translate(383 160) rotate(180 115.352 142.288)"/>
                </g>
                <g fill="#F5F5F5" transform="translate(-383 -160) translate(383 160) translate(32 199)">
                    <ellipse cx="111" cy="7.14" rx="110.937" ry="6.603"/>
                </g>
                <g transform="translate(-383 -160) translate(383 160) translate(85 8)">
                    <path fill="#FFB573" d="M72.823 58.225l.371.314c.137.12.292.235.44.349.297.234.572.469.915.692.617.452 1.274.863 1.931 1.275 1.326.818 2.715 1.527 4.154 2.122 1.434.61 2.91 1.115 4.417 1.51.378.102.766.17 1.143.257l.572.125c.12 0 0 0 0 .029-.078.018-.152.051-.217.097-.052.052-.052.052-.029.04.113-.167.201-.35.263-.543.203-.66.327-1.341.371-2.03.069-.75.092-1.538.086-2.333 0-1.596-.126-3.225-.251-4.86-.126-1.636-.326-3.277-.538-4.924-.211-1.647-.445-3.294-.691-4.918l2.149-.492c.946 3.264 1.709 6.578 2.285 9.927.3 1.703.507 3.421.623 5.147.067.89.088 1.783.063 2.676-.008.985-.133 1.966-.371 2.922-.162.611-.425 1.191-.778 1.716-.247.357-.554.669-.908.92-.407.291-.874.486-1.366.572-.424.072-.856.072-1.28 0l-.657-.109c-.44-.074-.886-.131-1.32-.228-1.752-.348-3.472-.842-5.143-1.476-1.67-.64-3.285-1.417-4.828-2.321-.772-.463-1.526-.95-2.258-1.481-.365-.263-.725-.572-1.085-.824-.177-.148-.355-.291-.532-.452-.177-.16-.343-.291-.571-.508l3.04-3.191z"/>
                    <path fill="#276EF1" d="M66.611 55.623c6.286-.852 11.338 4.22 11.338 4.22L72.2 68.718s-6.16-3.946-7.246-6.633c-1.12-2.797-1.56-6.045 1.657-6.462z"/>
                    <path fill="#FAFAFA" d="M66.611 55.623c6.286-.852 11.338 4.22 11.338 4.22L72.2 68.718s-6.16-3.946-7.246-6.633c-1.12-2.797-1.56-6.045 1.657-6.462z" opacity=".6"/>
                    <path fill="#FFB573" d="M85.811 46.199l-2.085-4.186 5.468-.046s.109 2.922-1.274 4.575l-2.109-.343zM84.697 37.513L88.766 38.239 89.194 41.967 83.726 42.013z"/>
                    <path fill="#E4897B" d="M44.383 193.779L49.503 194.271 53.046 182.239 47.926 181.742zM11.829 175.983L15.623 179.552 23.817 170.54 20.023 166.971z"/>
                    <path fill="#263238" d="M17.377 177.842l-2.857-5.147c-.1-.182-.32-.263-.514-.188l-4.395 1.67c-.22.094-.39.277-.467.504-.077.227-.055.476.062.685 1.023 1.773 1.611 2.579 2.857 4.838.771 1.395 2.286 4.574 3.343 6.507 1.057 1.933 3.017.967 2.748.075-1.223-4.003-.988-6.25-.645-8.006.068-.319.022-.65-.132-.938zM50.103 192.71h-6.206c-.228.002-.427.157-.486.377L42.057 198c-.065.236-.015.489.135.682.15.193.38.305.625.302H57.11c2.285 0 2.742-2.288 1.805-2.505-4.205-.926-6.634-2.213-7.931-3.43-.24-.22-.555-.34-.88-.338z"/>
                    <path fill="#CE6F64" d="M53.046 182.239L51.217 188.444 45.949 188.444 47.92 181.748zM20.017 166.977L23.817 170.54 19.589 175.183 15.794 171.62z"/>
                    <path fill="#263238" d="M72.806 52.072c-.04-4.158-3.8-5.61-3.8-5.61s4.703-8.91 2.285-14.822c-2.417-5.913-10.382-6.954-12.908-4.192-4.44-.188-5.852 6.193-5.852 6.193s-3.714.624-4.714 3.328c-1 2.705 2.046 5.753 2.046 5.753s-4.24.572-5.8 3.837c-1.56 3.265-.6 7.6 4.086 11.34 6.811 5.432 19.331-1.384 19.331-1.384s5.371.337 5.326-4.443z"/>
                    <path fill="#276EF1" d="M72 56.206s2.286 1-5.349 31.177L45.51 85.547c1.097-8.577 1.571-13.907-1.018-31.954 3.017-.357 6.056-.493 9.092-.406 3.22.048 6.431.325 9.611.829 2.97.582 5.91 1.313 8.806 2.19z"/>
                    <path fill="#FAFAFA" d="M72 56.206s2.286 1-5.349 31.177L45.51 85.547c1.097-8.577 1.571-13.907-1.018-31.954 3.017-.357 6.056-.493 9.092-.406 3.22.048 6.431.325 9.611.829 2.97.582 5.91 1.313 8.806 2.19z" opacity=".6"/>
                    <path fill="#FAFAFA" d="M66.52 54.73c-1.097-.262-2.286-.514-3.371-.714-3.18-.506-6.392-.785-9.612-.835-1.103-.04-2.206-.04-3.24 0l.709 1.35c.125.24 3.143 5.872 8.874 9.069l1.577.88 1.469-1.046c3.703-2.648 4.251-6.09 3.594-8.703z"/>
                    <path fill="#FFB573" d="M55.429 42.436c.337 3.151.451 8.875-1.886 10.75 0 0 2.674 5.084 7.737 7.904 4.48-3.191 1.874-7.074 1.874-7.074-3.377-1.144-3.068-3.671-2.285-6.027l-5.44-5.553z"/>
                    <path fill="#CE6F64" d="M57.651 44.7l3.235 3.289c-.197.546-.346 1.109-.446 1.68-1.297-.302-3.183-1.657-3.206-3.053.026-.658.167-1.306.417-1.915z"/>
                    <path fill="#FFB573" d="M55.291 35.288c-.622 5.147-.994 7.325 1.103 10.42 3.155 4.642 9.623 4.276 11.766-.573 1.931-4.38 2.623-12.077-2-15.022-2.06-1.327-4.66-1.494-6.874-.44-2.213 1.054-3.724 3.178-3.995 5.615z"/>
                    <path fill="#263238" d="M59.28 28.946c3.971 1.03.046 13.118-6.286 9.613 0 0 .286-5.106 2.046-7.274 1.064-1.29 2.58-2.127 4.24-2.339z"/>
                    <path fill="#263238" d="M58.857 29.616c1.714 2.79 14.429 8.08 10.154 2.075-4.274-6.004-10.154-2.075-10.154-2.075z"/>
                    <path fill="#FFB573" d="M53.657 39.743c-.071 1.002.255 1.993.909 2.756.88 1 2.04.395 2.405-.818.326-1.086.263-2.916-.908-3.476-.525-.232-1.131-.186-1.615.124-.483.309-.78.84-.79 1.414z"/>
                    <path fill="#044834" d="M66.629 87.383s7.16 31.702 2.382 54.05c-3.2 14.97-14.748 45.21-14.748 45.21l-9.029-.23s8.737-31.736 10.549-44.214c3.091-21.352-4.652-56.16-4.652-56.16l15.498 1.344z"/>
                    <path fill="#263238" d="M58.371 93.782l-4.514 7.125c1.36 8.449 2.223 16.97 2.583 25.52 6.349-11.373 3.343-26.624 1.931-32.645z"/>
                    <path fill="#014733" d="M62 87.04s-4.2 33.624-13.309 51.98c-7.354 14.805-26.977 35.963-26.977 35.963l-5.017-5.175s13.257-22.937 18.726-32.79c13.406-24.148 2.446-42.573 10.046-51.465L62 87.04z"/>
                    <path fill="#276EF1" d="M45.251 84.278l-1.114 1.812c-.091.143.074.31.314.326l22.2 1.922c.195 0 .36-.063.383-.183l.355-1.876c0-.131-.132-.257-.343-.274L45.61 84.146c-.134-.022-.271.028-.36.132z"/>
                    <path fill="#000" d="M45.251 84.278l-1.114 1.812c-.091.143.074.31.314.326l22.2 1.922c.195 0 .36-.063.383-.183l.355-1.876c0-.131-.132-.257-.343-.274L45.61 84.146c-.134-.022-.271.028-.36.132z" opacity=".3"/>
                    <path fill="#263238" d="M47.926 86.92l-.572-.052c-.114 0-.194-.074-.183-.149l.486-2.436c0-.074.12-.125.234-.114l.572.051c.114 0 .194.075.183.15l-.48 2.435c-.023.08-.126.115-.24.115zM65.023 88.406l-.572-.051c-.114 0-.194-.074-.182-.149l.485-2.442c0-.068.12-.12.235-.108l.571.051c.114 0 .194.075.183.143l-.48 2.442c-.023.074-.12.12-.24.114zM56.474 87.663l-.571-.046c-.114 0-.194-.08-.183-.148l.486-2.442c0-.069.12-.12.234-.109l.571.046c.115 0 .195.08.183.149l-.48 2.441c-.023.069-.143.12-.24.109zM62.76 38.13c-.074.412.086.79.354.84.269.052.572-.245.629-.663.057-.417-.08-.794-.354-.84-.275-.046-.532.274-.629.663zM67.429 38.988c-.075.412.085.79.354.84.268.052.571-.245.628-.663.058-.417-.08-.795-.354-.84-.274-.046-.526.246-.628.663z"/>
                    <path fill="#263238" d="M67.96 38.313l1.046-.103s-.652.675-1.046.103z"/>
                    <path fill="#B7804E" d="M66.08 39.457c.2 1.015.536 1.998 1 2.922-.485.227-1.046.227-1.531 0l.531-2.922z"/>
                    <path fill="#263238" d="M63.811 43.751c-1.131-.175-2.107-.89-2.617-1.915-.02-.052.006-.11.057-.132.025-.011.052-.012.077-.002s.045.029.055.054c.488.956 1.403 1.62 2.463 1.79.057 0 .103.046.103.102 0 .057-.046.103-.103.103h-.035zM61.646 34.882c-.09.002-.17-.055-.199-.14-.029-.085 0-.178.073-.232.61-.492 1.423-.656 2.177-.44.052.018.094.056.118.106.023.049.026.106.008.157-.018.052-.056.094-.105.118-.05.023-.106.026-.158.008-.622-.171-1.288-.03-1.789.377-.036.028-.08.044-.125.046zM70.103 37.41c-.062 0-.12-.028-.16-.075-.396-.51-1.012-.802-1.657-.783-.113.01-.214-.07-.229-.183-.006-.054.01-.108.044-.15.035-.043.085-.069.139-.073.785-.04 1.54.305 2.023.926.077.082.077.21 0 .292-.046.035-.103.051-.16.046z"/>
                    <path fill="#FFB573" d="M46.051 61.187c-.859 1.706-1.813 3.363-2.857 4.963-1.028 1.579-2.114 3.123-3.285 4.61-1.184 1.491-2.453 2.914-3.8 4.26-.698.657-1.378 1.326-2.126 1.944l-.572.469-.137.114-.183.143c-.12.098-.246.19-.377.275-.52.356-1.084.64-1.68.846-1.121.366-2.306.496-3.48.383-1.051-.105-2.087-.334-3.085-.68-1.85-.646-3.614-1.516-5.252-2.59-3.152-2.047-6.055-4.454-8.651-7.172l1.52-1.595c1.365 1.098 2.805 2.19 4.28 3.18 1.444 1.011 2.947 1.936 4.503 2.767 1.48.814 3.043 1.468 4.662 1.95 1.543.429 3.092.503 4.16.057.604-.263 1.144-.653 1.583-1.144.635-.571 1.223-1.206 1.823-1.824 1.172-1.275 2.257-2.642 3.326-4.003 1.068-1.36 2.034-2.859 2.971-4.346.475-.743.926-1.498 1.372-2.253.445-.755.874-1.55 1.245-2.258l4.04 1.904z"/>
                    <path fill="#FFB573" d="M13.531 67.837l-2.034-4.208-3.383 4.3s2.24 1.87 4.417 1.801l1-1.893zM9.274 62.399L7.36 66.065 8.114 67.929 11.497 63.629z"/>
                    <path fill="#276EF1" d="M44.446 53.593C41.85 54.05 38.21 61.5 38.21 61.5l7.126 6.445s4.617-6.205 4.343-9.59c-.234-2.888-1.931-5.347-5.234-4.763z"/>
                    <path fill="#FAFAFA" d="M44.446 53.593C41.85 54.05 38.21 61.5 38.21 61.5l7.126 6.445s4.617-6.205 4.343-9.59c-.234-2.888-1.931-5.347-5.234-4.763z" opacity=".6"/>
                    <path fill="#276EF1" d="M18.377 180.604c-.068 0-.136-.011-.2-.034-.623-.206-1.028-1.356-1.217-2.025-.011-.04.002-.082.034-.108.036-.02.08-.02.115 0 .188.097 1.845.989 1.897 1.64.016.147-.053.289-.177.367-.13.102-.288.158-.452.16zm-1.143-1.876c.286.921.657 1.527 1.012 1.647.164.05.342.008.468-.108.064-.038.1-.11.092-.183-.035-.4-1.006-1.035-1.577-1.356h.005z"/>
                    <path fill="#276EF1" d="M18.634 178.986c-.565-.002-1.122-.134-1.628-.383-.033-.016-.053-.05-.052-.086 0-.04.023-.075.057-.092.052 0 1.366-.749 2.075-.497.176.057.317.192.383.366.093.17.055.382-.092.509-.22.14-.482.204-.743.183zm-1.348-.47c.571.24 1.651.39 1.96.127.051-.04.097-.115.034-.275-.046-.117-.143-.208-.263-.246-.486-.171-1.36.212-1.731.395zM52.857 193.716c-.577-.013-1.152-.086-1.714-.217-.044-.01-.076-.047-.08-.092-.006-.043.017-.085.057-.103.257-.12 2.503-1.143 3.074-.777.104.072.161.194.149.32-.014.227-.127.436-.309.572-.353.215-.764.319-1.177.297zm-1.337-.354c.669.125 1.903.286 2.411-.098.137-.101.22-.259.229-.428.007-.053-.015-.105-.057-.138-.32-.217-1.652.252-2.583.664z"/>
                    <path fill="#276EF1" d="M51.189 193.499c-.022.009-.047.009-.069 0-.029-.026-.042-.065-.034-.103 0-.092.537-2.316 1.754-2.173.309.034.389.189.406.309.08.572-1.343 1.715-2.017 1.984l-.04-.017zm1.542-2.099c-.782 0-1.234 1.293-1.388 1.813.737-.389 1.748-1.315 1.714-1.675 0-.03 0-.11-.223-.132l-.103-.006z"/>
                    <path fill="#263238" d="M63.269 37.467l1.045-.109s-.651.686-1.045.109z"/>
                    <path fill="#FFB130" d="M20.28 4.878L3.531 113.224l94.24 14.57L114.52 19.444 20.28 4.878zM59 66.505c-8.846-1.37-15.995-7.939-18.113-16.642-2.118-8.704 1.213-17.827 8.439-23.113 7.226-5.287 16.923-5.696 24.568-1.036 7.645 4.66 11.73 13.47 10.352 22.32-1.881 12.074-13.18 20.34-25.246 18.47z" opacity=".6"/>
                    <path fill="#276EF1" d="M94.926 123.683h-.143L.4 109.05v-.143L17.194.435h.137l94.383 14.633v.143L94.926 123.683zm-94.2-14.868l93.96 14.542L111.389 15.28 17.429.76.726 108.816z" opacity=".3" style="mix-blend-mode:multiply"/>
                    <path fill="#FAFAFA" d="M62.394 67.626c-1.18-.002-2.359-.093-3.525-.275-12.183-1.902-20.686-13.097-19.257-25.353 1.43-12.256 12.281-21.19 24.574-20.233 12.293.957 21.633 11.463 21.151 23.793-.482 12.33-10.613 22.074-22.943 22.068zm-3.263-1.967c11.605 1.794 22.466-6.165 24.26-17.777 1.794-11.613-6.157-22.483-17.76-24.28-11.605-1.797-22.468 6.159-24.265 17.77C39.584 52.986 47.532 63.85 59.13 65.66z"/>
                    <path fill="#596685" d="M19.553 71.573L40.559 71.575 40.559 76.299 19.553 76.296z" transform="rotate(8.79 30.056 73.936)"/>
                    <path fill="#596685" d="M43.086 74.69L57.298 74.692 57.298 79.415 43.087 79.414z" transform="rotate(8.79 50.192 77.053)"/>
                    <path fill="#FAFAFA" d="M17.764 85.231L93.726 85.239 93.726 89.962 17.765 89.954z" transform="rotate(8.79 55.745 87.597)"/>
                    <path fill="#FAFAFA" d="M17.017 92.13L54.838 92.134 54.839 96.863 17.018 96.859z" transform="rotate(8.616 35.928 94.496)"/>
                    <path fill="#FAFAFA" d="M60.247 98.048L85.516 98.051 85.516 102.774 60.247 102.771z" transform="rotate(8.79 72.881 100.411)"/>
                    <path fill="#FAFAFA" d="M14.79 103.921L75.516 103.928 75.517 108.651 14.79 108.644z" transform="rotate(8.79 45.153 106.286)"/>
                    <path fill="#276EF1" d="M115.526 127.795h-.572c.002-1.42-.172-2.833-.52-4.21l.572-.136c.353 1.421.528 2.88.52 4.346zm-2.24-7.389c-1.258-2.633-3.158-4.906-5.526-6.61l.331-.463c2.446 1.757 4.41 4.1 5.715 6.816l-.52.257z"/>
                    <path fill="#FAFAFA" d="M115.526 127.795h-.572c.002-1.42-.172-2.833-.52-4.21l.572-.136c.353 1.421.528 2.88.52 4.346zm-2.24-7.389c-1.258-2.633-3.158-4.906-5.526-6.61l.331-.463c2.446 1.757 4.41 4.1 5.715 6.816l-.52.257z" opacity=".6"/>
                    <path fill="#276EF1" d="M97.771 112.029c-8.7 0-15.754 7.058-15.754 15.766 0 8.707 7.054 15.765 15.754 15.765 8.701 0 15.755-7.058 15.755-15.765 0-8.708-7.054-15.766-15.755-15.766zm0 29.49c-7.574 0-13.714-6.145-13.714-13.724 0-7.58 6.14-13.725 13.714-13.725 7.575 0 13.715 6.145 13.715 13.725s-6.14 13.724-13.715 13.724z"/>
                    <path fill="#FAFAFA" d="M97.771 112.029c-8.7 0-15.754 7.058-15.754 15.766 0 8.707 7.054 15.765 15.754 15.765 8.701 0 15.755-7.058 15.755-15.765 0-8.708-7.054-15.766-15.755-15.766zm0 29.49c-7.574 0-13.714-6.145-13.714-13.724 0-7.58 6.14-13.725 13.714-13.725 7.575 0 13.715 6.145 13.715 13.725s-6.14 13.724-13.715 13.724z" opacity=".6"/>
                    <ellipse cx="97.771" cy="127.795" fill="#276EF1" rx="13.709" ry="13.718"/>
                    <path fill="#FAFAFA" d="M95.64 136.475L87.594 128.424 89.617 126.405 95.64 132.432 105.931 122.133 107.949 124.158z"/>
                </g>
            </g>
        </g>
    </g>
</svg>
