<svg width="21" height="12" viewBox="0 0 21 12" fill="none" xmlns="http://www.w3.org/2000/svg">
<path d="M14.09 0.5L16.2317 2.5988L11.6678 7.0725L7.9278 3.4062L1 10.2075L2.3178 11.5L7.9278 6L11.6678 9.6663L17.5583 3.9012L19.7 6V0.5H14.09Z" fill="#FFC401"/>
<path d="M14.09 0.5L16.2317 2.5988L11.6678 7.0725L7.9278 3.4062L1 10.2075L2.3178 11.5L7.9278 6L11.6678 9.6663L17.5583 3.9012L19.7 6V0.5H14.09Z" fill="black" fill-opacity="0.05"/>
<path d="M14.09 0.5L16.2317 2.5988L11.6678 7.0725L7.9278 3.4062L1 10.2075L2.3178 11.5L7.9278 6L11.6678 9.6663L17.5583 3.9012L19.7 6V0.5H14.09Z" stroke="#F2BA01" stroke-width="0.3"/>
</svg>
