<svg width="24" height="24" viewBox="0 0 24 24" fill="none" xmlns="http://www.w3.org/2000/svg">
<path fill-rule="evenodd" clip-rule="evenodd" d="M13.7931 4.07245C13.4146 4.22489 13.1667 4.592 13.1667 5.00003V7.63156C10.4427 8.21363 8.40969 9.54646 6.94314 11.2896C5.34327 13.1911 4.45615 15.5328 4.01799 17.8112C3.92858 18.2761 4.1775 18.7401 4.61436 18.9227C5.05121 19.1053 5.55625 18.9565 5.82431 18.5662C6.77825 17.1772 7.89909 16.1959 9.23522 15.5539C10.3443 15.0209 11.6384 14.7042 13.1667 14.6099V17.1334C13.1667 17.5414 13.4146 17.9085 13.7931 18.061C14.1715 18.2134 14.6047 18.1206 14.8875 17.8265L20.7208 11.7598C21.0931 11.3727 21.0931 10.7607 20.7208 10.3736L14.8875 4.30692C14.6047 4.0128 14.1715 3.92 13.7931 4.07245ZM18.6127 11.0667L15.1667 14.6506V13.58C15.1667 13.0277 14.719 12.58 14.1667 12.58C11.9735 12.58 10.0465 12.945 8.36895 13.7512C7.99234 13.9322 7.63099 14.1341 7.28429 14.3569C7.61956 13.722 8.0138 13.1236 8.47353 12.5772C9.77442 11.031 11.6377 9.85341 14.3136 9.45584C14.8038 9.38302 15.1667 8.96223 15.1667 8.4667V7.48281L18.6127 11.0667Z" fill="#FF9518"/>
</svg>
