<svg xmlns="http://www.w3.org/2000/svg" width="24" height="24" viewBox="0 0 24 24">
    <g fill="none" fill-rule="evenodd">
        <g>
            <g>
                <path d="M0 0H24V24H0z" transform="translate(-251 -433) translate(251 433)"/>
                <path fill="#1DA1F2" fill-rule="nonzero" d="M12 2C6.478 2 2 6.478 2 12s4.478 10 10 10 10-4.478 10-10S17.522 2 12 2zm4.566 7.797c.004.098.006.197.006.297 0 3.033-2.308 6.53-6.53 6.53-1.296 0-2.503-.38-3.518-1.03.18.02.362.03.547.03 1.076 0 2.065-.366 2.85-.982-1.004-.018-1.851-.682-2.143-1.594.14.027.283.042.431.042.21 0 .412-.029.605-.081-1.05-.21-1.841-1.139-1.841-2.25v-.03c.31.173.663.276 1.04.288-.617-.412-1.022-1.115-1.022-1.911 0-.42.114-.814.311-1.154 1.132 1.39 2.824 2.303 4.731 2.399-.04-.169-.06-.344-.06-.524 0-1.267 1.029-2.295 2.296-2.295.66 0 1.257.28 1.676.725.522-.103 1.013-.294 1.457-.557-.172.536-.535.985-1.01 1.27.465-.056.908-.179 1.319-.362-.307.46-.697.865-1.145 1.189z" transform="translate(-251 -433) translate(251 433)"/>
            </g>
        </g>
    </g>
</svg>
