<svg xmlns="http://www.w3.org/2000/svg" width="24" height="24" viewBox="0 0 24 24">
    <g fill="none" fill-rule="evenodd">
        <g>
            <g>
                <g>
                    <g>
                        <path d="M0 0H24V24H0z" transform="translate(-176 -296) translate(156 160) translate(16 132) translate(4 4)"/>
                        <g fill-rule="nonzero">
                            <g>
                                <path fill="#D8DFE0" d="M11.6 4.776L11.6 9.241 9.599 15.428 0 15.428 0 0.75 7.715 0.75z" transform="translate(-176 -296) translate(156 160) translate(16 132) translate(4 4) translate(4.5 4.5)"/>
                                <path fill="#FFF" d="M12.35 4.026L12.35 8.491 10.349 14.678 0.75 14.678 0.75 0 8.465 0z" transform="translate(-176 -296) translate(156 160) translate(16 132) translate(4 4) translate(4.5 4.5)"/>
                                <path fill="#FFF" d="M12.35 4.026L12.35 8.491 10.349 14.678 6.55 14.678 6.55 0 8.465 0z" transform="translate(-176 -296) translate(156 160) translate(16 132) translate(4 4) translate(4.5 4.5)"/>
                                <path fill="#D8DFE0" d="M12.35 4.026L8.465 4.026 8.465 0z" transform="translate(-176 -296) translate(156 160) translate(16 132) translate(4 4) translate(4.5 4.5)"/>
                                <path fill="#5B787C" d="M2.887 5.816L10.208 5.816 10.208 6.704 2.887 6.704z" transform="translate(-176 -296) translate(156 160) translate(16 132) translate(4 4) translate(4.5 4.5)"/>
                                <g fill="#5B787C">
                                    <path d="M.005.014L3.668.014 3.668.902.005.902zM.005 5.343L3.668 5.343 3.668 6.231.005 6.231zM.005 3.566L5.146 3.566 5.146 4.455.005 4.455z" transform="translate(-176 -296) translate(156 160) translate(16 132) translate(4 4) translate(4.5 4.5) translate(2.882 4.026)"/>
                                </g>
                            </g>
                            <g transform="translate(-176 -296) translate(156 160) translate(16 132) translate(4 4) translate(4.5 4.5) translate(8.056 8.055)">
                                <circle cx="4.219" cy="4.219" r="4.219" fill="#D83C3C"/>
                                <path fill="#FFF" d="M6.194 5.266L5.266 6.195 4.317 5.245 3.372 6.189 2.444 5.261 3.388 4.317 2.481 3.409 3.409 2.48 4.317 3.389 5.261 2.445 6.189 3.373 5.245 4.317z"/>
                            </g>
                        </g>
                    </g>
                </g>
            </g>
        </g>
    </g>
</svg>
