<svg xmlns="http://www.w3.org/2000/svg" xmlns:xlink="http://www.w3.org/1999/xlink" width="72" height="72" viewBox="0 0 72 72">
    <defs>
        <path id="g5r56w2gpa" d="M0 0L72 0 72 72 0 72z"/>
    </defs>
    <g fill="none" fill-rule="evenodd">
        <g>
            <g>
                <g transform="translate(-157 -2606) translate(156 2434) translate(1 172)">
                    <mask id="4lcfin9l4b" fill="#fff">
                        <use xlink:href="#g5r56w2gpa"/>
                    </mask>
                    <g mask="url(#4lcfin9l4b)">
                        <g fill-rule="nonzero">
                            <g>
                                <path fill="#ED5B5B" d="M22.783 0H4.557C2.05 0 .023 2.05.023 4.557L0 41.009c0 2.506 2.028 4.557 4.534 4.557h27.362c2.506 0 4.556-2.05 4.556-4.557v-27.34l-.356-6.82c-.2-3.815-3.343-6.81-7.162-6.825L22.783 0z" transform="translate(-5.4 -12.6) rotate(-20 37.376 4.844)"/>
                                <path fill="#A40E0E" d="M32.502 16.74L3.341 16.74 3.341 14.917 32.502 14.917zM21.567 22.207L3.341 22.207 3.341 20.385 21.567 20.385zM32.502 11.272L3.341 11.272 3.341 9.449 32.502 9.449z" transform="translate(-5.4 -12.6) rotate(-20 37.376 4.844)"/>
                            </g>
                            <g transform="translate(-5.4 -12.6) rotate(-19 105.895 -69.807)">
                                <path fill="#2B4D66" d="M18.236 15.88l-2.355 2.356c-.228.228-.598.228-.826 0l-1.496-1.496 3.181-3.181 1.496 1.495c.228.229.228.599 0 .827z"/>
                                <path fill="#4A80AA" d="M16.659 16.663L19.359 16.663 19.359 19.362 16.659 19.362z" transform="rotate(-45 18.009 18.013)"/>
                                <path fill="#407093" d="M28.629 26.274l-2.355 2.355c-.228.228-.598.228-.827 0L17.79 20.97c-.228-.228-.228-.598 0-.826l2.355-2.355c.228-.228.598-.228.826 0l7.658 7.657c.228.229.228.599 0 .827z"/>
                                <path fill="#365E7D" d="M28.629 26.274l-.647.647-8.484-8.484.647-.647c.228-.228.598-.228.826 0l7.658 7.657c.228.229.228.599 0 .827z"/>
                                <circle cx="8.999" cy="8.999" r="8.999" fill="#407093"/>
                                <path fill="#365E7D" d="M14.44 1.832c1.15 1.511 1.833 3.397 1.833 5.442 0 4.97-4.03 8.999-9 8.999-2.044 0-3.93-.683-5.44-1.832 1.643 2.16 4.241 3.556 7.166 3.556 4.97 0 8.998-4.029 8.998-8.998 0-2.925-1.395-5.523-3.556-7.167z"/>
                                <circle cx="8.999" cy="8.999" r="6.599" fill="#E4F6FF"/>
                                <path fill="#D3EFFB" d="M12.984 3.739c.84 1.107 1.339 2.488 1.339 3.985 0 3.644-2.955 6.599-6.6 6.599-1.496 0-2.877-.5-3.984-1.34 1.205 1.589 3.112 2.615 5.26 2.615 3.644 0 6.599-2.955 6.599-6.6 0-2.147-1.026-4.054-2.614-5.26z"/>
                            </g>
                            <g>
                                <path fill="#F9BDBD" d="M22.783 0H4.557C2.05 0 .023 2.05.023 4.557L0 41.009c0 2.506 2.028 4.557 4.534 4.557h27.362c2.506 0 4.556-2.05 4.556-4.557v-27.34L22.782 0z" transform="translate(-5.4 -12.6) rotate(10 -318.454 219.264)"/>
                                <path fill="#ED5B5B" d="M32.807 26.428L3.645 26.428 3.645 24.605 32.807 24.605zM32.807 20.96L3.645 20.96 3.645 19.138 32.807 19.138z" transform="translate(-5.4 -12.6) rotate(10 -318.454 219.264)"/>
                                <path fill="#FFE1E1" d="M22.783 13.67L22.783 0 36.452 13.67z" transform="translate(-5.4 -12.6) rotate(10 -318.454 219.264)"/>
                            </g>
                        </g>
                    </g>
                </g>
            </g>
        </g>
    </g>
</svg>
