<svg xmlns="http://www.w3.org/2000/svg" width="34" height="36" viewBox="0 0 34 36">
    <g fill="none" fill-rule="evenodd">
        <g fill-rule="nonzero">
            <g>
                <g>
                    <g>
                        <g>
                            <path fill="#FFD38B" d="M15.782 2.588H6.05c-1.339 0-2.421 1.106-2.421 2.458l-.013 19.663c0 1.352 1.083 2.458 2.421 2.458H20.65c1.338 0 2.433-1.106 2.433-2.458V9.96l-.029-.545c-.197-3.816-3.34-6.813-7.161-6.828h-.11z" transform="translate(-178 -524) translate(156 349) translate(0 167) translate(22 8) translate(7.02 2.985) rotate(-20 13.349 14.877)"/>
                            <g transform="translate(-178 -524) translate(156 349) translate(0 167) translate(22 8) translate(7.02 2.985) translate(7.436 15.311)">
                                <path fill="#2B4D66" d="M12.053 8.424l-1.261 1.273c-.122.123-.32.124-.441.002l-.796-.803 1.705-1.72.795.802c.121.123.12.322-.002.446z" transform="rotate(-19 10.85 8.483)"/>
                                <path fill="#4A80AA" d="M11.501 8.445L12.954 8.438 12.947 9.88 11.494 9.887z" transform="rotate(-64 12.224 9.162)"/>
                                <path fill="#407093" d="M18.633 12.54l-1.262 1.273c-.122.124-.32.124-.44.002l-4.072-4.11c-.122-.123-.121-.322.001-.446l1.262-1.273c.122-.124.32-.124.44-.002l4.072 4.11c.122.123.121.322-.001.446z" transform="rotate(-19 15.746 10.9)"/>
                                <path fill="#365E7D" d="M18.44 12.404l-.347.35-4.51-4.554.346-.35c.122-.124.32-.125.44-.002l4.072 4.11c.122.123.121.322-.001.446z" transform="rotate(-19 16.057 10.255)"/>
                                <ellipse cx="6.119" cy="6.147" fill="#407093" rx="4.802" ry="4.848" transform="rotate(-19 6.119 6.147)"/>
                                <path fill="#365E7D" d="M9.17 2.092c.61.811.97 1.826.967 2.928-.01 2.677-2.168 4.855-4.82 4.865-1.092.004-2.097-.36-2.9-.976.872 1.161 2.256 1.908 3.817 1.902 2.652-.01 4.81-2.188 4.82-4.866.006-1.575-.734-2.972-1.884-3.853z" transform="rotate(-19 6.735 6.451)"/>
                                <ellipse cx="6.119" cy="6.147" fill="#E4F6FF" rx="3.522" ry="3.555" transform="rotate(-19 6.119 6.147)"/>
                                <path fill="#D3EFFB" d="M8.353 3.171c.446.595.71 1.338.707 2.144-.008 1.964-1.59 3.561-3.535 3.569-.8.002-1.535-.264-2.124-.714.64.853 1.656 1.402 2.802 1.398C8.148 9.56 9.73 7.963 9.738 6c.004-1.157-.54-2.183-1.385-2.829z" transform="rotate(-19 6.57 6.37)"/>
                            </g>
                        </g>
                        <path fill="#FFB130" d="M26.949 15.101L11.542 15.125 11.543 14.158 26.95 14.134z" transform="translate(-178 -524) translate(156 349) translate(0 167) translate(22 8) rotate(-20 19.246 14.63)"/>
                        <path fill="#FFB130" d="M22.334 18.824L12.705 18.839 12.707 17.872 22.336 17.857z" transform="translate(-178 -524) translate(156 349) translate(0 167) translate(22 8) rotate(-20 17.52 18.348)"/>
                        <path fill="#FFB130" d="M25.961 12.374L10.554 12.399 10.556 11.432 25.963 11.408z" transform="translate(-178 -524) translate(156 349) translate(0 167) translate(22 8) rotate(-20 18.259 11.903)"/>
                        <g fill="#865700">
                            <path d="M3.98 3.11c-.066.066-.095.162-.08.256l.222 1.294c.018.11-.026.221-.113.284-.085.066-.199.074-.292.021L2.61 4.358c-.039-.022-.082-.034-.125-.035h-.068c-.024.004-.047.012-.068.024l-1.107.61c-.055.03-.117.04-.177.03-.148-.03-.247-.178-.223-.335l.223-1.295c.014-.094-.015-.19-.08-.257l-.903-.921C.007 2.102-.02 1.986.015 1.88c.033-.104.119-.18.222-.197l1.243-.19c.094-.01.177-.07.22-.16L2.246.153c.013-.027.03-.05.05-.071l.022-.019c.012-.014.026-.025.04-.034l.028-.01L2.429 0h.106c.094.01.176.07.22.158l.554 1.176c.04.086.118.146.208.16l1.242.19c.105.016.193.092.228.197.032.106.004.222-.073.298l-.935.931z" transform="translate(-178 -524) translate(156 349) translate(0 167) translate(22 8) translate(0 5)"/>
                        </g>
                        <g fill="#865700">
                            <path d="M3.502 2.357c-.057.05-.083.123-.07.194l.195.981c.017.083-.022.167-.099.215-.075.05-.175.056-.257.016l-.975-.46c-.033-.017-.071-.026-.11-.027h-.06c-.02.003-.04.01-.059.018l-.974.463c-.048.022-.103.03-.156.022-.13-.022-.217-.135-.196-.253l.196-.981C.95 2.473.924 2.4.867 2.349l-.795-.698c-.066-.058-.09-.146-.059-.225.03-.079.105-.137.196-.15l1.093-.143c.083-.008.156-.054.194-.122l.481-.895c.012-.02.026-.039.044-.054l.02-.014c.01-.01.022-.02.036-.026L2.1.014 2.138 0h.092c.083.008.156.053.194.12l.488.891c.035.065.104.11.183.122l1.093.143c.092.012.17.07.2.15.029.08.004.168-.064.225l-.822.706zM10.102 34.568c-.057.05-.083.122-.07.193l.195.981c.017.084-.022.168-.099.216-.075.05-.175.056-.257.016l-.975-.46c-.033-.017-.071-.026-.11-.027h-.06c-.02.003-.04.009-.059.018l-.974.463c-.048.022-.103.03-.156.022-.13-.023-.217-.135-.196-.254l.196-.98c.013-.073-.013-.145-.07-.196l-.795-.698c-.066-.059-.09-.146-.059-.226.03-.079.105-.136.196-.15l1.093-.143c.083-.008.156-.054.194-.121l.481-.896c.012-.02.026-.038.044-.054l.02-.014c.01-.01.022-.019.036-.026l.023-.008.038-.013h.092c.083.007.156.052.194.12l.488.89c.035.066.104.111.183.122l1.093.144c.092.012.17.07.2.15.029.08.004.167-.064.225l-.822.706z" transform="translate(-178 -524) translate(156 349) translate(0 167) translate(22 8) translate(17)"/>
                        </g>
                    </g>
                </g>
            </g>
        </g>
    </g>
</svg>
