<svg xmlns="http://www.w3.org/2000/svg" width="24" height="24" viewBox="0 0 24 24">
    <g fill="none" fill-rule="evenodd">
        <path d="M0 0H24V24H0z"/>
        <g fill-rule="nonzero">
            <path fill="#284E52" d="M4.042 3.313l-.975-.977c-.226-.226-.527-.351-.847-.351-.32 0-.621.125-.847.351l-.707.709c-.465.466-.465 1.224 0 1.69l.977.98c.095.095.22.143.346.143.125 0 .25-.048.346-.143.19-.191 1.515-1.52 1.706-1.71.191-.19.191-.5 0-.692z" transform="translate(4.5 3.75)"/>
            <path fill="#5B787C" d="M7.5.098c-.27 0-.49.219-.49.489v1.565c0 .27.22.49.49.49s.49-.22.49-.49V.587c0-.27-.22-.49-.49-.49z" transform="translate(4.5 3.75)"/>
            <path fill="#BE273D" d="M8.707 0H6.293c-.27 0-.489.219-.489.49 0 .27.22.488.49.488h2.413c.27 0 .489-.219.489-.489S8.976 0 8.706 0z" transform="translate(4.5 3.75)"/>
            <path fill="#D83C3C" d="M7.5 0H6.293c-.27 0-.489.219-.489.49 0 .27.22.488.49.488H7.5V0z" transform="translate(4.5 3.75)"/>
            <path fill="#BE273D" d="M12.804 3.868c-1.417-1.42-3.3-2.201-5.304-2.201-2.004 0-3.887.781-5.304 2.2C.78 5.288 0 7.175 0 9.182s.78 3.894 2.196 5.313c1.417 1.42 3.3 2.202 5.304 2.202 2.004 0 3.887-.782 5.304-2.202C14.22 13.075 15 11.188 15 9.181c0-2.007-.78-3.894-2.196-5.313z" transform="translate(4.5 3.75)"/>
            <path fill="#D83C3C" d="M7.5 1.667c-2.004 0-3.887.781-5.304 2.2C.78 5.288 0 7.175 0 9.182s.78 3.894 2.196 5.313c1.417 1.42 3.3 2.202 5.304 2.202V1.666z" transform="translate(4.5 3.75)"/>
            <path fill="#FFF" d="M7.5 3.54c-3.105 0-5.631 2.53-5.631 5.641s2.526 5.642 5.631 5.642c3.105 0 5.631-2.531 5.631-5.642 0-3.11-2.526-5.642-5.631-5.642z" transform="translate(4.5 3.75)"/>
            <g>
                <path fill="#284E52" d="M5.641 1.24c.27 0 .49-.22.49-.49V.04C5.968.024 5.805.017 5.64.017c-.165 0-.328.007-.489.021V.75c0 .27.22.49.49.49zM5.641 10.08c-.27 0-.489.218-.489.489v.71c.161.015.324.022.49.022.164 0 .327-.007.488-.021v-.711c0-.27-.219-.49-.489-.49zM11.25 5.17h-.7c-.27 0-.489.22-.489.49s.22.489.49.489h.7c.014-.162.021-.325.021-.49 0-.164-.007-.328-.021-.489zM1.221 5.66c0-.27-.219-.49-.489-.49h-.7c-.014.161-.022.325-.022.49 0 .164.008.327.022.489h.7c.27 0 .49-.22.49-.49z" transform="translate(4.5 3.75) translate(1.859 3.522)"/>
                <path fill="#002F34" d="M6.848 5.377h-.69V3.4c0-.27-.22-.49-.49-.49s-.489.22-.489.49v2.467c0 .27.22.49.49.49h1.179c.27 0 .489-.22.489-.49s-.219-.489-.49-.489z" transform="translate(4.5 3.75) translate(1.859 3.522)"/>
            </g>
        </g>
    </g>
</svg>
