<svg xmlns="http://www.w3.org/2000/svg" width="189" height="205" viewBox="0 0 189 205">
    <g fill="none" fill-rule="evenodd">
        <g fill-rule="nonzero">
            <g>
                <g fill="#F0F0F0" transform="translate(-588 -207) translate(588 207) translate(1 94)">
                    <ellipse cx="93.978" cy="55.464" rx="93.667" ry="55.29"/>
                </g>
                <g fill="#E0E0E0" transform="translate(-588 -207) translate(588 207) translate(12 111)">
                    <ellipse cx="28.123" cy="51.675" rx="28.068" ry="16.08"/>
                    <path d="M119.709 76.848c-1.03.012-2.047-.24-2.95-.73L41.481 32.994c-1.136-.541-1.858-1.68-1.858-2.93 0-1.25.722-2.39 1.858-2.93l45.421-26.02c1.845-.978 4.061-.978 5.906 0l75.276 43.12c1.182.677 2.667 1.321 2.667 2.933 0 1.612-1.485 2.238-2.667 2.928l-45.42 26.01c-.905.495-1.923.751-2.956.743z"/>
                </g>
                <g>
                    <g>
                        <path fill="#076449" d="M6.957 36.67L1.42 33.484S-.377 24.87.835 16.225C2.87 1.495 10.892-.708 13.955.335c3.063 1.044 3.966 4.591-1.083 11.873-2.99 4.295-6.62 13.238-5.915 24.461z" transform="translate(-588 -207) translate(588 207) translate(0 103) translate(161.692)"/>
                        <path fill="#FFF" d="M3.476 31.855h.036c.15-.023.253-.16.234-.309-1.613-11.34 2.92-23.785 8.044-28.814.05-.05.08-.12.08-.19 0-.072-.03-.14-.08-.19-.05-.053-.119-.082-.19-.082-.073 0-.142.03-.192.081-5.219 5.119-9.84 17.77-8.206 29.276.02.134.138.232.274.228z" transform="translate(-588 -207) translate(588 207) translate(0 103) translate(161.692)"/>
                        <path fill="#06976D" d="M17.22 42.545c.62.31 2.246-1.097 2.695-1.437.786-.595 1.405-1.382 1.797-2.284.434-1.024.539-2.157.3-3.243-.126-.574-.292-1.138-.498-1.688l-.552-1.648c-.225-.524-.338-1.088-.333-1.657.081-1.147 1.051-1.993 1.932-2.728.974-.815 1.98-1.872 1.9-3.238-.127-1.054-.6-2.037-1.348-2.794-.696-.793-1.514-1.482-2.156-2.324-.497-.586-.78-1.321-.804-2.087.04-.47.175-.927.395-1.344.45-.896 1.029-1.764 1.312-2.736.283-.972.17-2.163-.611-2.808-.647-.529-1.563-.556-2.39-.448-.775.14-1.51.445-2.155.896-2.107 1.32-3.212 3.959-5.47 5.007-.872.407-1.842.537-2.759.833-.916.295-1.837.815-2.223 1.697-.84 1.93 1.145 3.77-.26 5.647-.45.582-1.002 1.053-1.465 1.608-1.307 1.576-1.886 3.229-1.518 5.786.256 1.865 1.322 3.522 2.915 4.532l11.296 6.458z" transform="translate(-588 -207) translate(588 207) translate(0 103) translate(161.692)"/>
                        <path fill="#FFF" d="M11.229 39.446c.15-.014.26-.146.247-.295-1.024-10.7 3.409-22.81 6.912-26.446.076-.068.108-.174.081-.273-.026-.099-.106-.175-.206-.197-.1-.021-.205.015-.27.094-3.571 3.708-8.085 16.02-7.056 26.87.005.072.04.138.094.185.055.046.126.068.198.062z" transform="translate(-588 -207) translate(588 207) translate(0 103) translate(161.692)"/>
                        <path fill="#FFF" d="M12.248 26.244h.081c2.511-.836 5.106-1.396 7.739-1.67.148-.017.255-.149.242-.296-.004-.072-.038-.14-.093-.186-.055-.046-.127-.068-.199-.06-2.68.28-5.321.851-7.878 1.701-.139.054-.209.21-.157.35.044.105.151.17.265.16z" transform="translate(-588 -207) translate(588 207) translate(0 103) translate(161.692)"/>
                    </g>
                    <g>
                        <path fill="#06976D" d="M25.646 32.845l3.508-1.259c.405-4.202.325-8.436-.238-12.62C27.492 9.57 20.66 1.576 14.822.448 7.294-.994 8.444 5.978 12.679 9.09c6.755 4.967 11.93 12.406 12.967 23.754z" transform="translate(-588 -207) translate(588 207) translate(0 103) translate(0 18.81)"/>
                        <g fill="#000" opacity=".2">
                            <path d="M16.663 32.845l3.508-1.259c.405-4.202.325-8.436-.238-12.62C18.509 9.57 11.678 1.576 5.839.448-1.69-.994-.54 5.978 3.696 9.09c6.756 4.967 11.93 12.406 12.967 23.754z" transform="translate(-588 -207) translate(588 207) translate(0 103) translate(0 18.81) translate(8.983)"/>
                        </g>
                        <path fill="#FFF" d="M27.366 32.41h-.04c-.107-.022-.2-.086-.26-.178-.059-.092-.078-.203-.054-.31 1.881-8.598-4.806-24.824-14.22-29.638-.204-.104-.284-.353-.18-.555.104-.203.354-.283.557-.18 9.701 4.963 16.587 21.69 14.646 30.548-.048.203-.241.337-.449.313z" transform="translate(-588 -207) translate(588 207) translate(0 103) translate(0 18.81)"/>
                        <path fill="#06976D" d="M27.887 32.039c.171-1.017.274-2.513.306-2.88.117-1.298-.036-2.606-.45-3.842-.545-1.636-1.638-3.035-3.094-3.964-.79-.488-1.72-.85-2.246-1.63-.449-.672-.449-1.514-.525-2.306-.121-1.3-.49-2.687-1.505-3.494-1.015-.806-2.42-.895-3.714-.779-1.864.144-3.593.345-5.323-.55-1.366-.77-2.779-1.454-4.23-2.047-1.838-.69-5.974-1.716-6.922.86-.22.722-.103 1.505.319 2.131.42.616.932 1.164 1.518 1.626l2.834 2.494c.34.263.63.583.858.945.54.977.103 2.186.198 3.297.132 1.146.763 2.176 1.724 2.817.954.63 2.087.937 3.23.873 1.518-.058 4.042-1.151 4.904.663.243.614.377 1.265.396 1.925.02.663.218 1.308.575 1.868.583.77 1.626 1.016 2.587 1.142 1.347.179 2.73.228 3.98.757.511.215.821.895 1.113 1.343.948-.331 1.999-.68 3.467-1.25z" transform="translate(-588 -207) translate(588 207) translate(0 103) translate(0 18.81)"/>
                        <path fill="#FFF" d="M26.23 32.988c-.144-.014-.267-.107-.319-.242-3.431-9.042-11.592-16.27-22.978-20.354-.192-.073-.29-.286-.22-.48.07-.192.281-.293.476-.228 11.597 4.16 19.915 11.546 23.427 20.798.07.194-.027.409-.22.484-.053.018-.11.025-.166.022z" transform="translate(-588 -207) translate(588 207) translate(0 103) translate(0 18.81)"/>
                    </g>
                </g>
                <g transform="translate(-588 -207) translate(588 207) translate(54 98)">
                    <g>
                        <path fill="#C1C1C1" d="M76.937 85.505L2.147 42.581c-1.1-.712-1.79-1.902-1.86-3.204v-9.745c.07-1.302.76-2.492 1.86-3.204L47.274.53c1.169-.592 2.553-.592 3.721 0l74.79 42.92c1.1.712 1.79 1.902 1.86 3.204v9.745c-.07 1.302-.76 2.492-1.86 3.204L80.659 85.505c-1.17.589-2.552.589-3.721 0z"/>
                        <path fill="#000" d="M127.646 46.654v9.75c-.071 1.3-.762 2.489-1.86 3.199L80.658 85.5c-.572.304-1.212.458-1.86.446V71.928c.647.01 1.288-.142 1.86-.446l45.128-25.898c.963-.552 1.026-1.421.188-2.014.992.73 1.605 1.86 1.672 3.084z" opacity=".2"/>
                        <path fill="#000" d="M78.797 71.928v14.019c-.648.013-1.289-.141-1.86-.446L2.147 42.58c-1.1-.71-1.791-1.898-1.86-3.2v-9.753c.07-1.222.682-2.35 1.671-3.08-.834.593-.766 1.462.189 2.015L76.94 71.487c.571.3 1.21.452 1.856.441z" opacity=".1"/>
                        <path fill="#D7D7D7" d="M125.786 45.584L80.658 71.487c-1.17.588-2.552.588-3.721 0L2.147 28.563c-1.027-.588-1.027-1.547 0-2.135L47.274.53c1.169-.592 2.553-.592 3.721 0l74.79 42.92c1.027.588 1.027 1.555 0 2.134z"/>
                    </g>
                    <ellipse cx="37.74" cy="27.747" fill="#000" opacity=".1" rx="21.257" ry="12.2"/>
                    <ellipse cx="77.394" cy="49.59" fill="#000" opacity=".1" rx="23.889" ry="13.711"/>
                </g>
                <g>
                    <g>
                        <path fill="#276EF1" d="M4.263.383L20.28 9.596c.378.246.616.658.64 1.109v21.873c-.024.449-.264.859-.644 1.1l-2.285 1.284c-.405.2-.88.2-1.284 0L.694 25.74c-.38-.244-.618-.657-.64-1.108V2.758c.024-.448.262-.857.64-1.1L2.984.375c.403-.2.878-.196 1.28.01z" transform="translate(-588 -207) translate(588 207) translate(47)"/>
                        <path fill="#276EF1" d="M17.323 34.583V12.71c-.026-.451-.267-.862-.649-1.104L.694 2.389c-.356-.203-.64-.036-.64.37v21.873c.022.45.26.864.64 1.108l15.98 9.213c.365.203.65.04.65-.37z" transform="translate(-588 -207) translate(588 207) translate(47)"/>
                        <path fill="#000" d="M16.674 34.953c.405.199.88.199 1.285 0l2.284-1.284c.38-.241.62-.651.645-1.1V10.7c-.011-.23-.081-.453-.203-.649l-3.56 2.033c.116.189.181.405.19.626v21.873c.008.375-.253.573-.64.37z" opacity=".2" transform="translate(-588 -207) translate(588 207) translate(47)"/>
                        <path fill="#FFF" d="M.063 2.641c.05-.32.311-.45.631-.252l15.98 9.217c.19.117.345.282.45.478l3.566-2.033c-.11-.185-.266-.34-.451-.45L4.263.378c-.402-.203-.877-.203-1.28 0L.694 1.663c-.342.22-.572.576-.63.978z" opacity=".4" transform="translate(-588 -207) translate(588 207) translate(47)"/>
                        <path fill="#276EF1" d="M22.645 26.926c.401-.24 3.407-1.934 3.506-1.988.15-.093.249-.247.273-.421.025-.174-.03-.35-.146-.48l-5.435-6.793-3.52 1.997 5.435 6.788c.113.13.165.302.143.473-.021.171-.114.325-.256.424z" transform="translate(-588 -207) translate(588 207) translate(47)"/>
                        <path fill="#FFF" d="M22.645 26.926c.401-.24 3.407-1.934 3.506-1.988.15-.093.249-.247.273-.421.025-.174-.03-.35-.146-.48l-5.435-6.793-3.52 1.997 5.435 6.788c.113.13.165.302.143.473-.021.171-.114.325-.256.424z" opacity=".4" transform="translate(-588 -207) translate(588 207) translate(47)"/>
                        <path fill="#276EF1" d="M17.323 19.246l5.435 6.76c.16.159.212.396.134.607-.08.211-.274.357-.499.371l-5.07.55v-8.288z" transform="translate(-588 -207) translate(588 207) translate(47)"/>
                        <path fill="#FAFAFA" d="M7.089 15.14c0-1.262.667-1.902 1.487-1.43.82.474 1.483 1.88 1.483 3.156 0 1.275-.663 1.902-1.483 1.429-.82-.474-1.487-1.893-1.487-3.155zM10.365 26.349L6.76 24.267c-.565-.456-.867-1.161-.807-1.884l.171-1.948c.122-1.406.942-2.041 1.911-1.482l1.055.608c.969.564 1.802 2.141 1.91 3.691l.172 2.146c.094.784-.302 1.235-.807.95zM10.95 14.95c0-1.388.731-2.091 1.632-1.568.902.523 1.632 2.069 1.632 3.452 0 1.384-.73 2.092-1.632 1.573-.901-.518-1.631-2.069-1.631-3.457zM14.461 27.205l-2.383-1.379-.172-2.136c-.126-1.57-.709-3.067-1.676-4.31.175-.27.454-.454.771-.51.317-.057.643.02.9.213l1.168.672c1.064.617 1.96 2.348 2.096 4.056l.189 2.353c.067.879-.352 1.352-.893 1.041zM6.43 12.845c0-1.32-.693-2.79-1.55-3.28-.856-.492-1.55.17-1.55 1.491 0 1.32.694 2.786 1.55 3.281.857.496 1.55-.171 1.55-1.492z" transform="translate(-588 -207) translate(588 207) translate(47)"/>
                        <path fill="#FAFAFA" d="M7.116 17.853c-.843.036-1.474.86-1.595 2.253l-.163 1.84-2.253-1.308c-.6-.471-.92-1.214-.852-1.974l.18-2.024c.127-1.473.983-2.131 1.992-1.55l1.105.64c.744.517 1.301 1.262 1.586 2.123z" transform="translate(-588 -207) translate(588 207) translate(47)"/>
                    </g>
                    <g>
                        <path fill="#276EF1" d="M10.559 15.243V8.875l-5.376-.451c-.078-.01-.157.006-.226.045C4.75 8.582.42 11.074.352 11.115c-.102.06-.17.164-.188.281-.016.117.021.236.102.323l5.696 6.183 4.597-2.659z" transform="translate(-588 -207) translate(588 207) translate(47) translate(106.354 25.24)"/>
                        <path fill="#276EF1" d="M5.962 17.884L.266 11.72c-.11-.119-.137-.293-.066-.44.071-.145.224-.232.386-.218l5.376.45v6.373z" transform="translate(-588 -207) translate(588 207) translate(47) translate(106.354 25.24)"/>
                        <path fill="#276EF1" d="M10.554 8.875l-4.592 2.64-5.376-.45c-.063-.005-.126.004-.185.027.428-.252 4.362-2.515 4.556-2.619.069-.038.148-.054.226-.045l5.371.447z" transform="translate(-588 -207) translate(588 207) translate(47) translate(106.354 25.24)"/>
                        <path fill="#FFF" d="M10.554 8.875l-4.592 2.64-5.376-.45c-.063-.005-.126.004-.185.027.428-.252 4.362-2.515 4.556-2.619.069-.038.148-.054.226-.045l5.371.447z" opacity=".5" transform="translate(-588 -207) translate(588 207) translate(47) translate(106.354 25.24)"/>
                        <path fill="#276EF1" d="M10.108.316l15.994 9.212c.376.248.613.66.64 1.109V32.51c-.023.45-.264.86-.645 1.1l-2.289 1.284c-.403.2-.877.2-1.28 0L6.534 25.691c-.376-.246-.614-.656-.64-1.104V2.704c.026-.449.266-.858.645-1.1l2.29-1.28c.4-.205.875-.208 1.28-.008z" transform="translate(-588 -207) translate(588 207) translate(47) translate(106.354 25.24)"/>
                        <path fill="#276EF1" d="M23.168 34.52V12.643c-.025-.448-.26-.858-.635-1.105L6.534 2.321c-.351-.203-.64-.036-.64.37v21.878c.02.455.259.873.64 1.122l15.999 9.199c.347.203.635.036.635-.37z" transform="translate(-588 -207) translate(588 207) translate(47) translate(106.354 25.24)"/>
                        <path fill="#000" d="M22.533 34.89c.404.196.876.196 1.28 0l2.289-1.285c.378-.24.618-.647.644-1.095V10.637c-.01-.232-.081-.458-.207-.654l-3.556 2.033c.117.189.182.405.19.627v21.873c-.005.374-.27.59-.64.374z" opacity=".2" transform="translate(-588 -207) translate(588 207) translate(47) translate(106.354 25.24)"/>
                        <path fill="#FFF" d="M5.904 2.578c.05-.324.315-.45.63-.257l15.999 9.217c.187.12.342.284.45.478l3.56-2.033c-.11-.185-.265-.34-.45-.45L10.108.316c-.403-.2-.877-.2-1.28 0L6.54 1.6c-.342.22-.573.576-.635.978z" opacity=".4" transform="translate(-588 -207) translate(588 207) translate(47) translate(106.354 25.24)"/>
                        <path fill="#FFF" d="M7.981 16.771l.672 2.254c.051.128.162.222.297.252l1.325.32c.14.037.26.126.338.248.21.428.448.842.712 1.24.07.103.097.228.077.351l-.429 1.456c-.017.125.026.25.118.338l1.55 1.64c.051.071.143.099.225.068.013-.008.024-.019.032-.031l.725-1.105c.05-.08.18-.072.298 0 .117.072.288.185.428.266.14.081.297.167.45.24.134.061.243.166.311.297l.762 2.05c.062.118.179.198.311.212l1.41.14c.042.017.09.017.131 0 .049-.028.073-.085.059-.14l-.45-2.019c-.02-.11.043-.216.148-.252.222-.087.43-.209.613-.361.105-.056.235-.034.315.054l1.442 1.316c.042.044.098.071.158.077h.054c.015-.01.028-.024.036-.04l.645-1.42c.029-.119-.004-.244-.086-.334l-1.352-1.64c-.084-.1-.13-.226-.13-.357.033-.387.033-.776 0-1.163-.002-.053.02-.105.058-.143.038-.037.09-.057.144-.055l1.212-.067c.122 0 .199-.1.163-.203l-.667-2.254c-.053-.126-.164-.219-.298-.248l-1.325-.32c-.14-.038-.26-.128-.338-.252-.21-.427-.448-.84-.712-1.235-.068-.104-.096-.229-.076-.352l.45-1.46c.01-.126-.035-.25-.121-.343l-1.55-1.636c-.09-.094-.208-.112-.262-.031l-.721 1.1c-.05.08-.18.072-.302 0-.276-.193-.567-.363-.87-.51-.134-.06-.244-.165-.31-.297l-.762-2.051c-.062-.118-.179-.197-.311-.212l-1.41-.14c-.043-.014-.09-.014-.131 0-.053.025-.08.084-.064.14l.451 2.02c.018.107-.042.213-.144.252-.224.085-.433.207-.618.36-.104.058-.235.036-.315-.054l-1.442-1.316c-.077-.067-.153-.09-.207-.063-.018.009-.032.023-.04.04l-.64 1.42c-.03.12 0 .245.08.338l1.352 1.632c.084.102.13.229.13.36 0 .194-.026.397-.026.6 0 .203 0 .374.031.563 0 .055-.022.106-.06.144-.04.037-.093.057-.147.055l-1.208.067c-.028-.005-.057-.005-.085 0-.04.012-.074.039-.093.075-.02.037-.023.08-.01.12zm5.309 4.12c-1.447-1.524-2.132-3.836-1.532-5.156.18-.48.603-.824 1.108-.902h.167c.346-.007.688.067 1 .216.123.052.242.113.356.18.395.237.755.529 1.068.866 1.042 1.085 1.662 2.506 1.749 4.007.002.137-.006.274-.023.41-.026.255-.091.504-.193.74-.215.546-.743.904-1.33.9h-.28l-.12-.022h-.136c-.716-.232-1.352-.662-1.834-1.24z" transform="translate(-588 -207) translate(588 207) translate(47) translate(106.354 25.24)"/>
                    </g>
                </g>
                <g>
                    <path fill="#B16668" d="M19.997 22.106c-2.939.583-4.84 2.145-5.473 6.786-.753 5.575-1.955 14.143-1.955 14.143S8.663 54.19 6.672 56.694c-.573.669-1.208 1.28-1.898 1.826-1.83 2.312-6.088 3.851-4.155 5.153 1.483.997 3.723 1.194 5.843 0 2.864-1.607 4.036-3.46 5.456-5.835 1.782-2.958 7.897-14.026 7.897-14.026l.182-21.706z" transform="translate(-588 -207) translate(588 207) translate(106 22)"/>
                    <path fill="#B16668" d="M7.38 55.594c-.379.637-1.684.794-2.926 1.046-1.243.251-2.196.987-3.06 1.167-.744.152-.53 1.046.797 1.117 1.327.072 2.89-.947 3.15 0 .257.947 2.711-1.633 2.039-3.33z" transform="translate(-588 -207) translate(588 207) translate(106 22)"/>
                    <path fill="#EBEBEB" d="M9.976 49.543l-.792 1.859c1.269.085 4.355 1.638 4.899 2.693l1.091-1.912-5.198-2.64z" transform="translate(-588 -207) translate(588 207) translate(106 22)"/>
                    <path fill="#001443" d="M19.997 22.106s-2.988-.095-4.431 2.49C14.123 27.183 12.337 43 12.337 43l-2.882 7.366c1.216-.085 4.94 1.827 5.42 2.99L19.9 45.06l.098-22.954z" transform="translate(-588 -207) translate(588 207) translate(106 22)"/>
                    <path fill="#B16668" d="M33.728 118.293H38.088V125.816H33.728zM20.706 115.057L16.35 115.205 16.132 107.247 20.706 107.094z" transform="translate(-588 -207) translate(588 207) translate(106 22)"/>
                    <path fill="#001443" d="M37.928 54.705c0 4.197-.169 38.484-.169 38.484.103 1.208 1.256 3.358 1.336 7.707.134 6.284-.828 21.158-.828 21.158-1.524.756-3.302.792-4.855.1 0 0-3.425-21.016-4.209-27.255-.681-5.449-2.578-29.884-2.578-29.884l-3.336 23.241c.506 2.291.689 4.642.543 6.984-.205 2.886-2.86 17.348-2.86 17.348-1.536.877-3.38 1.02-5.032.39 0 0-.258-22.702-.312-25.35-.058-3.02.628-33.83.628-33.83l21.672.907z" transform="translate(-588 -207) translate(588 207) translate(106 22)"/>
                    <path fill="#263238" d="M33.728 123.648v-.629c-.236 0-.378.23-.467.795-.067.404-.125.714-.258 1.243-.193.768-.447 1.519-.762 2.244-.615 1.53-1.131 2.101-2.543 3.892-.476.496-.923 1.02-1.336 1.57-.263.472-.357 1.796.089 2.092 1.648 1.105 4.146 1.136 5.914.61 1.348-.375 2.353-1.51 2.57-2.903.063-.404.04-.822.085-1.23.155-.926.529-1.8 1.091-2.55.33-.432.611-.898.842-1.39.365-.899.071-1.917-.165-2.82-.2-.776-.419-1.629-.681-1.557v.48c-.317.355-1.194.705-2.183.74-.655.032-2.2-.098-2.196-.587zM16.305 113.85c0 .116-.405.475-.89.897-.478.416-.978.805-1.497 1.167-1.061.781-2.176 1.486-3.336 2.11-1.376.763-2.619 1.225-4.267 1.975-.168.07-.32.176-.445.31-.101.117-.17.26-.2.412-.1.64.168 1.28.69 1.657.516.364 1.101.617 1.72.74 1.397.397 2.87.442 4.288.13 1.168-.352 2.27-.895 3.265-1.607.883-.628 1.888-1.064 2.948-1.279.927-.134 2.062-.09 2.864-.646.89-.62.534-1.94.285-3.075-.276-1.238-.62-3.173-1.029-3.088v.45c-.52.798-3.229 1.126-4.378.538l-.018-.691z" transform="translate(-588 -207) translate(588 207) translate(106 22)"/>
                    <path fill="#163785" d="M26.634 65.015c-2.256-.713-4.33-1.916-6.075-3.523 0 0 1.171 2.213 4.658 4.268L23.53 86.968l3.105-21.953z" transform="translate(-588 -207) translate(588 207) translate(106 22)"/>
                    <path fill="#F5F5F5" d="M30.366 22.514c1.483.36 4.476.853 5.144 3.833.806 3.591 1.069 11.365 1.069 11.365l.276 17.334C33.853 57.25 22.202 58.45 15.882 53.8c0 0 1.394-20.813 1.394-24.054 0-3.24 1.782-7.128 6.721-7.42l6.369.19z" transform="translate(-588 -207) translate(588 207) translate(106 22)"/>
                    <path fill="#001443" d="M24.05 21.993c-1.141 1.41-1.976 3.047-2.45 4.803-.596 2.621-1.162 32.37-1.162 32.37s-3.371-.412-4.814-1.552c0 0-.294-24.314.307-28.093 1.074-6.684.993-7.348 8.12-7.976v.448zM31.666 21.545s-4.11 2.545-4.155 12.684c-.04 8.761.094 26.194.094 26.194s6.823.45 11.134-2.167c0 0-.89-11.069-.958-17.259 1.782-8.788 3.34-17.356.833-18.052-2.507-.696-6.948-1.4-6.948-1.4z" transform="translate(-588 -207) translate(588 207) translate(106 22)"/>
                    <path fill="#163785" d="M32.125 27.101L30.246 29.449 31.185 32.124 28.714 38.511 31.698 32.124 30.651 29.601zM18.853 26.347L19.263 28.775 17.633 30.912 19.899 38.107 18.145 30.993 19.65 28.995z" transform="translate(-588 -207) translate(588 207) translate(106 22)"/>
                    <path fill="#263238" d="M29.306 7.33c.002 2.444-1.458 4.648-3.698 5.584-2.24.937-4.819.421-6.534-1.306-1.716-1.728-2.23-4.327-1.302-6.585.928-2.258 3.114-3.73 5.54-3.73 3.308 0 5.991 2.702 5.994 6.037zM33.67 11.625s-.97 4.596-1.362 5.35c-.258.468-.686.817-1.194.974l.071-3.236 2.486-3.088zM32.45 5.036c.682-.074 1.361.168 1.844.66.802.826.352 3.402-.641 5.93l-1.83.21.627-6.8z" transform="translate(-588 -207) translate(588 207) translate(106 22)"/>
                    <path fill="#B16668" d="M31.292 11.836c.365.22.891-.49 1.336-.965.446-.476 1.929-1.127 2.673.449.743 1.575-.65 3.698-1.813 4.066-2.004.633-2.303-.66-2.303-.66l-.151 8.246c-1.385 1.795-4.494 3.896-6.169 3.59-1.336-.242-1.63-2.517-.351-4.008v-2.957c-.889.148-1.79.199-2.69.152-1.475-.229-2.406-1.4-2.846-3.007-.677-2.455-.891-5.211-.383-9.745.628-5.57 7.09-5.619 10.555-3.42 3.465 2.2 2.142 8.259 2.142 8.259z" transform="translate(-588 -207) translate(588 207) translate(106 22)"/>
                    <path fill="#263238" d="M31.292 12.46c.183 0 .891-1.172 1.336-1.589.633-.579-.182-5.835-.182-5.835.445-.946.268-2.07-.446-2.832-.864-.965-2.075-2.137-6.003-1.67-2.806.337-5.857 1.216-8.32 0-.465 1.656.113 3.432 1.46 4.489 0 0 .892.579 3.239.866 2.166.165 4.344.123 6.502-.126.682-.09.824.575 1.194 2.388.334 1.593.601 4.295 1.22 4.309z" transform="translate(-588 -207) translate(588 207) translate(106 22)"/>
                    <path fill="#263238" d="M32.446 5.444l2.227-1.198c-.144-.304-.404-.536-.721-.64-.318-.106-.664-.076-.958.084-.613.348-.852 1.115-.548 1.754z" transform="translate(-588 -207) translate(588 207) translate(106 22)"/>
                    <path fill="#9A4A4D" d="M24.518 19.588s3.291-.67 4.454-1.284c.675-.355 1.227-.908 1.585-1.585-.17.677-.472 1.312-.89 1.868-.842 1.081-5.127 1.948-5.127 1.948l-.022-.947z" transform="translate(-588 -207) translate(588 207) translate(106 22)"/>
                    <path fill="#263238" d="M24.206 10.822c.017.362.32.644.68.632.359-.011.643-.311.638-.674-.006-.362-.299-.654-.659-.654-.372.01-.666.32-.659.696zM24.772 8.874l1.407.785c.208-.41.054-.911-.347-1.13-.186-.1-.403-.118-.602-.053-.2.065-.365.209-.458.398z" transform="translate(-588 -207) translate(588 207) translate(106 22)"/>
                    <path fill="#9A4A4D" d="M24.816 15.597l-1.505.561c.067.206.213.376.407.47.193.095.416.107.617.033.415-.17.625-.637.481-1.064z" transform="translate(-588 -207) translate(588 207) translate(106 22)"/>
                    <path fill="#263238" d="M18.844 9.367l1.479-.673c-.074-.204-.229-.368-.427-.453-.198-.085-.423-.083-.62.004-.424.192-.617.692-.432 1.122zM19.151 10.822c.017.362.32.644.68.632.359-.011.643-.311.638-.674-.006-.362-.299-.654-.659-.654-.372.01-.666.32-.659.696z" transform="translate(-588 -207) translate(588 207) translate(106 22)"/>
                    <path fill="#9A4A4D" d="M22.282 10.463L22.068 14.457 19.997 13.744z" transform="translate(-588 -207) translate(588 207) translate(106 22)"/>
                    <path fill="#37474F" d="M22.47 26.096c.405.965 1.148 1.346 2.502 1.512 1.373.098 2.725-.375 3.742-1.31l-1.279-1.284-2.538 1.216-.69-1.633-1.738 1.499z" transform="translate(-588 -207) translate(588 207) translate(106 22)"/>
                    <path fill="#ED5B5B" d="M23.53 25.584c-.195.577-.27 1.188-.223 1.796.063.549.27 1.07.6 1.512.433.28.971.338 1.453.157.878-.758 1.384-1.864 1.385-3.03l-1.848.211-1.368-.646z" transform="translate(-588 -207) translate(588 207) translate(106 22)"/>
                    <path fill="#ED5B5B" d="M23.908 28.892c-1.439 5.683-2.307 15.35-2.133 16.325.173.974 1.256 4.488 2.088 4.488.833 0 2.299-3.478 2.187-4.367-.21-1.692-1.038-16.455-.69-16.302l-1.452-.144z" transform="translate(-588 -207) translate(588 207) translate(106 22)"/>
                    <path fill="#ED5B5B" d="M25.36 29.05c-.477.212-1.03.152-1.452-.158l-.05.189c.369.387.922.531 1.43.372l.072-.404z" transform="translate(-588 -207) translate(588 207) translate(106 22)"/>
                    <path fill="#E0E0E0" d="M24.897 26.23c2.61-1.324 5.763-3.258 6.181-5.386l.023-1.185s1.024.328 1.291 2.065c-.222 2.603-2.017 5.279-4.351 6.62l-1.296-2.311-1.848.197zM24.523 20.404c-.421.175-.785.464-1.052.835-1.563 2.1-1.416 5.692-1.416 5.692l1.474-1.347 1.368.664c-.51-1.156-.645-2.446-.383-3.685l.009-2.159z" transform="translate(-588 -207) translate(588 207) translate(106 22)"/>
                    <path fill="#B16668" d="M38.61 22.963c2.04.53 3.39.696 4.788 3.384 1.216 2.339 6.827 12.119 8.016 14.466.597 1.163 1.19 2.492-.387 4.103-1.265 1.284-9.589 9.16-10.947 10.507-.977 1.044-2.304 1.684-3.724 1.796-2.115.188-3.149-.566-3.523-1.028-2.227-2.778 2.049-3.2 3.523-4.12.683-.421 1.293-.95 1.808-1.567l-.089-1.472s1.56 0 2.058-.4c.499-.4 4.94-6.216 4.94-6.216s-6.352-8.425-7.167-10.189c-.815-1.764-1.741-7.909.704-9.264z" transform="translate(-588 -207) translate(588 207) translate(106 22)"/>
                    <path fill="#EBEBEB" d="M41.273 46.936l-1.02 1.41c-.04.897.256 1.778.829 2.468.592.766 1.355 1.381 2.227 1.795l1.336-1.297-3.372-4.376z" transform="translate(-588 -207) translate(588 207) translate(106 22)"/>
                    <path fill="#001443" d="M40.685 47.474s.33 3.69 3.488 4.709c0 0 7.509-7.222 8.212-8.2.704-.98.214-2.007-1.296-4.678-1.51-2.67-7.442-13.573-8.426-14.708-.985-1.136-2.575-1.347-4.86-1.84-1.116 2.063-1.453 4.464-.948 6.759.89 3.69 1.706 4.668 1.706 4.668l5.83 8.326-3.706 4.964z" transform="translate(-588 -207) translate(588 207) translate(106 22)"/>
                </g>
                <g>
                    <g>
                        <path fill="#37474F" d="M17.728 105.742c.027.463-.09.924-.336 1.318-.618 1.027-1.346 1.982-2.172 2.85-1.162 1.25-2.903 2.727-4.15 3.812-.691.606-.718 1.521.273 1.84 1.848.453 3.799.182 5.452-.759 1.238-.664 3.002-3.736 4.038-4.203 1.18-.534 1.844-.803 2.244-1.346.597-.816.75-1.426.238-2.377-.557-1.037-1.396-2.638-1.741-2.463l.107.332c-.269.847-2.58 1.834-3.764 1.597l-.189-.601zM26.774 111.484v-.57c-.112.866-1.26 3.526-2.831 4.962-1.252 1.14-2.957 2.453-3.392 3.723-.436 1.27 2.014 1.848 3.63 1.687 1.57-.193 3.017-.95 4.07-2.131 1.027-1.175 1.009-1.983 1.49-2.629.48-.646 1.583-1.377 1.843-2.126.144-.413-.027-1.315-.229-2.077-.202-.763-.381-1.472-.619-1.409v.449c-.565.443-1.265.678-1.983.668-.579.009-1.983-.108-1.979-.547z" transform="translate(-588 -207) translate(588 207) translate(19 11) translate(48.909)"/>
                        <path fill="#FFA8A7" d="M33.271 69.983c.58-5.675 1.741-14.679.45-21.035-6.561-.992-13.058-1.88-19.69-2.692-1.597 8.236-2.36 30.173-1.521 33.246 2.324 9.421 3.513 16.455 4.9 25.85.128.628.02 1.281-.305 1.834-.526.916-1.155 1.768-1.876 2.54-.556.591-1.081 1.25-1.683 1.83-.12.116-.185.28-.175.448.113.897 1.41.754 2.316.449 1.147-.43 2.141-1.192 2.853-2.19.606-.771 1.795-2.166 2.423-2.992.25-.316.47-.655.656-1.014.211-.47.254-1 .12-1.498-.024-.13-.042-.262-.053-.395-.036-1.287 1.247-15.302.866-18.5-.417-3.473-.898-4.46-2.06-7.362.817-5.98 1.589-12.323 2.387-18.393.14 6.559.166 14.042 1.01 20.335.673 5.038 1 8.524 1.535 13.459.511 4.733 1.13 13.458 1.189 14.754.05.819.025 1.64-.072 2.454-.393 1.815-1.293 3.48-2.594 4.805-.3.274-.628.556-.955.843-.665.74-.476 1.387 1.085 1.521 1.562.135 2.94-.807 4.124-2.243.53-.646 2.535-3.957 2.535-4.63v-.542c.012-1.233.122-2.463.328-3.679.655-3.876 2.064-10.865 2.297-13.965.373-4.935 0-7.317-1.252-11.215.476-4.845.597-6.51 1.162-12.023z" transform="translate(-588 -207) translate(588 207) translate(19 11) translate(48.909)"/>
                        <path fill="#001443" d="M14.92 42.78C13.8 47 13.04 51.31 12.652 55.658c-.57 6.89-1.166 20.905-.897 22.287.27 1.381 4.312 18.716 4.312 18.716 1.07.522 2.278.693 3.45.489.984-.212 1.912-.625 2.729-1.212 0 0 .87-7.882.547-10.955-.323-3.073-1.862-6.729-1.862-6.729l1.952-18.173s-.242 10.812.359 17.133c.601 6.32 2.602 21.048 2.602 21.048.786.866 1.91 1.346 3.078 1.315 1.278-.017 2.534-.335 3.666-.929 0 0 .71-3.284 1.005-5.877.418-3.543.05-7.135-1.076-10.52 0 0 1.494-17.235 2.019-20.999.525-3.764 1.88-10.515-2.423-16.764-.418-.175-17.195-1.71-17.195-1.71z" transform="translate(-588 -207) translate(588 207) translate(19 11) translate(48.909)"/>
                        <path fill="#263238" d="M22.884 60.082v-.812s-4.038-1.265-5.981-3.764c0 0 .928 2.373 4.935 4.576 0 0-.085 10.641-.076 10.529.01-.112 1.122-10.529 1.122-10.529z" transform="translate(-588 -207) translate(588 207) translate(19 11) translate(48.909)"/>
                        <path fill="#FFA8A7" d="M12.685 25.297c-1.44 4.24-3.846 16.42-3.846 16.42S4.352 48.26 2.818 50.14C2.05 51.088.39 52.967.39 52.967l3.756 2.952c2.72-3.14 6.82-7.308 8.525-9.47.808-1.036 1.481-1.925 1.696-2.835l1.71-10.834s0-8.658 1.346-9.798c1.346-1.14 1.705-1.373 1.705-1.373-1.736-.12-5.312.373-6.443 3.688z" transform="translate(-588 -207) translate(588 207) translate(19 11) translate(48.909)"/>
                        <path fill="#001443" d="M19.878 21.488c-2.343-.269-5.34-.224-6.803 2.396S9.176 39.998 9.176 39.998s2.302 1.794 4.792 1.763l5.91-20.273z" transform="translate(-588 -207) translate(588 207) translate(19 11) translate(48.909)"/>
                        <path fill="#001443" d="M13.367 34.094c.423 2.017.588 4.08.489 6.137-.188 2.692-2.113 7.671-2.113 7.671s1.516 1.378 5.644.732c3.357-.525 2.172-10.655.243-12.615-1.126-1.16-2.65-1.847-4.263-1.925z" transform="translate(-588 -207) translate(588 207) translate(19 11) translate(48.909)"/>
                        <path fill="#ED5B5B" d="M25.877 21.681s5.609.646 6.282.947c-5.26 3.696-1.001 11.928-1.001 11.928l-2.015 6.312c1.293 1.66 2.486 2.925 3.491 4.311.783 1.045 1.416 2.194 1.88 3.414 1.346 3.513-13.663 9.094-21.856 2.625.327-2.033.848-4.146 1.315-6.039.641-2.624 1.189-4.836 1.005-5.863-2.356-7.254-2.5-8.56-2.082-10.179 1.175-4.553 5.833-7.626 6.964-7.626l6.017.17z" transform="translate(-588 -207) translate(588 207) translate(19 11) translate(48.909)"/>
                        <path fill="#001443" d="M25.877 21.681s5.25.449 6.282.947c1.032.498 2.741 3.445 1.207 7.747-1.535 4.302-2.921 9.354-2.764 10.372.157 1.018 3.814 6.28 3.814 6.28-1.064.687-2.19 1.4-3.366 1.616l-1.884-4.105.448 4.347s-3.37.816-5.779.61c-.004 0-1.786-16.68 2.042-27.814z" transform="translate(-588 -207) translate(588 207) translate(19 11) translate(48.909)"/>
                        <path fill="#263238" d="M12.564 20.116h8.687c2.744 0 5.376-1.09 7.316-3.03 1.94-1.94 3.03-4.572 3.03-7.315-.002-5.254-4.261-9.513-9.516-9.515-2.524 0-4.945 1.002-6.73 2.787-1.785 1.784-2.787 4.204-2.787 6.728v10.345z" transform="translate(-588 -207) translate(588 207) translate(19 11) translate(48.909)"/>
                        <path fill="#FFA8A7" d="M16.203 4.553c-1.01.593-2.244 3.14-2.127 8.42.103 4.487 1.561 5.6 2.293 5.922.731.323 2.14.126 3.509-.103v2.692s-1.894 2.198-1.795 3.436c.098 1.238 2.732 1.525 4.487.319 1.754-1.207 3.266-3.562 3.266-3.562l-.027-6.196s.804.781 2.172-.412c1.13-.987 1.512-2.652.633-3.549-.464-.434-1.108-.618-1.73-.494-.624.123-1.149.54-1.411 1.118 0 0-.763-2.113-3.922-3.14-2.804-.929-4.352-2.006-5.348-4.45z" transform="translate(-588 -207) translate(588 207) translate(19 11) translate(48.909)"/>
                        <path fill="#263238" d="M19.213 11.664c-.002.309.245.562.554.569.31.006.566-.237.577-.546.01-.31-.23-.57-.538-.584-.318-.007-.583.243-.593.56z" transform="translate(-588 -207) translate(588 207) translate(19 11) translate(48.909)"/>
                        <path fill="#F28F8F" d="M18.94 15.652l-1.31.417c.046.178.164.33.325.418.161.09.352.108.527.053.368-.124.57-.517.458-.888z" transform="translate(-588 -207) translate(588 207) translate(19 11) translate(48.909)"/>
                        <path fill="#263238" d="M14.641 10.318l1.144-.794c-.096-.155-.252-.264-.431-.3-.18-.037-.366.002-.515.107-.318.224-.405.658-.198.987zM20.735 10.529l-1.145-.794c.099-.155.255-.263.435-.3.18-.036.366.003.517.107.316.225.4.659.193.987zM14.942 11.538c-.002.309.244.562.552.569.309.007.566-.235.578-.543.012-.308-.225-.57-.533-.587-.32-.007-.585.243-.597.561z" transform="translate(-588 -207) translate(588 207) translate(19 11) translate(48.909)"/>
                        <path fill="#F28F8F" d="M17.665 11.112L17.576 14.512 15.785 13.956zM19.878 18.792c1.444-.193 4.42-1.045 4.881-2.243-.186.594-.549 1.117-1.04 1.499-.898.762-3.841 1.619-3.841 1.619v-.875z" transform="translate(-588 -207) translate(588 207) translate(19 11) translate(48.909)"/>
                        <path fill="#FFA8A7" d="M39.257 42.17c.413-2.477 0-3.285-.875-5.712l-4.868 2.845s.713 1.825.655 2.866c-.04.709-1.01 7.802-1.925 10.273-.166.436-.485.797-.898 1.014-1.108.592-1.584 1.243-2.436 2.023-.673.61-1.216.736-1.149.951.218.494.78.736 1.288.557.546-.175 1.07-.413 1.562-.71-.435.934-1.017 1.791-1.723 2.54-1.611 1.718-1.755 2.835 1.247 3.069 1.875.143 3.46-.898 5.156-4.935.528-1.485.962-3.001 1.3-4.54.907-3.558 2.249-7.757 2.666-10.242z" transform="translate(-588 -207) translate(588 207) translate(19 11) translate(48.909)"/>
                        <path fill="#001443" d="M32.154 22.628c2.113.95 2.827 2.777 3.917 5.643 1.019 2.692 3.276 10.915 3.276 10.915s-2.558 2.526-5.492 1.794l-3.743-9.129s-1.758-5.966 2.042-9.223z" transform="translate(-588 -207) translate(588 207) translate(19 11) translate(48.909)"/>
                    </g>
                    <g>
                        <path fill="#263238" d="M5.245 109.263c-.318.121-.502.727-.646 2.203-.09.897-.4 2.122.996 2.862 1.036.534 2.269.522 3.294-.032 1.207-.749 1.584-2.458 3.002-3.588 1.243-.974 3.24-1.947 3.935-3.45.574-1.238.574-3.01-1.485-2.916-2.509.117-3.931 2.095-5.632 2.135-.95.036-3.14 2.67-3.464 2.786z" transform="translate(-588 -207) translate(588 207) translate(19 11) translate(0 34.543)"/>
                        <path fill="#FFBDA7" d="M5.25 108.536v1.49c0 .726 3.096 1.794 3.962.148.067-.144.404-2.18.404-2.18l-4.366.542z" transform="translate(-588 -207) translate(588 207) translate(19 11) translate(0 34.543)"/>
                        <path fill="#263238" d="M19.595 117.93s-.588 0-.817 2.4c-.09.897-.31 2.79 0 3.473.31.681 2.006.977 3.904 1.148 1.418.126 2.692.812 4.007 1.552 1.243.701 2.639 1.086 4.065 1.122 1.795 0 3.316-.18 4.595-1.194.682-.538 1.543-1.673.897-2.525-.263-.26-.597-.437-.96-.507-.799-.296-1.602-.57-2.418-.826-1.217-.358-2.405-.807-3.554-1.346-1.674-.825-3.54-1.75-4.806-3.162l-4.913-.135z" transform="translate(-588 -207) translate(588 207) translate(19 11) translate(0 34.543)"/>
                        <path fill="#FFBDA7" d="M19.604 116.688v1.736c0 .632.736 1.574 2.665 1.516 1.346-.04 2.302-.4 2.244-1.516v-1.61l-4.91-.126z" transform="translate(-588 -207) translate(588 207) translate(19 11) translate(0 34.543)"/>
                        <path fill="#6487D9" d="M4.384 88.78c.342-2.634.943-5.228 1.795-7.743 0 0-.498-6.694-.718-13.037-.2-6.5-.018-13.005.543-19.483 0 0 21.537-2.046 21.91 5.877.372 7.922-.157 28.07-.449 31.546-.292 3.477-.556 6.73-1.292 13.207-.633 5.572-1.656 17.666-1.656 17.666-1.562.788-3.415.741-4.936-.125 0 0-1.624-16.24-1.794-20.25-.243-5.204.973-8.076.973-8.076s-.448-3.27-1.265-10c-.565-4.754-1.32-10.169-1.32-10.169s-.735 6.702-1.184 10.44c-.413 3.462-1.117 6.199-2.158 12.654-.897 5.603-3.36 17.456-3.36 17.456-2.536 1.346-4.232-.207-4.232-.207S3.675 93.638 4.384 88.78z" transform="translate(-588 -207) translate(588 207) translate(19 11) translate(0 34.543)"/>
                        <path fill="#596685" d="M16.185 68.189l-1.019-6.613s-4.195-1.346-6.331-3.831c0 0 1.14 2.907 5.048 4.486l1.566 5.572.27 4.598.466-4.212z" transform="translate(-588 -207) translate(588 207) translate(19 11) translate(0 34.543)"/>
                        <path fill="#FFB130" d="M10.437 21.982c-3.36-.812-5.488.816-6.73 5.383C2.642 31.286 1.085 39.397.48 42.425c-.224 1.121-.664 2.409 1.696 3.822 3.423 1.98 6.955 3.764 10.58 5.343l1.293-4.832-5.214-10.69 1.602-14.086z" transform="translate(-588 -207) translate(588 207) translate(19 11) translate(0 34.543)"/>
                        <path fill="#FFBDA7" d="M19.725 19.833L18.72 26.908 12.353 26.688 12.968 18.424z" transform="translate(-588 -207) translate(588 207) translate(19 11) translate(0 34.543)"/>
                        <path fill="#F0997A" d="M24.293 11.103s1.71 2.503 1.52 2.755c-.188.25-1.408.493-1.408.493l-.112-3.248z" transform="translate(-588 -207) translate(588 207) translate(19 11) translate(0 34.543)"/>
                        <path fill="#263238" d="M21.623 10.69c-.017-1.147.899-2.09 2.046-2.108 1.147-.017 2.091.899 2.109 2.046.017 1.147-.899 2.09-2.046 2.108-.551.008-1.083-.202-1.478-.586-.396-.384-.623-.909-.631-1.46zm.449 0c.015.892.75 1.603 1.642 1.588.892-.015 1.603-.75 1.588-1.642-.015-.891-.75-1.602-1.642-1.588-.885.022-1.587.753-1.575 1.638l-.013.004z" transform="translate(-588 -207) translate(588 207) translate(19 11) translate(0 34.543)"/>
                        <path fill="#FFBDA7" d="M19.554 4.177c3.384.659 4.384 2.126 4.784 7.482.421 5.594-.121 7.362-.844 8.13-.489.515-3.249.65-4.648.29-1.75-.448-5.712-1.794-7.601-4.575-2.244-3.28-2.863-7.761-.57-9.64 3.235-2.647 7.502-1.952 8.88-1.687z" transform="translate(-588 -207) translate(588 207) translate(19 11) translate(0 34.543)"/>
                        <path fill="#F0997A" d="M19.671 20.223c1.458.157 3.415 0 3.823-.448-1.629.103-3.625-.714-3.625-.714l-.198 1.162z" transform="translate(-588 -207) translate(588 207) translate(19 11) translate(0 34.543)"/>
                        <path fill="#263238" d="M24.863 5.527l-.104.108c-.668.654-1.53 1.076-2.243 1.695-.76.69-1.304 1.586-1.562 2.58-.22.816-.296 1.794-1.175 2.171 0 0-.592-2.158-2.414-1.857-1.822.3-2.042 2.651-.862 4.037 1.18 1.386 2.244.84 2.244.84s0 3.099-1.346 4.871c0 0-1.553.53-4.433-.036-1.795-.35-4.304-2.512-5.385-4.831-2.297-4.908-2.522-9.35.61-10.736.305-2.278 2.082-3.328 4.12-3.83 3.046-.75 5.936 1.018 8.947.295.632-.152 1.242-.39 1.884-.48.072-.02.148-.02.22 0 .157.077.148.296.108.449-.154.608-.451 1.171-.866 1.642 1.16.05 2.319-.114 3.419-.485.164 1.303-.262 2.61-1.162 3.567z" transform="translate(-588 -207) translate(588 207) translate(19 11) translate(0 34.543)"/>
                        <path fill="#263238" d="M8.651 5.491L6.614 4.334c.207-.364.592-.59 1.01-.593.419-.003.807.218 1.019.579.212.36.215.807.008 1.171zM19.824 13.292l-.099-2.341c.418-.018.814.189 1.039.542.224.354.243.8.05 1.171-.195.371-.572.61-.99.628z" transform="translate(-588 -207) translate(588 207) translate(19 11) translate(0 34.543)"/>
                        <path fill="#263238" d="M25.576 10.197L19.312 11.108 19.572 11.543 25.585 10.668z" transform="translate(-588 -207) translate(588 207) translate(19 11) translate(0 34.543)"/>
                        <path fill="#FFB130" d="M5.326 25.683c.745-2.907 1.795-3.854 4.321-3.921 1.304.089 2.602.255 3.886.498.265 1.225 3.437 2.06 6.645 1.395.956.278 3.482.97 4.272 1.256 2.27.821 3.374 3.18 3.522 10.664 0 0 .449 17.747 0 20.81-5.725 2.244-11.666 2.131-14.95 1.4-6.83-1.53-7.629-4.37-7.629-4.37s.36-7.123.588-12.538c-.34-3.45-.857-6.043-1.04-8.797-.169-2.14-.04-4.293.385-6.397z" transform="translate(-588 -207) translate(588 207) translate(19 11) translate(0 34.543)"/>
                        <path fill="#FFBDA7" d="M44.076 24.458c.552-1.4 1.346-3.894 2.665-5.598 1.32-1.705 1.795-2.957 2.302-2.212.682.987-.857 2.96-.516 3.14.341.18 1.625 2.795 1.755 4.24.13 1.444-3.698 5.078-3.698 5.078l-2.508-4.648z" transform="translate(-588 -207) translate(588 207) translate(19 11) translate(0 34.543)"/>
                        <path fill="#FFBDA7" d="M24.45 24.911c1.17.225 2.263.74 3.181 1.499 1.593 1.345 9.634 7.626 9.634 7.626l7.224-10.475 3.536 4.069s-5.295 10.076-7.512 13.844c-.69 1.18-2.44 1.4-5.46-.341-2.513-1.45-10.77-6.63-10.77-6.63s-2.059-5.99.167-9.592z" transform="translate(-588 -207) translate(588 207) translate(19 11) translate(0 34.543)"/>
                        <path fill="#FFB130" d="M24.015 24.763c.834.048 1.65.263 2.4.633 1.198.61 10.85 8.46 10.85 8.46l2.463-3.378c1.988.503 3.446 1.414 4.972 3.419 0 0-2.692 5.747-3.823 7.68-1.13 1.934-2.109 1.516-4.254.592-2.145-.924-10.989-6.1-10.989-6.1s-2.517-1.719-2.912-4.59c-.736-5.46 1.293-6.716 1.293-6.716z" transform="translate(-588 -207) translate(588 207) translate(19 11) translate(0 34.543)"/>
                        <path fill="#000" d="M37.265 33.856c.72.7 1.401 1.439 2.041 2.212 0 0-.053-1.382-1.615-2.795l-.426.583z" opacity=".1" transform="translate(-588 -207) translate(588 207) translate(19 11) translate(0 34.543)"/>
                        <path fill="#276EF1" d="M39.728 30.478l1.257-1.82c1.043.163 2.034.564 2.898 1.17.798.502 1.456 1.198 1.912 2.023L44.7 33.897c-1.335-1.55-3.048-2.727-4.972-3.419z" transform="translate(-588 -207) translate(588 207) translate(19 11) translate(0 34.543)"/>
                        <path fill="#000" d="M39.728 30.478l1.257-1.82c1.043.163 2.034.564 2.898 1.17.798.502 1.456 1.198 1.912 2.023L44.7 33.897c-1.335-1.55-3.048-2.727-4.972-3.419z" opacity=".25" transform="translate(-588 -207) translate(588 207) translate(19 11) translate(0 34.543)"/>
                        <path fill="#455A64" d="M45.036 32.08c0 .186-.15.336-.336.336-.186 0-.337-.15-.337-.336 0-.186.151-.336.337-.336.186 0 .336.15.336.336z" transform="translate(-588 -207) translate(588 207) translate(19 11) translate(0 34.543)"/>
                        <path fill="#276EF1" d="M12.82 20.42l-.054.683s.336.96 2.243 1.318c3.249.606 4.384-.403 4.384-.403l.08-.583s.315-.13.84.273c.799.833 1.548 1.712 2.243 2.634 0 0-.619-.184-2.647.681-2.025.788-4.257.872-6.336.238-1.178-.392-2.058-1.382-2.31-2.597-.045-.592.996-2.477 1.556-2.243z" transform="translate(-588 -207) translate(588 207) translate(19 11) translate(0 34.543)"/>
                        <path fill="#FFB130" d="M12.82 20.42l-.054.683s.336.96 2.243 1.318c3.249.606 4.384-.403 4.384-.403l.08-.583s.315-.13.84.273c.799.833 1.548 1.712 2.243 2.634 0 0-.619-.184-2.647.681-2.025.788-4.257.872-6.336.238-1.178-.392-2.058-1.382-2.31-2.597-.045-.592.996-2.477 1.556-2.243z" opacity=".25" transform="translate(-588 -207) translate(588 207) translate(19 11) translate(0 34.543)"/>
                    </g>
                    <g>
                        <path fill="#FFBDA7" d="M1.754 2.535s4.627-.4 5.304 0c.678.399.471 2.4 0 3.629-.471 1.23-2.831 2.028-5.02 3.508-.005-.22-.284-7.137-.284-7.137z" transform="translate(-588 -207) translate(588 207) translate(19 11) translate(46.665 51.59)"/>
                        <path fill="#FFA8A7" d="M2.037 9.663c.898-.66.898-1.467 1.086-2.754.188-1.288 3.71-2.692 3.823-1.714.112.978.449 1.763-.655 2.925s-2.634 2.409-4.254 1.543zM2.284 1.377c-.844 1.095-.987 2.387-1.431 3.1C.408 5.19-.27 6.011.709 6.141c.978.13 2.167-1.144 2.692-2.305.272-.654.782-1.18 1.427-1.472-.449-.157-.22-2-.543-2.243C4.3.112 2.634.79 2.284 1.377z" transform="translate(-588 -207) translate(588 207) translate(19 11) translate(46.665 51.59)"/>
                    </g>
                </g>
            </g>
        </g>
    </g>
</svg>
