<svg xmlns="http://www.w3.org/2000/svg" width="32" height="32" viewBox="0 0 32 32">
    <g fill="none" fill-rule="evenodd">
        <g>
            <g>
                <g>
                    <g>
                        <g>
                            <path d="M0 0H32V32H0z" transform="translate(-527 -630) translate(405 41) translate(24 429) translate(82 152) translate(16 8)"/>
                            <g>
                                <path d="M0 0H20.16V20.16H0z" transform="translate(-527 -630) translate(405 41) translate(24 429) translate(82 152) translate(16 8) translate(6 6)"/>
                                <path fill="#002F34" fill-rule="nonzero" d="M11.76 8.4H1.68v1.68h10.08V8.4zm0-3.36H1.68v1.68h10.08V5.04zm-10.08 8.4H8.4v-1.68H1.68v1.68zm16.38-3.78l1.26 1.26-5.872 5.88-3.788-3.78 1.26-1.26 2.528 2.52 4.612-4.62z" transform="translate(-527 -630) translate(405 41) translate(24 429) translate(82 152) translate(16 8) translate(6 6)"/>
                            </g>
                        </g>
                    </g>
                </g>
            </g>
        </g>
    </g>
</svg>
