<svg xmlns="http://www.w3.org/2000/svg" width="48" height="48" viewBox="0 0 48 48">
    <g fill="none" fill-rule="evenodd">
        <path d="M0 0H48V48H0z"/>
        <path fill="#FFF6D9" d="M44 23.92c0 11.003-8.919 19.922-19.92 19.922-11.003 0-19.922-8.919-19.922-19.921C4.158 12.919 13.077 4 24.08 4 35.081 4 44 12.919 44 23.92"/>
        <g fill-rule="nonzero">
            <path fill="#FF8169" d="M2.834 19.858L12.354.817c.344-.687 1.18-.965 1.867-.62.133.066.254.153.36.258l9.836 9.835c.544.543.544 1.424 0 1.968-.094.095-.203.176-.322.24L5.574 22.512c-.972.525-2.186.163-2.711-.809-.31-.573-.321-1.262-.03-1.845z" transform="translate(3.024 19.435)"/>
            <path fill="#FF5636" d="M22.753 8.625c-5.458 4.54-12.545 5.864-17.352 6.098l-3.984 7.969c-.247.494-.047 1.094.447 1.341.291.146.636.14.923-.014l21.31-11.52c.676-.365.928-1.209.562-1.885-.064-.12-.146-.228-.242-.324l-1.664-1.665z" transform="translate(3.024 19.435)"/>
            <g fill="#D83C3C">
                <path d="M2.806 21.389L2.806 10.221.024 15.786.024 22.893zM7.508.817L6.98 1.873l.016 17.252 4.83-2.61.024-.034V2.568L9.736.455c-.543-.543-1.424-.543-1.967 0-.106.106-.194.228-.26.362z" transform="translate(3.024 19.435) translate(4.846)"/>
            </g>
            <g fill="#AA133D">
                <path d="M.555 2.463L.024 3.525v7.107l2.782-1.504V2.28c-.79.088-1.546.148-2.25.183zM6.991 1.561l.005 5.3 4.83-2.61.024-.03V0C10.277.656 8.652 1.178 6.99 1.561z" transform="translate(3.024 19.435) translate(4.846 12.26)"/>
            </g>
        </g>
        <g fill-rule="nonzero">
            <g>
                <path fill="#F4CA62" d="M.951 20.168l-.78-1.152 3.565-2.409c1.041-.766 2.507-.544 3.273.497.182.247.314.527.388.825.143.558.712.894 1.27.75l4.376-1.139.348 1.347-4.371 1.142c-1.3.34-2.63-.44-2.97-1.739-.115-.512-.624-.834-1.137-.719-.146.033-.282.1-.398.196L.951 20.168z" transform="translate(12) translate(18.652 9.957)"/>
                <path fill="#FFCE32" d="M4.98 5.815c-1.6 0-2.899-1.298-2.899-2.899 0-1.6 1.298-2.899 2.9-2.899 1.6 0 2.898 1.298 2.898 2.9-.002 1.6-1.299 2.896-2.899 2.898zm0-4.406c-.832 0-1.507.675-1.507 1.507 0 .833.675 1.508 1.507 1.508.833 0 1.508-.675 1.508-1.508-.001-.832-.676-1.507-1.508-1.507z" transform="translate(12) translate(18.652 9.957)"/>
                <path fill="#FFCE32" d="M1.143 11.58L.06 10.707l3.905-4.84c.505-.646 1.156-1.165 1.9-1.514.513-.234 1.056-.398 1.614-.487.026-.004.053-.007.08-.008l6.668-.278.057 1.391-6.627.274c-.42.07-.83.194-1.217.371-.545.26-1.021.644-1.391 1.121L1.143 11.58z" transform="translate(12) translate(18.652 9.957)"/>
            </g>
            <g>
                <path fill="#FFCE32" d="M.821 8.08L.061 12.691 3.165 13.057zM28.538 30.842L24.719 33.536 23.037 30.902z" transform="translate(12) translate(1 3.696)"/>
                <path fill="#D9B238" d="M16.257 14.074L11.789 15.446 12.843 18.388zM16.257.074L11.789 1.446 12.843 4.388z" transform="translate(12) translate(1 3.696)"/>
            </g>
            <path fill="#F4CA62" d="M9.343 19.464l-1.205-.696 2.261-3.916c.673-1.164 2.162-1.563 3.326-.891.192.112.415.159.636.134.427-.084.754-.43.814-.86l.787-4.229 1.368.255-.787 4.229c-.184 1.278-1.37 2.166-2.649 1.982-.306-.044-.6-.148-.864-.306-.5-.288-1.138-.117-1.426.382l-2.26 3.916z" transform="translate(12)"/>
            <path fill="#FFE48D" d="M6.892 13.741l-1.29.522-1.694-4.193c-.504-1.247.098-2.666 1.345-3.17.206-.082.38-.229.497-.418.197-.388.126-.858-.176-1.171L2.726 2.087l1.043-.92L6.616 4.39c.895.932.864 2.413-.068 3.308-.223.213-.486.38-.774.492-.534.216-.792.825-.576 1.359l1.694 4.192z" transform="translate(12)"/>
        </g>
    </g>
</svg>
