<svg width="118" height="37" viewBox="0 0 118 37" fill="none" xmlns="http://www.w3.org/2000/svg">
<path d="M96.9363 1.19922C96.8853 1.50131 96.7284 1.75632 96.4564 1.95902L69.9219 25.1469L69.4681 25.5392L65.2114 29.2101L64.1979 30.0837C63.646 30.5597 63.0941 31.0344 62.5422 31.5118C60.6538 32.7149 58.4136 33.4106 56.0087 33.4106C53.9424 33.4106 51.9951 32.8967 50.2911 31.9865C50.5972 32.027 50.9097 32.0466 51.2262 32.0466C52.3482 32.0466 53.3199 31.8518 54.1386 31.4621C55.2122 30.952 56.1421 30.2485 57.0941 29.5436C58.5117 28.4935 59.9293 27.4446 61.3469 26.3932C62.2964 25.6896 63.2484 24.986 64.1979 24.2825L68.1852 21.3296L69.884 20.0715L71.3278 19.0017L95.197 0.309938C95.4651 0.107236 95.7371 0 96.0169 0C96.2955 0 96.5374 0.137315 96.7506 0.413252L96.7872 0.461639C96.9363 0.653879 96.9821 0.89974 96.9363 1.19922Z" fill="#B3B4B5"/>
<path d="M16.0357 15.6891C15.888 15.523 15.7127 15.3727 15.51 15.2419C15.0327 14.8966 14.5867 14.5971 14.1696 14.3395C13.7537 14.0845 13.3287 13.8766 12.8945 13.7157C12.4603 13.5549 12.0052 13.4359 11.5292 13.3587C11.0519 13.2815 10.5183 13.2423 9.92328 13.2423C9.25632 13.2423 8.6626 13.326 8.13818 13.4921C7.61508 13.6582 7.14298 13.8779 6.72711 14.1525C6.31125 14.4258 5.93984 14.7384 5.6129 15.0889C5.28596 15.4407 4.99171 15.8003 4.72885 16.1678C4.68047 15.9193 4.63993 15.642 4.60201 15.3386C4.5667 15.0352 4.50785 14.7528 4.42284 14.4899C4.33915 14.2297 4.22145 14.01 4.06583 13.8308C3.9102 13.6516 3.68396 13.5627 3.38579 13.5627H1.1116C0.836966 13.5627 0.58326 13.6516 0.350479 13.8308C0.11639 14.01 0 14.2702 0 14.6155V35.1577C0 35.8718 0.370096 36.2301 1.1116 36.2301H4.04883C4.78902 36.2301 5.1578 35.8731 5.1578 35.1577V21.7035C5.40759 20.5134 5.8993 19.5797 6.63034 18.901C7.36269 18.2223 8.25719 17.8849 9.31779 17.8849C9.72188 17.8849 10.0881 17.9228 10.415 18.0012C10.7432 18.0784 11.0623 18.1856 11.371 18.3216C11.6796 18.459 11.9961 18.6237 12.3178 18.8134C12.6382 19.0043 12.9952 19.207 13.3875 19.4202C13.5667 19.5143 13.7498 19.5627 13.9407 19.5627C14.0349 19.5627 14.146 19.5366 14.2716 19.4829C14.3945 19.4293 14.5057 19.343 14.5998 19.224L16.0632 16.9027C16.1351 16.7955 16.1835 16.6883 16.2058 16.581C16.2306 16.4738 16.2489 16.3744 16.2594 16.2776C16.2594 16.0514 16.1861 15.8552 16.0357 15.6891Z" fill="#66686E"/>
<path d="M38.4494 21.8016C38.1696 20.796 37.7746 19.8583 37.2633 18.9899C36.7506 18.1216 36.1399 17.3317 35.4272 16.6242C34.7132 15.9167 33.9246 15.3099 33.0641 14.8038C32.201 14.2977 31.2724 13.9054 30.272 13.6268C29.2755 13.3483 28.2384 13.207 27.17 13.207C26.0872 13.207 25.0488 13.3483 24.0575 13.6268C23.0636 13.9054 22.1338 14.299 21.2655 14.8038C20.3971 15.3099 19.6072 15.9167 18.8945 16.6242C18.1805 17.3317 17.5671 18.1216 17.0558 18.9899C16.5445 19.8583 16.1495 20.796 15.8696 21.8016C15.5911 22.806 15.4512 23.8509 15.4512 24.9337C15.4512 26.0165 15.5911 27.0575 15.8696 28.0566C16.1508 29.0571 16.5445 29.9882 17.0558 30.8513C17.5671 31.7144 18.1792 32.5017 18.8945 33.2144C19.6072 33.9285 20.3971 34.5379 21.2655 35.044C22.1338 35.5514 23.0649 35.9424 24.0575 36.2236C25.0488 36.5021 26.0872 36.6434 27.17 36.6434C28.2384 36.6434 29.2742 36.5021 30.272 36.2236C31.2724 35.9437 32.201 35.5514 33.0641 35.044C33.9246 34.5379 34.7132 33.9298 35.4272 33.2144C36.1399 32.5017 36.7506 31.7131 37.2633 30.8513C37.7746 29.9882 38.1696 29.0571 38.4494 28.0566C38.728 27.0575 38.8679 26.0165 38.8679 24.9337C38.8679 23.8509 38.728 22.806 38.4494 21.8016ZM33.2184 27.6368C32.8914 28.4895 32.4363 29.2284 31.8531 29.8587C31.2711 30.4891 30.578 30.9899 29.7737 31.3574C28.9721 31.7275 28.0998 31.9106 27.1595 31.9106C26.1944 31.9106 25.3051 31.7262 24.4904 31.3574C23.6757 30.9899 22.9695 30.4891 22.3758 29.8587C21.7807 29.2284 21.3165 28.4882 20.9843 27.6368C20.6508 26.7868 20.4847 25.8858 20.4847 24.9337C20.4847 23.9934 20.6508 23.095 20.9843 22.2384C21.3165 21.3831 21.7807 20.6312 22.3758 19.9799C22.9708 19.3326 23.677 18.8147 24.4904 18.4276C25.3051 18.0418 26.1944 17.8483 27.1595 17.8483C28.0998 17.8483 28.9708 18.0418 29.7737 18.4276C30.578 18.8147 31.2711 19.3339 31.8531 19.9799C32.435 20.6299 32.8914 21.3818 33.2184 22.2384C33.5453 23.0963 33.7101 23.9947 33.7101 24.9337C33.7101 25.8858 33.5453 26.7868 33.2184 27.6368Z" fill="#66686E"/>
<path d="M68.8354 13.5197C68.6837 13.3091 68.4313 13.2058 68.0874 13.2058H65.0337C64.5603 13.2058 64.2582 13.3091 64.1327 13.5118C64.0098 13.7158 63.9457 13.9709 63.9457 14.2769V23.0245L69.0695 19.232V14.1892C69.0695 13.9512 68.9936 13.725 68.8354 13.5197ZM63.947 31.8178V35.252C63.947 35.3253 63.9666 35.4168 64.0006 35.5266C64.0385 35.643 64.0948 35.7529 64.1798 35.8601C64.2635 35.9661 64.3642 36.055 64.4858 36.1269C64.6061 36.1962 64.7539 36.2341 64.9304 36.2341H68.0887C68.2796 36.2341 68.4405 36.1962 68.5712 36.1269C68.7046 36.055 68.8066 35.9661 68.8838 35.8601C68.9609 35.7529 69.0172 35.6339 69.0512 35.5123C69.0904 35.3854 69.1048 35.2716 69.1048 35.1644V27.3702L63.947 31.8178Z" fill="#66686E"/>
<path d="M105.476 21.1321C105.143 19.9786 104.618 18.901 103.904 17.9019C103.381 17.1748 102.776 16.5248 102.084 15.9481C101.395 15.3714 100.653 14.8797 99.862 14.4742C99.0721 14.0701 98.2365 13.7576 97.355 13.5379C96.4749 13.3182 95.5817 13.207 94.6768 13.207C93.5704 13.207 92.5203 13.3483 91.5277 13.6268C90.5351 13.9054 89.6131 14.3016 88.7605 14.813C87.9104 15.3256 87.1401 15.9402 86.451 16.6608C85.7591 17.3814 85.1733 18.1726 84.6933 19.0344C84.2108 19.8975 83.8394 20.8221 83.5765 21.8108C83.3163 22.7968 83.1829 23.8208 83.1829 24.8801C83.1829 26.5213 83.5033 28.0553 84.1388 29.4756C84.7744 30.8971 85.6336 32.1395 86.719 33.1974C87.8019 34.2567 89.0625 35.0898 90.5024 35.6966C91.9409 36.3034 93.4645 36.6081 95.0704 36.6081C96.5586 36.6081 97.9239 36.3505 99.1663 35.8404C100.41 35.3291 101.554 34.6268 102.602 33.7336C103.054 33.4014 103.28 33.0667 103.28 32.7345C103.28 32.6024 103.246 32.4716 103.182 32.3409C103.116 32.2101 103.012 32.0545 102.87 31.8766C102.727 31.6974 102.543 31.4777 102.317 31.2162C102.092 30.9559 101.817 30.629 101.497 30.2354C101.365 30.0693 101.23 29.949 101.095 29.8783C100.958 29.8064 100.836 29.7711 100.729 29.7711C100.587 29.7711 100.449 29.8103 100.318 29.8875C100.188 29.9647 100.05 30.0693 99.9091 30.2001C99.896 30.2001 99.8908 30.2053 99.8908 30.2184C99.6162 30.4681 99.2971 30.7101 98.9348 30.9416C98.5726 31.1743 98.175 31.377 97.7487 31.5562C97.3197 31.7354 96.8594 31.8779 96.3638 31.9851C95.8707 32.0924 95.3568 32.146 94.8206 32.146C94.1183 32.146 93.4161 32.0296 92.7138 31.7981C92.0115 31.5654 91.3629 31.2214 90.7679 30.7637C90.1728 30.3047 89.6589 29.745 89.2247 29.0858C88.7905 28.4254 88.4963 27.6656 88.342 26.8103H104.172C104.601 26.8103 104.934 26.7776 105.173 26.7123C105.411 26.6456 105.589 26.5423 105.706 26.3997C105.827 26.2572 105.901 26.0688 105.93 25.8374C105.96 25.6046 105.974 25.3169 105.974 24.9729C105.976 23.5658 105.81 22.2868 105.476 21.1321ZM88.4492 22.5418C88.6388 21.8526 88.9383 21.2092 89.3503 20.6142C89.7609 20.0192 90.2434 19.5013 90.7953 19.0619C91.3485 18.6225 91.9579 18.2746 92.6249 18.0183C93.2918 17.7606 93.9758 17.6338 94.6781 17.6338C95.4876 17.6338 96.2435 17.7515 96.9457 17.9908C97.648 18.2288 98.2731 18.5649 98.8197 18.9978C99.3664 19.432 99.8346 19.9498 100.22 20.5501C100.607 21.1517 100.895 21.8147 101.086 22.5405H88.4492V22.5418Z" fill="#66686E"/>
<path d="M117.071 13.8046C116.904 13.6451 116.666 13.5653 116.358 13.5653H113.787C113.787 12.8146 113.791 12.0679 113.796 11.3251C113.801 10.5823 113.805 9.83557 113.805 9.08491C113.805 8.75274 113.75 8.48465 113.635 8.28326C113.523 8.07925 113.282 7.97986 112.913 7.97986C112.722 7.97986 112.484 8.01255 112.199 8.07794C111.913 8.14464 111.618 8.2231 111.316 8.31857C111.013 8.41273 110.717 8.51212 110.432 8.61281C110.146 8.7122 109.904 8.79852 109.701 8.87044C109.39 8.97768 109.161 9.10061 109.013 9.23661C108.866 9.37393 108.79 9.56224 108.79 9.79895C108.79 10.4293 108.786 11.057 108.781 11.6821C108.775 12.3072 108.771 12.935 108.771 13.5653H106.718C106.373 13.5653 106.114 13.6372 105.941 13.7785C105.77 13.921 105.684 14.1642 105.684 14.5069V17.0675C105.684 17.4232 105.77 17.6782 105.941 17.8325C106.114 17.9855 106.374 18.0627 106.718 18.0627H108.771V30.1228C108.771 31.088 108.951 31.9472 109.308 32.7044C109.665 33.4602 110.149 34.0984 110.762 34.6163C111.375 35.1342 112.094 35.5304 112.922 35.8037C113.749 36.0771 114.632 36.2196 115.572 36.2327C115.88 36.2327 116.122 36.1464 116.295 35.9737C116.466 35.7998 116.554 35.5592 116.554 35.2506V32.771C116.554 32.5213 116.482 32.3068 116.339 32.1276C116.197 31.9485 115.999 31.8595 115.75 31.8595C115.06 31.8595 114.56 31.6882 114.251 31.3417C113.942 30.9964 113.787 30.4302 113.787 29.6442V27.302C113.787 27.2785 113.791 27.2549 113.796 27.2301C113.801 27.2065 113.805 27.183 113.805 27.1581V23.7632C113.805 23.3447 113.801 22.9589 113.796 22.6019C113.791 22.2423 113.787 21.8591 113.787 21.4485V18.0614H116.358C116.666 18.0614 116.904 17.979 117.071 17.8129C117.238 17.6468 117.32 17.3748 117.32 16.9942V14.5592C117.32 14.2166 117.239 13.9655 117.071 13.8046Z" fill="#66686E"/>
<path d="M62.5409 31.5144L62.4114 31.6268C62.3696 31.6634 62.3264 31.7001 62.2846 31.7367C62.0348 31.9525 61.785 32.1682 61.5352 32.3906C61.462 32.4507 61.3914 32.5135 61.3195 32.5763L61.1024 32.7659C60.7074 33.1098 60.3112 33.4538 59.911 33.7938C58.8046 34.7275 57.5243 35.4442 56.1747 35.9647C55.003 36.4158 53.7148 36.6434 52.3116 36.6434C51.2523 36.6434 50.2257 36.5022 49.2331 36.2236C48.2392 35.9424 47.3107 35.5514 46.4476 35.044C45.5845 34.5392 44.7972 33.9324 44.0832 33.2236C43.3692 32.5161 42.7532 31.7288 42.2353 30.8605C41.7188 29.9908 41.3186 29.0571 41.04 28.0566C40.7615 27.0588 40.6202 26.0165 40.6202 24.935C40.6202 23.8522 40.7615 22.8099 41.04 21.8121C41.3186 20.8117 41.7188 19.8766 42.2353 19.0083C42.3805 18.7676 42.5322 18.5322 42.693 18.3034C43.1037 17.7083 43.5679 17.1538 44.0832 16.6438C44.7972 15.9363 45.5845 15.3282 46.4476 14.8234C47.3107 14.3173 48.2392 13.9237 49.2331 13.6451C50.2257 13.3653 51.2523 13.2253 52.3116 13.2253C53.6338 13.2253 54.8814 13.428 56.0596 13.8334C57.2366 14.2375 58.2855 14.7855 59.1996 15.4747C59.3604 15.6342 59.5174 15.7729 59.673 15.8945C59.8338 16.0187 59.9149 16.2123 59.9149 16.4738C59.9149 16.5457 59.911 16.6294 59.9058 16.7236C59.9005 16.8191 59.8665 16.908 59.8077 16.9917L58.3443 19.2227C58.1063 19.5797 57.8434 19.7589 57.5583 19.7589C57.3556 19.7589 57.1307 19.6569 56.8809 19.4555C56.2741 18.9429 55.5666 18.5257 54.7571 18.2053C53.9476 17.8849 53.1146 17.724 52.258 17.724C51.3308 17.724 50.4585 17.9176 49.6438 18.3034C48.8277 18.6905 48.1111 19.2136 47.4925 19.8727C46.8726 20.5344 46.3848 21.3021 46.0278 22.1756C45.6721 23.0518 45.4943 23.9699 45.4943 24.935C45.4943 25.9224 45.6721 26.8496 46.0278 27.7179C46.3848 28.5876 46.8713 29.3422 47.4847 29.9843C47.6991 30.2105 47.9306 30.4224 48.1739 30.6159C49.7889 31.9015 51.7558 32.7554 53.7776 33.1595C54.4263 33.289 55.0854 33.3714 55.7471 33.408C55.8347 33.4093 55.921 33.4119 56.01 33.4119C58.4136 33.4119 60.6525 32.7162 62.5409 31.5144Z" fill="#66686E"/>
<path d="M84.5021 35.3397C84.4733 35.2586 84.4341 35.1814 84.3831 35.1056L84.3844 35.1043L84.2615 34.9107L84.1922 34.8218L74.6481 22.5851L71.0989 25.6492L78.6604 35.4835C78.9847 35.9805 79.3142 36.2329 79.6608 36.2329H83.8718C84.1085 36.2329 84.2876 36.1949 84.4066 36.1256C84.5217 36.0524 84.5819 35.9151 84.5819 35.7124C84.5819 35.6182 84.5544 35.4966 84.5021 35.3397Z" fill="#66686E"/>
</svg>
