<svg xmlns="http://www.w3.org/2000/svg" xmlns:xlink="http://www.w3.org/1999/xlink" width="370" height="146" viewBox="0 0 370 146"><defs><clipPath id="b"><rect width="370" height="146"/></clipPath></defs><g id="a" clip-path="url(#b)"><g transform="translate(-390.697 -1610.877)"><path d="M709.978,1727.312a14.25,14.25,0,0,0-7.609-5.251,13.059,13.059,0,0,0,5.427-4.792,12.53,12.53,0,0,0,1.872-6.759q0-6.258-5.427-10.662t-14.31-4.4h-21.35a1.128,1.128,0,0,0-1.128,1.127v55.92a1.127,1.127,0,0,0,1.128,1.127h24.285q8.73,0,14.253-4.983a16.182,16.182,0,0,0,5.523-12.553A14.644,14.644,0,0,0,709.978,1727.312Zm-28.441-21.069h5.874a7.7,7.7,0,0,1,5.015,1.485,4.824,4.824,0,0,1,1.808,3.936,5.1,5.1,0,0,1-1.808,4.083,7.451,7.451,0,0,1-5.015,1.547h-5.874Zm12.986,33.542a8.2,8.2,0,0,1-5.426,1.653h-7.56v-12.326h7.56a8.338,8.338,0,0,1,5.447,1.611,6.214,6.214,0,0,1-.021,9.062Z" opacity="0.75"/><path d="M604.052,1687.5a1.081,1.081,0,0,0,1.082,1.082h13.44a1.081,1.081,0,0,0,1.081-1.082v-26.184q0-9.57-4.343-14.58t-12.776-5.017a16.48,16.48,0,0,0-7.574,1.68,13.82,13.82,0,0,0-4.111,3.188.73.73,0,0,1-1.281-.482v-23.216a1.085,1.085,0,0,0-1.085-1.085H575.323a1.084,1.084,0,0,0-1.084,1.085V1687.5a1.084,1.084,0,0,0,1.084,1.085h13.162a1.085,1.085,0,0,0,1.085-1.085v-23.854a7.217,7.217,0,0,1,14.433-.025l.042,12.373Z"/><path d="M635.45,1610.908h0a12.388,12.388,0,0,0-12.335,13.533l5.362,57.788a7,7,0,0,0,6.973,6.356h0a7,7,0,0,0,6.973-6.356l5.362-57.788A12.388,12.388,0,0,0,635.45,1610.908Z"/><path d="M463.341,1643.431H452.467a2.483,2.483,0,0,0-2.355,1.694l-8.023,23.9-7.344-24.286a1.846,1.846,0,0,0-1.765-1.306h-9.435a1.847,1.847,0,0,0-1.766,1.306l-7.343,24.286-8.023-23.9a2.483,2.483,0,0,0-2.355-1.694H393.183a2.484,2.484,0,0,0-2.319,3.372l3.267,8.526,11.78,30.941a4.03,4.03,0,0,0,1.2,1.613,2.618,2.618,0,0,0,1.613.525h11.3a3.147,3.147,0,0,0,1.862-.588,3.339,3.339,0,0,0,1.2-1.55l5.175-13.755,5.176,13.755a3.326,3.326,0,0,0,1.2,1.55,3.144,3.144,0,0,0,1.861.588h11.3a2.613,2.613,0,0,0,1.612-.525,4.023,4.023,0,0,0,1.2-1.613l11.78-30.941,3.266-8.526A2.483,2.483,0,0,0,463.341,1643.431Z"/><path d="M602.811,1695.446H590.7a1.128,1.128,0,0,0-1.128,1.127v37.543a6.617,6.617,0,0,1-1.751,4.766,5.98,5.98,0,0,1-4.541,1.833,9.606,9.606,0,0,1-2.829-.421,12.173,12.173,0,0,1-2.866-1.355,2.967,2.967,0,0,0-3.968.606l-6.3,7.845a1.275,1.275,0,0,0,.235,1.824l1.617,1.2a21.96,21.96,0,0,0,6.624,3.265,26.549,26.549,0,0,0,7.819,1.137q8.892,0,14.609-5.481t5.713-14.72v-38.041A1.128,1.128,0,0,0,602.811,1695.446Z" opacity="0.75"/><g opacity="0.75"><path d="M716.156,1742.724l4.363-5a2.31,2.31,0,0,1,3.031-.388c4.064,2.712,8.81,4.527,12.822,4.527,4.954,0,7.05-1.541,7.05-4.171,0-2.811-3.144-3.718-8.384-5.713l-7.716-3.083c-6.668-2.538-12.48-7.888-12.48-16.412,0-10.064,9.527-18.316,23.054-18.316a31.381,31.381,0,0,1,15.941,4.4,5.026,5.026,0,0,1,1.259,7.528l-2.692,3.217a3.852,3.852,0,0,1-4.818.885,19.2,19.2,0,0,0-9.69-2.608c-4,0-6.478,1.36-6.478,3.989,0,2.811,3.525,3.809,9.146,5.894l7.525,2.811c7.717,2.9,12.1,7.98,12.1,16.14,0,9.974-8.765,18.86-24.2,18.86a37.8,37.8,0,0,1-18.6-5.011A4.96,4.96,0,0,1,716.156,1742.724Z"/></g><path d="M23.119,0h0A23.119,23.119,0,0,1,46.238,23.119h0A23.119,23.119,0,0,1,23.119,46.238h0A23.119,23.119,0,0,1,0,23.119H0A23.119,23.119,0,0,1,23.119,0Z" transform="translate(612.331 1695.714)"/><path d="M500.8,1645.175v.771a26.654,26.654,0,0,0-5.617-2.735,18.318,18.318,0,0,0-6.67-1.141,22.887,22.887,0,0,0-9.571,1.917,21.275,21.275,0,0,0-7.137,5.168,22.427,22.427,0,0,0-4.461,7.624,27.72,27.72,0,0,0-1.541,9.282,27.388,27.388,0,0,0,1.561,9.282,22.694,22.694,0,0,0,4.481,7.623,21.082,21.082,0,0,0,7.118,5.148,22.871,22.871,0,0,0,9.509,1.9,18.526,18.526,0,0,0,6.671-1.142,25.043,25.043,0,0,0,5.657-2.778v.814a1.6,1.6,0,0,0,1.6,1.6h11.312a1.6,1.6,0,0,0,1.6-1.6v-41.728a1.6,1.6,0,0,0-1.6-1.6H502.4A1.6,1.6,0,0,0,500.8,1645.175Zm-8.7,30.529a9.664,9.664,0,1,1,9.664-9.665A9.665,9.665,0,0,1,492.1,1675.7Z"/><path d="M554.951,1645.175v.771a26.621,26.621,0,0,0-5.616-2.735,18.32,18.32,0,0,0-6.671-1.141,22.885,22.885,0,0,0-9.57,1.917,21.276,21.276,0,0,0-7.137,5.168,22.429,22.429,0,0,0-4.461,7.624,27.7,27.7,0,0,0-1.541,9.282,27.387,27.387,0,0,0,1.561,9.282,22.694,22.694,0,0,0,4.481,7.623,21.082,21.082,0,0,0,7.118,5.148,22.868,22.868,0,0,0,9.509,1.9,18.521,18.521,0,0,0,6.67-1.142,25,25,0,0,0,5.657-2.778v.814a1.6,1.6,0,0,0,1.6,1.6h11.311a1.6,1.6,0,0,0,1.6-1.6v-41.728a1.6,1.6,0,0,0-1.6-1.6H556.55A1.6,1.6,0,0,0,554.951,1645.175Zm-8.7,30.529a9.664,9.664,0,1,1,9.665-9.665A9.665,9.665,0,0,1,546.251,1675.7Z"/></g></g></svg>