<svg xmlns="http://www.w3.org/2000/svg" xmlns:xlink="http://www.w3.org/1999/xlink" width="370" height="146" viewBox="0 0 370 146"><defs><clipPath id="b"><rect width="370" height="146"/></clipPath></defs><g id="a" clip-path="url(#b)"><g transform="translate(-390.697 -924.877)"><path d="M709.978,1040.948a14.251,14.251,0,0,0-7.609-5.252,13.063,13.063,0,0,0,5.427-4.791,12.532,12.532,0,0,0,1.872-6.759q0-6.258-5.427-10.663t-14.31-4.4h-21.35a1.128,1.128,0,0,0-1.128,1.128v55.919a1.128,1.128,0,0,0,1.128,1.128h24.285q8.73,0,14.253-4.983a16.185,16.185,0,0,0,5.523-12.554A14.639,14.639,0,0,0,709.978,1040.948Zm-28.441-21.07h5.874a7.7,7.7,0,0,1,5.015,1.485,4.824,4.824,0,0,1,1.808,3.936,5.1,5.1,0,0,1-1.808,4.083,7.451,7.451,0,0,1-5.015,1.548h-5.874Zm12.986,33.543a8.21,8.21,0,0,1-5.426,1.652h-7.56v-12.326h7.56a8.338,8.338,0,0,1,5.447,1.611,6.215,6.215,0,0,1-.021,9.063Z" fill="#fff"/><path d="M604.052,1001.139a1.081,1.081,0,0,0,1.082,1.081h13.44a1.081,1.081,0,0,0,1.081-1.081V974.954q0-9.57-4.343-14.58t-12.776-5.017a16.466,16.466,0,0,0-7.574,1.681,13.786,13.786,0,0,0-4.111,3.188.73.73,0,0,1-1.281-.483V936.527a1.084,1.084,0,0,0-1.085-1.084H575.323a1.084,1.084,0,0,0-1.084,1.084v64.609a1.084,1.084,0,0,0,1.084,1.084h13.162a1.084,1.084,0,0,0,1.085-1.084V977.281A7.217,7.217,0,0,1,604,977.256l.042,12.374Z" fill="#f60"/><path d="M635.45,924.544h0a12.388,12.388,0,0,0-12.335,13.532l5.362,57.788a7,7,0,0,0,6.973,6.356h0a7,7,0,0,0,6.973-6.356l5.362-57.788A12.388,12.388,0,0,0,635.45,924.544Z" fill="#f60"/><path d="M463.341,957.066H452.467a2.483,2.483,0,0,0-2.355,1.7l-8.023,23.9-7.344-24.286a1.846,1.846,0,0,0-1.765-1.306h-9.435a1.847,1.847,0,0,0-1.766,1.306l-7.343,24.286-8.023-23.9a2.483,2.483,0,0,0-2.355-1.7H393.183a2.484,2.484,0,0,0-2.319,3.372l3.267,8.526,11.78,30.941a4.022,4.022,0,0,0,1.2,1.613,2.612,2.612,0,0,0,1.613.525h11.3a3.146,3.146,0,0,0,1.862-.587,3.338,3.338,0,0,0,1.2-1.551l5.175-13.754,5.176,13.754a3.325,3.325,0,0,0,1.2,1.551,3.143,3.143,0,0,0,1.861.587h11.3a2.607,2.607,0,0,0,1.612-.525,4.015,4.015,0,0,0,1.2-1.613l11.78-30.941,3.266-8.526A2.483,2.483,0,0,0,463.341,957.066Z" fill="#f60"/><path d="M602.811,1009.081H590.7a1.128,1.128,0,0,0-1.128,1.128v37.542a6.617,6.617,0,0,1-1.751,4.766,5.981,5.981,0,0,1-4.541,1.834,9.607,9.607,0,0,1-2.829-.422,12.207,12.207,0,0,1-2.866-1.354,2.966,2.966,0,0,0-3.968.605l-6.3,7.846a1.274,1.274,0,0,0,.235,1.823l1.617,1.2a21.981,21.981,0,0,0,6.624,3.264,26.549,26.549,0,0,0,7.819,1.137q8.892,0,14.609-5.481t5.713-14.719v-38.041A1.128,1.128,0,0,0,602.811,1009.081Z" fill="#fff"/><path d="M716.156,1056.36l4.363-5a2.311,2.311,0,0,1,3.031-.389c4.064,2.712,8.81,4.527,12.822,4.527,4.954,0,7.05-1.541,7.05-4.171,0-2.811-3.144-3.718-8.384-5.713l-7.716-3.082c-6.668-2.539-12.48-7.889-12.48-16.413,0-10.064,9.527-18.316,23.054-18.316a31.374,31.374,0,0,1,15.941,4.4,5.025,5.025,0,0,1,1.259,7.527l-2.692,3.218a3.851,3.851,0,0,1-4.818.884,19.211,19.211,0,0,0-9.69-2.608c-4,0-6.478,1.36-6.478,3.99,0,2.811,3.525,3.808,9.146,5.893l7.525,2.811c7.717,2.9,12.1,7.98,12.1,16.14,0,9.975-8.765,18.861-24.2,18.861a37.8,37.8,0,0,1-18.6-5.012A4.959,4.959,0,0,1,716.156,1056.36Z" fill="#fff"/><path d="M23,0h0A23.2,23.2,0,0,1,46.238,23v.238a23,23,0,0,1-23,23H23a23,23,0,0,1-23-23V23A23,23,0,0,1,23,0Z" transform="translate(612.331 1009.35)" fill="#f60"/><path d="M500.8,958.811v.77a26.7,26.7,0,0,0-5.617-2.735,18.342,18.342,0,0,0-6.67-1.141,22.888,22.888,0,0,0-9.571,1.917,21.289,21.289,0,0,0-7.137,5.168,22.438,22.438,0,0,0-4.461,7.624A27.729,27.729,0,0,0,465.8,979.7a27.384,27.384,0,0,0,1.561,9.282,22.709,22.709,0,0,0,4.481,7.624,21.093,21.093,0,0,0,7.118,5.147,22.87,22.87,0,0,0,9.509,1.895,18.55,18.55,0,0,0,6.671-1.141,25.133,25.133,0,0,0,5.657-2.778v.813a1.6,1.6,0,0,0,1.6,1.6h11.312a1.6,1.6,0,0,0,1.6-1.6V958.811a1.6,1.6,0,0,0-1.6-1.6H502.4A1.6,1.6,0,0,0,500.8,958.811Zm-8.7,30.528a9.664,9.664,0,1,1,9.664-9.664A9.665,9.665,0,0,1,492.1,989.339Z" fill="#f60"/><path d="M554.951,958.811v.77a26.671,26.671,0,0,0-5.616-2.735,18.344,18.344,0,0,0-6.671-1.141,22.886,22.886,0,0,0-9.57,1.917,21.29,21.29,0,0,0-7.137,5.168,22.44,22.44,0,0,0-4.461,7.624,27.7,27.7,0,0,0-1.541,9.282,27.383,27.383,0,0,0,1.561,9.282A22.709,22.709,0,0,0,526,996.6a21.092,21.092,0,0,0,7.118,5.147,22.867,22.867,0,0,0,9.509,1.895,18.545,18.545,0,0,0,6.67-1.141,25.09,25.09,0,0,0,5.657-2.778v.813a1.6,1.6,0,0,0,1.6,1.6h11.311a1.6,1.6,0,0,0,1.6-1.6V958.811a1.6,1.6,0,0,0-1.6-1.6H556.55A1.6,1.6,0,0,0,554.951,958.811Zm-8.7,30.528a9.664,9.664,0,1,1,9.665-9.664A9.664,9.664,0,0,1,546.251,989.339Z" fill="#f60"/></g></g></svg>