<svg width="259" height="184" viewBox="0 0 259 184" fill="none" xmlns="http://www.w3.org/2000/svg">
<rect x="14.6846" y="1.51379" width="50.2285" height="52.265" fill="#E0E0E0"/>
<rect x="11.283" y="1.51379" width="50.2285" height="52.265" fill="#EBEBEB"/>
<rect x="18.0386" y="8.54071" width="36.7234" height="38.2111" fill="#FAFAFA"/>
<path d="M18.0386 47.0057C17.7684 47.3908 17.4613 47.7488 17.1217 48.0745C16.5302 48.665 15.702 49.5213 14.7555 50.4365C13.809 51.3518 12.9809 52.1608 12.3893 52.7336C12.0694 53.065 11.7188 53.3655 11.3423 53.6311C11.6019 53.2447 11.9013 52.8865 12.2355 52.5623C12.8271 51.9718 13.6552 51.1097 14.6017 50.2003C15.5482 49.291 16.3764 48.4761 16.9975 47.8974C17.3108 47.5631 17.66 47.2641 18.0386 47.0057Z" fill="#E0E0E0"/>
<path d="M54.762 46.8935C55.1375 47.1648 55.4861 47.4712 55.8031 47.8088C56.3946 48.3993 57.2524 49.226 58.1693 50.1708C59.0862 51.1156 59.8907 51.9423 60.4704 52.5328C60.8041 52.8506 61.1053 53.2007 61.3696 53.578C60.9911 53.3126 60.6421 53.0078 60.3284 52.6686C59.7369 52.0781 58.8791 51.2514 57.9622 50.3066C57.0453 49.3618 56.2408 48.5351 55.6611 47.9446C55.3251 47.6269 55.0237 47.2745 54.762 46.8935V46.8935Z" fill="#E0E0E0"/>
<path d="M54.6614 8.64109C54.9308 8.26445 55.2381 7.91623 55.5783 7.60181C56.1698 7.01131 56.9921 6.15509 57.9149 5.23982C58.8377 4.32455 59.6895 3.51557 60.3107 2.94278C60.6317 2.61028 60.9844 2.30968 61.3636 2.04523C61.093 2.41911 60.7858 2.76526 60.4467 3.0786C59.8552 3.6691 59.0329 4.53122 58.0805 5.44059C57.1281 6.34996 56.3059 7.16484 55.6788 7.74353C55.3709 8.07624 55.03 8.37696 54.6614 8.64109Z" fill="#E0E0E0"/>
<path d="M17.9379 8.73558C17.5624 8.46435 17.2138 8.15786 16.8968 7.82031C16.3053 7.22981 15.4416 6.40312 14.5306 5.45832C13.6196 4.51352 12.8033 3.68683 12.2236 3.09633C11.8905 2.77966 11.5911 2.42939 11.3303 2.05115C11.7044 2.31969 12.0511 2.62428 12.3655 2.96051C12.9571 3.55101 13.8207 4.37771 14.7317 5.3225C15.6427 6.2673 16.4591 7.094 17.0388 7.6845C17.3748 8.00225 17.6762 8.35457 17.9379 8.73558Z" fill="#E0E0E0"/>
<path d="M54.6613 46.7518C54.6613 46.7518 54.6613 46.6869 54.6613 46.5688C54.6613 46.4507 54.6613 46.2617 54.6613 46.0373C54.6613 45.559 54.6613 44.8563 54.6613 43.9765C54.6613 42.1696 54.6613 39.5359 54.6613 36.1878C54.6613 29.4975 54.6258 19.9609 54.5962 8.54072L54.7204 8.65882H18.0976L18.2337 8.523C18.2337 22.5473 18.2337 35.6859 18.2337 46.7341L18.1153 46.616L44.6404 46.6751L52.0821 46.7105H54.052H52.1117H44.6877L18.068 46.7695H17.9497V46.6514C17.9497 35.5855 17.9497 22.441 17.9497 8.44033V8.29861H18.0917H54.7145H54.8328V8.42262C54.8328 19.8724 54.7855 29.4384 54.7737 36.176C54.7737 39.5123 54.7737 42.1341 54.7382 43.9352C54.7382 44.8209 54.7382 45.5059 54.7382 45.9724C54.7382 46.1968 54.7382 46.368 54.7382 46.492C54.7382 46.616 54.6613 46.7518 54.6613 46.7518Z" fill="#E0E0E0"/>
<path d="M27.728 24.5019C27.728 24.5019 26.9413 33.9498 37.1928 33.9498C37.2047 28.9129 33.0342 24.927 27.728 24.5019Z" fill="#EBEBEB"/>
<path d="M46.5097 24.5078C46.5097 24.5078 37.0449 23.7224 37.0449 33.9557C42.0908 33.9735 46.0838 29.8045 46.5097 24.5078Z" fill="#EBEBEB"/>
<path d="M36.7494 19.3291C36.7494 19.3291 29.006 26.2674 37.1753 33.9616C40.973 29.9463 40.6299 23.6456 36.7494 19.3291Z" fill="#E0E0E0"/>
<path d="M193.965 192.605C191.575 190.854 189.344 188.896 187.299 186.753C185.245 184.595 183.802 181.932 183.116 179.035C182.939 178.155 182.886 177.151 183.448 176.455C188.772 180.588 192.912 185.956 193.965 192.605Z" fill="#E0E0E0"/>
<path d="M194.178 192.859C193.685 189.963 193.725 187.001 194.296 184.119C194.965 181.267 196.521 178.539 198.964 176.909C199.881 179.053 199.484 181.521 198.84 183.759C197.837 187.228 196.275 190.511 194.214 193.479" fill="#E0E0E0"/>
<path d="M225.749 195.262C226.696 192.026 227.648 188.767 227.908 185.401C228.169 182.035 227.684 178.533 225.939 175.646C222.673 181.952 222.348 189.316 225.649 195.599" fill="#E0E0E0"/>
<path d="M236.74 189.717C240.556 182.791 248.341 177.264 256.22 176.484C253.179 184.043 244.892 189.877 236.74 189.717Z" fill="#E0E0E0"/>
<path d="M227.323 170.987C232.047 175.325 238.387 177.47 244.779 176.892C245.069 176.897 245.352 176.796 245.572 176.608C246.01 176.13 245.483 175.392 244.981 174.996C239.846 171.004 233.635 169.345 227.329 170.963" fill="#E0E0E0"/>
<path d="M231.73 169.38C237.997 164.775 246.093 163.44 253.511 165.79C250.766 168.489 246.962 169.924 243.129 170.337C239.302 170.687 235.444 170.363 231.73 169.38Z" fill="#E0E0E0"/>
<path d="M229.979 158.32C229.476 153.207 229.801 149.174 229.446 144.036C229.446 143.623 229.334 143.133 228.95 142.985C228.411 142.779 227.968 143.434 227.766 143.977C226.255 148.803 227.06 154.055 229.949 158.208" fill="#E0E0E0"/>
<path d="M229.612 158.881C233.084 156.738 235.687 153.945 238.095 150.656C239.769 148.365 241.183 145.625 240.804 142.814C238.438 142.767 236.214 144.06 234.682 145.849C233.222 147.701 232.16 149.834 231.564 152.114C230.884 154.364 230.411 156.673 229.612 158.881" fill="#E0E0E0"/>
<path d="M237.947 156.573C245.583 153.75 252.653 149.588 258.823 144.284C256.332 143.28 253.499 143.883 250.985 144.875C245.288 147.172 240.633 151.046 237.841 156.502" fill="#E0E0E0"/>
<path d="M231.955 161.68C235.811 162.1 239.728 162.377 243.549 161.739C247.37 161.102 250.861 159.625 254.368 158.149C254.681 158.054 254.946 157.842 255.108 157.559C255.219 157.226 255.113 156.86 254.842 156.638C254.573 156.423 254.256 156.275 253.919 156.206C250.103 155.138 245.98 155.616 242.224 156.903C238.645 158.115 235.203 159.699 231.955 161.627" fill="#E0E0E0"/>
<path d="M209.949 171.164C207.322 165.849 207.494 159.685 209.76 154.222C211.363 156.655 211.534 159.749 211.262 162.649C210.99 165.548 210.079 168.518 210.032 171.43" fill="#E0E0E0"/>
<path d="M199.443 165.873C192.787 165.787 186.403 168.503 181.856 173.355C185.133 173.868 188.505 173.024 191.487 171.583C194.468 170.142 197.118 168.093 199.768 166.068" fill="#E0E0E0"/>
<path d="M192.386 163.517C189.174 163.257 186.08 162.861 182.992 163.806C179.904 164.751 177.077 166.894 175.84 169.865C178.87 170.108 181.91 169.535 184.643 168.205C187.358 166.876 189.95 165.307 192.386 163.517Z" fill="#E0E0E0"/>
<path d="M202.839 163.623C199.952 161.734 196.982 159.814 193.622 159.029C190.262 158.244 186.358 158.822 184.01 161.356C186.737 162.95 190.037 163.127 193.196 163.127C196.355 163.127 200.224 163.086 203.199 164.137" fill="#E0E0E0"/>
<path d="M202.856 163.777C197.917 158.935 196.048 150.237 198.035 143.623C201.933 149.58 203.637 156.704 202.856 163.777Z" fill="#E0E0E0"/>
<path d="M216.438 150.059C217.373 147.898 218.024 145.631 218.864 143.428C219.624 141.195 220.794 139.123 222.312 137.316C223.859 135.501 226.057 134.365 228.435 134.151C226.896 140.894 222.587 146.68 216.562 150.095" fill="#E0E0E0"/>
<path d="M213.983 152.917C212.439 150.803 210.659 147.928 208.571 146.345C206.482 144.763 203.755 143.806 201.206 144.414C203.885 149.1 208.62 152.25 213.983 152.917Z" fill="#E0E0E0"/>
<path d="M214.474 150.231C213.463 147.668 212.445 145.076 212.037 142.353C211.629 139.631 211.877 136.72 213.273 134.346C215.983 139.46 216.858 144.975 214.61 150.29" fill="#E0E0E0"/>
<path d="M216.462 134.352C218 129.28 222.65 125.542 227.672 123.829C228.296 123.577 228.971 123.476 229.642 123.534C230.323 123.613 230.893 124.089 231.091 124.745C231.274 125.607 230.559 126.38 229.908 126.953C225.98 130.299 221.414 132.816 216.486 134.352" fill="#E0E0E0"/>
<path d="M216.521 130.201C216.716 126.935 216.917 123.617 217.982 120.517C219.047 117.417 221.106 114.511 224.093 113.159C224.602 116.46 223.14 119.743 221.378 122.607C219.615 125.471 217.497 128.128 216.438 131.299" fill="#E0E0E0"/>
<path d="M216.438 132.457C215.172 128.76 215.036 124.066 212.824 120.842C211.274 118.592 208.789 117.056 207.453 114.677C206.646 116.962 206.759 119.47 207.766 121.674C208.773 123.856 210.161 125.841 211.866 127.538C213.51 129.309 214.912 130.602 216.438 132.457Z" fill="#E0E0E0"/>
<path d="M216.462 241.303C216.367 241.303 216.279 216.644 216.273 186.239C216.267 155.834 216.338 131.163 216.438 131.163C216.539 131.163 216.622 155.817 216.628 186.239C216.633 216.662 216.562 241.303 216.462 241.303Z" fill="#E0E0E0"/>
<path d="M238.048 167.444C237.75 167.589 237.439 167.705 237.119 167.792L234.563 168.654C232.41 169.386 229.446 170.426 226.234 171.76C223.022 173.095 220.053 174.228 218.343 175.705C217.663 176.275 217.121 176.992 216.758 177.801C216.515 178.391 216.474 178.734 216.438 178.728C216.424 178.642 216.424 178.554 216.438 178.468C216.477 178.223 216.538 177.982 216.622 177.748C216.944 176.888 217.474 176.121 218.166 175.516C219.197 174.646 220.351 173.932 221.591 173.396C222.957 172.758 224.477 172.091 226.086 171.43C229.31 170.113 232.298 169.068 234.475 168.412C235.563 168.075 236.45 167.822 237.071 167.656C237.389 167.555 237.716 167.483 238.048 167.444Z" fill="#E0E0E0"/>
<path d="M245.123 150.095C245.123 150.095 245.046 150.201 244.862 150.372L244.07 151.116L241.112 153.797L231.263 162.554C227.417 165.967 224.099 169.233 221.798 171.689C220.644 172.918 219.733 173.933 219.112 174.642C218.828 174.972 218.592 175.232 218.396 175.457C218.201 175.681 218.142 175.74 218.13 175.728C218.191 175.618 218.263 175.513 218.343 175.415C218.491 175.215 218.71 174.919 219.006 174.553C219.597 173.815 220.479 172.782 221.608 171.518C224.581 168.277 227.725 165.196 231.026 162.289C234.883 158.876 238.397 155.793 240.946 153.608L243.981 151.01L244.815 150.319C244.909 150.233 245.012 150.158 245.123 150.095Z" fill="#E0E0E0"/>
<path d="M227.116 166.026C227.015 165.979 227.814 164.131 228.618 161.787C229.423 159.442 229.801 157.47 229.908 157.488C230.014 157.506 229.772 159.531 228.955 161.905C228.614 162.909 228.219 163.895 227.772 164.857C227.611 165.276 227.39 165.67 227.116 166.026Z" fill="#E0E0E0"/>
<path d="M216.486 180.937C216.265 180.73 216.066 180.5 215.894 180.252L214.374 178.309C213.102 176.661 211.339 174.394 209.363 171.908C207.388 169.422 205.571 167.184 204.258 165.584L202.714 163.676C202.512 163.452 202.333 163.206 202.182 162.944C202.416 163.136 202.63 163.352 202.821 163.588C203.217 164.013 203.779 164.645 204.459 165.43C205.826 167.007 207.677 169.209 209.653 171.701C211.629 174.193 213.368 176.484 214.593 178.167C215.184 179.012 215.687 179.696 216.018 180.181C216.196 180.419 216.352 180.672 216.486 180.937Z" fill="#E0E0E0"/>
<path d="M211.753 174.884C211.694 174.949 210.434 173.449 209.771 171.181C209.398 169.972 209.246 168.706 209.322 167.444H209.476C209.411 167.727 209.357 167.881 209.328 167.875C209.298 167.869 209.298 167.709 209.328 167.42H209.487C209.561 168.65 209.774 169.869 210.12 171.052C210.753 173.26 211.848 174.825 211.753 174.884Z" fill="#E0E0E0"/>
<path d="M205.672 167.213C205.247 166.888 204.781 166.618 204.288 166.41C203.042 166.039 201.732 165.934 200.443 166.103C199.138 166.204 197.844 166.413 196.574 166.729C196.054 166.895 195.522 167.022 194.983 167.107C195.458 166.826 195.972 166.617 196.509 166.487C197.78 166.093 199.092 165.845 200.419 165.749C201.755 165.571 203.115 165.717 204.382 166.174C204.921 166.358 205.378 166.726 205.672 167.213Z" fill="#E0E0E0"/>
<path d="M204.193 165.353C204.193 165.406 203.389 165.029 202.076 164.58C198.64 163.405 194.96 163.126 191.386 163.771C190.02 164.013 189.192 164.267 189.174 164.208C189.347 164.099 189.537 164.019 189.736 163.972C190.26 163.788 190.796 163.638 191.339 163.523C194.948 162.731 198.711 163.017 202.158 164.344C202.676 164.542 203.182 164.77 203.673 165.029C204.022 165.217 204.205 165.33 204.193 165.353Z" fill="#E0E0E0"/>
<path d="M216.438 157.488C216.344 157.488 215.652 155.126 214.894 152.126C214.137 149.126 213.593 146.699 213.711 146.676C213.83 146.652 214.498 149.038 215.255 152.038C216.012 155.037 216.533 157.464 216.438 157.488Z" fill="#E0E0E0"/>
<path d="M216.539 157.488C216.432 157.523 215.983 155.917 214.823 154.276C214.096 153.305 213.247 152.432 212.297 151.677C212.657 151.767 212.991 151.939 213.273 152.179C213.989 152.703 214.611 153.344 215.113 154.075C215.878 155.069 216.37 156.245 216.539 157.488Z" fill="#E0E0E0"/>
<rect x="7.05347" y="143.871" width="215.608" height="6.63129" fill="#EBEBEB"/>
<path d="M25.705 149.687L9.5498 260.388H13.0163L32.9397 150.502L25.705 149.687Z" fill="#EBEBEB"/>
<path d="M207.435 148.985L224.477 260.388H221.017L200.194 150L207.435 148.985Z" fill="#EBEBEB"/>
<path d="M15.2405 117.163V132.091H12.7441V133.697H15.2405V143.688H61.9255V134.594H58.4709V132.61H61.9255V129.658H63.4636V128.311H61.6298V117.163H15.2405Z" fill="#F5F5F5"/>
<path d="M49.5208 117.186V143.517H61.9137V134.429H58.4591V132.616L61.9137 132.675V129.705H63.4813L63.4517 128.17L61.6298 128.128V117.145L49.5208 117.186Z" fill="#E0E0E0"/>
<path d="M50.4023 133.478C50.4023 133.573 41.9609 133.644 31.5437 133.644C21.1265 133.644 12.6792 133.573 12.6792 133.478C12.6792 133.384 21.1265 133.313 31.5437 133.313C41.9609 133.313 50.4023 133.39 50.4023 133.478Z" fill="#E0E0E0"/>
<path d="M50.4023 131.961C50.4023 132.055 41.9609 132.126 31.5437 132.126C21.1265 132.126 12.6792 132.055 12.6792 131.961C12.6792 131.866 21.1265 131.795 31.5437 131.795C41.9609 131.795 50.4023 131.872 50.4023 131.961Z" fill="#E0E0E0"/>
<path d="M52.8276 127.88C52.8276 127.975 44.3803 128.046 33.969 128.046C23.5577 128.046 15.1045 127.975 15.1045 127.88C15.1045 127.786 23.5459 127.715 33.969 127.715C44.3921 127.715 52.8276 127.792 52.8276 127.88Z" fill="#E0E0E0"/>
<path d="M53.0524 139.011C53.0524 139.106 44.611 139.182 34.1939 139.182C23.7767 139.182 15.3293 139.106 15.3293 139.011C15.3293 138.917 23.7708 138.846 34.1939 138.846C44.617 138.846 53.0524 138.911 53.0524 139.011Z" fill="#E0E0E0"/>
<rect x="57.2346" y="107.148" width="8.13972" height="9.66054" fill="#F5F5F5"/>
<rect x="20.73" y="106.516" width="36.7825" height="10.8947" fill="#E0E0E0"/>
<path d="M65.6168 107.437H56.5247V106.534H65.6168C65.8716 106.534 66.0782 106.74 66.0782 106.994C66.0686 107.242 65.8648 107.437 65.6168 107.437Z" fill="#E0E0E0"/>
<path d="M65.6168 117.417H56.5247V116.496H65.6168C65.8716 116.496 66.0782 116.702 66.0782 116.956C66.0782 117.21 65.8716 117.417 65.6168 117.417Z" fill="#E0E0E0"/>
<rect x="50.2781" y="106.516" width="4.34789" height="10.8947" fill="#EBEBEB"/>
<rect x="24.2322" y="106.64" width="4.34789" height="10.8947" fill="#EBEBEB"/>
<path d="M65.3743 108.748C65.3743 108.748 63.5996 108.795 61.4405 108.795C59.2813 108.795 57.5007 108.795 57.5007 108.748C57.5007 108.701 59.2754 108.695 61.4405 108.695C63.6055 108.695 65.3743 108.719 65.3743 108.748Z" fill="#E0E0E0"/>
<path d="M65.3743 110.195C65.3743 110.195 63.5996 110.242 61.4405 110.242C59.2813 110.242 57.5007 110.242 57.5007 110.195C57.5007 110.148 59.2754 110.148 61.4405 110.148C63.6055 110.148 65.3743 110.165 65.3743 110.195Z" fill="#E0E0E0"/>
<path d="M65.3743 111.978C65.3743 111.978 63.5996 112.025 61.4405 112.025C59.2813 112.025 57.5007 112.025 57.5007 111.978C57.5007 111.931 59.2754 111.931 61.4405 111.931C63.6055 111.931 65.3743 111.949 65.3743 111.978Z" fill="#E0E0E0"/>
<path d="M65.3743 113.761C65.3743 113.761 63.5996 113.809 61.4405 113.809C59.2813 113.809 57.5007 113.809 57.5007 113.761C57.5007 113.714 59.2754 113.714 61.4405 113.714C63.6055 113.714 65.3743 113.732 65.3743 113.761Z" fill="#E0E0E0"/>
<path d="M65.3743 115.545C65.3743 115.545 63.5996 115.592 61.4405 115.592C59.2813 115.592 57.5007 115.592 57.5007 115.545C57.5007 115.498 59.2754 115.498 61.4405 115.498C63.6055 115.498 65.3743 115.515 65.3743 115.545Z" fill="#E0E0E0"/>
<rect x="31.3899" y="110.998" width="16.5456" height="1.96045" fill="#EBEBEB"/>
<path d="M49.787 95.9403L54.3656 106.676H51.4197L49.3848 100.942L49.787 95.9403Z" fill="#E0E0E0"/>
<path d="M35.7319 86.2325L33.9631 106.676H48.9234L50.5679 86.2325H35.7319Z" fill="#EBEBEB"/>
<path d="M37.1929 87.8504L35.6431 104.975L46.8766 105.123L48.391 87.7501L37.1929 87.8504Z" fill="#FAFAFA"/>
<path d="M39.577 90.2242L38.6956 102.005H44.688L45.7409 90.2242H39.577Z" fill="#E0E0E0"/>
<path d="M205.963 10.2748L211.494 10.2449L211.643 37.7204L206.112 37.7502L205.963 10.2748Z" fill="#E0E0E0"/>
<path d="M158.037 10.3921L172.364 10.3147L172.446 25.4843L158.119 25.5617L158.037 10.3921Z" fill="#EBEBEB"/>
<path d="M172.293 10.321L186.62 10.2436L186.702 25.4133L172.375 25.4906L172.293 10.321Z" fill="#F5F5F5"/>
<path d="M158.058 14.5933C167.576 14.676 177.124 14.5933 186.642 14.4634C186.714 14.4491 186.766 14.3861 186.766 14.3128C186.766 14.2396 186.714 14.1765 186.642 14.1623C177.126 14.1071 167.6 14.1642 158.064 14.3335C157.992 14.3335 157.934 14.3917 157.934 14.4634C157.934 14.5352 157.992 14.5933 158.064 14.5933H158.058Z" fill="#E0E0E0"/>
<path d="M149.109 25.3797L175.136 25.2392L175.203 37.5981L149.176 37.7387L149.109 25.3797Z" fill="#EBEBEB"/>
<path d="M175.011 25.2339L201.039 25.0933L201.106 37.4523L175.078 37.5929L175.011 25.2339Z" fill="#F5F5F5"/>
<path d="M149.12 28.8243C166.411 29.0192 183.761 28.8243 201.052 28.5704C201.137 28.5704 201.206 28.5017 201.206 28.4169C201.206 28.3321 201.137 28.2633 201.052 28.2633C183.761 28.1748 166.405 28.1807 149.12 28.5645C149.048 28.5645 148.99 28.6227 148.99 28.6944C148.99 28.7661 149.048 28.8243 149.12 28.8243Z" fill="#E0E0E0"/>
<rect x="139.389" y="37.7467" width="100.835" height="4.42873" fill="#E0E0E0"/>
<rect x="155.899" y="39.8784" width="4.09352" height="15.1108" fill="#E0E0E0"/>
<rect x="217.006" y="39.8784" width="4.09352" height="15.1108" fill="#E0E0E0"/>
<path d="M211.355 0.0299377L216.886 6.55717e-05L217.091 37.7915L211.56 37.8213L211.355 0.0299377Z" fill="#EBEBEB"/>
<path d="M216.937 7.08585L225.532 7.03942L225.698 37.6622L217.103 37.7086L216.937 7.08585Z" fill="#F5F5F5"/>
<path d="M225.477 12.9458C224.049 13.0937 222.612 13.143 221.176 13.0935C219.743 13.1432 218.308 13.0938 216.882 12.9458C219.744 12.749 222.615 12.749 225.477 12.9458Z" fill="#E0E0E0"/>
<path d="M225.477 11.6585C224.049 11.8064 222.612 11.8558 221.176 11.8062C219.743 11.8559 218.308 11.8066 216.882 11.6585C219.744 11.4617 222.615 11.4617 225.477 11.6585Z" fill="#E0E0E0"/>
<path d="M225.477 33.0641C222.615 33.2609 219.744 33.2609 216.882 33.0641C219.744 32.8673 222.615 32.8673 225.477 33.0641Z" fill="#E0E0E0"/>
<path d="M225.477 31.7768C222.615 31.9736 219.744 31.9736 216.882 31.7768C219.744 31.58 222.615 31.58 225.477 31.7768Z" fill="#E0E0E0"/>
<path d="M221.319 28.9719C221.236 28.9719 221.165 25.8836 221.165 22.069C221.165 18.2544 221.236 15.172 221.319 15.172C221.401 15.172 221.466 18.2603 221.466 22.069C221.466 25.8777 221.395 28.9719 221.319 28.9719Z" fill="#E0E0E0"/>
<rect x="225.566" y="14.5697" width="9.35831" height="23.118" fill="#EBEBEB"/>
<path d="M215.634 6.46217C215.636 7.10517 215.25 7.68618 214.656 7.9339C214.061 8.18162 213.376 8.04719 212.919 7.59336C212.463 7.13954 212.326 6.45586 212.572 5.86158C212.818 5.2673 213.398 4.87964 214.042 4.87964C214.919 4.87963 215.63 5.58721 215.634 6.46217Z" fill="#E0E0E0"/>
<rect x="213.552" y="10.8318" width="0.981972" height="22.4802" fill="#E0E0E0"/>
<path d="M68.1276 106.137C68.1276 106.137 60.4539 106.921 59.3373 111.506C58.2207 116.091 54.5858 172.799 59.3373 180.832C64.0888 188.865 125.265 187.745 129.511 186.643C133.758 185.541 135.76 182.806 135.326 179.464C134.892 176.123 93.2334 171.98 93.2334 171.98L95.7755 112.797C95.7755 112.797 80.7964 105.312 68.1276 106.137Z" fill="black"/>
<path d="M135.362 180.896H135.177H134.631L132.534 180.95C130.711 180.997 128.074 181.02 124.813 181.014C118.28 181.014 109.282 180.79 99.357 180.083C94.3976 179.724 89.6758 179.27 85.3935 178.787C81.1112 178.303 77.2624 177.773 74.0433 177.272C72.4278 177.036 70.9785 176.783 69.7016 176.571C68.4246 176.358 67.3258 176.164 66.429 175.981L64.368 175.586L63.8335 175.48L63.6553 175.433C63.7164 175.425 63.7783 175.425 63.8394 175.433L64.3799 175.51L66.4527 175.846C67.3496 175.999 68.4484 176.182 69.7313 176.37C71.0142 176.559 72.4634 176.806 74.073 177.024C77.2981 177.502 81.1468 177.991 85.4232 178.474C89.6995 178.958 94.4213 179.388 99.3807 179.747C109.3 180.454 118.298 180.696 124.813 180.767C128.068 180.802 130.705 180.808 132.534 180.802H135.183L135.362 180.896Z" fill="#455A64"/>
<path d="M166.122 156.424C166.122 156.424 179.813 156.424 180.375 169.148C180.937 181.872 140.52 248.997 140.52 248.997L127.723 242.936L155.164 177.8L95.6189 171.957L97.3051 157.014L166.122 156.424Z" fill="#FFBE9D"/>
<path d="M140.219 108.45L142.651 115.868L129.391 116.901L127.847 112.929L140.219 108.45Z" fill="#FFBE9D"/>
<path d="M177.867 118.182C178.121 118.689 178.784 118.772 179.293 119.037C180.259 119.59 180.827 120.643 180.754 121.752C180.669 122.839 180.308 123.887 179.707 124.797C179.522 125.167 179.252 125.489 178.92 125.736C178.575 125.975 178.117 125.975 177.772 125.736C177.381 125.411 177.429 124.809 177.512 124.307C177.825 122.425 177.417 120.046 177.861 118.187" fill="#FFBE9D"/>
<path d="M89.6846 25.1658C89.4518 23.4503 90.5715 21.8416 92.2643 21.4596L106.902 12.1704C112.482 10.9193 119.511 20.2144 120.51 25.8209C121.521 31.9831 121.917 38.23 121.694 44.4701C121.291 54.0662 114.984 55.093 114.984 55.093L119.718 87.0032L96.9089 72.975L89.6846 25.1658Z" fill="#FFBE9D"/>
<path d="M117.469 33.7822C117.551 34.4347 117.097 35.0334 116.446 35.1337C115.804 35.2522 115.187 34.8296 115.067 34.1894C114.986 33.537 115.439 32.9383 116.091 32.838C116.733 32.7195 117.35 33.142 117.469 33.7822Z" fill="black"/>
<path d="M119.351 30.3357C119.232 30.4655 118.262 30.4478 117.037 30.9258C115.813 31.4039 115.002 32.0412 114.848 32.0058C114.694 31.9704 114.848 31.7993 115.221 31.5042C115.735 31.0854 116.317 30.758 116.943 30.5363C117.539 30.3072 118.173 30.1892 118.812 30.1881C119.238 30.1763 119.41 30.2766 119.351 30.3357Z" fill="black"/>
<path d="M105.352 34.3665C105.43 35.02 104.975 35.6176 104.322 35.718C103.683 35.8328 103.07 35.4112 102.95 34.7737C102.865 34.1204 103.32 33.5196 103.973 33.4222C104.615 33.3037 105.232 33.7263 105.352 34.3665Z" fill="black"/>
<path d="M106.624 32.8085C106.446 32.8793 105.535 32.3363 104.121 32.1298C102.707 31.9232 101.601 32.1298 101.465 32.0353C101.329 31.9409 101.601 31.8406 102.056 31.7285C102.766 31.5879 103.495 31.5739 104.21 31.6872C104.903 31.7817 105.571 32.006 106.18 32.3481C106.6 32.5901 106.736 32.779 106.624 32.8085Z" fill="black"/>
<path d="M112.399 40.8347C113.059 40.5366 113.755 40.3244 114.469 40.2032C114.795 40.1324 115.102 40.0321 115.132 39.796C115.122 39.4502 115.004 39.1161 114.795 38.8399C114.4 38.0531 113.974 37.2485 113.517 36.4262C111.742 32.9855 110.393 30.1409 110.558 30.0701C110.724 29.9993 112.262 32.7317 114.049 36.1724L115.286 38.6039C115.543 38.9811 115.658 39.4367 115.611 39.8904C115.54 40.1387 115.359 40.3409 115.12 40.4393C114.941 40.5092 114.755 40.5567 114.564 40.5809C113.856 40.7553 113.128 40.8405 112.399 40.8347Z" fill="black"/>
<path d="M114.978 55.1167C110.559 55.7685 106.045 55.1545 101.962 53.3462C101.962 53.3462 105.849 59.9796 115.197 57.9967L114.978 55.1167Z" fill="#EB996E"/>
<path d="M112.547 44.0157C111.902 43.1783 110.913 42.6771 109.855 42.6524C109.236 42.6653 108.69 43.0573 108.482 43.638C108.274 44.3816 108.445 45.1794 108.937 45.7744C109.425 46.4083 110.243 46.6934 111.02 46.5003C111.637 46.2463 112.163 45.8123 112.529 45.255C112.662 45.1131 112.757 44.9409 112.807 44.7534C112.851 44.514 112.786 44.2675 112.629 44.0806" fill="#EB996E"/>
<path d="M108.665 42.1803C108.878 42.139 109.044 43.5495 110.369 44.4111C111.695 45.2727 113.186 44.9422 113.221 45.137C113.221 45.2255 112.919 45.4498 112.28 45.5442C111.454 45.6516 110.616 45.4657 109.914 45.019C109.239 44.5865 108.76 43.9092 108.576 43.1304C108.452 42.5226 108.571 42.1803 108.665 42.1803Z" fill="black"/>
<path d="M107.038 27.0072C106.914 27.3613 105.6 27.2137 104.08 27.4262C102.559 27.6386 101.305 28.0695 101.092 27.7567C100.997 27.6032 101.21 27.2668 101.684 26.9127C103.024 26.0296 104.698 25.8119 106.222 26.3226C106.801 26.5881 107.091 26.836 107.038 27.0072Z" fill="black"/>
<path d="M119.422 27.4262C119.167 27.7507 118.02 27.5737 116.676 27.7094C115.333 27.8452 114.221 28.1875 113.925 27.9042C113.789 27.7684 113.925 27.4498 114.404 27.1193C115.727 26.274 117.38 26.1285 118.83 26.7298C119.339 26.9835 119.528 27.2668 119.422 27.4262Z" fill="black"/>
<path d="M83.2649 49.6931C83.5016 45.4144 84.1879 31.7167 86.9569 24.2452C89.7259 16.7737 93.625 13.4275 97.6365 11.8517C100.718 10.5384 104.264 10.9279 106.985 12.8786C109.044 14.3304 110.239 19.1108 110.239 19.1108C110.239 19.1108 100.506 22.4629 97.814 28.5534C94.6959 35.5173 94.1398 38.9049 94.1398 38.9049L93.2996 42.617C93.2996 42.617 95.1279 58.7521 95.9503 62.0924L82.7561 74.8163C83.188 70.6144 83.0283 53.9658 83.2649 49.6931Z" fill="black"/>
<path d="M110.529 19.1344C110.529 19.1344 116.168 17.8655 119.014 24.0563C120.303 26.8596 121.581 35.3462 121.581 35.3462C121.581 35.3462 122.061 28.4117 121.315 24.6406C120.57 20.8694 118.114 16.2662 114.884 13.935C111.653 11.6039 109.204 10.7245 104.151 11.6098C105.672 11.9892 107.054 12.7938 108.133 13.9291C108.896 14.8203 109.275 15.6111 110.529 19.1344Z" fill="black"/>
<path d="M94.2464 39.3652C93.9032 37.2878 91.4655 36.1547 89.7734 37.4117C88.8444 38.0963 88.2173 39.3357 88.5604 41.5429C89.4834 47.4445 95.2049 45.2845 95.1871 45.1193C95.1694 44.954 94.6487 41.7908 94.2464 39.3652Z" fill="#FFBE9D"/>
<path d="M93.0393 43.1658C93.0393 43.1658 92.9506 43.2544 92.7908 43.3606C92.5605 43.5003 92.286 43.5487 92.0216 43.4963C91.3649 43.3665 90.6904 42.4576 90.4951 41.4072C90.4005 40.9055 90.4207 40.3891 90.5543 39.8963C90.6035 39.5049 90.8455 39.1639 91.1992 38.9875C91.4337 38.8892 91.705 38.968 91.8501 39.1763C91.9566 39.3298 91.9329 39.4478 91.9684 39.4537C92.0039 39.4596 92.0808 39.3357 91.9684 39.0996C91.9132 38.9592 91.8107 38.8423 91.6785 38.7691C91.4966 38.673 91.2842 38.6518 91.0868 38.7101C90.6091 38.8849 90.2557 39.2932 90.152 39.7901C89.9821 40.3365 89.9496 40.9161 90.0573 41.478C90.2762 42.6583 91.0572 43.6734 91.9506 43.7855C92.2844 43.8278 92.6193 43.7171 92.8618 43.4845C93.0511 43.3075 93.063 43.1717 93.0393 43.1658Z" fill="#EB996E"/>
<path d="M99.9619 11.2026C99.9619 11.2498 100.778 11.1317 102.08 11.1553C102.842 11.1703 103.596 11.3037 104.317 11.5508C105.191 11.8735 105.995 12.3625 106.683 12.9908C107.957 14.1259 108.949 15.5399 109.582 17.1219C110.068 18.3022 110.174 19.1403 110.245 19.1285C110.237 18.9393 110.209 18.7514 110.162 18.5678C109.691 16.3567 108.521 14.3546 106.825 12.855C106.116 12.1993 105.28 11.6934 104.37 11.3678C103.63 11.1209 102.854 10.9993 102.074 11.0078C101.552 11.0076 101.03 11.0411 100.512 11.1081C100.326 11.1244 100.142 11.1559 99.9619 11.2026H99.9619Z" fill="#455A64"/>
<path d="M89.2587 44.2576C89.2609 44.2242 89.2609 44.1907 89.2587 44.1573L89.1758 43.8917C89.1344 43.7678 89.093 43.6203 89.0397 43.455L88.88 42.8648C88.5575 41.5747 88.422 40.2451 88.4777 38.9166C88.5529 36.946 89.0385 35.0125 89.9036 33.2393C91.0093 31.0923 92.5869 29.2222 94.5186 27.7684C95.5099 27.0053 96.5472 26.3037 97.6248 25.6675C98.6662 25.0419 99.7134 24.5225 100.684 23.9442C102.381 22.9116 103.995 21.7494 105.512 20.4681C106.807 19.3763 107.807 18.438 108.47 17.777C108.807 17.4465 109.062 17.1868 109.233 17.0039L109.429 16.7973C109.47 16.7501 109.494 16.7265 109.488 16.7206L109.417 16.7796L109.204 16.9744L108.423 17.7357C107.73 18.3789 106.719 19.2996 105.411 20.3678C103.889 21.6279 102.275 22.774 100.583 23.7966C99.6247 24.3868 98.5656 24.8766 97.5183 25.5081C96.4303 26.1441 95.3848 26.8498 94.3884 27.6209C92.4242 29.0886 90.8215 30.9839 89.7024 33.1625C88.8344 34.9606 88.3585 36.9217 88.3061 38.9166C88.2654 40.2563 88.4229 41.5946 88.7735 42.8885L88.951 43.4786C89.0161 43.6439 89.0693 43.7855 89.1107 43.9094L89.2172 44.175C89.2409 44.2281 89.2527 44.2576 89.2587 44.2576Z" fill="#455A64"/>
<path d="M87.6315 42.1803C87.6315 42.1803 87.6315 42.1448 87.6315 42.0858L87.596 41.8025C87.596 41.5547 87.5013 41.2124 87.454 40.7225C87.3146 39.3933 87.2928 38.0543 87.3889 36.7212C87.5334 34.7469 87.9311 32.7992 88.5722 30.9258C89.3731 28.6377 90.5421 26.4949 92.0335 24.5816C93.5692 22.6906 95.3614 21.0222 97.3585 19.6242C99.1335 18.3022 100.908 17.2635 102.323 16.3311C103.737 15.3986 104.914 14.6845 105.701 14.1416C106.097 13.8819 106.393 13.6635 106.594 13.516L106.825 13.3507L106.902 13.2858C106.902 13.2858 106.867 13.2858 106.813 13.333L106.571 13.4806L105.654 14.0707C104.861 14.5842 103.689 15.3101 102.24 16.1953C100.79 17.0806 99.0625 18.1429 97.2401 19.4648C95.2388 20.8644 93.446 22.5394 91.9151 24.4399C90.3941 26.3716 89.2045 28.5413 88.3947 30.8609C87.7461 32.7526 87.3482 34.7207 87.2114 36.7153C87.1291 38.0543 87.1746 39.3981 87.3475 40.7285C87.4066 41.2006 87.4895 41.5606 87.5309 41.8085C87.5309 41.9206 87.5723 42.015 87.59 42.0858C87.6078 42.1566 87.6255 42.1803 87.6315 42.1803Z" fill="#455A64"/>
<path d="M119.22 64.9075C119.22 64.9075 126.847 67.9999 128.308 71.9599C129.77 75.9199 140.858 108.621 140.858 108.621L127.989 113.543L122.12 86.6314L119.22 64.9075Z" fill="#FF9518"/>
<path d="M79.7919 157.77C79.7919 157.77 158.484 154.164 163.424 155.462C168.364 156.761 171.317 159.245 172.299 165.153C173.281 171.06 188.451 249.328 188.451 249.328L174.654 253.376C174.654 253.376 155.294 209.291 154.472 201.914C153.65 194.537 150.922 179.417 150.922 179.417C150.922 179.417 121.007 179.907 98.9796 179.417C76.9519 178.927 79.9102 158.59 79.9102 158.59L79.7919 157.77Z" fill="#FFBE9D"/>
<path fill-rule="evenodd" clip-rule="evenodd" d="M174.382 253.494L174.482 253.73L188.795 249.552L188.747 249.292C188.57 248.507 173.565 170.948 172.595 165.117C171.66 159.528 169.027 156.654 163.501 155.197C158.578 153.898 82.9929 157.345 79.7742 157.492H79.4429L79.6263 158.596C79.5139 159.298 78.6145 167.62 83.6555 173.563C86.9866 177.487 92.14 179.559 98.9856 179.712C119.7 180.172 147.727 179.759 150.685 179.712C151.04 181.701 153.425 195.174 154.182 201.944C154.999 209.285 173.589 251.688 174.382 253.494ZM151.224 179.364L151.177 179.116L150.94 179.128C150.919 179.128 150.76 179.13 150.473 179.134C146.583 179.19 119.285 179.579 99.0093 179.128C92.3471 178.974 87.3416 176.98 84.123 173.191C79.2484 167.456 80.1455 159.398 80.2246 158.687C80.2279 158.658 80.2298 158.641 80.2298 158.637V158.596L80.141 158.059C85.7205 157.805 158.691 154.524 163.353 155.757C168.619 157.138 171.128 159.888 172.015 165.2C172.945 170.765 186.653 241.545 188.057 248.793L188.12 249.121L174.825 253.016C173.287 249.511 155.549 208.848 154.774 201.879C153.957 194.578 151.253 179.511 151.224 179.364Z" fill="#EB996E"/>
<path d="M85.1051 115.437L87.0872 127.666C87.0872 127.666 78.4785 143.936 77.5081 157.923C77.0466 164.568 80.8688 178.178 80.8688 178.178C80.8688 178.178 111.186 181.5 127.539 181.075L144.988 180.314L148.064 153.125L128.48 150.304L128.776 113.254C128.776 113.254 132.326 103.498 132.598 100.612C133.225 94.5219 132.965 88.3606 126.865 80.4642L119.221 64.9075L116.671 63.7272L117.883 82.5711L95.909 61.7442L84.7797 65.7278L81.6261 80.5704L85.1051 115.437Z" fill="#FF9518"/>
<g opacity="0.3">
<path d="M123.197 154.807C121.771 155.055 111.482 155.203 110.056 155.45C109.565 155.6 109.035 155.543 108.588 155.291C108.224 154.947 108.107 154.416 108.292 153.951C108.481 153.494 108.777 153.09 109.156 152.771C111.647 150.41 114.884 149.047 118.031 147.713C119.037 147.294 120.126 146.864 121.179 147.123C122.227 147.469 123.037 148.308 123.344 149.366C123.644 150.406 123.768 151.489 123.711 152.57" fill="black"/>
</g>
<g opacity="0.3">
<path d="M85.9156 123.965C89.5898 123.109 91.8973 119.498 93.3883 116.039C94.8793 112.581 96.11 108.763 99.0328 106.378C101.175 104.608 104.044 103.829 105.896 101.775C107.691 99.7236 108.178 96.8402 107.156 94.3154C106.624 93.0524 105.553 91.8603 104.198 91.7895C102.601 91.7068 101.358 93.0878 100.382 94.3567C95.9167 100.191 91.706 106.211 87.7497 112.416C85.6256 115.75 83.5075 119.799 84.9866 123.464" fill="black"/>
</g>
<path d="M85.9394 67.6754C85.9394 67.6754 79.721 69.6465 77.4727 73.5357C75.2243 77.4249 71.4968 96.3101 70.5975 101.397C69.6982 106.485 65.3494 127.418 70.5975 130.711C75.8456 134.004 82.7444 128.94 84.5431 125.925C86.3417 122.909 93.6843 107.228 93.6843 107.228L87.0872 101.698C87.0872 101.698 88.2706 86.7436 87.8387 83.598C87.4067 80.4524 85.9394 67.6754 85.9394 67.6754Z" fill="#FFBE9D"/>
<path d="M66.438 106.502L80.8687 107.441L87.4599 99.7212L89.2822 87.5639L88.7971 64.3055C88.7971 64.3055 75.9165 67.4393 73.1297 77.2065C71.0648 84.4242 66.438 106.502 66.438 106.502Z" fill="#FF9518"/>
<path d="M91.9743 78.9947C91.146 78.8826 90.0869 79.8563 90.791 82.2052C91.3826 84.1645 92.495 86.0708 92.4121 87.1626C92.3293 88.2544 91.9033 90.5265 91.9033 91.7068C91.8518 92.8608 91.7392 94.0113 91.5661 95.1534L81.7444 106.957L90.2466 114.44L96.9739 103.9C96.9739 103.9 99.0033 104.236 100.181 102.89L101.956 100.866C101.956 100.866 106.512 99.1842 105.583 96.735C105.583 96.735 106.932 95.4544 105.707 93.4006C105.707 93.4006 106.346 91.2642 105.417 90.0072C105.417 90.0072 105.334 87.1449 104.571 86.6373C103.808 86.1298 95.9148 86.0472 95.9148 86.0472C95.485 84.7385 94.9893 83.4523 94.4297 82.1934C93.5659 80.7711 93.1281 79.1481 91.9743 78.9947Z" fill="#FFBE9D"/>
<path d="M95.3349 90.6032C95.3349 90.6327 95.1279 90.5206 94.9444 90.2432C94.4522 89.4734 94.5603 88.4661 95.2048 87.8176C95.4414 87.5875 95.6426 87.5166 95.6604 87.5462C95.3085 87.9711 95.0668 88.4757 94.9563 89.0157C94.9569 89.567 95.0865 90.1107 95.3349 90.6032Z" fill="#EB996E"/>
<path d="M105.086 89.7947C103.896 90.1407 102.672 90.3564 101.435 90.438C100.209 90.6158 98.9666 90.6574 97.7312 90.5619C98.947 90.3507 100.174 90.2069 101.405 90.1311C102.625 89.9489 103.853 89.8365 105.086 89.7947V89.7947Z" fill="#EB996E"/>
<path d="M105.784 93.1704C104.803 93.5676 103.768 93.8144 102.713 93.9022C101.673 94.0942 100.61 94.13 99.5596 94.0085C99.5596 93.9199 100.956 93.8314 102.672 93.5953C104.388 93.3593 105.766 93.0878 105.784 93.1704Z" fill="#EB996E"/>
<path d="M105.612 96.6347C104.081 97.103 102.472 97.2615 100.879 97.1009C101.657 96.9311 102.449 96.8304 103.246 96.8C104.028 96.6765 104.82 96.6212 105.612 96.6347Z" fill="#EB996E"/>
<path d="M98.1572 97.697C98.1572 97.7324 97.9916 97.697 97.7904 97.5849C97.5252 97.4046 97.339 97.1302 97.2697 96.8177C97.1939 96.5087 97.2361 96.1826 97.3881 95.9029C97.5064 95.6963 97.6366 95.6137 97.6661 95.6373C97.6957 95.6609 97.4236 96.1508 97.5656 96.7468C97.7076 97.3429 98.1986 97.6203 98.1572 97.697Z" fill="#EB996E"/>
<path d="M96.2167 94.8878C96.2167 94.9173 96.0214 94.817 95.838 94.5632C95.6026 94.228 95.4672 93.8331 95.4475 93.4242C95.4231 93.0143 95.5133 92.6057 95.7078 92.2439C95.8676 91.9724 96.0214 91.8544 96.051 91.878C95.8701 92.3661 95.7701 92.8804 95.7552 93.4006C95.8307 93.9172 95.9864 94.419 96.2167 94.8878Z" fill="#EB996E"/>
<path d="M103.186 100.359C102.757 100.585 102.286 100.722 101.802 100.76C101.333 100.894 100.841 100.929 100.358 100.86C100.786 100.631 101.258 100.494 101.743 100.459C102.211 100.321 102.704 100.287 103.186 100.359Z" fill="#EB996E"/>
<path d="M99.3819 86.1003C99.3819 86.1888 98.1986 86.1888 96.7017 86.3363C95.2048 86.4839 94.051 86.714 94.0273 86.6314C94.866 86.277 95.762 86.0771 96.6721 86.0412C97.5718 85.9008 98.4893 85.9207 99.3819 86.1003Z" fill="#EB996E"/>
<path d="M125.362 114.469H174.269C176.066 114.469 177.523 115.923 177.523 117.715V152.293H122.12V117.709C122.123 115.924 123.572 114.476 125.362 114.469Z" fill="#E0E0E0"/>
<path d="M177.524 154.807H112.44C112.44 153.432 113.558 152.317 114.937 152.317H177.524V154.807Z" fill="#E0E0E0"/>
<rect x="123.8" y="116.901" width="51.6762" height="35.4157" fill="white"/>
<path d="M175.47 152.293C175.47 152.293 175.47 152.069 175.47 151.644C175.47 151.219 175.47 150.582 175.47 149.767C175.47 148.121 175.47 145.713 175.435 142.632C175.435 136.471 175.399 127.636 175.37 116.877L175.494 117.001H123.824L123.978 116.848C123.978 129.495 123.978 141.505 123.978 152.258L123.842 152.116L161.063 152.187L171.713 152.228H174.547H175.275H175.53H175.293H174.577H171.772L161.176 152.264L123.859 152.334H123.717V152.293C123.717 141.534 123.717 129.525 123.717 116.883V116.73H123.871H175.541H175.666V116.883C175.666 127.671 175.618 136.536 175.601 142.715C175.601 145.784 175.601 148.18 175.601 149.797C175.601 150.605 175.601 151.225 175.601 151.65C175.601 152.075 175.47 152.293 175.47 152.293Z" fill="black"/>
<path d="M177.251 152.293C177.251 152.382 163.282 152.446 146.053 152.446C128.823 152.446 114.848 152.382 114.848 152.293C114.848 152.205 128.817 152.14 146.053 152.14C163.288 152.14 177.251 152.234 177.251 152.293Z" fill="black"/>
<ellipse cx="149.632" cy="134.612" rx="13.5787" ry="13.5443" fill="#00BA88"/>
<path d="M141.195 134.942L144.071 132.227L148.041 135.875L155.857 128.539L158.697 131.218L147.999 141.346L141.195 134.942Z" fill="white"/>
<path d="M91.5778 95.1534C91.6429 95.2065 87.5663 100.117 82.4721 106.113C77.3778 112.109 73.1948 116.925 73.1297 116.883C73.0646 116.842 77.1412 111.926 82.2354 105.924C87.3297 99.9219 91.5128 95.1003 91.5778 95.1534Z" fill="#EB996E"/>
<path d="M90.8737 87.5462C90.7407 89.2583 90.5056 90.961 90.1697 92.6452C89.9367 94.3478 89.6008 96.0348 89.1638 97.697C89.2966 95.9829 89.5317 94.2782 89.8679 92.5921C90.1047 90.8921 90.4405 89.2072 90.8737 87.5462Z" fill="black"/>
<path d="M128.776 113.254C128.797 113.133 128.829 113.015 128.871 112.9L129.19 111.908C129.474 111.052 129.894 109.813 130.374 108.273C130.946 106.473 131.424 104.645 131.805 102.796C132.282 100.538 132.495 98.233 132.438 95.9265C132.225 91.7269 131.042 87.6332 128.983 83.9639C128.372 82.8466 127.7 81.763 126.971 80.718C126.723 80.3462 126.51 80.0688 126.38 79.874C126.304 79.7771 126.238 79.6722 126.185 79.5612C126.275 79.6428 126.356 79.7338 126.427 79.8327C126.581 80.0216 126.812 80.2872 127.078 80.6531C127.847 81.6759 128.551 82.7463 129.184 83.8576C130.126 85.5122 130.901 87.2558 131.498 89.0629C132.24 91.2765 132.668 93.5828 132.77 95.9147C132.829 98.2463 132.607 100.577 132.107 102.855C131.709 104.709 131.207 106.539 130.604 108.338C130.095 109.872 129.646 111.106 129.326 111.949C129.172 112.343 129.048 112.667 128.954 112.923C128.908 113.04 128.849 113.151 128.776 113.254Z" fill="black"/>
<path d="M116.203 94.876C116.227 95.1509 116.227 95.4274 116.203 95.7022C116.202 96.0261 116.179 96.3495 116.132 96.6701C116.09 97.0981 116.024 97.5236 115.937 97.9449C115.842 98.4558 115.716 98.9604 115.558 99.4557C115.392 100.03 115.194 100.596 114.967 101.149C114.421 102.398 113.742 103.585 112.943 104.69C112.124 105.793 111.186 106.803 110.145 107.7C109.688 108.089 109.21 108.452 108.713 108.786C108.287 109.088 107.842 109.362 107.381 109.606C106.999 109.827 106.604 110.024 106.198 110.197C105.907 110.338 105.607 110.458 105.299 110.557C105.043 110.662 104.777 110.743 104.506 110.799C104.476 110.734 105.612 110.386 107.245 109.435C107.692 109.179 108.125 108.9 108.541 108.597C109.003 108.29 109.446 107.901 109.932 107.506C111.97 105.716 113.587 103.499 114.665 101.014C114.891 100.473 115.088 99.9219 115.257 99.3613C115.42 98.8734 115.556 98.3769 115.665 97.874C116.156 96.0563 116.144 94.876 116.203 94.876Z" fill="black"/>
<path d="M132.468 100.241C132.434 100.208 132.406 100.17 132.385 100.128L132.178 99.7685C131.983 99.4439 131.717 99.0012 131.379 98.4524C131.042 97.9035 130.516 97.2308 129.965 96.4635C129.415 95.6963 128.717 94.8583 127.977 93.9199C124.936 90.2137 120.445 85.3449 115.298 80.1455C110.15 74.9462 105.316 70.4137 101.772 67.1619L99.3584 65.0078C98.6484 64.3822 98.033 63.8275 97.5183 63.4026L96.335 62.4052L96.0332 62.1396C95.9943 62.112 95.9603 62.0781 95.9326 62.0393C95.975 62.06 96.0147 62.0858 96.051 62.116C96.1397 62.1809 96.2462 62.2576 96.3705 62.358L97.5893 63.3081L99.4649 64.878C100.193 65.5035 101.009 66.2176 101.908 67.0026C105.5 70.1894 110.346 74.716 115.517 79.9094C120.688 85.1029 125.143 90.013 128.143 93.7606C128.877 94.7108 129.539 95.5665 130.107 96.3337L131.48 98.3639C131.794 98.954 132.072 99.3789 132.231 99.7153L132.421 100.069C132.46 100.184 132.476 100.241 132.468 100.241Z" fill="black"/>
<path d="M120.978 127.542C120.869 127.579 120.756 127.601 120.641 127.606L119.676 127.742C118.836 127.854 117.611 127.984 116.126 128.12C113.103 128.391 108.908 128.61 104.293 128.557C99.6779 128.504 95.4652 128.167 92.4595 127.825C90.9508 127.654 89.7319 127.488 88.9095 127.353L87.9451 127.199C87.832 127.187 87.7208 127.161 87.6138 127.123C87.7277 127.108 87.843 127.108 87.9569 127.123L88.9273 127.223C89.7674 127.323 90.9922 127.453 92.4773 127.595C95.4889 127.884 99.6719 128.185 104.311 128.238C108.949 128.291 113.121 128.102 116.144 127.89C117.653 127.784 118.877 127.689 119.694 127.612L120.664 127.536C120.769 127.527 120.874 127.529 120.978 127.542Z" fill="black"/>
<path d="M146.603 114.428C146.603 114.428 156.295 110.657 157.212 110.356C158.129 110.055 166.601 109.394 166.601 109.394L177.524 113.307C177.524 113.307 177.624 115.544 175.074 115.243C172.826 114.864 170.609 114.319 168.441 113.614L166.909 114.523L146.603 114.428Z" fill="#FFBE9D"/>
<path d="M176.997 115.862C177.251 116.376 177.914 116.452 178.423 116.724C179.383 117.283 179.947 118.332 179.884 119.439C179.799 120.524 179.439 121.57 178.837 122.478C178.652 122.845 178.385 123.164 178.056 123.41C177.711 123.65 177.253 123.65 176.908 123.41C176.58 123.011 176.481 122.471 176.648 121.982C176.961 120.1 176.553 117.715 176.997 115.856" fill="#FFBE9D"/>
</svg>
