<svg xmlns="http://www.w3.org/2000/svg" width="48" height="48" viewBox="0 0 48 48">
    <g fill="none" fill-rule="evenodd">
        <g>
            <g>
                <g>
                    <path d="M0 0H48V48H0z" transform="translate(-897 -429) translate(889 417) translate(8 12)"/>
                    <g transform="translate(-897 -429) translate(889 417) translate(8 12) translate(14 10)">
                        <path fill="#FFD5CD" fill-rule="nonzero" d="M19.78 13.327c-.078-.083.181.177-4.333-4.337-.234-.234-.587-.304-.894-.178-.306.127-.506.427-.506.758v17.61c0 .453.367.82.82.82h4.375c.391 0 .728-.276.805-.66l1.528-7.664c.464-2.308-.208-4.682-1.795-6.35z"/>
                        <path fill="#FFAA9A" fill-rule="nonzero" d="M16.823 15.803l-2.536-2.535c-.32-.32-.32-.84 0-1.16.32-.32.84-.32 1.16 0l2.536 2.535c.32.32.32.84 0 1.16-.32.32-.84.32-1.16 0z"/>
                        <path fill="#F2F4F5" fill-rule="nonzero" d="M15.64 2.46v23.08c0 1.356-1.104 2.46-2.46 2.46H2.46C1.105 28 0 26.896 0 25.54V2.46C0 1.105 1.104 0 2.46 0h10.72c1.356 0 2.46 1.104 2.46 2.46z"/>
                        <g fill="#2C66FF" fill-rule="nonzero">
                            <path d="M8.99 6.564v1.412c0 .615-.5 1.06-1.054 1.06-2.033 0-4.017-.962-5.493-2.432S0 3.156 0 1.123C0 .538.475.068 1.06.068H2.47c.152 0 .287.098.335.242l.706 2.113c.035.103.02.217-.041.308l-.599.898c.227.476.629.996 1.092 1.454.464.458.99.853 1.466 1.08l.898-.599c.092-.06.205-.075.308-.04l2.118.706c.144.047.237.182.237.334z" transform="translate(3.5 8.75)"/>
                        </g>
                        <path fill="#001940" fill-rule="nonzero" d="M13.226 0H2.508C1.15 0 .047 1.104.047 2.46v23.08c0 1.356 1.104 2.46 2.46 2.46h10.72c1.356 0 2.46-1.104 2.46-2.46V2.46c0-1.356-1.104-2.46-2.46-2.46zm.82 22.805H1.688V2.46c0-.452.368-.82.82-.82h10.72c.452 0 .82.368.82.82v20.344z"/>
                        <path fill="#284E52" fill-rule="nonzero" d="M15.687 2.46v23.08c0 1.356-1.104 2.46-2.46 2.46h-5.36v-5.195h6.18V2.46c0-.452-.368-.82-.82-.82h-5.36V0h5.36c1.356 0 2.46 1.104 2.46 2.46z"/>
                        <circle cx="8.167" cy="25.667" r="1.167" fill="#5B787C"/>
                        <path fill="#FFD5CD" fill-rule="nonzero" d="M14.07 13.01c-.467-.474-1.113-.763-1.828-.763-1.42 0-2.57 1.148-2.57 2.57 0 .684.264 1.326.746 1.81l3.142 3.281c-.356.272-.77.65-1.173 1.161-1.221 1.547-1.84 3.603-1.84 6.11V28h6.015V15.598l-2.492-2.587z"/>
                    </g>
                </g>
            </g>
        </g>
    </g>
</svg>
