<svg xmlns="http://www.w3.org/2000/svg" width="16" height="16" viewBox="0 0 16 16">
    <g fill="none" fill-rule="evenodd">
        <g>
            <g>
                <g>
                    <g>
                        <path d="M0 0L16 0 16 16 0 16z" transform="translate(-397 -2694) translate(156 2506) translate(1 172) translate(240 16)"/>
                        <g fill-rule="nonzero" stroke="#001443" stroke-linejoin="bevel" stroke-width=".8">
                            <path d="M10 7.46v1.5c.001.282-.116.55-.324.74-.207.191-.486.285-.766.26-1.539-.167-3.017-.693-4.315-1.535-1.208-.768-2.232-1.792-3-3C.75 4.121.225 2.635.06 1.09.035.81.128.533.317.326.507.118.774 0 1.055 0h1.5c.502-.005.93.363 1 .86.063.48.18.951.35 1.405.137.365.05.777-.225 1.055l-.635.635c.712 1.252 1.748 2.288 3 3l.635-.635c.278-.275.69-.362 1.055-.225.454.17.925.287 1.405.35.503.07.873.507.86 1.015z" transform="translate(-397 -2694) translate(156 2506) translate(1 172) translate(240 16) translate(3 3)"/>
                        </g>
                    </g>
                </g>
            </g>
        </g>
    </g>
</svg>
