<svg xmlns="http://www.w3.org/2000/svg" width="24" height="24" viewBox="0 0 24 24">
    <g fill="none" fill-rule="evenodd">
        <g>
            <g>
                <g>
                    <path d="M0 0H24V24H0z" transform="translate(-116 -1261) translate(116 1012) translate(0 249)"/>
                    <g>
                        <path d="M0 0H24V24H0z" transform="translate(-116 -1261) translate(116 1012) translate(0 249)"/>
                        <path fill-rule="nonzero" stroke="#8C8C8C" stroke-opacity=".42" d="M9.167 8.667c.32 0 .612.131.823.343.212.211.343.502.343.823h0v4.084h-1.25v6.25H6.75v-6.25H5.5V9.833c0-.32.132-.612.343-.823.211-.212.503-.343.824-.343h0zm6.2 0c.33 0 .578.074.78.22.195.14.348.342.429.58h0l1.897 5.7h-2.306v5h-1.5v-5H12.36l1.898-5.702c.079-.238.23-.437.423-.577.195-.14.434-.221.686-.221zM7.917 4.5c.323 0 .615.13.826.34.211.21.34.503.34.827 0 .323-.129.615-.34.826-.21.211-.503.34-.826.34-.324 0-.616-.129-.827-.34-.21-.21-.34-.503-.34-.826 0-.324.13-.616.34-.827.21-.21.503-.34.827-.34zm7.5 0c.323 0 .615.13.826.34.211.21.34.503.34.827 0 .323-.129.615-.34.826-.21.211-.503.34-.826.34-.324 0-.616-.129-.827-.34-.21-.21-.34-.503-.34-.826 0-.324.13-.616.34-.827.21-.21.503-.34.827-.34z" transform="translate(-116 -1261) translate(116 1012) translate(0 249)"/>
                    </g>
                </g>
            </g>
        </g>
    </g>
</svg>
