<svg xmlns="http://www.w3.org/2000/svg" width="24" height="24" viewBox="0 0 24 24">
    <g fill="none" fill-rule="evenodd">
        <g>
            <g>
                <g>
                    <path d="M0 0H24V24H0z" transform="translate(-116 -1204) translate(116 1012) translate(0 192)"/>
                    <g>
                        <path d="M0 0H24V24H0z" transform="translate(-116 -1204) translate(116 1012) translate(0 192)"/>
                        <path fill-rule="nonzero" stroke="#8C8C8C" stroke-opacity=".42" d="M14.499 6.206l.668.668v1.96H19c.32 0 .612.131.824.342.18.182.303.422.335.688l.008.136v4.167c0 .48-.308.889-.72 1.07l-.114.044v3.052c0 .324-.129.616-.34.827-.18.18-.42.301-.69.332l-.136.008H6.5c-.324 0-.616-.13-.827-.34-.18-.18-.301-.421-.332-.69l-.008-.137v-3.046c-.442-.143-.774-.515-.826-.989l-.007-.131V10c0-.32.132-.612.343-.824.181-.18.421-.303.688-.335l.136-.008H9.5v-1.96l.666-.666v2.626H14.5l-.001-2.627zm-4.166 9.127H6v3.5h12.667v-3.5h-4.334v.834h-4v-.834zm3.334-2.5H11V15.5h2.667v-2.667zM19.5 9.5H5.167v5.167h5.166v-2.5h4v2.5H19.5V9.5zm-5.707-4l.666.666h-4.252l.667-.666h2.919z" transform="translate(-116 -1204) translate(116 1012) translate(0 192)"/>
                    </g>
                </g>
            </g>
        </g>
    </g>
</svg>
