<svg xmlns="http://www.w3.org/2000/svg" width="24" height="24" viewBox="0 0 24 24">
    <g fill="none" fill-rule="evenodd">
        <g>
            <g>
                <g>
                    <g>
                        <path d="M0 0L24 0 24 24 0 24z" transform="translate(-761 -248) translate(0 236) translate(677) translate(84 12)"/>
                        <g fill="#001E3E" fill-rule="nonzero">
                            <path d="M11.082 4.456c3.477 0 3.967 2.387 3.99 5.46v.443c-.006 1.343-.077 2.797-.013 4.229 0 .26-.211.47-.47.47h-2.925c-.845 0-.309-1.189-.47-5.058 0-1.4-.151-2.026-1.051-2.026-.813 0-1.284.319-1.284 1.947-.162 3.94.378 5.137-.47 5.137H5.463c-.742 0-.445-.695-.432-6.027V8.42c-.001-.947-.012-2.027-.038-3.257 0-.26.21-.47.47-.47 2.288.135 3.278-.372 3.278.545.567-.446 1.353-.782 2.34-.782zM.704 4.693c2.217.137 3.398-.342 3.398.47-.027 1.233-.038 2.314-.04 3.261l.001.612c.005 2.273.062 3.702.068 4.594v.221c-.004 1.01-.102 1.208-.5 1.208H.704c-.26 0-.47-.211-.47-.47.099-4.657-.021-7.15-.03-8.468v-.22c.004-1.01.102-1.208.5-1.208zm10.378.704c-1.242 0-2.044.684-2.353 1.27-.24.455-.928.232-.928-.22v-.814H5.935v8.484h1.983c0-3.986-.593-7.084 2.225-7.084 2.466 0 1.992 2.602 1.992 7.085h1.983V9.41c0-2.926-.823-4.013-3.036-4.013zm-7.922.237H1.175v8.484H3.16V5.634zM2.166 0c2.874 0 2.852 4.348 0 4.348C-.688 4.348-.705 0 2.166 0zm0 .941c-1.626 0-1.611 2.465 0 2.465 1.609 0 1.63-2.465 0-2.465z" transform="translate(-761 -248) translate(0 236) translate(677) translate(84 12) translate(4 4)"/>
                        </g>
                    </g>
                </g>
            </g>
        </g>
    </g>
</svg>
