<svg xmlns="http://www.w3.org/2000/svg" width="24" height="24" viewBox="0 0 24 24">
    <g fill="none" fill-rule="evenodd">
        <path d="M0 0L24 0 24 24 0 24z"/>
        <path fill="#284E52" fill-rule="nonzero" stroke="#284E52" stroke-width=".2" d="M6.344 20h5.218v-5.688H9.688v-1.874h1.874v-2.344c0-1.293 1.052-2.344 2.344-2.344h2.344v1.875h-1.875c-.517 0-.938.42-.938.938v1.874h2.728l-.312 1.876h-2.415V20h4.218C18.95 20 20 18.949 20 17.656V6.344C20 5.05 18.949 4 17.656 4H6.344C5.05 4 4 5.051 4 6.344v11.312C4 18.95 5.051 20 6.344 20zM4.937 6.344c0-.776.631-1.407 1.407-1.407h11.312c.776 0 1.407.631 1.407 1.407v11.312c0 .776-.631 1.407-1.407 1.407h-3.281V15.25h2.272l.625-3.75h-2.897v-.938h2.813v-3.75h-3.282c-1.81 0-3.281 1.472-3.281 3.282V11.5H8.75v3.75h1.875v3.813H6.344c-.776 0-1.407-.631-1.407-1.407V6.344z"/>
    </g>
</svg>
