<svg xmlns="http://www.w3.org/2000/svg" width="24" height="24" viewBox="0 0 24 24">
    <g fill="none" fill-rule="evenodd">
        <g>
            <g>
                <g>
                    <g>
                        <path d="M0 0L24 0 24 24 0 24z" transform="translate(-793 -248) translate(0 236) translate(677) translate(116 12)"/>
                        <g fill="#001E3E" fill-rule="nonzero">
                            <path d="M2.344 16h5.219v-5.688H5.688V8.438h1.875V6.094c0-1.293 1.05-2.344 2.343-2.344h2.344v1.875h-1.875c-.517 0-.938.42-.938.938v1.875h2.728l-.312 1.874H9.438V16h4.218C14.95 16 16 14.949 16 13.656V2.344C16 1.05 14.949 0 13.656 0H2.344C1.05 0 0 1.051 0 2.344v11.312C0 14.95 1.051 16 2.344 16zM.938 2.344c0-.776.63-1.406 1.406-1.406h11.312c.776 0 1.406.63 1.406 1.406v11.312c0 .776-.63 1.406-1.406 1.406h-3.281V11.25h2.272l.625-3.75h-2.897v-.938h2.813v-3.75H9.905c-1.81 0-3.281 1.472-3.281 3.282V7.5H4.75v3.75h1.875v3.813H2.344c-.776 0-1.406-.631-1.406-1.407V2.344z" transform="translate(-793 -248) translate(0 236) translate(677) translate(116 12) translate(4 4)"/>
                        </g>
                    </g>
                </g>
            </g>
        </g>
    </g>
</svg>
