<svg xmlns="http://www.w3.org/2000/svg" width="20" height="20" viewBox="0 0 20 20">
    <g fill="none" fill-rule="evenodd">
        <path d="M0 0H20V20H0z"/>
        <path fill="#284E52" fill-rule="nonzero" d="M15.778 7.876l-.075-.007c-.313-.032-.555-.257-.59-.547l-.008-.07c-.014-.118-.12-.206-.248-.206-.127 0-.233.088-.247.206l-.009.07c-.034.29-.276.515-.589.547l-.075.007c-.127.013-.222.112-.222.23 0 .118.095.217.222.23l.075.008c.313.032.555.257.59.547l.008.07c.014.117.12.206.247.206.128 0 .234-.089.248-.206l.009-.07c.034-.29.276-.515.589-.547l.075-.008c.127-.013.222-.112.222-.23 0-.118-.095-.217-.222-.23zM13.903 5.29c.127-.012.222-.111.222-.23 0-.118-.095-.216-.222-.23l-.075-.007c-.313-.032-.555-.257-.59-.547l-.008-.07c-.014-.118-.12-.206-.248-.206-.127 0-.233.089-.247.206l-.009.07c-.034.29-.276.515-.589.547l-.075.008c-.127.013-.222.111-.222.23 0 .118.095.217.222.23l.075.007c.313.032.555.257.59.547l.008.07c.014.117.12.206.247.206.128 0 .234-.088.248-.206l.009-.07c.034-.29.276-.515.589-.547l.075-.007z"/>
        <path stroke="#284E52" stroke-linecap="round" stroke-linejoin="bevel" stroke-width="1.5" d="M15.975 10.769c-.292 2.999-2.99 5.265-6.16 5.172C6.648 15.85 4.1 13.43 4.004 10.42 3.905 7.41 6.29 4.846 9.448 4.57c-1.373 1.764-1.18 4.218.453 5.77 1.633 1.551 4.216 1.734 6.074.43h0z"/>
    </g>
</svg>
