<svg xmlns="http://www.w3.org/2000/svg" width="24" height="24" viewBox="0 0 24 24">
    <g fill="none" fill-rule="evenodd">
        <g>
            <g>
                <g>
                    <path d="M0 0H24V24H0z" transform="translate(-116 -1449) translate(116 1012) translate(0 437)"/>
                    <g>
                        <path d="M0 0H20V20H0z" transform="translate(-116 -1449) translate(116 1012) translate(0 437) translate(2 2)"/>
                        <path fill-rule="nonzero" stroke="#8C8C8C" stroke-opacity=".42" d="M10.968 4.667L13.31 7h-.012l2.73 2.717c1.063-.066 1.95.229 2.564.764.58.506.909 1.224.909 2.019 0 .783-.317 1.491-.83 2.004-.512.512-1.22.83-2.003.83-.783 0-1.491-.318-2.004-.83-.513-.513-.83-1.221-.83-2.004 0-1.019.557-1.905 1.371-2.401l.166-.094-1.737-1.738-3.09 5.4H8.54L5.654 10.78c.862 1.41.556 2.85-.317 3.724-.513.512-1.221.83-2.004.83-.782 0-1.49-.318-2.003-.83C.817 13.99.5 13.283.5 12.5c0-.783.317-1.491.83-2.004.466-.466 1.093-.77 1.792-.822l.211-.007v-1H.5V8h3.46l1.775 1.775L9.285 8h4.08L10.7 5.333H8v-.666h2.968zm5.699 5.666c-.596 0-1.138.244-1.531.636-.393.393-.636.935-.636 1.531 0 .596.243 1.138.636 1.53.393.393.935.637 1.53.637.596 0 1.138-.244 1.531-.636.393-.393.636-.935.636-1.531 0-.596-.243-1.138-.636-1.53-.393-.393-.934-.637-1.53-.637zm-13.334 0c-.596 0-1.137.244-1.53.636-.393.393-.636.935-.636 1.531 0 .596.243 1.138.636 1.53.393.393.934.637 1.53.637s1.138-.244 1.531-.636c.393-.393.636-.935.636-1.531 0-.596-.243-1.138-.636-1.53-.393-.393-.935-.637-1.53-.637zM16.167 5.81V7h-2.383l2.383-1.191z" transform="translate(-116 -1449) translate(116 1012) translate(0 437) translate(2 2)"/>
                    </g>
                </g>
            </g>
        </g>
    </g>
</svg>
