<svg xmlns="http://www.w3.org/2000/svg" width="24" height="24" viewBox="0 0 24 24">
    <g fill="none" fill-rule="evenodd">
        <g>
            <g>
                <g>
                    <path d="M0 0H24V24H0z" transform="translate(-116 -1644) translate(116 1012) translate(0 632)"/>
                    <g>
                        <path d="M0 0L20 0 20 20 0 20z" transform="translate(-116 -1644) translate(116 1012) translate(0 632) translate(2 2)"/>
                        <path fill-rule="nonzero" stroke="#8C8C8C" stroke-opacity=".42" d="M11.46 2.167l4.707 4.707v9.793c0 .32-.132.612-.343.823-.182.181-.422.304-.688.335l-.136.008H4.992c-.32 0-.608-.13-.818-.34-.18-.182-.302-.423-.333-.69l-.008-.136V3.333c0-.32.132-.612.343-.823.182-.181.422-.304.688-.335L5 2.167h6.46zm-.127.666H4.5v14.334h11V7h-4.167V2.833zm-1 6.834v2.5h2.5v.666h-2.5v2.5h-.666v-2.5h-2.5v-.666h2.5v-2.5h.666z" transform="translate(-116 -1644) translate(116 1012) translate(0 632) translate(2 2)"/>
                    </g>
                </g>
            </g>
        </g>
    </g>
</svg>
