<svg xmlns="http://www.w3.org/2000/svg" width="24" height="24" viewBox="0 0 24 24">
    <g fill="none" fill-rule="evenodd">
        <g>
            <g>
                <g>
                    <path d="M0 0H24V24H0z" transform="translate(-116 -1579) translate(116 1012) translate(0 567)"/>
                    <g>
                        <path d="M0 0L20 0 20 20 0 20z" transform="translate(-116 -1579) translate(116 1012) translate(0 567) translate(2 2)"/>
                        <path fill-rule="nonzero" stroke="#8C8C8C" stroke-opacity=".42" d="M6.345 1.341l.287.014c1.126.087 2.227.56 3.089 1.423.704.708 1.15 1.573 1.336 2.481.196.953.107 1.953-.267 2.866l-.11.246 7.808 7.808-1.917 2.384-8.295-7.827c-.97.437-2.052.546-3.076.326-.891-.191-1.738-.632-2.43-1.325-.863-.858-1.337-1.959-1.423-3.084-.067-.86.092-1.733.476-2.526l.136-.26 3.106 3.106 1.893-1.88L3.84 1.97c.69-.386 1.45-.595 2.216-.625l.288-.003zm2.909 1.914c-1.158-1.145-2.782-1.503-4.25-1.06h0L7.9 5.091 5.075 7.918 2.178 5.02l-.06.22c-.345 1.405.032 2.944 1.13 4.031.98.98 2.331 1.37 3.616 1.181.533-.075 1.05-.252 1.53-.536h0l7.95 7.95 1.436-1.452-7.93-7.93.138-.234c.216-.396.364-.818.438-1.26.236-1.308-.152-2.716-1.172-3.736z" transform="translate(-116 -1579) translate(116 1012) translate(0 567) translate(2 2)"/>
                    </g>
                </g>
            </g>
        </g>
    </g>
</svg>
