<svg xmlns="http://www.w3.org/2000/svg" width="24" height="24" viewBox="0 0 24 24">
    <g fill="none" fill-rule="evenodd">
        <g>
            <g>
                <g>
                    <g>
                        <path d="M0 0L24 0 24 24 0 24z" transform="translate(-825 -248) translate(0 236) translate(677) translate(148 12)"/>
                        <g fill="#001E3E" fill-rule="nonzero">
                            <path d="M.255 11.665c1.493.947 3.23 1.448 5.024 1.448 2.628 0 5.035-1.01 6.78-2.842 1.67-1.753 2.588-4.11 2.543-6.501.633-.542 1.377-1.576 1.377-2.584 0-.386-.42-.631-.76-.434-.594.349-1.136.44-1.694.284-1.139-1.11-2.834-1.344-4.262-.574-1.249.672-1.943 1.902-1.88 3.245C5.273 3.45 3.325 2.392 1.966.75 1.743.48 1.32.512 1.142.816c-.654 1.12-.647 2.42-.078 3.469-.271.047-.438.275-.438.522 0 1.054.474 2.023 1.238 2.684-.142.137-.19.34-.129.522.336 1.01 1.097 1.798 2.047 2.193-1.034.494-2.177.659-3.195.534-.527-.072-.787.637-.332.925zm5.162-1.286c.377-.29.177-.893-.296-.903-.833-.018-1.592-.428-2.064-1.074.227-.015.463-.05.688-.11.511-.139.487-.876-.032-.98-.943-.19-1.683-.877-1.96-1.76.253.062.51.097.768.101.51.003.703-.65.287-.924-.937-.618-1.337-1.708-1.072-2.734 1.637 1.659 3.857 2.658 6.206 2.77.337.021.59-.295.516-.615-.32-1.384.453-2.354 1.283-2.8.821-.444 2.14-.582 3.15.478.3.317 1.313.329 1.829.208-.231.436-.587.849-.92 1.081-.141.1-.222.265-.214.438.108 2.207-.714 4.402-2.256 6.02-1.553 1.631-3.702 2.53-6.05 2.53-.934 0-1.85-.153-2.715-.445 1.035-.2 2.018-.639 2.852-1.281z" transform="translate(-825 -248) translate(0 236) translate(677) translate(148 12) translate(4 5)"/>
                        </g>
                    </g>
                </g>
            </g>
        </g>
    </g>
</svg>
