<svg xmlns="http://www.w3.org/2000/svg" width="48" height="48" viewBox="0 0 48 48">
    <g fill="none" fill-rule="evenodd">
        <g>
            <g>
                <path d="M0 0H48V48H0z" transform="translate(-7 -287) translate(7 287)"/>
                <g>
                    <path fill="#AEBABB" fill-rule="nonzero" d="M21.446 23.925H1.566c-.854 0-1.547-.692-1.547-1.546v-2.151l22.974-4.175v6.326c0 .854-.693 1.546-1.547 1.546z" transform="translate(-7 -287) translate(7 287) translate(12 13)"/>
                    <path fill="#F2F4F5" fill-rule="nonzero" d="M17.24 22.379H1.568c-.855 0-1.549-.694-1.549-1.55V1.626C.02.77.713.076 1.57.076h19.875c.855 0 1.549.694 1.549 1.55v15c0 .41-.937.805-1.227 1.095l-3.43 3.43c-.291.291-.685 1.228-1.096 1.228z" transform="translate(-7 -287) translate(7 287) translate(12 13)"/>
                    <path fill="#D8DFE0" fill-rule="nonzero" d="M17.233 22.379c.41 0 .805-.164 1.095-.454l4.211-4.21c.29-.291.454-.685.454-1.096v-.627c0 .7-.568 1.268-1.27 1.268h-2.58c-.7 0-1.268.569-1.268 1.27v2.58c0 .7-.569 1.269-1.27 1.269h.628z" transform="translate(-7 -287) translate(7 287) translate(12 13)"/>
                    <path fill="#ED5B5B" fill-rule="nonzero" d="M22.992 1.622V5.6H.02V1.622C.02.77.712.076 1.566.076h19.88c.854 0 1.546.693 1.546 1.546z" transform="translate(-7 -287) translate(7 287) translate(12 13)"/>
                    <g>
                        <path fill="#FFB130" fill-rule="nonzero" d="M2.228 9.611c.203 0 .368.165.368.368v1.841c0 .203-.165.368-.368.368H.388c-.204 0-.369-.165-.369-.368V9.98c0-.204.165-.369.369-.369h1.84zm5.253 0c.203 0 .368.165.368.368v1.841c0 .203-.165.368-.368.368H5.64c-.204 0-.369-.165-.369-.368V9.98c0-.204.165-.369.368-.369h1.84zm5.252 0c.204 0 .369.165.369.368v1.841c0 .203-.165.368-.369.368h-1.84c-.204 0-.368-.165-.368-.368V9.98c0-.204.164-.369.368-.369h1.84zm5.253-4.666c.203 0 .368.164.368.368v1.84c0 .204-.165.369-.368.369h-1.84c-.204 0-.369-.165-.369-.369v-1.84c0-.204.165-.368.368-.368h1.841zM2.228 4.83c.203 0 .368.165.368.368v1.84c0 .204-.165.369-.368.369H.388c-.204 0-.369-.165-.369-.368V5.198c0-.203.165-.368.369-.368h1.84zm5.253 0c.203 0 .368.165.368.368v1.84c0 .204-.165.369-.368.369H5.64c-.204 0-.369-.165-.369-.368V5.198c0-.203.165-.368.368-.368h1.84zm5.252 0c.204 0 .369.165.369.368v1.84c0 .204-.165.369-.369.369h-1.84c-.204 0-.368-.165-.368-.368V5.198c0-.203.164-.368.368-.368h1.84zM2.228.048c.203 0 .368.165.368.369v1.84c0 .204-.165.368-.368.368H.388c-.204 0-.369-.164-.369-.368V.417C.02.213.184.048.388.048h1.84zm5.253 0c.203 0 .368.165.368.369v1.84c0 .204-.165.368-.368.368H5.64c-.204 0-.369-.164-.369-.368V.417c0-.204.165-.369.368-.369h1.84zm5.252 0c.204 0 .369.165.369.369v1.84c0 .204-.165.368-.369.368h-1.84c-.204 0-.368-.164-.368-.368V.417c0-.204.164-.369.368-.369h1.84zm5.253 0c.203 0 .368.165.368.369v1.84c0 .204-.165.368-.368.368h-1.84c-.204 0-.369-.164-.369-.368V.417c0-.204.165-.369.368-.369h1.841z" transform="translate(-7 -287) translate(7 287) translate(12 13) translate(2.32 7.87)"/>
                    </g>
                </g>
            </g>
        </g>
    </g>
</svg>
