<svg xmlns="http://www.w3.org/2000/svg" width="64" height="64" viewBox="0 0 64 64">
    <g fill="none" fill-rule="evenodd">
        <path d="M0 0H64V64H0z"/>
        <g transform="translate(15.333 8.667)">
            <path fill="#FFD5CD" fill-rule="nonzero" d="M32.967 22.21c-.13-.137.301.297-7.222-7.226-.39-.391-.979-.508-1.49-.297-.51.212-.844.71-.844 1.264v29.348c0 .756.612 1.368 1.367 1.368h7.292c.652 0 1.213-.46 1.34-1.1l2.548-12.774c.773-3.846-.347-7.804-2.991-10.582z"/>
            <path fill="#FFAA9A" fill-rule="nonzero" d="M28.038 26.339l-4.226-4.226c-.534-.534-.534-1.4 0-1.934s1.4-.534 1.933 0l4.227 4.227c.534.534.534 1.4 0 1.933-.534.534-1.4.534-1.934 0z"/>
            <path fill="#F2F4F5" fill-rule="nonzero" d="M26.068 4.102v38.463c0 2.261-1.84 4.102-4.102 4.102H4.102C1.84 46.667 0 44.827 0 42.565V4.102C0 1.84 1.84 0 4.102 0h17.864c2.261 0 4.102 1.84 4.102 4.102z"/>
            <path fill="#00A49F" fill-rule="nonzero" d="M20.818 25.524v2.353c0 1.024-.836 1.765-1.757 1.765-3.39 0-6.697-1.602-9.156-4.052-2.46-2.45-4.072-5.746-4.072-9.136 0-.973.792-1.757 1.766-1.757h2.353c.253 0 .478.162.558.402l1.177 3.523c.057.172.032.361-.069.512l-.998 1.497c.379.794 1.048 1.66 1.82 2.424.774.763 1.65 1.422 2.444 1.8l1.497-.998c.152-.1.34-.126.512-.068l3.53 1.177c.24.08.395.304.395.558z"/>
            <path fill="#153E42" fill-rule="nonzero" d="M22.044 0H4.18C1.92 0 .078 1.84.078 4.102v38.463c0 2.261 1.84 4.102 4.101 4.102h17.865c2.261 0 4.102-1.84 4.102-4.102V4.102C26.146 1.84 24.306 0 22.044 0zm1.367 38.008H2.812V4.102c0-.754.614-1.368 1.367-1.368h17.865c.754 0 1.367.614 1.367 1.368v33.906z"/>
            <path fill="#284E52" fill-rule="nonzero" d="M26.146 4.102v38.463c0 2.261-1.84 4.102-4.102 4.102h-8.932v-8.66h10.3V4.103c0-.754-.614-1.368-1.368-1.368h-8.932V0h8.932c2.261 0 4.102 1.84 4.102 4.102z"/>
            <circle cx="13.611" cy="42.778" r="1.944" fill="#5B787C"/>
            <path fill="#FFD5CD" fill-rule="nonzero" d="M23.45 21.685c-.779-.791-1.855-1.273-3.047-1.273-2.365 0-4.283 1.913-4.283 4.283 0 1.14.44 2.21 1.243 3.018L22.6 33.18c-.594.453-1.283 1.082-1.956 1.935-2.034 2.579-3.066 6.005-3.066 10.184v1.368h10.026v-20.67l-4.153-4.312z"/>
        </g>
    </g>
</svg>
