<svg xmlns="http://www.w3.org/2000/svg" width="20" height="20" viewBox="0 0 20 20">
    <g fill="none" fill-rule="evenodd">
        <g>
            <g>
                <g>
                    <g transform="translate(-921 -22) translate(913 8) translate(0 4) translate(8 10)">
                        <path d="M0 0H20V20H0z"/>
                        <circle cx="10" cy="10" r="7.875" fill="#FFCE32" stroke="#FFD75D" stroke-width="2.25"/>
                        <path fill="#FF8169" fill-rule="nonzero" d="M13.556 11.556c-.556 0-1.09-.09-1.587-.254-.045-.013-.093-.022-.138-.022-.115 0-.227.044-.315.129l-.978.978c-1.258-.64-2.29-1.667-2.93-2.93l.979-.981c.124-.116.16-.29.11-.445-.164-.498-.253-1.031-.253-1.587C8.444 6.2 8.244 6 8 6H6.444C6.2 6 6 6.2 6 6.444 6 10.618 9.382 14 13.556 14c.244 0 .444-.2.444-.444V12c0-.244-.2-.444-.444-.444zM6.902 6.889h.667c.031.391.098.778.2 1.147l-.533.537c-.178-.537-.294-1.097-.334-1.684zm6.21 6.209c-.588-.04-1.156-.156-1.69-.338l.534-.533c.377.106.764.173 1.155.2v.67z"/>
                    </g>
                </g>
            </g>
        </g>
    </g>
</svg>
