<svg width="48" height="48" viewBox="0 0 48 48" fill="none" xmlns="http://www.w3.org/2000/svg">
<path d="M31.3255 24.2391L27.8496 21.3357C27.8029 21.2967 27.7599 21.2536 27.7208 21.207L24.3211 17.1469C23.9574 16.7125 24.0123 16.0635 24.4439 15.6973C24.8754 15.3311 25.5201 15.3864 25.8839 15.8208L29.2247 19.8108L32.6306 22.6557C33.0649 23.0186 33.1248 23.6671 32.7645 24.1043C32.403 24.543 31.7587 24.601 31.3255 24.2391Z" fill="#FFB69E"/>
<path d="M27.3667 15.3786L24.6829 15.1463C23.853 15.0745 23.1225 15.6935 23.0512 16.5288L22.4119 24.0138C22.3963 24.1967 22.4023 24.3807 22.4296 24.5621L23.1258 29.1852L21.1917 34.3477C20.9552 34.979 21.2718 35.6839 21.899 35.922C22.5234 36.159 23.2253 35.8441 23.4629 35.21L25.5102 29.7457C25.5844 29.5478 25.6061 29.3339 25.5736 29.125L24.9295 24.1898L28.1252 24.4853L28.7404 17.0166C28.8091 16.1828 28.1947 15.4502 27.3667 15.3786Z" fill="#407093"/>
<path d="M28.8717 35.0485L27.5226 29.0751L25.4024 24.3522C25.1264 23.7373 25.3978 23.0136 26.0086 22.7357C26.6193 22.4578 27.3384 22.731 27.6144 23.3459L29.785 28.1809C29.8184 28.2556 29.8444 28.3334 29.8625 28.4132L31.2387 34.5068C31.3873 35.1648 30.9779 35.8194 30.3242 35.969C29.6691 36.119 29.0199 35.7049 28.8717 35.0485Z" fill="#407093"/>
<path d="M28.1254 24.4852L22.417 23.9574L23.0514 16.5288C23.1227 15.6934 23.8533 15.0745 24.683 15.1463L27.3669 15.3786C28.195 15.4502 28.8093 16.1828 28.7407 17.0165L28.1254 24.4852Z" fill="#DA387D"/>
<ellipse cx="26.6679" cy="12.2473" rx="2.23236" ry="2.24725" fill="#FFB69E"/>
<path d="M18.5623 22.4526C18.5492 22.3413 18.5538 22.2261 18.579 22.1104L19.4516 18.0879C19.5248 17.7507 19.7607 17.4729 20.0801 17.3476L24.7256 15.5257C25.2525 15.319 25.8459 15.5815 26.0511 16.1118C26.2567 16.642 25.9957 17.2396 25.4689 17.4461L21.3348 19.0675L20.5793 22.5502C20.4586 23.1063 19.9131 23.4586 19.3607 23.3371C18.9231 23.2409 18.6126 22.8763 18.5623 22.4526Z" fill="#FFB69E"/>
<path d="M26.0512 16.1118C25.8459 15.5815 25.2524 15.319 24.7256 15.5257L22.7324 16.3073L23.4638 18.2325L25.4688 17.4461C25.9957 17.2396 26.2567 16.6421 26.0512 16.1118Z" fill="#FC6DAA"/>
<path d="M20.6919 22.7614L20.5992 23.1974C20.5733 23.3194 20.4535 23.3942 20.3271 23.3674L20.1013 23.3194L20.2403 22.6654C20.2663 22.5433 20.1873 22.4263 20.0609 22.3994L18.2546 22.0155C18.1281 21.9886 18.0084 22.0634 17.9825 22.1855L17.8435 22.8395L17.6177 22.7915C17.4912 22.7646 17.4123 22.6475 17.4382 22.5255L17.5309 22.0895C17.6078 21.7276 17.9725 21.4999 18.3473 21.5795L20.1535 21.9635C20.5283 22.0431 20.7688 22.3995 20.6919 22.7614Z" fill="#5A5A5A"/>
<path d="M20.0609 22.3994L19.1578 22.2075L19.2505 21.7715L20.1536 21.9635C20.5284 22.0431 20.7689 22.3995 20.692 22.7614L20.5993 23.1974C20.5733 23.3194 20.4536 23.3942 20.3272 23.3674L20.1014 23.3194L20.2404 22.6654C20.2663 22.5433 20.1874 22.4263 20.0609 22.3994Z" fill="#444444"/>
<path d="M22.872 23.6814L21.8527 28.4771C21.7757 28.8389 21.4111 29.0667 21.0363 28.9871L14.6843 27.6369C14.3095 27.5572 14.069 27.2008 14.146 26.839L15.1653 22.0432C15.1783 21.9822 15.2165 21.9357 15.2655 21.905L15.8851 24.6523L21.1533 25.7721L22.8367 23.5143C22.869 23.5622 22.885 23.6203 22.872 23.6814Z" fill="#444444"/>
<path d="M22.8366 23.5145L21.6048 25.8683C21.4623 26.1387 21.1542 26.2783 20.8471 26.213L15.9853 25.1796C15.6782 25.1143 15.4535 24.8615 15.4334 24.5565L15.2654 21.9052C15.3144 21.8746 15.3741 21.86 15.4373 21.8734L22.6925 23.4156C22.7557 23.429 22.8043 23.4667 22.8366 23.5145Z" fill="#6E6E6E"/>
<path d="M19.4583 25.2347L17.6521 24.8507C17.5256 24.8238 17.4059 24.8986 17.3799 25.0207L17.1946 25.8927C17.1687 26.0147 17.2476 26.1318 17.374 26.1586L19.1803 26.5426C19.3068 26.5695 19.4265 26.4946 19.4524 26.3726L19.6378 25.5006C19.6637 25.3785 19.5848 25.2615 19.4583 25.2347Z" fill="#FFD400"/>
<path d="M19.6378 25.499L19.4524 26.3709C19.4265 26.493 19.3068 26.5678 19.1803 26.5409L18.2772 26.3489L18.5552 25.041L19.4583 25.233C19.5848 25.2599 19.6637 25.3769 19.6378 25.499Z" fill="#FDBF00"/>
</svg>
